<?xml version="1.0" encoding="utf-8"?>
<!-- Generator: Adobe Illustrator 27.3.1, SVG Export Plug-In . SVG Version: 6.00 Build 0)  -->
<svg version="1.1" id="Layer_1" xmlns="http://www.w3.org/2000/svg" xmlns:xlink="http://www.w3.org/1999/xlink" x="0px" y="0px"
	 viewBox="0 0 256 149.4" style="enable-background:new 0 0 256 149.4;" xml:space="preserve">
<style type="text/css">
	.st0{enable-background:new    ;}
	.st1{clip-path:url(#SVGID_00000036234501011642309340000007592350067752615045_);fill:#F2A724;}
	.st2{fill:#FFC24F;}
	.st3{fill:#FFD483;}
	.st4{clip-path:url(#SVGID_00000177486354711853549370000003560309913425149622_);fill:#E89C21;}
	.st5{clip-path:url(#SVGID_00000017505713553156750690000010653750375317635206_);fill:#F2A724;}
	.st6{fill:#FFDA9F;}
	.st7{clip-path:url(#SVGID_00000047745881371307991930000016355718203996254911_);fill:#F2A724;}
	.st8{fill:#F7AC34;}
	.st9{clip-path:url(#SVGID_00000003816004813309551340000005625128966073191582_);fill:#F2A724;}
	.st10{fill:#FFB04F;}
	.st11{fill:#FFCE6B;}
	.st12{fill:#FFDB9C;}
	.st13{clip-path:url(#SVGID_00000112617365111497898920000014671360125563690165_);fill:#F2A724;}
</style>
<g>
	<g>
		<g class="st0">
			<defs>
				<path id="SVGID_1_" class="st0" d="M204.8,19.7l5.6,4.9c-7.1-6.2-39.5,8.9-71.6,33.3c-32.5,24.7-54.5,51.4-48,58.2
					c0.1,0.1,0.2,0.2,0.3,0.3l-5.6-4.9c-0.1-0.1-0.2-0.2-0.3-0.3c-6.5-6.8,15.5-33.4,48-58.2C165.2,28.6,197.7,13.5,204.8,19.7z"/>
			</defs>
			<clipPath id="SVGID_00000127731629570873188910000012202310325590906009_">
				<use xlink:href="#SVGID_1_"  style="overflow:visible;"/>
			</clipPath>
			<path style="clip-path:url(#SVGID_00000127731629570873188910000012202310325590906009_);fill:#F2A724;" d="M204.8,19.7
				c-7.1-6.2-39.5,8.9-71.6,33.3c-24,18.3-42.3,37.6-47.6,49.2c-1.1,2.4-2.3,5.9-1,8.2c0.6,1,0.9,1,6.4,5.9
				c-2.5-2.2-1.1-6.4,0.2-9.2c5.3-11.6,23.6-30.9,47.6-49.2c32.1-24.4,64.5-39.5,71.6-33.3L204.8,19.7z"/>
		</g>
		<path class="st2" d="M212.4,24.1c-0.5-0.6-0.3-0.4-6.3-5.6c4,3.5,0.2,11.1-2.6,15.6c-21.4,34.6-105,91.1-119.5,78.4l5.6,4.9
			c14.5,12.6,96.1-42.8,118.6-77.1c2.3-3.5,5-8.4,5.2-12.4C213.5,27.2,213.2,25.2,212.4,24.1z"/>
		<path class="st3" d="M206.5,18.8c-7.3-7.6-39.9,6.9-74.3,33.1c-34.4,26.2-55.7,52.7-48.4,60.3c7.3,7.6,39.9-6.9,74.3-33.1
			C192.5,52.9,213.7,26.5,206.5,18.8z M157.1,78.1c-32.5,24.7-65.4,39.9-71.9,33.1c-6.5-6.8,15.5-33.4,48-58.2
			c32.5-24.7,65.4-39.9,71.9-33.1C211.5,26.7,189.5,53.3,157.1,78.1z"/>
	</g>
	<g>
		<g class="st0">
			<g class="st0">
				<defs>
					<path id="SVGID_00000003080127211895550630000015523993852733724303_" class="st0" d="M222.9,38.2l1.9,8.3
						c-2.4-10.5-41-13.2-85.3-5.9C94.6,48.1,58,63.6,59.4,74.4c0,0.1,0,0.3,0.1,0.4c-1.9-8.7-1.9-8.3-1.9-8.7
						c-1.4-10.8,35.2-26.3,80.1-33.7C181.9,25,220.5,27.7,222.9,38.2z"/>
				</defs>
				<clipPath id="SVGID_00000018214391766523250450000010816028055957119677_">
					<use xlink:href="#SVGID_00000003080127211895550630000015523993852733724303_"  style="overflow:visible;"/>
				</clipPath>
				<path style="clip-path:url(#SVGID_00000018214391766523250450000010816028055957119677_);fill:#E89C21;" d="M222.9,38.2
					c-2.4-10.5-41-13.2-85.3-5.9c-33.1,5.5-61.8,15.4-73.9,24.5c-2.5,1.9-5.8,4.9-6.1,8c-0.2,1.4,0.2,1.6,1.9,9.9
					c-0.8-3.7,3-7.3,6.1-9.6c12.1-9.2,40.8-19,73.9-24.5c44.3-7.3,82.9-4.6,85.3,5.9L222.9,38.2z"/>
			</g>
			<path class="st2" d="M226.8,46.6c-0.1-0.5,0,0-2-8.8c0.7,3-1.2,6-3.3,8.3C202.2,66.3,120.2,82.4,78.6,77.4
				c-7.3-0.9-21.3-3.3-22.9-10.4l0,0l0,0l1.9,8.3C60.2,87,98.2,90.1,145,82.4c19-3.2,41.4-8.5,58.9-16.1c7.2-3.1,21.8-10.2,22.9-18
				C226.8,48,226.9,47.1,226.8,46.6z"/>
			<g>
				<path class="st3" d="M224.9,38.3c-1.6-12.2-40.1-15.5-87.5-7.6C89.9,38.6,54,54.3,55.6,66.4c1.6,12.2,40.1,15.5,87.5,7.7
					C190.6,66.2,226.5,50.5,224.9,38.3z M142.9,72.4C98.1,79.8,59,77,57.5,66.1c-1.4-10.8,35.2-26,80.1-33.4
					c44.8-7.4,83.9-4.8,85.4,6C224.4,49.5,187.7,64.9,142.9,72.4z"/>
			</g>
		</g>
	</g>
	<g>
		<g class="st0">
			<g class="st0">
				<defs>
					<path id="SVGID_00000170999948601548416920000015619318707026985137_" class="st0" d="M220.7,98.3l-3.5,7.7
						c4.4-9.8-24.8-35.2-64.6-56c-40.3-21-78.9-30.7-84.3-21.2c-0.1,0.1-0.1,0.2-0.2,0.4c3.7-8.1,3.5-7.8,3.7-8.1
						c5.4-9.5,44,0.2,84.3,21.2C195.9,63.1,225.1,88.5,220.7,98.3z"/>
				</defs>
				<clipPath id="SVGID_00000091704514510675443020000006868928122036407731_">
					<use xlink:href="#SVGID_00000170999948601548416920000015619318707026985137_"  style="overflow:visible;"/>
				</clipPath>
				<path style="clip-path:url(#SVGID_00000091704514510675443020000006868928122036407731_);fill:#F2A724;" d="M220.7,98.3
					c4.4-9.8-24.8-35.2-64.6-56c-29.8-15.5-58.6-24.9-73.8-24.9c-3.2,0-7.6,0.4-9.7,2.7c-1,1-0.8,1.4-4.4,9c1.6-3.5,6.8-4,10.6-4
					c15.2,0,44,9.3,73.8,24.9c39.8,20.7,69,46.2,64.6,56L220.7,98.3z"/>
			</g>
			<path class="st2" d="M218.8,107.3c0.2-0.4,0,0,3.7-8.2c-1.3,2.8-4.5,4.1-7.6,4.6c-27.6,4.6-102.7-31.9-133.1-60.9
				c-5.3-5.1-15-15.5-12-22.1l0,0l0,0l-3.5,7.7c-4.9,11,23.5,36.3,65.6,58.3c17.1,8.9,38.2,18.1,56.7,22.6c7.6,1.8,23.6,5,29.1-0.6
				C218,108.5,218.5,107.8,218.8,107.3z"/>
			<path class="st2" d="M248.4,125.5c-23.9,4-83.8-23-119-49.2c-2.3,1.7-4.4,3.6-6.3,5.6c11.2,8.6,25.7,17.9,42.3,26.5
				c17.1,8.9,38.2,18.1,56.7,22.6c7.6,1.8,23.6,5,29.1-0.6c0.2-0.2,0.8-0.9,1-1.4c0.2-0.4,0,0,3.7-8.2
				C254.7,123.8,251.5,125,248.4,125.5z"/>
			<path class="st6" d="M256,120.9c-2.5,6-14.3,5.4-21.3,4.6c-0.1,0-3.5-0.5-3.3-0.5c-32.2-6.1-76.3-28.8-102-48.6
				c26.8,19.1,69.2,41.1,101.3,47.7C230.8,124,252.8,127.8,256,120.9z"/>
			<g>
				<path class="st3" d="M156.9,40.9C114.2,18.6,76.1,9.5,70.1,20.2c-6,10.7,22.1,37,64.8,59.3c42.7,22.3,81.4,30.8,87.4,20.1
					C228.3,88.9,199.6,63.1,156.9,40.9z M220.5,98.7c-5.4,9.5-44-0.2-84.3-21.2c-40.3-21-69.8-46.8-64.4-56.3
					c5.4-9.5,44,0.2,84.3,21.2C196.4,63.4,225.9,89.2,220.5,98.7z"/>
			</g>
		</g>
	</g>
	<g>
		<g class="st0">
			<g class="st0">
				<defs>
					<path id="SVGID_00000075847250588697575030000014823485966159551673_" class="st0" d="M222.2,63.6l-0.2,8.5
						c0.3-10.8-36.5-22.9-81.2-26.6c-45.3-3.8-84.6,2.2-85.9,13.1c0,0.1,0,0.3,0,0.4l0.2-8.5c0-0.1,0-0.3,0-0.4
						c1.3-10.9,40.6-16.8,85.9-13.1C185.6,40.7,222.4,52.8,222.2,63.6z"/>
				</defs>
				<clipPath id="SVGID_00000054229107731418292320000013977074092837812411_">
					<use xlink:href="#SVGID_00000075847250588697575030000014823485966159551673_"  style="overflow:visible;"/>
				</clipPath>
				<path style="clip-path:url(#SVGID_00000054229107731418292320000013977074092837812411_);fill:#F2A724;" d="M222.2,63.6
					c0.3-10.8-36.5-22.9-81.2-26.6c-33.5-2.8-63.7-0.2-77.7,5.7c-2.9,1.2-6.8,3.3-7.9,6.3c-0.5,1.3-0.2,1.6-0.5,10
					c0.1-3.8,4.8-6.4,8.2-7.8c14-5.9,44.2-8.4,77.7-5.7c44.7,3.7,81.5,15.8,81.2,26.6L222.2,63.6z"/>
			</g>
			<path class="st8" d="M219.2,70.6C188.2,90.9,52.3,75.3,53,50.4l-0.2,8.5c-0.3,12,35.8,24.4,83,28.3c39.3,3.3,87.7-0.5,88.1-15.2
				l0.2-8.5C224.1,66.6,221.7,69,219.2,70.6z"/>
			<g>
				<path class="st3" d="M141.1,35.3c-48-4-86.4,2.4-87.8,14.6c-1.4,12.2,34.4,25.2,82.4,29.2c48,4,87-2.7,88.4-14.9
					C225.5,52,189.1,39.3,141.1,35.3z M222.1,64c-1.3,10.9-40.6,16.9-85.9,13.1c-45.3-3.8-82.5-16.1-81.2-27
					c1.3-10.9,40.6-16.8,85.9-13.1C186.2,40.8,223.4,53.1,222.1,64z"/>
			</g>
		</g>
	</g>
	<g>
		<g class="st0">
			<g class="st0">
				<defs>
					<path id="SVGID_00000144334565628609078110000013388647610064020115_" class="st0" d="M217.3,39.2l3.2,7.9
						c-4-10-42.6-6.3-85.1,8.1c-43,14.6-76.7,35.9-73.5,46.3c0,0.1,0.1,0.3,0.1,0.4l-3.2-7.9c-0.1-0.1-0.1-0.3-0.1-0.4
						C55.5,83.2,89.2,62,132.2,47.4C174.7,32.9,213.3,29.3,217.3,39.2z"/>
				</defs>
				<clipPath id="SVGID_00000162314698324779776350000004267234145016580516_">
					<use xlink:href="#SVGID_00000144334565628609078110000013388647610064020115_"  style="overflow:visible;"/>
				</clipPath>
				<path style="clip-path:url(#SVGID_00000162314698324779776350000004267234145016580516_);fill:#F2A724;" d="M217.3,39.2
					c-4-10-42.6-6.3-85.1,8.1c-31.8,10.8-58.5,25.2-69,36.2c-2.2,2.3-4.9,5.8-4.7,8.9c0.1,1.4,0.4,1.6,3.5,9.4
					c-1.4-3.5,1.8-7.7,4.4-10.5c10.5-11,37.2-25.4,69-36.2c42.5-14.5,81.1-18.1,85.1-8.1L217.3,39.2z"/>
			</g>
			<path class="st10" d="M222.7,49.7c0.3-2.5-0.3-3-3.6-11.2c1.3,3.2-0.4,6.7-2.5,9.4c-12.3,16.7-52.4,32.9-72.3,39.7
				C99.5,102.9,61.5,106,57,94.8l3.2,7.9c4.5,11.2,42.5,8.1,87.4-7.2c1.1-0.4,2.3-0.8,3.4-1.2c19.4-6.8,53.3-21.1,67-36.3
				C220.1,55.8,222.3,52.7,222.7,49.7z"/>
			<path class="st3" d="M219.3,39c-3.6-11.7-42-8.8-87.6,6.7C86.1,61.2,53.2,82.6,56.8,94.3c3.6,11.7,42.2,10,87.7-5.5
				S222.9,50.7,219.3,39z M143.9,86c-43,14.6-82.1,18.2-85.2,7.7C55.5,83.2,89.2,62,132.2,47.4c43-14.6,82.1-18.2,85.2-7.7
				C220.6,50.1,187,71.3,143.9,86z"/>
		</g>
	</g>
	<path class="st11" d="M211.1,67.7c-0.1-1,0-0.6-3.3-10.1c2.2,6.4-7.6,13.2-13.9,17C144.7,103.6,7.9,124,0,101.2l3.1,8.8
		c8,22.9,141.7,2.6,191.9-25.4c5.1-2.9,11.7-7.1,14.7-11.7C210.2,72,211.3,69.5,211.1,67.7z"/>
	<path class="st12" d="M193.9,74.6C145.3,104.4,8.1,124.8,0,101.2C8.4,123.8,145.8,101.4,193.9,74.6z"/>
	<g>
		<g class="st0">
			<defs>
				<path id="SVGID_00000178911909141973535660000003955599029073726885_" class="st0" d="M234.4,74.4l-1,9.1
					c1.2-11.5-37.4-27.7-85.2-35.4c-48.4-7.9-91.2-4.8-93.5,6.8c0,0.1-0.1,0.3-0.1,0.4l1-9.1c0-0.2,0-0.3,0.1-0.4
					c2.3-11.6,45.1-14.7,93.5-6.8C197,46.7,235.6,62.9,234.4,74.4z"/>
			</defs>
			<clipPath id="SVGID_00000162316503532991728300000017778021644380162968_">
				<use xlink:href="#SVGID_00000178911909141973535660000003955599029073726885_"  style="overflow:visible;"/>
			</clipPath>
			<path style="clip-path:url(#SVGID_00000162316503532991728300000017778021644380162968_);fill:#F2A724;" d="M234.4,74.4
				c1.2-11.5-37.4-27.7-85.2-35.4c-35.8-5.8-68.5-5.6-84.1-0.5c-3.3,1.1-7.6,3-9.1,6.1c-0.6,1.4-0.4,1.7-1.4,10.8
				c0.4-4.1,5.7-6.5,9.5-7.7c15.6-5.2,48.3-5.4,84.1,0.5c47.8,7.8,86.4,23.9,85.2,35.4L234.4,74.4z"/>
		</g>
		<path class="st2" d="M235.3,85c0.3-1,0.2-0.5,1.2-10.4c-0.7,6.6-11.2,9.7-17.7,11C168.3,96.1,51,69.7,53.5,46l-1,9.1
			c-2.5,23.7,112.3,49.2,163.4,40c5.2-0.9,12.1-2.7,16.3-5.9C233,88.6,234.8,86.7,235.3,85z"/>
		<g>
			<path class="st3" d="M149.6,37.2c-51.3-8.3-93.6-4.7-96,8.3c-2.9,15.8,35.6,29.7,86.9,38.1c51.3,8.3,93.4,4.7,96-8.3
				C239,62.2,200.9,45.5,149.6,37.2z M234.4,74.9c-2.3,11.6-45.1,14.7-93.5,6.8c-48.4-7.9-87.4-24.3-85.1-35.9
				c2.3-11.6,45.1-14.7,93.5-6.8C197.7,46.8,236.6,63.3,234.4,74.9z"/>
		</g>
	</g>
</g>
</svg>
