<?xml version="1.0" encoding="utf-8"?>
<!-- Generator: Adobe Illustrator 27.3.1, SVG Export Plug-In . SVG Version: 6.00 Build 0)  -->
<svg version="1.1" id="Layer_1" xmlns="http://www.w3.org/2000/svg" xmlns:xlink="http://www.w3.org/1999/xlink" x="0px" y="0px"
	 viewBox="0 0 256 149.4" style="enable-background:new 0 0 256 149.4;" xml:space="preserve">
<style type="text/css">
	.st0{fill:#EAAD14;}
	.st1{fill:#D89C16;}
	.st2{fill:#D89B12;}
	.st3{fill:#F9B826;}
	.st4{fill:#CF9515;}
	.st5{fill:#FFC950;}
	.st6{opacity:0.54;}
	.st7{fill:#FFE5B6;}
	.st8{opacity:0.51;}
	.st9{opacity:0.64;}
</style>
<g>
	<g>
		<g>
			
				<rect x="127.3" y="-45.8" transform="matrix(0.3639 -0.9314 0.9314 0.3639 15.5327 166.1142)" class="st0" width="4.1" height="235"/>
		</g>
		<g>
			
				<rect x="127.3" y="-45.8" transform="matrix(0.2965 -0.955 0.955 0.2965 23.9838 172.9389)" class="st0" width="4.1" height="232"/>
		</g>
		<g>
			
				<rect x="127.6" y="-36.4" transform="matrix(0.4116 -0.9114 0.9114 0.4116 3.0058 165.5527)" class="st0" width="4.1" height="233.7"/>
		</g>
		<g>
			
				<rect x="129.9" y="-57.6" transform="matrix(0.2681 -0.9634 0.9634 0.2681 35.3814 173.699)" class="st0" width="4.1" height="242.3"/>
		</g>
		<g>
			
				<rect x="109.6" y="-25.3" transform="matrix(0.3981 -0.9173 0.9173 0.3981 -14.4522 155.9708)" class="st0" width="4.1" height="228.6"/>
		</g>
		<g>
			
				<rect x="118.1" y="-39.9" transform="matrix(0.3887 -0.9214 0.9214 0.3887 -5.7773 163.3057)" class="st1" width="4.1" height="251.9"/>
		</g>
		<g>
			
				<rect x="134.2" y="-40" transform="matrix(0.4414 -0.8973 0.8973 0.4414 9.4991 163.7605)" class="st0" width="4.1" height="228.6"/>
		</g>
		<g>
			
				<rect x="142.1" y="-49.9" transform="matrix(0.4035 -0.915 0.915 0.4035 26.4736 170.7263)" class="st0" width="4.1" height="229.9"/>
		</g>
		<g>
			
				<rect x="4.3" y="64.3" transform="matrix(0.9739 -0.2269 0.2269 0.9739 -11.7738 30.2711)" class="st0" width="243" height="4.1"/>
		</g>
		<g>
			
				<rect x="5.9" y="69" transform="matrix(0.9981 -6.090266e-02 6.090266e-02 0.9981 -4.0878 7.9716)" class="st0" width="245.7" height="4.1"/>
		</g>
		<g>
			
				<rect x="3.4" y="73.7" transform="matrix(0.9993 -3.781886e-02 3.781886e-02 0.9993 -2.7733 4.8852)" class="st2" width="248.7" height="4.1"/>
		</g>
		<g>
			
				<rect x="126.3" y="-52.8" transform="matrix(2.930374e-02 -0.9996 0.9996 2.930374e-02 49.882 200.9353)" class="st3" width="4.1" height="255.2"/>
		</g>
		<g>
			
				<rect x="124.7" y="-53.3" transform="matrix(9.570234e-02 -0.9954 0.9954 9.570234e-02 41.1392 192.9297)" class="st0" width="4.1" height="254.3"/>
		</g>
		<g>
			
				<rect x="10.4" y="74.2" transform="matrix(0.981 -0.1939 0.1939 0.981 -12.3216 26.659)" class="st0" width="239.2" height="4.1"/>
		</g>
		<g>
			
				<rect x="13.7" y="80.7" transform="matrix(0.9808 -0.1949 0.1949 0.9808 -13.5608 27.7626)" class="st3" width="241.3" height="4.1"/>
		</g>
		<g>
			
				<rect x="15.7" y="69.6" transform="matrix(0.9333 -0.3592 0.3592 0.9333 -17.1582 51.0225)" class="st4" width="226.1" height="4.1"/>
		</g>
		<g>
			
				<rect x="21" y="78.4" transform="matrix(0.9526 -0.3042 0.3042 0.9526 -17.9821 45.469)" class="st0" width="231.9" height="4.1"/>
		</g>
		<g>
			
				<rect x="26.8" y="71.3" transform="matrix(0.8926 -0.4508 0.4508 0.8926 -18.6999 68.2789)" class="st3" width="214.3" height="4.1"/>
		</g>
		<g>
			
				<rect x="1.8" y="57" transform="matrix(0.9238 -0.3828 0.3828 0.9238 -13.5845 49.8722)" class="st0" width="233.4" height="4.1"/>
		</g>
		<g>
			
				<rect x="3.4" y="60.4" transform="matrix(0.9385 -0.3454 0.3454 0.9385 -14.0269 46.2618)" class="st0" width="238.9" height="4.1"/>
		</g>
		<g>
			
				<rect x="20.8" y="67.1" transform="matrix(0.8929 -0.4503 0.4503 0.8929 -17.3 65.512)" class="st0" width="216.5" height="4.1"/>
		</g>
		<g>
			
				<rect x="8.9" y="73.9" transform="matrix(0.9578 -0.2875 0.2875 0.9578 -16.3742 40.3973)" class="st3" width="240.9" height="4.1"/>
		</g>
		<g>
			
				<rect x="124.7" y="-42.5" transform="matrix(0.2869 -0.958 0.958 0.2869 10.4545 180.9271)" class="st5" width="4.1" height="251.9"/>
			<g class="st6">
				<path class="st7" d="M31.9,55.2c0-0.1,0-0.2,0-0.3c0.1-0.5,0.6-0.7,1.1-0.6l212.5,64.5c0.5,0.1,0.7,0.6,0.6,1.1
					c-0.1,0.5-0.6,0.7-1.1,0.6L32.6,56.1C32.2,56,31.9,55.6,31.9,55.2z"/>
			</g>
		</g>
		<g>
			
				<rect x="132.6" y="-46.5" transform="matrix(0.2528 -0.9675 0.9675 0.2528 30.2193 184.636)" class="st5" width="4.1" height="238.5"/>
			<g class="st8">
				<path class="st7" d="M53,51.1C53,51,53,51,53,51.1c0.1-0.2,0.2-0.3,0.4-0.3l186.5,49.7c0.2,0,0.3,0.2,0.2,0.4
					c0,0.2-0.2,0.3-0.4,0.2L53.2,51.3C53.1,51.3,53,51.2,53,51.1z"/>
			</g>
		</g>
		<g>
			
				<rect x="135.5" y="-62.4" transform="matrix(0.3154 -0.949 0.949 0.3154 35.7139 172.7806)" class="st5" width="4.1" height="248"/>
			<g class="st9">
				<path class="st7" d="M89.9,45.3c0-0.1,0-0.1,0-0.2c0.1-0.3,0.4-0.5,0.7-0.4l163,54.8c0.3,0.1,0.5,0.4,0.4,0.7
					c-0.1,0.3-0.4,0.5-0.7,0.4l-163-54.8C90,45.8,89.9,45.6,89.9,45.3z"/>
			</g>
		</g>
	</g>
</g>
</svg>
