<?xml version="1.0" encoding="utf-8"?>
<!-- Generator: Adobe Illustrator 27.3.1, SVG Export Plug-In . SVG Version: 6.00 Build 0)  -->
<svg version="1.1" id="Layer_1" xmlns="http://www.w3.org/2000/svg" xmlns:xlink="http://www.w3.org/1999/xlink" x="0px" y="0px"
	 viewBox="0 0 256 149.4" style="enable-background:new 0 0 256 149.4;" xml:space="preserve">
<style type="text/css">
	.st0{fill:#FFB703;}
	.st1{fill:#FFD469;}
	.st2{fill:#F9B51C;}
	.st3{opacity:0.68;}
	.st4{fill:#F4A70F;}
	.st5{fill:#FFC842;}
	.st6{fill:#FFD05C;}
	.st7{fill:#FFD371;}
</style>
<g>
	<g>
		<path class="st0" d="M10.4,133.4c2-33.7,4.1-66.4,6.1-100C93.8,32,170,48.7,247.3,47.3c-2,33.7-4.1,66.4-6.1,100
			C163.9,148.8,87.7,132,10.4,133.4z"/>
		<g>
			<path class="st1" d="M10.4,135.4l0-1.9c77-1.4,153.8,15.3,230.8,13.9l0,1.9C164.1,150.7,87.3,133.9,10.4,135.4z"/>
		</g>
	</g>
	<g>
		<path class="st2" d="M14.8,121.3c2-33.7,4.1-66.4,6.1-100c77.3-1.4,153.5,15.3,230.8,13.9c-2,33.7-4.1,66.4-6.1,100
			C168.3,136.6,92.1,119.9,14.8,121.3z"/>
		<g>
			<path class="st1" d="M14.8,123.2l0-1.9c77-1.4,153.8,15.3,230.8,13.9l0,1.9C168.5,138.5,91.7,121.8,14.8,123.2z"/>
		</g>
		<g class="st3">
			<path class="st4" d="M20.9,21.3c-2,33.7-4.1,66.4-6.1,100c11.1-0.2,22.2,0,33.2,0.4c7.4-2.1,16.2-3.8,26.8-5
				c51.2-5.8,140.6,4.1,171.8,2.8c1.7-28.2,3.4-55.9,5.2-84.3C174.4,36.6,98.2,19.8,20.9,21.3z"/>
		</g>
	</g>
	<g>
		<path class="st5" d="M15.1,125.4C11.5,91.9,8,59.3,4.3,25.8C82.3,11.2,162.2,14.6,240.2,0c3.7,33.5,7.1,66.1,10.8,99.6
			C173,114.3,93.1,110.8,15.1,125.4z"/>
		<g>
			<path class="st1" d="M15.5,127.3l-0.4-1.9c77.7-14.6,158.2-11.2,235.8-25.8l0.4,1.9C173.6,116.1,93,112.8,15.5,127.3z"/>
		</g>
	</g>
	<path class="st6" d="M21.3,29.1c-3,1.5-4.9,4.7-4.7,8.1c0.6,15.8,3.3,75.7,11.1,75.7c9,0,59.6-15.9,90-8.7c30.5,7.2,30-83,3-83
		C97.1,21.2,39,20.5,21.3,29.1z"/>
	<path class="st6" d="M156.6,21.2c-3.1,3.1-15.4,78.1,0,78.1s73.1-4,75.6-6.6c2.6-2.6,6.4-84.4-7.1-84.4S164.8,12.9,156.6,21.2z"/>
	<path class="st7" d="M78.7,39.7c0,0-5,19.9,4.2,29.1s37.2,5.6,40.2-4.5c3-10.1,5.7-34-5.3-34C106.8,30.3,80,27.7,78.7,39.7z"/>
	<path class="st7" d="M165.8,30.1c0,0-4.5,20,0,24.6c4.5,4.5,29.1,3.5,31.2-4.7c2.1-8.1,13.2-28.8,0-28.8
		C183.7,21.2,165.8,20.9,165.8,30.1z"/>
</g>
</svg>
