<?xml version="1.0" encoding="utf-8"?>
<!-- Generator: Adobe Illustrator 27.3.1, SVG Export Plug-In . SVG Version: 6.00 Build 0)  -->
<svg version="1.1" id="Layer_1" xmlns="http://www.w3.org/2000/svg" xmlns:xlink="http://www.w3.org/1999/xlink" x="0px" y="0px"
	 viewBox="0 0 256 149.4" style="enable-background:new 0 0 256 149.4;" xml:space="preserve">
<style type="text/css">
	.st0{fill:#FFCE8E;}
	
		.st1{clip-path:url(#SVGID_00000155855822204005737890000003587429320290648502_);fill:url(#SVGID_00000049193917154043446350000000302334311699705759_);}
	
		.st2{clip-path:url(#SVGID_00000155855822204005737890000003587429320290648502_);fill:url(#SVGID_00000037670092417117663830000011021740022865438081_);}
	
		.st3{clip-path:url(#SVGID_00000155855822204005737890000003587429320290648502_);fill:url(#SVGID_00000040576018776229929920000010126378360003836574_);}
	
		.st4{clip-path:url(#SVGID_00000155855822204005737890000003587429320290648502_);fill:url(#SVGID_00000148635188026640038860000015363119498601345413_);}
	
		.st5{clip-path:url(#SVGID_00000155855822204005737890000003587429320290648502_);fill:url(#SVGID_00000106845610411287157140000008483151808391368099_);}
	
		.st6{clip-path:url(#SVGID_00000155855822204005737890000003587429320290648502_);fill:url(#SVGID_00000121967495288319433820000007525717022347544714_);}
	
		.st7{clip-path:url(#SVGID_00000155855822204005737890000003587429320290648502_);fill:url(#SVGID_00000020394954654037516400000002584428654183908529_);}
	.st8{fill:url(#SVGID_00000041270540852921201220000014790286428071295362_);}
	.st9{fill:#CD902B;}
	.st10{fill:url(#SVGID_00000052799677588033317730000015344521498006379931_);}
	.st11{fill:url(#SVGID_00000096016766782590304500000011159370506406233514_);}
	
		.st12{clip-path:url(#SVGID_00000081619027742394868740000009538182742623109779_);fill:url(#SVGID_00000067227978970266198090000012822131712135466395_);}
	
		.st13{clip-path:url(#SVGID_00000081619027742394868740000009538182742623109779_);fill:url(#SVGID_00000119118687362425445830000004960142678337668272_);}
	
		.st14{clip-path:url(#SVGID_00000081619027742394868740000009538182742623109779_);fill:url(#SVGID_00000165927606337809633310000005702737712741595543_);}
	
		.st15{clip-path:url(#SVGID_00000081619027742394868740000009538182742623109779_);fill:url(#SVGID_00000054266426400755663960000008234499794984214187_);}
	
		.st16{clip-path:url(#SVGID_00000081619027742394868740000009538182742623109779_);fill:url(#SVGID_00000018941319595030959660000010367409238756611208_);}
	
		.st17{clip-path:url(#SVGID_00000081619027742394868740000009538182742623109779_);fill:url(#SVGID_00000166650122859880406660000015020843826126254264_);}
	
		.st18{clip-path:url(#SVGID_00000081619027742394868740000009538182742623109779_);fill:url(#SVGID_00000118390922841586494470000004976915035227039928_);}
	.st19{fill:url(#SVGID_00000023259217989295476820000008028763337493776022_);}
	.st20{fill:url(#SVGID_00000113352322944813764560000012138582604366891666_);}
	.st21{fill:url(#SVGID_00000037660512114612203290000001329292537135794101_);}
	
		.st22{clip-path:url(#SVGID_00000156545142928420353260000009190759625621972914_);fill:url(#SVGID_00000104678957377487756890000005845527134537328774_);}
	
		.st23{clip-path:url(#SVGID_00000156545142928420353260000009190759625621972914_);fill:url(#SVGID_00000120544461814302423670000001037759847930010007_);}
	
		.st24{clip-path:url(#SVGID_00000156545142928420353260000009190759625621972914_);fill:url(#SVGID_00000032628254700542477680000017876570015444831619_);}
	
		.st25{clip-path:url(#SVGID_00000156545142928420353260000009190759625621972914_);fill:url(#SVGID_00000111184036301457423770000016695735426085956541_);}
	
		.st26{clip-path:url(#SVGID_00000156545142928420353260000009190759625621972914_);fill:url(#SVGID_00000163067862919890436280000001239223714174842547_);}
	
		.st27{clip-path:url(#SVGID_00000156545142928420353260000009190759625621972914_);fill:url(#SVGID_00000170970416479029756780000013013447506503130761_);}
	
		.st28{clip-path:url(#SVGID_00000156545142928420353260000009190759625621972914_);fill:url(#SVGID_00000008122340328184347250000016493473687856265903_);}
	
		.st29{clip-path:url(#SVGID_00000156545142928420353260000009190759625621972914_);fill:url(#SVGID_00000004536841373659322860000018361936142846572934_);}
	.st30{fill:url(#SVGID_00000102526720452981850630000012202342781489470605_);}
	.st31{fill:url(#SVGID_00000026859294930165903370000008475024688765927818_);}
	.st32{fill:url(#SVGID_00000124861601482639749710000016469723317790455998_);}
</style>
<g>
	<g>
		<path class="st0" d="M102.2,16.4c1.1,2,1.5,4.2,0.2,5.4c-0.5,0.5-1.3,0.8-2.4,0.9c-4.2,0.4-8.4-2.1-11.4-4.5
			C84.6,15,77.2,11.7,75.5,6.3c-0.3-1-0.4-2.6,0-3.8c0,0,0-0.1,0-0.1c0.3-0.7,0.7-1.4,1.4-1.8C80.3-1.3,93.7,0.6,102.2,16.4z
			 M100.5,19.7c0.3-0.6,0.1-1.8-0.6-3.1C93.8,5.4,85.1,2.4,80.9,2.4c-1.4,0-2,0.3-2.1,0.4c-0.9,0.5-1,2.6-0.7,3.7
			c1,3.1,4.7,5.5,8,7.6c1.3,0.8,2.5,1.6,3.5,2.4c3.3,2.6,6.2,3.9,8.8,3.9c0.2,0,0.4,0,0.6,0C99.5,20.3,100.2,20.1,100.5,19.7z"/>
		<g>
			<image style="overflow:visible;" width="19" height="17" xlink:href="2A6254F9.png"  transform="matrix(1 0 0 1 75 0)">
			</image>
			<image style="overflow:visible;" width="19" height="18" xlink:href="2A6254FB.png"  transform="matrix(1 0 0 1 85 5)">
			</image>
		</g>
		<image style="overflow:visible;" width="92" height="68" xlink:href="2A6254FE.png"  transform="matrix(1 0 0 1 70 2)">
		</image>
		<g>
			<defs>
				<path id="SVGID_1_" d="M75.5,2.5C61,40.5,83,66.3,110.4,69.1c1.9,0.2,3.9,0.3,5.8,0.2c14.1-0.3,25.7-4.3,33.6-12.8
					c8.6-9.1,12.9-23.4,11.6-43.5c0-0.2-0.2-2.6-0.2-2.6c-0.1,1.2-0.9,2.5-2,3.7c-0.3,0.3-0.6,0.7-1,1c-0.9,0.9-2,1.8-3.1,2.6
					c-0.8,0.6-1.6,1.1-2.3,1.5c-0.7,0.4-1.3,0.8-1.9,1.1c-0.7,0.4-1.3,0.6-1.7,0.8c-0.4,0.2-1,0.3-1.6,0.5c-0.5,0.1-1,0.2-1.5,0.4
					c-0.7,0.2-1.4,0.3-2.1,0.5c-0.4,0.1-0.8,0.2-1.2,0.2c-1.1,0.2-2.3,0.4-3.4,0.5c-0.7,0.1-1.5,0.2-2.2,0.2
					c-0.8,0.1-1.6,0.1-2.3,0.1c-1,0-1.9-0.1-2.7-0.2c-0.2,0-0.4-0.1-0.6-0.1c-0.3-0.1-0.7-0.2-1-0.3c-0.4-0.1-0.7-0.3-1-0.5
					c-0.2-0.2-0.4-0.3-0.5-0.5c0,0.3,0.1,0.5,0.1,0.8c0.5,5.9-1.2,10.1-4,12.8c-2.9,2.8-7.1,3.9-11,3.6c-8-0.6-15.4-7-11.7-17.2
					c-0.2,0.2-0.5,0.4-0.8,0.5c-0.5,0.2-1.1,0.3-1.6,0.4c-0.4,0-0.8,0-1.3,0c-0.2,0-0.5,0-0.7-0.1c-0.8-0.1-1.7-0.3-2.5-0.6
					c-0.6-0.2-1.3-0.5-1.9-0.8c-0.6-0.3-1.1-0.5-1.6-0.8c-0.8-0.5-1.6-1-2.4-1.6c-0.3-0.2-0.5-0.4-0.8-0.6c-0.5-0.4-1-0.8-1.6-1.2
					c-0.4-0.3-0.9-0.6-1.3-0.9c-1.3-0.8-2.7-1.7-4-2.7c-0.6-0.5-1.3-0.9-1.9-1.4c-0.6-0.5-1.3-1.1-1.8-1.6c-0.8-0.8-1.6-1.7-2.1-2.7
					c-0.2-0.3-0.4-0.7-0.5-1c-0.1-0.2-0.1-0.4-0.2-0.6C75.2,5.3,75.1,3.8,75.5,2.5z"/>
			</defs>
			<clipPath id="SVGID_00000156585000809633815760000002650896931843202195_">
				<use xlink:href="#SVGID_1_"  style="overflow:visible;"/>
			</clipPath>
			
				<radialGradient id="SVGID_00000012470876639280110330000010285874017038072220_" cx="229.7543" cy="-22.357" r="13.0836" gradientTransform="matrix(1.496 -0.5904 1.2177 3.0858 -238.6185 243.4547)" gradientUnits="userSpaceOnUse">
				<stop  offset="0.1519" style="stop-color:#FA8416"/>
				<stop  offset="0.4407" style="stop-color:#7B410B"/>
				<stop  offset="0.5407" style="stop-color:#4E2907"/>
				<stop  offset="0.6889" style="stop-color:#2B1604"/>
				<stop  offset="0.8407" style="stop-color:#110902"/>
				<stop  offset="1" style="stop-color:#000000"/>
			</radialGradient>
			
				<path style="clip-path:url(#SVGID_00000156585000809633815760000002650896931843202195_);fill:url(#SVGID_00000012470876639280110330000010285874017038072220_);" d="
				M97.4,31.1c8.8,22.3,7.2,43.8-3.6,48.1C83,83.5,67.1,68.8,58.3,46.5c-8.8-22.3-7.2-43.8,3.6-48.1C72.7-5.8,88.6,8.8,97.4,31.1z"
				/>
			
				<radialGradient id="SVGID_00000116197767943463131660000008295710592186653059_" cx="212.9674" cy="-53.7748" r="8.7059" gradientTransform="matrix(1.5126 0.5464 -1.1272 3.12 -250.0573 74.9475)" gradientUnits="userSpaceOnUse">
				<stop  offset="0.1519" style="stop-color:#FA8416"/>
				<stop  offset="0.4407" style="stop-color:#7B410B"/>
				<stop  offset="0.5407" style="stop-color:#4E2907"/>
				<stop  offset="0.6889" style="stop-color:#2B1604"/>
				<stop  offset="0.8407" style="stop-color:#110902"/>
				<stop  offset="1" style="stop-color:#000000"/>
			</radialGradient>
			
				<path style="clip-path:url(#SVGID_00000156585000809633815760000002650896931843202195_);fill:url(#SVGID_00000116197767943463131660000008295710592186653059_);" d="
				M145.9,28.3c-5.4,15-15.7,25-23,22.4c-7.3-2.6-8.8-16.9-3.3-31.9c5.4-15,15.7-25,23-22.4C149.8-1,151.3,13.3,145.9,28.3z"/>
			
				<radialGradient id="SVGID_00000020382676900536754010000014470139296015222459_" cx="240.249" cy="-26.2998" r="8.7038" gradientTransform="matrix(1.6065 -7.450000e-02 0.1537 3.3138 -266.3808 166.1405)" gradientUnits="userSpaceOnUse">
				<stop  offset="0.1259" style="stop-color:#DEA331"/>
				<stop  offset="0.2296" style="stop-color:#EDBB5A"/>
				<stop  offset="0.3259" style="stop-color:#F8D48E"/>
				<stop  offset="0.4481" style="stop-color:#FAECCF"/>
				<stop  offset="0.5852" style="stop-color:#FCF4E3"/>
				<stop  offset="0.7407" style="stop-color:#FEFCF7"/>
				<stop  offset="0.9963" style="stop-color:#FFFFFF"/>
			</radialGradient>
			
				<path style="clip-path:url(#SVGID_00000156585000809633815760000002650896931843202195_);fill:url(#SVGID_00000020382676900536754010000014470139296015222459_);" d="
				M129.5,60.4c0.7,15.9-4.9,29.1-12.6,29.5c-7.7,0.4-14.6-12.3-15.3-28.2c-0.7-15.9,4.9-29.1,12.6-29.5
				C121.9,31.9,128.8,44.5,129.5,60.4z"/>
			
				<radialGradient id="SVGID_00000072969823856793575020000002914158578907469483_" cx="257.7148" cy="26.3334" r="8.7058" gradientTransform="matrix(0.7644 -1.415 2.9187 1.5768 -138.9111 372.8674)" gradientUnits="userSpaceOnUse">
				<stop  offset="0.1259" style="stop-color:#DEA331"/>
				<stop  offset="0.2296" style="stop-color:#EDBB5A"/>
				<stop  offset="0.3259" style="stop-color:#F8D48E"/>
				<stop  offset="0.4481" style="stop-color:#FAECCF"/>
				<stop  offset="0.5852" style="stop-color:#FCF4E3"/>
				<stop  offset="0.7407" style="stop-color:#FEFCF7"/>
				<stop  offset="0.9963" style="stop-color:#FFFFFF"/>
			</radialGradient>
			
				<path style="clip-path:url(#SVGID_00000156585000809633815760000002650896931843202195_);fill:url(#SVGID_00000072969823856793575020000002914158578907469483_);" d="
				M141.6,37.4c14,7.6,22.4,19.2,18.8,26.1c-3.7,6.8-18,6.2-32.1-1.4c-14-7.6-22.4-19.2-18.8-26C113.2,29.2,127.6,29.8,141.6,37.4z"
				/>
			
				<radialGradient id="SVGID_00000088850059128781805020000013031850777433873065_" cx="258.1457" cy="29.6453" r="8.7056" gradientTransform="matrix(0.7644 -1.415 2.9187 1.5768 -138.9111 372.8674)" gradientUnits="userSpaceOnUse">
				<stop  offset="0.1259" style="stop-color:#DEA331"/>
				<stop  offset="0.2296" style="stop-color:#EDBB5A"/>
				<stop  offset="0.3259" style="stop-color:#F8D48E"/>
				<stop  offset="0.4481" style="stop-color:#FAECCF"/>
				<stop  offset="0.5852" style="stop-color:#FCF4E3"/>
				<stop  offset="0.7407" style="stop-color:#FEFCF7"/>
				<stop  offset="0.9963" style="stop-color:#FFFFFF"/>
			</radialGradient>
			
				<path style="clip-path:url(#SVGID_00000156585000809633815760000002650896931843202195_);fill:url(#SVGID_00000088850059128781805020000013031850777433873065_);" d="
				M151.6,42c14,7.6,22.4,19.2,18.8,26.1c-3.7,6.8-18,6.2-32.1-1.4c-14-7.6-22.4-19.2-18.8-26C123.2,33.8,137.6,34.4,151.6,42z"/>
			
				<radialGradient id="SVGID_00000063604510769829351370000000026008182976316076_" cx="246.725" cy="-38.2918" r="8.7054" gradientTransform="matrix(1.5967 -0.192 0.396 3.2937 -283.3983 197.0263)" gradientUnits="userSpaceOnUse">
				<stop  offset="0.1259" style="stop-color:#DEA331"/>
				<stop  offset="0.2296" style="stop-color:#EDBB5A"/>
				<stop  offset="0.3259" style="stop-color:#F8D48E"/>
				<stop  offset="0.4481" style="stop-color:#FAECCF"/>
				<stop  offset="0.5852" style="stop-color:#FCF4E3"/>
				<stop  offset="0.7407" style="stop-color:#FEFCF7"/>
				<stop  offset="0.9963" style="stop-color:#FFFFFF"/>
			</radialGradient>
			
				<path style="clip-path:url(#SVGID_00000156585000809633815760000002650896931843202195_);fill:url(#SVGID_00000063604510769829351370000000026008182976316076_);" d="
				M109.3,21.9c1.9,15.8-2.8,29.4-10.5,30.3c-7.7,0.9-15.4-11.2-17.3-27C79.6,9.4,84.3-4.2,91.9-5.1C99.6-6.1,107.4,6,109.3,21.9z"
				/>
			
				<radialGradient id="SVGID_00000119835801412789335450000009832190085246919062_" cx="248.2564" cy="-34.0733" r="8.7042" gradientTransform="matrix(1.5491 0.4323 -1.3951 4.9995 -285.103 106.3464)" gradientUnits="userSpaceOnUse">
				<stop  offset="0.1259" style="stop-color:#DEA331"/>
				<stop  offset="0.2296" style="stop-color:#EDBB5A"/>
				<stop  offset="0.3259" style="stop-color:#F8D48E"/>
				<stop  offset="0.4481" style="stop-color:#FAECCF"/>
				<stop  offset="0.5852" style="stop-color:#FCF4E3"/>
				<stop  offset="0.7407" style="stop-color:#FEFCF7"/>
				<stop  offset="0.9963" style="stop-color:#FFFFFF"/>
			</radialGradient>
			
				<path style="clip-path:url(#SVGID_00000156585000809633815760000002650896931843202195_);fill:url(#SVGID_00000119835801412789335450000009832190085246919062_);" d="
				M160.5,47.1c-6.7,24-18.2,41.8-25.6,39.8c-7.4-2.1-8-23.3-1.3-47.3c6.7-24,18.2-41.8,25.6-39.8C166.6,1.9,167.2,23.1,160.5,47.1z
				"/>
		</g>
		<path class="st0" d="M160.9,8.9c0.2,0.5,0.3,1,0.3,1.5c-0.4,4.4-9.8,9.9-12,10.7c-4,1.4-17.6,4.3-20.1,0.7
			c-0.5-0.7-0.6-1.8,0.1-3.1c1.9-3.9,8.8-7.2,12.8-8.4C146,9.1,158.7,4.3,160.9,8.9z M158.2,11.5c0.3-0.8,0.1-1.3,0.1-1.4
			c-0.4-0.9-1.8-1-3-1c-3.3,0-8.1,1.5-10.9,2.4c-0.7,0.2-1.3,0.4-1.7,0.5c-3.4,1-9.3,3.7-10.8,6.9c-0.2,0.5-0.5,1.2-0.2,1.6
			c0.1,0.2,0.9,1,4.3,1c4.5,0,10.3-1.4,12.4-2.1C150,18.8,156.8,14.8,158.2,11.5z"/>
		<g>
			<image style="overflow:visible;" width="19" height="16" xlink:href="2A6254FF.png"  transform="matrix(1 0 0 1 143 6)">
			</image>
			<image style="overflow:visible;" width="21" height="15" xlink:href="2A6254FA.png"  transform="matrix(1 0 0 1 128 9)">
			</image>
		</g>
		
			<linearGradient id="SVGID_00000174596007611502624940000012307315277076195994_" gradientUnits="userSpaceOnUse" x1="130.7684" y1="22.2239" x2="159.1715" y2="9.3568">
			<stop  offset="4.814820e-02" style="stop-color:#E6CD73"/>
			<stop  offset="1" style="stop-color:#FFFFFF"/>
		</linearGradient>
		<path style="fill:url(#SVGID_00000174596007611502624940000012307315277076195994_);" d="M158.2,11.5c0.3-0.8,0.1-1.3,0.1-1.4
			c-0.4-0.9-1.8-1-3-1c-3.3,0-8.1,1.5-10.9,2.4c-0.7,0.2-1.3,0.4-1.7,0.5c-3.4,1-9.3,3.7-10.8,6.9c-0.2,0.5-0.5,1.2-0.2,1.6
			c0.1,0.2,0.9,1,4.3,1c4.5,0,10.3-1.4,12.4-2.1C150,18.8,156.8,14.8,158.2,11.5z"/>
		<path class="st9" d="M158.2,10.1c0.1,0.1,0.3,0.6-0.1,1.4c-1.3,3.3-8.2,7.3-9.8,7.9c-2.1,0.7-7.9,2.1-12.4,2.1
			c-3.4,0-4.1-0.8-4.3-1c-0.2-0.4,0-1.1,0.2-1.6c1.5-3.1,7.4-5.9,10.8-6.9c0.5-0.1,1.1-0.3,1.7-0.5c2.8-0.9,7.6-2.4,10.9-2.4
			C156.4,9.1,157.8,9.2,158.2,10.1z"/>
		
			<linearGradient id="SVGID_00000079470608880159935700000007652648592695366284_" gradientUnits="userSpaceOnUse" x1="145.5819" y1="20.8807" x2="144.0859" y2="7.9916">
			<stop  offset="4.814820e-02" style="stop-color:#E6BA19"/>
			<stop  offset="1" style="stop-color:#FFFFFF"/>
		</linearGradient>
		<path style="fill:url(#SVGID_00000079470608880159935700000007652648592695366284_);" d="M158.2,10.1c0.1,0.1,0.3,0.6-0.1,1.4
			c-1.3,3.3-8.2,7.3-9.8,7.9c-2.1,0.7-7.9,2.1-12.4,2.1c-3.4,0-4.1-0.8-4.3-1c-0.2-0.4,0-1.1,0.2-1.6c1.5-3.1,7.4-5.9,10.8-6.9
			c0.5-0.1,1.1-0.3,1.7-0.5c2.8-0.9,7.6-2.4,10.9-2.4C156.4,9.1,157.8,9.2,158.2,10.1z"/>
		<path class="st9" d="M99.8,16.5c0.7,1.3,1,2.5,0.6,3.1c-0.3,0.5-1,0.6-1.6,0.7c-0.2,0-0.4,0-0.6,0c-2.6,0-5.5-1.3-8.8-3.9
			c-1-0.8-2.2-1.6-3.5-2.4c-3.3-2.1-7-4.5-8-7.6c-0.4-1.1-0.3-3.2,0.7-3.7c0.2-0.1,0.8-0.4,2.1-0.4C85.1,2.4,93.8,5.4,99.8,16.5z"/>
		
			<linearGradient id="SVGID_00000024704485932187790910000011387444154035480992_" gradientUnits="userSpaceOnUse" x1="82.8355" y1="15.0249" x2="96.1918" y2="7.6559">
			<stop  offset="4.814820e-02" style="stop-color:#E6BA19"/>
			<stop  offset="1" style="stop-color:#FFFFFF"/>
		</linearGradient>
		<path style="fill:url(#SVGID_00000024704485932187790910000011387444154035480992_);" d="M99.8,16.5c0.7,1.3,1,2.5,0.6,3.1
			c-0.3,0.5-1,0.6-1.6,0.7c-0.2,0-0.4,0-0.6,0c-2.6,0-5.5-1.3-8.8-3.9c-1-0.8-2.2-1.6-3.5-2.4c-3.3-2.1-7-4.5-8-7.6
			c-0.4-1.1-0.3-3.2,0.7-3.7c0.2-0.1,0.8-0.4,2.1-0.4C85.1,2.4,93.8,5.4,99.8,16.5z"/>
	</g>
	<g>
		<path class="st0" d="M144.8,50.8c1.9,1.5,3.2,3.5,2.4,5.2c-0.3,0.7-0.9,1.2-1.9,1.8c-3.9,2-9,1.3-13,0.1
			c-5.3-1.5-13.8-1.7-17.6-6.2c-0.7-0.9-1.4-2.3-1.6-3.8c0,0,0-0.1,0-0.1c0-0.8,0.1-1.6,0.6-2.3C116.3,42.3,130.2,38.8,144.8,50.8z
			 M144.4,54.6c0.1-0.7-0.7-1.8-1.9-2.8c-10.3-8.5-20-7.9-24.1-6.2c-1.3,0.5-1.8,1.1-1.9,1.2c-0.7,0.9,0,3,0.8,3.9
			c2.2,2.6,6.8,3.5,10.8,4.3c1.6,0.3,3,0.6,4.3,0.9c4.2,1.2,7.6,1.3,10.1,0.2c0.2-0.1,0.4-0.2,0.6-0.3
			C143.7,55.6,144.3,55.2,144.4,54.6z"/>
		<g>
			<image style="overflow:visible;" width="19" height="16" xlink:href="2A6254F5.png"  transform="matrix(1 0 0 1 113 42)">
			</image>
			<image style="overflow:visible;" width="20" height="17" xlink:href="2A6254F6.png"  transform="matrix(1 0 0 1 128 43)">
			</image>
		</g>
		<image style="overflow:visible;" width="97" height="80" xlink:href="2A6254F7.png"  transform="matrix(1 0 0 1 113 21)">
		</image>
		<g>
			<defs>
				<path id="SVGID_00000165925535157125895030000006294821811028167570_" d="M113.1,47.9c1.1,42.9,32.9,59.3,60.7,51
					c2-0.6,3.9-1.3,5.8-2.1c13.6-5.9,23.3-14.5,27.7-25.9c4.7-12.3,3.2-28-6.1-47c-0.1-0.2-1.2-2.5-1.3-2.5c0.4,1.2,0.1,2.8-0.5,4.5
					c-0.2,0.4-0.3,0.9-0.5,1.3c-0.6,1.3-1.3,2.5-2,3.7c-0.5,0.9-1.1,1.7-1.7,2.4c-0.5,0.7-1,1.3-1.4,1.8c-0.5,0.7-1,1.2-1.3,1.4
					c-0.4,0.3-0.8,0.7-1.4,1.1c-0.4,0.3-0.8,0.6-1.3,1c-0.6,0.4-1.2,0.9-1.9,1.3c-0.3,0.2-0.7,0.5-1,0.7c-1,0.7-2.1,1.3-3.1,1.9
					c-0.7,0.4-1.4,0.7-2,1.1c-0.8,0.4-1.5,0.7-2.2,1c-1,0.4-1.9,0.7-2.7,0.9c-0.2,0-0.4,0.1-0.6,0.1c-0.4,0.1-0.7,0.1-1.1,0.1
					c-0.4,0-0.9,0-1.2-0.1c-0.3-0.1-0.5-0.2-0.7-0.3c0.1,0.3,0.3,0.5,0.4,0.7c2.9,5.6,2.9,10.3,1.2,14.1c-1.7,3.9-5.3,6.6-9.3,7.9
					c-8,2.6-17.8-0.6-18.3-12.1c-0.1,0.3-0.3,0.6-0.6,0.8c-0.4,0.4-0.9,0.7-1.4,1c-0.4,0.2-0.8,0.4-1.2,0.5
					c-0.2,0.1-0.5,0.1-0.7,0.2c-0.9,0.3-1.8,0.4-2.7,0.5c-0.7,0-1.4,0-2.1,0c-0.6,0-1.3-0.1-1.9-0.2c-1-0.1-2-0.3-2.9-0.6
					c-0.4-0.1-0.7-0.2-1-0.3c-0.7-0.2-1.3-0.3-2-0.5c-0.5-0.1-1.1-0.2-1.7-0.3c-1.6-0.3-3.3-0.6-5-1c-0.8-0.2-1.6-0.4-2.4-0.6
					c-0.8-0.2-1.7-0.5-2.4-0.9c-1.1-0.5-2.2-1-3.1-1.8c-0.3-0.3-0.6-0.5-0.9-0.8c-0.1-0.2-0.3-0.3-0.4-0.5
					C114,50.8,113.3,49.3,113.1,47.9z"/>
			</defs>
			<clipPath id="SVGID_00000134952806551134492130000010557946003071860372_">
				<use xlink:href="#SVGID_00000165925535157125895030000006294821811028167570_"  style="overflow:visible;"/>
			</clipPath>
			
				<radialGradient id="SVGID_00000073682060826287687320000009778853775099276713_" cx="232.0986" cy="-73.4462" r="22.7776" gradientTransform="matrix(1.2479 1.0144 -1.866 2.2954 -219.3336 21.5423)" gradientUnits="userSpaceOnUse">
				<stop  offset="2.962960e-02" style="stop-color:#FFFFFF"/>
				<stop  offset="0.2148" style="stop-color:#FA8416"/>
				<stop  offset="0.4407" style="stop-color:#7B410B"/>
				<stop  offset="0.5407" style="stop-color:#4E2907"/>
				<stop  offset="0.6889" style="stop-color:#2B1604"/>
				<stop  offset="0.8407" style="stop-color:#110902"/>
				<stop  offset="1" style="stop-color:#000000"/>
			</radialGradient>
			
				<path style="clip-path:url(#SVGID_00000134952806551134492130000010557946003071860372_);fill:url(#SVGID_00000073682060826287687320000009778853775099276713_);" d="
				M235.8,111.5c-23.5,28.9-55.2,42-70.9,29.2c-15.7-12.8-9.4-46.5,14.1-75.4c23.5-28.9,55.2-41.9,70.9-29.2
				C265.6,48.9,259.3,82.6,235.8,111.5z"/>
			
				<radialGradient id="SVGID_00000092414469912201093560000015484649303283790511_" cx="48.0497" cy="-8.7733" r="12.7026" gradientTransform="matrix(-1.1098 1.164 -3.5617 -3.3958 153.5973 5.6247)" gradientUnits="userSpaceOnUse">
				<stop  offset="0.1259" style="stop-color:#DEA331"/>
				<stop  offset="0.2296" style="stop-color:#EDBB5A"/>
				<stop  offset="0.3259" style="stop-color:#F8D48E"/>
				<stop  offset="0.4481" style="stop-color:#FAECCF"/>
				<stop  offset="0.5852" style="stop-color:#FCF4E3"/>
				<stop  offset="0.7407" style="stop-color:#FEFCF7"/>
				<stop  offset="0.9963" style="stop-color:#FFFFFF"/>
			</radialGradient>
			
				<path style="clip-path:url(#SVGID_00000134952806551134492130000010557946003071860372_);fill:url(#SVGID_00000092414469912201093560000015484649303283790511_);" d="
				M117.4,106.1c-25-23.8-38.9-49.8-31.2-57.9c7.8-8.2,34.4,4.5,59.3,28.4c25,23.8,38.9,49.8,31.2,57.9
				C169,142.7,142.4,130,117.4,106.1z"/>
			
				<radialGradient id="SVGID_00000097491071667009415530000000119416618446904198_" cx="47.6417" cy="-6.89" r="12.7025" gradientTransform="matrix(-1.1098 1.164 -3.5617 -3.3958 153.5973 5.6247)" gradientUnits="userSpaceOnUse">
				<stop  offset="0.1259" style="stop-color:#DEA331"/>
				<stop  offset="0.2296" style="stop-color:#EDBB5A"/>
				<stop  offset="0.3259" style="stop-color:#F8D48E"/>
				<stop  offset="0.4481" style="stop-color:#FAECCF"/>
				<stop  offset="0.5852" style="stop-color:#FCF4E3"/>
				<stop  offset="0.7407" style="stop-color:#FEFCF7"/>
				<stop  offset="0.9963" style="stop-color:#FFFFFF"/>
			</radialGradient>
			
				<path style="clip-path:url(#SVGID_00000134952806551134492130000010557946003071860372_);fill:url(#SVGID_00000097491071667009415530000000119416618446904198_);" d="
				M111.2,99.3C86.2,75.4,72.2,49.5,80,41.3c7.8-8.1,34.4,4.5,59.3,28.4c25,23.8,38.9,49.8,31.2,57.9
				C162.7,135.8,136.2,123.1,111.2,99.3z"/>
			
				<radialGradient id="SVGID_00000011000681251870690580000004405903949665205637_" cx="153.1418" cy="-75.1458" r="22.7774" gradientTransform="matrix(0.5698 1.5039 -2.7663 1.048 -112.9895 -34.2431)" gradientUnits="userSpaceOnUse">
				<stop  offset="2.962960e-02" style="stop-color:#FFFFFF"/>
				<stop  offset="0.2148" style="stop-color:#FA8416"/>
				<stop  offset="0.4407" style="stop-color:#7B410B"/>
				<stop  offset="0.5407" style="stop-color:#4E2907"/>
				<stop  offset="0.6889" style="stop-color:#2B1604"/>
				<stop  offset="0.8407" style="stop-color:#110902"/>
				<stop  offset="1" style="stop-color:#000000"/>
			</radialGradient>
			
				<path style="clip-path:url(#SVGID_00000134952806551134492130000010557946003071860372_);fill:url(#SVGID_00000011000681251870690580000004405903949665205637_);" d="
				M195.1,151.6c-34.8,13.2-68.8,8.5-76-10.4c-7.2-18.9,15.2-44.9,50-58.1c34.8-13.2,68.8-8.5,76,10.4
				C252.3,112.4,229.9,138.4,195.1,151.6z"/>
			
				<radialGradient id="SVGID_00000069383908954892361010000010211141336410504624_" cx="226.5989" cy="-63.7062" r="13.0848" gradientTransform="matrix(1.381 0.8242 -1.7002 2.8486 -237.2645 55.8013)" gradientUnits="userSpaceOnUse">
				<stop  offset="0.1519" style="stop-color:#FA8416"/>
				<stop  offset="0.4407" style="stop-color:#7B410B"/>
				<stop  offset="0.5407" style="stop-color:#4E2907"/>
				<stop  offset="0.6889" style="stop-color:#2B1604"/>
				<stop  offset="0.8407" style="stop-color:#110902"/>
				<stop  offset="1" style="stop-color:#000000"/>
			</radialGradient>
			
				<path style="clip-path:url(#SVGID_00000134952806551134492130000010557946003071860372_);fill:url(#SVGID_00000069383908954892361010000010211141336410504624_);" d="
				M202.1,71.9c-12.3,20.6-30.3,32.4-40.3,26.5c-10-6-8.1-27.5,4.2-48.1c12.3-20.6,30.3-32.5,40.3-26.5
				C216.2,29.8,214.3,51.3,202.1,71.9z"/>
			
				<radialGradient id="SVGID_00000126317996980491296870000014313836978162753444_" cx="9.5319" cy="-45.991" r="13.085" gradientTransform="matrix(-0.1697 0.951 -3.2658 -0.5826 -18.3091 21.046)" gradientUnits="userSpaceOnUse">
				<stop  offset="0.1259" style="stop-color:#DEA331"/>
				<stop  offset="0.2296" style="stop-color:#EDBB5A"/>
				<stop  offset="0.3259" style="stop-color:#F8D48E"/>
				<stop  offset="0.4481" style="stop-color:#FAECCF"/>
				<stop  offset="0.5852" style="stop-color:#FCF4E3"/>
				<stop  offset="0.7407" style="stop-color:#FEFCF7"/>
				<stop  offset="0.9963" style="stop-color:#FFFFFF"/>
			</radialGradient>
			
				<path style="clip-path:url(#SVGID_00000134952806551134492130000010557946003071860372_);fill:url(#SVGID_00000126317996980491296870000014313836978162753444_);" d="
				M128.1,69.3c-23.6-4.2-41.7-13.2-40.5-20.1c1.2-6.9,21.4-9,45-4.8c23.6,4.2,41.7,13.2,40.5,20.1
				C171.8,71.4,151.7,73.6,128.1,69.3z"/>
			
				<radialGradient id="SVGID_00000044153356739957306200000008637250978940997562_" cx="72.3912" cy="54.7741" r="13.0845" gradientTransform="matrix(-0.6682 -0.6976 2.3957 -2.2947 116.39 201.8449)" gradientUnits="userSpaceOnUse">
				<stop  offset="0.1259" style="stop-color:#DEA331"/>
				<stop  offset="0.2296" style="stop-color:#EDBB5A"/>
				<stop  offset="0.3259" style="stop-color:#F8D48E"/>
				<stop  offset="0.4481" style="stop-color:#FAECCF"/>
				<stop  offset="0.5852" style="stop-color:#FCF4E3"/>
				<stop  offset="0.7407" style="stop-color:#FEFCF7"/>
				<stop  offset="0.9963" style="stop-color:#FFFFFF"/>
			</radialGradient>
			
				<path style="clip-path:url(#SVGID_00000134952806551134492130000010557946003071860372_);fill:url(#SVGID_00000044153356739957306200000008637250978940997562_);" d="
				M190.5,16.5c17.3-16.6,35.3-25.9,40.1-20.9c4.8,5-5.3,22.6-22.6,39.2c-17.3,16.6-35.3,25.9-40.1,20.9
				C163.1,50.6,173.2,33.1,190.5,16.5z"/>
		</g>
		<path class="st0" d="M199.1,19.9c0.4,0.4,0.7,0.8,0.8,1.3c1.4,4.4-5.6,13.6-7.4,15.3c-3.4,3-15.5,11.2-19.4,8.8
			c-0.8-0.5-1.3-1.5-1.2-3.1c0.2-4.6,5.7-10.5,9.2-13.3C184.6,26.1,195.1,16.3,199.1,19.9z M197.4,23.5c0-0.9-0.4-1.3-0.5-1.4
			c-0.8-0.7-2.2-0.3-3.3,0.2c-3.2,1.3-7.3,4.7-9.7,6.7c-0.6,0.5-1.1,0.9-1.5,1.2c-2.9,2.3-7.6,7.4-7.8,11c0,0.6,0,1.3,0.4,1.6
			c0.2,0.2,1.3,0.6,4.6-0.7c4.4-1.8,9.5-5.5,11.3-7.1C192.4,33.9,197.4,27.2,197.4,23.5z"/>
		<g>
			<image style="overflow:visible;" width="19" height="18" xlink:href="2A625509.png"  transform="matrix(1 0 0 1 182 19)">
			</image>
			<image style="overflow:visible;" width="22" height="19" xlink:href="20364802.png"  transform="matrix(1 0 0 1 171 27)">
			</image>
		</g>
		
			<linearGradient id="SVGID_00000074420373936079673630000007569103840279934647_" gradientUnits="userSpaceOnUse" x1="201.7285" y1="124.3825" x2="231.689" y2="110.8098" gradientTransform="matrix(0.9249 -0.3802 0.3802 0.9249 -58.8867 6.6238)">
			<stop  offset="4.814820e-02" style="stop-color:#E6CD73"/>
			<stop  offset="1" style="stop-color:#FFFFFF"/>
		</linearGradient>
		<path style="fill:url(#SVGID_00000074420373936079673630000007569103840279934647_);" d="M197.4,23.5c0-0.9-0.4-1.3-0.5-1.4
			c-0.8-0.7-2.2-0.3-3.3,0.2c-3.2,1.3-7.3,4.7-9.7,6.7c-0.6,0.5-1.1,0.9-1.5,1.2c-2.9,2.3-7.6,7.4-7.8,11c0,0.6,0,1.3,0.4,1.6
			c0.2,0.2,1.3,0.6,4.6-0.7c4.4-1.8,9.5-5.5,11.3-7.1C192.4,33.9,197.4,27.2,197.4,23.5z"/>
		<path class="st9" d="M196.9,22.1c0.1,0.1,0.5,0.5,0.5,1.4c0,3.7-5,10.4-6.4,11.6c-1.8,1.6-6.9,5.2-11.3,7.1
			c-3.3,1.4-4.4,0.9-4.6,0.7c-0.4-0.3-0.4-1-0.4-1.6c0.2-3.6,4.9-8.7,7.8-11c0.4-0.3,0.9-0.7,1.5-1.2c2.4-2,6.5-5.4,9.7-6.7
			C194.7,21.8,196.1,21.4,196.9,22.1z"/>
		
			<linearGradient id="SVGID_00000047055500161125449540000003700333566702690456_" gradientUnits="userSpaceOnUse" x1="217.3496" y1="122.959" x2="215.7711" y2="109.3597" gradientTransform="matrix(0.9249 -0.3802 0.3802 0.9249 -58.8867 6.6238)">
			<stop  offset="4.814820e-02" style="stop-color:#E6BA19"/>
			<stop  offset="1" style="stop-color:#FFFFFF"/>
		</linearGradient>
		<path style="fill:url(#SVGID_00000047055500161125449540000003700333566702690456_);" d="M196.9,22.1c0.1,0.1,0.5,0.5,0.5,1.4
			c0,3.7-5,10.4-6.4,11.6c-1.8,1.6-6.9,5.2-11.3,7.1c-3.3,1.4-4.4,0.9-4.6,0.7c-0.4-0.3-0.4-1-0.4-1.6c0.2-3.6,4.9-8.7,7.8-11
			c0.4-0.3,0.9-0.7,1.5-1.2c2.4-2,6.5-5.4,9.7-6.7C194.7,21.8,196.1,21.4,196.9,22.1z"/>
		<path class="st9" d="M142.5,51.8c1.2,1,2,2.1,1.9,2.8c-0.1,0.6-0.7,1-1.3,1.3c-0.2,0.1-0.4,0.2-0.6,0.3c-2.5,1-5.9,1-10.1-0.2
			c-1.3-0.4-2.8-0.6-4.3-0.9c-4-0.8-8.6-1.6-10.8-4.3c-0.8-0.9-1.5-3-0.8-3.9c0.1-0.2,0.6-0.7,1.9-1.2
			C122.5,43.9,132.2,43.3,142.5,51.8z"/>
		
			<linearGradient id="SVGID_00000160908240016458636690000005818961394024916405_" gradientUnits="userSpaceOnUse" x1="151.1724" y1="116.7892" x2="165.2534" y2="109.0204" gradientTransform="matrix(0.9249 -0.3802 0.3802 0.9249 -58.8867 6.6238)">
			<stop  offset="4.814820e-02" style="stop-color:#E6BA19"/>
			<stop  offset="1" style="stop-color:#FFFFFF"/>
		</linearGradient>
		<path style="fill:url(#SVGID_00000160908240016458636690000005818961394024916405_);" d="M142.5,51.8c1.2,1,2,2.1,1.9,2.8
			c-0.1,0.6-0.7,1-1.3,1.3c-0.2,0.1-0.4,0.2-0.6,0.3c-2.5,1-5.9,1-10.1-0.2c-1.3-0.4-2.8-0.6-4.3-0.9c-4-0.8-8.6-1.6-10.8-4.3
			c-0.8-0.9-1.5-3-0.8-3.9c0.1-0.2,0.6-0.7,1.9-1.2C122.5,43.9,132.2,43.3,142.5,51.8z"/>
	</g>
	<g>
		<path class="st0" d="M109.3,115.5c-1.9-1.4-3.3-3.2-2.6-4.8c0.3-0.7,0.8-1.3,1.8-1.9c3.6-2.2,8.6-1.8,12.5-1
			c5.2,1.1,13.4,0.8,17.3,4.9c0.7,0.8,1.5,2.2,1.7,3.5c0,0,0,0.1,0,0.1c0.1,0.8,0,1.6-0.5,2.2C137.3,121.9,124.1,126.1,109.3,115.5z
			 M109.4,111.8c0,0.7,0.7,1.7,2,2.6c10.5,7.5,19.8,6.3,23.7,4.4c1.3-0.6,1.7-1.2,1.8-1.3c0.6-0.9-0.2-2.8-1-3.7
			c-2.3-2.4-6.8-2.9-10.7-3.4c-1.5-0.2-3-0.4-4.2-0.6c-4.1-0.9-7.4-0.7-9.8,0.4c-0.2,0.1-0.4,0.2-0.6,0.3
			C110,110.8,109.4,111.2,109.4,111.8z"/>
		<g>
			<image style="overflow:visible;" width="18" height="15" xlink:href="20364805.png"  transform="matrix(1 0 0 1 122 108)">
			</image>
			<image style="overflow:visible;" width="19" height="15" xlink:href="20364806.png"  transform="matrix(1 0 0 1 106 107)">
			</image>
		</g>
		<image style="overflow:visible;" width="94" height="80" xlink:href="20364804.png"  transform="matrix(1 0 0 1 46 68)">
		</image>
		<g>
			<defs>
				<path id="SVGID_00000003090452059131992750000015820263735023827857_" d="M140,116.3c-3.8-41.3-35.5-55-61.8-45.2
					c-1.8,0.7-3.7,1.5-5.4,2.4C60,80,51.2,88.9,47.7,100.2c-3.8,12.2-1.3,27.1,8.9,44.9c0.1,0.2,1.3,2.4,1.4,2.3
					c-0.5-1.2-0.3-2.7,0.2-4.3c0.1-0.4,0.3-0.9,0.4-1.3c0.5-1.2,1.1-2.5,1.7-3.7c0.5-0.9,1-1.7,1.4-2.4c0.4-0.7,0.9-1.3,1.3-1.9
					c0.5-0.7,0.9-1.2,1.2-1.5c0.3-0.3,0.7-0.7,1.2-1.2c0.4-0.3,0.8-0.7,1.2-1c0.5-0.4,1.1-0.9,1.7-1.4c0.3-0.2,0.6-0.5,1-0.7
					c0.9-0.7,1.9-1.4,2.9-2c0.6-0.4,1.3-0.8,1.9-1.2c0.7-0.4,1.4-0.8,2.1-1.1c0.9-0.4,1.8-0.8,2.6-1c0.2-0.1,0.4-0.1,0.6-0.2
					c0.4-0.1,0.7-0.1,1-0.2c0.4,0,0.8,0,1.2,0.1c0.3,0,0.5,0.1,0.7,0.3c-0.1-0.2-0.3-0.5-0.4-0.7c-3.2-5.2-3.5-9.8-2.1-13.5
					c1.4-3.9,4.7-6.7,8.5-8.2c7.6-3,17.2-0.6,18.4,10.5c0.1-0.3,0.3-0.6,0.5-0.8c0.4-0.4,0.8-0.8,1.3-1.1c0.4-0.2,0.7-0.4,1.1-0.6
					c0.2-0.1,0.4-0.2,0.6-0.3c0.8-0.3,1.7-0.5,2.6-0.6c0.7-0.1,1.4-0.1,2.1-0.1c0.6,0,1.2,0,1.8,0c1,0.1,1.9,0.2,2.9,0.4
					c0.3,0.1,0.7,0.1,1,0.2c0.7,0.1,1.3,0.2,2,0.3c0.5,0.1,1.1,0.2,1.6,0.2c1.5,0.2,3.2,0.4,4.8,0.6c0.8,0.1,1.6,0.3,2.3,0.4
					c0.8,0.2,1.6,0.4,2.4,0.7c1.1,0.4,2.2,0.9,3.1,1.5c0.3,0.2,0.6,0.5,0.9,0.7c0.1,0.1,0.3,0.3,0.4,0.4
					C139,113.5,139.7,114.9,140,116.3z"/>
			</defs>
			<clipPath id="SVGID_00000045577639512331429390000017743236120675111098_">
				<use xlink:href="#SVGID_00000003090452059131992750000015820263735023827857_"  style="overflow:visible;"/>
			</clipPath>
			
				<radialGradient id="SVGID_00000054978891927277739280000001651201214221932980_" cx="116.9568" cy="46.3236" r="12.7029" gradientTransform="matrix(-1.4925 -0.599 1.2069 -3.0069 176.4122 307.3212)" gradientUnits="userSpaceOnUse">
				<stop  offset="0.1519" style="stop-color:#FA8416"/>
				<stop  offset="0.4407" style="stop-color:#7B410B"/>
				<stop  offset="0.5407" style="stop-color:#4E2907"/>
				<stop  offset="0.6889" style="stop-color:#2B1604"/>
				<stop  offset="0.8407" style="stop-color:#110902"/>
				<stop  offset="1" style="stop-color:#000000"/>
			</radialGradient>
			
				<path style="clip-path:url(#SVGID_00000045577639512331429390000017743236120675111098_);fill:url(#SVGID_00000054978891927277739280000001651201214221932980_);" d="
				M38.8,90.4c8.5-21.1,23.8-34.8,34.3-30.6c10.5,4.2,12.1,24.7,3.6,45.8c-8.5,21.1-23.8,34.8-34.3,30.6
				C32,132,30.3,111.5,38.8,90.4z"/>
			
				<radialGradient id="SVGID_00000070836826527883688050000011637160918506428545_" cx="97.9579" cy="32.3211" r="12.7038" gradientTransform="matrix(-1.3163 -0.5283 1.2069 -3.0069 147.6987 295.6565)" gradientUnits="userSpaceOnUse">
				<stop  offset="0.1519" style="stop-color:#FA8416"/>
				<stop  offset="0.4407" style="stop-color:#7B410B"/>
				<stop  offset="0.5407" style="stop-color:#4E2907"/>
				<stop  offset="0.6889" style="stop-color:#2B1604"/>
				<stop  offset="0.8407" style="stop-color:#110902"/>
				<stop  offset="1" style="stop-color:#000000"/>
			</radialGradient>
			
				<path style="clip-path:url(#SVGID_00000045577639512331429390000017743236120675111098_);fill:url(#SVGID_00000070836826527883688050000011637160918506428545_);" d="
				M41,140c8.5-21.1,22.8-35.2,32.1-31.5c9.2,3.7,9.9,23.8,1.4,44.9c-8.5,21.1-22.8,35.2-32.1,31.5C33.2,181.2,32.6,161.1,41,140z"
				/>
			
				<radialGradient id="SVGID_00000070810184675074485510000007118010932024192950_" cx="208.7976" cy="61.0495" r="12.7044" gradientTransform="matrix(0.1724 -1.4079 3.2161 0.3939 -95.2685 383.4927)" gradientUnits="userSpaceOnUse">
				<stop  offset="0.1259" style="stop-color:#DEA331"/>
				<stop  offset="0.2296" style="stop-color:#EDBB5A"/>
				<stop  offset="0.3259" style="stop-color:#F8D48E"/>
				<stop  offset="0.4481" style="stop-color:#FAECCF"/>
				<stop  offset="0.5852" style="stop-color:#FCF4E3"/>
				<stop  offset="0.7407" style="stop-color:#FEFCF7"/>
				<stop  offset="0.9963" style="stop-color:#FFFFFF"/>
			</radialGradient>
			
				<path style="clip-path:url(#SVGID_00000045577639512331429390000017743236120675111098_);fill:url(#SVGID_00000070810184675074485510000007118010932024192950_);" d="
				M139.3,95.7c22.6,2.8,39.9,13,38.7,22.9c-1.2,9.9-20.5,15.6-43,12.9c-22.6-2.8-39.9-13-38.7-22.9
				C97.4,98.7,116.7,92.9,139.3,95.7z"/>
			
				<radialGradient id="SVGID_00000012455290663970926560000011490899394880441493_" cx="133.7467" cy="50.475" r="11.1368" gradientTransform="matrix(-0.7306 -1.2158 2.7772 -1.669 35.4069 371.7307)" gradientUnits="userSpaceOnUse">
				<stop  offset="0.1259" style="stop-color:#DEA331"/>
				<stop  offset="0.2296" style="stop-color:#EDBB5A"/>
				<stop  offset="0.3259" style="stop-color:#F8D48E"/>
				<stop  offset="0.4481" style="stop-color:#FAECCF"/>
				<stop  offset="0.5852" style="stop-color:#FCF4E3"/>
				<stop  offset="0.7407" style="stop-color:#FEFCF7"/>
				<stop  offset="0.9963" style="stop-color:#FFFFFF"/>
			</radialGradient>
			
				<path style="clip-path:url(#SVGID_00000045577639512331429390000017743236120675111098_);fill:url(#SVGID_00000012455290663970926560000011490899394880441493_);" d="
				M69.7,111.3c17.1-10.3,34.6-12.5,39.1-5c4.5,7.5-5.7,21.9-22.8,32.1c-17.1,10.3-34.6,12.5-39.1,5C42.4,136,52.6,121.6,69.7,111.3
				z"/>
			
				<radialGradient id="SVGID_00000132777594754057469220000007972834664790837656_" cx="146.103" cy="68.609" r="12.3166" gradientTransform="matrix(-1.3648 -2.271 2.0446 -1.2286 135.4774 531.4375)" gradientUnits="userSpaceOnUse">
				<stop  offset="0.1259" style="stop-color:#DEA331"/>
				<stop  offset="0.2296" style="stop-color:#EDBB5A"/>
				<stop  offset="0.3259" style="stop-color:#F8D48E"/>
				<stop  offset="0.4481" style="stop-color:#FAECCF"/>
				<stop  offset="0.5852" style="stop-color:#FCF4E3"/>
				<stop  offset="0.7407" style="stop-color:#FEFCF7"/>
				<stop  offset="0.9963" style="stop-color:#FFFFFF"/>
			</radialGradient>
			
				<path style="clip-path:url(#SVGID_00000045577639512331429390000017743236120675111098_);fill:url(#SVGID_00000132777594754057469220000007972834664790837656_);" d="
				M59.5,87.4c13.9-8.4,32.7-2.6,42,12.8c9.3,15.4,5.5,34.8-8.4,43.1c-13.9,8.3-32.7,2.6-42-12.9C41.9,115,45.6,95.7,59.5,87.4z"/>
			
				<radialGradient id="SVGID_00000136397326441162790930000010673001040151113100_" cx="160.4793" cy="79.5152" r="12.7004" gradientTransform="matrix(-0.5905 -0.8208 1.8507 -1.3315 18.2933 324.9063)" gradientUnits="userSpaceOnUse">
				<stop  offset="0.1519" style="stop-color:#FA8416"/>
				<stop  offset="0.4407" style="stop-color:#7B410B"/>
				<stop  offset="0.5407" style="stop-color:#4E2907"/>
				<stop  offset="0.6889" style="stop-color:#2B1604"/>
				<stop  offset="0.8407" style="stop-color:#110902"/>
				<stop  offset="1" style="stop-color:#000000"/>
			</radialGradient>
			
				<path style="clip-path:url(#SVGID_00000045577639512331429390000017743236120675111098_);fill:url(#SVGID_00000136397326441162790930000010673001040151113100_);" d="
				M63.2,76.9c13-9.3,26.9-12.3,31-6.5c4.1,5.8-3,18-16,27.3c-13,9.3-26.9,12.2-31,6.5C43,98.5,50.2,86.2,63.2,76.9z"/>
			
				<radialGradient id="SVGID_00000134236975673607842110000011149948273680676269_" cx="-34.6692" cy="27.5598" r="26.128" gradientTransform="matrix(-0.8741 0.5084 -1.1463 -1.9708 129.9347 149.8394)" gradientUnits="userSpaceOnUse">
				<stop  offset="2.962960e-02" style="stop-color:#FFFFFF"/>
				<stop  offset="0.2148" style="stop-color:#FA8416"/>
				<stop  offset="0.4407" style="stop-color:#7B410B"/>
				<stop  offset="0.5407" style="stop-color:#4E2907"/>
				<stop  offset="0.6889" style="stop-color:#2B1604"/>
				<stop  offset="0.8407" style="stop-color:#110902"/>
				<stop  offset="1" style="stop-color:#000000"/>
			</radialGradient>
			
				<path style="clip-path:url(#SVGID_00000045577639512331429390000017743236120675111098_);fill:url(#SVGID_00000134236975673607842110000011149948273680676269_);" d="
				M105.8,91.2c-16.5-28.4-19.7-57.5-7.1-64.8c12.6-7.3,36.2,9.8,52.8,38.2c16.5,28.4,19.7,57.5,7.1,64.8
				C146,136.7,122.4,119.6,105.8,91.2z"/>
			
				<radialGradient id="SVGID_00000091703089261999750820000005973935016954423732_" cx="-37.5218" cy="28.3186" r="26.1302" gradientTransform="matrix(-0.8741 0.5084 -1.1463 -1.9708 129.9347 149.8394)" gradientUnits="userSpaceOnUse">
				<stop  offset="2.962960e-02" style="stop-color:#FFFFFF"/>
				<stop  offset="0.2148" style="stop-color:#FA8416"/>
				<stop  offset="0.4407" style="stop-color:#7B410B"/>
				<stop  offset="0.5407" style="stop-color:#4E2907"/>
				<stop  offset="0.6889" style="stop-color:#2B1604"/>
				<stop  offset="0.8407" style="stop-color:#110902"/>
				<stop  offset="1" style="stop-color:#000000"/>
			</radialGradient>
			
				<path style="clip-path:url(#SVGID_00000045577639512331429390000017743236120675111098_);fill:url(#SVGID_00000091703089261999750820000005973935016954423732_);" d="
				M107.4,88.3c-16.5-28.4-19.7-57.5-7.1-64.8c12.6-7.3,36.2,9.8,52.8,38.2c16.5,28.4,19.7,57.5,7.1,64.8
				C147.6,133.8,124,116.7,107.4,88.3z"/>
		</g>
		<path class="st0" d="M58.9,148.7c-0.4-0.3-0.7-0.7-0.9-1.2c-1.6-4.2,4.5-13.5,6.2-15.2c3.1-3.1,14.2-11.8,18.1-9.7
			c0.8,0.4,1.3,1.4,1.3,2.9c0.1,4.4-4.8,10.5-8,13.4C72.5,141.8,63,151.9,58.9,148.7z M60.3,145.1c0.1,0.9,0.4,1.2,0.6,1.3
			c0.8,0.6,2.2,0.1,3.2-0.4c3-1.5,6.7-5,8.9-7.1c0.5-0.5,1-1,1.3-1.3c2.6-2.4,6.8-7.6,6.8-11.1c0-0.6-0.1-1.3-0.5-1.5
			c-0.3-0.2-1.3-0.5-4.4,1c-4.1,2-8.8,5.9-10.4,7.5C64.5,134.8,60.1,141.5,60.3,145.1z"/>
		<g>
			<image style="overflow:visible;" width="18" height="18" xlink:href="20364803.png"  transform="matrix(1 0 0 1 57 132)">
			</image>
			<image style="overflow:visible;" width="20" height="18" xlink:href="2036481D.png"  transform="matrix(1 0 0 1 64 122)">
			</image>
		</g>
		
			<linearGradient id="SVGID_00000183953708400311311050000007157530876061039503_" gradientUnits="userSpaceOnUse" x1="-93.2235" y1="77.0645" x2="-64.2952" y2="63.9594" gradientTransform="matrix(-0.8977 0.4405 -0.4405 -0.8977 30.8094 233.2722)">
			<stop  offset="4.814820e-02" style="stop-color:#E6CD73"/>
			<stop  offset="1" style="stop-color:#FFFFFF"/>
		</linearGradient>
		<path style="fill:url(#SVGID_00000183953708400311311050000007157530876061039503_);" d="M60.3,145.1c0.1,0.9,0.4,1.2,0.6,1.3
			c0.8,0.6,2.2,0.1,3.2-0.4c3-1.5,6.7-5,8.9-7.1c0.5-0.5,1-1,1.3-1.3c2.6-2.4,6.8-7.6,6.8-11.1c0-0.6-0.1-1.3-0.5-1.5
			c-0.3-0.2-1.3-0.5-4.4,1c-4.1,2-8.8,5.9-10.4,7.5C64.5,134.8,60.1,141.5,60.3,145.1z"/>
		<path class="st9" d="M60.9,146.4c-0.1-0.1-0.5-0.4-0.6-1.3c-0.2-3.6,4.2-10.3,5.4-11.6c1.6-1.6,6.3-5.5,10.4-7.5
			c3.1-1.5,4.1-1.1,4.4-1c0.4,0.2,0.5,1,0.5,1.5c0,3.5-4.1,8.7-6.8,11.1c-0.4,0.3-0.8,0.8-1.3,1.3c-2.2,2.1-5.9,5.6-8.9,7.1
			C63,146.6,61.7,147,60.9,146.4z"/>
		
			<linearGradient id="SVGID_00000130606765771774553040000015080410962642200705_" gradientUnits="userSpaceOnUse" x1="-78.1401" y1="75.694" x2="-79.6647" y2="62.5588" gradientTransform="matrix(-0.8977 0.4405 -0.4405 -0.8977 30.8094 233.2722)">
			<stop  offset="4.814820e-02" style="stop-color:#E6BA19"/>
			<stop  offset="1" style="stop-color:#FFFFFF"/>
		</linearGradient>
		<path style="fill:url(#SVGID_00000130606765771774553040000015080410962642200705_);" d="M60.9,146.4c-0.1-0.1-0.5-0.4-0.6-1.3
			c-0.2-3.6,4.2-10.3,5.4-11.6c1.6-1.6,6.3-5.5,10.4-7.5c3.1-1.5,4.1-1.1,4.4-1c0.4,0.2,0.5,1,0.5,1.5c0,3.5-4.1,8.7-6.8,11.1
			c-0.4,0.3-0.8,0.8-1.3,1.3c-2.2,2.1-5.9,5.6-8.9,7.1C63,146.6,61.7,147,60.9,146.4z"/>
		<path class="st9" d="M111.4,114.4c-1.3-0.9-2-1.9-2-2.6c0-0.5,0.6-1,1.1-1.3c0.2-0.1,0.4-0.2,0.6-0.3c2.3-1.1,5.6-1.3,9.8-0.4
			c1.3,0.3,2.7,0.4,4.2,0.6c3.9,0.5,8.4,1,10.7,3.4c0.8,0.9,1.7,2.8,1,3.7c-0.1,0.2-0.5,0.7-1.8,1.3
			C131.2,120.7,121.9,121.9,111.4,114.4z"/>
		
			<linearGradient id="SVGID_00000014591900381176235130000005533486080137228177_" gradientUnits="userSpaceOnUse" x1="-142.0555" y1="69.7381" x2="-128.447" y2="62.23" gradientTransform="matrix(-0.8977 0.4405 -0.4405 -0.8977 30.8094 233.2722)">
			<stop  offset="4.814820e-02" style="stop-color:#E6BA19"/>
			<stop  offset="1" style="stop-color:#FFFFFF"/>
		</linearGradient>
		<path style="fill:url(#SVGID_00000014591900381176235130000005533486080137228177_);" d="M111.4,114.4c-1.3-0.9-2-1.9-2-2.6
			c0-0.5,0.6-1,1.1-1.3c0.2-0.1,0.4-0.2,0.6-0.3c2.3-1.1,5.6-1.3,9.8-0.4c1.3,0.3,2.7,0.4,4.2,0.6c3.9,0.5,8.4,1,10.7,3.4
			c0.8,0.9,1.7,2.8,1,3.7c-0.1,0.2-0.5,0.7-1.8,1.3C131.2,120.7,121.9,121.9,111.4,114.4z"/>
	</g>
</g>
</svg>
