<?xml version="1.0" encoding="utf-8"?>
<!-- Generator: Adobe Illustrator 27.3.1, SVG Export Plug-In . SVG Version: 6.00 Build 0)  -->
<svg version="1.1" id="Layer_1" xmlns="http://www.w3.org/2000/svg" xmlns:xlink="http://www.w3.org/1999/xlink" x="0px" y="0px"
	 viewBox="0 0 256 149.4" style="enable-background:new 0 0 256 149.4;" xml:space="preserve">
<style type="text/css">
	.st0{fill:#FFEBD7;}
	.st1{opacity:0.67;fill:#FFFFFF;}
	.st2{fill:#F2DFCE;}
	.st3{fill:#EFC59E;}
	.st4{fill:#F2D664;}
	.st5{fill:#D8AA68;}
	.st6{fill:#EABD6E;}
	.st7{opacity:0.33;fill:#FFFFFF;}
	.st8{fill:#CC9E66;}
	.st9{fill:#AF8F77;}
	.st10{fill:#BC9A7E;}
	.st11{opacity:0.15;fill:#FFFFFF;}
	.st12{fill:#628453;}
	.st13{fill:#59754B;}
	.st14{opacity:8.000000e-02;fill:#FFFFFF;}
	.st15{fill:#80A86C;}
	.st16{fill:#779964;}
	.st17{opacity:0.18;fill:#FFFFFF;}
	.st18{fill:#F9F5D2;}
</style>
<g>
	<g>
		
			<ellipse transform="matrix(0.9336 -0.3583 0.3583 0.9336 -18.2568 50.8147)" class="st0" cx="128" cy="74.7" rx="74.1" ry="74.1"/>
		<path class="st1" d="M59.4,74.5c0-38,31.4-68.8,70.2-68.8c13.3,0,25.7,3.6,36.3,9.9c-11.1-7.3-24.5-11.5-38.9-11.5
			c-38.8,0-70.2,30.8-70.2,68.8c0,25,13.6,46.8,33.9,58.9C71.9,119.4,59.4,98.4,59.4,74.5z"/>
		<path class="st2" d="M169.1,13c17.4,13.6,28.5,34.7,28.5,58.5c0,40.9-33.2,74.1-74.1,74.1c-15.2,0-29.3-4.6-41.1-12.4
			c12.6,9.8,28.4,15.7,45.6,15.7c40.9,0,74.1-33.2,74.1-74.1C202.1,48.9,189,26.3,169.1,13z"/>
	</g>
	<path class="st2" d="M96.9,22.1c-2.9,0.4-5.7,1.2-8.4,2.4c-1.4,0.7-2.9,1.5-3.8,2.7c-0.9,1.3-1.3,3.1-0.5,4.4
		c0.7,1.1,2,1.8,2.2,3.1c0.2,1.3-0.9,2.4-2,3c-1.9,1.2-4.1,2-5.9,3.3c-1.8,1.3-3.3,3.5-2.9,5.8c0.1,0.5,0.3,0.9,0.6,1.3
		c0.7,0.7,1.8,0.9,2.6,1.6c1.1,1.1,0.7,3.1-0.4,4.2c-1.1,1.1-2.6,1.7-3.9,2.5c-2.2,1.3-3.9,3.4-4.9,5.8c-0.1,0.3-0.3,0.7-0.2,1.1
		c0.1,1.4,2.2,1.8,3.3,0.9c1.1-0.9,1.6-2.3,2.2-3.5c1.9-3.4,5.6-5.4,7.9-8.6c0.4-0.6,0.8-1.3,0.7-2c-0.2-2.3-4.5-2.3-4.9-4.6
		c-0.1-0.8,0.2-1.5,0.7-2.2c1.2-1.6,3.1-2.6,4.8-3.5c1.8-0.9,3.6-1.9,4.9-3.4c1.2-1.6,1.6-4,0.3-5.5c-0.7-0.8-1.7-1.4-1.7-2.4
		c0-0.8,0.8-1.3,1.5-1.7c4.2-1.9,9-0.6,13.5-1.4c1.5-0.3,3.2-1.1,3.2-2.6c0-1.9-2.2-2.3-3.6-1.9C100.5,21.3,98.9,21.8,96.9,22.1z"/>
	<path class="st3" d="M95.4,21.8c-2.9,0.4-5.7,1.2-8.4,2.4c-1.4,0.7-2.9,1.5-3.8,2.7c-0.9,1.3-1.3,3.1-0.5,4.4
		c0.7,1.1,2,1.8,2.2,3.1c0.2,1.3-0.9,2.4-2,3c-1.9,1.2-4.1,2-5.9,3.3c-1.8,1.3-3.3,3.5-2.9,5.8c0.1,0.5,0.3,0.9,0.6,1.3
		c0.7,0.7,1.8,0.9,2.6,1.6c1.1,1.1,0.7,3.1-0.4,4.2c-1.1,1.1-2.6,1.7-3.9,2.5c-2.2,1.3-3.9,3.4-4.9,5.8c-0.1,0.3-0.3,0.7-0.2,1.1
		c0.1,1.4,2.2,1.8,3.3,0.9c1.1-0.9,1.6-2.3,2.2-3.5c1.9-3.4,5.6-5.4,7.9-8.6c0.4-0.6,0.8-1.3,0.7-2c-0.2-2.3-4.5-2.3-4.9-4.6
		c-0.1-0.8,0.2-1.5,0.7-2.2c1.2-1.6,3.1-2.6,4.8-3.5c1.8-0.9,3.6-1.9,4.9-3.4c1.2-1.6,1.6-4,0.3-5.5c-0.7-0.8-1.7-1.4-1.7-2.4
		c0-0.8,0.8-1.3,1.5-1.7c4.2-1.9,9-0.6,13.5-1.4c1.5-0.3,3.2-1.1,3.2-2.6c0-1.9-2.2-2.3-3.6-1.9C98.9,21.1,97.4,21.5,95.4,21.8z"/>
	<path class="st2" d="M153.4,23c0.9,0.9,2.1,1.1,3.4,1.3c2,0.3,4.1,0.7,6.1,1c2,0.3,4.3,0.9,5.3,2.7c1.3,2.6-1,6.1,0.7,8.5
		c1.6,2.2,5,1.3,7.6,2c3.2,0.8,5.2,4.5,4.3,7.6c-0.3,0.9-0.8,1.8-0.5,2.7c0.3,1,1.5,1.5,2.5,2.1c1.7,1.1,2.7,3.1,2.6,5.1
		c-0.2,2.3-1.7,4.4-1.6,6.7c0,0.7,0.3,1.5,1,1.8c0.9,0.4,1.9-0.6,2.1-1.6c0.2-1-0.1-2-0.1-3c0.1-2.8,2.5-5.6,1.1-8
		c-0.8-1.3-2.5-1.8-3.4-3.1c-1.9-2.7,1.1-6.9-0.6-9.8c-1.2-2-4.1-2.2-6.4-2.2c-2.4,0-5.3-0.6-6-2.9c-0.2-0.8-0.2-1.6-0.1-2.4
		c0.1-1.8,0.1-3.6-0.8-5.2c-1.5-2.5-4.8-3-7.6-3.3c-2.9-0.3-6.1-0.8-7.7-3.2c-0.3-0.4-0.5-0.9-1-1C152.8,18.6,152.7,22.3,153.4,23z"
		/>
	<path class="st3" d="M151.8,23.1c0.9,0.9,2.1,1.1,3.4,1.3c2,0.3,4.1,0.7,6.1,1c2,0.3,4.3,0.9,5.3,2.7c1.3,2.6-1,6.1,0.7,8.5
		c1.6,2.2,5,1.3,7.6,2c3.2,0.8,5.2,4.5,4.3,7.6c-0.3,0.9-0.8,1.8-0.5,2.7c0.3,1,1.5,1.5,2.5,2.1c1.7,1.1,2.7,3.1,2.6,5.1
		c-0.2,2.3-1.7,4.4-1.6,6.7c0,0.7,0.3,1.5,1,1.8c0.9,0.4,1.9-0.6,2.1-1.6c0.2-1-0.1-2-0.1-3c0.1-2.8,2.5-5.6,1.1-8
		c-0.8-1.3-2.5-1.8-3.4-3.1c-1.9-2.7,1.1-6.9-0.6-9.8c-1.2-2-4.1-2.2-6.4-2.2c-2.4,0-5.3-0.6-6-2.9c-0.2-0.8-0.2-1.6-0.1-2.4
		c0.1-1.8,0.1-3.6-0.8-5.2c-1.5-2.5-4.8-3-7.6-3.3c-2.9-0.3-6.1-0.8-7.7-3.2c-0.3-0.4-0.5-0.9-1-1C151.2,18.6,151.1,22.3,151.8,23.1
		z"/>
	<path class="st3" d="M104.9,45.5c-0.1,2-1.6,3.6-3.1,4.9c-5.1,4.7-11.3,8.4-15.5,13.9c-4.2,5.4-5.8,13.4-1.1,18.5
		c0.9,1,2.1,1.9,2.8,3c1.4,2.2,1.1,4.9,1,7.5c-0.2,4.9,0.5,10,3.1,14.3c2.6,4.3,7.2,7.7,12.6,8.1c4.9,0.4,10.1-1.7,14.7,0
		c2.8,1,4.8,3.3,7.4,4.7c3.1,1.7,6.8,2.2,10.3,2.1c5.6-0.1,11.3-1.5,15.6-4.7c4.3-3.3,7-8.6,5.9-13.6c-0.5-2.3-1.7-4.4-1.8-6.8
		c-0.1-4.9,4.8-8.6,9.5-10.8c4.7-2.3,10.1-4.3,12.6-8.6c2.2-3.8,1.6-8.5,0.5-12.8c-0.8-3-1.9-6.1-4.5-8.1c-3.7-2.8-9.6-2.4-12.8-5.6
		c-3.7-3.7-1.9-9.6-3.6-14.3c-1.5-4.3-6-7.5-10.9-7.7c-5.5-0.2-10.5,3.1-16,2.7c-5.6-0.4-8.7-5.5-14.1-6.5
		c-4.9-0.9-9.1,1.8-12.1,5.3c-1.8,2.1-3.4,4.7-3,7.5C102.7,41,105,43,104.9,45.5z"/>
	<g>
		<path class="st4" d="M103,74.7c-0.7-0.6-1.8-0.4-2.7-0.4c-1.4-0.1-2.6-0.4-4-0.7c-1.2-0.3-2.3-0.7-3.4-0.9
			c-1.4-0.3-2.9-0.1-4.3,0.2c-2.9,0.7-5.1,2.4-7.2,4.5c-0.8,0.8-1.6,1.7-2.6,2.3c-0.8,0.5-2.2,1-3.1,1.3c-1.1,0.3-2.3,2.6,0.2,3.9
			c1.9,1,4,1.9,6.1,2.4c1.6,0.4,2.4,0.6,4,0.5c1.9-0.1,3.8-0.3,5.7-0.8c3.7-0.9,7.6-3,10.2-5.9C103.3,79.4,105.2,76.6,103,74.7z"/>
		<path class="st5" d="M77.4,83c0.2-0.3,0.5-0.4,0.9-0.4c0.3,0,0.7,0.1,1,0.2c2.1,0.6,4.3,0.3,6.5,0c1.6-0.2,3.2-0.4,4.8-0.8
			c1.8-0.4,3.5-1,5.1-1.8c0.7-0.3,1.3-0.7,1.9-1.1c0.9-0.7,1.6-1.7,2.5-2.4c0.3-0.2,0.7-0.5,1-0.3c0.3,0.1,0.4,0.4,0.5,0.7
			c0,0.3-0.1,0.6-0.3,0.9c-1,2-2.6,3.6-4.4,4.8c-1.8,1.2-3.9,2-6.1,2.5c-3.7,0.9-7.9,1.1-11.5-0.4C78.9,84.5,76.8,83.9,77.4,83z"/>
		<g>
			<path class="st6" d="M103,74.7c-0.7-0.6-1.8-0.4-2.7-0.4c-1.4-0.1-2.6-0.4-4-0.7c-1.2-0.3-2.3-0.7-3.4-0.9c0,0,0,0-0.1,0
				c0.3,0.1,0.6,0.3,0.9,0.5c0.6,0.5,1,1.2,1.4,1.9c0.2,0.3,0.3,0.6,0.5,0.8c0.5,0.5,1.3,0.5,2,0.3c0.7-0.2,1.4-0.5,2.1-0.6
				c0.7-0.1,1.5-0.1,2.1,0.3c0.4,0.3,0.6,0.6,0.8,1c0.4,1,0.1,2.2-0.4,3.1c-0.6,0.9-1.4,1.7-2.3,2.3c-2.9,2.2-6.2,3.8-9.6,4.9
				c0.5-0.1,1-0.2,1.5-0.3c3.7-0.9,7.6-3,10.2-5.9C103.3,79.4,105.2,76.6,103,74.7z"/>
			<path class="st6" d="M91.5,72.4C91.5,72.4,91.5,72.4,91.5,72.4l1,0.1C92.1,72.5,91.8,72.4,91.5,72.4z"/>
		</g>
		<path class="st7" d="M82.6,77.7c-0.4,0.4-0.9,0.8-1.4,1.2c-0.4,0.3-0.8,0.9-0.6,1.3c0.1,0.3,0.5,0.4,0.8,0.4
			c0.7,0,1.3-0.4,1.7-0.9c0.5-0.5,0.8-1.1,1.2-1.6c0.9-1,2.1-1.5,2.9-2.6c0.9-1.2-1.4-1.1-2-0.8C84.1,75.6,83.5,76.7,82.6,77.7z"/>
		<g>
			<path class="st4" d="M94.3,90.8c0.2,0.3,0.7,0.3,1.1,0.2c1.6-0.2,3.2,0.7,4.6,1.4c2.7,1.5,5.6,2.9,8.7,3.4c3.1,0.5,6.4,0.1,9-1.8
				c1.2-0.9,2.2-2.1,3.3-3c0.7-0.6,1.5-1.1,2.4-1.5c0.7-0.3,1.7-0.8,1.7-1.6c0-0.6-0.7-1.1-0.7-1.8c0-0.2,0.1-0.4,0-0.6
				c-0.1-0.3-0.5-0.4-0.8-0.4c-3.1-0.6-5.2-3.5-8.2-4.5c-1.2-0.4-2.5-0.5-3.8-0.6c-2.5,0-5.1,0.4-7.1,1.9c-0.9,0.6-1.6,1.5-2.4,2.2
				c-1.7,1.5-3.9,2.6-6,3.5c-0.5,0.2-1.8,0.3-1.8,1c0,0.4,0.4,0.6,0.3,1.1C94.5,90.1,94.1,90.4,94.3,90.8z"/>
			<path class="st6" d="M125.1,88c0-0.1,0-0.2-0.1-0.3c-0.2,0.2-0.4,0.4-0.6,0.6c-0.8,0.5-1.8,0.3-2.7,0.5c-1,0.2-1.9,1-2.7,1.5
				c-2.7,1.7-6.1,2-9.2,1.5c-3.1-0.5-6.1-1.7-9.1-2.8c-1.4-0.5-2.6-0.7-4,0.1c-0.7,0.4-1.6,0.9-2.3,1.4c0,0.1,0,0.2,0.1,0.3
				c0.2,0.3,0.7,0.3,1.1,0.2c1.6-0.2,3.2,0.7,4.6,1.4c2.7,1.5,5.6,2.9,8.7,3.4c3.1,0.5,6.4,0.1,9-1.8c1.2-0.9,2.2-2.1,3.3-3
				c0.7-0.6,1.5-1.1,2.4-1.5C124.2,89.3,125.1,88.8,125.1,88z"/>
			<path class="st7" d="M103.8,85.4c-0.2,0.4-0.4,0.7-0.4,1.1c0,0.4,0.2,0.8,0.5,1c0.3,0.2,0.7,0.1,1.1,0c0.3-0.2,0.6-0.4,0.8-0.8
				c0.7-1,1-2.4,2-3.2c0.6-0.5,1.5-0.8,2.3-1c0.3-0.1,0.7-0.4,0.6-0.7c-0.1-0.2-0.2-0.3-0.4-0.3C107.7,80.7,104.8,83.4,103.8,85.4z"
				/>
			<path class="st7" d="M112.5,81.2c-0.3,0-0.4,0.5-0.2,0.7c0.2,0.2,0.5,0.3,0.8,0.3c0.4,0,0.8,0,1.2-0.1c0.1,0,0.2,0,0.2-0.1
				c0.1-0.1,0-0.2,0-0.3c-0.1-0.1-0.2-0.1-0.3-0.2c-0.6-0.2-1.3-0.3-1.9-0.2L112.5,81.2z"/>
		</g>
		<g>
			<path class="st4" d="M104,73.3c0.5,1.8,2,3.1,3.7,3.8c1.7,0.7,3.5,0.8,5.4,0.8c1.8,0.1,3.7,0.1,5.4,0.7c0.8,0.3,1.6,0.7,2.4,0.6
				c0-2.8,0.2-5.6-0.4-8.3c-0.6-2.7-2.2-5.3-4.7-6.4c-1.7-0.7-3.6-0.5-5.4-0.3c-1.9,0.3-3.8,0.4-5.7,0.7c-1.9,0.3-1.7,1.4-1.3,2.9
				C103.9,69.7,103.5,71.5,104,73.3z"/>
			<path class="st5" d="M104.3,66.3c0.4-0.1,0.9,0.1,1.2,0.5c0.3,0.4,0.4,0.8,0.5,1.3c0.6,1.6,2.1,2.7,3.7,3.4
				c1.6,0.7,3.3,0.9,5,1.4c1.7,0.5,3.3,1.2,4.5,2.5c0.4,0.5,0.8,1.1,0.7,1.8c-0.2,0.1-0.4-0.1-0.6-0.3c-0.6-0.6-1.6-0.5-2.4-0.3
				c-2.3,0.3-4.6,0.2-6.8-0.5c-0.7-0.2-1.4-0.5-2-0.9c-0.5-0.4-1-1-1.3-1.5c-0.5-0.7-0.8-1.5-1.1-2.3c-0.3-1-0.5-2-1-2.9
				C104.3,67.9,103.3,66.6,104.3,66.3z"/>
			<path class="st8" d="M114.6,72.8c-1.7-0.5-3.4-0.7-5-1.4c-1.5-0.6-2.9-1.6-3.6-3c0,0.1,0.1,0.2,0.1,0.3c0.3,1,0.5,2.1,1,3
				c0.8,1.5,2.5,2.6,4.2,2.8c1.7,0.2,3.4-0.5,5.1-0.2c1,0.1,1.9,0.5,2.7,1.2c0-0.1,0-0.1-0.1-0.2c0,0,0,0,0,0
				C118,74,116.3,73.3,114.6,72.8z"/>
			<path class="st6" d="M120.8,79.2c0.4-0.3,0.2-5.6-0.4-8.3c-0.4-1.6-1.1-3.3-2.2-4.5c0.2,0.5,0.4,1.1,0.5,1.7c0.1,0.8,0,1.6,0,2.5
				c0.1,1.2,0.8,2.3,1.2,3.5c0.5,1.1,0.8,2.4,0.3,3.6c-0.1,0.3-0.4,0.6-0.7,0.7c-0.3,0.1-0.6-0.1-0.9-0.2c-1.9-0.8-4-1-6.1-0.9
				c-0.9,0.1-1.9,0.2-2.8,0.4c1.1,0.2,2.2,0.2,3.3,0.3c1.8,0.1,3.7,0.1,5.4,0.7C119.2,78.9,120.1,79.7,120.8,79.2z"/>
			<path class="st7" d="M108.6,66.8c0.5-0.2,0.9-0.5,1.3-0.7c1.1-0.5,2.3-0.6,3.5-0.6c0.1,0,0.3,0,0.4-0.1c0.1-0.1,0.1-0.3,0-0.4
				c-0.1-0.1-0.2-0.2-0.4-0.3c-0.6-0.2-1.2,0.1-1.8,0.3c-0.7,0.2-1.5,0.3-2.2,0.4c-0.7,0.1-1.5,0-2.2,0.1c-0.6,0.1-0.9,0.6-0.5,1.1
				C107.3,67.1,108,67,108.6,66.8z"/>
		</g>
	</g>
	<g>
		<path class="st4" d="M137.1,41.1c-0.5-0.8-1.7-0.8-2.5-1.1c-1.3-0.4-2.4-1.1-3.6-1.7c-1.1-0.6-2-1.3-3.1-1.8
			c-1.3-0.6-2.8-0.9-4.2-0.9c-3-0.1-5.5,1-8.1,2.5c-1,0.6-2,1.2-3.1,1.6c-0.9,0.3-2.4,0.4-3.3,0.5c-1.1,0-2.9,1.9-0.8,3.8
			c1.5,1.4,3.4,2.9,5.2,3.9c1.4,0.8,2.2,1.2,3.8,1.5c1.8,0.3,3.8,0.7,5.7,0.7c3.8,0.1,8.1-0.9,11.3-3
			C136.2,45.8,138.7,43.6,137.1,41.1z"/>
		<path class="st5" d="M110.3,42.5c0.3-0.2,0.6-0.2,1-0.2c0.3,0.1,0.6,0.3,0.9,0.4c1.9,1.1,4.1,1.4,6.3,1.7c1.6,0.2,3.2,0.4,4.9,0.5
			c1.8,0.1,3.7-0.1,5.4-0.4c0.7-0.1,1.4-0.3,2.1-0.6c1.1-0.5,2-1.2,3.1-1.7c0.3-0.2,0.8-0.3,1.1-0.1c0.2,0.2,0.3,0.5,0.2,0.8
			c-0.1,0.3-0.3,0.5-0.5,0.8c-1.4,1.7-3.4,2.8-5.5,3.5c-2.1,0.7-4.3,0.9-6.5,0.9c-3.9-0.1-7.9-1-11-3.4
			C111.2,44.4,109.4,43.2,110.3,42.5z"/>
		<g>
			<path class="st6" d="M137.1,41.1c-0.5-0.8-1.7-0.8-2.5-1.1c-1.3-0.4-2.4-1.1-3.6-1.7c-1.1-0.6-2-1.3-3.1-1.8c0,0,0,0-0.1,0
				c0.3,0.2,0.5,0.4,0.7,0.7c0.5,0.7,0.7,1.4,0.9,2.2c0.1,0.3,0.1,0.6,0.3,0.9c0.4,0.6,1.1,0.8,1.8,0.8c0.7,0,1.4-0.1,2.2,0
				c0.7,0,1.5,0.3,1.9,0.8c0.3,0.3,0.4,0.8,0.5,1.2c0.1,1.1-0.4,2.2-1.2,2.9s-1.8,1.3-2.8,1.7c-3.3,1.4-6.9,2.1-10.6,2.2
				c0.5,0,1,0.1,1.5,0.1c3.8,0.1,8.1-0.9,11.3-3C136.2,45.8,138.7,43.6,137.1,41.1z"/>
			<path class="st6" d="M126.6,36C126.5,36,126.5,36,126.6,36l0.9,0.3C127.2,36.2,126.9,36.1,126.6,36z"/>
		</g>
		<path class="st7" d="M116.6,38.7c-0.5,0.3-1.1,0.5-1.7,0.8c-0.5,0.2-1,0.6-0.9,1.1c0.1,0.3,0.4,0.6,0.7,0.6c0.6,0.2,1.3,0,1.9-0.4
			c0.6-0.4,1-0.8,1.6-1.2c1.1-0.7,2.4-0.9,3.5-1.7c1.2-0.9-1-1.5-1.7-1.3C118.6,37.1,117.7,38.1,116.6,38.7z"/>
		<g>
			<path class="st4" d="M124.5,54.5c0.1,0.4,0.6,0.4,1,0.5c1.6,0.2,2.9,1.5,4.1,2.6c2.3,2.2,4.7,4.2,7.5,5.5
				c2.9,1.3,6.2,1.7,9.1,0.6c1.4-0.5,2.6-1.4,4-2c0.9-0.4,1.8-0.6,2.7-0.8c0.8-0.1,1.8-0.3,2-1.1c0.1-0.6-0.4-1.3-0.2-1.9
				c0-0.2,0.2-0.4,0.1-0.6c0-0.3-0.4-0.5-0.6-0.6c-2.8-1.3-4.1-4.7-6.7-6.5c-1-0.7-2.3-1.2-3.5-1.5c-2.4-0.7-5-1-7.4-0.1
				c-1,0.4-1.9,1-2.9,1.5c-2.1,1-4.4,1.5-6.7,1.8c-0.5,0.1-1.8-0.1-2,0.4c-0.1,0.4,0.2,0.7,0,1.2C124.9,53.8,124.4,54,124.5,54.5z"
				/>
			<path class="st6" d="M154.9,59.7c0-0.1,0-0.2,0-0.3c-0.2,0.2-0.5,0.3-0.7,0.4c-0.9,0.3-1.8-0.2-2.8-0.2c-1.1,0-2,0.5-3,0.8
				c-3,1-6.4,0.3-9.3-1c-2.9-1.3-5.5-3.3-8.1-5.1c-1.2-0.8-2.4-1.4-3.9-0.9c-0.8,0.2-1.8,0.4-2.6,0.8c0,0.1-0.1,0.2,0,0.3
				c0.1,0.4,0.6,0.4,1,0.5c1.6,0.2,2.9,1.5,4.1,2.6c2.3,2.2,4.7,4.2,7.5,5.5c2.9,1.3,6.2,1.7,9.1,0.6c1.4-0.5,2.6-1.4,4-2
				c0.9-0.4,1.8-0.6,2.7-0.8C153.7,60.7,154.8,60.5,154.9,59.7z"/>
			<path class="st7" d="M135.1,51.7c-0.3,0.3-0.5,0.6-0.7,1c-0.1,0.4-0.1,0.9,0.2,1.1c0.3,0.3,0.7,0.3,1,0.3c0.4-0.1,0.7-0.3,1-0.5
				c1-0.8,1.6-2,2.7-2.6c0.8-0.4,1.6-0.3,2.5-0.4c0.3,0,0.8-0.2,0.7-0.5c0-0.2-0.2-0.3-0.3-0.4C140.1,48.2,136.6,50.1,135.1,51.7z"
				/>
			<path class="st7" d="M144.6,49.9c-0.3-0.1-0.5,0.3-0.4,0.6c0.1,0.3,0.4,0.4,0.7,0.5c0.4,0.1,0.8,0.2,1.2,0.2c0.1,0,0.2,0,0.2-0.1
				c0.1-0.1,0.1-0.2,0-0.3c0-0.1-0.1-0.2-0.2-0.2c-0.5-0.4-1.1-0.6-1.8-0.7L144.6,49.9z"/>
		</g>
		<g>
			<path class="st4" d="M138.4,40.1c0,1.8,1.1,3.5,2.6,4.6c1.5,1.1,3.2,1.7,5,2.2c1.7,0.5,3.5,1.1,5,2.1c0.7,0.5,1.4,1.1,2.2,1.2
				c0.7-2.7,1.6-5.3,1.8-8.1c0.1-2.8-0.8-5.7-2.9-7.4c-1.5-1.1-3.3-1.5-5.2-1.7c-1.9-0.2-3.8-0.6-5.7-0.8c-1.9-0.2-2,0.9-2,2.5
				C139.3,36.6,138.4,38.2,138.4,40.1z"/>
			<path class="st5" d="M140.5,33.4c0.5,0,0.8,0.4,1,0.8c0.1,0.4,0.1,0.9,0.2,1.4c0.2,1.7,1.3,3.2,2.7,4.2c1.4,1,3,1.8,4.5,2.6
				c1.5,0.9,2.9,2,3.7,3.6c0.3,0.6,0.4,1.3,0.2,1.9c-0.2,0-0.4-0.2-0.5-0.5c-0.4-0.7-1.4-0.9-2.3-0.9c-2.3-0.3-4.5-1-6.5-2.2
				c-0.6-0.4-1.2-0.8-1.7-1.4c-0.4-0.5-0.7-1.2-0.9-1.8c-0.3-0.8-0.4-1.7-0.5-2.6c-0.1-1,0-2-0.2-3C140.1,35,139.4,33.5,140.5,33.4z
				"/>
			<path class="st8" d="M148.8,42.4c-1.5-0.9-3.1-1.6-4.5-2.6c-1.3-1-2.4-2.3-2.7-3.8c0,0.1,0,0.2,0,0.3c0,1.1-0.1,2.1,0.2,3.2
				c0.4,1.7,1.7,3.2,3.3,3.8c1.6,0.6,3.4,0.4,5,1.1c0.9,0.4,1.7,1,2.3,1.8c0-0.1,0-0.1,0-0.2c0,0,0,0,0,0
				C151.8,44.4,150.3,43.2,148.8,42.4z"/>
			<path class="st6" d="M153.1,50.2c0.5-0.2,1.6-5.3,1.8-8.1c0.1-1.7-0.2-3.5-1-4.9c0.1,0.6,0.1,1.2,0,1.8c-0.1,0.8-0.5,1.6-0.6,2.4
				c-0.2,1.2,0.1,2.4,0.3,3.7c0.2,1.2,0.1,2.6-0.7,3.5c-0.2,0.3-0.5,0.5-0.9,0.5c-0.3,0-0.6-0.2-0.8-0.4c-1.6-1.3-3.6-2.1-5.7-2.5
				c-0.9-0.2-1.9-0.3-2.8-0.4c1,0.5,2.1,0.8,3.2,1.1c1.7,0.5,3.5,1.1,5,2.1C151.7,49.4,152.4,50.4,153.1,50.2z"/>
			<path class="st7" d="M144.6,34.9c0.5-0.1,1-0.2,1.5-0.3c1.2-0.2,2.4,0,3.5,0.3c0.1,0,0.3,0.1,0.4,0c0.1-0.1,0.2-0.3,0.1-0.4
				c0-0.1-0.2-0.3-0.3-0.3c-0.5-0.3-1.2-0.2-1.8-0.2c-0.8,0-1.5,0-2.3-0.2c-0.7-0.1-1.5-0.4-2.2-0.5c-0.6,0-1.1,0.3-0.8,1
				C143.2,34.9,144,35,144.6,34.9z"/>
		</g>
	</g>
	<g>
		<path class="st4" d="M168.5,74.6c0.6-0.8,0.2-1.8,0.1-2.7c-0.1-1.4,0.1-2.7,0.3-4c0.1-1.2,0.5-2.3,0.5-3.5
			c0.1-1.4-0.2-2.9-0.7-4.3c-1-2.8-3-4.8-5.2-6.6c-0.9-0.7-1.8-1.4-2.6-2.3c-0.6-0.7-1.3-2.1-1.6-2.9c-0.4-1-2.8-2-3.8,0.7
			c-0.8,1.9-1.5,4.2-1.7,6.3c-0.2,1.6-0.3,2.5,0,4c0.3,1.8,0.8,3.8,1.4,5.5c1.3,3.6,3.8,7.2,6.9,9.5C163.8,75.5,166.8,77,168.5,74.6
			z"/>
		<path class="st5" d="M157.4,50.1c0.3,0.2,0.5,0.5,0.5,0.8c0,0.3,0,0.7-0.1,1c-0.3,2.2,0.2,4.3,0.7,6.4c0.4,1.6,0.8,3.2,1.3,4.7
			c0.6,1.7,1.4,3.4,2.4,4.9c0.4,0.6,0.8,1.2,1.3,1.8c0.8,0.8,1.8,1.4,2.7,2.2c0.3,0.3,0.5,0.6,0.4,1c-0.1,0.3-0.4,0.5-0.7,0.5
			c-0.3,0-0.6-0.1-0.9-0.2c-2.1-0.7-3.9-2.1-5.3-3.8c-1.4-1.7-2.4-3.7-3.2-5.8c-1.3-3.6-1.9-7.7-0.9-11.5
			C156,51.7,156.4,49.6,157.4,50.1z"/>
		<g>
			<path class="st6" d="M168.5,74.6c0.6-0.8,0.2-1.8,0.1-2.7c-0.1-1.4,0.1-2.7,0.3-4c0.1-1.2,0.5-2.3,0.5-3.5c0,0,0,0,0-0.1
				c-0.1,0.3-0.2,0.6-0.4,0.9c-0.4,0.7-1.1,1.2-1.7,1.6c-0.3,0.2-0.5,0.4-0.7,0.6c-0.4,0.6-0.3,1.3-0.1,2c0.2,0.7,0.6,1.3,0.8,2
				c0.2,0.7,0.3,1.5-0.1,2.1c-0.2,0.4-0.6,0.7-0.9,0.9c-1,0.5-2.2,0.4-3.2-0.1c-1-0.4-1.8-1.2-2.6-2c-2.5-2.6-4.5-5.7-6-9
				c0.1,0.5,0.3,1,0.5,1.4c1.3,3.6,3.8,7.2,6.9,9.5C163.8,75.4,166.8,77,168.5,74.6z"/>
			<path class="st6" d="M169.4,62.9C169.4,62.9,169.4,62.9,169.4,62.9l0,1C169.4,63.6,169.4,63.2,169.4,62.9z"/>
		</g>
		<path class="st7" d="M163.2,54.6c-0.5-0.4-0.9-0.8-1.4-1.3c-0.4-0.4-1-0.7-1.4-0.4c-0.3,0.2-0.4,0.5-0.4,0.9
			c0.1,0.7,0.5,1.2,1.1,1.6c0.5,0.4,1.1,0.7,1.7,1.1c1.1,0.8,1.8,1.9,2.9,2.6c1.3,0.8,1-1.5,0.6-2.1
			C165.5,55.9,164.2,55.4,163.2,54.6z"/>
		<g>
			<path class="st4" d="M151.5,67.8c-0.3,0.2-0.2,0.7-0.1,1.1c0.4,1.6-0.3,3.2-0.9,4.7c-1.2,2.9-2.2,5.9-2.4,9
				c-0.2,3.1,0.7,6.4,2.8,8.7c1,1.1,2.3,1.9,3.3,3c0.7,0.7,1.2,1.4,1.7,2.2c0.4,0.7,1,1.6,1.8,1.5c0.6-0.1,1.1-0.8,1.7-0.9
				c0.2,0,0.4,0,0.6-0.1c0.3-0.1,0.3-0.5,0.3-0.8c0.2-3.1,2.9-5.6,3.6-8.6c0.3-1.2,0.3-2.5,0.1-3.8c-0.3-2.5-1-5-2.6-6.9
				c-0.7-0.8-1.6-1.4-2.4-2.2c-1.7-1.6-3-3.6-4.1-5.6c-0.2-0.4-0.5-1.7-1.2-1.7c-0.4,0-0.6,0.5-1.1,0.4
				C152.2,67.9,151.8,67.5,151.5,67.8z"/>
			<path class="st6" d="M157.7,98c0.1,0,0.2,0,0.3-0.1c-0.2-0.1-0.5-0.3-0.6-0.5c-0.6-0.7-0.5-1.8-0.8-2.7c-0.3-1-1.2-1.7-1.8-2.5
				c-2-2.5-2.6-5.8-2.5-9c0.2-3.2,1-6.3,1.8-9.4c0.3-1.5,0.4-2.7-0.5-3.9c-0.5-0.7-1-1.5-1.6-2.1c-0.1,0-0.2,0-0.3,0.1
				c-0.3,0.2-0.2,0.7-0.1,1.1c0.4,1.6-0.3,3.2-0.9,4.7c-1.2,2.9-2.2,5.9-2.4,9c-0.2,3.1,0.7,6.4,2.8,8.7c1,1.1,2.3,1.9,3.3,3
				c0.7,0.7,1.2,1.4,1.7,2.2C156.3,97.3,156.9,98.1,157.7,98z"/>
			<path class="st7" d="M157.9,76.6c-0.4-0.1-0.8-0.3-1.2-0.2c-0.4,0-0.8,0.3-1,0.6c-0.1,0.3-0.1,0.7,0.1,1c0.2,0.3,0.5,0.5,0.8,0.7
				c1.1,0.6,2.5,0.7,3.4,1.6c0.6,0.6,0.9,1.4,1.3,2.1c0.1,0.3,0.4,0.6,0.7,0.5c0.2-0.1,0.3-0.3,0.3-0.5C163,80,160,77.4,157.9,76.6z
				"/>
			<path class="st7" d="M163,84.8c0-0.3-0.5-0.4-0.7-0.2c-0.2,0.2-0.3,0.6-0.2,0.9c0,0.4,0.1,0.8,0.3,1.2c0,0.1,0.1,0.2,0.1,0.2
				c0.1,0.1,0.2,0,0.3-0.1c0.1-0.1,0.1-0.2,0.1-0.3c0.2-0.6,0.2-1.3,0-1.9L163,84.8z"/>
		</g>
		<g>
			<path class="st4" d="M169.9,75.4c-1.7,0.7-2.9,2.4-3.3,4.1s-0.4,3.6-0.2,5.4c0.1,1.8,0.3,3.7-0.1,5.4c-0.2,0.8-0.5,1.7-0.3,2.5
				c2.7-0.3,5.6-0.4,8.2-1.3c2.6-0.9,5-2.8,5.8-5.4c0.5-1.8,0.1-3.6-0.3-5.4c-0.5-1.8-0.8-3.7-1.4-5.5c-0.5-1.8-1.6-1.6-3.1-0.9
				C173.5,75,171.6,74.8,169.9,75.4z"/>
			<path class="st5" d="M176.9,75c0.2,0.4,0,0.9-0.4,1.2c-0.3,0.3-0.8,0.4-1.2,0.6c-1.5,0.8-2.5,2.4-3,4.1c-0.5,1.7-0.5,3.4-0.8,5.1
				c-0.3,1.7-0.8,3.5-2,4.7c-0.5,0.5-1,0.9-1.7,0.9c-0.1-0.2,0.1-0.4,0.2-0.6c0.5-0.7,0.3-1.6,0-2.5c-0.6-2.2-0.7-4.6-0.3-6.8
				c0.1-0.7,0.3-1.4,0.7-2.1c0.3-0.6,0.8-1.1,1.4-1.5c0.7-0.5,1.4-1,2.2-1.4c0.9-0.4,1.9-0.8,2.8-1.3C175.3,75.2,176.5,74,176.9,75z
				"/>
			<path class="st8" d="M171.6,86c0.3-1.7,0.4-3.5,0.8-5.1c0.4-1.5,1.3-3,2.6-3.9c-0.1,0-0.2,0.1-0.3,0.1c-1,0.4-2,0.7-2.9,1.3
				c-1.4,1-2.3,2.7-2.3,4.5c0,1.7,0.8,3.3,0.8,5c0,1-0.3,2-0.9,2.8c0.1,0,0.1-0.1,0.2-0.1c0,0,0,0,0,0
				C170.8,89.4,171.3,87.7,171.6,86z"/>
			<path class="st6" d="M165.9,92.8c0.3,0.4,5.6-0.4,8.2-1.3c1.6-0.6,3.1-1.5,4.2-2.7c-0.5,0.3-1,0.5-1.6,0.7
				c-0.8,0.2-1.6,0.1-2.4,0.3c-1.2,0.3-2.2,1-3.3,1.6c-1.1,0.6-2.3,1-3.5,0.7c-0.3-0.1-0.7-0.3-0.8-0.6c-0.1-0.3,0-0.6,0.1-0.9
				c0.6-2,0.6-4.1,0.2-6.2c-0.2-0.9-0.4-1.9-0.7-2.8c-0.1,1.1,0,2.2,0.1,3.4c0.1,1.8,0.3,3.7-0.1,5.4
				C166.1,91.2,165.4,92.2,165.9,92.8z"/>
			<path class="st7" d="M177,79.3c0.2,0.4,0.6,0.8,0.8,1.2c0.6,1,0.9,2.2,1,3.4c0,0.1,0,0.3,0.1,0.4c0.1,0.1,0.3,0.1,0.4,0
				c0.1-0.1,0.2-0.2,0.2-0.4c0.1-0.6-0.2-1.2-0.5-1.7c-0.3-0.7-0.5-1.4-0.7-2.2c-0.1-0.7-0.1-1.5-0.4-2.2c-0.2-0.6-0.7-0.9-1.2-0.4
				C176.5,78,176.7,78.8,177,79.3z"/>
		</g>
	</g>
	<g>
		<path class="st4" d="M142.4,78.2c0.6-0.8,0.2-1.8,0.1-2.7c-0.1-1.4,0.1-2.7,0.3-4c0.1-1.2,0.5-2.3,0.5-3.5
			c0.1-1.4-0.2-2.9-0.7-4.3c-1-2.8-3-4.8-5.2-6.6c-0.9-0.7-1.8-1.4-2.6-2.3c-0.6-0.7-1.3-2.1-1.6-2.9c-0.4-1-2.8-2-3.8,0.7
			c-0.8,1.9-1.5,4.2-1.7,6.3c-0.2,1.6-0.3,2.5,0,4c0.3,1.8,0.8,3.8,1.4,5.5c1.3,3.6,3.8,7.2,6.9,9.5
			C137.7,79.1,140.7,80.6,142.4,78.2z"/>
		<path class="st5" d="M131.3,53.8c0.3,0.2,0.5,0.5,0.5,0.8c0,0.3,0,0.7-0.1,1c-0.3,2.2,0.2,4.3,0.7,6.4c0.4,1.6,0.8,3.2,1.3,4.7
			c0.6,1.7,1.4,3.4,2.4,4.9c0.4,0.6,0.8,1.2,1.3,1.8c0.8,0.8,1.8,1.4,2.7,2.2c0.3,0.3,0.5,0.6,0.4,1c-0.1,0.3-0.4,0.5-0.7,0.5
			c-0.3,0-0.6-0.1-0.9-0.2c-2.1-0.7-3.9-2.1-5.3-3.8c-1.4-1.7-2.4-3.7-3.2-5.8c-1.3-3.6-1.9-7.7-0.9-11.5
			C129.9,55.3,130.3,53.3,131.3,53.8z"/>
		<g>
			<path class="st6" d="M142.4,78.2c0.6-0.8,0.2-1.8,0.1-2.7c-0.1-1.4,0.1-2.7,0.3-4c0.1-1.2,0.5-2.3,0.5-3.5c0,0,0,0,0-0.1
				c-0.1,0.3-0.2,0.6-0.4,0.9c-0.4,0.7-1.1,1.2-1.7,1.6c-0.3,0.2-0.5,0.4-0.7,0.6c-0.4,0.6-0.3,1.3-0.1,2c0.2,0.7,0.6,1.3,0.8,2
				c0.2,0.7,0.3,1.5-0.1,2.1c-0.2,0.4-0.6,0.7-0.9,0.9c-1,0.5-2.2,0.4-3.2-0.1c-1-0.4-1.8-1.2-2.6-2c-2.5-2.6-4.5-5.7-6-9
				c0.1,0.5,0.3,1,0.5,1.4c1.3,3.6,3.8,7.2,6.9,9.5C137.7,79,140.7,80.6,142.4,78.2z"/>
			<path class="st6" d="M143.3,66.5C143.3,66.5,143.3,66.5,143.3,66.5l0,1C143.4,67.2,143.3,66.9,143.3,66.5z"/>
		</g>
		<path class="st7" d="M137.1,58.2c-0.5-0.4-0.9-0.8-1.4-1.3c-0.4-0.4-1-0.7-1.4-0.4c-0.3,0.2-0.4,0.5-0.4,0.9
			c0.1,0.7,0.5,1.2,1.1,1.6c0.5,0.4,1.1,0.7,1.7,1.1c1.1,0.8,1.8,1.9,2.9,2.6c1.3,0.8,1-1.5,0.6-2.1
			C139.4,59.6,138.1,59.1,137.1,58.2z"/>
		<g>
			<path class="st4" d="M125.4,71.4c-0.3,0.2-0.2,0.7-0.1,1.1c0.4,1.6-0.3,3.2-0.9,4.7c-1.2,2.9-2.2,5.9-2.4,9
				c-0.2,3.1,0.7,6.4,2.8,8.7c1,1.1,2.3,1.9,3.3,3c0.7,0.7,1.2,1.4,1.7,2.2c0.4,0.7,1,1.6,1.8,1.5c0.6-0.1,1.1-0.8,1.7-0.9
				c0.2,0,0.4,0,0.6-0.1c0.3-0.1,0.3-0.5,0.3-0.8c0.2-3.1,2.9-5.6,3.6-8.6c0.3-1.2,0.3-2.5,0.1-3.8c-0.3-2.5-1-5-2.6-6.9
				c-0.7-0.8-1.6-1.4-2.4-2.2c-1.7-1.6-3-3.6-4.1-5.6c-0.2-0.4-0.5-1.7-1.2-1.7c-0.4,0-0.6,0.5-1.1,0.4
				C126.1,71.5,125.7,71.1,125.4,71.4z"/>
			<path class="st6" d="M131.6,101.6c0.1,0,0.2,0,0.3-0.1c-0.2-0.1-0.5-0.3-0.6-0.5c-0.6-0.7-0.5-1.8-0.8-2.7
				c-0.3-1-1.2-1.7-1.8-2.5c-2-2.5-2.6-5.8-2.5-9c0.2-3.2,1-6.3,1.8-9.4c0.3-1.5,0.4-2.7-0.5-3.9c-0.5-0.7-1-1.5-1.6-2.1
				c-0.1,0-0.2,0-0.3,0.1c-0.3,0.2-0.2,0.7-0.1,1.1c0.4,1.6-0.3,3.2-0.9,4.7c-1.2,2.9-2.2,5.9-2.4,9c-0.2,3.1,0.7,6.4,2.8,8.7
				c1,1.1,2.3,1.9,3.3,3c0.7,0.7,1.2,1.4,1.7,2.2C130.2,100.9,130.8,101.8,131.6,101.6z"/>
			<path class="st7" d="M131.8,80.2c-0.4-0.1-0.8-0.3-1.2-0.2c-0.4,0-0.8,0.3-1,0.6c-0.1,0.3-0.1,0.7,0.1,1c0.2,0.3,0.5,0.5,0.8,0.7
				c1.1,0.6,2.5,0.7,3.4,1.6c0.6,0.6,0.9,1.4,1.3,2.1c0.1,0.3,0.4,0.6,0.7,0.5c0.2-0.1,0.3-0.3,0.3-0.5
				C136.9,83.6,133.9,81,131.8,80.2z"/>
			<path class="st7" d="M136.9,88.4c0-0.3-0.5-0.4-0.7-0.2c-0.2,0.2-0.3,0.6-0.2,0.9c0,0.4,0.1,0.8,0.3,1.2c0,0.1,0.1,0.2,0.1,0.2
				c0.1,0.1,0.2,0,0.3-0.1s0.1-0.2,0.1-0.3c0.2-0.6,0.2-1.3,0-1.9L136.9,88.4z"/>
		</g>
		<g>
			<path class="st4" d="M143.9,79c-1.7,0.7-2.9,2.4-3.3,4.1c-0.5,1.8-0.4,3.6-0.2,5.4c0.1,1.8,0.3,3.7-0.1,5.4
				c-0.2,0.8-0.5,1.7-0.3,2.5c2.7-0.3,5.6-0.4,8.2-1.3c2.6-0.9,5-2.8,5.8-5.4c0.5-1.8,0.1-3.6-0.3-5.4c-0.5-1.8-0.8-3.7-1.4-5.5
				c-0.5-1.8-1.6-1.6-3.1-0.9C147.4,78.6,145.5,78.4,143.9,79z"/>
			<path class="st5" d="M150.8,78.6c0.2,0.4,0,0.9-0.4,1.2c-0.3,0.3-0.8,0.4-1.2,0.7c-1.5,0.8-2.5,2.4-3,4.1
				c-0.5,1.7-0.5,3.4-0.8,5.1c-0.3,1.7-0.8,3.5-2,4.7c-0.5,0.5-1,0.9-1.7,0.9c-0.1-0.2,0.1-0.4,0.2-0.6c0.5-0.7,0.3-1.6,0-2.5
				c-0.6-2.2-0.7-4.6-0.3-6.8c0.1-0.7,0.3-1.4,0.7-2.1c0.3-0.6,0.8-1.1,1.4-1.5c0.7-0.5,1.4-1,2.2-1.4c0.9-0.4,1.9-0.8,2.8-1.3
				C149.2,78.8,150.4,77.6,150.8,78.6z"/>
			<path class="st8" d="M145.5,89.6c0.3-1.7,0.4-3.5,0.8-5.1c0.4-1.5,1.3-3,2.6-3.9c-0.1,0-0.2,0.1-0.3,0.1c-1,0.4-2,0.7-2.9,1.3
				c-1.4,1-2.3,2.7-2.3,4.5c0,1.7,0.8,3.3,0.8,5c0,1-0.3,2-0.9,2.8c0.1,0,0.1-0.1,0.2-0.1c0,0,0,0,0,0
				C144.7,93,145.2,91.3,145.5,89.6z"/>
			<path class="st6" d="M139.8,96.5c0.3,0.4,5.6-0.4,8.2-1.3c1.6-0.6,3.1-1.5,4.2-2.7c-0.5,0.3-1,0.5-1.6,0.7
				c-0.8,0.2-1.6,0.1-2.4,0.3c-1.2,0.3-2.2,1-3.3,1.6c-1.1,0.6-2.3,1-3.5,0.7c-0.3-0.1-0.7-0.3-0.8-0.6c-0.1-0.3,0-0.6,0.1-0.9
				c0.6-2,0.6-4.1,0.2-6.2c-0.2-0.9-0.4-1.9-0.7-2.8c-0.1,1.1,0,2.2,0.1,3.4c0.1,1.8,0.3,3.7-0.1,5.4
				C140,94.8,139.3,95.8,139.8,96.5z"/>
			<path class="st7" d="M150.9,82.9c0.2,0.4,0.6,0.8,0.8,1.2c0.6,1,0.9,2.2,1,3.4c0,0.1,0,0.3,0.1,0.4c0.1,0.1,0.3,0.1,0.4,0
				c0.1-0.1,0.2-0.2,0.2-0.4c0.1-0.6-0.2-1.2-0.5-1.7c-0.3-0.7-0.5-1.4-0.7-2.2c-0.1-0.7-0.1-1.5-0.4-2.2c-0.2-0.6-0.7-0.9-1.2-0.4
				C150.4,81.6,150.6,82.4,150.9,82.9z"/>
		</g>
	</g>
	<g>
		<path class="st4" d="M100.8,50.4c-1-0.2-1.8,0.5-2.6,0.9c-1.2,0.6-2.5,0.9-3.8,1.3c-1.1,0.3-2.3,0.5-3.5,0.8
			c-1.4,0.4-2.6,1.3-3.7,2.2c-2.3,2-3.3,4.6-4.1,7.4c-0.3,1.1-0.6,2.3-1.2,3.3c-0.4,0.8-1.5,2-2.1,2.6c-0.8,0.8-0.8,3.4,2.1,3.3
			c2.1,0,4.5-0.2,6.5-0.8c1.6-0.4,2.4-0.6,3.8-1.5c1.6-1,3.2-2.1,4.6-3.4c2.8-2.6,5.3-6.2,6.1-10C103.3,54.3,103.6,51,100.8,50.4z"
			/>
		<path class="st5" d="M82.3,69.9c0-0.3,0.3-0.6,0.6-0.8c0.3-0.2,0.6-0.2,1-0.3c2.1-0.5,3.9-1.8,5.7-3.1c1.3-1,2.6-1.9,3.9-3
			c1.4-1.2,2.6-2.6,3.6-4.1c0.4-0.6,0.8-1.2,1.1-1.9c0.5-1.1,0.6-2.2,1.1-3.3c0.1-0.3,0.4-0.7,0.7-0.8c0.3,0,0.6,0.2,0.7,0.4
			c0.1,0.3,0.2,0.6,0.2,0.9c0.1,2.2-0.5,4.4-1.6,6.3c-1,1.9-2.5,3.6-4.1,5.1c-2.8,2.6-6.4,4.7-10.3,5.1C84.3,70.6,82.2,71,82.3,69.9
			z"/>
		<g>
			<path class="st6" d="M100.7,50.4c-1-0.2-1.8,0.5-2.6,0.9c-1.2,0.6-2.5,0.9-3.8,1.3c-1.1,0.3-2.3,0.5-3.5,0.8c0,0,0,0-0.1,0
				c0.3,0,0.7,0,1,0c0.8,0.2,1.5,0.6,2.2,1c0.3,0.2,0.5,0.4,0.8,0.4c0.7,0.2,1.3-0.2,1.9-0.7c0.5-0.5,1-1.1,1.5-1.5
				c0.6-0.5,1.3-0.8,2-0.7c0.4,0.1,0.8,0.3,1.2,0.5c0.8,0.7,1.2,1.9,1.1,3c0,1.1-0.4,2.1-0.9,3.1c-1.5,3.3-3.6,6.3-6.1,8.9
				c0.4-0.3,0.8-0.6,1.1-1c2.8-2.6,5.3-6.2,6.1-10C103.3,54.4,103.6,51,100.7,50.4z"/>
			<path class="st6" d="M89.6,53.9C89.6,53.9,89.6,53.9,89.6,53.9l0.9-0.4C90.2,53.6,89.9,53.8,89.6,53.9z"/>
		</g>
		<path class="st7" d="M84.3,62.8c-0.2,0.6-0.4,1.2-0.7,1.7c-0.2,0.5-0.3,1.2,0.1,1.5c0.3,0.2,0.6,0.1,0.9,0c0.6-0.3,0.9-1,1.1-1.6
			c0.2-0.6,0.2-1.3,0.3-2c0.3-1.3,1.1-2.4,1.3-3.6c0.3-1.5-1.7-0.3-2.1,0.3C84.6,60.2,84.6,61.6,84.3,62.8z"/>
		<g>
			<path class="st4" d="M100.9,68.7c0.3,0.2,0.7-0.1,1-0.3c1.3-1,3.1-0.9,4.7-0.9c3.1,0,6.3-0.2,9.3-1.2c3-1,5.7-3,7-5.9
				c0.6-1.4,0.9-2.8,1.5-4.2c0.4-0.9,0.8-1.7,1.4-2.4c0.5-0.6,1.1-1.5,0.7-2.2c-0.3-0.6-1.2-0.7-1.5-1.2c-0.1-0.2-0.1-0.4-0.3-0.5
				c-0.2-0.2-0.6-0.1-0.9,0c-3,1-6.2-0.5-9.3-0.1c-1.3,0.2-2.4,0.7-3.6,1.3c-2.2,1.2-4.3,2.8-5.4,5c-0.5,1-0.7,2.1-1.1,3.1
				c-0.8,2.2-2.1,4.2-3.6,5.9c-0.3,0.4-1.4,1.1-1.1,1.7c0.2,0.4,0.6,0.4,0.8,0.8C100.7,67.9,100.5,68.5,100.9,68.7z"/>
			<path class="st6" d="M126.5,51.5c-0.1-0.1-0.1-0.2-0.2-0.2c0,0.3-0.1,0.5-0.3,0.8c-0.5,0.8-1.5,1.1-2.2,1.7
				c-0.8,0.7-1.2,1.7-1.7,2.7c-1.5,2.8-4.4,4.7-7.4,5.7c-3,1.1-6.2,1.4-9.4,1.9c-1.5,0.2-2.7,0.6-3.4,2c-0.4,0.7-1,1.5-1.3,2.3
				c0,0.1,0.1,0.2,0.2,0.3c0.3,0.2,0.7-0.1,1-0.3c1.3-1,3.1-0.9,4.7-0.9c3.1,0,6.3-0.2,9.3-1.2c3-1,5.7-3,7-5.9
				c0.6-1.4,0.9-2.8,1.5-4.2c0.4-0.9,0.8-1.7,1.4-2.4C126.3,53.1,126.9,52.2,126.5,51.5z"/>
			<path class="st7" d="M106.6,59.4c0,0.4,0,0.8,0.2,1.2c0.2,0.4,0.5,0.7,0.9,0.7c0.4,0,0.7-0.2,0.9-0.5c0.2-0.3,0.3-0.7,0.3-1
				c0.1-1.2-0.3-2.6,0.2-3.7c0.3-0.8,0.9-1.4,1.5-2c0.2-0.2,0.4-0.6,0.2-0.9c-0.1-0.1-0.3-0.1-0.5-0.1
				C107.8,53.4,106.6,57.2,106.6,59.4z"/>
			<path class="st7" d="M112.2,51.6c-0.3,0.2-0.2,0.6,0.1,0.7c0.3,0.1,0.6,0,0.9-0.1c0.4-0.2,0.7-0.4,1-0.7c0.1-0.1,0.1-0.1,0.1-0.2
				c0-0.1-0.1-0.2-0.2-0.3c-0.1,0-0.2,0-0.3,0c-0.6,0.1-1.3,0.3-1.8,0.7L112.2,51.6z"/>
		</g>
		<g>
			<path class="st4" d="M100.9,48.7c1.3,1.3,3.3,1.8,5.1,1.5c1.8-0.2,3.5-1,5.1-1.8c1.6-0.8,3.3-1.6,5.1-1.9
				c0.8-0.1,1.7-0.2,2.4-0.6c-1.3-2.4-2.5-5-4.3-7.1c-1.8-2.1-4.5-3.6-7.2-3.3c-1.9,0.2-3.4,1.3-4.9,2.4c-1.5,1.1-3.2,2.2-4.6,3.3
				c-1.5,1.2-0.9,2,0.3,3.2C99.2,45.6,99.7,47.4,100.9,48.7z"/>
			<path class="st5" d="M97.9,42.4c0.3-0.3,0.9-0.3,1.3-0.1c0.4,0.2,0.7,0.6,1.1,0.9c1.3,1.1,3.2,1.4,4.9,1.2
				c1.7-0.2,3.4-0.8,5.1-1.2c1.7-0.4,3.5-0.6,5.1,0.1c0.6,0.2,1.2,0.6,1.4,1.2c-0.1,0.2-0.4,0.1-0.7,0c-0.8-0.2-1.6,0.4-2.3,0.9
				c-1.8,1.4-4,2.4-6.2,2.9c-0.7,0.2-1.5,0.3-2.2,0.1c-0.7-0.1-1.3-0.4-1.9-0.7c-0.8-0.4-1.5-0.9-2.1-1.5c-0.8-0.7-1.4-1.5-2.3-2.1
				C98.7,43.8,97.1,43.2,97.9,42.4z"/>
			<path class="st8" d="M110.1,43.2c-1.7,0.4-3.3,1-5.1,1.2c-1.6,0.2-3.3,0-4.6-0.9c0.1,0.1,0.2,0.2,0.3,0.2
				c0.7,0.8,1.4,1.6,2.3,2.2c1.5,1,3.4,1.1,5,0.5c1.6-0.7,2.8-2,4.4-2.7c0.9-0.4,1.9-0.5,2.9-0.3c0,0-0.1-0.1-0.1-0.1c0,0,0,0,0,0
				C113.6,42.6,111.8,42.8,110.1,43.2z"/>
			<path class="st6" d="M118.6,45.8c0.2-0.5-2.5-5-4.3-7.1c-1.1-1.3-2.6-2.3-4.1-2.9c0.5,0.4,0.9,0.8,1.2,1.3
				c0.5,0.7,0.7,1.5,1.2,2.1c0.7,1,1.8,1.7,2.7,2.5c1,0.8,1.9,1.8,2,3c0,0.4,0,0.7-0.3,1c-0.2,0.2-0.6,0.2-0.9,0.2
				c-2.1,0.2-4.1,1-5.8,2.1c-0.8,0.5-1.6,1.1-2.3,1.7c1.1-0.4,2.1-0.9,3.1-1.3c1.6-0.8,3.3-1.6,5.1-1.9
				C117,46.3,118.2,46.6,118.6,45.8z"/>
			<path class="st7" d="M101.9,40.7c0.3-0.4,0.5-0.8,0.8-1.3c0.7-1,1.7-1.7,2.8-2.2c0.1-0.1,0.3-0.1,0.3-0.3c0-0.1,0-0.3-0.2-0.4
				c-0.1-0.1-0.3-0.1-0.4,0c-0.6,0.1-1,0.6-1.4,1.1c-0.5,0.5-1.1,1-1.8,1.4c-0.6,0.4-1.3,0.7-1.9,1.2c-0.4,0.4-0.5,1,0.1,1.2
				C100.9,41.7,101.5,41.2,101.9,40.7z"/>
		</g>
	</g>
	<g>
		<path class="st4" d="M111.4,111.4c0.9,0.5,1.9,0,2.7-0.2c1.3-0.2,2.7-0.2,4-0.2c1.2,0,2.4,0.2,3.6,0.2c1.4-0.1,2.9-0.5,4.2-1.1
			c2.7-1.3,4.4-3.5,6-5.9c0.6-1,1.2-2,2-2.8c0.6-0.7,2-1.5,2.7-1.9c1-0.5,1.7-3-1.1-3.7c-2-0.5-4.3-1-6.4-1c-1.6,0-2.5-0.1-4,0.4
			c-1.8,0.5-3.7,1.2-5.3,2c-3.5,1.7-6.8,4.5-8.7,7.9C110.1,106.8,108.9,109.9,111.4,111.4z"/>
		<path class="st5" d="M134.6,97.7c-0.1,0.3-0.4,0.5-0.8,0.6c-0.3,0.1-0.7,0-1,0c-2.2-0.1-4.3,0.7-6.3,1.4c-1.5,0.6-3.1,1.1-4.5,1.8
			c-1.6,0.8-3.2,1.8-4.6,2.9c-0.6,0.5-1.1,1-1.6,1.5c-0.7,0.9-1.2,2-1.9,2.9c-0.2,0.3-0.5,0.6-0.9,0.5c-0.3,0-0.5-0.3-0.6-0.6
			c-0.1-0.3,0-0.6,0.1-0.9c0.5-2.1,1.7-4.1,3.2-5.7c1.5-1.6,3.4-2.8,5.4-3.8c3.5-1.7,7.5-2.7,11.3-2.1
			C132.8,96.5,135,96.7,134.6,97.7z"/>
		<g>
			<path class="st6" d="M111.5,111.4c0.9,0.5,1.9,0,2.7-0.2c1.3-0.2,2.7-0.2,4-0.2c1.2,0,2.4,0.2,3.6,0.2c0,0,0,0,0.1,0
				c-0.3-0.1-0.6-0.2-0.9-0.3c-0.7-0.4-1.3-1-1.8-1.6c-0.2-0.2-0.4-0.5-0.7-0.6c-0.6-0.3-1.4-0.2-2,0.1c-0.7,0.3-1.2,0.7-1.9,1
				c-0.7,0.3-1.4,0.4-2.1,0.2c-0.4-0.2-0.7-0.5-1-0.8c-0.6-0.9-0.6-2.1-0.3-3.2c0.3-1,1-1.9,1.7-2.8c2.3-2.8,5.2-5,8.3-6.9
				c-0.5,0.2-0.9,0.4-1.4,0.6c-3.5,1.7-6.8,4.5-8.7,7.9C110.1,106.8,108.9,109.9,111.5,111.4z"/>
			<path class="st6" d="M123.2,111C123.2,111,123.2,111,123.2,111l-1,0.1C122.5,111.1,122.8,111.1,123.2,111z"/>
		</g>
		<path class="st7" d="M130.7,104c0.3-0.5,0.7-1,1.1-1.5c0.3-0.4,0.6-1,0.3-1.4c-0.2-0.3-0.6-0.3-0.9-0.3c-0.7,0.1-1.2,0.7-1.5,1.2
			c-0.3,0.6-0.5,1.2-0.9,1.8c-0.6,1.1-1.7,2-2.3,3.1c-0.7,1.3,1.6,0.8,2.1,0.3C129.7,106.4,130,105.1,130.7,104z"/>
		<g>
			<path class="st4" d="M116.4,93.7c-0.3-0.3-0.7-0.1-1.1,0c-1.5,0.6-3.2,0.1-4.8-0.4c-3-0.9-6.1-1.6-9.2-1.4
				c-3.1,0.2-6.3,1.3-8.4,3.7c-1,1.1-1.7,2.5-2.6,3.6c-0.6,0.7-1.3,1.4-2,1.9c-0.7,0.5-1.5,1.1-1.3,1.9c0.2,0.6,0.9,1,1.1,1.6
				c0,0.2,0,0.4,0.1,0.6c0.2,0.3,0.5,0.2,0.9,0.2c3.1-0.1,5.8,2.2,9,2.6c1.3,0.2,2.6,0,3.8-0.3c2.4-0.5,4.9-1.5,6.5-3.4
				c0.7-0.8,1.3-1.8,1.9-2.7c1.4-1.8,3.2-3.4,5.1-4.7c0.4-0.3,1.7-0.7,1.6-1.3c-0.1-0.4-0.5-0.5-0.6-1
				C116.4,94.5,116.7,94,116.4,93.7z"/>
			<path class="st6" d="M87,103.1c0,0.1,0.1,0.2,0.1,0.3c0.1-0.3,0.3-0.5,0.5-0.7c0.7-0.6,1.7-0.7,2.6-1.1c0.9-0.5,1.6-1.3,2.3-2.1
				c2.2-2.3,5.5-3.3,8.7-3.4c3.2-0.2,6.4,0.4,9.5,0.7c1.5,0.2,2.7,0.1,3.9-1c0.6-0.6,1.4-1.2,1.9-1.9c0-0.1,0-0.2-0.1-0.3
				c-0.3-0.3-0.7-0.1-1.1,0c-1.5,0.6-3.2,0.1-4.8-0.4c-3-0.9-6.1-1.6-9.2-1.4c-3.1,0.2-6.3,1.3-8.4,3.7c-1,1.1-1.7,2.5-2.6,3.6
				c-0.6,0.7-1.3,1.4-2,1.9C87.6,101.7,86.8,102.3,87,103.1z"/>
			<path class="st7" d="M108.3,101c0.1-0.4,0.2-0.8,0.1-1.2c-0.1-0.4-0.3-0.8-0.7-0.9c-0.3-0.1-0.7,0-1,0.2
				c-0.3,0.2-0.5,0.6-0.6,0.9c-0.5,1.2-0.5,2.5-1.2,3.5c-0.5,0.7-1.3,1.1-2,1.5c-0.3,0.2-0.6,0.5-0.4,0.8c0.1,0.2,0.3,0.2,0.5,0.2
				C105.5,106.5,107.7,103.2,108.3,101z"/>
			<path class="st7" d="M100.7,107c0.3-0.1,0.3-0.5,0.1-0.7c-0.2-0.2-0.6-0.2-0.9-0.1c-0.4,0.1-0.8,0.2-1.2,0.4
				c-0.1,0-0.2,0.1-0.2,0.2c0,0.1,0,0.2,0.1,0.3c0.1,0.1,0.2,0.1,0.3,0.1c0.6,0.1,1.3,0,1.9-0.2L100.7,107z"/>
		</g>
		<g>
			<path class="st4" d="M110.8,112.9c-0.8-1.6-2.6-2.6-4.4-2.9c-1.8-0.3-3.6,0-5.4,0.4c-1.8,0.3-3.6,0.7-5.4,0.4
				c-0.8-0.1-1.7-0.3-2.5-0.1c0.6,2.7,1,5.5,2.2,8c1.2,2.5,3.3,4.7,6,5.2c1.8,0.3,3.6-0.3,5.3-0.9c1.8-0.7,3.6-1.2,5.4-1.9
				c1.8-0.7,1.4-1.7,0.6-3.1C111.6,116.4,111.6,114.5,110.8,112.9z"/>
			<path class="st5" d="M112,119.8c-0.4,0.2-0.9,0.1-1.2-0.3c-0.3-0.3-0.5-0.7-0.8-1.1c-0.9-1.4-2.7-2.2-4.4-2.5
				c-1.7-0.3-3.5-0.2-5.2-0.3c-1.7-0.1-3.5-0.4-4.9-1.5c-0.5-0.4-1-0.9-1-1.6c0.2-0.1,0.4,0,0.7,0.2c0.7,0.5,1.7,0.1,2.5-0.2
				c2.1-0.8,4.5-1.2,6.7-1c0.7,0.1,1.5,0.2,2.1,0.5c0.6,0.3,1.1,0.7,1.6,1.2c0.6,0.6,1.2,1.3,1.6,2c0.5,0.9,1,1.8,1.6,2.6
				C111.6,118.2,112.9,119.2,112,119.8z"/>
			<path class="st8" d="M100.5,115.7c1.7,0.1,3.5,0,5.2,0.3c1.6,0.3,3.1,0.9,4.1,2.1c-0.1-0.1-0.1-0.2-0.2-0.3
				c-0.5-0.9-0.9-1.9-1.6-2.7c-1.1-1.3-3-2-4.7-1.8c-1.7,0.2-3.2,1.2-4.9,1.4c-1,0.1-2-0.1-2.9-0.6c0,0.1,0.1,0.1,0.1,0.2
				c0,0,0,0,0,0C96.9,115.3,98.7,115.6,100.5,115.7z"/>
			<path class="st6" d="M93,110.8c-0.4,0.4,1,5.5,2.2,8c0.7,1.5,1.8,2.9,3.2,3.9c-0.4-0.5-0.7-1-0.9-1.5c-0.3-0.8-0.3-1.6-0.6-2.4
				c-0.4-1.2-1.2-2.1-1.9-3.1c-0.7-1-1.3-2.2-1.1-3.4c0.1-0.3,0.2-0.7,0.6-0.9c0.3-0.1,0.6-0.1,0.9,0c2.1,0.4,4.2,0.1,6.2-0.4
				c0.9-0.3,1.8-0.6,2.7-1c-1.1,0.1-2.2,0.2-3.3,0.4c-1.8,0.3-3.6,0.7-5.4,0.4C94.7,110.7,93.6,110.2,93,110.8z"/>
			<path class="st7" d="M107.7,120.3c-0.4,0.3-0.8,0.7-1.2,1c-0.9,0.7-2.1,1.1-3.3,1.4c-0.1,0-0.3,0.1-0.4,0.2
				c-0.1,0.1,0,0.3,0.1,0.4c0.1,0.1,0.3,0.2,0.4,0.2c0.6,0,1.2-0.3,1.7-0.6c0.7-0.4,1.4-0.7,2.1-0.9c0.7-0.2,1.5-0.3,2.2-0.6
				c0.5-0.2,0.8-0.8,0.2-1.2C108.9,119.7,108.2,119.9,107.7,120.3z"/>
		</g>
	</g>
	<g>
		<path class="st4" d="M146,102.4c-0.9-0.3-1.8,0.4-2.7,0.7c-1.3,0.5-2.6,0.6-3.9,0.9c-1.2,0.2-2.4,0.2-3.5,0.5
			c-1.4,0.3-2.8,1-3.9,1.9c-2.4,1.8-3.7,4.2-4.9,6.9c-0.4,1.1-0.9,2.2-1.5,3.2c-0.5,0.8-1.6,1.8-2.3,2.4c-0.8,0.7-1.1,3.3,1.7,3.5
			c2.1,0.2,4.5,0.2,6.5-0.2c1.6-0.3,2.4-0.4,3.9-1.1c1.7-0.9,3.4-1.8,4.9-2.9c3.1-2.3,5.9-5.7,7.1-9.4
			C148.2,106.6,148.8,103.3,146,102.4z"/>
		<path class="st5" d="M125.8,120c0.1-0.3,0.3-0.6,0.7-0.7c0.3-0.1,0.6-0.2,1-0.2c2.2-0.3,4.1-1.4,6-2.5c1.4-0.8,2.8-1.7,4.1-2.6
			c1.5-1.1,2.8-2.3,4-3.7c0.5-0.6,0.9-1.1,1.3-1.8c0.6-1,0.8-2.2,1.4-3.2c0.2-0.3,0.4-0.7,0.8-0.7c0.3,0,0.6,0.2,0.7,0.5
			c0.1,0.3,0.1,0.6,0.1,0.9c-0.1,2.2-0.9,4.3-2.2,6.2c-1.2,1.8-2.8,3.4-4.6,4.7c-3.1,2.3-6.8,4-10.8,4.1
			C127.7,120.9,125.6,121.1,125.8,120z"/>
		<g>
			<path class="st6" d="M146,102.4c-0.9-0.3-1.8,0.4-2.7,0.7c-1.3,0.5-2.6,0.6-3.9,0.9c-1.2,0.2-2.4,0.2-3.5,0.5c0,0,0,0-0.1,0
				c0.3,0,0.7,0,1,0.1c0.8,0.2,1.4,0.7,2.1,1.2c0.2,0.2,0.5,0.4,0.8,0.5c0.7,0.2,1.4-0.1,1.9-0.5c0.6-0.4,1.1-1,1.7-1.4
				c0.6-0.4,1.3-0.7,2-0.5c0.4,0.1,0.8,0.3,1.1,0.7c0.8,0.8,1,2,0.8,3.1c-0.1,1.1-0.6,2.1-1.2,3c-1.8,3.2-4.2,5.9-6.9,8.3
				c0.4-0.3,0.8-0.6,1.2-0.8c3.1-2.3,5.9-5.7,7.1-9.4C148.2,106.6,148.8,103.3,146,102.4z"/>
			<path class="st6" d="M134.6,104.8C134.6,104.8,134.5,104.8,134.6,104.8l0.9-0.3C135.2,104.6,134.9,104.7,134.6,104.8z"/>
		</g>
		<path class="st7" d="M128.4,113.1c-0.2,0.6-0.5,1.1-0.8,1.7c-0.2,0.5-0.4,1.1,0,1.5c0.2,0.2,0.6,0.2,0.9,0.1
			c0.6-0.2,1-0.9,1.2-1.5c0.2-0.6,0.3-1.3,0.5-1.9c0.4-1.2,1.3-2.2,1.7-3.5c0.4-1.4-1.7-0.5-2.1,0.1
			C129,110.6,128.9,111.9,128.4,113.1z"/>
		<g>
			<path class="st4" d="M144.4,120.6c0.3,0.2,0.7,0,1-0.2c1.4-0.8,3.2-0.6,4.8-0.5c3.1,0.3,6.3,0.5,9.3-0.3s6-2.5,7.5-5.2
				c0.8-1.3,1.2-2.7,1.9-4.1c0.4-0.8,1-1.6,1.6-2.3c0.6-0.6,1.2-1.4,0.9-2.1c-0.3-0.6-1.1-0.8-1.3-1.4c-0.1-0.2-0.1-0.4-0.2-0.5
				c-0.2-0.2-0.6-0.1-0.9-0.1c-3.1,0.7-6.2-1.2-9.3-1c-1.3,0.1-2.5,0.5-3.7,1c-2.3,1-4.5,2.3-5.8,4.5c-0.6,0.9-0.9,2-1.4,3
				c-1,2.1-2.5,3.9-4.2,5.5c-0.4,0.4-1.5,1-1.3,1.6c0.1,0.4,0.6,0.4,0.7,0.9C144.2,119.9,144,120.3,144.4,120.6z"/>
			<path class="st6" d="M171.6,106c0-0.1-0.1-0.2-0.2-0.3c-0.1,0.3-0.2,0.5-0.3,0.8c-0.5,0.8-1.6,1-2.3,1.5
				c-0.9,0.6-1.3,1.6-1.9,2.5c-1.8,2.6-4.8,4.2-7.9,4.9c-3.1,0.8-6.3,0.8-9.5,1c-1.5,0.1-2.7,0.4-3.6,1.6c-0.5,0.7-1.1,1.4-1.6,2.2
				c0,0.1,0.1,0.2,0.2,0.3c0.3,0.2,0.7,0,1-0.2c1.4-0.8,3.2-0.6,4.8-0.5c3.1,0.3,6.3,0.5,9.3-0.3s6-2.5,7.5-5.2
				c0.8-1.3,1.2-2.7,1.9-4.1c0.4-0.8,1-1.6,1.6-2.3C171.2,107.6,171.9,106.8,171.6,106z"/>
			<path class="st7" d="M151,112c0,0.4,0,0.8,0.1,1.2c0.1,0.4,0.5,0.7,0.9,0.8c0.4,0,0.7-0.1,1-0.4c0.2-0.3,0.4-0.6,0.4-1
				c0.3-1.2,0-2.6,0.6-3.7c0.4-0.7,1.1-1.3,1.7-1.8c0.2-0.2,0.5-0.6,0.3-0.9c-0.1-0.1-0.3-0.2-0.5-0.2
				C152.7,106.1,151.2,109.7,151,112z"/>
			<path class="st7" d="M157.4,104.7c-0.3,0.1-0.2,0.6,0,0.7c0.3,0.2,0.6,0.1,0.9,0c0.4-0.1,0.8-0.3,1.1-0.6
				c0.1-0.1,0.1-0.1,0.2-0.2c0-0.1-0.1-0.2-0.2-0.3c-0.1,0-0.2,0-0.3,0c-0.6,0-1.3,0.2-1.8,0.5L157.4,104.7z"/>
		</g>
		<g>
			<path class="st4" d="M146.4,100.7c1.1,1.5,3.1,2.1,4.9,2c1.8-0.1,3.6-0.7,5.3-1.3c1.7-0.6,3.4-1.3,5.2-1.4c0.8-0.1,1.7,0,2.5-0.4
				c-1.1-2.6-2-5.2-3.6-7.4c-1.6-2.2-4.1-4-6.8-4c-1.9,0-3.5,0.9-5.1,1.9c-1.6,1-3.4,1.9-4.9,2.9c-1.6,1-1.1,2,0,3.2
				C145,97.5,145.3,99.3,146.4,100.7z"/>
			<path class="st5" d="M144,94.2c0.3-0.3,0.9-0.2,1.3,0c0.4,0.2,0.7,0.6,1,1c1.2,1.3,3,1.7,4.8,1.7c1.7,0,3.4-0.5,5.1-0.7
				c1.7-0.2,3.5-0.2,5.1,0.6c0.6,0.3,1.1,0.7,1.3,1.4c-0.2,0.2-0.4,0-0.7-0.1c-0.8-0.3-1.6,0.2-2.4,0.7c-1.9,1.2-4.2,2-6.4,2.2
				c-0.7,0.1-1.5,0.1-2.2-0.1c-0.7-0.2-1.2-0.5-1.8-0.9c-0.7-0.5-1.4-1.1-2-1.7c-0.7-0.8-1.3-1.6-2-2.3
				C144.6,95.6,143.2,94.9,144,94.2z"/>
			<path class="st8" d="M156,96.1c-1.7,0.2-3.4,0.7-5.1,0.7c-1.6,0-3.3-0.3-4.4-1.4c0.1,0.1,0.2,0.2,0.2,0.3
				c0.7,0.8,1.3,1.7,2.1,2.4c1.4,1.1,3.3,1.5,5,0.9c1.6-0.5,3-1.7,4.6-2.2c1-0.3,2-0.3,2.9,0c0-0.1-0.1-0.1-0.1-0.2c0,0,0,0,0,0
				C159.6,95.9,157.8,95.9,156,96.1z"/>
			<path class="st6" d="M164.2,99.6c0.3-0.4-2-5.2-3.6-7.4c-1-1.4-2.3-2.6-3.8-3.3c0.4,0.4,0.8,0.8,1.1,1.4c0.4,0.7,0.6,1.5,1,2.3
				c0.6,1.1,1.6,1.8,2.5,2.7c0.9,0.9,1.7,1.9,1.7,3.2c0,0.4-0.1,0.7-0.4,0.9c-0.2,0.2-0.6,0.2-0.9,0.2c-2.1,0-4.1,0.6-6,1.6
				c-0.8,0.4-1.7,0.9-2.5,1.4c1.1-0.3,2.1-0.6,3.2-1c1.7-0.6,3.4-1.3,5.2-1.4C162.6,99.9,163.8,100.3,164.2,99.6z"/>
			<path class="st7" d="M148.1,92.9c0.4-0.4,0.6-0.8,1-1.2c0.8-0.9,1.9-1.5,3-1.9c0.1-0.1,0.3-0.1,0.3-0.2c0.1-0.1,0-0.3-0.1-0.4
				c-0.1-0.1-0.3-0.1-0.4-0.1c-0.6,0.1-1.1,0.5-1.5,0.9c-0.6,0.5-1.2,0.9-1.9,1.2c-0.6,0.3-1.4,0.6-2,1c-0.5,0.3-0.6,0.9,0,1.2
				C147,93.7,147.7,93.3,148.1,92.9z"/>
		</g>
	</g>
	<g>
		<path class="st9" d="M137.7,36.3c-0.5-1.3-1.7-2.1-2.9-2.5c-1.2-0.4-2.6-0.3-3.9-0.2c-2.4,0.2-4.9,0.7-7,2.1
			c-2,1.4-3.6,3.9-3.2,6.5c0.1,0.8,0.4,1.6,1.1,2c0.7,0.5,1.7,0.3,2.5-0.1c0.8-0.4,1.4-1,2.1-1.5c0.5-0.4,1.1-0.7,1.7-0.8
			c0.4,0.2,0.7,0.7,0.8,1.1c0.2,0.6,0.1,1.2,0.1,1.8c0,1.1,0,2.3,0.2,3.4c0.1,0.8,0.4,1.7,1.1,2c0.5,0.2,1,0.1,1.5,0
			c0.9-0.3,1.8-0.7,2.7-1.2c0.1-0.1,0.3-0.2,0.4-0.3c0.3-0.4-0.1-1-0.3-1.4c-0.9-1.3-1.6-2.7-2-4.2c-0.1-0.3-0.2-0.7-0.2-1
			c0.1-0.9,1-1.4,1.8-1.5c0.8-0.1,1.7-0.1,2.5-0.5C137.8,39.2,138.2,37.5,137.7,36.3z M128.6,41.8c0.1,0,0.2,0,0.2,0L128.6,41.8z"/>
		<path class="st10" d="M139,35.6c-0.5-1.3-1.7-2.1-2.9-2.5c-1.2-0.4-2.6-0.3-3.9-0.2c-2.4,0.2-4.9,0.7-7,2.1
			c-2,1.4-3.6,3.9-3.2,6.5c0.1,0.8,0.4,1.6,1.1,2c0.7,0.5,1.7,0.3,2.5-0.1c0.8-0.4,1.4-1,2.1-1.5c0.5-0.4,1.1-0.7,1.7-0.8
			c0.4,0.2,0.7,0.7,0.8,1.1c0.2,0.6,0.1,1.2,0.1,1.8c0,1.1,0,2.3,0.2,3.4c0.1,0.8,0.4,1.7,1.1,2c0.5,0.2,1,0.1,1.5,0
			c0.9-0.3,1.8-0.7,2.7-1.2c0.1-0.1,0.3-0.2,0.4-0.3c0.3-0.4-0.1-1-0.3-1.4c-0.9-1.3-1.6-2.7-2-4.2c-0.1-0.3-0.2-0.7-0.2-1
			c0.1-0.9,1-1.4,1.8-1.5c0.8-0.1,1.7-0.1,2.5-0.5C139.1,38.5,139.5,36.8,139,35.6z M129.9,41.1c0.1,0,0.2,0,0.2,0L129.9,41.1z"/>
		<path class="st11" d="M125.6,36.8c0.2,0.1,0.5,0.2,0.8,0.1c0.9-0.1,1.7-0.5,2.5-0.9c0.8-0.3,1.7-0.6,2.6-0.7
			c0.6-0.1,1.3-0.1,1.8,0.1c0.6,0.2,1,0.8,1,1.4c0,0.4-0.2,0.8,0,1.1c0.1,0.1,0.2,0.2,0.4,0.2c0.6,0.3,1.4,0.2,2-0.1
			c0.6-0.4,1-1,1-1.7c0-0.9-0.7-1.6-1.5-2c-0.8-0.4-1.7-0.5-2.5-0.5c-2.3,0-4.6,0.4-6.8,1.3c-0.4,0.2-0.8,0.3-1.2,0.6
			C125.4,36.1,125,36.4,125.6,36.8z"/>
	</g>
	<g>
		<path class="st9" d="M86.7,44.3c-1.1,0.8-1.7,2.1-1.8,3.4c-0.1,1.3,0.3,2.6,0.7,3.8c0.8,2.3,1.8,4.6,3.6,6.3
			c1.8,1.7,4.6,2.6,7,1.7c0.7-0.3,1.5-0.8,1.7-1.5c0.3-0.8-0.1-1.7-0.6-2.4c-0.6-0.7-1.3-1.1-2-1.7c-0.5-0.4-0.9-0.9-1.1-1.5
			c0.1-0.4,0.5-0.8,0.9-1.1c0.5-0.3,1.2-0.4,1.8-0.5c1.1-0.2,2.2-0.5,3.2-1c0.7-0.3,1.5-0.8,1.7-1.5c0.1-0.5-0.1-1-0.4-1.4
			c-0.5-0.8-1.1-1.6-1.8-2.3c-0.1-0.1-0.3-0.2-0.4-0.3c-0.5-0.2-0.9,0.3-1.3,0.6c-1,1.2-2.3,2.1-3.7,2.9c-0.3,0.2-0.6,0.3-1,0.4
			c-0.9,0.1-1.6-0.7-1.9-1.5c-0.3-0.8-0.5-1.6-1-2.3C89.6,43.6,87.9,43.5,86.7,44.3z M94.2,52c0-0.1,0-0.2,0-0.2L94.2,52z"/>
		<path class="st10" d="M85.8,43.2c-1.1,0.8-1.7,2.1-1.8,3.4c-0.1,1.3,0.3,2.6,0.7,3.8c0.8,2.3,1.8,4.6,3.6,6.3
			c1.8,1.7,4.6,2.6,7,1.7c0.7-0.3,1.5-0.8,1.7-1.5c0.3-0.8-0.1-1.7-0.6-2.4c-0.6-0.7-1.3-1.1-2-1.7c-0.5-0.4-0.9-0.9-1.1-1.5
			c0.1-0.4,0.5-0.8,0.9-1.1c0.5-0.3,1.2-0.4,1.8-0.5c1.1-0.2,2.2-0.5,3.2-1c0.7-0.3,1.5-0.8,1.7-1.5c0.1-0.5-0.1-1-0.4-1.4
			c-0.5-0.8-1.1-1.6-1.8-2.3c-0.1-0.1-0.3-0.2-0.4-0.3c-0.5-0.2-0.9,0.3-1.3,0.6c-1,1.2-2.3,2.1-3.7,2.9c-0.3,0.2-0.6,0.3-1,0.4
			c-0.9,0.1-1.6-0.7-1.9-1.5c-0.3-0.8-0.5-1.6-1-2.3C88.6,42.4,86.9,42.4,85.8,43.2z M93.2,50.8c0-0.1,0-0.2,0-0.2L93.2,50.8z"/>
		<path class="st11" d="M90,56c0.1-0.3,0-0.5-0.1-0.8c-0.3-0.9-0.9-1.5-1.4-2.3c-0.5-0.7-0.9-1.5-1.2-2.3c-0.2-0.6-0.4-1.2-0.3-1.8
			c0.1-0.6,0.5-1.2,1.1-1.3c0.4-0.1,0.8,0,1-0.3c0.1-0.1,0.1-0.3,0.2-0.4c0.1-0.7-0.1-1.4-0.6-1.9c-0.5-0.5-1.2-0.7-1.9-0.6
			c-0.8,0.2-1.4,1-1.6,1.9s-0.1,1.7,0.1,2.6c0.5,2.3,1.5,4.4,2.8,6.3c0.3,0.4,0.5,0.7,0.9,1C89.3,56.4,89.8,56.7,90,56z"/>
	</g>
	<g>
		<path class="st9" d="M138,97.8c-1.2-0.7-2.6-0.6-3.8-0.1c-1.2,0.5-2.2,1.4-3.1,2.3c-1.8,1.7-3.4,3.6-4.2,6
			c-0.7,2.4-0.3,5.3,1.5,7.1c0.6,0.5,1.3,1,2.1,0.9c0.9-0.1,1.5-0.8,1.9-1.6c0.3-0.8,0.5-1.7,0.7-2.5c0.2-0.6,0.5-1.2,0.9-1.7
			c0.5-0.1,1,0.1,1.4,0.4c0.5,0.4,0.8,0.9,1.2,1.4c0.7,0.9,1.4,1.8,2.3,2.5c0.6,0.5,1.4,1,2.1,0.8c0.5-0.1,0.8-0.5,1.1-0.9
			c0.6-0.8,1-1.7,1.3-2.6c0.1-0.2,0.1-0.3,0.1-0.5c-0.1-0.5-0.6-0.7-1.1-0.9c-1.5-0.5-2.9-1.1-4.2-2c-0.3-0.2-0.6-0.4-0.8-0.7
			c-0.5-0.8-0.1-1.7,0.5-2.3c0.6-0.6,1.3-1.1,1.6-1.9C139.9,100.1,139.2,98.5,138,97.8z M134.3,107.8c0.1,0,0.1-0.1,0.2-0.1
			L134.3,107.8z"/>
		<path class="st10" d="M138.6,96.5c-1.2-0.7-2.6-0.6-3.8-0.1c-1.2,0.5-2.2,1.4-3.1,2.3c-1.8,1.7-3.4,3.6-4.2,6
			c-0.7,2.4-0.3,5.3,1.5,7.1c0.6,0.5,1.3,1,2.1,0.9c0.9-0.1,1.5-0.8,1.9-1.6c0.3-0.8,0.5-1.7,0.7-2.5c0.2-0.6,0.5-1.2,0.9-1.7
			c0.5-0.1,1,0.1,1.4,0.4c0.5,0.4,0.8,0.9,1.2,1.4c0.7,0.9,1.4,1.8,2.3,2.5c0.6,0.5,1.4,1,2.1,0.8c0.5-0.1,0.8-0.5,1.1-0.9
			c0.6-0.8,1-1.7,1.3-2.6c0.1-0.2,0.1-0.3,0.1-0.5c-0.1-0.5-0.6-0.7-1.1-0.9c-1.5-0.5-2.9-1.1-4.2-2c-0.3-0.2-0.6-0.4-0.8-0.7
			c-0.5-0.8-0.1-1.7,0.5-2.3c0.6-0.6,1.3-1.1,1.6-1.9C140.5,98.7,139.7,97.2,138.6,96.5z M134.8,106.5c0.1,0,0.1-0.1,0.2-0.1
			L134.8,106.5z"/>
		<path class="st11" d="M128.8,105.8c0.3,0,0.5-0.2,0.7-0.4c0.6-0.6,1-1.5,1.4-2.3c0.4-0.8,1-1.5,1.6-2.1c0.4-0.4,0.9-0.9,1.5-1
			c0.6-0.2,1.3,0,1.7,0.5c0.2,0.3,0.3,0.7,0.7,0.8c0.1,0,0.3,0,0.4,0c0.7-0.2,1.3-0.7,1.5-1.4c0.2-0.7,0.1-1.4-0.3-2
			c-0.6-0.7-1.5-0.9-2.4-0.7c-0.9,0.2-1.6,0.7-2.3,1.2c-1.8,1.4-3.3,3.2-4.5,5.2c-0.2,0.4-0.4,0.8-0.5,1.2
			C128.2,105.3,128.1,105.9,128.8,105.8z"/>
	</g>
	<g>
		<path class="st9" d="M123.3,72.3c-0.5-1.3-1.7-2.1-2.9-2.5c-1.2-0.4-2.6-0.3-3.9-0.2c-2.4,0.2-4.9,0.6-7,2
			c-2.1,1.4-3.6,3.9-3.3,6.4c0.1,0.8,0.4,1.6,1.1,2c0.7,0.5,1.7,0.3,2.5-0.1c0.8-0.4,1.4-1,2.1-1.5c0.5-0.4,1.1-0.7,1.7-0.7
			c0.4,0.2,0.7,0.7,0.8,1.1c0.1,0.6,0.1,1.2,0.1,1.8c-0.1,1.1,0,2.3,0.2,3.4c0.1,0.8,0.4,1.7,1.1,2c0.5,0.2,1,0.1,1.5,0
			c0.9-0.3,1.8-0.7,2.7-1.2c0.1-0.1,0.3-0.2,0.4-0.3c0.3-0.4,0-1-0.3-1.4c-0.9-1.3-1.6-2.7-2-4.2c-0.1-0.3-0.2-0.7-0.1-1
			c0.1-0.9,1-1.4,1.9-1.5c0.8-0.1,1.7-0.1,2.5-0.5C123.4,75.2,123.8,73.6,123.3,72.3z M114.1,77.7c0.1,0,0.2,0,0.2,0L114.1,77.7z"/>
		<path class="st10" d="M124.6,71.6c-0.5-1.3-1.7-2.1-2.9-2.5c-1.2-0.4-2.6-0.3-3.9-0.2c-2.4,0.2-4.9,0.6-7,2
			c-2.1,1.4-3.6,3.9-3.3,6.4c0.1,0.8,0.4,1.6,1.1,2c0.7,0.5,1.7,0.3,2.5-0.1c0.8-0.4,1.4-1,2.1-1.5c0.5-0.4,1.1-0.7,1.7-0.7
			c0.4,0.2,0.7,0.7,0.8,1.1c0.1,0.6,0.1,1.2,0.1,1.8c-0.1,1.1,0,2.3,0.2,3.4c0.1,0.8,0.4,1.7,1.1,2c0.5,0.2,1,0.1,1.5,0
			c0.9-0.3,1.8-0.7,2.7-1.2c0.1-0.1,0.3-0.2,0.4-0.3c0.3-0.4,0-1-0.3-1.4c-0.9-1.3-1.6-2.7-2-4.2c-0.1-0.3-0.2-0.7-0.1-1
			c0.1-0.9,1-1.4,1.9-1.5c0.8-0.1,1.7-0.1,2.5-0.5C124.7,74.5,125.1,72.9,124.6,71.6z M115.4,77c0.1,0,0.2,0,0.2,0L115.4,77z"/>
		<path class="st11" d="M111.2,72.7c0.2,0.1,0.5,0.2,0.8,0.1c0.9-0.1,1.7-0.5,2.5-0.9c0.8-0.3,1.7-0.6,2.6-0.7
			c0.6-0.1,1.3-0.1,1.8,0.1c0.6,0.2,1,0.8,1,1.4c0,0.4-0.2,0.8,0,1.1c0.1,0.1,0.2,0.2,0.4,0.2c0.6,0.3,1.4,0.2,2-0.1
			c0.6-0.4,1-1,1-1.7c0-0.9-0.7-1.6-1.4-2c-0.8-0.4-1.7-0.5-2.5-0.5c-2.3,0-4.6,0.4-6.8,1.2c-0.4,0.2-0.8,0.3-1.2,0.6
			C111,72,110.6,72.4,111.2,72.7z"/>
	</g>
	<g>
		<path class="st9" d="M162,65.6c0.9-1,1.2-2.4,0.9-3.7c-0.2-1.3-0.9-2.4-1.6-3.5c-1.3-2.1-2.8-4.1-5-5.3c-2.2-1.2-5.1-1.4-7.2,0
			c-0.7,0.5-1.2,1.1-1.3,1.9c-0.1,0.9,0.5,1.7,1.2,2.2c0.7,0.5,1.6,0.8,2.3,1.2c0.6,0.3,1.1,0.7,1.4,1.2c0,0.5-0.3,0.9-0.7,1.2
			c-0.5,0.4-1.1,0.6-1.6,0.9c-1,0.5-2,1-2.9,1.7c-0.6,0.5-1.3,1.1-1.3,1.9c0,0.5,0.4,0.9,0.7,1.3c0.7,0.7,1.4,1.3,2.3,1.9
			c0.1,0.1,0.3,0.2,0.5,0.2c0.5,0,0.8-0.5,1.1-0.9c0.8-1.4,1.7-2.6,2.9-3.7c0.3-0.2,0.5-0.5,0.9-0.6c0.8-0.3,1.7,0.3,2.2,1
			c0.5,0.7,0.8,1.5,1.5,2C159.4,67,161.1,66.6,162,65.6z M153,59.8c0,0.1,0.1,0.1,0.1,0.2L153,59.8z"/>
		<path class="st10" d="M163.2,66.4c0.9-1,1.2-2.4,0.9-3.7c-0.2-1.3-0.9-2.4-1.6-3.5c-1.3-2.1-2.8-4.1-5-5.3c-2.2-1.2-5.1-1.4-7.2,0
			c-0.7,0.5-1.2,1.1-1.3,1.9c-0.1,0.9,0.5,1.7,1.2,2.2c0.7,0.5,1.6,0.8,2.3,1.2c0.6,0.3,1.1,0.7,1.4,1.2c0,0.5-0.3,0.9-0.7,1.2
			c-0.5,0.4-1.1,0.6-1.6,0.9c-1,0.5-2,1-2.9,1.7c-0.6,0.5-1.3,1.1-1.3,1.9c0,0.5,0.4,0.9,0.7,1.3c0.7,0.7,1.4,1.3,2.3,1.9
			c0.1,0.1,0.3,0.2,0.5,0.2c0.5,0,0.8-0.5,1.1-0.9c0.8-1.4,1.7-2.6,2.9-3.7c0.3-0.2,0.5-0.5,0.9-0.6c0.8-0.3,1.7,0.3,2.2,1
			c0.5,0.7,0.8,1.5,1.5,2C160.6,67.8,162.3,67.4,163.2,66.4z M154.2,60.7c0,0.1,0.1,0.1,0.1,0.2L154.2,60.7z"/>
		<path class="st11" d="M156.1,54.9c0,0.3,0.1,0.5,0.2,0.8c0.5,0.8,1.2,1.3,1.9,1.9c0.7,0.6,1.3,1.3,1.8,2c0.3,0.5,0.7,1.1,0.7,1.7
			c0,0.6-0.2,1.3-0.8,1.5c-0.3,0.1-0.8,0.2-1,0.5c-0.1,0.1-0.1,0.3-0.1,0.4c0,0.7,0.4,1.4,1,1.8c0.6,0.4,1.4,0.4,2,0.1
			c0.8-0.4,1.2-1.3,1.2-2.2c0-0.9-0.3-1.7-0.7-2.5c-1-2.1-2.4-3.9-4.2-5.5c-0.3-0.3-0.7-0.6-1.1-0.8
			C156.7,54.4,156.2,54.3,156.1,54.9z"/>
	</g>
	<g>
		<path class="st9" d="M184.2,84.4c0.9-1,1.2-2.4,0.9-3.7c-0.2-1.3-0.9-2.4-1.6-3.5c-1.3-2.1-2.8-4.1-5-5.3c-2.2-1.2-5.1-1.4-7.2,0
			c-0.7,0.5-1.2,1.1-1.3,1.9c-0.1,0.9,0.5,1.7,1.2,2.2c0.7,0.5,1.6,0.8,2.3,1.2c0.6,0.3,1.1,0.7,1.4,1.2c0,0.5-0.3,0.9-0.7,1.2
			c-0.5,0.4-1.1,0.6-1.6,0.9c-1,0.5-2,1-2.9,1.7c-0.6,0.5-1.3,1.1-1.3,1.9c0,0.5,0.4,0.9,0.7,1.3c0.7,0.7,1.4,1.3,2.3,1.9
			c0.1,0.1,0.3,0.2,0.5,0.2c0.5,0,0.8-0.5,1.1-0.9c0.8-1.4,1.7-2.6,2.9-3.7c0.3-0.2,0.5-0.5,0.9-0.6c0.8-0.3,1.7,0.3,2.2,1
			c0.5,0.7,0.8,1.5,1.5,2C181.6,85.8,183.3,85.4,184.2,84.4z M175.2,78.7c0,0.1,0.1,0.1,0.1,0.2L175.2,78.7z"/>
		<path class="st10" d="M185.4,85.3c0.9-1,1.2-2.4,0.9-3.7c-0.2-1.3-0.9-2.4-1.6-3.5c-1.3-2.1-2.8-4.1-5-5.3c-2.2-1.2-5.1-1.4-7.2,0
			c-0.7,0.5-1.2,1.1-1.3,1.9c-0.1,0.9,0.5,1.7,1.2,2.2c0.7,0.5,1.6,0.8,2.3,1.2c0.6,0.3,1.1,0.7,1.4,1.2c0,0.5-0.3,0.9-0.7,1.2
			c-0.5,0.4-1.1,0.6-1.6,0.9c-1,0.5-2,1-2.9,1.7c-0.6,0.5-1.3,1.1-1.3,1.9c0,0.5,0.4,0.9,0.7,1.3c0.7,0.7,1.4,1.3,2.3,1.9
			c0.1,0.1,0.3,0.2,0.5,0.2c0.5,0,0.8-0.5,1.1-0.9c0.8-1.4,1.7-2.6,2.9-3.7c0.3-0.2,0.5-0.5,0.9-0.6c0.8-0.3,1.7,0.3,2.2,1
			c0.5,0.7,0.8,1.5,1.5,2C182.9,86.7,184.5,86.3,185.4,85.3z M176.5,79.5c0,0.1,0.1,0.1,0.1,0.2L176.5,79.5z"/>
		<path class="st11" d="M178.3,73.8c0,0.3,0.1,0.5,0.2,0.8c0.5,0.8,1.2,1.3,1.9,1.9c0.7,0.6,1.3,1.3,1.8,2c0.3,0.5,0.7,1.1,0.7,1.7
			c0,0.6-0.2,1.3-0.8,1.5c-0.3,0.1-0.8,0.2-1,0.5c-0.1,0.1-0.1,0.3-0.1,0.4c0,0.7,0.4,1.4,1,1.8c0.6,0.4,1.4,0.4,2,0.1
			c0.8-0.4,1.2-1.3,1.2-2.2c0-0.9-0.3-1.7-0.7-2.5c-1-2.1-2.4-3.9-4.2-5.5c-0.3-0.3-0.7-0.6-1.1-0.8
			C178.9,73.3,178.4,73.1,178.3,73.8z"/>
	</g>
	<g>
		<path class="st9" d="M85.5,114.1c0.8,1.1,2.1,1.7,3.4,1.8c1.3,0.1,2.6-0.3,3.8-0.7c2.3-0.8,4.6-1.8,6.3-3.6c1.7-1.8,2.6-4.6,1.7-7
			c-0.3-0.7-0.8-1.5-1.5-1.7c-0.8-0.3-1.7,0.1-2.4,0.6c-0.7,0.6-1.1,1.3-1.7,2c-0.4,0.5-0.9,0.9-1.5,1.1c-0.4-0.1-0.8-0.5-1.1-0.9
			c-0.3-0.5-0.4-1.2-0.5-1.8c-0.2-1.1-0.5-2.2-1-3.2c-0.3-0.7-0.8-1.5-1.5-1.7c-0.5-0.1-1,0.1-1.4,0.4c-0.8,0.5-1.6,1.1-2.3,1.8
			c-0.1,0.1-0.2,0.3-0.3,0.4c-0.2,0.5,0.3,0.9,0.6,1.3c1.1,1.1,2.1,2.3,2.9,3.7c0.2,0.3,0.3,0.6,0.4,1c0.1,0.9-0.7,1.6-1.5,1.9
			c-0.8,0.3-1.7,0.5-2.3,1C84.7,111.3,84.7,113,85.5,114.1z M93.2,106.7c-0.1,0-0.2,0-0.2,0L93.2,106.7z"/>
		<path class="st10" d="M84.4,115.1c0.8,1.1,2.1,1.7,3.4,1.8c1.3,0.1,2.6-0.3,3.8-0.7c2.3-0.8,4.6-1.8,6.3-3.6
			c1.7-1.8,2.6-4.6,1.7-7c-0.3-0.7-0.8-1.5-1.5-1.7c-0.8-0.3-1.7,0.1-2.4,0.6c-0.7,0.6-1.1,1.3-1.7,2c-0.4,0.5-0.9,0.9-1.5,1.1
			c-0.4-0.1-0.8-0.5-1.1-0.9c-0.3-0.5-0.4-1.2-0.5-1.8c-0.2-1.1-0.5-2.2-1-3.2c-0.3-0.7-0.8-1.5-1.5-1.7c-0.5-0.1-1,0.1-1.4,0.4
			c-0.8,0.5-1.6,1.1-2.3,1.8c-0.1,0.1-0.2,0.3-0.3,0.4c-0.2,0.5,0.3,0.9,0.6,1.3c1.1,1.1,2.1,2.3,2.9,3.7c0.2,0.3,0.3,0.6,0.4,1
			c0.1,0.9-0.7,1.6-1.5,1.9c-0.8,0.3-1.7,0.5-2.3,1C83.6,112.3,83.6,114,84.4,115.1z M92.1,107.7c-0.1,0-0.2,0-0.2,0L92.1,107.7z"/>
		<path class="st11" d="M97.2,110.9c-0.3-0.1-0.5,0-0.8,0c-0.9,0.3-1.5,0.9-2.3,1.4c-0.7,0.5-1.5,0.9-2.3,1.2
			c-0.6,0.2-1.2,0.4-1.8,0.3c-0.6-0.1-1.2-0.5-1.3-1.2c-0.1-0.4,0-0.8-0.3-1c-0.1-0.1-0.3-0.1-0.4-0.2c-0.7-0.1-1.4,0.1-1.9,0.6
			c-0.5,0.5-0.8,1.2-0.6,1.9c0.2,0.8,1,1.4,1.9,1.6c0.8,0.2,1.7,0.1,2.6-0.1c2.3-0.5,4.4-1.4,6.3-2.7c0.4-0.3,0.7-0.5,1-0.9
			C97.5,111.6,97.8,111.1,97.2,110.9z"/>
	</g>
	<g>
		<path class="st12" d="M134.9,124c-0.4-2.5-1.9-6-3.3-8.1c-1.9-2.8-4.1-5.7-7.2-7c-3.2-1.3-7.5-0.3-8.7,2.9c-0.5,1.2-0.5,2.5-1,3.6
			c-0.5,1-1.3,1.8-1.8,2.8c-1.5,2.8-0.2,6.5,2.2,8.6c2.4,2.1,5.6,3,8.7,3.7c3.1,0.7,6.3,1.4,8.9,3.2c0.2,0.2,0.5,0.3,0.8,0.4
			C136.3,134.6,135.2,125.9,134.9,124z"/>
		<path class="st13" d="M132.7,133.6c0.2,0.2,0.5,0.3,0.8,0.4c0.2,0,0.4,0,0.6,0c-0.3-0.1-0.6-0.2-0.8-0.4c-0.6-0.5-1-1.2-1.6-1.8
			c-1.9-2.1-5.1-2.2-7.6-3.4c-1-0.5-1.8-1.1-2.8-1.5c-1.1-0.4-2.3-0.6-3.2-1.2c-1-0.7-1.4-2-1.7-3.2c-0.4-1.9-0.5-4,0.7-5.5
			c0.6-0.8,1.5-1.4,1.9-2.3c0.5-1.3-0.5-2.7-0.3-4.1c0-0.6,0.3-1.2,0.7-1.6c-1.6,0.5-2.9,1.5-3.6,3.1c-0.5,1.2-0.5,2.5-1,3.6
			c-0.5,1-1.3,1.8-1.8,2.8c-1.5,2.8-0.2,6.5,2.2,8.6c2.4,2.1,5.6,3,8.7,3.7C126.9,131.2,130.1,131.8,132.7,133.6z"/>
		<path class="st13" d="M122.7,116.4c3.7,2.5,6.3,6.5,8.6,10.3c0.3,0.5,0.6,1,0.8,1.6c-0.6-0.3-0.9-1-1.2-1.5
			c-1.8-3.1-4.2-5.8-6.9-8c-1.1-0.8-2.2-1.6-3.5-2.1c-1.3-0.5-2.7-0.6-4-0.1c-0.4,0.1-0.8,0.3-1.1,0c-0.3-0.5,0.2-1.4,0.6-1.7
			c0.5-0.3,1.4-0.3,1.9-0.3C119.6,114.7,121.3,115.4,122.7,116.4z"/>
		<path class="st13" d="M121.8,124.3c0.3-1.5,0.5-3,0.4-4.6c0-0.5-0.1-1.1-0.3-1.6c-0.4-1-1.3-1.6-2-2.3
			C123.7,116,123.5,121.9,121.8,124.3z"/>
		<path class="st13" d="M126,124.6c-0.2,0.5-0.4,1-0.7,1.4c0.4,0,0.7-0.5,0.8-0.9c0.3-0.9,0.7-1.7,1-2.6c0.1-0.4,0.3-0.7,0.2-1.1
			c-0.1-0.2-0.4-0.8-0.7-0.6c-0.2,0.1,0,1,0,1.2C126.5,122.9,126.3,123.7,126,124.6z"/>
		<path class="st13" d="M124.6,114.2c0.9-1,1.4-2.3,1.6-3.7c0.3,0.1,0.3,0.5,0.2,0.8c-0.1,0.6-0.4,1.1-0.6,1.6
			c-0.5,1.1-1.1,2.2-2.1,2.9c-0.9,0.6-2.4,1-3.3,0.2c0.2-0.5,1.5-0.2,2-0.4C123.3,115.3,124,114.8,124.6,114.2z"/>
		<path class="st13" d="M128.4,120c0.3-0.1,0.6-0.3,0.8-0.5c0.8-0.7,1.4-1.7,1.5-2.8c0.1,0,0.3,0.1,0.3,0.3c0,0.1,0,0.3-0.1,0.4
			c-0.2,0.6-0.4,1.2-0.8,1.7c-0.4,0.6-0.9,1.2-1.6,1.5c-0.3,0.2-2,0.8-2,0C126.5,120.1,128.1,120.1,128.4,120z"/>
		<path class="st13" d="M130.9,124c0.5-0.2,0.8-0.6,1.1-1c0.2-0.2,0.3-0.4,0.5-0.6c0.1,0.3-0.1,0.6-0.3,0.8c-0.3,0.3-0.6,0.7-1,1
			c-0.4,0.3-0.9,0.4-1.3,0.3c-0.3-0.1-0.6-0.3-0.8-0.6C129.6,123.8,130.3,124.2,130.9,124z"/>
		<path class="st13" d="M109.6,115.8c-0.5,0.3-1,0.6-1.3,1.1c-0.3,0.5-0.2,1.2,0.3,1.6c0.1,0.1,0.3,0.1,0.4,0.1
			c0.4-0.1,0.5-0.6,0.6-1c0.3-0.8,1.1-1.2,1.9-1.5c0.7-0.2,1.4-0.4,2.1-0.3c0.7,0.1,2,0.6,2.6-0.1c0.7-0.8-0.6-1.2-1.2-1.2
			C113.1,114.4,111.2,114.9,109.6,115.8z"/>
		<path class="st14" d="M132.6,120.4c-0.5-2.1-1.8-3.9-3.6-5.2c-0.6-0.4-1.2-0.8-1.9-0.7c-0.6,0-1.2,0.3-1.5,0.8
			c-0.1,0.2-0.2,0.4-0.2,0.7c0,0.4,0.2,0.8,0.5,1.1c0.5,0.5,1.1,0.8,1.8,0.9c0.4,0.1,0.8,0,1.3,0.1c0.4,0.1,0.8,0.3,1,0.7
			c0.2,0.3,0.1,0.8,0.4,1c0.2,0.3,0.6,0.3,0.9,0.5c0.3,0.3,0.5,0.7,0.6,1.1c0.2,0.7,0.4,1.4,0.4,2.2c0,0.5-0.1,1,0.1,1.4
			c0.2,0.4,0.5,0.7,0.8,1.1c0.5,0.8,0.4,1.9,0.4,2.8c-0.1,1-0.1,2,0.5,2.8c0.5-0.4,0.4-1.2,0.4-1.8c0-0.8,0.1-1.6,0.2-2.4
			c0-1.3-0.7-2-1-3.2C133,123.1,133,121.7,132.6,120.4z"/>
		<path class="st12" d="M113.5,111.6c0.1-3.5-1.7-7-4.4-9.3c-2.7-2.3-6.1-3.6-9.6-4.3c-0.4-0.1-0.7-0.1-1.1,0
			c-0.4,0.1-0.7,0.6-0.9,1c-0.1,0.4-0.1,0.9-0.1,1.4c0,0.6,0,1.3-0.1,1.9c-0.3,1.7-1,3.2-1.4,4.8c-0.7,2.8-0.5,5.9,0.9,8.4
			c1.4,2.5,3.9,4.5,6.7,5c0.7,0.1,1.5,0.2,2.2,0c1.5-0.3,2.8-1.2,3.5-2.6c0.7-1.4,1-2.1,2.4-2.9
			C112.9,114.4,113.4,113.1,113.5,111.6z"/>
		<path class="st13" d="M103.4,120.5c0.7,0.1,1.5,0.2,2.2,0c1.5-0.3,2.8-1.2,3.5-2.6c0.7-1.4,1-2.1,2.4-2.9c1.3-0.7,1.8-2,1.9-3.4
			c0-0.8,0-1.5-0.2-2.3c-0.1,0.4,0,0.8-0.1,1c-0.2,1.2-0.9,2.4-1.8,3.2c-0.6,0.5-1.5,0.9-2.2,0.6c-0.1-0.1-0.3-0.2-0.5-0.2
			c-0.2,0-0.4,0.2-0.5,0.5c-0.1,0.3-0.2,0.6-0.3,0.9c-0.1,0.4-0.1,0.8-0.3,1.2c-0.5,1.4-2.2,2.2-3.7,2c-1.5-0.2-2.8-1.2-3.8-2.3
			c-0.5-0.6-1-1.3-1.2-2.1c-0.3-0.9-0.2-1.8-0.1-2.8c0.1-2,0.2-3.9,0.3-5.9c0-1.1,0-2.2-0.3-3.2c-0.3-0.9-0.7-1.7-1-2.6
			c-0.1-0.3-0.1-0.6-0.2-0.9c-0.1,0.1-0.2,0.3-0.2,0.5c-0.1,0.4-0.1,0.9-0.1,1.4c0,0.6,0,1.3-0.1,1.9c-0.3,1.7-1,3.2-1.4,4.8
			c-0.7,2.8-0.5,5.9,0.9,8.4C98.1,118,100.6,120,103.4,120.5z"/>
		<path class="st13" d="M107.6,111.1c-0.2-0.8-0.6-1.6-1-2.4c-1-1.9-2.2-3.7-3.5-5.5c-0.9-1.2-1.9-2.4-3.2-3.1
			c0-0.1,0.2-0.1,0.3-0.1c0.6,0.2,1,0.6,1.5,1c3.1,2.9,5.2,6.8,6.9,10.8c0.2,0.5,0.4,1,0.5,1.5c0.1,1-0.4,2-0.8,2.9
			c0,0.1-0.1,0.2-0.2,0.2c-0.1,0.1-0.2,0-0.3-0.1c-0.3-0.6,0-1.8,0-2.5C107.9,113,107.8,112,107.6,111.1z"/>
		<path class="st13" d="M103.9,101.8c0.3-0.3,0.7-0.4,1.1-0.5c0.4-0.1,0.8-0.1,1.2,0.1c-0.1,0.1-0.2,0.1-0.4,0.1
			c-0.5-0.1-1.1,0.2-1.6,0.5c-0.2,0.1-0.4,0.3-0.4,0.5c-0.1,0.3,0.1,0.6,0,0.9c0,0.1,0,0.1-0.1,0.1c-0.2,0.1-0.5-0.5-0.5-0.7
			C103.3,102.4,103.6,102,103.9,101.8z"/>
		<path class="st13" d="M108.1,104.2c0.8-0.1,1.5,0.2,2.2,0.5c0.1,0,0.1,0.1,0.2,0.1c0,0.1,0,0.2-0.1,0.2c-0.6-0.2-1.2-0.4-1.9-0.4
			c-0.6,0-1.3,0.2-1.7,0.8c-0.4,0.5-0.4,1.3-0.3,1.9c0,0.1,0,0.2,0,0.3c-0.1,0.1-0.2,0.1-0.3,0c-0.7-0.5-0.4-1.5-0.1-2.1
			C106.5,104.8,107.3,104.3,108.1,104.2z"/>
		<path class="st13" d="M109.8,108.8c0.1-0.1,0.3-0.2,0.4-0.3c0.2-0.1,0.4-0.1,0.6,0c0.5,0,0.9,0.2,1.3,0.3c0,0.1-0.1,0.1-0.1,0.1
			c-0.1,0-0.1,0-0.2-0.1c-0.4-0.2-0.8,0-1.2,0.1c-0.6,0.2-1.1,0.5-1.6,1c-0.1,0.1-0.1,0.1-0.2,0.2c-0.1,0.1,0,0.3,0,0.4
			c0,0.4,0,0.7-0.1,1.1c0,0.1-0.1,0.2-0.2,0.3c-0.3,0.2-0.5-0.4-0.6-0.6c-0.1-0.3,0-0.5,0.2-0.7
			C108.7,109.9,109.2,109.3,109.8,108.8z"/>
		<path class="st13" d="M102.8,107.2c-0.9,0.6-1.6,1.5-2.2,2.3c-0.1,0.1-0.2,0.4,0,0.4c0.5-0.7,1.1-1.3,1.8-1.8
			c0.8-0.6,1.7-1,2.7-0.8c0.4,0.1,0.7,0.2,1.1,0.4c0,0-0.2-0.8-0.3-0.9c-0.2-0.2-0.6-0.2-0.9-0.2
			C104.2,106.5,103.4,106.8,102.8,107.2z"/>
		<path class="st13" d="M104.3,111.8c-1.1,0.8-1.7,2.1-2,3.4c-0.1,0.2,0,0.5,0.2,0.5c0.3-1.2,0.8-2.3,1.7-3.1
			c0.9-0.8,2.3-1.1,3.3-0.5c0.1,0.1,0.3,0.2,0.4,0.2c0.4-0.1,0.3-0.7,0.1-0.9c-0.2-0.3-0.7-0.4-1.1-0.4
			C106,110.9,105,111.2,104.3,111.8z"/>
		<path class="st14" d="M112.9,110.5c0-0.4-0.1-0.8-0.2-1.1c-0.2-0.6-0.4-1.1-0.8-1.6c-0.3-0.3-0.6-0.5-0.9-0.7
			c-0.4-0.4-0.5-1-0.8-1.5c-0.5-1.2-1.4-2.2-2.4-3c-1-0.8-2.1-1.4-3.3-2c-0.7-0.4-1.6-0.7-2.4-0.6c-0.1,0-0.2,0-0.2,0.1
			c-0.1,0.1-0.1,0.3,0,0.4c0.1,0.1,0.2,0.2,0.4,0.2c0.5,0.2,1,0.3,1.6,0.4c0.4,0.1,0.7,0.1,1,0.3c0.3,0.2,0.5,0.6,0.3,0.9
			c0,0.1-0.1,0.2-0.1,0.2c-0.2,0.4,0.2,0.9,0.6,1c0.4,0.1,0.9,0.1,1.3,0c0.4,0,0.9,0.1,1.2,0.4c0.3,0.4,0.1,1.1-0.2,1.6
			c-0.3,0.5-0.6,1-0.4,1.6c0.1,0.4,0.5,0.6,0.9,0.7c0.4,0.1,0.8,0.1,1.2,0c0.2,0,0.3-0.1,0.5,0c0.3,0,0.6,0.3,0.7,0.6
			c0.1,0.3,0,0.7-0.3,0.9c-0.1,0.1-0.3,0.1-0.4,0.2c-0.9,0.6-0.7,2.1,0.3,2.4C111.5,112.2,112.8,111.5,112.9,110.5z"/>
		<path class="st15" d="M115.1,118.4c0.7,0.5,1.2,1.2,1.4,2.1c0.4,1.7-0.5,3.5-1.7,4.8c-1.2,1.3-2.6,2.4-3.6,3.9
			c-0.5,0.8-0.8,1.6-1.2,2.4c-0.4,0.8-1,1.5-1.9,1.9c-0.4,0.2-0.8,0.2-1.1,0.1c-0.4-0.2-0.7-0.6-0.9-1.1c-0.6-1.3-0.7-2.8-1.1-4.1
			c-0.6-1.6-1.7-3.1-2.2-4.8c-0.5-1.8-0.2-3.7,0.6-5.4c0.6-1.3,1.5-2.5,2.8-2.9c1.8-0.7,4,0.4,4.8,2.1c0.5,1.1,0.8,0.9,1.8,0.7
			C113.6,117.9,114.5,118,115.1,118.4z"/>
		<path class="st16" d="M107,133.5c0.4,0.1,0.8,0.1,1.1-0.1c-0.4-0.1-0.7-0.3-1-0.6c-0.4-0.6-0.2-1.4-0.2-2.1c0.1-0.6,0-1.2-0.1-1.8
			c-0.1-0.7-0.4-1.4-0.6-2.1c-0.9-2.9-0.9-6.1,0-9c0.3-0.8,0.6-1.6,1.3-2.2c0.3-0.3,0.7-0.4,1.1-0.5c-0.8-0.3-1.6-0.3-2.4,0
			c-1.3,0.5-2.2,1.7-2.8,2.9c-0.8,1.7-1.1,3.6-0.6,5.4c0.5,1.7,1.6,3.1,2.2,4.8c0.5,1.3,0.6,2.8,1.1,4.1
			C106.3,132.9,106.6,133.4,107,133.5z"/>
		<path class="st16" d="M109.7,118.6c-1.3,2.3-1.6,5.1-1.4,7.8c0.1,0.9,0.2,1.8,0,2.7c0,0.2-0.1,0.5,0.1,0.6
			c0.2-0.5,0.3-1.1,0.3-1.6c0.2-2.9,0.4-5.7,1.3-8.5c0.1-0.3,0.2-0.6,0.4-0.8c0.5-0.5,0.6-0.6,1.6-0.6
			C111.1,117.3,110.2,117.7,109.7,118.6z"/>
		<path class="st16" d="M110.6,119c0.1,0.3,0.2,0.5,0.4,0.8c0.3,0.4,0.7,0.9,1.2,1.1c0.5,0.3,1,0.4,1.6,0.3c-0.5,0.2-1,0.1-1.5-0.1
			c-0.5-0.2-0.8-0.6-1.2-0.9c-0.3-0.3-0.6-0.6-0.9-1c-0.2-0.2-0.3-0.4-0.3-0.7c0-0.2,0.2-0.4,0.3-0.4
			C111,117.8,110.5,118.7,110.6,119z"/>
		<path class="st16" d="M109.9,124.1c0.6,0.6,1.4,1,2.2,1c-0.9,0.2-1.7-0.2-2.4-0.8c-0.3-0.3-0.7-0.6-0.8-1
			c-0.1-0.3-0.2-0.6-0.1-0.9c0.1-0.4,0.2-0.2,0.3,0.1C109.2,123,109.5,123.6,109.9,124.1z"/>
		<path class="st16" d="M108.4,118.3c-0.5-0.2-1-0.7-1.2-1.2c0.1,0.4,0.4,0.8,0.8,1.1c0.4,0.3,0.8,0.5,1.2,0.7
			c0.2,0.1,0.4,0.2,0.7,0.1c0.2,0,0.4-0.2,0.4-0.3c0.1-0.3-0.2-0.2-0.4-0.2C109.3,118.5,108.8,118.5,108.4,118.3z"/>
		<path class="st16" d="M105.5,121.6c0.7,0.4,1.4,0.6,2.2,0.6c0.4,0,0.8,0,1.1-0.2c0.2-0.1,0.7-0.7,0.3-0.8
			c-0.2-0.1-0.9,0.3-1.1,0.4C107.1,121.8,106.2,121.8,105.5,121.6z"/>
		<path class="st17" d="M113.7,119c0.5,0.1,1.1,0.3,1.4,0.8c0.3,0.4,0.4,1.1,0.3,1.6c-0.2,0.5-0.5,1-1,1.3c-0.2,0.2-0.5,0.3-0.7,0.5
			c-0.5,0.5-0.6,1.3-0.8,2c-0.3,1.2-1.1,2.2-2.2,2.9c-0.2,0.1-0.3,0.2-0.5,0.2c-0.2,0-0.4-0.1-0.4-0.3c0-0.1,0-0.2,0.1-0.3
			c0.2-0.3,0.4-0.7,0.7-0.9c0.1-0.1,0.2-0.1,0.2-0.2c0.1-0.2-0.2-0.5-0.4-0.6c-0.2-0.1-0.5-0.4-0.4-0.6c0.1-0.3,0.6-0.3,0.9-0.1
			c0.3,0.2,0.6,0.4,0.9,0.3c0.3-0.1,0.3-0.5,0.2-0.8c-0.3-0.6-1.1-0.9-1.1-1.5c0-0.4,0.5-0.7,0.9-0.8c0.4-0.1,0.9-0.1,1.2-0.3
			c0.4-0.2,0.5-0.8,0.2-1.1c-0.2-0.1-0.4-0.1-0.6-0.2c-0.3-0.1-0.6-0.2-0.8-0.5C110.9,118.9,113.1,118.9,113.7,119z"/>
	</g>
	<g>
		<path class="st18" d="M135.2,75.4c0,0,0.1-0.1,0.1-0.1C135.3,75.3,135.2,75.4,135.2,75.4c0.5-0.6,1.1-1.2,1.8-1.8
			c-0.1,0.1-0.1,0.1-0.2,0.2c0.3-0.2,0.6-0.4,0.9-0.6c0.4-0.3,0.6-0.9,0.4-1.4c-0.3-0.4-0.9-0.6-1.4-0.4c-1.3,0.8-2.3,1.8-3.2,3
			c-0.1,0.2-0.2,0.5-0.1,0.8c0.1,0.2,0.2,0.5,0.5,0.6c0.2,0.1,0.5,0.2,0.8,0.1C134.9,75.7,135.1,75.6,135.2,75.4L135.2,75.4z"/>
	</g>
	<g>
		<path class="st18" d="M137.1,67.4c0.9,0.1,1.9,0,2.8-0.2c0.2,0,0.5-0.3,0.6-0.5c0.1-0.2,0.2-0.5,0.1-0.8c-0.2-0.5-0.7-0.8-1.2-0.7
			c-0.2,0-0.4,0.1-0.6,0.1c0.1,0,0.2,0,0.3,0c-0.6,0.1-1.3,0.1-1.9,0c-0.2,0-0.5,0.1-0.7,0.3c-0.2,0.2-0.3,0.5-0.3,0.7
			c0,0.3,0.1,0.5,0.3,0.7c0.1,0.1,0.1,0.1,0.2,0.2C136.7,67.4,136.9,67.4,137.1,67.4L137.1,67.4z"/>
	</g>
	<g>
		<path class="st18" d="M132.6,67.4c0.5-0.4,1-0.7,1.4-1.1c0.1-0.1,0.2-0.2,0.2-0.3c0.1-0.1,0.1-0.2,0.1-0.4c0-0.2-0.1-0.5-0.3-0.7
			c-0.2-0.2-0.4-0.3-0.7-0.3c-0.1,0-0.2,0-0.3,0c-0.2,0-0.3,0.1-0.4,0.3c-0.5,0.4-1,0.7-1.4,1.1c-0.1,0.1-0.2,0.2-0.2,0.3
			c-0.1,0.1-0.1,0.2-0.1,0.4c0,0.2,0.1,0.5,0.3,0.7c0.2,0.2,0.4,0.3,0.7,0.3c0.1,0,0.2,0,0.3,0C132.3,67.6,132.4,67.5,132.6,67.4
			L132.6,67.4z"/>
	</g>
	<g>
		<path class="st18" d="M125.8,67.7c0.1-0.1,0.1-0.1,0.2-0.2c0.1-0.1,0.2-0.3,0.3-0.4c0.1-0.1,0.1-0.3,0.2-0.5
			c0-0.1,0.1-0.2,0.1-0.3c0-0.1,0-0.3,0-0.4c0-0.1,0-0.3-0.1-0.4c-0.1-0.1-0.1-0.2-0.3-0.3c-0.1-0.1-0.2-0.1-0.3-0.2
			c-0.1,0-0.2,0-0.3,0c-0.2,0-0.3,0-0.5,0.1c-0.1,0.1-0.1,0.1-0.2,0.2c-0.1,0.1-0.2,0.3-0.3,0.4c0,0.1-0.1,0.2-0.1,0.3
			c0-0.1,0.1-0.2,0.1-0.2c-0.1,0.1-0.1,0.3-0.2,0.4c0.1-0.1,0.1-0.1,0.2-0.2c-0.1,0.1-0.1,0.2-0.2,0.2c-0.1,0.1-0.2,0.2-0.2,0.3
			c-0.1,0.1-0.1,0.2-0.1,0.4c0,0.1,0,0.3,0.1,0.4c0,0.1,0.1,0.2,0.2,0.3c0.1,0.1,0.1,0.1,0.2,0.2c0.2,0.1,0.3,0.1,0.5,0.1
			c0.1,0,0.2,0,0.3,0C125.5,67.9,125.7,67.8,125.8,67.7L125.8,67.7z"/>
	</g>
	<g>
		<path class="st18" d="M119.1,61c0.8,0.4,1.8,0.6,2.7,0.5c0.3,0,0.5-0.1,0.7-0.3c0.2-0.2,0.3-0.5,0.3-0.7c0-0.3-0.1-0.5-0.3-0.7
			c-0.2-0.2-0.4-0.3-0.7-0.3c-0.3,0-0.7,0-1,0c0.1,0,0.2,0,0.3,0c-0.4-0.1-0.7-0.1-1.1-0.3c0.1,0,0.2,0.1,0.2,0.1c0,0-0.1,0-0.1-0.1
			c-0.2-0.1-0.5-0.2-0.8-0.1c-0.2,0.1-0.5,0.2-0.6,0.5c-0.1,0.2-0.2,0.5-0.1,0.8C118.8,60.6,118.9,60.8,119.1,61L119.1,61z"/>
	</g>
	<g>
		<path class="st18" d="M114.9,56.9c0.4,0,0.8,0,1.3,0c0.3,0,0.5-0.1,0.7-0.3c0.1-0.1,0.2-0.2,0.2-0.3c0.1-0.1,0.1-0.2,0.1-0.4
			c0-0.3-0.1-0.5-0.3-0.7c-0.2-0.2-0.4-0.3-0.7-0.3c-0.4,0-0.8,0-1.3,0c-0.3,0-0.5,0.1-0.7,0.3c-0.1,0.1-0.2,0.2-0.2,0.3
			c-0.1,0.1-0.1,0.2-0.1,0.4c0,0.3,0.1,0.5,0.3,0.7C114.4,56.8,114.6,56.9,114.9,56.9L114.9,56.9z"/>
	</g>
	<g>
		<path class="st18" d="M109.9,62.8c0.2-0.4,0.5-0.7,0.7-1.1c0.1-0.1,0.1-0.2,0.1-0.4c0-0.1,0-0.3,0-0.4c0-0.1-0.1-0.2-0.2-0.3
			c-0.1-0.1-0.2-0.2-0.3-0.3c-0.2-0.1-0.5-0.2-0.8-0.1c-0.1,0-0.2,0.1-0.2,0.1c-0.1,0.1-0.3,0.2-0.4,0.4c-0.2,0.4-0.5,0.7-0.7,1.1
			c-0.1,0.1-0.1,0.2-0.1,0.4c0,0.1,0,0.3,0,0.4c0,0.1,0.1,0.2,0.2,0.3c0.1,0.1,0.2,0.2,0.3,0.3c0.2,0.1,0.5,0.2,0.8,0.1
			c0.1,0,0.2-0.1,0.2-0.1C109.7,63,109.8,62.9,109.9,62.8L109.9,62.8z"/>
	</g>
	<g>
		<path class="st18" d="M93,81.8c0.2-0.7,0.4-1.3,0.5-2c0.1-0.3,0-0.5-0.1-0.8c-0.1-0.2-0.4-0.4-0.6-0.5c-0.3-0.1-0.5,0-0.8,0.1
			c-0.2,0.1-0.4,0.3-0.5,0.6c-0.2,0.7-0.4,1.3-0.5,2c-0.1,0.3,0,0.5,0.1,0.8c0.1,0.2,0.4,0.4,0.6,0.5c0.3,0.1,0.5,0,0.8-0.1
			C92.7,82.3,92.9,82.1,93,81.8L93,81.8z"/>
	</g>
	<g>
		<path class="st18" d="M93.9,72.8c0.3-0.2,0.6-0.3,0.9-0.5c-0.1,0-0.2,0.1-0.2,0.1c0.5-0.2,1-0.3,1.5-0.4c0.2,0,0.5-0.3,0.6-0.5
			c0.1-0.2,0.2-0.5,0.1-0.8c-0.1-0.2-0.2-0.5-0.5-0.6c-0.2-0.1-0.5-0.2-0.8-0.1c-0.9,0.2-1.8,0.5-2.6,1c-0.2,0.1-0.4,0.3-0.5,0.6
			c-0.1,0.2,0,0.6,0.1,0.8C92.9,72.9,93.5,73.1,93.9,72.8L93.9,72.8z"/>
	</g>
	<g>
		<path class="st18" d="M102.7,68.7c0.2,0,0.4,0,0.5,0c0.1,0,0.3,0,0.4-0.1c0.1,0,0.2-0.1,0.3-0.2c0.1-0.1,0.2-0.2,0.2-0.3
			c0.1-0.1,0.1-0.2,0.1-0.4c0-0.1,0-0.2,0-0.3c0-0.2-0.1-0.3-0.3-0.4c-0.1-0.1-0.1-0.1-0.2-0.2c-0.2-0.1-0.3-0.1-0.5-0.1
			c-0.2,0-0.4,0-0.5,0c-0.1,0-0.3,0-0.4,0.1c-0.1,0-0.2,0.1-0.3,0.2c-0.1,0.1-0.2,0.2-0.2,0.3c-0.1,0.1-0.1,0.2-0.1,0.4
			c0,0.1,0,0.2,0,0.3c0,0.2,0.1,0.3,0.3,0.4c0.1,0.1,0.1,0.1,0.2,0.2C102.4,68.7,102.5,68.7,102.7,68.7L102.7,68.7z"/>
	</g>
	<g>
		<path class="st18" d="M105.1,88.3c0.4,0.4,0.9,0.7,1.3,1.1c0.1,0.1,0.2,0.2,0.3,0.2c0.1,0.1,0.2,0.1,0.4,0.1c0.1,0,0.3,0,0.4-0.1
			c0.1,0,0.2-0.1,0.3-0.2c0.2-0.2,0.3-0.4,0.3-0.7c0-0.2-0.1-0.5-0.3-0.7c-0.4-0.4-0.9-0.7-1.3-1.1c-0.1-0.1-0.2-0.2-0.3-0.2
			c-0.1-0.1-0.2-0.1-0.4-0.1c-0.1,0-0.3,0-0.4,0.1c-0.1,0-0.2,0.1-0.3,0.2c-0.2,0.2-0.3,0.4-0.3,0.7
			C104.8,87.8,104.9,88.1,105.1,88.3L105.1,88.3z"/>
	</g>
	<g>
		<path class="st18" d="M111,100c0.9,0.2,1.8,0.3,2.6,0.2c0.3,0,0.5-0.1,0.7-0.3c0.2-0.2,0.3-0.5,0.3-0.7c0-0.3-0.1-0.5-0.3-0.7
			c-0.2-0.2-0.4-0.3-0.7-0.3c-0.6,0-1.1,0-1.7,0c0.1,0,0.2,0,0.3,0c-0.2,0-0.5-0.1-0.7-0.1c-0.3-0.1-0.5,0-0.8,0.1
			c-0.2,0.1-0.4,0.4-0.5,0.6c-0.1,0.3,0,0.5,0.1,0.8C110.5,99.7,110.8,99.9,111,100L111,100z"/>
	</g>
	<g>
		<path class="st18" d="M122.2,104.1c0.2-0.3,0.4-0.6,0.7-0.9c0,0,0.1-0.1,0.1-0.1c0.1-0.1,0,0,0,0c0.1-0.1,0.1-0.2,0.2-0.2
			c0.1-0.1,0.2-0.3,0.3-0.4c0.5-0.6,1-1.1,1.5-1.7c0.4-0.4,0.4-1,0-1.4c-0.4-0.4-1-0.4-1.4,0c-1.1,1.2-2.1,2.4-3,3.7
			c-0.1,0.2-0.2,0.5-0.1,0.8c0.1,0.2,0.2,0.5,0.5,0.6C121.3,104.7,121.8,104.5,122.2,104.1L122.2,104.1z"/>
	</g>
	<g>
		<path class="st18" d="M128.1,89.2c1-0.3,2.1-0.7,3.1-1c0.5-0.2,0.9-0.7,0.7-1.2c-0.2-0.5-0.7-0.9-1.2-0.7c-1,0.3-2.1,0.7-3.1,1
			c-0.5,0.2-0.9,0.7-0.7,1.2C127,89,127.5,89.4,128.1,89.2L128.1,89.2z"/>
	</g>
	<g>
		<path class="st18" d="M144.3,87.1c0.5,0.1,1,0.3,1.4,0.4c0.3,0.1,0.5,0,0.8-0.1c0.2-0.1,0.4-0.4,0.5-0.6c0.1-0.3,0-0.5-0.1-0.8
			c-0.1-0.2-0.3-0.4-0.6-0.5c-0.5-0.1-1-0.3-1.4-0.4c-0.2-0.1-0.5,0-0.8,0.1c-0.2,0.1-0.4,0.4-0.5,0.6c-0.1,0.3,0,0.5,0.1,0.8
			C143.8,86.8,144,87,144.3,87.1L144.3,87.1z"/>
	</g>
	<g>
		<path class="st18" d="M151.7,92.7c0.1,0.6,0.1,1.2,0.2,1.8c0,0.1,0,0.3,0.1,0.4c0,0.1,0.1,0.2,0.2,0.3c0.2,0.2,0.5,0.3,0.7,0.3
			c0.3,0,0.5-0.1,0.7-0.3c0.2-0.2,0.3-0.4,0.3-0.7c-0.1-0.6-0.1-1.2-0.2-1.8c0-0.1,0-0.3-0.1-0.4c0-0.1-0.1-0.2-0.2-0.3
			c-0.2-0.2-0.5-0.3-0.7-0.3c-0.3,0-0.5,0.1-0.7,0.3C151.9,92.1,151.7,92.4,151.7,92.7L151.7,92.7z"/>
	</g>
	<g>
		<path class="st18" d="M147.7,105.9c0.3,0.4,0.6,0.8,0.9,1.2c0.1,0.1,0.1,0.2,0.3,0.3c0.1,0.1,0.2,0.1,0.3,0.2c0.1,0,0.3,0,0.4,0
			c0.1,0,0.3,0,0.4-0.1c0.2-0.1,0.4-0.3,0.5-0.6c0-0.1,0-0.2,0-0.3c0-0.2,0-0.3-0.1-0.5c-0.3-0.4-0.6-0.8-0.9-1.2
			c-0.1-0.1-0.1-0.2-0.3-0.3c-0.1-0.1-0.2-0.1-0.3-0.2c-0.1,0-0.3,0-0.4,0c-0.1,0-0.3,0-0.4,0.1c-0.2,0.1-0.4,0.3-0.5,0.6
			c0,0.1,0,0.2,0,0.3C147.5,105.6,147.6,105.7,147.7,105.9L147.7,105.9z"/>
	</g>
	<g>
		<path class="st18" d="M154.8,113.1c1-0.2,2.1-0.4,3.1-0.5c0.2,0,0.5-0.3,0.6-0.5c0.1-0.2,0.2-0.5,0.1-0.8
			c-0.1-0.2-0.2-0.5-0.5-0.6c-0.2-0.1-0.5-0.1-0.8-0.1c-1,0.2-2.1,0.4-3.1,0.5c-0.2,0-0.5,0.3-0.6,0.5c-0.1,0.2-0.2,0.5-0.1,0.8
			c0.1,0.2,0.2,0.5,0.5,0.6C154.3,113.1,154.5,113.1,154.8,113.1L154.8,113.1z"/>
	</g>
	<g>
		<path class="st18" d="M159.6,92c0.9-0.5,1.7-1.2,2.4-2c0.2-0.2,0.3-0.4,0.3-0.7c0-0.2-0.1-0.5-0.3-0.7c-0.2-0.2-0.4-0.3-0.7-0.3
			c-0.2,0-0.5,0.1-0.7,0.3c-0.4,0.4-0.8,0.8-1.2,1.1c0.1-0.1,0.1-0.1,0.2-0.2c-0.3,0.2-0.7,0.5-1,0.7c-0.2,0.1-0.4,0.4-0.5,0.6
			c-0.1,0.2,0,0.6,0.1,0.8C158.5,92.2,159.1,92.3,159.6,92L159.6,92z"/>
	</g>
	<g>
		<path class="st18" d="M164.7,78.1c0.6-0.7,1.2-1.5,1.8-2.2c0.2-0.2,0.3-0.4,0.3-0.7c0-0.2-0.1-0.5-0.3-0.7
			c-0.2-0.2-0.4-0.3-0.7-0.3c-0.2,0-0.5,0.1-0.7,0.3c-0.6,0.7-1.2,1.5-1.8,2.2c-0.2,0.2-0.3,0.4-0.3,0.7c0,0.2,0.1,0.5,0.3,0.7
			c0.2,0.2,0.4,0.3,0.7,0.3C164.2,78.3,164.5,78.3,164.7,78.1L164.7,78.1z"/>
	</g>
	<g>
		<path class="st18" d="M152.5,71.1c0.4-0.7,0.7-1.3,1.1-2c0.1-0.2,0.2-0.5,0.1-0.8c-0.1-0.2-0.2-0.5-0.5-0.6
			c-0.2-0.1-0.5-0.2-0.8-0.1c-0.2,0.1-0.5,0.2-0.6,0.5c-0.4,0.7-0.7,1.3-1.1,2c-0.1,0.2-0.2,0.5-0.1,0.8c0.1,0.2,0.2,0.5,0.5,0.6
			c0.2,0.1,0.5,0.2,0.8,0.1C152.1,71.5,152.3,71.4,152.5,71.1L152.5,71.1z"/>
	</g>
	<g>
		<path class="st18" d="M157,62c0.2,0.1,0.5,0.1,0.7,0.2c0.1,0,0.3,0,0.4,0c0.1,0,0.3,0,0.4-0.1c0.1-0.1,0.2-0.1,0.3-0.3
			c0.1-0.1,0.1-0.2,0.2-0.3c0-0.1,0-0.2,0-0.3c0-0.2,0-0.3-0.1-0.5c-0.1-0.1-0.1-0.1-0.2-0.2c-0.1-0.1-0.3-0.2-0.4-0.3
			c-0.2-0.1-0.5-0.1-0.7-0.2c-0.1,0-0.3,0-0.4,0c-0.1,0-0.3,0-0.4,0.1c-0.1,0.1-0.2,0.1-0.3,0.3c-0.1,0.1-0.1,0.2-0.2,0.3
			c0,0.1,0,0.2,0,0.3c0,0.2,0,0.3,0.1,0.5c0.1,0.1,0.1,0.1,0.2,0.2C156.7,61.8,156.8,61.9,157,62L157,62z"/>
	</g>
	<g>
		<path class="st18" d="M170.5,67.1c0.7-0.1,1.3-0.3,2-0.4c0.2-0.1,0.5-0.3,0.6-0.5c0.1-0.2,0.2-0.5,0.1-0.8
			c-0.1-0.2-0.2-0.5-0.5-0.6c-0.2-0.1-0.5-0.2-0.8-0.1c-0.7,0.1-1.3,0.3-2,0.4c-0.2,0.1-0.5,0.3-0.6,0.5c-0.1,0.2-0.2,0.5-0.1,0.8
			c0.1,0.2,0.2,0.5,0.5,0.6C169.9,67.1,170.2,67.2,170.5,67.1L170.5,67.1z"/>
	</g>
	<g>
		<path class="st18" d="M154.7,48.5c0.8-0.9,1.6-1.7,2.4-2.6c0.2-0.2,0.3-0.4,0.3-0.7c0-0.2-0.1-0.5-0.3-0.7c-0.4-0.4-1-0.4-1.4,0
			c-0.8,0.9-1.6,1.7-2.4,2.6c-0.2,0.2-0.3,0.4-0.3,0.7c0,0.2,0.1,0.5,0.3,0.7C153.7,48.8,154.3,48.9,154.7,48.5L154.7,48.5z"/>
	</g>
	<g>
		<path class="st18" d="M143.2,55.2c0.1,0,0.3,0,0.4,0.1c0.1,0,0.1,0,0.2,0c0.1,0,0.1,0,0.2,0c0.1,0,0.3,0,0.4-0.1
			c0.4-0.1,0.7-0.3,1-0.6c0.1-0.1,0.2-0.2,0.2-0.3c0.1-0.1,0.1-0.2,0.1-0.4c0-0.1,0-0.3-0.1-0.4c0-0.1-0.1-0.2-0.2-0.3
			c-0.2-0.2-0.4-0.3-0.7-0.3c-0.1,0-0.2,0-0.3,0c-0.2,0-0.3,0.1-0.4,0.3c0,0-0.1,0-0.1,0.1c0.1-0.1,0.1-0.1,0.2-0.2
			c-0.1,0.1-0.2,0.1-0.3,0.2c0.1,0,0.2-0.1,0.2-0.1c-0.1,0-0.2,0.1-0.4,0.1c0.1,0,0.2,0,0.3,0c-0.1,0-0.3,0-0.4,0c0.1,0,0.2,0,0.3,0
			c-0.1,0-0.1,0-0.2,0c-0.3-0.1-0.5,0-0.8,0.1c-0.1,0.1-0.2,0.1-0.3,0.3c-0.1,0.1-0.1,0.2-0.2,0.3c-0.1,0.3,0,0.5,0.1,0.8
			C142.7,55,142.9,55.2,143.2,55.2L143.2,55.2z"/>
	</g>
	<g>
		<path class="st18" d="M136.5,34.4c0.4-0.2,0.7-0.5,1.1-0.7c0.2-0.1,0.4-0.3,0.5-0.6c0-0.1,0-0.3,0-0.4c0-0.1,0-0.3-0.1-0.4
			c-0.1-0.2-0.3-0.4-0.6-0.5c-0.1,0-0.2,0-0.3,0c-0.2,0-0.3,0-0.5,0.1c-0.4,0.2-0.7,0.5-1.1,0.7c-0.2,0.1-0.4,0.3-0.5,0.6
			c0,0.1,0,0.3,0,0.4c0,0.1,0,0.3,0.1,0.4c0.1,0.2,0.3,0.4,0.6,0.5c0.1,0,0.2,0,0.3,0C136.2,34.6,136.4,34.5,136.5,34.4L136.5,34.4z
			"/>
	</g>
	<g>
		<path class="st18" d="M115.4,33.8c0.9-0.4,1.8-0.8,2.7-1.3c0.2-0.1,0.4-0.4,0.5-0.6c0.1-0.2,0-0.6-0.1-0.8
			c-0.1-0.2-0.3-0.4-0.6-0.5c-0.3-0.1-0.5,0-0.8,0.1c-0.9,0.4-1.8,0.8-2.7,1.3c-0.2,0.1-0.4,0.4-0.5,0.6c-0.1,0.2,0,0.6,0.1,0.8
			c0.1,0.2,0.3,0.4,0.6,0.5C114.9,34,115.1,33.9,115.4,33.8L115.4,33.8z"/>
	</g>
	<g>
		<path class="st18" d="M102.2,51.7c0.3,0.3,0.6,0.6,0.9,0.9c0.1,0.1,0.2,0.2,0.3,0.2c0.1,0.1,0.2,0.1,0.4,0.1c0.1,0,0.3,0,0.4-0.1
			c0.1,0,0.2-0.1,0.3-0.2c0.1-0.1,0.1-0.1,0.2-0.2c0.1-0.2,0.1-0.3,0.1-0.5c0-0.1,0-0.2,0-0.3c0-0.2-0.1-0.3-0.3-0.4
			c-0.3-0.3-0.6-0.6-0.9-0.9c-0.1-0.1-0.2-0.2-0.3-0.2c-0.1-0.1-0.2-0.1-0.4-0.1c-0.1,0-0.3,0-0.4,0.1c-0.1,0-0.2,0.1-0.3,0.2
			c-0.1,0.1-0.1,0.1-0.2,0.2c-0.1,0.2-0.1,0.3-0.1,0.5c0,0.1,0,0.2,0,0.3C102,51.4,102.1,51.6,102.2,51.7L102.2,51.7z"/>
	</g>
	<g>
		<path class="st18" d="M85.3,65.6c0.2,0.2,0.3,0.4,0.5,0.6c-0.1-0.1-0.1-0.1-0.2-0.2c0.2,0.3,0.5,0.7,0.7,1
			c0.1,0.2,0.4,0.4,0.6,0.5c0.2,0.1,0.6,0,0.8-0.1c0.2-0.1,0.4-0.3,0.5-0.6c0.1-0.3,0-0.5-0.1-0.8c-0.4-0.7-0.8-1.3-1.3-1.8
			c-0.2-0.2-0.5-0.3-0.7-0.3c-0.2,0-0.5,0.1-0.7,0.3c-0.2,0.2-0.3,0.4-0.3,0.7C85,65.1,85.1,65.4,85.3,65.6L85.3,65.6z"/>
	</g>
	<g>
		<path class="st18" d="M90.7,95.4c0.5,0.1,1,0.1,1.5,0.2c0.1,0,0.3,0,0.4-0.1c0.1,0,0.2-0.1,0.3-0.2c0.2-0.2,0.3-0.5,0.3-0.7
			c0-0.3-0.1-0.5-0.3-0.7c-0.1-0.1-0.1-0.1-0.2-0.2c-0.2-0.1-0.3-0.1-0.5-0.1c-0.5-0.1-1-0.1-1.5-0.2c-0.1,0-0.3,0-0.4,0.1
			c-0.1,0-0.2,0.1-0.3,0.2c-0.2,0.2-0.3,0.5-0.3,0.7c0,0.3,0.1,0.5,0.3,0.7c0.1,0.1,0.1,0.1,0.2,0.2C90.4,95.4,90.5,95.4,90.7,95.4
			L90.7,95.4z"/>
	</g>
</g>
</svg>
