<?xml version="1.0" encoding="utf-8"?>
<!-- Generator: Adobe Illustrator 27.3.1, SVG Export Plug-In . SVG Version: 6.00 Build 0)  -->
<svg version="1.1" id="Layer_1" xmlns="http://www.w3.org/2000/svg" xmlns:xlink="http://www.w3.org/1999/xlink" x="0px" y="0px"
	 viewBox="0 0 256 149.4" style="enable-background:new 0 0 256 149.4;" xml:space="preserve">
<style type="text/css">
	.st0{fill:#FFEBD7;}
	.st1{opacity:0.67;fill:#FFFFFF;}
	.st2{fill:#F2DFCE;}
	.st3{fill:#BC4831;}
	.st4{fill:#A53D2D;}
	.st5{fill:#CEAC4E;}
	.st6{fill:#FFD95F;}
	.st7{fill:#E5BD5A;}
	.st8{fill:#B59647;}
	.st9{fill:#628453;}
	.st10{fill:#59754B;}
	.st11{opacity:8.000000e-02;fill:#FFFFFF;}
	.st12{fill:#80A86C;}
	.st13{fill:#779964;}
	.st14{opacity:0.18;fill:#FFFFFF;}
	.st15{fill:#FFFFE9;}
</style>
<g>
	<g>
		
			<ellipse transform="matrix(0.1306 -0.9914 0.9914 0.1306 37.2492 191.8273)" class="st0" cx="128" cy="74.7" rx="74.5" ry="74.5"/>
		<path class="st1" d="M59,74.5c0-38.2,31.6-69.2,70.7-69.2c13.4,0,25.9,3.6,36.5,10C155,8,141.6,3.7,127.1,3.7
			c-39,0-70.7,31-70.7,69.2c0,25.1,13.7,47.1,34.1,59.2C71.5,119.7,59,98.5,59,74.5z"/>
		<path class="st2" d="M169.3,12.6C186.8,26.3,198,47.5,198,71.4c0,41.2-33.4,74.5-74.5,74.5c-15.3,0-29.5-4.6-41.3-12.5
			c12.6,9.9,28.5,15.7,45.8,15.7c41.2,0,74.5-33.4,74.5-74.5C202.5,48.8,189.3,26,169.3,12.6z"/>
	</g>
	<path class="st3" d="M105.9,40.5c-3.3,1.8-7.6-0.1-10.8,1.6c-2.7,1.4-3.9,4.7-6.7,5.8c-1,0.4-2.2,0.5-3.1,1
		c-2.7,1.6-1.9,5.7-0.6,8.6c1.3,2.9,2.7,6.6,0.5,8.8c-1.6,1.6-4.1,1.4-6.3,1.1c-2.9-0.4-6-0.9-8.8,0.2c-2.8,1.1-5,4.3-3.8,7
		c1.2,2.7,4.6,3.3,7.2,4.5c4.2,2,7.1,6.5,7.2,11.2c0,1.4-0.2,3,0.5,4.2c1.4,2.5,5.8,3.1,5.5,6c-0.1,1-1,1.9-1.2,2.9
		c-0.7,2.7,2.6,4.5,5.3,5c2.7,0.5,6.1,1.2,6.7,3.9c0.2,0.8,0,1.7-0.1,2.5c-0.5,4.9,1,10,4.2,13.8c1.9,2.3,4.6,4.2,7.6,4.6
		c3,0.4,6.3-0.9,7.7-3.5c0.7-1.3,0.9-2.8,1.6-4.1c1.8-3.6,6.9-5,10.3-2.8c1.2,0.8,2.2,2,3.3,2.9c4.2,3.4,10.1,3.2,15.5,2.8
		c1.9-0.2,4.1-0.4,5.3-1.9c2.3-2.9-0.6-8.2,2.2-10.5c2.9-2.4,6.9,1.5,10.6,1.2c3.7-0.3,5.6-4.7,5.2-8.4c-0.3-3.7-2.1-7-2.6-10.7
		c-0.5-4.4,1-8.9,4.1-12.1c3.7-3.7,8.9-5.2,13.6-7.5c1.3-0.6,2.6-1.4,3.3-2.7c1.4-2.4-0.2-5.6-2.5-7.2c-2.3-1.6-5.2-2.1-7.8-3.1
		c-2.6-1-5.2-2.9-5.7-5.6c-0.6-3.6,2.4-7.9,0-10.6c-2.1-2.4-6.8-1-8.9-3.5c-2.4-2.7,0.5-7.5-1.6-10.4c-1.5-2.1-4.8-2-6.6-3.9
		c-1.6-1.6-1.5-4.3-2.8-6.1c-1.6-2.3-4.9-2.7-7.6-2.2c-2.7,0.6-5.2,1.9-7.9,2.6c-6.8,1.7-14.7-1.7-21.3,0.6
		C109.9,28.7,111.4,37.6,105.9,40.5z"/>
	<path class="st4" d="M110.6,44.4c-2.3,2.1-0.4,5.8,0.4,8.9c1.5,5.9-2.8,12.6-8.8,13.7c-3.4,0.6-6.9-0.4-10.2,0.4
		c-3.9,0.8-7.1,4.2-7.8,8c-0.7,3.9,1.1,8.1,4.4,10.3c2.7,1.8,6.3,2.3,8.7,4.5c2.4,2.3,3.1,5.8,4,9c0.9,3.2,2.7,6.6,5.9,7.5
		c4.4,1.2,8.4-3.6,9.2-8.1c0.7-4.5-0.4-9.2,0.4-13.8c0.8-4.5,4.9-9.2,9.3-7.9c4.1,1.2,5.3,6.6,4.6,10.8c-0.7,4.2-2.5,8.5-1.5,12.7
		c1,4.1,4.7,7.3,8.8,7.9c4.1,0.7,8.5-1,11.4-4.1c1.4-1.5,2.4-3.2,3.7-4.7c1.8-2.1,4.2-3.8,5.2-6.4c1.3-3.4-0.3-7.1-1.3-10.6
		s-1.2-7.9,1.7-10c1.9-1.4,4.6-1.3,6.5-2.6c2.8-1.9,3-6.3,1.3-9.2c-1.8-2.9-4.9-4.7-8-6.2c-3.3-1.6-6.8-2.9-10.3-4
		c-1.9-0.6-4-1.2-5.1-2.9c-2.7-4.1,2.3-9.3-0.2-13.3c-2.2-3.6-11.6-4-15.6-5c-3.9-0.9-7.3-1.8-10.5,1.3
		C112.5,34.6,114.9,40.4,110.6,44.4z"/>
	<path class="st5" d="M126.7,55L97.5,39.7c0,0-3.6-1-7.7,0.6c-5,2-2.7,4.5-2.7,4.5l29.5,15.7c0.4,0.2,0.9,0.2,1.4,0.2
		c2.9-0.4,5.7-1.4,8.2-3C127.4,56.9,128,55.4,126.7,55z"/>
	<path class="st5" d="M121,97.2l-32.4,5.8c0,0-3.5,1.4-5.7,5.2c-2.7,4.7,0.6,5.2,0.6,5.2l32.9-5.6c0.4,0,0.9-0.4,1.2-0.7
		c2.1-2.1,3.7-4.6,4.7-7.4C122.7,98.3,122.3,96.7,121,97.2z"/>
	<path class="st5" d="M139.6,19.1l-32.1,7.3c0,0-3.4,1.5-5.4,5.4c-2.5,4.8,0.8,5.2,0.8,5.2l32.6-7.2c0.4-0.1,0.9-0.4,1.2-0.8
		c2-2.2,3.5-4.8,4.3-7.6C141.4,20.2,140.9,18.6,139.6,19.1z"/>
	<path class="st5" d="M113.2,84l-21-25.3c0,0-2.9-2.3-7.3-2.4c-5.4-0.1-4.2,3.1-4.2,3.1l21.1,25.9c0.3,0.4,0.8,0.6,1.2,0.7
		c2.8,0.8,5.8,0.9,8.7,0.4C113.1,86.1,114.3,85,113.2,84z"/>
	<path class="st5" d="M114.3,64.7L88.7,85.4c0,0-2.4,2.9-2.5,7.3c-0.2,5.4,3,4.3,3,4.3l26.1-20.8c0.4-0.2,0.6-0.8,0.7-1.2
		c0.8-2.8,1-5.8,0.5-8.7C116.4,64.8,115.2,63.6,114.3,64.7z"/>
	<path class="st5" d="M167,107.4l-27.7-17.8c0,0-3.5-1.3-7.7-0.1c-5.2,1.5-3.1,4.2-3.1,4.2l28,18.3c0.4,0.3,0.9,0.3,1.4,0.3
		c2.9-0.1,5.8-0.9,8.4-2.3C167.5,109.4,168.3,107.9,167,107.4z"/>
	<path class="st5" d="M183.8,81.4l-27.7-17.8c0,0-3.5-1.3-7.7-0.1c-5.2,1.5-3.1,4.2-3.1,4.2l28,18.3c0.4,0.3,0.9,0.3,1.4,0.3
		c2.9-0.1,5.8-0.9,8.4-2.3C184.3,83.4,185.1,82,183.8,81.4z"/>
	<path class="st5" d="M176.1,65.8l-16.7-28.4c0,0-2.5-2.8-6.8-3.5c-5.3-0.9-4.7,2.4-4.7,2.4l16.7,28.9c0.2,0.4,0.7,0.7,1.1,0.9
		c2.7,1.2,5.6,1.9,8.6,1.8C175.7,67.9,177.1,66.9,176.1,65.8z"/>
	<path class="st5" d="M153.4,82.9l-16.7-28.4c0,0-2.5-2.8-6.8-3.5c-5.3-0.9-4.7,2.4-4.7,2.4l16.7,28.9c0.2,0.4,0.7,0.7,1.1,0.9
		c2.7,1.2,5.6,1.9,8.6,1.8C152.9,84.9,154.3,84,153.4,82.9z"/>
	<path class="st5" d="M137,126.4l-16.7-28.4c0,0-2.5-2.8-6.8-3.5c-5.3-0.9-4.7,2.4-4.7,2.4l16.7,28.9c0.2,0.4,0.7,0.7,1.1,0.9
		c2.7,1.2,5.6,1.9,8.6,1.8C136.5,128.4,137.9,127.5,137,126.4z"/>
	<g>
		<path class="st6" d="M118.8,48.8L88.5,62.9c0,0-3.4,0.4-1.9-4.8c1.1-4.2,4.1-6.5,4.1-6.5l30-14.3L118.8,48.8z"/>
		<g>
			<path class="st7" d="M88.6,61.5c1.6-1.3,3.4-2.3,5.3-3.2c2-1,4-1.9,6-2.8c2-0.9,4-1.8,6.1-2.5c1-0.3,2-0.6,3-1
				c1-0.4,2-0.9,2.9-1.4c1-0.6,2.1-1.2,3.2-1.8c1.1-0.6,2.3-1,3.4-1.4c0.4-0.1,0.2-0.8-0.2-0.7c-2.1,0.7-4.1,1.7-6,2.8
				c-0.9,0.6-1.9,1.1-2.9,1.6c-1,0.4-2.1,0.8-3.1,1.1c-1,0.3-2.1,0.7-3.1,1.1c-1,0.4-2.1,0.9-3.1,1.3c-2,0.9-4.1,1.9-6.1,2.8
				c-2.1,1-4.2,2.1-6,3.6C87.8,61.3,88.3,61.8,88.6,61.5L88.6,61.5z"/>
		</g>
		<g>
			<path class="st7" d="M91.8,57.1c1.9-0.7,3.9-1.5,5.8-2.3c1.9-0.8,3.7-1.8,5.6-2.8c1.7-1,3.4-1.8,5.3-2.6c1.8-0.7,3.6-1.3,5.3-2
				c2-0.8,3.9-1.6,5.7-2.8c0.4-0.2,0-0.8-0.4-0.6c-3.2,2-6.8,3.2-10.3,4.5c-1.8,0.7-3.5,1.5-5.2,2.4c-0.9,0.5-1.8,1.1-2.7,1.6
				c-0.9,0.5-1.8,0.9-2.7,1.3c-2.1,1-4.3,1.8-6.5,2.6C91.2,56.6,91.4,57.3,91.8,57.1L91.8,57.1z"/>
		</g>
		<g>
			<path class="st7" d="M104.2,46.1c2.2-0.6,4.4-1.5,6.6-2.4c1.1-0.5,2.1-1,3.2-1.6c1-0.5,2-1.1,2.9-1.7c1.1-0.6,2.2-1.2,3.4-1.3
				c0.2,0,0.3-0.1,0.3-0.3c0-0.2-0.2-0.4-0.3-0.3c-2.3,0.3-4.1,1.7-6.1,2.8c-2,1.1-4.2,2.1-6.4,3c-1.3,0.5-2.5,0.9-3.8,1.3
				C103.6,45.5,103.7,46.2,104.2,46.1L104.2,46.1z"/>
		</g>
		<path class="st5" d="M117.4,41.9c-0.6,1.8-0.5,3.8-0.1,5.6c0.1,0.5,0.4,1.2,1,1.3c0.6,0.1,1.1-0.5,1.5-1.1
			c1.5-2.5,2.3-5.4,2.5-8.4c0.1-1.5-0.9-3.1-2.3-1.7C118.9,39,117.9,40.2,117.4,41.9z"/>
		<path class="st8" d="M117.4,47.8c0.2-0.2,0.3-0.4,0.4-0.6c1.5-2.5,2.3-5.4,2.5-8.4c0-0.4,0-0.8-0.2-1.2c0,0-0.1,0.1-0.1,0.1
			c-1.1,1.3-2.1,2.5-2.6,4.2c-0.6,1.8-0.5,3.8-0.1,5.6C117.3,47.6,117.4,47.7,117.4,47.8z"/>
	</g>
	<g>
		<path class="st6" d="M119.1,81.6L142,57.3c0,0,3-1.6,3.6,3.8c0.5,4.4-1.4,7.6-1.4,7.6L121.7,93L119.1,81.6z"/>
		<g>
			<path class="st7" d="M142.4,58.6c-1,1.8-2.4,3.5-3.8,5c-1.5,1.7-3.1,3.3-4.6,4.9c-1.5,1.6-3.1,3.2-4.8,4.6
				c-0.8,0.7-1.6,1.3-2.4,2c-0.8,0.8-1.5,1.6-2.2,2.5c-0.7,1-1.5,1.9-2.3,2.8c-0.8,0.9-1.7,1.7-2.6,2.5c-0.3,0.3,0.2,0.8,0.5,0.5
				c1.6-1.4,3.1-3,4.4-4.8c0.7-0.9,1.3-1.7,2.1-2.5c0.7-0.8,1.6-1.4,2.4-2.1c0.8-0.7,1.7-1.4,2.5-2.1c0.8-0.8,1.6-1.6,2.4-2.4
				c1.6-1.6,3.1-3.3,4.7-5c1.6-1.7,3.2-3.5,4.3-5.6C143.2,58.5,142.6,58.2,142.4,58.6L142.4,58.6z"/>
		</g>
		<g>
			<path class="st7" d="M141,63.9c-1.5,1.4-3.1,2.8-4.5,4.3c-1.5,1.5-2.8,3.1-4.1,4.7c-1.2,1.5-2.5,3-3.9,4.3
				c-1.4,1.3-2.8,2.5-4.2,3.8c-1.5,1.4-3,3-4.2,4.7c-0.3,0.4,0.3,0.7,0.6,0.4c2.2-3,5.1-5.4,7.8-7.9c1.4-1.3,2.8-2.7,4-4.2
				c0.7-0.8,1.3-1.7,2-2.5c0.7-0.8,1.4-1.6,2.1-2.3c1.6-1.7,3.3-3.3,5-4.8C141.8,64.1,141.3,63.6,141,63.9L141,63.9z"/>
		</g>
		<g>
			<path class="st7" d="M133.6,78.7c-1.9,1.5-3.6,3-5.3,4.8c-0.8,0.9-1.6,1.7-2.4,2.7c-0.7,0.9-1.4,1.8-2.1,2.7
				c-0.7,0.9-1.6,1.8-2.6,2.4c-0.4,0.2,0,0.8,0.4,0.6c2-1.1,3.1-3.1,4.5-4.8c1.5-1.8,3.1-3.6,4.8-5.2c1-0.9,2-1.8,3.1-2.6
				c0.1-0.1,0.1-0.4,0-0.5C134,78.6,133.8,78.6,133.6,78.7L133.6,78.7z"/>
		</g>
		<path class="st5" d="M123,87.5c-0.2-1.9-0.9-3.7-2-5.2c-0.3-0.5-0.8-0.9-1.4-0.8c-0.6,0.1-0.9,0.9-1,1.5c-0.4,2.9-0.2,5.9,0.8,8.7
			c0.5,1.4,2,2.5,2.7,0.7C122.7,90.8,123.1,89.2,123,87.5z"/>
		<path class="st8" d="M120.8,82c-0.1,0.2-0.1,0.4-0.2,0.7c-0.4,2.9-0.2,5.9,0.8,8.7c0.1,0.4,0.3,0.8,0.6,1c0-0.1,0-0.1,0.1-0.2
			c0.6-1.6,1-3.1,0.9-4.8c-0.2-1.9-0.9-3.7-2-5.2C120.9,82.1,120.8,82.1,120.8,82z"/>
	</g>
	<g>
		<path class="st6" d="M138.3,117.8l4.3-33.1c0,0,1.5-3,5.1,1c3,3.2,3.3,7,3.3,7l-4.1,32.9L138.3,117.8z"/>
		<g>
			<path class="st7" d="M143.7,85.5c0.3,2.2,0.1,4.3-0.2,6.5c-0.3,2.2-0.6,4.3-0.9,6.5c-0.3,2.2-0.6,4.3-1.2,6.4
				c-0.3,1-0.6,2-0.8,3.1c-0.2,1.1-0.3,2.1-0.3,3.2c0,1.2-0.1,2.4-0.2,3.6c-0.1,1.2-0.4,2.4-0.6,3.6c-0.1,0.4,0.6,0.6,0.7,0.2
				c0.5-2.1,0.8-4.3,0.8-6.4c0-1.1,0-2.2,0.2-3.3c0.2-1,0.4-2.1,0.7-3.1c0.3-1,0.6-2.1,0.8-3.2c0.2-1.1,0.4-2.1,0.5-3.2
				c0.3-2.2,0.6-4.4,0.9-6.5c0.3-2.4,0.6-4.9,0.3-7.4c0-0.2-0.1-0.3-0.3-0.3C143.9,85.1,143.7,85.3,143.7,85.5L143.7,85.5z"/>
		</g>
		<g>
			<path class="st7" d="M145.7,90.6c-0.4,2-0.8,3.9-1.1,5.9c-0.3,2-0.5,4-0.6,6.1c-0.1,2-0.3,3.9-0.6,5.8c-0.4,1.9-0.8,3.8-1.2,5.7
				c-0.4,2.1-0.7,4.3-0.7,6.4c0,0.4,0.7,0.4,0.7,0c0-3.9,1-7.6,1.8-11.4c0.4-1.9,0.6-3.8,0.7-5.7c0.1-2,0.2-4,0.5-6
				c0.3-2.3,0.8-4.5,1.3-6.7C146.5,90.3,145.8,90.1,145.7,90.6L145.7,90.6z"/>
		</g>
		<g>
			<path class="st7" d="M148.4,106.9c-0.7,2.3-1.2,4.6-1.5,6.9c-0.2,1.2-0.3,2.3-0.4,3.5c-0.1,1.1-0.1,2.3-0.1,3.4
				c-0.1,1.2-0.2,2.4-0.7,3.5c-0.2,0.4,0.4,0.8,0.6,0.4c1-2,0.8-4.3,0.9-6.5c0.1-2.4,0.4-4.8,0.9-7.1c0.3-1.3,0.6-2.6,1-3.9
				C149.2,106.7,148.5,106.5,148.4,106.9L148.4,106.9z"/>
		</g>
		<path class="st5" d="M144.8,120.3c-1.2-1.4-2.9-2.5-4.7-3.1c-0.5-0.2-1.2-0.3-1.6,0.1c-0.4,0.5-0.2,1.2,0.1,1.8
			c1.4,2.6,3.3,4.9,5.7,6.6c1.2,0.9,3.1,0.9,2.6-1C146.5,123.2,145.9,121.6,144.8,120.3z"/>
		<path class="st8" d="M139.9,117.2c0.1,0.2,0.2,0.4,0.3,0.6c1.4,2.6,3.3,4.9,5.7,6.6c0.3,0.2,0.7,0.4,1.1,0.5c0-0.1,0-0.1,0-0.2
			c-0.4-1.6-1-3.1-2.1-4.5c-1.2-1.4-2.9-2.5-4.7-3.1C140,117.2,139.9,117.2,139.9,117.2z"/>
	</g>
	<g>
		<path class="st6" d="M152.7,60l-30.1-14.4c0,0-2.4-2.4,2.5-4.6c4-1.8,7.6-0.9,7.6-0.9l30,14.1L152.7,60z"/>
		<g>
			<path class="st7" d="M123.7,44.9c2.1,0.4,4.1,1.2,6,2.1c2,1,4,2,6.1,2.9c2,1,3.9,2,5.7,3.2c0.9,0.6,1.8,1.2,2.7,1.7
				c0.9,0.5,1.9,0.9,2.9,1.3c1.1,0.4,2.3,0.8,3.4,1.3c1.1,0.5,2.2,1.1,3.2,1.7c0.4,0.2,0.7-0.4,0.4-0.6c-1.8-1.1-3.8-2-5.8-2.8
				c-1-0.4-2-0.7-3-1.2c-0.9-0.5-1.8-1-2.7-1.6c-0.9-0.6-1.8-1.2-2.7-1.7c-1-0.6-2-1.1-3-1.6c-2-1-4.1-2-6.1-2.9
				c-2.2-1-4.4-2-6.8-2.5C123.4,44.1,123.2,44.8,123.7,44.9L123.7,44.9z"/>
		</g>
		<g>
			<path class="st7" d="M129.1,44.6c1.8,1,3.6,2.1,5.4,3c1.9,0.9,3.8,1.8,5.7,2.5c1.8,0.7,3.6,1.5,5.3,2.5c1.7,0.9,3.3,1.9,4.9,2.8
				c1.9,1,3.8,2,5.8,2.6c0.4,0.1,0.6-0.5,0.2-0.7c-3.6-1.2-6.7-3.2-10-5.1c-1.7-0.9-3.4-1.8-5.1-2.5c-1-0.4-2-0.7-2.9-1.1
				c-1-0.4-1.9-0.8-2.8-1.3c-2.1-1-4.1-2.2-6.1-3.3C129.1,43.7,128.7,44.3,129.1,44.6L129.1,44.6z"/>
		</g>
		<g>
			<path class="st7" d="M145.5,47.1c2,1.3,4,2.5,6.1,3.6c1.1,0.5,2.1,1,3.2,1.4c1.1,0.4,2.1,0.8,3.2,1.2c1.1,0.4,2.2,0.9,3.1,1.8
				c0.3,0.3,0.8-0.2,0.5-0.5c-1.6-1.5-3.8-2.1-5.8-2.8c-2.2-0.9-4.4-1.9-6.5-3.1c-1.2-0.7-2.3-1.4-3.5-2.2
				C145.5,46.3,145.1,46.9,145.5,47.1L145.5,47.1z"/>
		</g>
		<path class="st5" d="M157.1,54.6c-1.8,0.7-3.3,2-4.4,3.5c-0.3,0.5-0.6,1.1-0.4,1.6c0.3,0.6,1.1,0.6,1.7,0.5
			c2.9-0.5,5.7-1.6,8.1-3.4c1.2-0.9,1.8-2.7-0.2-2.8C160.3,53.9,158.7,54,157.1,54.6z"/>
		<path class="st8" d="M152.6,58.4c0.2,0,0.5,0,0.7-0.1c2.9-0.5,5.7-1.6,8.1-3.4c0.3-0.2,0.6-0.5,0.8-0.9c-0.1,0-0.1,0-0.2,0
			c-1.7-0.1-3.3,0-4.9,0.6c-1.8,0.7-3.3,2-4.4,3.5C152.6,58.2,152.6,58.3,152.6,58.4z"/>
	</g>
	<g>
		<path class="st6" d="M162.6,32.2l-32.1,9.2c0,0-3.4-0.2-1.2-5.1c1.8-4,5.1-5.8,5.1-5.8l31.8-9.4L162.6,32.2z"/>
		<g>
			<path class="st7" d="M130.8,40.1c1.8-1.1,3.7-1.7,5.7-2.3c2.1-0.6,4.2-1.2,6.3-1.8c2.1-0.6,4.3-1.2,6.5-1.5
				c1.1-0.2,2.2-0.3,3.3-0.5c1-0.2,2-0.6,3-1c1.1-0.5,2.3-0.9,3.4-1.3c1.2-0.4,2.4-0.6,3.6-0.9c0.4-0.1,0.3-0.7-0.2-0.7
				c-2.2,0.4-4.3,1-6.3,1.8c-1,0.4-2,0.8-3,1.1c-1.1,0.3-2.2,0.4-3.3,0.6c-1.1,0.2-2.2,0.3-3.3,0.6c-1.1,0.2-2.2,0.5-3.2,0.8
				c-2.1,0.6-4.3,1.2-6.4,1.8c-2.2,0.7-4.5,1.4-6.5,2.6C130.1,39.8,130.4,40.4,130.8,40.1L130.8,40.1z"/>
		</g>
		<g>
			<path class="st7" d="M134.7,36.3c2-0.4,4-0.8,6-1.3c2-0.5,3.9-1.2,5.8-1.9c1.8-0.7,3.7-1.3,5.6-1.7c1.9-0.4,3.8-0.8,5.7-1.2
				c2.1-0.5,4.2-1,6.2-1.9c0.4-0.2,0.1-0.8-0.4-0.6c-3.5,1.5-7.3,2.1-11,2.9c-1.9,0.4-3.8,0.9-5.6,1.6c-1.9,0.7-3.8,1.4-5.8,1.9
				c-2.2,0.6-4.4,1.1-6.7,1.5C134.1,35.7,134.3,36.4,134.7,36.3L134.7,36.3z"/>
		</g>
		<g>
			<path class="st7" d="M148.6,27.3c2.3-0.3,4.6-0.7,6.8-1.3c1.1-0.3,2.2-0.7,3.3-1c1.1-0.4,2.1-0.8,3.2-1.2
				c1.2-0.5,2.4-0.9,3.7-0.8c0.4,0,0.4-0.7,0-0.7c-2.3-0.1-4.4,1.1-6.5,1.9c-2.2,0.8-4.4,1.4-6.7,1.9c-1.3,0.3-2.6,0.5-3.9,0.7
				c-0.2,0-0.3,0.1-0.3,0.3C148.2,27.2,148.4,27.4,148.6,27.3L148.6,27.3z"/>
		</g>
		<path class="st5" d="M162.3,25.2c-0.8,1.7-1.1,3.7-0.9,5.5c0.1,0.6,0.2,1.2,0.8,1.4c0.6,0.2,1.2-0.3,1.6-0.8
			c1.8-2.3,3.2-5,3.8-7.9c0.3-1.5-0.4-3.2-2-2C164.2,22.6,163.1,23.7,162.3,25.2z"/>
		<path class="st8" d="M161.4,31c0.2-0.1,0.3-0.3,0.5-0.5c1.8-2.3,3.2-5,3.8-7.9c0.1-0.4,0.1-0.8,0-1.2c0,0-0.1,0.1-0.1,0.1
			c-1.3,1.1-2.5,2.2-3.2,3.7c-0.8,1.7-1.1,3.7-0.9,5.5C161.4,30.9,161.4,31,161.4,31z"/>
	</g>
	<g>
		<path class="st6" d="M99.3,81.2L73,60.6c0,0-1.8-2.8,3.4-3.9c4.3-0.9,7.7,0.7,7.7,0.7l26.3,20.2L99.3,81.2z"/>
		<g>
			<path class="st7" d="M74.2,60.1c1.9,0.8,3.7,2,5.3,3.3c1.8,1.4,3.5,2.8,5.3,4.2c1.7,1.4,3.4,2.8,4.9,4.3c0.7,0.8,1.5,1.5,2.3,2.2
				c0.8,0.7,1.7,1.3,2.6,1.9c1,0.7,2.1,1.3,3,2c1,0.7,1.9,1.5,2.7,2.3c0.3,0.3,0.8-0.2,0.5-0.5c-1.6-1.5-3.3-2.8-5.1-4
				c-0.9-0.6-1.9-1.2-2.7-1.8c-0.8-0.7-1.6-1.4-2.3-2.2c-0.7-0.8-1.5-1.5-2.3-2.2c-0.8-0.7-1.7-1.4-2.6-2.1
				c-1.8-1.4-3.6-2.8-5.4-4.2c-1.9-1.5-3.8-2.9-6-3.8c-0.2-0.1-0.4,0-0.5,0.1C74,59.7,74.1,60,74.2,60.1L74.2,60.1z"/>
		</g>
		<g>
			<path class="st7" d="M79.6,61c1.5,1.4,3.1,2.8,4.7,4.1c1.6,1.3,3.3,2.5,5.1,3.7c1.6,1.1,3.2,2.2,4.7,3.5c1.4,1.2,2.8,2.5,4.2,3.8
				c1.6,1.4,3.2,2.7,5,3.8c0.4,0.2,0.7-0.4,0.4-0.6c-3.2-1.9-5.9-4.6-8.6-7.1c-1.4-1.3-2.9-2.5-4.5-3.6c-0.9-0.6-1.8-1.1-2.7-1.8
				c-0.8-0.6-1.7-1.2-2.5-1.9c-1.8-1.5-3.5-3-5.3-4.6C79.8,60.2,79.3,60.6,79.6,61L79.6,61z"/>
		</g>
		<g>
			<path class="st7" d="M95.1,67c1.6,1.7,3.4,3.3,5.2,4.8c0.9,0.7,1.9,1.4,2.9,2.1c0.9,0.6,1.9,1.2,2.9,1.8c1,0.6,2,1.4,2.6,2.4
				c0.2,0.4,0.9,0,0.6-0.4c-1.2-1.9-3.3-2.9-5.1-4.1c-2-1.3-3.8-2.8-5.6-4.4c-1-0.9-2-1.9-2.9-2.9C95.2,66.2,94.8,66.6,95.1,67
				L95.1,67z"/>
		</g>
		<path class="st5" d="M104.8,76.8c-1.9,0.3-3.6,1.2-5,2.5c-0.4,0.4-0.8,0.9-0.7,1.4c0.2,0.6,1,0.8,1.6,0.8c2.9,0.1,5.9-0.4,8.6-1.5
			c1.4-0.6,2.4-2.2,0.4-2.8C108.1,76.8,106.5,76.5,104.8,76.8z"/>
		<path class="st8" d="M99.6,79.5c0.2,0.1,0.5,0.1,0.7,0.1c2.9,0.1,5.9-0.4,8.6-1.5c0.4-0.2,0.7-0.4,1-0.7c-0.1,0-0.1,0-0.2-0.1
			c-1.6-0.4-3.2-0.7-4.9-0.5c-1.9,0.3-3.6,1.2-5,2.5C99.6,79.4,99.6,79.4,99.6,79.5z"/>
	</g>
	<g>
		<path class="st6" d="M100.7,93.6l-32.8-6.1c0,0-2.9-1.7,1.2-5.1c3.4-2.8,7.1-2.9,7.1-2.9l32.7,5.8L100.7,93.6z"/>
		<g>
			<path class="st7" d="M68.8,86.5c2.2-0.2,4.4,0.1,6.6,0.5c2.2,0.4,4.3,0.8,6.5,1.2c2.1,0.4,4.2,0.9,6.3,1.6c1,0.3,2,0.7,3,0.9
				c1,0.3,2.1,0.4,3.2,0.5c1.2,0.1,2.4,0.2,3.5,0.4c1.2,0.2,2.4,0.5,3.5,0.8c0.4,0.1,0.6-0.5,0.2-0.7c-2.1-0.6-4.2-1-6.3-1.2
				c-1.1-0.1-2.2-0.2-3.2-0.4c-1-0.2-2-0.5-3-0.9c-1-0.3-2-0.7-3.1-0.9c-1.1-0.3-2.1-0.5-3.2-0.7c-2.2-0.4-4.4-0.8-6.5-1.2
				c-2.4-0.5-4.9-0.8-7.4-0.7C68.3,85.9,68.3,86.6,68.8,86.5L68.8,86.5z"/>
		</g>
		<g>
			<path class="st7" d="M74,84.8c2,0.5,3.9,1,5.9,1.5c2,0.4,4,0.7,6,0.9c2,0.2,3.9,0.5,5.8,1c1.9,0.5,3.7,1,5.6,1.5
				c2.1,0.5,4.2,1,6.4,1.1c0.4,0,0.4-0.7,0-0.7c-3.8-0.2-7.5-1.4-11.2-2.3c-1.9-0.5-3.8-0.8-5.8-1c-2-0.2-4-0.4-6-0.8
				c-2.2-0.4-4.4-1-6.6-1.6C73.7,84,73.5,84.7,74,84.8L74,84.8z"/>
		</g>
		<g>
			<path class="st7" d="M90.4,83c2.2,0.8,4.5,1.4,6.9,1.9c1.1,0.2,2.3,0.4,3.5,0.5c1.1,0.1,2.3,0.2,3.4,0.3c1.2,0.1,2.4,0.3,3.4,0.9
				c0.4,0.2,0.7-0.4,0.4-0.6c-2-1.1-4.3-1-6.4-1.2c-2.4-0.3-4.7-0.7-7-1.3c-1.3-0.3-2.6-0.7-3.9-1.2C90.2,82.2,90,82.9,90.4,83
				L90.4,83z"/>
		</g>
		<path class="st5" d="M103.6,87.3c-1.5,1.2-2.6,2.8-3.3,4.5c-0.2,0.5-0.3,1.2,0,1.6c0.4,0.5,1.2,0.3,1.8,0c2.7-1.2,5.1-3.1,6.9-5.3
			c1-1.2,1.1-3.1-0.9-2.7C106.5,85.8,105,86.2,103.6,87.3z"/>
		<path class="st8" d="M100.2,92c0.2-0.1,0.4-0.1,0.6-0.2c2.7-1.2,5.1-3.1,6.9-5.3c0.3-0.3,0.5-0.7,0.6-1.1c-0.1,0-0.1,0-0.2,0
			c-1.7,0.4-3.2,0.8-4.6,1.9c-1.5,1.2-2.6,2.8-3.3,4.5C100.2,91.9,100.2,92,100.2,92z"/>
	</g>
	<g>
		<path class="st6" d="M116.7,98.4l23.4,23.8c0,0,1.5,3-3.9,3.5c-4.4,0.3-7.5-1.7-7.5-1.7l-23.5-23.5L116.7,98.4z"/>
		<g>
			<path class="st7" d="M138.8,122.5c-1.8-1.1-3.4-2.5-4.8-4c-1.6-1.6-3.1-3.2-4.7-4.8c-1.5-1.6-3-3.2-4.4-5
				c-0.6-0.8-1.2-1.7-1.9-2.5c-0.7-0.8-1.5-1.6-2.4-2.3c-0.9-0.8-1.9-1.6-2.7-2.4c-0.9-0.8-1.7-1.7-2.4-2.7c-0.1-0.1-0.4-0.1-0.5,0
				c-0.1,0.1-0.1,0.3,0,0.5c1.4,1.7,2.9,3.2,4.6,4.6c0.8,0.7,1.7,1.4,2.4,2.2c0.7,0.8,1.4,1.6,2,2.5c0.7,0.9,1.3,1.7,2,2.6
				c0.7,0.9,1.5,1.7,2.3,2.5c1.6,1.6,3.2,3.3,4.8,4.9c1.7,1.7,3.4,3.3,5.4,4.5C138.8,123.3,139.2,122.7,138.8,122.5L138.8,122.5z"/>
		</g>
		<g>
			<path class="st7" d="M133.6,120.9c-1.3-1.6-2.7-3.2-4.1-4.7c-1.4-1.5-3-3-4.6-4.3c-1.5-1.3-2.8-2.6-4.1-4.1
				c-1.2-1.4-2.4-2.9-3.6-4.3c-1.4-1.6-2.8-3.1-4.5-4.4c-0.1-0.1-0.3-0.1-0.5,0c-0.1,0.1-0.1,0.4,0,0.5c3,2.3,5.3,5.3,7.7,8.2
				c1.2,1.4,2.5,2.8,4,4.1c0.8,0.7,1.6,1.4,2.4,2.1c0.8,0.7,1.5,1.4,2.2,2.2c1.6,1.7,3.1,3.5,4.6,5.3
				C133.4,121.8,133.9,121.3,133.6,120.9L133.6,120.9z"/>
		</g>
		<g>
			<path class="st7" d="M119.1,113c-1.4-1.9-2.9-3.7-4.5-5.5c-0.8-0.9-1.7-1.7-2.6-2.5c-0.8-0.8-1.7-1.5-2.6-2.2
				c-0.9-0.8-1.8-1.7-2.3-2.8c-0.2-0.4-0.8,0-0.6,0.4c1,2,3,3.3,4.6,4.7c1.8,1.6,3.4,3.2,5,5c0.9,1,1.7,2.1,2.5,3.1
				C118.8,113.7,119.4,113.4,119.1,113L119.1,113z"/>
		</g>
		<path class="st5" d="M110.7,101.9c1.9-0.1,3.8-0.7,5.3-1.8c0.5-0.3,1-0.8,0.9-1.3c-0.1-0.6-0.8-0.9-1.5-1
			c-2.9-0.5-5.9-0.4-8.7,0.4c-1.5,0.4-2.6,1.9-0.8,2.7C107.5,101.5,109,102,110.7,101.9z"/>
		<path class="st8" d="M116.2,100c-0.2-0.1-0.4-0.1-0.7-0.2c-2.9-0.5-5.9-0.4-8.7,0.4c-0.4,0.1-0.8,0.3-1.1,0.5c0.1,0,0.1,0,0.2,0.1
			c1.6,0.7,3.1,1.2,4.8,1.1c1.9-0.1,3.8-0.7,5.3-1.8C116.1,100.1,116.2,100,116.2,100z"/>
	</g>
	<g>
		<path class="st6" d="M178.5,85.5l-20.2,26.6c0,0-2.8,1.9-4-3.4c-1-4.3,0.6-7.7,0.6-7.7l19.9-26.6L178.5,85.5z"/>
		<g>
			<path class="st7" d="M157.8,110.8c0.8-1.9,2-3.7,3.3-5.4c1.3-1.8,2.7-3.5,4-5.3c1.3-1.7,2.7-3.4,4.3-5c0.7-0.7,1.5-1.5,2.2-2.3
				c0.7-0.8,1.3-1.7,1.9-2.6c0.6-1,1.3-2.1,2-3.1c0.7-1,1.5-1.9,2.3-2.8c0.3-0.3-0.2-0.8-0.5-0.5c-1.5,1.6-2.8,3.4-3.9,5.2
				c-0.6,0.9-1.1,1.9-1.8,2.7c-0.7,0.8-1.4,1.6-2.2,2.4c-0.8,0.8-1.5,1.5-2.2,2.3c-0.7,0.8-1.4,1.7-2.1,2.6
				c-1.4,1.8-2.8,3.6-4.2,5.4c-1.4,1.9-2.8,3.9-3.7,6.1c-0.1,0.2,0.1,0.4,0.2,0.4C157.5,111.1,157.7,110.9,157.8,110.8L157.8,110.8z
				"/>
		</g>
		<g>
			<path class="st7" d="M158.5,105.4c1.4-1.6,2.8-3.1,4.1-4.7c1.3-1.6,2.5-3.4,3.6-5.1c1-1.7,2.2-3.2,3.5-4.7
				c1.2-1.4,2.5-2.8,3.7-4.2c1.4-1.6,2.7-3.3,3.7-5.1c0.2-0.4-0.4-0.7-0.6-0.4c-1.9,3.3-4.5,5.9-7,8.8c-1.3,1.4-2.5,2.9-3.5,4.6
				c-0.6,0.9-1.1,1.8-1.7,2.6c-0.6,0.9-1.2,1.7-1.8,2.5c-1.4,1.8-3,3.6-4.5,5.3C157.7,105.3,158.2,105.8,158.5,105.4L158.5,105.4z"
				/>
		</g>
		<g>
			<path class="st7" d="M164.3,89.9c1.7-1.6,3.3-3.4,4.7-5.3c0.7-0.9,1.4-1.9,2.1-2.9c0.6-0.9,1.2-1.9,1.8-2.9c0.6-1,1.4-2,2.3-2.7
				c0.4-0.3,0-0.9-0.4-0.6c-1.8,1.3-2.8,3.4-4,5.2c-1.3,2-2.7,3.9-4.3,5.7c-0.9,1-1.8,2-2.8,3C163.5,89.7,164,90.2,164.3,89.9
				L164.3,89.9z"/>
		</g>
		<path class="st5" d="M174.1,80c0.4,1.9,1.3,3.6,2.6,5c0.4,0.4,0.9,0.8,1.4,0.7c0.6-0.2,0.8-1,0.8-1.6c0.1-2.9-0.5-5.9-1.7-8.6
			c-0.6-1.4-2.3-2.3-2.8-0.4C174,76.8,173.7,78.3,174.1,80z"/>
		<path class="st8" d="M176.8,85.3c0.1-0.2,0.1-0.5,0.1-0.7c0.1-2.9-0.5-5.9-1.7-8.6c-0.2-0.4-0.4-0.7-0.7-1c0,0.1,0,0.1,0,0.2
			c-0.4,1.6-0.7,3.2-0.4,4.9c0.4,1.9,1.3,3.6,2.6,5C176.7,85.2,176.7,85.2,176.8,85.3z"/>
	</g>
	<g>
		<path class="st6" d="M182.1,65.2L150,74.3c0,0-3.4-0.2-1.2-5.1c1.8-4,5.1-5.8,5.1-5.8l31.8-9.3L182.1,65.2z"/>
		<g>
			<path class="st7" d="M150.3,73c1.8-1,3.7-1.7,5.7-2.3c2.1-0.6,4.2-1.2,6.3-1.8c2.1-0.6,4.3-1.2,6.5-1.5c1.1-0.2,2.2-0.3,3.3-0.5
				c1-0.2,2-0.6,3-0.9c1.1-0.4,2.3-0.9,3.4-1.3c1.2-0.4,2.4-0.6,3.6-0.9c0.4-0.1,0.3-0.7-0.2-0.7c-2.2,0.4-4.3,1-6.3,1.8
				c-1,0.4-2,0.8-3,1.1c-1.1,0.3-2.2,0.4-3.3,0.6c-1.1,0.2-2.2,0.3-3.3,0.6c-1.1,0.2-2.2,0.5-3.2,0.8c-2.1,0.6-4.3,1.2-6.4,1.8
				c-2.2,0.6-4.5,1.4-6.5,2.6C149.6,72.6,150,73.2,150.3,73L150.3,73z"/>
		</g>
		<g>
			<path class="st7" d="M154.2,69.1c2-0.4,4-0.8,6-1.3c2-0.5,3.9-1.1,5.8-1.9c1.8-0.7,3.7-1.3,5.6-1.7c1.9-0.4,3.8-0.8,5.7-1.2
				c2.1-0.5,4.2-1,6.2-1.9c0.2-0.1,0.2-0.3,0.1-0.5c-0.1-0.2-0.3-0.2-0.5-0.1c-3.5,1.5-7.3,2-11.1,2.8c-1.9,0.4-3.8,0.9-5.6,1.6
				c-1.9,0.7-3.8,1.4-5.8,1.9c-2.2,0.6-4.4,1-6.7,1.5C153.6,68.5,153.8,69.2,154.2,69.1L154.2,69.1z"/>
		</g>
		<g>
			<path class="st7" d="M168.1,60.2c2.3-0.3,4.6-0.7,6.8-1.3c1.1-0.3,2.2-0.6,3.3-1c1.1-0.4,2.1-0.8,3.2-1.2
				c1.2-0.5,2.4-0.8,3.7-0.8c0.4,0,0.4-0.7,0-0.7c-2.3-0.1-4.4,1.1-6.5,1.8c-2.2,0.8-4.4,1.4-6.7,1.9c-1.3,0.3-2.6,0.5-3.9,0.6
				c-0.2,0-0.3,0.1-0.3,0.3C167.8,60,167.9,60.2,168.1,60.2L168.1,60.2z"/>
		</g>
		<path class="st5" d="M181.9,58.2c-0.8,1.7-1.1,3.7-1,5.5c0.1,0.6,0.2,1.2,0.8,1.4c0.6,0.2,1.2-0.3,1.6-0.8c1.8-2.3,3.2-5,3.8-7.9
			c0.3-1.5-0.4-3.2-2-2C183.8,55.5,182.6,56.6,181.9,58.2z"/>
		<path class="st8" d="M180.9,64c0.2-0.1,0.3-0.3,0.5-0.5c1.8-2.3,3.2-5,3.8-7.9c0.1-0.4,0.1-0.8,0-1.2c0,0-0.1,0.1-0.1,0.1
			c-1.3,1.1-2.5,2.2-3.3,3.7c-0.8,1.7-1.1,3.7-1,5.5C180.9,63.8,180.9,63.9,180.9,64z"/>
	</g>
	<g>
		<path class="st6" d="M122,119.8l-33,5.2c0,0-3.3-0.6-0.5-5.2c2.3-3.8,5.8-5.1,5.8-5.1l32.7-5.4L122,119.8z"/>
		<g>
			<path class="st7" d="M89.6,123.7c1.9-0.8,4-1.3,6-1.6c2.1-0.4,4.3-0.7,6.5-1c2.2-0.3,4.4-0.6,6.6-0.7c1.1,0,2.1,0,3.2-0.1
				c1.1-0.1,2.1-0.3,3.2-0.6c1.2-0.3,2.3-0.6,3.5-0.8c1.2-0.2,2.4-0.4,3.7-0.4c0.4,0,0.4-0.7,0-0.7c-2.2,0.1-4.4,0.5-6.5,1.1
				c-1,0.3-2.1,0.6-3.2,0.7c-1.1,0.1-2.2,0.2-3.3,0.2c-1.1,0-2.2,0.1-3.3,0.2c-1.1,0.1-2.2,0.3-3.3,0.4c-2.2,0.3-4.4,0.7-6.5,1
				c-2.3,0.4-4.7,0.8-6.9,1.8c-0.2,0.1-0.2,0.3-0.1,0.5C89.2,123.7,89.4,123.8,89.6,123.7L89.6,123.7z"/>
		</g>
		<g>
			<path class="st7" d="M93.8,120.4c2-0.2,4-0.3,6.1-0.6c2-0.3,4-0.6,5.9-1.1c1.9-0.5,3.8-0.9,5.8-1.1c1.9-0.2,3.9-0.3,5.8-0.5
				c2.2-0.2,4.3-0.5,6.4-1.1c0.4-0.1,0.2-0.8-0.2-0.7c-3.7,1.1-7.6,1.2-11.4,1.5c-1.9,0.2-3.8,0.5-5.7,0.9c-2,0.5-3.9,0.9-5.9,1.2
				c-2.3,0.3-4.5,0.5-6.8,0.7C93.4,119.7,93.4,120.4,93.8,120.4L93.8,120.4z"/>
		</g>
		<g>
			<path class="st7" d="M108.8,113.2c2.3,0,4.6-0.2,6.9-0.5c1.1-0.2,2.3-0.4,3.4-0.6c1.1-0.2,2.2-0.5,3.3-0.8
				c1.2-0.3,2.5-0.6,3.8-0.4c0.2,0,0.4,0,0.4-0.2c0-0.2-0.1-0.4-0.2-0.4c-2.3-0.4-4.5,0.5-6.7,1c-2.3,0.5-4.6,0.9-6.9,1.1
				c-1.3,0.1-2.6,0.2-3.9,0.2C108.3,112.5,108.3,113.2,108.8,113.2L108.8,113.2z"/>
		</g>
		<path class="st5" d="M122.6,112.8c-1,1.6-1.6,3.5-1.6,5.4c0,0.6,0.1,1.2,0.6,1.5c0.6,0.3,1.2-0.2,1.7-0.6c2.1-2,3.8-4.6,4.7-7.3
			c0.5-1.4,0-3.3-1.7-2.2C124.9,110.4,123.6,111.4,122.6,112.8z"/>
		<path class="st8" d="M121,118.4c0.2-0.1,0.4-0.3,0.5-0.4c2.1-2,3.8-4.6,4.7-7.3c0.1-0.4,0.2-0.8,0.2-1.2c-0.1,0-0.1,0.1-0.2,0.1
			c-1.4,0.9-2.7,1.8-3.7,3.3c-1,1.6-1.6,3.5-1.6,5.4C121,118.3,121,118.4,121,118.4z"/>
	</g>
	<g>
		<path class="st6" d="M155.5,98l-33,5.2c0,0-3.3-0.6-0.5-5.2c2.3-3.8,5.8-5.1,5.8-5.1l32.7-5.4L155.5,98z"/>
		<g>
			<path class="st7" d="M123,101.9c1.9-0.8,4-1.3,6-1.6c2.1-0.4,4.3-0.7,6.5-1c2.2-0.3,4.4-0.6,6.6-0.7c1.1,0,2.1,0,3.2-0.1
				c1.1-0.1,2.1-0.3,3.2-0.6c1.2-0.3,2.3-0.6,3.5-0.8c1.2-0.2,2.4-0.4,3.7-0.4c0.4,0,0.4-0.7,0-0.7c-2.2,0.1-4.4,0.5-6.5,1.1
				c-1,0.3-2.1,0.6-3.2,0.7c-1.1,0.1-2.2,0.2-3.3,0.2c-1.1,0-2.2,0.1-3.3,0.2c-1.1,0.1-2.2,0.3-3.3,0.4c-2.2,0.3-4.4,0.7-6.5,1
				c-2.3,0.4-4.7,0.8-6.9,1.8c-0.2,0.1-0.2,0.3-0.1,0.5C122.7,101.9,122.9,102,123,101.9L123,101.9z"/>
		</g>
		<g>
			<path class="st7" d="M127.3,98.6c2-0.2,4-0.3,6.1-0.6c2-0.3,4-0.6,5.9-1.1c1.9-0.5,3.8-0.9,5.8-1.1c1.9-0.2,3.9-0.3,5.8-0.5
				c2.2-0.2,4.3-0.5,6.4-1.1c0.4-0.1,0.2-0.8-0.2-0.7c-3.7,1.1-7.6,1.2-11.4,1.5c-1.9,0.2-3.8,0.5-5.7,0.9c-2,0.5-3.9,0.9-5.9,1.2
				c-2.3,0.3-4.5,0.5-6.8,0.7C126.9,97.9,126.8,98.6,127.3,98.6L127.3,98.6z"/>
		</g>
		<g>
			<path class="st7" d="M142.2,91.4c2.3,0,4.6-0.2,6.9-0.5c1.1-0.2,2.3-0.4,3.4-0.6c1.1-0.2,2.2-0.5,3.3-0.8
				c1.2-0.3,2.5-0.6,3.8-0.4c0.2,0,0.4,0,0.4-0.2c0-0.2-0.1-0.4-0.2-0.4c-2.3-0.4-4.5,0.5-6.7,1c-2.3,0.5-4.6,0.9-6.9,1.1
				c-1.3,0.1-2.6,0.2-3.9,0.2C141.8,90.7,141.8,91.4,142.2,91.4L142.2,91.4z"/>
		</g>
		<path class="st5" d="M156.1,91c-1,1.6-1.6,3.5-1.6,5.4c0,0.6,0.1,1.2,0.6,1.5c0.6,0.3,1.2-0.2,1.7-0.6c2.1-2,3.8-4.6,4.7-7.3
			c0.5-1.4,0-3.3-1.7-2.2C158.3,88.6,157,89.6,156.1,91z"/>
		<path class="st8" d="M154.5,96.6c0.2-0.1,0.4-0.3,0.5-0.4c2.1-2,3.8-4.6,4.7-7.3c0.1-0.4,0.2-0.8,0.2-1.2c-0.1,0-0.1,0.1-0.2,0.1
			c-1.4,0.9-2.7,1.8-3.7,3.3c-1,1.6-1.6,3.5-1.6,5.4C154.4,96.5,154.4,96.6,154.5,96.6z"/>
	</g>
	<g>
		<path class="st6" d="M134.2,67.5l-33,5.2c0,0-3.3-0.6-0.5-5.2c2.3-3.8,5.8-5.1,5.8-5.1l32.7-5.4L134.2,67.5z"/>
		<g>
			<path class="st7" d="M101.8,71.4c1.9-0.8,4-1.3,6-1.6c2.1-0.4,4.3-0.7,6.5-1c2.2-0.3,4.4-0.6,6.6-0.7c1.1,0,2.1,0,3.2-0.1
				c1.1-0.1,2.1-0.3,3.2-0.6c1.2-0.3,2.3-0.6,3.5-0.8c1.2-0.2,2.4-0.4,3.7-0.4c0.4,0,0.4-0.7,0-0.7c-2.2,0.1-4.4,0.5-6.5,1.1
				c-1,0.3-2.1,0.6-3.2,0.7c-1.1,0.1-2.2,0.2-3.3,0.2c-1.1,0-2.2,0.1-3.3,0.2c-1.1,0.1-2.2,0.3-3.3,0.4c-2.2,0.3-4.4,0.7-6.5,1
				c-2.3,0.4-4.7,0.8-6.9,1.8c-0.2,0.1-0.2,0.3-0.1,0.5C101.4,71.5,101.6,71.5,101.8,71.4L101.8,71.4z"/>
		</g>
		<g>
			<path class="st7" d="M106,68.1c2-0.2,4-0.3,6.1-0.6c2-0.3,4-0.6,5.9-1.1c1.9-0.5,3.8-0.9,5.8-1.1c1.9-0.2,3.9-0.3,5.8-0.5
				c2.2-0.2,4.3-0.5,6.4-1.1c0.4-0.1,0.2-0.8-0.2-0.7c-3.7,1.1-7.6,1.2-11.4,1.5c-1.9,0.2-3.8,0.5-5.7,0.9c-2,0.5-3.9,0.9-5.9,1.2
				c-2.3,0.3-4.5,0.5-6.8,0.7C105.6,67.4,105.6,68.1,106,68.1L106,68.1z"/>
		</g>
		<g>
			<path class="st7" d="M121,60.9c2.3,0,4.6-0.2,6.9-0.5c1.1-0.2,2.3-0.4,3.4-0.6c1.1-0.2,2.2-0.5,3.3-0.8c1.2-0.3,2.5-0.6,3.8-0.4
				c0.2,0,0.4,0,0.4-0.2c0-0.2-0.1-0.4-0.2-0.4c-2.3-0.4-4.5,0.5-6.7,1c-2.3,0.5-4.6,0.9-6.9,1.1c-1.3,0.1-2.6,0.2-3.9,0.2
				C120.5,60.2,120.5,60.9,121,60.9L121,60.9z"/>
		</g>
		<path class="st5" d="M134.8,60.5c-1,1.6-1.6,3.5-1.6,5.4c0,0.6,0.1,1.2,0.6,1.5c0.6,0.3,1.2-0.2,1.7-0.6c2.1-2,3.8-4.6,4.7-7.3
			c0.5-1.4,0-3.3-1.7-2.2C137.1,58.1,135.8,59.1,134.8,60.5z"/>
		<path class="st8" d="M133.2,66.2c0.2-0.1,0.4-0.3,0.5-0.4c2.1-2,3.8-4.6,4.7-7.3c0.1-0.4,0.2-0.8,0.2-1.2c-0.1,0-0.1,0.1-0.2,0.1
			c-1.4,0.9-2.7,1.8-3.7,3.3c-1,1.6-1.6,3.5-1.6,5.4C133.2,66,133.2,66.1,133.2,66.2z"/>
	</g>
	<g>
		<path class="st9" d="M101.7,21.5c-3.1,0.3-7.5,2-10.1,3.6c-3.6,2.2-7.2,4.7-8.9,8.6c-1.7,3.8-0.7,9.1,3.1,10.8
			c1.4,0.6,3,0.7,4.4,1.4c1.2,0.6,2.2,1.6,3.3,2.3c3.4,2,7.9,0.6,10.6-2.3c2.7-2.8,3.9-6.7,5-10.5c1-3.8,2-7.7,4.3-10.8
			c0.2-0.3,0.4-0.6,0.5-0.9C114.8,20.4,104,21.3,101.7,21.5z"/>
		<path class="st10" d="M113.4,24.7c0.2-0.3,0.4-0.6,0.5-0.9c0.1-0.3,0.1-0.5,0-0.7c-0.1,0.3-0.3,0.7-0.5,0.9
			c-0.6,0.8-1.6,1.2-2.3,1.8c-2.7,2.2-2.9,6.2-4.6,9.2c-0.6,1.2-1.5,2.2-2,3.4c-0.6,1.3-0.8,2.8-1.7,3.9c-1,1.2-2.5,1.7-4,2
			c-2.3,0.4-5,0.4-6.8-1.1c-0.9-0.8-1.6-2-2.8-2.4c-1.6-0.6-3.4,0.4-5.1,0.2c-0.7-0.1-1.4-0.5-2-1c0.5,2,1.7,3.7,3.6,4.5
			c1.4,0.6,3,0.7,4.4,1.4c1.2,0.6,2.2,1.6,3.3,2.3c3.4,2,7.9,0.6,10.6-2.3c2.7-2.8,3.9-6.7,5-10.5C110.1,31.8,111.1,27.8,113.4,24.7
			z"/>
		<path class="st10" d="M91.8,36.3c3.3-4.5,8.2-7.4,13.1-10.1c0.6-0.4,1.3-0.7,2-0.9c-0.4,0.7-1.2,1.1-1.9,1.5
			c-3.9,2.1-7.3,4.8-10.2,8.2c-1.1,1.3-2.1,2.6-2.7,4.2s-0.8,3.3-0.3,4.9c0.1,0.4,0.3,1-0.1,1.3c-0.6,0.4-1.7-0.3-2-0.8
			c-0.4-0.6-0.3-1.7-0.2-2.4C89.5,39.9,90.5,37.9,91.8,36.3z"/>
		<path class="st10" d="M101.4,37.7c-1.8-0.5-3.7-0.7-5.6-0.6c-0.7,0-1.3,0.1-2,0.3c-1.3,0.5-2.1,1.5-3,2.4
			C91.4,34.9,98.6,35.5,101.4,37.7z"/>
		<path class="st10" d="M102,32.6c0.6,0.2,1.2,0.5,1.7,1c0-0.5-0.6-0.8-1.1-1.1c-1.1-0.5-2.1-0.9-3.2-1.4c-0.4-0.2-0.9-0.4-1.3-0.3
			c-0.3,0.1-1,0.4-0.7,0.8c0.1,0.2,1.2,0,1.4,0C99.9,31.8,101,32.2,102,32.6z"/>
		<path class="st10" d="M89.2,33.8c-1.2-1.2-2.8-1.9-4.4-2.2c0.2-0.3,0.6-0.3,0.9-0.2c0.7,0.2,1.3,0.5,1.9,0.8
			c1.3,0.7,2.6,1.5,3.4,2.7c0.7,1.1,1.1,3,0,4.1c-0.6-0.3-0.2-1.9-0.4-2.5C90.5,35.5,89.9,34.5,89.2,33.8z"/>
		<path class="st10" d="M96.5,29.4c-0.2-0.4-0.4-0.7-0.6-1c-0.9-1-2.1-1.8-3.4-2c0-0.2,0.2-0.3,0.3-0.3c0.2,0,0.3,0,0.5,0.1
			c0.7,0.3,1.5,0.6,2.1,1c0.8,0.5,1.4,1.2,1.8,2c0.2,0.4,0.8,2.5-0.1,2.5C96.5,31.8,96.6,29.8,96.5,29.4z"/>
		<path class="st10" d="M101.6,26.5c-0.2-0.6-0.7-1-1.1-1.4c-0.2-0.2-0.5-0.4-0.7-0.6c0.4-0.2,0.7,0.2,1,0.4
			c0.4,0.4,0.8,0.8,1.2,1.3s0.5,1.1,0.3,1.6c-0.1,0.4-0.4,0.8-0.7,1C101.2,28.1,101.8,27.2,101.6,26.5z"/>
		<path class="st10" d="M90.4,52.3c0.3,0.6,0.7,1.3,1.3,1.7c0.6,0.4,1.5,0.3,1.9-0.2c0.1-0.2,0.2-0.3,0.2-0.5
			c-0.1-0.5-0.7-0.6-1.2-0.8c-0.9-0.4-1.4-1.4-1.7-2.4c-0.2-0.8-0.4-1.7-0.3-2.5c0.1-0.9,0.8-2.4,0-3.2c-1-0.9-1.5,0.7-1.5,1.4
			C88.9,47.9,89.4,50.2,90.4,52.3z"/>
		<path class="st11" d="M97.2,24.2c-2.6,0.6-4.9,2-6.6,4.1c-0.5,0.7-1,1.5-1,2.3c0,0.7,0.4,1.5,1,1.9c0.2,0.2,0.5,0.3,0.8,0.3
			c0.5,0,1-0.2,1.4-0.5c0.6-0.5,1.1-1.3,1.2-2.2c0.1-0.5,0.1-1,0.2-1.5c0.1-0.5,0.4-1,0.8-1.2c0.4-0.2,0.9-0.1,1.3-0.4
			c0.3-0.2,0.4-0.7,0.7-1c0.3-0.4,0.9-0.6,1.4-0.7c0.9-0.2,1.8-0.4,2.7-0.4c0.6,0,1.2,0.2,1.7,0c0.5-0.2,0.9-0.6,1.4-0.9
			c1-0.6,2.3-0.5,3.5-0.3c1.2,0.1,2.5,0.2,3.5-0.5c-0.5-0.6-1.4-0.5-2.2-0.5c-1,0-2-0.2-3-0.3c-1.6-0.1-2.5,0.7-3.9,1.1
			C100.5,23.9,98.8,23.9,97.2,24.2z"/>
		<path class="st9" d="M85.5,47.4c-4.4-0.3-8.6,1.8-11.6,5c-3,3.2-4.7,7.4-5.8,11.6c-0.1,0.4-0.2,0.9-0.1,1.3
			c0.2,0.5,0.6,0.9,1.2,1.1c0.5,0.2,1.1,0.2,1.7,0.2c0.8,0,1.6,0.1,2.4,0.2c2,0.4,3.9,1.4,5.8,2c3.4,1,7.2,0.8,10.4-0.7
			c3.2-1.6,5.7-4.6,6.5-8c0.2-0.9,0.3-1.8,0.2-2.7c-0.2-1.8-1.4-3.5-3-4.5c-1.7-1-2.6-1.4-3.4-3.1C88.8,48.2,87.3,47.5,85.5,47.4z"
			/>
		<path class="st10" d="M96,60.1c0.2-0.9,0.3-1.8,0.2-2.7c-0.2-1.8-1.4-3.5-3-4.5c-1.7-1-2.6-1.4-3.4-3.1c-0.8-1.7-2.3-2.3-4.1-2.5
			c-0.9-0.1-1.9,0-2.8,0.1c0.5,0.1,1,0.1,1.2,0.1c1.5,0.4,2.9,1.2,3.8,2.4c0.6,0.8,1.1,1.9,0.6,2.7c-0.1,0.2-0.2,0.4-0.2,0.6
			c0,0.3,0.3,0.5,0.5,0.6c0.3,0.2,0.7,0.3,1.1,0.4c0.5,0.1,1,0.2,1.5,0.4c1.7,0.7,2.6,2.8,2.3,4.6c-0.3,1.8-1.6,3.4-3.1,4.5
			c-0.8,0.6-1.7,1.2-2.7,1.4c-1.1,0.3-2.3,0.1-3.4,0c-2.4-0.2-4.8-0.5-7.3-0.6c-1.3-0.1-2.7-0.1-3.9,0.2c-1.1,0.3-2.2,0.8-3.3,1.1
			c-0.4,0.1-0.8,0.1-1.1,0.2c0.2,0.1,0.4,0.2,0.6,0.3c0.5,0.2,1.1,0.2,1.7,0.2c0.8,0,1.6,0.1,2.4,0.2c2,0.4,3.9,1.4,5.8,2
			c3.4,1,7.2,0.8,10.4-0.7C92.7,66.6,95.2,63.6,96,60.1z"/>
		<path class="st10" d="M84.6,54.5c-1,0.2-2,0.6-3,1.1c-2.4,1.1-4.7,2.5-6.9,4c-1.5,1-3,2.2-4,3.7c-0.1-0.1-0.1-0.3-0.1-0.4
			c0.3-0.7,0.8-1.2,1.3-1.8c3.8-3.7,8.6-6.1,13.6-8c0.6-0.2,1.2-0.4,1.9-0.5c1.2-0.1,2.4,0.5,3.5,1.1c0.1,0.1,0.2,0.1,0.3,0.2
			c0.1,0.1,0,0.3-0.1,0.3c-0.8,0.3-2.2-0.1-3.1-0.1C86.9,54.2,85.7,54.3,84.6,54.5z"/>
		<path class="st10" d="M72.9,58.7c-0.3-0.4-0.5-0.9-0.6-1.4c-0.1-0.5-0.1-1,0.1-1.5c0.2,0.1,0.1,0.3,0.1,0.5
			c-0.2,0.7,0.1,1.4,0.5,1.9c0.2,0.2,0.3,0.5,0.6,0.6c0.4,0.1,0.7-0.1,1.1,0c0.1,0,0.1,0,0.2,0.1c0.1,0.3-0.6,0.6-0.8,0.6
			C73.7,59.4,73.2,59,72.9,58.7z"/>
		<path class="st10" d="M76.1,53.6c0-0.9,0.4-1.8,0.7-2.7c0-0.1,0.1-0.2,0.2-0.2c0.1,0,0.2,0,0.2,0.1c-0.3,0.7-0.5,1.5-0.6,2.3
			c0,0.8,0.2,1.6,0.8,2.1c0.6,0.5,1.5,0.5,2.4,0.5c0.1,0,0.2,0,0.3,0.1c0.1,0.1,0.1,0.3,0,0.4c-0.7,0.8-1.9,0.5-2.6,0
			C76.8,55.6,76.2,54.6,76.1,53.6z"/>
		<path class="st10" d="M81.9,51.7c-0.1-0.2-0.2-0.3-0.3-0.5c-0.1-0.2-0.1-0.5,0-0.8c0.1-0.6,0.2-1.1,0.5-1.6c0.1,0,0.1,0.1,0.1,0.2
			c0,0.1-0.1,0.1-0.1,0.2c-0.3,0.4-0.1,1,0.1,1.4c0.3,0.7,0.6,1.4,1.1,2c0.1,0.1,0.2,0.2,0.3,0.2c0.2,0.1,0.3,0.1,0.5,0.1
			c0.4,0,0.9,0,1.3,0.1c0.1,0,0.3,0.1,0.3,0.2c0.2,0.4-0.5,0.6-0.8,0.7c-0.4,0.1-0.6,0-0.9-0.2C83.2,53.1,82.4,52.4,81.9,51.7z"/>
		<path class="st10" d="M79.5,60.2c0.7,1.1,1.7,2,2.7,2.8c0.1,0.1,0.4,0.2,0.5,0c-0.8-0.6-1.6-1.4-2.2-2.3c-0.7-1-1.1-2.2-0.9-3.3
			c0.1-0.5,0.3-0.9,0.5-1.3c0,0-0.9,0.2-1.1,0.4c-0.3,0.3-0.3,0.8-0.3,1.1C78.7,58.5,79.1,59.4,79.5,60.2z"/>
		<path class="st10" d="M85.3,58.6c1,1.3,2.5,2.2,4.1,2.6c0.3,0.1,0.6,0.1,0.7-0.2c-1.4-0.4-2.8-1.1-3.8-2.2
			c-0.9-1.1-1.3-2.9-0.5-4.1c0.1-0.2,0.2-0.3,0.2-0.5c0-0.5-0.8-0.5-1.1-0.2c-0.4,0.3-0.5,0.9-0.5,1.3
			C84.3,56.5,84.6,57.7,85.3,58.6z"/>
		<path class="st11" d="M84.1,48c-0.5,0-0.9,0-1.4,0.2c-0.7,0.2-1.4,0.4-1.9,0.9c-0.4,0.3-0.6,0.8-1,1.1c-0.5,0.5-1.2,0.6-1.8,0.9
			c-1.5,0.6-2.7,1.6-3.8,2.8c-1,1.2-1.9,2.6-2.6,3.9c-0.5,0.9-1,1.9-0.9,2.9c0,0.1,0,0.2,0.1,0.3c0.1,0.1,0.3,0.1,0.5,0
			c0.1-0.1,0.2-0.3,0.3-0.4c0.3-0.6,0.5-1.3,0.6-1.9c0.1-0.4,0.2-0.9,0.5-1.2c0.3-0.4,0.8-0.6,1.2-0.4c0.1,0.1,0.2,0.1,0.3,0.2
			c0.5,0.2,1.1-0.2,1.2-0.7c0.2-0.5,0.1-1,0.1-1.6c0-0.5,0.1-1.1,0.6-1.4c0.6-0.4,1.3-0.1,1.9,0.3c0.6,0.3,1.2,0.8,1.9,0.6
			c0.5-0.1,0.8-0.6,0.9-1c0.1-0.5,0.1-1,0-1.4c0-0.2-0.1-0.4,0-0.6c0.1-0.4,0.4-0.7,0.7-0.8c0.4-0.1,0.8,0,1.1,0.4
			c0.1,0.1,0.2,0.3,0.3,0.5c0.6,1.1,2.5,1,2.9-0.3C86.1,49.8,85.3,48.1,84.1,48z"/>
		<path class="st12" d="M94,45.7c0.6-0.8,1.6-1.4,2.6-1.7c2.1-0.4,4.3,0.8,5.8,2.3c1.6,1.5,2.8,3.3,4.7,4.6c0.9,0.6,1.9,1.1,2.9,1.6
			c0.9,0.6,1.8,1.4,2.2,2.4c0.2,0.4,0.2,0.9,0.1,1.4c-0.2,0.5-0.8,0.8-1.3,1c-1.6,0.6-3.4,0.7-5.1,1.2c-2.1,0.6-3.9,2-6,2.5
			c-2.2,0.5-4.6,0-6.6-1c-1.5-0.8-3-2-3.5-3.6c-0.7-2.3,0.6-4.9,2.8-5.8c1.3-0.6,1.1-1,0.9-2.2C93.2,47.4,93.4,46.4,94,45.7z"/>
		<path class="st13" d="M112.1,56.3c0.2-0.4,0.1-0.9,0-1.4c-0.1,0.5-0.4,0.9-0.8,1.2c-0.7,0.5-1.7,0.2-2.6,0.1
			c-0.7-0.1-1.5-0.1-2.3,0c-0.9,0.1-1.7,0.4-2.6,0.7c-3.6,1-7.5,0.9-11-0.4c-1-0.4-2-0.8-2.6-1.7c-0.3-0.4-0.5-0.9-0.5-1.4
			c-0.3,0.9-0.4,2-0.1,2.9c0.5,1.6,2,2.8,3.5,3.6c2,1,4.4,1.5,6.6,1c2.1-0.5,3.9-1.8,6-2.5c1.7-0.5,3.5-0.6,5.1-1.2
			C111.3,57.1,111.9,56.8,112.1,56.3z"/>
		<path class="st13" d="M93.9,52.3c2.8,1.7,6.2,2.2,9.5,2.1c1.1,0,2.2-0.1,3.3,0.1c0.3,0.1,0.6,0.1,0.7-0.1c-0.6-0.3-1.3-0.4-2-0.5
			c-3.5-0.4-7-0.8-10.3-2c-0.3-0.1-0.7-0.2-0.9-0.5c-0.6-0.6-0.7-0.8-0.7-2C92.3,50.5,92.8,51.6,93.9,52.3z"/>
		<path class="st13" d="M94.4,51.2c0.4-0.1,0.7-0.3,1-0.5c0.6-0.4,1.1-0.8,1.5-1.4c0.4-0.6,0.6-1.3,0.5-1.9c0.2,0.6,0.1,1.2-0.2,1.8
			c-0.3,0.5-0.7,1-1.2,1.4c-0.4,0.4-0.8,0.7-1.3,1c-0.3,0.2-0.6,0.4-0.9,0.4c-0.2,0-0.5-0.2-0.5-0.4C93,50.7,94,51.3,94.4,51.2z"/>
		<path class="st13" d="M100.7,52.3c0.8-0.7,1.3-1.7,1.3-2.7c0.2,1.1-0.3,2.1-1.1,2.9c-0.4,0.4-0.8,0.8-1.3,1
			c-0.3,0.1-0.8,0.2-1.1,0.1c-0.5-0.1-0.3-0.3,0.1-0.4C99.3,53.1,100.1,52.8,100.7,52.3z"/>
		<path class="st13" d="M93.4,53.9c-0.3,0.6-0.9,1.2-1.5,1.5c0.6-0.1,1-0.5,1.4-0.9c0.4-0.4,0.7-0.9,0.9-1.4
			c0.1-0.3,0.2-0.5,0.2-0.8c0-0.2-0.2-0.5-0.4-0.5c-0.4-0.1-0.3,0.2-0.3,0.4C93.8,52.8,93.7,53.4,93.4,53.9z"/>
		<path class="st13" d="M97.4,57.7c0.5-0.8,0.8-1.7,0.9-2.6c0-0.4,0-0.9-0.2-1.3c-0.1-0.2-0.8-0.9-1-0.5c-0.1,0.2,0.4,1.1,0.4,1.4
			C97.7,55.6,97.7,56.7,97.4,57.7z"/>
		<path class="st14" d="M94.5,47.4c0.1-0.7,0.4-1.3,1-1.7c0.6-0.4,1.3-0.5,2-0.3c0.7,0.2,1.2,0.7,1.6,1.3c0.2,0.3,0.3,0.6,0.5,0.9
			c0.6,0.7,1.5,0.8,2.4,1.1c1.4,0.5,2.7,1.5,3.4,2.8c0.1,0.2,0.2,0.4,0.2,0.6c0,0.2-0.2,0.4-0.4,0.5c-0.1,0-0.2-0.1-0.3-0.1
			c-0.4-0.2-0.8-0.6-1.1-1c-0.1-0.1-0.2-0.2-0.3-0.3c-0.3-0.1-0.6,0.2-0.8,0.4c-0.2,0.3-0.5,0.6-0.8,0.5c-0.4-0.1-0.3-0.7-0.1-1.1
			c0.2-0.4,0.6-0.8,0.4-1.1c-0.2-0.3-0.6-0.4-1-0.2c-0.7,0.3-1.1,1.3-1.9,1.2c-0.5-0.1-0.8-0.6-0.9-1.2c-0.1-0.5-0.1-1.1-0.4-1.5
			c-0.3-0.5-1-0.7-1.3-0.3c-0.2,0.2-0.2,0.5-0.2,0.7c-0.1,0.4-0.3,0.7-0.6,0.9C94.3,50.8,94.4,48.2,94.5,47.4z"/>
	</g>
	<path class="st15" d="M123.7,60.1c-0.2-2.2,0.6-4.3,1.9-6.1c0.8-1.2,1.9-2.2,3.1-2.9c1.9-1.1,4.2-1.2,6.5-1.1
		c0.9,0.1,1.8,0.2,2.5,0.7c0.7,0.6,0.9,1.8,0.2,2.3c-0.3-0.4-0.7-0.5-1.2-0.6c-4.2-1-8.9,1.4-10.6,5.4c-0.5,1.2-0.7,2.5-0.2,3.7
		c0.5,1.1,3.8,3.3,1.3,3.3C124.9,64.7,123.8,61.9,123.7,60.1z"/>
	<path class="st15" d="M118.5,27.3c2.1-0.5,4.4-0.1,6.3,0.9c1.3,0.6,2.5,1.5,3.3,2.6c1.3,1.8,1.8,4,2.1,6.2c0.1,0.9,0.1,1.8-0.3,2.6
		c-0.5,0.8-1.6,1.2-2.3,0.6c0.3-0.3,0.4-0.8,0.5-1.3c0.3-4.3-2.8-8.5-6.9-9.6c-1.2-0.3-2.6-0.3-3.7,0.3c-1,0.7-2.7,4.3-3,1.8
		C114.1,29.2,116.7,27.7,118.5,27.3z"/>
	<path class="st15" d="M108.3,89.1c1.7,1.4,2.7,3.4,3.1,5.6c0.3,1.4,0.3,2.9-0.1,4.3c-0.6,2.1-2.1,3.9-3.7,5.4
		c-0.6,0.6-1.4,1.2-2.3,1.3c-0.9,0.1-1.9-0.6-1.8-1.5c0.5,0.1,0.9-0.2,1.3-0.4c3.6-2.4,5.1-7.4,3.4-11.4c-0.5-1.2-1.3-2.3-2.5-2.7
		c-1.2-0.4-5.1,0.5-3.3-1.3C104.1,86.8,106.9,88,108.3,89.1z"/>
	<path class="st15" d="M167.1,69.5c-2.1-0.6-3.9-2-5.2-3.7c-0.8-1.2-1.5-2.5-1.7-3.9c-0.4-2.2,0.3-4.4,1.1-6.5
		c0.3-0.8,0.8-1.7,1.5-2.1c0.8-0.5,2-0.3,2.3,0.6c-0.4,0.1-0.8,0.5-1,0.9c-2.3,3.6-1.5,8.9,1.6,11.7c0.9,0.8,2.1,1.5,3.4,1.4
		c1.2-0.1,4.4-2.5,3.5-0.1C171.9,69.9,168.8,70,167.1,69.5z"/>
	<path class="st15" d="M150.1,106.9c-2.6,0.7-5.3,0.7-7.7,0.3c-1.6-0.3-3-0.7-4-1.5c-1.6-1.1-2.1-2.7-2.4-4.4
		c-0.1-0.7-0.1-1.4,0.5-2c0.6-0.7,2-1.1,2.8-0.8c-0.4,0.3-0.5,0.7-0.6,1c-0.5,3.3,3.2,6,8.2,6.2c1.5,0,3.2-0.2,4.5-0.8
		c1.3-0.7,3.4-3.7,3.8-1.8C155.5,104.7,152.3,106.3,150.1,106.9z"/>
</g>
</svg>
