<?xml version="1.0" encoding="utf-8"?>
<!-- Generator: Adobe Illustrator 27.3.1, SVG Export Plug-In . SVG Version: 6.00 Build 0)  -->
<svg version="1.1" id="Layer_1" xmlns="http://www.w3.org/2000/svg" xmlns:xlink="http://www.w3.org/1999/xlink" x="0px" y="0px"
	 viewBox="0 0 256 149.4" style="enable-background:new 0 0 256 149.4;" xml:space="preserve">
<style type="text/css">
	.st0{fill:#020202;}
</style>
<g>
	<g>
		<g>
			<g>
				<path class="st0" d="M89,50.7c0,0-3.7-2.9-5.6-4.7c-1.9-1.9-5.8-8.2-5.8-8.2c8.2-30.6,32.2-34.7,48.1-37.5l1.9-0.3l3.3,18.5
					l-1.9,0.3C113.9,21.5,96.3,27.4,89,50.7z"/>
			</g>
		</g>
	</g>
	<g>
		<g>
			<g>
				<path class="st0" d="M125.8,81.2L125.8,81.2c-30.2,0-53.8-11.2-65.5-30.5c-2.1-3.5,12.7-17.1,12.7-17.1
					c6,18.3,25.2,28.8,52.7,28.8c24.5,0,56.1-22.6,56.6-36.4c0,0,17,10.8,14.2,15.7C184.4,63.1,150.9,81.2,125.8,81.2z"/>
			</g>
		</g>
	</g>
	<g>
		<g>
			<g>
				<path class="st0" d="M126.2,149.4c-0.1,0-0.3,0-0.4,0c-13.8,0-29.5-1.8-38.9-10.6c-6.3-5.9-13.8-25.3-13.8-25.3
					c13.9,11,32.6,17.1,52.7,17.2c20,0,36.2-3.6,54.5-12.3c0,0-4.7,18.2-14,23.2C154.6,147.7,140.5,149.4,126.2,149.4z"/>
			</g>
		</g>
	</g>
	<g>
		<g>
			<g>
				<path class="st0" d="M88.7,112.3c-10.7,0-19.6-1.1-26.3-2.2c-8-1.4-6-20.6-6-20.6c0.1,0,32.4,10.2,73.8-2
					c34-10,54.5-22.2,64.7-38.5c0,0,8.3,20.5,3.2,25.2c-13.9,12.8-34.3,23-62.6,31.3C118,110.7,102,112.3,88.7,112.3z"/>
			</g>
		</g>
	</g>
	<g>
		<g>
			<g>
				<path class="st0" d="M97.4,122.8c8.8,3,18.5,4.5,28.4,4.6h0.3c3.4,0,6.6-0.2,9.8-0.4c-2.5-1.6-4.9-3.2-7.4-4.7
					c-4.8-3-9.4-5.9-13.5-9c-8.1,1.3-16.3,2-24.5,2.1C92.8,118.1,95.1,120.6,97.4,122.8z"/>
			</g>
		</g>
	</g>
	<g>
		<g>
			<g>
				<path class="st0" d="M118.9,112.7c14.4,4.4,28.5,6.2,41.3,6.2c8.6,0,19-2,25.9-5.5c8-4,10.4-20.1,10.4-20.1
					c-0.6,1.5-16.1,6.7-35.9,6.9c-7.4,3-15.4,5.8-24.2,8.4C130.7,110.2,124.8,111.6,118.9,112.7z"/>
			</g>
		</g>
		<g>
			<g>
				<path class="st0" d="M108.3,89C82.8,79,67.1,68,61.6,56.1c0,0-9,20.8-3.1,26.2c2.4,2.2,5.1,4.2,7.8,6.2
					c5.4,0.9,13.1,1.8,22.3,1.8C95.2,90.3,101.8,89.9,108.3,89z"/>
			</g>
		</g>
	</g>
	<g>
		<g>
			<g>
				<path class="st0" d="M112.1,58l-18.2-4.4c2.8-12.2,13.8-21.9,30.1-27.1c19.5-6.2,41.6-2.7,51.7,9l-14.2,12.3
					c-3.2-3.7-18.4-6.6-32.9-3C119.4,47.1,113.2,53.3,112.1,58z"/>
			</g>
		</g>
	</g>
</g>
</svg>
