<?xml version="1.0" encoding="utf-8"?>
<!-- Generator: Adobe Illustrator 27.3.1, SVG Export Plug-In . SVG Version: 6.00 Build 0)  -->
<svg version="1.1" id="Layer_1" xmlns="http://www.w3.org/2000/svg" xmlns:xlink="http://www.w3.org/1999/xlink" x="0px" y="0px"
	 viewBox="0 0 256 149.4" style="enable-background:new 0 0 256 149.4;" xml:space="preserve">
<style type="text/css">
	.st0{fill:#020202;}
</style>
<g>
	<g>
		<g>
			<path class="st0" d="M248.2,66.4c9.6,18.8,11.1,42.8,0.3,42.7c-10.7-0.1-24.8-6.5-34.4-25.2c-9.6-18.8-9.7-37.9-0.3-42.7
				C223.2,36.3,238.6,47.6,248.2,66.4z"/>
		</g>
	</g>
	<g>
		<g>
			<path class="st0" d="M202.7,47.6c1.5-4.1,4-7.2,7.4-9c1.3-0.7,2.8-1.1,4.3-1.3l0-0.1H16.7c-0.7,0-1.4,0-2,0h-2.1l0.1,0.3
				c-1.2,0.2-2.4,0.6-3.6,1.2c-3.4,1.8-5.9,4.9-7.4,9H202.7z"/>
		</g>
	</g>
	<g>
		<g>
			<path class="st0" d="M202.7,71.2c-1.6-6.4-2.1-12.6-1.4-17.8H0.3c-0.7,5.2-0.2,11.4,1.4,17.8H202.7z"/>
		</g>
	</g>
	<g>
		<g>
			<g>
				<path class="st0" d="M213.8,94.9c-2-2.6-3.9-5.6-5.6-8.9c-1.5-3-2.8-6-3.8-8.9H3.4c1,3,2.3,5.9,3.8,8.9c1.7,3.3,3.6,6.3,5.6,8.9
					H213.8z"/>
			</g>
		</g>
		<g>
			<g>
				<path class="st0" d="M18,100.7c9.2,8.8,19.8,11.8,28.7,11.5c0.2,0,0.4,0,0.6-0.1h197.2c-8.2-0.5-17.4-3.7-25.5-11.4H18z"/>
			</g>
		</g>
	</g>
</g>
</svg>
