<?xml version="1.0" encoding="utf-8"?>
<!-- Generator: Adobe Illustrator 27.3.1, SVG Export Plug-In . SVG Version: 6.00 Build 0)  -->
<svg version="1.1" id="Layer_1" xmlns="http://www.w3.org/2000/svg" xmlns:xlink="http://www.w3.org/1999/xlink" x="0px" y="0px"
	 viewBox="0 0 256 149.4" style="enable-background:new 0 0 256 149.4;" xml:space="preserve">
<g>
	<g>
		<g>
			<path d="M198.9,50.5c-4.1-4.2-4.1-12.8,0-17c5-5.1,5-15.2,0-20.4c-4.5-4.6-4.7-4.8-9.4-9.4c-2.5-2.4-6.2-3.7-10.2-3.7
				c-4,0-7.7,1.4-10.2,3.7c-2,1.9-5.1,3.1-8.5,3.1c-3.4,0-6.5-1.1-8.5-3.1C149.8,1.4,146,0,142,0c-4,0-7.7,1.4-10.2,3.7
				c-2,1.9-5.1,3.1-8.5,3.1c-3.4,0-6.5-1.1-8.5-3.1c-2.5-2.4-6.2-3.7-10.2-3.7c-4,0-7.7,1.4-10.2,3.7c-2,1.9-5.1,3.1-8.5,3.1
				c-3.4,0-6.5-1.1-8.5-3.1C75,1.4,71.3,0,67.3,0c-4,0-7.7,1.4-10.2,3.7l-0.9,0.9l0.8,0.9c4.1,4.2,4.1,12.8,0,17
				c-5,5.2-5,15.2,0,20.4c4.1,4.2,4.1,12.8,0,17c-5,5.1-5,15.2,0,20.4c4.1,4.2,4.1,12.8,0,17c-5,5.1-5,15.2,0,20.4
				c4.1,4.2,4.1,12.8,0,17c-1.7,1.7-2,4.1-1,6.6c1.4,3.4,5,6,8.2,6c1.5,0,2.8-0.5,3.9-1.6c2-1.9,5.1-3.1,8.5-3.1
				c3.4,0,6.5,1.1,8.5,3.1c2.5,2.4,6.2,3.7,10.2,3.7c4,0,7.7-1.4,10.2-3.7c2-1.9,5.1-3.1,8.5-3.1c3.4,0,6.5,1.1,8.5,3.1
				c2.5,2.4,6.2,3.7,10.2,3.7c4,0,7.7-1.4,10.2-3.7c2-1.9,5.1-3.1,8.5-3.1c3.4,0,6.5,1.1,8.5,3.1c2.5,2.4,6.2,3.7,10.2,3.7
				c4,0,7.7-1.4,10.2-3.7c2-1.9,5.1-3.1,8.5-3.1c3.4,0,6.5,1.1,8.5,3.1l0.9,0.9l0.9-0.9c5-5.1,5-15.2,0-20.4c-4.1-4.2-4.1-12.8,0-17
				c5-5.1,5-15.2,0-20.4c-4.1-4.2-4.1-12.8,0-17C203.9,65.7,203.9,55.6,198.9,50.5z M183.1,104.1c0,14.2-11.5,25.7-25.7,25.7H98.6
				c-14.2,0-25.7-11.5-25.7-25.7V45.3c0-14.2,11.5-25.7,25.7-25.7h58.8c14.2,0,25.7,11.5,25.7,25.7V104.1z"/>
		</g>
	</g>
	<g>
		<g>
			<path d="M177.8,105.1c-0.1,11-9.1,19.9-20.1,19.8l-60.2-0.5c-11-0.1-19.9-9.1-19.8-20.1l0.5-60.2c0.1-11,9.1-19.9,20.1-19.8
				l60.2,0.5c11,0.1,19.9,9.1,19.8,20.1L177.8,105.1z"/>
		</g>
	</g>
</g>
</svg>
