<?xml version="1.0" encoding="utf-8"?>
<!-- Generator: Adobe Illustrator 27.3.1, SVG Export Plug-In . SVG Version: 6.00 Build 0)  -->
<svg version="1.1" id="Layer_1" xmlns="http://www.w3.org/2000/svg" xmlns:xlink="http://www.w3.org/1999/xlink" x="0px" y="0px"
	 viewBox="0 0 256 149.4" style="enable-background:new 0 0 256 149.4;" xml:space="preserve">
<style type="text/css">
	.st0{fill:#E69A29;}
	.st1{fill:#AD6F11;}
	
		.st2{clip-path:url(#SVGID_00000131351863676637168870000008351886688534485663_);fill:url(#SVGID_00000082329239189667021910000000426845149378831776_);}
	
		.st3{clip-path:url(#SVGID_00000131351863676637168870000008351886688534485663_);fill:url(#SVGID_00000122719502206334180410000002829660348105616545_);}
	
		.st4{clip-path:url(#SVGID_00000131351863676637168870000008351886688534485663_);fill:url(#SVGID_00000065784378690629361720000003923074430606545546_);}
	
		.st5{clip-path:url(#SVGID_00000131351863676637168870000008351886688534485663_);fill:url(#SVGID_00000141454737491431947040000010741559353861264268_);}
	
		.st6{clip-path:url(#SVGID_00000131351863676637168870000008351886688534485663_);fill:url(#SVGID_00000078725544285044483810000015061689280246461375_);}
	
		.st7{clip-path:url(#SVGID_00000131351863676637168870000008351886688534485663_);fill:url(#SVGID_00000022549533193075976680000018069427555525642133_);}
	
		.st8{clip-path:url(#SVGID_00000131351863676637168870000008351886688534485663_);fill:url(#SVGID_00000037653746551240067990000013886372065184577956_);}
	
		.st9{clip-path:url(#SVGID_00000131351863676637168870000008351886688534485663_);fill:url(#SVGID_00000068677069022329408110000011658021698381868941_);}
	
		.st10{clip-path:url(#SVGID_00000131351863676637168870000008351886688534485663_);fill:url(#SVGID_00000047768726096051845060000002170022122957344404_);}
</style>
<g>
	<g>
		<g>
			<image style="overflow:visible;" width="240" height="68" xlink:href="B4FE3EEE.png"  transform="matrix(1 0 0 1 9 11)">
			</image>
		</g>
		<path class="st0" d="M248.2,14.5c-0.1,0-0.4-0.5-0.6-1.2c-0.2-0.7-0.2-1.3-0.1-1.3c0.1,0,0.4,0.5,0.6,1.2
			C248.3,13.9,248.3,14.5,248.2,14.5z"/>
		<path class="st1" d="M248.1,14.2c-0.1,0-0.2-0.4-0.4-0.9c-0.1-0.5-0.2-0.9-0.1-0.9c0.1,0,0.2,0.4,0.4,0.9
			C248.1,13.7,248.2,14.2,248.1,14.2z"/>
	</g>
	<g>
		<g>
			<image style="overflow:visible;" width="245" height="42" xlink:href="B4FE3EF2.png"  transform="matrix(1 0 0 1 4 27)">
			</image>
		</g>
		<path class="st0" d="M248.4,29.9c-0.1,0-0.3-0.5-0.4-1.3c-0.1-0.7-0.1-1.3,0-1.3c0.1,0,0.3,0.5,0.4,1.3
			C248.5,29.3,248.5,29.9,248.4,29.9z"/>
		<path class="st1" d="M248.3,29.6c-0.1,0-0.2-0.4-0.3-0.9c-0.1-0.5-0.1-0.9,0-1c0.1,0,0.2,0.4,0.3,0.9
			C248.4,29.1,248.4,29.6,248.3,29.6z"/>
	</g>
	<g>
		<g>
			<image style="overflow:visible;" width="247" height="21" xlink:href="B4FE3EF5.png"  transform="matrix(1 0 0 1 4 45)">
			</image>
		</g>
		<path class="st0" d="M250.4,48.6c-0.1,0-0.3-0.6-0.3-1.3c-0.1-0.7,0-1.3,0.1-1.3c0.1,0,0.3,0.6,0.3,1.3
			C250.6,48,250.5,48.6,250.4,48.6z"/>
		<path class="st1" d="M250.4,48.2c-0.1,0-0.1-0.4-0.2-0.9c0-0.5,0-1,0.1-1c0.1,0,0.2,0.4,0.2,0.9C250.5,47.8,250.4,48.2,250.4,48.2
			z"/>
	</g>
	<g>
		<g>
			<image style="overflow:visible;" width="247" height="14" xlink:href="B4FE3EF6.png"  transform="matrix(1 0 0 1 5 58)">
			</image>
		</g>
		<path class="st0" d="M251.8,61.5c-0.1,0-0.2-0.6-0.3-1.3c0-0.7,0.1-1.3,0.2-1.3c0.1,0,0.2,0.6,0.3,1.3
			C252,60.9,251.9,61.5,251.8,61.5z"/>
		<path class="st1" d="M251.8,61.2c-0.1,0-0.1-0.4-0.2-0.9c0-0.5,0-1,0.1-1c0.1,0,0.1,0.4,0.2,0.9C251.9,60.7,251.8,61.2,251.8,61.2
			z"/>
	</g>
	<g>
		<g>
			<image style="overflow:visible;" width="248" height="7" xlink:href="B4FE3EF4.png"  transform="matrix(1 0 0 1 5 62)">
			</image>
		</g>
		<path class="st0" d="M252.2,68c-0.1,0-0.2-0.6-0.2-1.3c0-0.7,0.1-1.3,0.2-1.3c0.1,0,0.2,0.6,0.2,1.3C252.5,67.4,252.3,68,252.2,68
			z"/>
		<path class="st1" d="M252.2,67.7c-0.1,0-0.1-0.4-0.1-0.9c0-0.5,0.1-1,0.1-0.9c0.1,0,0.1,0.4,0.1,0.9
			C252.4,67.2,252.3,67.7,252.2,67.7z"/>
	</g>
	<g>
		<g>
			<image style="overflow:visible;" width="247" height="11" xlink:href="B4FE3EF3.png"  transform="matrix(1 0 0 1 5 63)">
			</image>
		</g>
		<path class="st0" d="M251.6,73.6c-0.1,0-0.2-0.6-0.2-1.3c0-0.7,0.1-1.3,0.3-1.3c0.1,0,0.2,0.6,0.2,1.3
			C251.8,73,251.7,73.6,251.6,73.6z"/>
		<path class="st1" d="M251.6,73.2c-0.1,0-0.1-0.4-0.1-1c0-0.5,0.1-0.9,0.2-0.9c0.1,0,0.1,0.4,0.1,1
			C251.7,72.8,251.7,73.2,251.6,73.2z"/>
	</g>
	<g>
		<g>
			<image style="overflow:visible;" width="248" height="4" xlink:href="B4FE3EFD.png"  transform="matrix(1 0 0 1 4 75)">
			</image>
		</g>
		<ellipse class="st0" cx="251.4" cy="77.2" rx="0.2" ry="1.3"/>
		<path class="st1" d="M251.4,78.2c-0.1,0-0.1-0.4-0.1-0.9c0-0.5,0.1-1,0.1-0.9c0.1,0,0.1,0.4,0.1,0.9
			C251.5,77.7,251.5,78.2,251.4,78.2z"/>
	</g>
	<g>
		<g>
			<image style="overflow:visible;" width="247" height="10" xlink:href="B4FE3EFE.png"  transform="matrix(1 0 0 1 5 82)">
			</image>
		</g>
		<path class="st0" d="M251.9,91.6c-0.1,0-0.2-0.6-0.2-1.3c0-0.7,0.1-1.3,0.3-1.3c0.1,0,0.2,0.6,0.2,1.3
			C252.1,91,252,91.6,251.9,91.6z"/>
		<path class="st1" d="M251.9,91.2c-0.1,0-0.1-0.4-0.1-1c0-0.5,0.1-1,0.2-0.9c0.1,0,0.1,0.4,0.1,0.9C252,90.8,252,91.2,251.9,91.2z"
			/>
	</g>
	<g>
		<g>
			<image style="overflow:visible;" width="247" height="24" xlink:href="B4FE3EFC.png"  transform="matrix(1 0 0 1 6 75)">
			</image>
		</g>
		<path class="st0" d="M251.9,98.1c-0.1,0-0.2-0.6-0.1-1.3c0.1-0.7,0.2-1.3,0.3-1.3c0.1,0,0.2,0.6,0.1,1.3
			C252.2,97.5,252,98.1,251.9,98.1z"/>
		<path class="st1" d="M251.9,97.7c-0.1,0-0.1-0.4,0-1c0-0.5,0.1-0.9,0.2-0.9c0.1,0,0.1,0.4,0.1,1C252.1,97.3,252,97.7,251.9,97.7z"
			/>
	</g>
	<g>
		<g>
			<image style="overflow:visible;" width="247" height="27" xlink:href="28BF18B1.png"  transform="matrix(1 0 0 1 5 77)">
			</image>
		</g>
		<path class="st0" d="M250.9,103.6c-0.1,0-0.2-0.6-0.1-1.3c0.1-0.7,0.2-1.3,0.3-1.3c0.1,0,0.2,0.6,0.1,1.3
			C251.2,103,251,103.6,250.9,103.6z"/>
		<path class="st1" d="M250.9,103.2c-0.1,0-0.1-0.4,0-1c0.1-0.5,0.1-0.9,0.2-0.9c0.1,0,0.1,0.4,0,1
			C251.1,102.8,251,103.2,250.9,103.2z"/>
	</g>
	<g>
		<g>
			<image style="overflow:visible;" width="247" height="22" xlink:href="28BF18B7.png"  transform="matrix(1 0 0 1 6 84)">
			</image>
		</g>
		<path class="st0" d="M251.9,105.2c-0.1,0-0.2-0.6-0.1-1.3c0.1-0.7,0.2-1.3,0.3-1.3c0.1,0,0.2,0.6,0.1,1.3
			C252.2,104.7,252.1,105.2,251.9,105.2z"/>
		<path class="st1" d="M252,104.9c-0.1,0-0.1-0.4-0.1-1c0-0.5,0.1-0.9,0.2-0.9c0.1,0,0.1,0.4,0.1,1C252.1,104.4,252,104.9,252,104.9
			z"/>
	</g>
	<g>
		<g>
			<image style="overflow:visible;" width="247" height="14" xlink:href="28BF18B0.png"  transform="matrix(1 0 0 1 6 80)">
			</image>
		</g>
		<path class="st0" d="M252.7,93.9c-0.1,0-0.2-0.6-0.2-1.3c0-0.7,0.2-1.3,0.3-1.3c0.1,0,0.2,0.6,0.2,1.3
			C252.9,93.3,252.8,93.9,252.7,93.9z"/>
		<path class="st1" d="M252.7,93.5c-0.1,0-0.1-0.4-0.1-1c0-0.5,0.1-0.9,0.2-0.9c0.1,0,0.1,0.4,0.1,1
			C252.8,93.1,252.8,93.5,252.7,93.5z"/>
	</g>
	<g>
		<g>
			<image style="overflow:visible;" width="247" height="21" xlink:href="28BF18B3.png"  transform="matrix(1 0 0 1 6 86)">
			</image>
		</g>
		<path class="st0" d="M252.6,106.9c-0.1,0-0.2-0.6-0.1-1.3s0.2-1.3,0.3-1.3c0.1,0,0.2,0.6,0.1,1.3
			C252.9,106.4,252.7,106.9,252.6,106.9z"/>
		<path class="st1" d="M252.6,106.6c-0.1,0-0.1-0.4-0.1-1c0-0.5,0.1-0.9,0.2-0.9c0.1,0,0.1,0.4,0.1,1
			C252.8,106.1,252.7,106.6,252.6,106.6z"/>
	</g>
	<g>
		<g>
			<image style="overflow:visible;" width="246" height="34" xlink:href="28BF18AF.png"  transform="matrix(1 0 0 1 7 80)">
			</image>
		</g>
		<path class="st0" d="M252.3,113.4c-0.1,0-0.1-0.6-0.1-1.3c0.1-0.7,0.3-1.3,0.4-1.3c0.1,0,0.2,0.6,0.1,1.3
			C252.6,112.9,252.5,113.5,252.3,113.4z"/>
		<path class="st1" d="M252.4,113.1c-0.1,0-0.1-0.4,0-1c0.1-0.5,0.2-0.9,0.2-0.9c0.1,0,0.1,0.4,0,1
			C252.6,112.7,252.5,113.1,252.4,113.1z"/>
	</g>
	<g>
		<g>
			<image style="overflow:visible;" width="247" height="10" xlink:href="28BF18CF.png"  transform="matrix(1 0 0 1 5 95)">
			</image>
		</g>
		<path class="st0" d="M251.6,104.4c-0.1,0-0.2-0.6-0.2-1.3c0-0.7,0.1-1.3,0.3-1.3c0.1,0,0.2,0.6,0.2,1.3
			C251.9,103.8,251.7,104.4,251.6,104.4z"/>
		<path class="st1" d="M251.6,104c-0.1,0-0.1-0.4-0.1-1c0-0.5,0.1-0.9,0.1-0.9c0.1,0,0.1,0.4,0.1,1C251.8,103.6,251.7,104,251.6,104
			z"/>
	</g>
	<g>
		<g>
			<image style="overflow:visible;" width="246" height="30" xlink:href="28BF18D1.png"  transform="matrix(1 0 0 1 7 85)">
			</image>
		</g>
		<path class="st0" d="M252.4,114.9c-0.1,0-0.2-0.6-0.1-1.3c0.1-0.7,0.3-1.3,0.4-1.3c0.1,0,0.2,0.6,0.1,1.3
			C252.7,114.4,252.5,114.9,252.4,114.9z"/>
		<path class="st1" d="M252.4,114.5c-0.1,0-0.1-0.4,0-1c0.1-0.5,0.2-0.9,0.2-0.9c0.1,0,0.1,0.4,0,1
			C252.6,114.1,252.5,114.6,252.4,114.5z"/>
	</g>
	<g>
		<g>
			<image style="overflow:visible;" width="245" height="38" xlink:href="28BF18D3.png"  transform="matrix(1 0 0 1 7 66)">
			</image>
		</g>
		<path class="st0" d="M251.3,103.1c-0.1,0-0.1-0.6,0-1.3c0.1-0.7,0.3-1.3,0.4-1.3c0.1,0,0.1,0.6,0,1.3
			C251.6,102.6,251.4,103.2,251.3,103.1z"/>
		<path class="st1" d="M251.3,102.8c-0.1,0-0.1-0.4,0-1c0.1-0.5,0.2-0.9,0.2-0.9c0.1,0,0.1,0.4,0,1
			C251.5,102.4,251.4,102.8,251.3,102.8z"/>
	</g>
	<g>
		<g>
			<image style="overflow:visible;" width="244" height="50" xlink:href="28BF18D0.png"  transform="matrix(1 0 0 1 8 60)">
			</image>
		</g>
		<path class="st0" d="M250.5,109.6c-0.1,0-0.1-0.6,0-1.3c0.1-0.7,0.3-1.3,0.5-1.3c0.1,0,0.1,0.6,0,1.3
			C250.9,109.1,250.6,109.6,250.5,109.6z"/>
		<path class="st1" d="M250.6,109.3c-0.1,0,0-0.4,0.1-1c0.1-0.5,0.2-0.9,0.3-0.9c0.1,0,0,0.4-0.1,1
			C250.8,108.9,250.7,109.3,250.6,109.3z"/>
	</g>
	<g>
		<g>
			<image style="overflow:visible;" width="243" height="54" xlink:href="28BF18D7.png"  transform="matrix(1 0 0 1 7 61)">
			</image>
		</g>
		<path class="st0" d="M248.9,115c-0.1,0-0.1-0.6,0-1.3c0.2-0.7,0.4-1.3,0.5-1.2c0.1,0,0.1,0.6-0.1,1.3
			C249.2,114.5,249,115,248.9,115z"/>
		<path class="st1" d="M249,114.6c-0.1,0,0-0.4,0.1-1c0.1-0.5,0.3-0.9,0.3-0.9c0.1,0,0,0.4-0.1,0.9C249.2,114.2,249,114.6,249,114.6
			z"/>
	</g>
	<g>
		<g>
			<image style="overflow:visible;" width="244" height="48" xlink:href="28BF18F4.png"  transform="matrix(1 0 0 1 7 69)">
			</image>
		</g>
		<path class="st0" d="M249.8,116.7c-0.1,0-0.1-0.6,0-1.3c0.1-0.7,0.3-1.3,0.5-1.3c0.1,0,0.1,0.6,0,1.3
			C250.1,116.2,249.9,116.8,249.8,116.7z"/>
		<path class="st1" d="M249.8,116.4c-0.1,0,0-0.4,0.1-1c0.1-0.5,0.2-0.9,0.3-0.9c0.1,0,0,0.4-0.1,1C250,116,249.9,116.4,249.8,116.4
			z"/>
	</g>
	<g>
		<g>
			<image style="overflow:visible;" width="248" height="11" xlink:href="28BF18F7.png"  transform="matrix(1 0 0 1 4 76)">
			</image>
		</g>
		<path class="st0" d="M251.4,86.8c-0.1,0-0.2-0.6-0.2-1.3c0-0.7,0.1-1.3,0.3-1.3c0.1,0,0.2,0.6,0.2,1.3
			C251.6,86.2,251.5,86.8,251.4,86.8z"/>
		<path class="st1" d="M251.4,86.4c-0.1,0-0.1-0.4-0.1-1c0-0.5,0.1-0.9,0.1-0.9s0.1,0.4,0.1,1C251.5,86,251.5,86.4,251.4,86.4z"/>
	</g>
	<g>
		<g>
			<image style="overflow:visible;" width="248" height="4" xlink:href="28BF18F5.png"  transform="matrix(1 0 0 1 4 89)">
			</image>
		</g>
		<path class="st0" d="M251.2,91.7c-0.1,0-0.2-0.6-0.2-1.3c0-0.7,0.1-1.3,0.2-1.3c0.1,0,0.2,0.6,0.2,1.3
			C251.4,91.1,251.3,91.7,251.2,91.7z"/>
		<path class="st1" d="M251.2,91.3c-0.1,0-0.1-0.4-0.1-0.9c0-0.5,0.1-1,0.1-1c0.1,0,0.1,0.4,0.1,1C251.3,90.9,251.3,91.3,251.2,91.3
			z"/>
	</g>
	<g>
		<g>
			<image style="overflow:visible;" width="247" height="10" xlink:href="28BF18FB.png"  transform="matrix(1 0 0 1 5 95)">
			</image>
		</g>
		<path class="st0" d="M251.7,104.7c-0.1,0-0.2-0.6-0.2-1.3c0-0.7,0.1-1.3,0.3-1.3c0.1,0,0.2,0.6,0.2,1.3
			C251.9,104.2,251.8,104.7,251.7,104.7z"/>
		<path class="st1" d="M251.7,104.4c-0.1,0-0.1-0.4-0.1-1c0-0.5,0.1-0.9,0.1-0.9c0.1,0,0.1,0.4,0.1,1
			C251.8,103.9,251.8,104.4,251.7,104.4z"/>
	</g>
	<g>
		<g>
			<image style="overflow:visible;" width="246" height="23" xlink:href="28BF18FC.png"  transform="matrix(1 0 0 1 6 89)">
			</image>
		</g>
		<path class="st0" d="M251.7,111.3c-0.1,0-0.2-0.6-0.1-1.3c0.1-0.7,0.2-1.3,0.3-1.3c0.1,0,0.2,0.6,0.1,1.3
			C252,110.7,251.8,111.3,251.7,111.3z"/>
		<path class="st1" d="M251.7,110.9c-0.1,0-0.1-0.4-0.1-1c0-0.5,0.1-0.9,0.2-0.9c0.1,0,0.1,0.4,0.1,1
			C251.9,110.5,251.8,110.9,251.7,110.9z"/>
	</g>
	<g>
		<g>
			<image style="overflow:visible;" width="246" height="27" xlink:href="28BF18FF.png"  transform="matrix(1 0 0 1 5 90)">
			</image>
		</g>
		<path class="st0" d="M250.7,116.8c-0.1,0-0.2-0.6-0.1-1.3c0.1-0.7,0.2-1.3,0.4-1.3c0.1,0,0.2,0.6,0.1,1.3
			C251,116.2,250.8,116.8,250.7,116.8z"/>
		<path class="st1" d="M250.7,116.4c-0.1,0-0.1-0.4,0-1c0-0.5,0.1-0.9,0.2-0.9c0.1,0,0.1,0.4,0,1C250.9,116,250.8,116.4,250.7,116.4
			z"/>
	</g>
	<g>
		<g>
			<image style="overflow:visible;" width="248" height="14" xlink:href="28BF18FD.png"  transform="matrix(1 0 0 1 5 101)">
			</image>
		</g>
		<path class="st0" d="M252.2,103.8c-0.1,0-0.2-0.6-0.3-1.3c0-0.7,0.1-1.3,0.2-1.3c0.1,0,0.2,0.6,0.3,1.3
			C252.4,103.2,252.3,103.8,252.2,103.8z"/>
		<path class="st1" d="M252.2,103.4c-0.1,0-0.1-0.4-0.2-0.9c0-0.5,0-1,0.1-1c0.1,0,0.1,0.4,0.2,0.9
			C252.3,103,252.3,103.4,252.2,103.4z"/>
	</g>
	<g>
		<g>
			<image style="overflow:visible;" width="247" height="14" xlink:href="28BF18FA.png"  transform="matrix(1 0 0 1 6 94)">
			</image>
		</g>
		<path class="st0" d="M252.5,107.1c-0.1,0-0.2-0.6-0.2-1.3c0-0.7,0.2-1.3,0.3-1.3c0.1,0,0.2,0.6,0.2,1.3
			C252.7,106.5,252.6,107.1,252.5,107.1z"/>
		<path class="st1" d="M252.5,106.7c-0.1,0-0.1-0.4-0.1-1c0-0.5,0.1-1,0.2-0.9c0.1,0,0.1,0.4,0.1,1
			C252.6,106.3,252.6,106.7,252.5,106.7z"/>
	</g>
	<g>
		<g>
			<image style="overflow:visible;" width="248" height="15" xlink:href="28BF18F6.png"  transform="matrix(1 0 0 1 6 102)">
			</image>
		</g>
		<path class="st0" d="M253.1,105.4c-0.1,0-0.3-0.6-0.3-1.3c0-0.7,0-1.3,0.2-1.3c0.1,0,0.3,0.6,0.3,1.3
			C253.3,104.8,253.2,105.4,253.1,105.4z"/>
		<path class="st1" d="M253.1,105.1c-0.1,0-0.2-0.4-0.2-0.9c0-0.5,0-0.9,0.1-0.9c0.1,0,0.1,0.4,0.2,0.9
			C253.2,104.6,253.1,105.1,253.1,105.1z"/>
	</g>
	<g>
		<g>
			<image style="overflow:visible;" width="245" height="34" xlink:href="28BF18C9.png"  transform="matrix(1 0 0 1 9 74)">
			</image>
		</g>
		<path class="st0" d="M253.6,107c-0.1,0-0.1-0.6-0.1-1.3c0.1-0.7,0.3-1.3,0.4-1.3c0.1,0,0.1,0.6,0.1,1.3
			C253.9,106.5,253.7,107,253.6,107z"/>
		<path class="st1" d="M253.6,106.6c-0.1,0-0.1-0.4,0-1c0.1-0.5,0.2-0.9,0.2-0.9c0.1,0,0.1,0.4,0,1
			C253.8,106.2,253.7,106.7,253.6,106.6z"/>
	</g>
	<g>
		<g>
			<image style="overflow:visible;" width="245" height="38" xlink:href="28BF191B.png"  transform="matrix(1 0 0 1 8 75)">
			</image>
		</g>
		<path class="st0" d="M252.3,112.5c-0.1,0-0.2-0.6,0-1.3c0.1-0.7,0.3-1.3,0.4-1.3c0.1,0,0.1,0.6,0,1.3
			C252.6,111.9,252.5,112.5,252.3,112.5z"/>
		<path class="st1" d="M252.4,112.1c-0.1,0-0.1-0.4,0-1c0.1-0.5,0.2-0.9,0.3-0.9c0.1,0,0.1,0.4,0,1
			C252.6,111.7,252.5,112.1,252.4,112.1z"/>
	</g>
	<g>
		<g>
			<image style="overflow:visible;" width="246" height="31" xlink:href="28BF1919.png"  transform="matrix(1 0 0 1 8 78)">
			</image>
		</g>
		<path class="st0" d="M253.6,108.5c-0.1,0-0.2-0.6-0.1-1.3c0.1-0.7,0.2-1.3,0.4-1.3c0.1,0,0.2,0.6,0.1,1.3
			C253.9,107.9,253.8,108.5,253.6,108.5z"/>
		<path class="st1" d="M253.7,108.1c-0.1,0-0.1-0.4,0-1c0.1-0.5,0.2-0.9,0.2-0.9c0.1,0,0.1,0.4,0,1
			C253.9,107.7,253.8,108.1,253.7,108.1z"/>
	</g>
	<g>
		<g>
			<image style="overflow:visible;" width="245" height="38" xlink:href="28BF1927.png"  transform="matrix(1 0 0 1 7 79)">
			</image>
		</g>
		<path class="st0" d="M251,116.3c-0.1,0-0.1-0.6,0-1.3c0.1-0.7,0.3-1.3,0.4-1.3c0.1,0,0.1,0.6,0,1.3
			C251.4,115.8,251.2,116.4,251,116.3z"/>
		<path class="st1" d="M251.1,116c-0.1,0-0.1-0.4,0-1c0.1-0.5,0.2-0.9,0.2-0.9c0.1,0,0.1,0.4,0,1C251.3,115.6,251.2,116,251.1,116z"
			/>
	</g>
	<g>
		<g>
			<image style="overflow:visible;" width="247" height="22" xlink:href="28BF1929.png"  transform="matrix(1 0 0 1 5 87)">
			</image>
		</g>
		<path class="st0" d="M251.3,108.3c-0.1,0-0.2-0.6-0.1-1.3c0.1-0.7,0.2-1.3,0.3-1.3c0.1,0,0.2,0.6,0.1,1.3
			C251.6,107.8,251.4,108.4,251.3,108.3z"/>
		<path class="st1" d="M251.3,108c-0.1,0-0.1-0.4-0.1-1c0-0.5,0.1-0.9,0.2-0.9c0.1,0,0.1,0.4,0.1,1C251.5,107.6,251.4,108,251.3,108
			z"/>
	</g>
	<g>
		<g>
			<image style="overflow:visible;" width="247" height="26" xlink:href="28BF192B.png"  transform="matrix(1 0 0 1 4 88)">
			</image>
		</g>
		<path class="st0" d="M250.3,113.9c-0.1,0-0.2-0.6-0.1-1.3c0.1-0.7,0.2-1.3,0.3-1.3c0.1,0,0.2,0.6,0.1,1.3
			C250.6,113.3,250.5,113.9,250.3,113.9z"/>
		<path class="st1" d="M250.4,113.5c-0.1,0-0.1-0.4,0-1c0.1-0.5,0.1-0.9,0.2-0.9c0.1,0,0.1,0.4,0,1
			C250.5,113.1,250.4,113.5,250.4,113.5z"/>
	</g>
	<g>
		<g>
			<image style="overflow:visible;" width="247" height="20" xlink:href="28BF192E.png"  transform="matrix(1 0 0 1 5 96)">
			</image>
		</g>
		<path class="st0" d="M251.4,115.5c-0.1,0-0.2-0.6-0.1-1.3c0.1-0.7,0.2-1.3,0.3-1.3c0.1,0,0.2,0.6,0.1,1.3
			C251.7,114.9,251.5,115.5,251.4,115.5z"/>
		<path class="st1" d="M251.4,115.1c-0.1,0-0.1-0.4-0.1-1c0-0.5,0.1-0.9,0.2-0.9c0.1,0,0.1,0.4,0.1,1
			C251.6,114.7,251.5,115.1,251.4,115.1z"/>
	</g>
	<g>
		<g>
			<image style="overflow:visible;" width="246" height="30" xlink:href="28BF192F.png"  transform="matrix(1 0 0 1 1 78)">
			</image>
		</g>
		<path class="st0" d="M246.5,107.2c-0.1,0-0.2-0.6-0.1-1.3c0.1-0.7,0.2-1.3,0.4-1.3c0.1,0,0.2,0.6,0.1,1.3
			C246.8,106.7,246.6,107.3,246.5,107.2z"/>
		<path class="st1" d="M246.5,106.9c-0.1,0-0.1-0.4,0-1c0.1-0.5,0.2-0.9,0.2-0.9c0.1,0,0.1,0.4,0,1
			C246.7,106.5,246.6,106.9,246.5,106.9z"/>
	</g>
	<g>
		<g>
			<image style="overflow:visible;" width="243" height="51" xlink:href="28BF192A.png"  transform="matrix(1 0 0 1 5 67)">
			</image>
		</g>
		<path class="st0" d="M247.3,117.3c-0.1,0-0.1-0.6,0-1.3c0.2-0.7,0.4-1.3,0.5-1.3c0.1,0,0.1,0.6,0,1.3
			C247.6,116.8,247.4,117.3,247.3,117.3z"/>
		<path class="st1" d="M247.3,116.9c-0.1,0,0-0.4,0.1-1c0.1-0.5,0.2-0.9,0.3-0.9c0.1,0,0,0.4-0.1,1
			C247.5,116.5,247.4,116.9,247.3,116.9z"/>
	</g>
	<g>
		<g>
			<image style="overflow:visible;" width="246" height="29" xlink:href="28BF1925.png"  transform="matrix(1 0 0 1 0 83)">
			</image>
		</g>
		<path class="st0" d="M245.3,111.2c-0.1,0-0.2-0.6-0.1-1.3c0.1-0.7,0.2-1.3,0.4-1.3c0.1,0,0.2,0.6,0.1,1.3
			C245.6,110.6,245.4,111.2,245.3,111.2z"/>
		<path class="st1" d="M245.4,110.8c-0.1,0-0.1-0.4,0-1c0.1-0.5,0.2-0.9,0.2-0.9c0.1,0,0.1,0.4,0,1
			C245.5,110.4,245.4,110.8,245.4,110.8z"/>
	</g>
	<g>
		<g>
			<image style="overflow:visible;" width="245" height="42" xlink:href="28BF1926.png"  transform="matrix(1 0 0 1 1 76)">
			</image>
		</g>
		<path class="st0" d="M244.8,117.7c-0.1,0-0.1-0.6,0-1.3c0.1-0.7,0.3-1.3,0.4-1.3c0.1,0,0.1,0.6,0,1.3
			C245.1,117.1,244.9,117.7,244.8,117.7z"/>
		<path class="st1" d="M244.9,117.3c-0.1,0-0.1-0.4,0-1c0.1-0.5,0.2-0.9,0.3-0.9c0.1,0,0.1,0.4,0,1S244.9,117.3,244.9,117.3z"/>
	</g>
	<g>
		<g>
			<image style="overflow:visible;" width="244" height="46" xlink:href="28BF1902.png"  transform="matrix(1 0 0 1 0 78)">
			</image>
		</g>
		<path class="st0" d="M243.4,123.1c-0.1,0-0.1-0.6,0-1.3c0.1-0.7,0.3-1.3,0.4-1.3c0.1,0,0.1,0.6,0,1.3
			C243.7,122.5,243.5,123.1,243.4,123.1z"/>
		<path class="st1" d="M243.4,122.7c-0.1,0-0.1-0.4,0-1c0.1-0.5,0.2-0.9,0.3-0.9c0.1,0,0.1,0.4,0,1
			C243.6,122.3,243.5,122.7,243.4,122.7z"/>
	</g>
	<g>
		<g>
			<image style="overflow:visible;" width="245" height="40" xlink:href="28BF1901.png"  transform="matrix(1 0 0 1 0 85)">
			</image>
		</g>
		<path class="st0" d="M244.3,124.8c-0.1,0-0.1-0.6,0-1.3c0.1-0.7,0.3-1.3,0.4-1.3c0.1,0,0.1,0.6,0,1.3
			C244.6,124.2,244.4,124.8,244.3,124.8z"/>
		<path class="st1" d="M244.4,124.4c-0.1,0-0.1-0.4,0-1c0.1-0.5,0.2-0.9,0.3-0.9c0.1,0,0.1,0.4,0,1
			C244.5,124,244.4,124.4,244.4,124.4z"/>
	</g>
	<g>
		<g>
			<image style="overflow:visible;" width="247" height="19" xlink:href="28BF1906.png"  transform="matrix(1 0 0 1 0 87)">
			</image>
		</g>
		<path class="st0" d="M246,105.1c-0.1,0-0.2-0.6-0.1-1.3c0-0.7,0.2-1.3,0.3-1.3c0.1,0,0.2,0.6,0.2,1.3
			C246.3,104.6,246.1,105.1,246,105.1z"/>
		<path class="st1" d="M246,104.8c-0.1,0-0.1-0.4-0.1-1c0-0.5,0.1-0.9,0.2-0.9c0.1,0,0.1,0.4,0.1,1
			C246.2,104.3,246.1,104.8,246,104.8z"/>
	</g>
	<g>
		<g>
			<image style="overflow:visible;" width="248" height="12" xlink:href="28BF1900.png"  transform="matrix(1 0 0 1 0 95)">
			</image>
		</g>
		<path class="st0" d="M247.1,106.7c-0.1,0-0.2-0.6-0.2-1.3c0-0.7,0.2-1.3,0.3-1.3c0.1,0,0.2,0.6,0.2,1.3
			C247.4,106.2,247.2,106.8,247.1,106.7z"/>
		<path class="st1" d="M247.1,106.4c-0.1,0-0.1-0.4-0.1-1c0-0.5,0.1-1,0.2-0.9c0.1,0,0.1,0.4,0.1,1
			C247.2,105.9,247.2,106.4,247.1,106.4z"/>
	</g>
	<g>
		<g>
			<image style="overflow:visible;" width="247" height="12" xlink:href="28BF1903.png"  transform="matrix(1 0 0 1 1 97)">
			</image>
		</g>
		<path class="st0" d="M247.8,108.4c-0.1,0-0.2-0.6-0.2-1.3c0-0.7,0.2-1.3,0.3-1.3c0.1,0,0.2,0.6,0.2,1.3
			C248.1,107.8,248,108.4,247.8,108.4z"/>
		<path class="st1" d="M247.9,108c-0.1,0-0.1-0.4-0.1-1c0-0.5,0.1-0.9,0.2-0.9c0.1,0,0.1,0.4,0.1,1C248,107.6,247.9,108,247.9,108z"
			/>
	</g>
	<g>
		<g>
			<image style="overflow:visible;" width="247" height="25" xlink:href="28BF191F.png"  transform="matrix(1 0 0 1 2 90)">
			</image>
		</g>
		<path class="st0" d="M247.8,114.9c-0.1,0-0.2-0.6-0.1-1.3c0.1-0.7,0.2-1.3,0.3-1.3c0.1,0,0.2,0.6,0.1,1.3
			C248.1,114.4,247.9,114.9,247.8,114.9z"/>
		<path class="st1" d="M247.8,114.6c-0.1,0-0.1-0.4-0.1-1c0.1-0.5,0.1-0.9,0.2-0.9c0.1,0,0.1,0.4,0,1
			C248,114.1,247.9,114.6,247.8,114.6z"/>
	</g>
	<g>
		<g>
			<image style="overflow:visible;" width="247" height="30" xlink:href="28BF191E.png"  transform="matrix(1 0 0 1 1 91)">
			</image>
		</g>
		<path class="st0" d="M246.7,120.4c-0.1,0-0.2-0.6-0.1-1.3c0.1-0.7,0.2-1.3,0.4-1.3c0.1,0,0.2,0.6,0.1,1.3
			C247,119.9,246.9,120.4,246.7,120.4z"/>
		<path class="st1" d="M246.8,120.1c-0.1,0-0.1-0.4,0-1c0.1-0.5,0.2-0.9,0.2-0.9c0.1,0,0.1,0.4,0,1
			C246.9,119.7,246.8,120.1,246.8,120.1z"/>
	</g>
	<g>
		<g>
			<image style="overflow:visible;" width="247" height="22" xlink:href="28BF1905.png"  transform="matrix(1 0 0 1 2 95)">
			</image>
		</g>
		<path class="st0" d="M247.9,116.4c-0.1,0-0.2-0.6-0.1-1.3c0.1-0.7,0.2-1.3,0.3-1.3c0.1,0,0.2,0.6,0.1,1.3
			C248.2,115.8,248,116.4,247.9,116.4z"/>
		<path class="st1" d="M247.9,116c-0.1,0-0.1-0.4,0-1c0-0.5,0.1-0.9,0.2-0.9c0.1,0,0.1,0.4,0.1,1C248.1,115.6,248,116,247.9,116z"/>
	</g>
	<g>
		<g>
			<image style="overflow:visible;" width="246" height="29" xlink:href="28BF1907.png"  transform="matrix(1 0 0 1 0 96)">
			</image>
		</g>
		<path class="st0" d="M245.6,124.3c-0.1,0-0.2-0.6-0.1-1.3c0.1-0.7,0.2-1.3,0.4-1.3c0.1,0,0.2,0.6,0.1,1.3
			C245.9,123.8,245.7,124.3,245.6,124.3z"/>
		<path class="st1" d="M245.6,124c-0.1,0-0.1-0.4,0-1c0.1-0.5,0.2-0.9,0.2-0.9c0.1,0,0.1,0.4,0,1C245.8,123.6,245.7,124,245.6,124z"
			/>
	</g>
	<g>
		<g>
			<image style="overflow:visible;" width="245" height="41" xlink:href="28BF1904.png"  transform="matrix(1 0 0 1 1 90)">
			</image>
		</g>
		<path class="st0" d="M245.1,130.8c-0.1,0-0.1-0.6,0-1.3c0.1-0.7,0.3-1.3,0.4-1.3c0.1,0,0.1,0.6,0,1.3
			C245.4,130.3,245.2,130.9,245.1,130.8z"/>
		<path class="st1" d="M245.1,130.5c-0.1,0-0.1-0.4,0-1c0.1-0.5,0.2-0.9,0.3-0.9c0.1,0,0.1,0.4,0,1
			C245.3,130.1,245.2,130.5,245.1,130.5z"/>
	</g>
	<g>
		<g>
			<image style="overflow:visible;" width="244" height="46" xlink:href="28BF197D.png"  transform="matrix(1 0 0 1 1 91)">
			</image>
		</g>
		<path class="st0" d="M243.6,136.2c-0.1,0-0.1-0.6,0-1.3c0.1-0.7,0.3-1.3,0.4-1.3c0.1,0,0.1,0.6,0,1.3
			C244,135.7,243.8,136.3,243.6,136.2z"/>
		<path class="st1" d="M243.7,135.9c-0.1,0-0.1-0.4,0-1c0.1-0.5,0.2-0.9,0.3-0.9c0.1,0,0.1,0.4,0,1
			C243.9,135.5,243.8,135.9,243.7,135.9z"/>
	</g>
	<g>
		<g>
			<image style="overflow:visible;" width="245" height="39" xlink:href="28BF1963.png"  transform="matrix(1 0 0 1 0 99)">
			</image>
		</g>
		<path class="st0" d="M244.6,138c-0.1,0-0.1-0.6,0-1.3c0.1-0.7,0.3-1.3,0.4-1.3c0.1,0,0.1,0.6,0,1.3
			C244.9,137.4,244.7,138,244.6,138z"/>
		<path class="st1" d="M244.6,137.6c-0.1,0-0.1-0.4,0-1c0.1-0.5,0.2-0.9,0.3-0.9c0.1,0,0.1,0.4,0,1
			C244.8,137.2,244.7,137.6,244.6,137.6z"/>
	</g>
	<g>
		<g>
			<image style="overflow:visible;" width="244" height="42" xlink:href="28BF1965.png"  transform="matrix(1 0 0 1 7 34)">
			</image>
		</g>
		<path class="st0" d="M250.9,37.2c-0.1,0-0.3-0.5-0.4-1.3c-0.1-0.7-0.1-1.3,0-1.3c0.1,0,0.3,0.5,0.4,1.3
			C251.1,36.6,251.1,37.2,250.9,37.2z"/>
		<path class="st1" d="M250.9,36.9c-0.1,0-0.2-0.4-0.3-0.9c-0.1-0.5-0.1-0.9,0-1c0.1,0,0.2,0.4,0.3,0.9
			C250.9,36.4,250.9,36.8,250.9,36.9z"/>
	</g>
	<g>
		<g>
			<image style="overflow:visible;" width="240" height="67" xlink:href="28BF1967.png"  transform="matrix(1 0 0 1 4 11)">
			</image>
		</g>
		<path class="st0" d="M243.4,13.9c-0.1,0-0.4-0.5-0.6-1.2c-0.2-0.7-0.2-1.3-0.1-1.3c0.1,0,0.4,0.5,0.6,1.2
			C243.5,13.3,243.5,13.9,243.4,13.9z"/>
		<path class="st1" d="M243.3,13.6c-0.1,0-0.2-0.4-0.4-0.9c-0.1-0.5-0.2-0.9-0.1-0.9c0.1,0,0.2,0.4,0.4,0.9
			C243.3,13.1,243.4,13.6,243.3,13.6z"/>
	</g>
	<g>
		<g>
			<image style="overflow:visible;" width="243" height="54" xlink:href="28BF1964.png"  transform="matrix(1 0 0 1 3 17)">
			</image>
		</g>
		<path class="st0" d="M245.3,20.2c-0.1,0-0.3-0.5-0.5-1.2c-0.2-0.7-0.2-1.3-0.1-1.3c0.1,0,0.3,0.5,0.5,1.2
			C245.4,19.6,245.4,20.2,245.3,20.2z"/>
		<path class="st1" d="M245.2,19.8c-0.1,0-0.2-0.4-0.3-0.9c-0.1-0.5-0.1-0.9-0.1-0.9c0.1,0,0.2,0.4,0.3,0.9
			C245.2,19.4,245.3,19.8,245.2,19.8z"/>
	</g>
	<g>
		<g>
			<image style="overflow:visible;" width="245" height="40" xlink:href="28BF196C.png"  transform="matrix(1 0 0 1 2 28)">
			</image>
		</g>
		<path class="st0" d="M246.9,30.8c-0.1,0-0.3-0.5-0.4-1.3c-0.1-0.7-0.1-1.3,0-1.3c0.1,0,0.3,0.5,0.4,1.3
			C247,30.2,247,30.8,246.9,30.8z"/>
		<path class="st1" d="M246.9,30.4c-0.1,0-0.2-0.4-0.3-0.9c-0.1-0.5-0.1-0.9,0-1c0.1,0,0.2,0.4,0.3,0.9
			C246.9,30,246.9,30.4,246.9,30.4z"/>
	</g>
	<g>
		<g>
			<image style="overflow:visible;" width="244" height="47" xlink:href="28BF196D.png"  transform="matrix(1 0 0 1 4 33)">
			</image>
		</g>
		<path class="st0" d="M247.6,35.7c-0.1,0-0.3-0.5-0.5-1.3c-0.1-0.7-0.1-1.3,0-1.3c0.1,0,0.3,0.5,0.5,1.3
			C247.7,35.1,247.7,35.7,247.6,35.7z"/>
		<path class="st1" d="M247.5,35.3c-0.1,0-0.2-0.4-0.3-0.9c-0.1-0.5-0.1-0.9-0.1-1c0.1,0,0.2,0.4,0.3,0.9
			C247.6,34.9,247.6,35.3,247.5,35.3z"/>
	</g>
	<g>
		<g>
			<image style="overflow:visible;" width="246" height="33" xlink:href="28BF196F.png"  transform="matrix(1 0 0 1 5 49)">
			</image>
		</g>
		<path class="st0" d="M250.1,51.8c-0.1,0-0.3-0.6-0.4-1.3c-0.1-0.7-0.1-1.3,0.1-1.3c0.1,0,0.3,0.6,0.4,1.3
			C250.2,51.2,250.2,51.8,250.1,51.8z"/>
		<path class="st1" d="M250,51.5c-0.1,0-0.2-0.4-0.2-0.9c-0.1-0.5-0.1-1,0-1c0.1,0,0.2,0.4,0.2,0.9C250.1,51,250.1,51.5,250,51.5z"
			/>
	</g>
	<g>
		<g>
			<image style="overflow:visible;" width="247" height="21" xlink:href="28BF196B.png"  transform="matrix(1 0 0 1 5 55)">
			</image>
		</g>
		<path class="st0" d="M251.1,58.3c-0.1,0-0.3-0.6-0.3-1.3c0-0.7,0-1.3,0.1-1.3c0.1,0,0.3,0.6,0.3,1.3
			C251.2,57.7,251.2,58.3,251.1,58.3z"/>
		<path class="st1" d="M251,57.9c-0.1,0-0.2-0.4-0.2-0.9c0-0.5,0-1,0.1-1c0.1,0,0.1,0.4,0.2,0.9C251.1,57.5,251.1,57.9,251,57.9z"/>
	</g>
	<g>
		<g>
			<image style="overflow:visible;" width="247" height="16" xlink:href="28BF1966.png"  transform="matrix(1 0 0 1 4 61)">
			</image>
		</g>
		<path class="st0" d="M250.9,63.9c-0.1,0-0.3-0.6-0.3-1.3c0-0.7,0-1.3,0.2-1.3c0.1,0,0.3,0.6,0.3,1.3
			C251.1,63.3,251,63.9,250.9,63.9z"/>
		<path class="st1" d="M250.9,63.5c-0.1,0-0.2-0.4-0.2-0.9c0-0.5,0-0.9,0.1-0.9c0.1,0,0.1,0.4,0.2,0.9
			C251,63.1,250.9,63.5,250.9,63.5z"/>
	</g>
	<g>
		<g>
			<image style="overflow:visible;" width="247" height="23" xlink:href="28BF1948.png"  transform="matrix(1 0 0 1 6 62)">
			</image>
		</g>
		<path class="st0" d="M252.2,65.4c-0.1,0-0.3-0.6-0.3-1.3c-0.1-0.7,0-1.3,0.1-1.3c0.1,0,0.3,0.6,0.3,1.3
			C252.3,64.7,252.3,65.3,252.2,65.4z"/>
		<path class="st1" d="M252.1,65c-0.1,0-0.2-0.4-0.2-0.9c0-0.5,0-0.9,0.1-0.9c0.1,0,0.2,0.4,0.2,0.9C252.2,64.5,252.2,65,252.1,65z"
			/>
	</g>
	<g>
		<g>
			<image style="overflow:visible;" width="247" height="30" xlink:href="28BF194B.png"  transform="matrix(1 0 0 1 5 51)">
			</image>
		</g>
		<path class="st0" d="M251.2,54c-0.1,0-0.3-0.6-0.4-1.3c-0.1-0.7,0-1.3,0.1-1.3c0.1,0,0.3,0.6,0.4,1.3
			C251.4,53.4,251.3,54,251.2,54z"/>
		<path class="st1" d="M251.2,53.7c-0.1,0-0.2-0.4-0.2-0.9c-0.1-0.5,0-0.9,0-1c0.1,0,0.2,0.4,0.2,0.9
			C251.3,53.2,251.2,53.7,251.2,53.7z"/>
	</g>
	<g>
		<g>
			<image style="overflow:visible;" width="247" height="23" xlink:href="28BF1949.png"  transform="matrix(1 0 0 1 7 64)">
			</image>
		</g>
		<path class="st0" d="M253.1,66.9c-0.1,0-0.3-0.6-0.3-1.3c-0.1-0.7,0-1.3,0.1-1.3c0.1,0,0.3,0.6,0.3,1.3
			C253.3,66.3,253.2,66.9,253.1,66.9z"/>
		<path class="st1" d="M253.1,66.6c-0.1,0-0.2-0.4-0.2-0.9c0-0.5,0-1,0-1c0.1,0,0.2,0.4,0.2,0.9C253.1,66.1,253.1,66.6,253.1,66.6z"
			/>
	</g>
	<g>
		<g>
			<image style="overflow:visible;" width="247" height="10" xlink:href="28BF1937.png"  transform="matrix(1 0 0 1 7 70)">
			</image>
		</g>
		<path class="st0" d="M253.8,73.4c-0.1,0-0.2-0.6-0.3-1.3c0-0.7,0.1-1.3,0.2-1.3c0.1,0,0.2,0.6,0.3,1.3
			C254,72.8,253.9,73.4,253.8,73.4z"/>
		<path class="st1" d="M253.8,73c-0.1,0-0.1-0.4-0.1-0.9c0-0.5,0-0.9,0.1-0.9c0.1,0,0.1,0.4,0.2,0.9C253.9,72.6,253.8,73,253.8,73z"
			/>
	</g>
	<g>
		<g>
			<image style="overflow:visible;" width="248" height="6" xlink:href="28BF1938.png"  transform="matrix(1 0 0 1 6 76)">
			</image>
		</g>
		<path class="st0" d="M253.3,79c-0.1,0-0.2-0.6-0.2-1.3c0-0.7,0.1-1.3,0.2-1.3c0.1,0,0.2,0.6,0.2,1.3C253.6,78.4,253.5,79,253.3,79
			z"/>
		<path class="st1" d="M253.3,78.6c-0.1,0-0.1-0.4-0.1-1c0-0.5,0.1-0.9,0.1-0.9c0.1,0,0.1,0.4,0.1,0.9
			C253.5,78.2,253.4,78.6,253.3,78.6z"/>
	</g>
	<g>
		<g>
			<image style="overflow:visible;" width="248" height="13" xlink:href="28BF193B.png"  transform="matrix(1 0 0 1 7 72)">
			</image>
		</g>
		<path class="st0" d="M254.1,74.9c-0.1,0-0.2-0.6-0.3-1.3c0-0.7,0.1-1.3,0.2-1.3c0.1,0,0.3,0.6,0.3,1.3
			C254.3,74.3,254.2,74.9,254.1,74.9z"/>
		<path class="st1" d="M254,74.5c-0.1,0-0.1-0.4-0.2-0.9c0-0.5,0-1,0.1-1c0.1,0,0.1,0.4,0.2,0.9C254.1,74.1,254.1,74.5,254,74.5z"/>
	</g>
	<g>
		<g>
			<image style="overflow:visible;" width="247" height="6" xlink:href="28BF1939.png"  transform="matrix(1 0 0 1 6 80)">
			</image>
		</g>
		<path class="st0" d="M252.6,83c-0.1,0-0.2-0.6-0.2-1.3c0-0.7,0.1-1.3,0.2-1.3c0.1,0,0.2,0.6,0.2,1.3C252.9,82.4,252.8,83,252.6,83
			z"/>
		<path class="st1" d="M252.6,82.6c-0.1,0-0.1-0.4-0.1-0.9c0-0.5,0-1,0.1-1c0.1,0,0.1,0.4,0.1,1C252.8,82.2,252.7,82.6,252.6,82.6z"
			/>
	</g>
	<g>
		<g>
			<image style="overflow:visible;" width="247" height="14" xlink:href="28BF193F.png"  transform="matrix(1 0 0 1 6 76)">
			</image>
		</g>
		<path class="st0" d="M252.9,89.5c-0.1,0-0.2-0.6-0.2-1.3c0-0.7,0.1-1.3,0.3-1.3c0.1,0,0.2,0.6,0.2,1.3
			C253.1,88.9,253,89.5,252.9,89.5z"/>
		<path class="st1" d="M252.9,89.2c-0.1,0-0.1-0.4-0.1-1c0-0.5,0.1-0.9,0.2-0.9c0.1,0,0.1,0.4,0.1,1C253,88.7,253,89.2,252.9,89.2z"
			/>
	</g>
	<g>
		<g>
			<image style="overflow:visible;" width="247" height="19" xlink:href="28BF193A.png"  transform="matrix(1 0 0 1 6 77)">
			</image>
		</g>
		<path class="st0" d="M252.1,95.1c-0.1,0-0.2-0.6-0.2-1.3c0-0.7,0.2-1.3,0.3-1.3c0.1,0,0.2,0.6,0.2,1.3
			C252.3,94.5,252.2,95.1,252.1,95.1z"/>
		<path class="st1" d="M252.1,94.7c-0.1,0-0.1-0.4-0.1-1c0-0.5,0.1-0.9,0.2-0.9c0.1,0,0.1,0.4,0.1,0.9
			C252.3,94.3,252.2,94.7,252.1,94.7z"/>
	</g>
	<g>
		<g>
			<image style="overflow:visible;" width="248" height="12" xlink:href="28BF1935.png"  transform="matrix(1 0 0 1 6 85)">
			</image>
		</g>
		<path class="st0" d="M253.2,96.7c-0.1,0-0.2-0.6-0.2-1.3c0-0.7,0.2-1.3,0.3-1.3c0.1,0,0.2,0.6,0.2,1.3
			C253.4,96.1,253.3,96.7,253.2,96.7z"/>
		<path class="st1" d="M253.2,96.3c-0.1,0-0.1-0.4-0.1-1c0-0.5,0.1-1,0.2-0.9c0.1,0,0.1,0.4,0.1,1C253.3,95.9,253.3,96.3,253.2,96.3
			z"/>
	</g>
	<g>
		<g>
			<image style="overflow:visible;" width="246" height="33" xlink:href="28BF19DF.png"  transform="matrix(1 0 0 1 3 44)">
			</image>
		</g>
		<path class="st0" d="M248.8,47.2c-0.1,0-0.3-0.6-0.4-1.3c-0.1-0.7-0.1-1.3,0.1-1.3c0.1,0,0.3,0.6,0.4,1.3
			C249,46.6,249,47.2,248.8,47.2z"/>
		<path class="st1" d="M248.8,46.8c-0.1,0-0.2-0.4-0.2-0.9c-0.1-0.5-0.1-0.9,0-1s0.2,0.4,0.2,0.9C248.9,46.4,248.9,46.8,248.8,46.8z
			"/>
	</g>
	<g>
		<g>
			<image style="overflow:visible;" width="245" height="41" xlink:href="28BF19DD.png"  transform="matrix(1 0 0 1 5 49)">
			</image>
		</g>
		<path class="st0" d="M249.4,52.1c-0.1,0-0.3-0.5-0.4-1.3c-0.1-0.7-0.1-1.3,0-1.3c0.1,0,0.3,0.5,0.4,1.3
			C249.5,51.5,249.5,52.1,249.4,52.1z"/>
		<path class="st1" d="M249.4,51.7c-0.1,0-0.2-0.4-0.3-0.9c-0.1-0.5-0.1-1,0-1c0.1,0,0.2,0.4,0.3,0.9S249.4,51.7,249.4,51.7z"/>
	</g>
	<g>
		<g>
			<image style="overflow:visible;" width="246" height="33" xlink:href="28BF19D3.png"  transform="matrix(1 0 0 1 6 62)">
			</image>
		</g>
		<path class="st0" d="M251.9,64.9c-0.1,0-0.3-0.6-0.4-1.3c-0.1-0.7-0.1-1.3,0.1-1.3c0.1,0,0.3,0.6,0.4,1.3
			C252,64.3,252,64.9,251.9,64.9z"/>
		<path class="st1" d="M251.8,64.5c-0.1,0-0.2-0.4-0.2-0.9c-0.1-0.5-0.1-1,0-1c0.1,0,0.2,0.4,0.2,0.9
			C251.9,64.1,251.9,64.5,251.8,64.5z"/>
	</g>
	<g>
		<g>
			<image style="overflow:visible;" width="247" height="21" xlink:href="28BF19D5.png"  transform="matrix(1 0 0 1 6 68)">
			</image>
		</g>
		<path class="st0" d="M252.8,71.4c-0.1,0-0.3-0.6-0.3-1.3c-0.1-0.7,0-1.3,0.1-1.3c0.1,0,0.3,0.6,0.3,1.3
			C253,70.7,252.9,71.3,252.8,71.4z"/>
		<path class="st1" d="M252.8,71c-0.1,0-0.1-0.4-0.2-0.9c0-0.5,0-1,0.1-1c0.1,0,0.2,0.4,0.2,0.9C252.9,70.5,252.9,71,252.8,71z"/>
	</g>
	<g>
		<g>
			<image style="overflow:visible;" width="247" height="16" xlink:href="28BF19D7.png"  transform="matrix(1 0 0 1 6 74)">
			</image>
		</g>
		<path class="st0" d="M252.6,77c-0.1,0-0.3-0.6-0.3-1.3c0-0.7,0-1.3,0.2-1.3c0.1,0,0.3,0.6,0.3,1.3C252.8,76.3,252.7,76.9,252.6,77
			z"/>
		<path class="st1" d="M252.6,76.6c-0.1,0-0.1-0.4-0.2-0.9c0-0.5,0-1,0.1-1c0.1,0,0.1,0.4,0.2,0.9C252.7,76.1,252.7,76.6,252.6,76.6
			z"/>
	</g>
	<g>
		<g>
			<image style="overflow:visible;" width="246" height="23" xlink:href="28BF19D2.png"  transform="matrix(1 0 0 1 8 75)">
			</image>
		</g>
		<path class="st0" d="M253.9,78.4c-0.1,0-0.3-0.6-0.3-1.3c-0.1-0.7,0-1.3,0.1-1.3c0.1,0,0.3,0.6,0.3,1.3
			C254.1,77.8,254,78.4,253.9,78.4z"/>
		<path class="st1" d="M253.9,78.1c-0.1,0-0.2-0.4-0.2-0.9c0-0.5,0-0.9,0.1-0.9c0.1,0,0.2,0.4,0.2,0.9C254,77.6,254,78,253.9,78.1z"
			/>
	</g>
	<g>
		<g>
			<image style="overflow:visible;" width="246" height="30" xlink:href="28BF19D1.png"  transform="matrix(1 0 0 1 7 64)">
			</image>
		</g>
		<path class="st0" d="M253,67.1c-0.1,0-0.3-0.6-0.4-1.3c-0.1-0.7,0-1.3,0.1-1.3c0.1,0,0.3,0.6,0.4,1.3
			C253.1,66.5,253.1,67.1,253,67.1z"/>
		<path class="st1" d="M252.9,66.7c-0.1,0-0.2-0.4-0.2-0.9c-0.1-0.5-0.1-0.9,0-1c0.1,0,0.2,0.4,0.2,0.9
			C253,66.3,253,66.7,252.9,66.7z"/>
	</g>
	<g>
		<g>
			<image style="overflow:visible;" width="247" height="23" xlink:href="28BF19ED.png"  transform="matrix(1 0 0 1 8 77)">
			</image>
		</g>
		<path class="st0" d="M254.9,80c-0.1,0-0.3-0.6-0.3-1.3c-0.1-0.7,0-1.3,0.1-1.3c0.1,0,0.3,0.6,0.3,1.3C255,79.4,255,80,254.9,80z"
			/>
		<path class="st1" d="M254.8,79.6c-0.1,0-0.2-0.4-0.2-0.9c0-0.5,0-1,0.1-1c0.1,0,0.2,0.4,0.2,0.9C254.9,79.2,254.9,79.6,254.8,79.6
			z"/>
	</g>
	<g>
		<g>
			<image style="overflow:visible;" width="247" height="11" xlink:href="28BF19EF.png"  transform="matrix(1 0 0 1 9 83)">
			</image>
		</g>
		<path class="st0" d="M255.5,86.5c-0.1,0-0.2-0.6-0.3-1.3c0-0.7,0.1-1.3,0.2-1.3c0.1,0,0.2,0.6,0.3,1.3
			C255.7,85.9,255.7,86.5,255.5,86.5z"/>
		<path class="st1" d="M255.5,86.1c-0.1,0-0.1-0.4-0.1-0.9c0-0.5,0-0.9,0.1-0.9c0.1,0,0.1,0.4,0.2,0.9
			C255.6,85.7,255.6,86.1,255.5,86.1z"/>
	</g>
	<g>
		<g>
			<image style="overflow:visible;" width="248" height="6" xlink:href="28BF19F2.png"  transform="matrix(1 0 0 1 8 89)">
			</image>
		</g>
		<path class="st0" d="M255.1,92.1c-0.1,0-0.2-0.6-0.2-1.3c0-0.7,0.1-1.3,0.2-1.3c0.1,0,0.2,0.6,0.2,1.3
			C255.3,91.5,255.2,92.1,255.1,92.1z"/>
		<path class="st1" d="M255.1,91.7c-0.1,0-0.1-0.4-0.1-0.9c0-0.5,0.1-1,0.1-1c0.1,0,0.1,0.4,0.1,0.9
			C255.2,91.3,255.2,91.7,255.1,91.7z"/>
	</g>
	<g>
		<g>
			<image style="overflow:visible;" width="247" height="13" xlink:href="28BF19EE.png"  transform="matrix(1 0 0 1 9 85)">
			</image>
		</g>
		<path class="st0" d="M255.8,87.9c-0.1,0-0.2-0.6-0.3-1.3c0-0.7,0-1.3,0.2-1.3c0.1,0,0.2,0.6,0.3,1.3
			C256,87.3,255.9,87.9,255.8,87.9z"/>
		<path class="st1" d="M255.8,87.6c-0.1,0-0.1-0.4-0.2-0.9c0-0.5,0-1,0.1-1c0.1,0,0.1,0.4,0.2,0.9C255.9,87.1,255.9,87.6,255.8,87.6
			z"/>
	</g>
	<g>
		<g>
			<image style="overflow:visible;" width="248" height="6" xlink:href="28BF19EC.png"  transform="matrix(1 0 0 1 7 93)">
			</image>
		</g>
		<path class="st0" d="M254.4,96.1c-0.1,0-0.2-0.6-0.2-1.3c0-0.7,0.1-1.3,0.2-1.3c0.1,0,0.2,0.6,0.2,1.3
			C254.6,95.5,254.5,96.1,254.4,96.1z"/>
		<path class="st1" d="M254.4,95.7c-0.1,0-0.1-0.4-0.1-0.9c0-0.5,0-1,0.1-1c0.1,0,0.1,0.4,0.1,1C254.5,95.3,254.5,95.7,254.4,95.7z"
			/>
	</g>
	<g>
		<g>
			<image style="overflow:visible;" width="247" height="14" xlink:href="28BF1992.png"  transform="matrix(1 0 0 1 8 89)">
			</image>
		</g>
		<path class="st0" d="M254.6,102.6c-0.1,0-0.2-0.6-0.2-1.3c0-0.7,0.2-1.3,0.3-1.3c0.1,0,0.2,0.6,0.2,1.3
			C254.9,102,254.8,102.6,254.6,102.6z"/>
		<path class="st1" d="M254.7,102.2c-0.1,0-0.1-0.4-0.1-1c0-0.5,0.1-1,0.2-0.9c0.1,0,0.1,0.4,0.1,1
			C254.8,101.8,254.7,102.2,254.7,102.2z"/>
	</g>
	<g>
		<g>
			<image style="overflow:visible;" width="247" height="19" xlink:href="28BF1995.png"  transform="matrix(1 0 0 1 7 90)">
			</image>
		</g>
		<path class="st0" d="M253.8,108.1c-0.1,0-0.2-0.6-0.2-1.3c0.1-0.7,0.2-1.3,0.3-1.3c0.1,0,0.2,0.6,0.1,1.3
			C254.1,107.6,254,108.1,253.8,108.1z"/>
		<path class="st1" d="M253.9,107.8c-0.1,0-0.1-0.4-0.1-1c0-0.5,0.1-0.9,0.2-0.9c0.1,0,0.1,0.4,0.1,1
			C254,107.3,253.9,107.8,253.9,107.8z"/>
	</g>
	<g>
		<g>
			<image style="overflow:visible;" width="248" height="12" xlink:href="28BF1996.png"  transform="matrix(1 0 0 1 8 98)">
			</image>
		</g>
		<path class="st0" d="M255,109.7c-0.1,0-0.2-0.6-0.2-1.3c0-0.7,0.1-1.3,0.3-1.3c0.1,0,0.2,0.6,0.2,1.3
			C255.2,109.2,255.1,109.7,255,109.7z"/>
		<path class="st1" d="M255,109.4c-0.1,0-0.1-0.4-0.1-1c0-0.5,0.1-1,0.2-0.9c0.1,0,0.1,0.4,0.1,1C255.1,108.9,255,109.4,255,109.4z"
			/>
	</g>
	<g>
		<defs>
			<path id="SVGID_1_" d="M244.6,138L244.6,138c0.1,0,0.3-0.6,0.4-1.3c0.1-0.7,0.1-1.3,0-1.3l0,0l0,0c-0.3,0-0.6-0.1-0.9-0.1
				c0-0.1,0-0.1,0.1-0.2c0.1-0.7,0.1-1.3,0-1.3l0,0c-41.9-7.3-83.7-14.7-125.6-22c1,0,2.1-0.1,3.1-0.1
				c41.2,6.4,82.3,12.9,123.5,19.3c0.1,0,0.3-0.5,0.4-1.3c0.1-0.7,0.1-1.3,0-1.3c-24.5-3.8-49-7.7-73.4-11.5
				c19.8,2.1,39.6,4.1,59.4,6.2c4.3,0.6,8.6,1.3,12.9,1.9l0,0c0.1,0,0.2-0.2,0.3-0.6c0.3,0,0.7,0.1,1,0.1l0,0h0l0,0l0,0
				c0.1,0,0.3-0.6,0.4-1.3c0.1-0.7,0-1.3-0.1-1.3l0,0c-0.7-0.1-1.3-0.1-2-0.2c0.1-0.6,0.1-1,0-1l0,0c-1.6-0.3-3.1-0.5-4.7-0.8
				c2.5,0.3,5.1,0.5,7.6,0.8l0,0l0,0c0.1,0,0.3-0.6,0.4-1.3c0.1-0.7,0-1.3-0.1-1.3l0,0c-0.7-0.1-1.4-0.1-2.1-0.2
				c0.1-0.1,0.2-0.4,0.2-0.7c0.7,0.1,1.4,0.3,2.1,0.4c0.1,0,0.2-0.3,0.4-0.8c0.5,0,1,0.1,1.4,0.1c0.2,0,0.5,0.1,0.7,0.1l0,0
				c0,0,0,0,0,0c0,0,0,0,0.1-0.1c0.3,0,0.6,0.1,0.8,0.1c0.1,0,0.1-0.2,0.2-0.4c0.1,0,0.1,0,0.1,0l0,0l0,0c0.1,0,0.2-0.3,0.3-0.8l0,0
				c0,0,0,0,0,0c0.1,0,0.2-0.3,0.2-0.7c0.3,0,0.5,0.1,0.8,0.1l0,0c0.1,0,0.3-0.6,0.4-1.3c0.1-0.7,0-1.3-0.1-1.3c0-0.1,0-0.1,0-0.2
				c0-0.4,0-0.8,0-1c0.1-0.7,0.1-1.2-0.1-1.3c0,0,0,0,0,0c-0.2,0-0.4-0.1-0.7-0.1c0,0,0-0.1,0-0.1c1,0,1.9,0.1,2.9,0.1h0
				c0.1,0,0.2-0.6,0.3-1.3c0-0.7-0.1-1.3-0.2-1.3l0,0c-0.3,0-0.6,0-0.9,0c0-0.1,0-0.1,0-0.2c0-0.7,0-1.3-0.1-1.3
				c0-0.6,0-1.1-0.1-1.1l0,0c-0.2,0-0.4-0.1-0.7-0.1c0-0.1,0-0.1,0-0.2c0-0.7-0.2-1.3-0.3-1.3l0,0h0c-0.2,0-0.4,0-0.6,0
				c0-0.1,0-0.2,0-0.3c0.8,0,1.5,0.1,2.3,0.1l0,0c0.1,0,0.3-0.6,0.3-1.3c0-0.7,0-1.3-0.2-1.3l0,0c-3.5-0.1-6.9-0.3-10.4-0.4
				c-7.4-1-14.7-2.1-22.1-3.1c2.6,0,5.2,0,7.8-0.1c7.3,0.6,14.6,1.2,21.9,1.7c0.1,0,0.3-0.6,0.3-1.3c0-0.1,0-0.1,0-0.1
				c0.3,0,0.6,0,1,0l0,0c0.1,0,0.2-0.2,0.2-0.6c0.3,0,0.7,0,1,0h0c0.1,0,0.2-0.6,0.2-1.3c0-0.7-0.1-1.3-0.2-1.3l0,0l0,0
				c-0.5,0-1,0-1.5,0c0.1-0.2,0.1-0.5,0.1-0.9c0-0.2,0-0.3,0-0.5c0.7,0,1.4,0,2.1,0c0.1,0,0.2-0.6,0.2-1.3c0-0.7-0.1-1.3-0.2-1.3
				l0,0h0c-0.7,0-1.4,0-2.1,0c0.1-0.2,0.2-0.7,0.2-1.2c0-0.1,0-0.1,0-0.2c0.9,0,1.8-0.1,2.6-0.1c0.1,0,0.2-0.6,0.2-1.3
				c0-0.7-0.1-1.2-0.3-1.3c0-0.1,0-0.1,0-0.2c0-0.7-0.1-1.3-0.3-1.3l0,0l0,0c-2.5,0.1-4.9,0.1-7.4,0.2c-8.1-0.2-16.3-0.5-24.4-0.7
				c9.7-0.1,19.3-0.2,29-0.3l0,0l0,0h0l0,0c0.1,0,0.2-0.6,0.2-1.3c0-0.7-0.1-1.3-0.2-1.3l0,0l0,0c-0.9,0-1.7,0-2.6,0
				c1.6-0.1,3.2-0.3,4.8-0.4v0c0.1,0,0.2-0.6,0.1-1.3c-0.1-0.7-0.2-1.3-0.3-1.3l0,0c-0.2,0-0.4,0-0.6,0c0-0.1,0-0.2,0-0.3
				c-0.1-0.7-0.2-1.3-0.3-1.3l0,0c-0.3,0-0.6,0.1-0.9,0.1c0-0.1,0-0.1,0-0.2c0-0.3,0-0.5-0.1-0.7c0.4,0,0.9,0,1.3-0.1l0,0l0,0
				c0.1,0,0.2-0.6,0.2-1.3c0-0.7-0.1-1.3-0.3-1.3c0-0.1,0-0.1,0-0.2c0-0.7-0.1-1.3-0.3-1.3l0,0l0,0c-0.2,0-0.5,0-0.7,0
				c0-0.2,0-0.5,0-0.8c0-0.7-0.2-1.3-0.3-1.3l0,0c-7.6,0.5-15.2,1.1-22.8,1.6c-1.7-0.1-3.5-0.1-5.2-0.1c6.8-0.7,13.6-1.5,20.5-2.2
				c2.4,0,4.7,0,7.1,0.1c0.1,0,0.2-0.4,0.2-0.9c0.2,0,0.3,0,0.5-0.1l0,0c0,0,0.1-0.1,0.1-0.2c0,0,0,0,0,0l0,0l0,0
				c0.1,0,0.2-0.6,0.1-1.3c-0.1-0.7-0.2-1.3-0.3-1.3c0,0,0,0,0,0c-0.2,0-0.4,0-0.6,0c0-0.1,0-0.2,0-0.3c-0.1-0.7-0.2-1.3-0.3-1.3
				l0,0c-0.1,0-0.1,0-0.2,0c-0.1-0.3-0.2-0.5-0.2-0.4c0,0,0,0,0,0c0,0,0,0,0,0c-0.2,0-0.3,0.1-0.5,0.1c0-0.3-0.1-0.6-0.1-0.8
				c0.3,0,0.6,0,0.9,0c0.1,0,0.2-0.6,0.2-1.3c0-0.7-0.2-1.3-0.3-1.3l0,0l0,0c-7.2,0.3-14.4,0.6-21.6,0.9c7-0.5,14-1,21-1.5l0,0
				c0.1,0,0.2-0.6,0.1-1.3c-0.1-0.7-0.2-1.3-0.3-1.3l0,0c-13.9,1-27.9,2-41.9,2.9c14.1-1.5,28.1-3,42.2-4.5l0,0l0,0
				c0.1,0,0.2-0.6,0.1-1.3c-0.1-0.7-0.2-1.3-0.4-1.3l0,0l0,0c-0.2,0-0.5,0.1-0.7,0.1c0-0.2,0-0.6,0-1c-0.1-0.7-0.3-1.3-0.4-1.3
				c0,0,0,0,0,0l0,0c-39.6,4.9-79.3,9.7-118.9,14.6c-1.3,0.1-2.7,0.1-4,0.2c-5.2-0.1-10.3-0.1-15.5-0.2
				c36.2-4.4,72.4-8.7,108.6-13.1c10.1-0.7,20.2-1.4,30.4-2.1c0.1,0,0.2-0.6,0.1-1.3c-0.1-0.7-0.2-1.3-0.3-1.3l0,0l0,0
				c-0.4,0-0.8,0.1-1.3,0.1c0-0.1,0-0.1,0-0.2c-0.1-0.7-0.3-1.3-0.4-1.3c-9.6,1.2-19.2,2.3-28.8,3.5c-21.9,1.5-43.7,3-65.6,4.6
				c32.2-5.1,64.5-10.3,96.7-15.4v0c0.1,0,0.1-0.6,0-1.3c-0.1-0.7-0.3-1.3-0.4-1.3l0,0l0,0c-0.9,0.1-1.9,0.3-2.8,0.4
				c0-0.2,0-0.4-0.1-0.7c-0.1-0.7-0.3-1.3-0.5-1.3v0l0,0c-32.1,5.8-64.1,11.6-96.2,17.3c-8.9,1.4-17.9,2.8-26.8,4.3
				c-11.1,0.8-22.3,1.5-33.4,2.3c6.2-1.7,12.4-3.3,18.5-5c24.5-3.9,48.9-7.8,73.4-11.6c21.4-3.2,42.8-6.4,64.2-9.6
				c0.1,0,0.1-0.3,0.1-0.6c0.4-0.1,0.9-0.2,1.4-0.2l0,0c0.1,0,0.1-0.6,0-1.3c-0.1-0.7-0.3-1.3-0.4-1.3v0c0,0,0,0,0,0
				c-21.8,3.5-43.7,6.9-65.5,10.4c-15,2.2-30,4.5-45,6.7c8.4-2.3,16.7-4.5,25.1-6.8c27.6-5.8,55.1-11.6,82.7-17.4
				c0.1,0,0.1-0.6-0.1-1.3c-0.2-0.7-0.4-1.3-0.5-1.2l0,0c-12,2.5-24,5.1-36,7.6c13.2-3.6,26.4-7.1,39.6-10.7l0,0
				c0.1,0,0.1-0.6-0.1-1.3c-0.2-0.7-0.4-1.2-0.6-1.2l0,0c-1.4,0.4-2.8,0.7-4.1,1.1c0-0.1-0.1-0.3-0.1-0.5c-0.2-0.7-0.4-1.3-0.6-1.2
				l0,0l0,0C202.5,22.1,162.3,32.8,122,43.5c-17.3,3.7-34.6,7.3-52,11c-16.8,2.5-33.7,5-50.5,7.5c-0.4,0-0.8,0.1-1.3,0.1
				c-3-0.6-6-1.1-8.9-1.7c-0.2,0.1-0.2,0.3-0.4,0.5c-0.1,0.2-0.2,0.3-0.2,0.5c0,0-0.1,0-0.1,0c-0.2,0.1-0.2,0.3-0.4,0.5
				c-0.1,0.2-0.2,0.4-0.3,0.7c0,0,0,0,0,0.1c-0.6,0-1.2,0-1.9,0C6,62.7,6,62.8,6,62.9c-0.4,0-0.9,0.1-1.3,0.1
				c-0.2,0.2-0.1,0.4-0.2,0.6c0,0.2-0.1,0.4-0.1,0.6c-0.4,0.1-0.9,0.1-1.3,0.2C2.9,64.6,3,64.8,2.9,65c0,0.2-0.1,0.5,0,0.8
				c0,0.3,0.1,0.4,0.2,0.6c0.1,0.2,0.2,0.4,0.4,0.6c0.4-0.1,0.8-0.1,1.2-0.2c0,0.1,0,0.3,0,0.4c0.1,0.3,0.2,0.4,0.2,0.6
				C5,68,5,68.1,5.1,68.2c-0.4,0.1-0.8,0.2-1.2,0.2c-0.1,0.2-0.1,0.4-0.1,0.6c0,0.2-0.1,0.5,0,0.8c0.1,0.3,0.2,0.4,0.3,0.6
				c0.1,0.2,0.2,0.3,0.4,0.6c0.4-0.1,0.7-0.1,1.1-0.2c0,0,0,0.1,0,0.1c0.1,0.2,0.2,0.4,0.3,0.6c0.6,0,1.2-0.1,1.8-0.1
				c0,0.1,0.1,0.2,0.1,0.4c1.1,0.2,2.2,0.4,3.4,0.6c-1.9,0.1-3.9,0.3-5.8,0.4c-0.2,0.2-0.1,0.4-0.2,0.6c0,0.1-0.1,0.3-0.1,0.5
				c-0.3,0-0.6,0.1-0.9,0.1C4,74.2,4.1,74.4,4,74.7c0,0.2-0.1,0.5-0.1,0.8c0,0.3,0.1,0.4,0.2,0.6c0.1,0.2,0.2,0.4,0.3,0.6
				c0.2,0,0.4,0,0.5-0.1c0,0,0,0,0,0c0,0,0,0.1,0,0.1c-0.1,0-0.1,0-0.1,0c-0.2,0.2-0.1,0.4-0.2,0.6v0C3.9,77.2,3,77.1,2,77
				c-0.2,0.1-0.2,0.3-0.3,0.5c-0.1,0.2-0.1,0.3-0.2,0.5c0,0-0.1,0-0.1,0c-0.2,0.1-0.2,0.3-0.3,0.5C1,78.8,0.8,79,0.8,79.3
				c-0.1,0.3,0,0.5,0,0.7c0.1,0.2,0.1,0.4,0.1,0.7c0.2,0,0.4,0.1,0.6,0.1c0.1,0.2,0.1,0.4,0.2,0.7c1.6,0.2,3.2,0.3,4.8,0.5
				c-0.1,0.1-0.1,0.2-0.1,0.3c-0.2,0-0.3,0-0.5,0c-0.2,0.1-0.2,0.3-0.3,0.6c-0.1,0.2-0.2,0.5-0.2,0.7c0,0.1,0,0.1,0,0.1
				c-1.6-0.2-3.2-0.3-4.8-0.5c-0.2,0.1-0.2,0.3-0.3,0.6c-0.1,0.2-0.2,0.4-0.2,0.7c0,0.3,0,0.4,0.1,0.7c0.1,0.2,0.1,0.4,0.2,0.7
				c1.9,0.2,3.8,0.4,5.6,0.6c0,0,0,0,0,0c-0.2,0-0.3,0.1-0.5,0.1c0,0-0.1,0.1-0.1,0.1c-1.4-0.2-2.9-0.4-4.3-0.6
				C1,86,1,86.2,0.9,86.5c-0.1,0.2-0.2,0.4-0.3,0.7c0,0.1,0,0.1,0,0.2c-0.1,0-0.1,0-0.2,0c-0.2,0.1-0.2,0.3-0.3,0.6
				C0.1,88.1,0,88.3,0,88.6c0,0.3,0.1,0.4,0.1,0.7c0.1,0.2,0.1,0.4,0.2,0.7c1.5,0.1,2.9,0.2,4.4,0.3c0,0.1,0,0.2-0.1,0.3
				c-0.8-0.1-1.6-0.3-2.4-0.4c-0.2,0.1-0.2,0.3-0.3,0.5c-0.1,0.2-0.1,0.3-0.2,0.5c0,0-0.1,0-0.1,0c-0.2,0.1-0.2,0.3-0.3,0.5
				c-0.1,0.2-0.2,0.4-0.3,0.7c-0.1,0.3,0,0.4,0,0.7c0.1,0.2,0.1,0.4,0.2,0.7c0.2,0,0.4,0.1,0.6,0.1c0.1,0.2,0.1,0.4,0.2,0.7
				c1.4,0.2,2.9,0.3,4.3,0.5c0,0.1-0.1,0.2-0.1,0.3c0,0,0,0,0,0c-1.7-0.1-3.3-0.1-5-0.2C1,95.3,1.1,95.5,1,95.8
				c-0.1,0.2-0.2,0.4-0.2,0.7c0,0.1,0,0.1,0,0.2c0,0.1-0.1,0.1-0.1,0.2c-0.1,0.2-0.2,0.4-0.2,0.7c0,0.3,0,0.4,0.1,0.7
				c0.1,0.2,0.1,0.4,0.2,0.7C1,99,1.3,99,1.6,99.1v0c0,0,0,0,0,0.1c0,0-0.1,0-0.1,0c-0.2,0.1-0.2,0.3-0.3,0.5
				c-0.1,0.2-0.2,0.4-0.2,0.7c-0.1,0.3,0,0.4,0,0.7c0.1,0.2,0.1,0.4,0.2,0.7c18.5,2.8,37.1,5.5,55.6,8.3
				c-16.8,0.8-33.7,1.5-50.6,2.3c-0.2,0.2-0.1,0.4-0.2,0.6c0,0.2-0.1,0.5-0.1,0.8c0,0.3,0.1,0.4,0.2,0.7c0.1,0.2,0.2,0.4,0.3,0.6
				c0.2,0,0.3,0,0.5,0c0,0.2-0.1,0.3-0.1,0.6c0,0.3,0.1,0.4,0.2,0.7c0.1,0.2,0.2,0.4,0.3,0.6c24.2-1.1,48.4-2.2,72.6-3.4
				C134.7,121.6,189.6,129.8,244.6,138L244.6,138z M129.6,57c12.7-0.9,25.4-1.8,38.1-2.7c-23.6,2.9-47.2,5.7-70.8,8.5
				C107.9,60.9,118.7,58.9,129.6,57z M42.6,63c2.7-0.2,5.4-0.4,8.1-0.6c-0.8,0.2-1.6,0.4-2.3,0.6C46.4,63.1,44.5,63,42.6,63z
				 M67.5,63.3c3.3-0.9,6.7-1.8,10-2.7c5.6-0.4,11.3-0.8,16.9-1.2C86.2,60.7,78,62,69.8,63.3C69,63.3,68.2,63.3,67.5,63.3z
				 M177.9,64.5c14.6-0.6,29.1-1.2,43.7-1.8c-11.9,0.6-23.9,1.2-35.8,1.9C183.1,64.6,180.5,64.6,177.9,64.5z M133.6,66.7
				c0.6,0,1.3,0,2,0c-1.5,0.2-3,0.5-4.6,0.7c-1.1,0-2.1-0.1-3.2-0.1C129.7,67.1,131.7,66.9,133.6,66.7z M18.8,68
				c1.4-0.3,2.8-0.6,4.2-0.9c1.5,0.3,2.9,0.6,4.4,0.9c-2.1,0.1-4.2,0.2-6.3,0.3C20.3,68.2,19.5,68.1,18.8,68z M164.5,68.4
				c7.1-0.4,14.2-0.7,21.3-1.1c2.2,0,4.3,0.1,6.5,0.1c-5.8,0.4-11.5,0.9-17.3,1.3C171.5,68.6,168,68.5,164.5,68.4z M130.6,70.2
				c0.4,0,0.8-0.1,1.3-0.1c6.1,0.2,12.2,0.4,18.3,0.5c-15.5,1.2-30.9,2.4-46.4,3.6C112.7,72.9,121.7,71.5,130.6,70.2z M76,73.2
				c0.9-0.1,1.9-0.2,2.8-0.3c8.3-0.4,16.6-0.9,24.8-1.3c-6.7,1-13.5,2-20.2,3.1C81,74.2,78.5,73.7,76,73.2z M55.3,75.7
				c0.5,0.1,1.1,0.1,1.7,0.2c-1.5,0-3,0.1-4.6,0.1C53.3,76,54.3,75.9,55.3,75.7z M128.3,80.5c1.5-0.2,3.1-0.3,4.6-0.5
				c3.9,0,7.8-0.1,11.7-0.1c-4.4,0.2-8.8,0.4-13.1,0.7C130.4,80.6,129.4,80.6,128.3,80.5z M205.5,79.4c0.6,0,1.1,0,1.7,0
				c-7.1,0.6-14.3,1.1-21.4,1.7c-5,0.1-9.9,0.1-14.9,0.2C182.4,80.6,194,80,205.5,79.4z M138.3,93.1c0.7,0,1.4,0,2.1,0
				c3.9,0.5,7.8,1,11.7,1.4c-0.3,0-0.6,0-0.9,0C147,94,142.7,93.5,138.3,93.1z M7.1,99.9c0.5,0,1,0,1.6,0.1c0,0,0,0,0,0
				c0,0.1,0,0.1,0,0.1C8.1,100.1,7.6,100,7.1,99.9z M109.8,106.1c1.3,0.1,2.6,0.2,3.9,0.3c2.3,0.2,4.6,0.5,6.9,0.7
				c-2.6,0.1-5.1,0.2-7.7,0.3c-4.3-0.7-8.6-1.3-12.9-2C103.3,105.7,106.6,105.9,109.8,106.1z M19,101.7c4.1,0.1,8.1,0.3,12.2,0.4
				c14.3,1.5,28.5,3,42.8,4.4c4,0.7,8.1,1.4,12.1,2.1c-5.2,0.2-10.4,0.5-15.6,0.7C53.4,106.8,36.2,104.3,19,101.7z M199.7,115.5
				c0.2,0,0.4,0,0.6,0.1c0.4,0.1,0.7,0.1,1.1,0.2C200.9,115.6,200.3,115.6,199.7,115.5z M226.8,114.8c5.4,0.8,10.9,1.7,16.3,2.6
				c-14.2-1.5-28.3-3-42.4-4.5c-0.1,0-0.2,0-0.2,0C209.3,113.5,218.1,114.2,226.8,114.8z M147.1,110.3c8.4,1.3,16.9,2.5,25.3,3.8
				c-11-1.1-21.9-2.3-32.9-3.4C142.1,110.6,144.6,110.4,147.1,110.3z M93.5,112.8c4.3-0.2,8.5-0.4,12.8-0.6
				c31.8,5.6,63.6,11.1,95.4,16.7C165.7,123.5,129.6,118.2,93.5,112.8z"/>
		</defs>
		<clipPath id="SVGID_00000029755111083128879200000014803221797648364713_">
			<use xlink:href="#SVGID_1_"  style="overflow:visible;"/>
		</clipPath>
		
			<radialGradient id="SVGID_00000078744485655188671590000018085020325701179268_" cx="128.5952" cy="125.8181" r="7.1392" gradientTransform="matrix(20.1471 -1.6013 0.1074 1.3612 -2412.7908 114.0293)" gradientUnits="userSpaceOnUse">
			<stop  offset="0.1259" style="stop-color:#DEA331"/>
			<stop  offset="0.2296" style="stop-color:#EDBB5A"/>
			<stop  offset="0.3259" style="stop-color:#F8D48E"/>
			<stop  offset="0.4481" style="stop-color:#FAECCF"/>
			<stop  offset="0.5852" style="stop-color:#FCF4E3"/>
			<stop  offset="0.7407" style="stop-color:#FEFCF7"/>
			<stop  offset="0.9963" style="stop-color:#FFFFFF"/>
		</radialGradient>
		
			<path style="clip-path:url(#SVGID_00000029755111083128879200000014803221797648364713_);fill:url(#SVGID_00000078744485655188671590000018085020325701179268_);" d="
			M335.4,67.9c0.4,5.4-63.6,14.8-143,21.2c-79.4,6.3-144.2,7.1-144.6,1.7c-0.4-5.4,63.6-14.8,143.1-21.2
			C270.3,63.3,335,62.6,335.4,67.9z"/>
		
			<radialGradient id="SVGID_00000083066184718759386560000006443062318724956056_" cx="124.7047" cy="128.9106" r="7.1381" gradientTransform="matrix(25.5294 4.2134 -0.2762 1.6675 -3025.1223 -629.2388)" gradientUnits="userSpaceOnUse">
			<stop  offset="0.1259" style="stop-color:#DEA331"/>
			<stop  offset="0.2296" style="stop-color:#EDBB5A"/>
			<stop  offset="0.3259" style="stop-color:#F8D48E"/>
			<stop  offset="0.4481" style="stop-color:#FAECCF"/>
			<stop  offset="0.5852" style="stop-color:#FCF4E3"/>
			<stop  offset="0.7407" style="stop-color:#FEFCF7"/>
			<stop  offset="0.9963" style="stop-color:#FFFFFF"/>
		</radialGradient>
		
			<path style="clip-path:url(#SVGID_00000029755111083128879200000014803221797648364713_);fill:url(#SVGID_00000083066184718759386560000006443062318724956056_);" d="
			M305.1,141.2c-1.1,6.6-83.6-1.6-184.2-18.2C20.3,106.5-60.5,87.6-59.3,81.1c1.1-6.6,83.5,1.6,184.2,18.2
			C225.6,115.9,306.3,134.7,305.1,141.2z"/>
		
			<radialGradient id="SVGID_00000110441202214584511150000002970611166881686442_" cx="125.0862" cy="124.4544" r="7.1368" gradientTransform="matrix(31.3942 5.1813 -0.2765 1.6675 -3703.5027 -741.0884)" gradientUnits="userSpaceOnUse">
			<stop  offset="1.342280e-02" style="stop-color:#FFFFFF"/>
			<stop  offset="6.711410e-02" style="stop-color:#FFC44F"/>
			<stop  offset="0.2506" style="stop-color:#8C6C2C"/>
			<stop  offset="0.387" style="stop-color:#604A1E"/>
			<stop  offset="0.5414" style="stop-color:#382B11"/>
			<stop  offset="0.7226" style="stop-color:#1A1408"/>
			<stop  offset="1" style="stop-color:#000000"/>
		</radialGradient>
		
			<path style="clip-path:url(#SVGID_00000029755111083128879200000014803221797648364713_);fill:url(#SVGID_00000110441202214584511150000002970611166881686442_);" d="
			M413.2,151.5c-1.1,6.6-102.3-4.7-226.1-25.1C63.3,106-36.2,84.1-35,77.6c1.1-6.6,102.3,4.7,226.1,25.1
			C314.9,123.1,414.3,145,413.2,151.5z"/>
		
			<radialGradient id="SVGID_00000018934213023222243900000000230653416544119466_" cx="122.4873" cy="122.3645" r="7.1388" gradientTransform="matrix(31.0256 -7.0605 0.2463 1.0878 -3701.6367 774.2299)" gradientUnits="userSpaceOnUse">
			<stop  offset="1.342280e-02" style="stop-color:#FFFFFF"/>
			<stop  offset="6.711410e-02" style="stop-color:#FFC44F"/>
			<stop  offset="0.2506" style="stop-color:#8C6C2C"/>
			<stop  offset="0.387" style="stop-color:#604A1E"/>
			<stop  offset="0.5414" style="stop-color:#382B11"/>
			<stop  offset="0.7226" style="stop-color:#1A1408"/>
			<stop  offset="1" style="stop-color:#000000"/>
		</radialGradient>
		
			<path style="clip-path:url(#SVGID_00000029755111083128879200000014803221797648364713_);fill:url(#SVGID_00000018934213023222243900000000230653416544119466_);" d="
			M350.2-7.9c1,4.3-97.4,30.3-219.7,58.2C8.2,78.1-91.8,97.2-92.7,92.9C-93.6,88.6,4.7,62.6,127,34.7
			C249.4,6.9,349.3-12.2,350.2-7.9z"/>
		
			<radialGradient id="SVGID_00000052797622802922601400000015797018778940145796_" cx="125.4862" cy="152.836" r="7.1375" gradientTransform="matrix(31.806 0.9046 -3.300000e-02 1.1148 -3762.0171 -190.4715)" gradientUnits="userSpaceOnUse">
			<stop  offset="1.342280e-02" style="stop-color:#FFFFFF"/>
			<stop  offset="6.711410e-02" style="stop-color:#FFC44F"/>
			<stop  offset="0.2506" style="stop-color:#8C6C2C"/>
			<stop  offset="0.387" style="stop-color:#604A1E"/>
			<stop  offset="0.5414" style="stop-color:#382B11"/>
			<stop  offset="0.7226" style="stop-color:#1A1408"/>
			<stop  offset="1" style="stop-color:#000000"/>
		</radialGradient>
		
			<path style="clip-path:url(#SVGID_00000029755111083128879200000014803221797648364713_);fill:url(#SVGID_00000052797622802922601400000015797018778940145796_);" d="
			M451.2,99.9c-0.1,4.4-101.9,5.1-227.3,1.5C98.5,97.8-3.1,91.4-2.9,87c0.2-4.4,101.9-5.1,227.3-1.5C349.9,89,451.4,95.5,451.2,99.9
			z"/>
		
			<radialGradient id="SVGID_00000132775623336814811950000014312369723774187174_" cx="123.3297" cy="127.7088" r="7.1364" gradientTransform="matrix(31.7808 -1.5549 5.980000e-02 1.2469 -3782.759 107.7408)" gradientUnits="userSpaceOnUse">
			<stop  offset="1.342280e-02" style="stop-color:#FFFFFF"/>
			<stop  offset="6.711410e-02" style="stop-color:#FFC44F"/>
			<stop  offset="0.2506" style="stop-color:#8C6C2C"/>
			<stop  offset="0.387" style="stop-color:#604A1E"/>
			<stop  offset="0.5414" style="stop-color:#382B11"/>
			<stop  offset="0.7226" style="stop-color:#1A1408"/>
			<stop  offset="1" style="stop-color:#000000"/>
		</radialGradient>
		
			<path style="clip-path:url(#SVGID_00000029755111083128879200000014803221797648364713_);fill:url(#SVGID_00000132775623336814811950000014312369723774187174_);" d="
			M371.2,64.1c0.2,4.9-101.2,13.9-226.4,20C19.6,90.2-82.3,91.2-82.5,86.3c-0.2-4.9,101.1-13.9,226.5-20
			C269.4,60.2,371.1,59.2,371.2,64.1z"/>
		
			<radialGradient id="SVGID_00000011715930514766067980000007421167322677541281_" cx="122.2567" cy="126.4093" r="3.9327" gradientTransform="matrix(19.97 -1.1369 9.530000e-02 1.6875 -2387.2642 13.8438)" gradientUnits="userSpaceOnUse">
			<stop  offset="0.1259" style="stop-color:#DEA331"/>
			<stop  offset="0.2296" style="stop-color:#EDBB5A"/>
			<stop  offset="0.3259" style="stop-color:#F8D48E"/>
			<stop  offset="0.4481" style="stop-color:#FAECCF"/>
			<stop  offset="0.5852" style="stop-color:#FCF4E3"/>
			<stop  offset="0.7407" style="stop-color:#FEFCF7"/>
			<stop  offset="0.9963" style="stop-color:#FFFFFF"/>
		</radialGradient>
		
			<path style="clip-path:url(#SVGID_00000029755111083128879200000014803221797648364713_);fill:url(#SVGID_00000011715930514766067980000007421167322677541281_);" d="
			M144.8,83.7c0.2,3.7-34.8,8.6-78.2,11.1c-43.4,2.5-78.7,1.5-78.9-2.2C-12.5,89,22.5,84,65.9,81.5C109.3,79.1,144.6,80,144.8,83.7z
			"/>
		
			<radialGradient id="SVGID_00000137112732038340081810000008058202424664184449_" cx="120.2264" cy="114.7071" r="3.933" gradientTransform="matrix(26.794 -3.098 0.1931 1.6792 -3184.0637 245.2245)" gradientUnits="userSpaceOnUse">
			<stop  offset="0.1259" style="stop-color:#DEA331"/>
			<stop  offset="0.2296" style="stop-color:#EDBB5A"/>
			<stop  offset="0.3259" style="stop-color:#F8D48E"/>
			<stop  offset="0.4481" style="stop-color:#FAECCF"/>
			<stop  offset="0.5852" style="stop-color:#FCF4E3"/>
			<stop  offset="0.7407" style="stop-color:#FEFCF7"/>
			<stop  offset="0.9963" style="stop-color:#FFFFFF"/>
		</radialGradient>
		
			<path style="clip-path:url(#SVGID_00000029755111083128879200000014803221797648364713_);fill:url(#SVGID_00000137112732038340081810000008058202424664184449_);" d="
			M164.8,53.2c0.4,3.6-46.4,12.1-104.6,18.8C2,78.7-45.6,81.2-45.9,77.6c-0.4-3.7,46.4-12.1,104.6-18.8
			C116.9,52,164.4,49.5,164.8,53.2z"/>
		
			<radialGradient id="SVGID_00000065033549604081783370000001472205527760595636_" cx="124.3917" cy="122.6946" r="3.9331" gradientTransform="matrix(26.794 -3.098 0.1931 1.6792 -3184.0637 245.2245)" gradientUnits="userSpaceOnUse">
			<stop  offset="0.1259" style="stop-color:#DEA331"/>
			<stop  offset="0.2296" style="stop-color:#EDBB5A"/>
			<stop  offset="0.3259" style="stop-color:#F8D48E"/>
			<stop  offset="0.4481" style="stop-color:#FAECCF"/>
			<stop  offset="0.5852" style="stop-color:#FCF4E3"/>
			<stop  offset="0.7407" style="stop-color:#FEFCF7"/>
			<stop  offset="0.9963" style="stop-color:#FFFFFF"/>
		</radialGradient>
		
			<path style="clip-path:url(#SVGID_00000029755111083128879200000014803221797648364713_);fill:url(#SVGID_00000065033549604081783370000001472205527760595636_);" d="
			M277.9,53.7c0.4,3.6-46.4,12.1-104.6,18.8c-58.2,6.7-105.7,9.2-106.1,5.6c-0.4-3.7,46.4-12.1,104.6-18.8
			C230.1,52.6,277.6,50.1,277.9,53.7z"/>
	</g>
</g>
</svg>
