<?xml version="1.0" encoding="utf-8"?>
<!-- Generator: Adobe Illustrator 27.3.1, SVG Export Plug-In . SVG Version: 6.00 Build 0)  -->
<svg version="1.1" id="Layer_1" xmlns="http://www.w3.org/2000/svg" xmlns:xlink="http://www.w3.org/1999/xlink" x="0px" y="0px"
	 viewBox="0 0 256 149.4" style="enable-background:new 0 0 256 149.4;" xml:space="preserve">
<g>
	<g>
		<g>
			<path d="M109.1,133.5c0.4,2.4-1.2,4.8-3.7,5.2l0,0c-2.4,0.4-4.8-1.2-5.2-3.7L79.1,13.8c-0.4-2.5,1.2-4.8,3.7-5.2l0,0
				c2.4-0.4,4.8,1.2,5.2,3.7L109.1,133.5z"/>
		</g>
	</g>
	<g>
		<g>
			<path d="M98.5,143.7c0.7,2.4-0.8,4.9-3.1,5.5l0,0c-2.4,0.7-4.9-0.8-5.5-3.2L57.3,27.4c-0.7-2.4,0.8-4.9,3.2-5.5l0,0
				c2.4-0.7,4.9,0.8,5.5,3.2L98.5,143.7z"/>
		</g>
	</g>
	<g>
		<g>
			<path d="M122.1,135.7c-0.1,2.5-2.2,4.4-4.7,4.3l0,0c-2.5-0.1-4.4-2.2-4.3-4.7l4.9-123c0.1-2.5,2.2-4.4,4.7-4.3l0,0
				c2.5,0.1,4.4,2.2,4.3,4.7L122.1,135.7z"/>
		</g>
	</g>
	<g>
		<g>
			<path d="M134.1,125.3c-0.6,2.4-3,3.9-5.4,3.3l0,0c-2.4-0.6-3.9-3-3.3-5.4L153.6,3.5c0.6-2.4,3-3.9,5.4-3.3l0,0
				c2.4,0.6,3.9,3,3.3,5.4L134.1,125.3z"/>
		</g>
	</g>
	<g>
		<g>
			<path d="M139,143.1c-1.2,2.2-3.9,3-6.1,1.8l0,0c-2.2-1.2-3-3.9-1.8-6.1L190.4,31c1.2-2.2,3.9-3,6.1-1.8l0,0
				c2.2,1.2,3,3.9,1.8,6.1L139,143.1z"/>
		</g>
	</g>
</g>
</svg>
