<?xml version="1.0" encoding="utf-8"?>
<!-- Generator: Adobe Illustrator 27.3.1, SVG Export Plug-In . SVG Version: 6.00 Build 0)  -->
<svg version="1.1" id="Layer_1" xmlns="http://www.w3.org/2000/svg" xmlns:xlink="http://www.w3.org/1999/xlink" x="0px" y="0px"
	 viewBox="0 0 256 149.4" style="enable-background:new 0 0 256 149.4;" xml:space="preserve">
<style type="text/css">
	.st0{fill:#FFEBD7;}
	.st1{opacity:0.67;fill:#FFFFFF;}
	.st2{fill:#F2DFCE;}
	.st3{fill:#EFC59E;}
	.st4{fill:#D19A59;}
	.st5{fill:#F4B664;}
	.st6{fill:#FFD56C;}
	.st7{fill:#628453;}
	.st8{fill:#59754B;}
	.st9{opacity:8.000000e-02;fill:#FFFFFF;}
	.st10{fill:#80A86C;}
	.st11{fill:#779964;}
	.st12{opacity:0.18;fill:#FFFFFF;}
	.st13{fill:#F9F5D2;}
	.st14{fill:#6EAF62;}
</style>
<g>
	<g>
		
			<ellipse transform="matrix(0.1299 -0.9915 0.9915 0.1299 37.3266 191.8872)" class="st0" cx="128" cy="74.7" rx="74.7" ry="74.7"/>
		<path class="st1" d="M58.9,74.5c0-38.3,31.7-69.3,70.8-69.3c13.4,0,25.9,3.6,36.6,10c-11.2-7.3-24.7-11.6-39.2-11.6
			c-39.1,0-70.8,31-70.8,69.3c0,25.2,13.7,47.2,34.2,59.3C71.4,119.8,58.9,98.6,58.9,74.5z"/>
		<path class="st2" d="M169.4,12.5c17.5,13.7,28.8,35,28.8,58.9c0,41.2-33.4,74.7-74.7,74.7c-15.3,0-29.5-4.6-41.4-12.5
			c12.7,9.9,28.6,15.8,45.9,15.8c41.2,0,74.7-33.4,74.7-74.7C202.7,48.7,189.5,25.9,169.4,12.5z"/>
	</g>
	<path class="st3" d="M107.3,41c-3.3,0.9-6.7,1-10,1.6c-3.3,0.6-6.7,1.7-9,4.2c-2.3,2.5-3,6.6-0.9,9.3c3.1,3.9,10,2.8,12.9,6.8
		c1.8,2.6,1,6.4-1.1,8.9c-2.1,2.4-5.1,3.9-8,5.2c-2.9,1.3-5.9,2.7-8,5.2c-3.1,3.6-3.4,9.1-1.1,13.2c2.3,4.1,7,6.7,11.7,6.7
		c1.3,0,3,0,3.7,1.1c0.3,0.6,0.3,1.3,0.3,1.9c-0.3,3.9-0.8,7.8,0.2,11.5c0.8,3,2.8,5.7,5.5,7.3c2.7,1.5,6.2,1.7,9,0.2
		c3.6-2,5.3-6.3,8.8-8.5c3.5-2.1,8.4-1.4,11.2,1.6c1.2,1.3,2,3,3.6,3.6c1,0.4,2.1,0.3,3.1,0.2c2.2-0.3,4.4-0.7,6.5-1.2
		c3.4-0.9,7.3-2.8,7.8-6.3c0.4-2.7-1.5-5.5-0.8-8.1c0.6-2.2,2.8-3.6,5.1-4.1c2.2-0.5,4.5-0.2,6.8-0.3c5-0.2,10.2-2.1,12.8-6.3
		c2.7-4.2,1.8-10.7-2.6-12.9c-1.5-0.8-3.4-1.1-4.3-2.6c-0.9-1.4-0.3-3.4,0.8-4.7c1.1-1.3,2.6-2.2,3.8-3.3c4-3.5,5.5-9.6,3.6-14.6
		c-1.9-5-7.1-8.5-12.4-8.5c-2.8,0-6,0.8-8.2-1.1c-1.7-1.5-1.9-4-1.9-6.2c0-2.1,0.1-4.3,0.3-6.4c0.1-1.1,0.2-2.4-0.3-3.4
		c-0.6-1.3-2-2.1-3.3-2.6c-3.5-1.4-7.7-2.1-11.1-0.3c-4.5,2.3-7.2,8.4-12.3,8.3c-5-0.1-10.5-6.6-15.3-5.8
		C108.8,31.5,113.1,39.6,107.3,41z"/>
	<g>
		<path class="st4" d="M109.2,104.6c0.1-3-1.3-5.7-2.1-8.5c-0.6-2-0.9-4.2,0-6.1c0.4-0.9,0.9-1.6,1.8-2c0.9-0.4,2-0.6,2.8-1.4
			c0.4-0.4,0.7-1,0.6-1.5c0-0.7-0.5-1.4-1-1.9c-1-0.9-2.1-1.7-3.4-2.2c-1.2-0.5-2.6-0.6-3.9-0.4c-1.2,0.2-2.3,0.9-3.2,1.8
			c-1.8,1.7-2.6,4.1-4,6.1c-1.2,1.7-3.2,3.7-5.5,2.8c-2-0.8-2.8-3.4-3.4-5.3c-1.3-4.7-1.5-10.2,1.4-14.3c0.7-1,1.6-1.9,2.7-2.4
			c1.1-0.5,2.2-0.3,3.2,0.4c2,1.6,2.9,4.2,3.6,6.6c0.3,1.3,0.5,2.6,1.1,3.8c0.6,1.2,1.8,1.9,3.1,2.2c2.4,0.4,5.1-0.4,7-1.7
			c2.1-1.4,3.3-3.8,2.5-6.3c-0.9-2.6-3.4-4.2-6.1-4.6c-1.5-0.2-3-0.2-4.5,0c-1.4,0.1-2.8,0.4-4.2,0.1c-2.4-0.5-3.6-2.7-4-5
			c-0.2-1-0.1-1.9,0.2-2.9c0.1-0.3,0.4-0.8,0.6-1.1c0.1-0.1,0.2-0.2,0.2-0.3c0,0,0.2-0.2,0.2-0.1c0.1-0.1,0.2-0.1,0.3-0.2
			c0.1-0.1,0.1-0.1,0.2-0.1c0.5-0.1,1-0.1,1.6-0.1c0.7-0.1,1.3-0.5,1.6-1.2c0.3-0.6,0.2-1.4,0.2-2c0-0.7-0.1-1.5-0.3-2.2
			c-0.3-1.4-0.8-2.7-1.5-3.9c0,0.4-0.1,0.7-0.1,1.1c0.9-0.7,2.3-0.3,3,0.4c0.9,1,1.1,2.4,1,3.7c0,1.3-0.1,2.8,0.7,4
			c1,1.4,2.8,1.6,4.4,1.1c2.8-0.9,5.1-3,6.2-5.7c1.2-2.8,0.9-5.9-0.5-8.5c-0.7-1.3-1.7-2.4-2.9-3.3c-0.7-0.5-2.4-1.2-2-2.2
			c0.5-1.2,2.2-1.6,3.4-1.7c1.4-0.1,2.8,0.2,4.2,0.7c2.9,1.1,5.3,3.3,7.4,5.5c1.2,1.3,2.3,2.6,3.3,4c0.8,1.1,1.6,2.3,2,3.7
			c0.3,1,0.4,2.2-0.4,3c-0.5,0.5-1.1,0.7-1.8,0.9c-0.8,0.2-1.5,0.4-2.3,0.7c-3,1-6.1,2.3-8.3,4.7c-2.1,2.2-3.3,5.3-2.8,8.4
			c0.5,2.6,2.6,4.9,5.2,5.5c1.3,0.3,2.6,0.2,3.9-0.4c1.2-0.6,2.1-1.6,2.7-2.7c0.7-1.2,1-2.5,1.4-3.7c0.3-1.2,0.6-2.5,1.1-3.7
			c0.2-0.5,0.6-1.1,1.1-1.4c0.2-0.1,0.3-0.1,0.5,0c0.2,0.1,0.4,0.4,0.5,0.6c0.7,1.1,1,2.4,0.9,3.7c-0.1,1.3-0.5,2.6-1.3,3.6
			c-0.9,1.2-2.2,1.9-3.4,2.6c-1.3,0.8-2.7,1.5-3.8,2.7c-1,1.1-1.8,2.5-1.9,4.1c-0.1,1.5,0.7,2.8,1.8,3.7c1,0.9,2.2,1.5,3.1,2.5
			c0.8,1,1.1,2.4,0.7,3.6c-0.3,1.2-1.3,2.3-2.5,2.7c-2.8,1-5.2-1.3-6.7-3.4c-0.9-1.4-1.7-2.8-2.3-4.4c-0.2-0.6-1-0.9-1.5-0.4
			c-2.9,3-4,7.5-2.9,11.6c0.3,1,0.7,2,1.2,2.8c0.3,0.4,0.5,0.9,0.9,1.2c0.5,0.5,1.2,0.7,1.9,0.7c1.3,0.1,2.6-0.1,3.9-0.2
			c1.3-0.1,2.6-0.2,4-0.1c2.2,0.1,4.2,0.7,5.7,2.3c1.1,1.2,1.9,3,1.1,4.6c-0.8,1.5-2.6,2.2-4.3,2.1c-2.2-0.1-4.1-1.5-5.7-2.9
			c-0.4-0.4-0.8-0.7-1.2-1.1c-0.5-0.5-0.9-1-1.6-1.1c-1.1-0.3-2.3,0.6-3.1,1.3c-1.4,1.4-2.1,3.5-1.9,5.5c0.4,4.7,4.9,7.7,9.2,8.4
			c2.6,0.4,5.2,0.4,7.8,0.1c2.5-0.2,5.1-0.7,7.5-1.6c4.2-1.6,7.9-4.7,9.4-9c0.3-0.9,0.4-1.9,0.7-2.8c0.1-0.4,0.2-0.7,0.4-1
			c0.1-0.2,0.1-0.2,0.3-0.4c0,0,0.2-0.2,0.1-0.1c0,0,0.3-0.2,0.2-0.1c0.8-0.3,1.9,0.7,2.5,1.3c0.8,0.7,1.6,1.6,2.2,2.5
			c0.6,0.9,1,1.9,1.7,2.7c0.8,0.9,2,1.2,3.1,1c2.3-0.5,3.8-2.9,4.5-5c0.8-2.2,0.7-4.7-0.4-6.8c-0.9-1.9-2.7-3.5-4.7-4.1
			c-2.4-0.7-4.9-0.1-7.1,0.9c-2.2,1-4.1,2.5-6,3.9c-1.9,1.3-4,2.5-6.3,2.5c-1,0-2-0.3-2.7-0.9c-0.6-0.6-1-1.3-1.3-2.1
			c-1.1-3.6,0.4-8,2.9-10.7c1.3-1.4,2.8-2.5,4.7-2.9c2.2-0.5,4.3,0.2,6.2,1.1c1.1,0.5,2.2,1.1,3.2,1.8c0.8,0.5,1.1,1.2,1.3,2.1
			c0.3,1.7-0.1,3.6,0.1,5.3c0.1,0.9,0.3,1.8,0.9,2.6c0.2,0.2,0.3,0.4,0.5,0.6c0.4,0.3,0.7,0.3,1.1,0.2c0.5-0.1,1-0.3,1.5-0.4
			c2-0.6,4-1.3,5.9-2.2c3.6-1.8,7.5-5.2,7.4-9.7c-0.1-2.2-1.4-4-3.4-4.9c-1.8-0.7-3.8-0.7-5.7-0.4c-1.9,0.2-3.7,0.6-5.6,0.4
			c-1.6-0.1-3.2-0.8-3.9-2.3c-0.7-1.8-0.5-3.9-2-5.4c-0.1,0.5-0.1,0.9-0.2,1.4c2.2-1.3,4.6-2.2,7.1-2.5c-0.3-0.1-0.5-0.3-0.8-0.4
			c1,2,2.1,4.1,4,5.3c2,1.3,4.4,1.1,6.7,1.1c1.9-0.1,4.2,0,5.5,1.7c1.1,1.5,1.2,3.5,0.6,5.3c-0.8,2.6-2.8,4.6-4.7,6.4
			c-0.5,0.5-0.2,1.3,0.4,1.5c3.7,1.6,8.1-0.4,10.2-3.7c2.4-3.7,2.2-8.4,0.7-12.4c-0.8-2.2-1.9-4.2-3.1-6.2c-1.1-1.8-2.5-3.6-2.8-5.8
			c-0.2-2,0.5-4-0.2-6c-0.7-2-2.6-3.1-4.7-2.9c-2.1,0.2-3.9,1.5-5.2,3.2c-1.4,1.7-2.7,3.9-2.6,6.2c0,0.5,0.2,1,0.3,1.6
			c0.1,0.4,0.1,0.6-0.2,0.8c-0.7,0.4-1.7,0.6-2.5,0.7c-1.8,0.2-3.6-0.2-5.3-1.1c-3.6-1.8-5.7-5.4-6.5-9.3c-0.4-2-0.5-4.1-0.4-6.2
			c0.2-1.9,0.7-3.8,1.9-5.3c1-1.3,2.6-2.1,4.3-2.1c0.8,0,1.5,0.2,2.1,0.6c0.7,0.5,1.2,1.2,1.5,2c0.7,1.7,0.9,3.7,1.9,5.3
			c0.6,1,1.4,1.8,2.5,2.1c1.2,0.3,2.5,0.3,3.7,0.3c1.2,0.1,2.5,0.2,3.7,0.3c0.4,0,0.8-0.3,0.9-0.7c0.8-4.5,1.4-9.7-1.7-13.5
			c-1.6-1.9-4-2.9-6.3-3.5c-2.2-0.5-4.4-0.8-6.7-0.5c-2.1,0.3-4.3,1-5.8,2.6c-1.4,1.5-1.9,3.5-2.6,5.3c-0.7,1.6-1.8,3.1-3.8,2.7
			c-2.2-0.5-4-2.8-4.8-4.8c-0.8-2.2-0.4-4.6,1.1-6.4c1.5-1.9,3.8-3,6.1-3.7c0.6-0.2,1.3-0.3,1.9-0.5c-0.3-0.1-0.7-0.3-1-0.4
			c1.1,1.4,2.2,2.8,3.6,4c0.5,0.4,1.1,0.3,1.4-0.2c1.1-1.6,2.2-3.2,3.4-4.8c0.4-0.5,0-1.1-0.5-1.3c-4.8-1.9-10.1-1.3-15-0.6
			c-2.2,0.3-4.8,0.5-6.3,2.3c-0.8,0.9-1.2,2-1.6,3.1c-0.4,1.2-0.8,2.4-0.9,3.7c-0.1,1.3,0.1,2.5,0.8,3.6c0.3,0.5,0.6,0.9,0.8,1.4
			c0.3,0.5,0.3,1,0.3,1.6c-0.1,2.2-1.7,4.2-3.2,5.7c-0.8,0.8-1.6,1.5-2.5,2.1c-0.5,0.3-0.9,0.6-1.4,0.8c-0.4,0.2-0.9,0.5-1.3,0.3
			c-0.5-0.2-0.8-0.7-1.2-1.1c-0.4-0.4-0.9-0.9-1.2-1.4c-0.5-0.7-0.9-1.4-1.1-2.2c-1-3.5,0.6-7.7,4-9.3c0.6-0.3,0.6-1.3,0-1.6
			c-1.2-0.6-2.6-0.2-3.3,0.9c-0.6,1,1,1.9,1.6,0.9c0.2-0.3,0.5-0.4,0.8-0.3c0-0.5,0-1,0-1.6c-3.5,1.6-5.4,5.6-5.2,9.3
			c0.1,2,0.9,3.8,2.2,5.4c0.4,0.5,0.8,0.9,1.3,1.3c0.4,0.4,0.9,0.9,1.5,1.1c1.3,0.6,2.6-0.2,3.7-0.9c2.1-1.3,3.9-3,5.3-5
			c1.4-2,2.4-4.6,1.4-7c-0.5-1.1-1.3-1.9-1.5-3.1c-0.1-1.3,0.3-2.5,0.6-3.7c0.3-1,0.7-2.2,1.4-3c0.7-0.8,1.7-1.2,2.7-1.4
			c1.3-0.3,2.7-0.4,4-0.6c1.5-0.2,2.9-0.3,4.4-0.4c2.9-0.1,5.8,0.1,8.5,1.2c-0.2-0.4-0.4-0.9-0.5-1.3c-1.1,1.6-2.2,3.2-3.4,4.8
			c0.5-0.1,0.9-0.1,1.4-0.2c-1.2-1.1-2.3-2.3-3.3-3.6c-0.3-0.3-0.6-0.5-1-0.4c-2.6,0.6-5.2,1.5-7.3,3.2c-1.9,1.5-3.3,3.8-3.6,6.3
			c-0.3,2.7,1.1,5.3,2.9,7.1c1.7,1.8,4.3,3.2,6.8,2.1c1.9-0.9,2.6-2.9,3.3-4.7c0.7-1.8,1.4-3.5,3.1-4.5c1.8-1.1,3.9-1.2,6-1.1
			c2.2,0.1,4.6,0.6,6.6,1.7c2,1.1,3.4,2.9,3.9,5.1c0.5,2.2,0.3,4.6,0,6.8c-0.1,0.6-0.2,1.1-0.3,1.7c0.3-0.2,0.6-0.4,0.9-0.7
			c-1.2-0.1-2.5-0.2-3.7-0.3c-0.6,0-1.2-0.1-1.9-0.1c-0.5,0-1.1,0-1.6-0.2c-0.8-0.3-1.3-1.3-1.6-2.1c-0.3-0.9-0.6-1.8-0.8-2.7
			c-0.5-1.8-1.4-3.7-3.2-4.6c-1.7-0.9-3.8-0.7-5.5,0c-3.9,1.7-5.1,6.3-5.2,10.2c-0.1,4.1,0.9,8.5,3.5,11.8c2.4,3.1,6.3,5.2,10.3,5
			c1.8-0.1,4.8-0.7,4.8-3c0-0.5-0.2-1-0.2-1.5c-0.1-0.5-0.1-1,0-1.5c0.2-1.1,0.8-2.1,1.4-3c1-1.5,2.4-3.2,4.3-3.5
			c0.8-0.1,1.6,0,2.2,0.4c0.7,0.4,1,1.2,1.1,1.9c0.1,1,0,2-0.1,3c-0.1,1.1,0,2.1,0.3,3.2c0.6,2.2,2,4,3.1,6
			c2.2,3.6,4.1,7.8,3.5,12.2c-0.3,1.9-1.1,3.8-2.5,5.2c-1.2,1.2-2.9,2-4.6,2.1c-0.9,0-1.7-0.1-2.5-0.5c0.1,0.5,0.3,1,0.4,1.5
			c1.8-1.8,3.6-3.7,4.7-6c0.9-2,1.2-4.4,0.4-6.5c-0.4-1-1-1.9-1.8-2.6c-1-0.8-2.1-1.2-3.4-1.3c-2.3-0.3-4.7,0.4-6.9-0.2
			c-2.5-0.7-3.7-3.2-4.8-5.3c-0.1-0.3-0.5-0.5-0.8-0.4c-2.8,0.3-5.6,1.2-8,2.7c-0.5,0.3-0.6,1-0.2,1.4c1.1,1,1,2.7,1.4,4.1
			c0.4,1.5,1.4,2.7,2.8,3.4c2.8,1.4,5.8,0.7,8.7,0.3c2.5-0.3,6.2-0.4,7.1,2.4c1,3-1.5,6-3.7,7.7c-2.9,2.1-6.3,3.1-9.7,4
			c0.3,0.1,0.6,0.2,0.9,0.2c-0.9-0.9-1-2.1-0.9-3.4c0-1.5,0.2-3-0.1-4.4c-0.2-0.8-0.5-1.5-1-2c-0.6-0.7-1.5-1.2-2.3-1.7
			c-1.7-1-3.5-1.9-5.5-2.3c-7-1.5-12.5,5.3-13.2,11.7c-0.3,3.1,0.6,6.8,3.8,8.1c3.7,1.5,7.6-1,10.5-3c1.6-1.1,3.1-2.2,4.8-3.1
			c1.6-0.8,3.4-1.3,5.2-1c3.2,0.5,5.3,3.7,5.1,6.9c-0.1,1.7-0.8,3.4-2,4.6c-0.5,0.5-1.1,1-1.9,1.1c-0.7,0.1-1.2-0.4-1.5-1
			c-0.5-0.7-0.8-1.5-1.3-2.2c-0.5-0.8-1.1-1.5-1.8-2.2c-1.2-1.2-3-2.8-4.8-2.2c-1.5,0.6-2,2.2-2.3,3.6c-0.2,0.8-0.3,1.5-0.6,2.3
			c-0.3,0.7-0.7,1.4-1.1,2.1c-1.9,2.9-5,4.8-8.2,5.8c-1.9,0.6-3.8,0.9-5.7,1.1c-2,0.2-4.1,0.3-6.1,0.1c-3.4-0.3-7-1.8-8.5-5
			c-0.6-1.3-0.7-2.8-0.2-4.1c0.2-0.6,0.5-1.2,1-1.7c0.2-0.2,0.5-0.5,0.7-0.7c0.2-0.1,0.6-0.4,0.8-0.4c0.3,0.1,0.6,0.5,0.9,0.8
			c0.3,0.3,0.7,0.7,1,1c0.7,0.6,1.4,1.3,2.2,1.8c1.5,1,3.2,1.7,5,1.7c1.6,0,3.2-0.5,4.4-1.5c1.2-1,1.9-2.6,1.8-4.2
			c-0.3-3.4-3.4-6-6.6-6.7c-2.1-0.4-4.2-0.3-6.3-0.2c-1,0.1-2.1,0.2-3.1,0.2c-0.4,0-0.8,0.1-1.2-0.1c-0.3-0.1-0.5-0.5-0.7-0.7
			c-1.6-2.6-1.9-5.9-0.9-8.7c0.5-1.4,1.2-2.6,2.2-3.7c-0.5-0.1-1-0.3-1.5-0.4c1.1,3.1,3,6.4,5.8,8.2c1.3,0.9,2.9,1.3,4.5,1.1
			c1.6-0.2,3-1.1,3.9-2.4c0.9-1.3,1.2-2.9,1-4.4c-0.2-1.5-1.1-2.8-2.3-3.7c-1-0.8-2.3-1.4-3-2.6c-0.7-1.2-0.2-2.5,0.5-3.5
			c0.8-1.2,2.1-2,3.4-2.8c1.4-0.8,2.9-1.6,4-2.8c2-2.2,2.7-5.5,1.7-8.3c-0.5-1.4-1.5-3.2-3.2-3.2c-1.7,0.1-2.7,1.7-3.2,3.1
			c-0.9,2.4-1.1,5.3-2.7,7.4c-0.6,0.9-1.7,1.5-2.7,1.6c-1.2,0.1-2.3-0.3-3.3-0.9c-2.3-1.6-2.7-4.5-1.7-7c1.1-2.9,3.6-4.9,6.4-6.2
			c1.5-0.7,3.1-1.2,4.7-1.6c1.5-0.4,3.1-1,3.8-2.4c1.4-2.7-0.4-5.9-2-8.1c-2.1-2.8-4.4-5.5-7.2-7.7c-2.5-1.9-5.6-3.5-8.8-3.4
			c-1.6,0-3.2,0.5-4.5,1.5c-1.3,1.1-1.7,2.9-0.5,4.2c0.5,0.5,1.1,0.9,1.7,1.3c0.6,0.4,1.1,0.8,1.6,1.4c0.9,1,1.6,2.3,1.9,3.6
			c0.7,2.7-0.2,5.5-2.1,7.5c-0.9,1-2.1,1.7-3.4,2.1c-0.6,0.2-1.4,0.3-2,0c-0.4-0.3-0.6-0.8-0.7-1.2c-0.2-1.4,0.1-2.9-0.2-4.3
			c-0.3-1.5-1.2-2.9-2.7-3.6c-1.4-0.6-3-0.5-4.3,0.5c-0.3,0.3-0.3,0.8-0.1,1.1c0.7,1.2,1.2,2.5,1.4,3.9c0.1,0.7,0.2,1.3,0.1,2
			c0,0.2,0,0.5-0.1,0.7c-0.1,0.1-0.2,0.1-0.3,0.1c-0.6,0.1-1.2,0-1.7,0.2c-0.5,0.2-1,0.5-1.4,0.8c-0.8,0.7-1.3,1.8-1.5,2.8
			c-0.5,2.3,0,4.9,1.4,6.8c0.8,1.1,1.7,1.9,3,2.4c1.4,0.5,2.9,0.5,4.3,0.3c2.7-0.3,5.7-0.7,8.1,0.8c0.9,0.6,1.7,1.5,2,2.6
			c0.3,1,0.1,2-0.5,2.9c-1.1,1.7-3.6,2.6-5.6,2.8c-1,0.1-2.3,0-3-0.8c-0.8-0.9-0.9-2.3-1.1-3.5c-0.6-2.6-1.6-5.2-3.4-7.2
			c-1-1-2.2-1.8-3.7-1.9c-1.4-0.1-2.7,0.6-3.8,1.4c-2,1.6-3.3,4.1-4,6.5c-0.7,2.5-0.7,5.1-0.4,7.6c0.3,2.5,0.9,5,2.1,7.2
			c1.2,2.2,3.3,3.8,5.9,3.3c2.5-0.5,4.4-2.8,5.6-5c1.1-1.9,2.1-4.2,4.1-5.4c2.1-1.2,4.7-0.3,6.5,1.1c0.2,0.2,0.4,0.4,0.6,0.6
			c0.1,0.1,0.3,0.4,0.3,0.5c0-0.1-0.1,0.2,0,0.1c-0.1,0.1,0,0-0.1,0.1c-0.1,0.1-0.3,0.2-0.5,0.3c-0.9,0.5-2,0.7-2.8,1.4
			c-1.7,1.4-2.3,3.8-2.3,5.9c0,2.7,1.2,5.1,2,7.6c0.4,1.3,0.7,2.6,0.7,4C107.3,105.7,109.1,105.7,109.2,104.6L109.2,104.6z"/>
	</g>
	<g>
		<path class="st5" d="M104.3,91.3c-3.4-0.4-6.3-2.9-7.7-6c-1.6-3.4-1.3-7.5,0.3-10.9c1.6-3.3,4.2-6.3,7.8-7.5
			c1.6-0.5,3.2-0.7,4.8-0.2c1.7,0.6,2.7,2,3.7,3.4c1.1,1.6,2.1,3.2,3.6,4.4c1.4,1.1,3.2,1.8,5,2.2c3.8,0.8,7.8,0.2,11.4-1
			c3.9-1.3,7.5-3.4,10.5-6c3.1-2.7,5.9-6,6.9-10c1-3.9,0-7.8-2.5-10.9c-2.5-3.2-6.3-5.1-10.3-5.6c-4.3-0.6-8.7,0.4-12.6,2.2
			c-1.9,0.9-3.6,2-5.1,3.4c-1.5,1.4-2.9,3.3-3.1,5.4c-0.1,1.9,1,3.5,2.6,4.5c1.5,1,3.3,1.4,5.1,1.6c4,0.5,8.1,0.1,12.1,0
			c3.8-0.1,7.7-0.1,11.3,1.3c3.5,1.4,6.2,4.2,7.6,7.6c3.2,7.7-0.1,16.3-5.3,22.2c-5,5.7-12.3,9.8-19.9,10.6
			c-3.9,0.4-8.3-0.1-11.4-2.8c-2.7-2.3-4.2-6.1-2.8-9.5c0.8-1.9,2.2-3.4,3.6-4.8c1.4-1.4,3-2.7,4.9-3.3c1.8-0.5,3.6-0.3,5.1,0.8
			c1.5,1,2.5,2.5,3.3,4.1c1,2,1.7,4.1,2.6,6.1c0.8,1.8,1.9,3.5,3.4,5c2.7,2.8,6.2,4.6,9.6,6.2c0.9,0.4,1.8,0.8,2.6,1.1
			c1,0.4,2.1,0.9,3.3,0.8c1.1-0.2,1.8-0.9,2.5-1.8c0.6-0.8,1.2-1.7,1.7-2.6c2.2-3.7,3.8-7.8,4.7-12c0.8-4,1.3-8.3,0.5-12.3
			c-0.4-1.9-1.1-3.7-2.3-5.1c-1.2-1.4-2.8-2.4-4.6-2.9c-3.7-0.9-7.7,0.4-10.9,2.2c-3.5,1.9-6.4,4.7-9.9,6.5
			c-1.7,0.9-3.6,1.6-5.6,1.7c-2.4,0.2-4.7-0.4-6.9-1c-4.7-1.4-9.3-3-14-4.5c-3.4-1.1-6.9-2.3-10-4.1c-2.9-1.7-5.6-4.1-6.8-7.3
			c-1.6-4.1-0.9-8.6,0.2-12.8c1-3.8,2.5-7.6,4.9-10.7c2.2-2.9,5.3-5.1,9-5.6c3.4-0.5,6.9,0.5,8.9,3.4c2.1,2.9,2.5,6.6,2.4,10
			c0,0.6,0.8,1.2,1.4,0.8c5.7-4.2,11.4-8.3,17.1-12.5c1.4-1,2.7-2,4.1-3c1.2-0.8,2.5-1.6,4-1.6c2.8-0.1,5.6,1.9,7.6,3.7
			c1.9,1.8,3.5,4.1,4.5,6.5c1.1,2.8,1.3,5.7,2,8.6c0.3,1.5,0.9,2.9,1.7,4.2c0.3,0.5,0.7,1.1,0.8,1.8c0.1,0.6-0.1,1.1-0.4,1.6
			c-0.7,1.1-2,1.8-3.1,2.3c-1.4,0.6-2.8,1.1-4.3,1.3c-6.3,1.2-12.7-0.3-18.9-1.6c-3.3-0.7-6.6-1.3-10-1.5c-3.3-0.2-6.6,0-9.8,0.4
			c-3.2,0.5-6.4,1.3-9.5,2.4c-2.9,1.1-5.9,2.3-7.7,5c-0.9,1.2-1.4,2.7-2,4.1c-0.6,1.5-1.2,3.1-1.7,4.7c-0.9,3-1.5,6.1-1,9.3
			c0.4,2.6,1.5,5.2,3.4,7.1c2.1,2,4.9,2.8,7.8,3c2.8,0.2,5.7,0,8.5,0.6c0.4,0.1,1.3,0.2,1.5,0.7c0.2,0.6-0.4,1.3-0.7,1.8
			c-0.8,1.4-1.6,2.7-2.5,4c-1.8,2.5-3.8,4.9-6,7c-1,1-2.2,1.9-3.5,2.3c-1.3,0.4-2.7,0.1-4-0.4c-2.5-1.1-4.5-3.1-6.2-5.3
			c-1.6-2.1-2.8-4.5-3.8-7c-2-5.2-3-10.7-3.9-16.1c-0.4-2.5-0.6-5.5,1.7-7.2c1.8-1.3,4.2-1.5,6.3-0.7c2.5,0.9,4.3,3,5.7,5.2
			c1.5,2.5,2.5,5.4,3.1,8.3c0.6,2.9,0.7,6,0.3,9c-0.4,2.9-1.5,5.7-2.2,8.5c-0.7,2.6-1.1,5.6,0.1,8.1c1.3,2.6,4,3.8,6.7,4.4
			c6.4,1.4,13.2,1.1,19.4-0.5c2.7-0.7,5.8-1.5,7.8-3.5c1.7-1.8,2.1-4.1,1.5-6.5c-0.5-2.2-1.6-4.1-2.3-6.2c-0.3-0.9-0.7-2-0.8-2.9
			c-0.1-1,0-1.8,0.5-2.7c1.1-1.9,3.4-2.5,5.4-2.6c2.4-0.1,5,0.5,7.1,1.6c1.1,0.5,2.2,1.3,2.9,2.3c0.8,1.1,1.2,2.4,1.3,3.7
			c0.1,3.1-1.3,5.9-2.6,8.5c-0.7,1.4-1.4,2.9-1.9,4.4c-0.5,1.5-0.9,3.2-0.4,4.7c0.9,2.8,4,3.9,6.7,3.4c1.6-0.3,3-1,4.4-1.7
			c1.2-0.7,2.3-1.4,3.4-2.2c2.2-1.6,4.3-3.4,6.1-5.4c3.6-4,6.4-8.8,7.5-14.1c1-5,0.3-10.1-1.9-14.6c-2.1-4.4-5.6-8.1-10.2-10
			c-2.4-1-5-1.1-7.5-1.9c-1.1-0.4-2.2-1-2.9-2c-0.7-1.1-1-2.4-0.9-3.7c0.2-5.1,4.7-9.1,9.3-10.3c5.5-1.4,11.5,0.8,15.6,4.5
			c2,1.8,3.9,4.2,4.2,7c0.3,3-1.5,5.4-3.4,7.4c-3.8,4.2-8.4,7.9-13.7,10c-5,2-10.7,2.4-15.8,0.5c-2.5-0.9-4.7-2.3-6.5-4.2
			c-1.9-2.1-3.3-4.6-4.3-7.2c-1-2.7-1.7-5.4-2.5-8.2c-0.7-2.5-1.6-5.1-3.2-7.2c-0.8-1.1-1.8-2-2.9-2.6c-1.3-0.7-2.7-1.1-4.2-1.3
			c-2.9-0.4-5.8,0.1-8.8-0.1c-5.6-0.4-10-5-15.7-4.9c-5.7,0.1-9.3,5.3-11.1,10.2c-0.5,1.3-0.6,2.7,0.1,4c0.6,1,1.6,1.6,2.7,2
			c2.6,1,5.6,0.6,8.3,0.2c6.2-0.8,12.8-2.3,18.9-0.2c2.5,0.8,4.7,2.3,6.2,4.5c1.4,2,2.1,4.4,1.6,6.8c-0.3,1.1,1.5,1.6,1.7,0.5
			c0.6-2.7,0-5.5-1.5-7.9c-1.6-2.4-3.8-4.2-6.5-5.3c-6.1-2.5-12.9-1.2-19.2-0.4c-1.7,0.2-3.4,0.4-5.1,0.5c-1.2,0.1-2.3,0-3.4-0.4
			c-0.9-0.3-1.8-0.8-2.2-1.6c-0.5-1,0.1-2.4,0.6-3.4c1-2.3,2.4-4.7,4.5-6.2c2.1-1.6,4.6-1.9,7.1-1.2c2.7,0.7,5.2,2.2,7.8,3.3
			c1.4,0.5,2.7,0.9,4.2,1.1c1.5,0.2,3,0.2,4.5,0.1c2.8-0.1,5.8-0.3,8.3,1.1c2.2,1.2,3.5,3.5,4.4,5.8c1,2.6,1.6,5.4,2.4,8
			c0.9,2.8,1.9,5.7,3.5,8.2c1.5,2.4,3.5,4.5,6,6c2.3,1.4,5,2.3,7.7,2.7c5.7,0.8,11.5-0.5,16.5-3.3c2.6-1.4,5-3.2,7.2-5.2
			c1.1-1,2.2-2,3.2-3.1c1-1.1,2.1-2.3,2.9-3.5c0.8-1.3,1.4-2.7,1.5-4.3c0.1-1.4-0.2-2.9-0.7-4.2c-1.2-2.8-3.3-5.1-5.8-6.9
			c-4.6-3.4-11-5.2-16.6-3.3c-5,1.7-9.4,6.1-9.7,11.6c-0.2,2.9,1.1,5.7,3.8,7c2.4,1.2,5.2,1.2,7.7,2.1c4.5,1.5,8,5.1,10.1,9.3
			c2.2,4.4,2.8,9.5,1.7,14.2c-1.2,5.2-4.2,9.9-7.9,13.7c-1.9,1.9-4.1,3.6-6.4,5.1c-2.2,1.4-5.1,3.3-7.8,2.4
			c-1.1-0.3-2.1-1.1-2.3-2.3c-0.4-1.5,0.3-3.1,0.8-4.5c1.2-2.9,3-5.6,3.8-8.7c0.8-3,0.7-6.2-1.3-8.7c-1.7-2.2-4.4-3.3-7-3.9
			c-2.4-0.6-5-0.8-7.4-0.1c-2.3,0.7-4.2,2.4-4.7,4.8c-0.4,2.2,0.3,4.4,1.2,6.4c0.8,2,1.9,4.1,2.1,6.1c0.1,1-0.1,1.9-0.6,2.7
			c-0.7,1.1-1.8,1.8-2.9,2.4c-1.3,0.6-2.8,1-4.2,1.4c-1.6,0.4-3.3,0.8-4.9,1c-3.3,0.5-6.6,0.5-9.9,0.2c-1.5-0.1-3.1-0.4-4.6-0.7
			c-1.3-0.3-2.6-0.7-3.7-1.6c-2.1-1.6-2.4-4.4-1.9-6.8c0.5-2.9,1.7-5.6,2.3-8.5c1.3-6.2,0.6-12.7-2.1-18.4c-1.2-2.6-2.9-5-5.2-6.7
			c-2.1-1.6-4.7-2.3-7.3-1.8c-2.5,0.4-4.7,2.1-5.6,4.5c-0.5,1.5-0.5,3.1-0.3,4.7c0.2,1.5,0.5,3,0.7,4.4c1,5.5,2.2,11,4.7,16.1
			c1.2,2.5,2.8,4.8,4.7,6.7c2.1,2.1,4.6,4,7.6,4.3c3.3,0.4,5.8-1.8,7.9-4c2.2-2.3,4.3-4.8,6-7.4c0.9-1.3,1.8-2.7,2.4-4.2
			c0.3-0.7,0.4-1.6,0-2.3c-0.4-0.7-1.1-1.1-1.8-1.3c-2.8-0.8-5.8-0.6-8.7-0.8c-2.7-0.1-5.5-0.6-7.5-2.6c-1.8-1.8-2.8-4.4-3-6.9
			c-0.2-3.2,0.6-6.3,1.7-9.3c0.5-1.5,1.1-3,1.8-4.5c0.6-1.4,1.4-2.6,2.5-3.6c1.1-0.9,2.5-1.6,3.8-2.1c1.5-0.6,3.1-1.2,4.7-1.6
			c3.2-0.9,6.4-1.5,9.7-1.7c3.3-0.2,6.6-0.1,9.8,0.4c3.4,0.5,6.8,1.3,10.2,2c6.2,1.2,12.9,2,18.9-0.4c2.4-1,5.7-2.9,5.4-6
			c-0.2-1.6-1.3-2.8-1.8-4.2c-0.6-1.4-0.9-2.9-1.1-4.4c-0.2-1.5-0.5-3-0.9-4.5c-0.4-1.3-0.9-2.6-1.6-3.9c-1.3-2.5-3.1-4.7-5.3-6.4
			c-2.4-1.9-5.5-3.6-8.7-3.1c-1.5,0.3-2.9,1.1-4.2,1.9c-1.4,1-2.8,2.1-4.2,3.1c-5.6,4.1-11.2,8.1-16.8,12.2c0.5,0.3,0.9,0.5,1.4,0.8
			c0.1-3.7-0.5-7.8-2.6-10.9c-2.2-3.1-5.8-4.7-9.6-4.4c-3.9,0.3-7.5,2.1-10.1,5c-2.8,3-4.5,6.8-5.7,10.6c-1.3,4.1-2.4,8.6-1.7,13
			c0.6,3.8,2.7,7.1,5.7,9.5c2.9,2.3,6.3,3.8,9.8,5c4.3,1.6,8.7,2.9,13.1,4.3c4.5,1.5,9.2,3.2,14,2.1c4-0.9,7.3-3.5,10.5-5.8
			c3.1-2.2,6.5-4.3,10.4-4.5c1.7-0.1,3.4,0.2,4.9,1.1c1.5,1,2.5,2.5,3.1,4.2c0.6,1.8,0.8,3.6,0.8,5.5c0,2.1-0.2,4.2-0.6,6.3
			c-0.8,4.2-2.2,8.3-4.3,12.1c-0.5,1-1.1,1.9-1.7,2.8c-0.5,0.7-1.1,1.6-2,1.4c-0.9-0.1-1.9-0.6-2.7-1c-0.9-0.4-1.8-0.8-2.6-1.2
			c-3.4-1.6-6.8-3.6-9.2-6.6c-2.7-3.3-3.3-7.7-5.6-11.2c-1.1-1.6-2.5-3-4.2-3.8c-1.9-0.8-4.1-0.8-6,0c-2,0.8-3.7,2.1-5.1,3.6
			c-1.5,1.5-2.9,3.2-3.8,5.1c-1.6,3.7-0.5,7.8,2.1,10.7c2.8,3.1,7.1,4.4,11.2,4.4c4.1,0,8.2-1.1,11.9-2.7
			c7.4-3.2,13.7-9.3,16.9-16.7c1.7-3.9,2.4-8.2,1.6-12.4c-0.7-3.8-2.7-7.5-5.7-9.9c-6.5-5.2-15.3-3.6-23.1-3.5c-1.9,0-3.9,0-5.8-0.4
			c-1.5-0.3-3.2-0.8-4.3-2c-1.3-1.5-0.5-3.4,0.5-4.8c1.2-1.6,2.8-2.8,4.5-3.8c6.8-3.9,17-4.5,22.2,2.4c1.1,1.4,1.9,3.1,2.2,4.9
			c0.3,1.9,0,3.9-0.7,5.7c-1.5,3.7-4.5,6.8-7.7,9.2c-3.3,2.4-7,4.1-11,5c-3.4,0.8-7.3,0.8-10.5-0.9c-1.6-0.9-2.8-2.2-3.8-3.7
			c-1.1-1.6-2.1-3.3-3.7-4.5c-3.1-2.2-7.3-1.2-10.3,0.7c-6.6,4.2-10,13.9-5.6,20.9c1.9,3.1,5,5.2,8.7,5.7c0.5,0.1,0.9-0.5,0.9-0.9
			C105.2,91.7,104.8,91.4,104.3,91.3L104.3,91.3z"/>
	</g>
	<g>
		<path class="st6" d="M136.4,109.3c-3.1,1.8-6.8,3.4-10.4,2.4c-1.4-0.4-2.7-1.1-3.7-2.2c-1.1-1.2-1.4-2.6-1.4-4.1
			c0-1.8,0.2-3.6-0.6-5.2c-0.7-1.4-2.1-2.3-3.6-2.6c-1.6-0.3-3.2,0.1-4.4,1c-1.4,1-2.3,2.5-2.7,4.2c-0.2,0.9-0.3,1.7-0.4,2.6
			c0,0.9,0,1.8-0.3,2.6c-0.3,0.6-0.7,1.1-1.4,1c-0.8-0.1-1.6-0.7-2.3-1.1c-2.6-1.6-5-4.1-5.7-7.2c-0.7-3.1,0.7-6.2,3.1-8.1
			c2.6-2.1,6.3-2.3,9.4-1.1c3,1.2,5,4,7.9,5.4c1.5,0.7,3.1,1,4.8,0.6c1.6-0.4,3-1.4,4.1-2.6c1.1-1.2,2-2.7,2.6-4.3
			c0.6-1.5,0.8-3.3,0.3-4.8c-0.7-1.7-2.2-2.6-3.9-3.1c-2-0.6-4-0.9-6-1c-2.1-0.2-4.2-0.1-6.2,0.2c-1.8,0.2-3.6,0.8-5.4,0.8
			c-0.7,0-1.5,0-2.2-0.4c-0.7-0.4-1.1-1-1.5-1.7c-0.8-1.5-1.1-3.1-2.3-4.3c-0.6-0.6-1.4-1-2.2-1.1c-0.9-0.1-1.8,0.2-2.6,0.7
			c-1.5,0.9-2.9,2-4.3,3.1c-2.5,2-5,4.6-5.6,7.9c-0.5,2.7,0.1,5.8,2,7.8c1,1.1,2.4,1.7,3.9,1.8c1.9,0.2,3.8-0.5,5.7-0.5
			c2.9-0.1,5.4,2.3,5.8,5.2c0.4,2.8-1.7,5.4-4.4,6.2c-3,0.9-6-0.7-7.8-3.2c-2.3-3.1-3.1-7.2-3.9-10.8c-1-4-1.8-8.1-2.4-12.2
			c-0.5-3.7-0.6-7.7,0.6-11.3c2-5.8,8.3-10.1,14.5-8.9c2.9,0.6,5.7,2.3,7.5,4.7c0.9,1.2,1.4,2.6,1.8,4c0.4,1.4,0.9,2.9,1.9,3.9
			c2.9,2.9,6.9-0.4,8.8-2.8c2.1-2.7,3.4-6.2,3.2-9.6c-0.1-1.8-0.7-3.6-2.1-4.8c-1.2-1.1-2.7-1.6-4.3-1.8c-3.8-0.5-7.2,1.4-10.8,2.1
			c-2.8,0.6-6.5,0.2-7.7-2.9c-1.1-2.8,0.2-6.1,1.7-8.5c0.8-1.3,1.9-2.6,3.5-2.8c1.5-0.2,2.8,0.7,3.9,1.6c2.5,2.3,3.9,5.6,7,7.3
			c1.5,0.8,3.3,1.1,4.9,0.4c1.6-0.7,2.8-2.2,3.6-3.8c0.8-1.5,1.3-3.2,2-4.7c0.3-0.7,0.6-1.4,1-2.1c0.4-0.6,0.8-1.5,1.6-1.7
			c0.4-0.1,0.9,0,1.3,0c0.5,0.1,1.1,0.1,1.6,0.2c1,0.1,2.1,0.2,3.1,0.3c1.3,0.1,3.1,0.4,3.6,1.8c0.5,1.3-0.2,2.9-0.8,4
			c-0.9,1.7-2.1,3.2-3.2,4.8c-2.4,3.4-4.7,6.8-7.1,10.2c-0.3,0.4,0,1,0.3,1.2c3.2,2.4,8.1,2.5,11.4,0.2c3.6-2.4,4.7-6.8,6.2-10.6
			c0.4-0.9,0.8-1.9,1.3-2.8c0.5-0.8,1.1-1.6,2.1-1.8c1.1-0.2,2.3,0.3,3.2,0.8c1.1,0.5,2.1,1.1,3.1,1.8c1.9,1.2,3.8,2.7,5,4.6
			c1.1,1.9,1.6,4.1,1,6.2c-1.3,4.1-5.8,6.8-10,7c-2.4,0.1-4.8-0.7-7.1-1.1c-2.3-0.4-4.7-0.5-7,0.1c-2.2,0.6-4.2,1.6-5.9,3.1
			c-1.6,1.4-3.2,3.4-2.2,5.6c0.8,1.7,2.8,2.5,4.5,2.8c2.5,0.5,5.1,0.4,7.6,0.1c1.3-0.2,2.6-0.4,4-0.7c1.1-0.2,2.4-0.4,3.5,0
			c1.5,0.7,2.3,2.4,2.6,3.9c0.8,3.7-0.8,8-3.2,10.7c-2.6,3-6.5,4.5-10.4,3.9c-3.8-0.5-8-3.1-8.6-7.1c-0.3-2,0.7-3.9,1.8-5.6
			c1.3-1.8,2.9-3.4,4.1-5.3c0.7-1,1.4-2.1,1.9-3.1c0.6-1.1,1.2-2.2,1.4-3.5c0.4-2.2-0.7-4.1-2.6-5.1c-1.8-1-3.9-1.3-5.9-1.5
			c-2.3-0.3-4.6-0.4-6.8-0.1c-2.3,0.3-4.5,1-6.5,2.2c-1.6,1-2.9,2.5-3.8,4.2c-1.7,3.3-1.9,7.5,0.8,10.4c1.5,1.7,3.7,2.6,5.4,4
			c1.6,1.3,3.1,2.8,4.1,4.7c1.8,3.2,1.7,7.7-1.2,10.3c-2.3,2-6.5,1.6-7.9-1.2c-1-1.9-0.2-4.3,0.6-6.1c0.5-1-1-1.9-1.6-0.9
			c-1.9,3.2-3.8,6.5-5,10.1c-0.6,1.7-1,3.5-1.1,5.4c-0.1,1.7,0,3.7,0.6,5.3c0.3,0.9,0.8,1.6,1.6,2.1c0.7,0.5,1.7,0.7,2.5,0.9
			c1.9,0.5,3.9,0.9,5.9,0.8c3.5-0.1,6.6-1.7,9.3-3.9c2.6-2.1,4.7-4.7,7.3-6.9c2.4-2.1,5.4-4,8.7-4c2.8,0,5.5,1.6,7,4
			c1.6,2.5,1.9,5.5,0.9,8.3c-1,2.8-3.3,5.2-6.1,6.3c-3.1,1.2-6.6,1.1-9.6-0.2c-1.5-0.6-3-1.5-3.9-2.9c-0.7-1.1-1-2.5-0.8-3.9
			c0.5-3,2.6-5.5,5.2-7c2.7-1.6,5.9-2.3,9-1.9c3.4,0.4,6.1,2.5,9.4,3.4c1.8,0.5,3.7,0.5,5.5-0.1c1.9-0.5,3.6-1.4,5.4-2.2
			c3.2-1.4,6.6-2.6,9.6-4.5c2.5-1.6,4.9-3.8,5.6-6.8c0.6-2.5,0.2-5.3-1.5-7.4c-0.9-1-2.1-1.7-3.4-1.9c-1.9-0.3-3.7,0.3-5.5,1.1
			c-1.8,0.8-3.5,1.6-5.3,2.2c-1.8,0.6-3.6,1.1-5.4,1.6c-1.8,0.4-3.7,0.7-5.5,0.9c0.2,0.1,0.4,0.2,0.6,0.3c-2.7-3-2.1-7.5-0.6-10.9
			c0.9-2,2.1-3.8,3.8-5.2c1.5-1.3,3.6-2.3,5.6-1.6c1.5,0.5,2.7,1.8,3.7,2.9c1.1,1.2,2.3,2.5,3.8,3.2c2,0.9,3.9,0.5,5.6-0.8
			c0.9-0.7,1.7-1.6,2.4-2.5c0.7-1,1.4-2.1,1.6-3.2c0.4-2.1-0.3-4.5-2.3-5.5c-2-1-4.4-0.1-6.4-0.9c-1.8-0.7-2.9-2.5-3.3-4.4
			c-0.4-2.3,0.5-4.6,1.7-6.5c0.7-1,1.6-1.9,2-3.1c0.4-1.1,0.2-2.4-0.1-3.5c-0.5-1.9-1.5-3.7-2.8-5.2c-2.7-3-6.6-4.9-10.5-5.6
			c-3.7-0.7-9.2-0.5-10.5,3.8c-0.7,2.3,0.4,4.7,1.7,6.5c1.4,1.8,3.2,3.3,4.3,5.3c0.5,0.8,0.9,1.8,0.9,2.8c0,0.2,0,0.4-0.1,0.6
			c-0.1,0.2-0.3,0.5-0.5,0.7c-0.3,0.4-0.6,0.8-1,1.2c-1.4,1.5-3.2,2.7-5.2,3.3c-4,1.3-8.4,0.4-11.6-2.3c-1.6-1.3-3.2-3.2-3.6-5.3
			c-0.2-1.3,0.3-2.6,0.7-3.8c0.4-1.3,0.9-2.5,1.4-3.7c0.5-1.3,1-2.6,1.5-3.9c0.2-0.6,0.5-1.1,0.7-1.7c0.2-0.5,0.4-1,0.8-1.3
			c0.8-0.8,2.2-0.2,3.2-0.3c1-0.1,1.9-0.4,2.7-1.1c1.5-1.2,2.4-3.3,1.9-5.2c-0.1-0.3-0.2-0.6-0.4-0.8c-0.3-0.2-0.6-0.3-0.9-0.5
			c-0.6-0.3-1.2-0.6-1.8-0.8c-1.2-0.5-2.4-0.9-3.6-1.3c-2.5-0.7-5-1.1-7.5-1.2c-2.5-0.1-5,0-7.4,0.8c-2.2,0.8-4.2,2.1-5.5,4
			c-1.3,1.8-1.9,4.1-1.4,6.3c0.5,2.2,1.9,4.2,2,6.5c0,2.2-1.3,4.1-2.8,5.6c-1.6,1.6-3.6,3-5.9,3.3c-2,0.3-3.7-0.6-5-2
			c-2.8-3.1-2.9-7.8-1.6-11.5c0.7-2,1.8-3.8,3.3-5.3c0.3-0.3,0.4-0.8,0.1-1.2c-0.3-0.4-0.7-0.4-1.2-0.2c-3.1,1.3-5.8,3.4-8.3,5.6
			c-2.6,2.3-5.1,4.7-7.4,7.4c-2.3,2.7-4.3,5.7-5.8,8.9c-1.5,3.2-2.7,6.5-3.8,9.7c-2.1,5.8-4.2,12.7-1.4,18.6
			c0.7,1.4,1.6,2.6,2.6,3.7c1,1.1,2,2.2,2.7,3.5c0.8,1.5,0.7,3.2,0.6,4.8c-0.1,1.7-0.2,3.5,0.4,5.1c0.9,3,3,5.3,5.3,7.4
			c2.3,2.2,4.8,4.4,7.6,5.9c1.4,0.7,3,1.3,4.6,1.4c1.7,0.2,3.4-0.2,4.9-0.8c2.7-1,5.5-2.7,8.5-2.3c1.2,0.1,2.3,0.7,3,1.7
			c0.7,1.1,0.8,2.5,0.8,3.8c0.1,1.4,0.1,2.9,0.5,4.3c0.5,1.3,1.3,2.5,2.6,3.1c2.5,1.4,5.6,0.9,8.1-0.2c2.8-1.2,5.2-3.2,7-5.7
			c0.9-1.2,1.8-2.7,2.1-4.2c0.2-0.9,0.1-1.9-0.4-2.7c-0.4-0.7-1-1.3-1.6-1.8c-2.2-2.3-4.9-4.1-7.7-5.6c-2.8-1.5-5.8-2.6-8.9-3.3
			c-1.5-0.4-3.1-0.6-4.6-1c-0.8-0.2-1.4-0.4-2-1c-0.6-0.6-1-1.3-1.4-2c-1-1.6-2-3.2-3.1-4.8c0,0.2,0.1,0.5,0.1,0.7
			c0.6-2.5,1.3-5.1,2.7-7.2c1.5-2.3,3.8-3.5,6.5-3.7c1.7-0.2,3.4-0.1,5,0c1.2,0.1,1.2-1.7,0-1.8c-3.5-0.2-7.4-0.3-10.4,1.8
			c-2.7,1.9-4.1,5-4.9,8.1c-0.2,0.8-0.4,1.5-0.6,2.3c-0.1,0.6,0.1,0.9,0.4,1.4c0.3,0.5,0.6,0.9,0.9,1.4c0.6,0.9,1.1,1.8,1.7,2.6
			c0.5,0.8,1,1.6,1.6,2.4c1.3,1.4,3.1,1.7,4.9,2c1.7,0.3,3.4,0.8,5.1,1.3c3.3,1,6.4,2.4,9.2,4.3c1.4,0.9,2.7,2,3.9,3.2
			c0.6,0.6,1.3,1.2,1.7,1.9c0.4,0.8,0,1.6-0.4,2.4c-1.4,2.9-3.7,5.3-6.5,6.8c-2.3,1.3-5.7,2.2-8.1,0.6c-1.1-0.8-1.5-2.2-1.7-3.5
			c-0.2-1.6-0.1-3.2-0.4-4.7c-0.3-1.5-1.1-2.9-2.5-3.8c-1.3-0.8-2.9-1.1-4.4-1c-3.6,0.2-6.5,2.5-9.9,3.1c-3.5,0.6-6.7-1.4-9.2-3.5
			c-1.3-1.1-2.6-2.2-3.9-3.4c-1.2-1.1-2.3-2.3-3.3-3.7c-0.9-1.3-1.6-2.8-1.7-4.4c-0.2-2,0.3-3.9,0-5.9c-0.2-1.8-1-3.4-2.2-4.8
			c-1-1.3-2.2-2.4-3.1-3.7c-1.9-2.8-2.3-6.1-1.9-9.4c0.4-3.5,1.6-6.9,2.8-10.2c1.3-3.6,2.6-7.2,4.4-10.5c1.8-3.4,4.2-6.4,6.9-9.1
			c2.6-2.6,5.3-5.3,8.3-7.5c1.5-1.1,3-2,4.7-2.7c-0.4-0.5-0.7-0.9-1.1-1.4c-3.7,3.7-5.5,9.5-4.2,14.7c0.6,2.4,1.9,4.6,3.9,6
			c2.2,1.6,5,1.6,7.5,0.6c2.5-1.1,4.9-3.1,6.4-5.4c0.8-1.1,1.3-2.4,1.5-3.8c0.2-1.4-0.1-2.7-0.6-4c-0.5-1.3-1.1-2.6-1.4-3.9
			c-0.2-1.2-0.1-2.4,0.4-3.4c1-2.4,3.3-4,5.7-4.7c2.8-0.8,5.8-0.8,8.6-0.4c2.9,0.3,5.8,1.1,8.5,2.3c0.7,0.3,1.4,0.6,2.1,1
			c-0.1-0.2-0.3-0.4-0.4-0.5c0.4,1.1,0.1,2.4-0.7,3.3c-0.4,0.4-0.9,0.8-1.4,1c-0.7,0.2-1.5,0.1-2.2,0c-0.9-0.1-1.8,0-2.5,0.6
			c-0.7,0.5-1.1,1.2-1.4,2c-0.8,1.8-1.5,3.6-2.2,5.4c-0.7,1.8-1.4,3.6-2,5.5c-0.3,0.9-0.5,1.9-0.4,2.9c0.1,0.9,0.4,1.8,0.9,2.7
			c1.5,2.8,4,5,6.8,6.2c2.9,1.3,6.2,1.5,9.2,0.7c3.1-0.9,5.9-2.8,7.8-5.4c0.2-0.3,0.4-0.6,0.6-0.9c0.2-0.4,0.3-0.9,0.3-1.4
			c0-0.8-0.1-1.6-0.4-2.3c-0.6-1.6-1.6-2.9-2.7-4.1c-1.1-1.3-2.3-2.4-3.2-3.9c-0.7-1.3-1.2-2.8-0.5-4.2c1.2-2.5,4.7-2.5,7.1-2.3
			c2.8,0.3,5.6,1.3,7.9,2.9c2.2,1.5,4.1,3.6,5,6.2c0.2,0.7,0.4,1.4,0.5,2.2c0,0.9-0.3,1.5-0.9,2.2c-1.1,1.4-2.1,2.9-2.6,4.6
			c-1,3.1-0.5,6.7,2,9c1.2,1.1,2.6,1.7,4.2,1.8c1.4,0.1,3.3-0.3,4.5,0.6c1.1,0.8,1.2,2.3,0.9,3.5c-0.4,1.6-1.6,2.9-2.8,4
			c-0.6,0.5-1.2,1-1.9,1.2c-0.6,0.2-1.1,0.2-1.6,0.1c-1-0.2-1.8-0.9-2.6-1.6c-1.8-1.7-3.4-3.9-5.8-4.8c-3.2-1.2-6.6,0.8-8.7,3.1
			c-2.1,2.3-3.6,5.2-4.2,8.2c-0.6,2.9-0.3,6.1,1.4,8.5c0.2,0.3,0.5,0.7,0.8,0.9c0.4,0.3,1,0.1,1.5,0.1c1-0.1,1.9-0.3,2.9-0.4
			c1.9-0.3,3.7-0.8,5.5-1.3c1.9-0.6,3.7-1.2,5.4-2c1.7-0.7,3.4-1.7,5.2-1.9c1.3-0.2,2.6,0.1,3.5,1c0.8,0.8,1.2,1.8,1.5,2.8
			c0.2,1.1,0.2,2.3-0.1,3.4c-0.4,1.3-1.1,2.4-2,3.3c-2.2,2.3-5.2,3.6-8,4.8c-1.8,0.8-3.7,1.6-5.5,2.4c-1.7,0.7-3.4,1.6-5.3,1.8
			c-3.5,0.4-6.5-1.9-9.6-3c-3-1-6.4-1-9.5-0.1c-3.1,0.9-5.9,2.7-7.7,5.3c-1.8,2.5-2.6,5.8-1.4,8.7c1.4,3.1,5,4.8,8.1,5.4
			c3.3,0.7,6.9,0.2,9.9-1.5c5.4-3.2,8-10.5,4.5-16c-1.5-2.5-4.1-4.5-7.1-5c-3.4-0.6-6.7,0.7-9.4,2.6c-2.8,1.9-5,4.4-7.4,6.7
			c-2.3,2.2-4.9,4.3-8,5c-1.8,0.4-3.7,0.3-5.6-0.1c-0.9-0.2-1.9-0.4-2.8-0.7c-0.7-0.2-1.4-0.5-1.8-1.2c-0.4-0.7-0.5-1.6-0.6-2.4
			c-0.1-0.9-0.1-1.8-0.1-2.7c0.1-1.8,0.5-3.5,1.1-5.2c1.2-3.4,3-6.5,4.8-9.6c-0.5-0.3-1-0.6-1.6-0.9c-1,2.2-1.9,4.9-0.9,7.3
			c0.7,1.7,2.1,2.9,3.8,3.6c1.6,0.6,3.6,0.6,5.2,0c1.9-0.7,3.3-2.3,4.2-4.1c0.8-1.9,1.1-3.9,0.8-6c-0.3-2.2-1.4-4.2-2.8-5.9
			c-1.4-1.8-3.2-3.2-5.1-4.4c-1.7-1.1-3.6-2.2-4.4-4.2c-1.3-3.2,0.3-7.1,2.8-9.3c3.4-3,8.5-3.2,12.8-2.7c1.9,0.2,4,0.5,5.7,1.4
			c0.7,0.4,1.3,0.9,1.6,1.7c0.4,1.1-0.1,2.3-0.6,3.3c-1.1,2.2-2.4,4.2-3.9,6.1c-1.4,1.7-2.9,3.4-3.9,5.4c-1,2.1-1.2,4.5-0.2,6.7
			c0.9,2,2.4,3.6,4.2,4.8c3.5,2.2,8.1,2.7,11.9,1.2c4-1.5,7.1-5,8.5-9c0.7-1.9,1-4,0.8-6c-0.2-1.9-0.9-4-2.3-5.3
			c-0.7-0.7-1.7-1.2-2.7-1.3c-1.4-0.2-2.7,0-4,0.3c-2.6,0.6-5.3,0.8-8,0.7c-1.7-0.1-4-0.2-5.3-1.6c-1.3-1.5,0.9-3.4,2-4.3
			c1.7-1.3,3.8-2.2,6-2.5c2.4-0.4,4.7,0.2,7,0.7c2.4,0.5,4.8,0.9,7.3,0.4c2.3-0.4,4.4-1.5,6.1-3c1.7-1.5,3.1-3.5,3.7-5.7
			c0.5-2.4,0-4.9-1.3-6.9c-1.3-2.1-3.1-3.7-5.1-5c-1-0.7-2.1-1.3-3.2-1.8c-1.1-0.6-2.3-1.2-3.5-1.3c-1.2-0.2-2.4,0.2-3.4,1
			c-0.8,0.7-1.4,1.7-1.9,2.6c-0.9,1.9-1.6,4-2.4,5.9c-0.8,1.9-1.7,3.8-3.2,5.2c-1.4,1.3-3.3,2-5.2,2c-1.9,0.1-3.7-0.5-5.2-1.6
			c0.1,0.4,0.2,0.8,0.3,1.2c2.5-3.6,5-7.2,7.5-10.8c1.1-1.5,2.2-3,3-4.7c0.7-1.4,1.2-3.1,0.8-4.7c-0.5-1.7-2-2.8-3.7-3.1
			c-1-0.2-1.9-0.3-2.9-0.4c-1.1-0.1-2.2-0.2-3.2-0.3c-1-0.1-2-0.2-2.9,0.3c-0.8,0.4-1.3,1.2-1.7,1.9c-0.9,1.5-1.5,3.2-2.1,4.8
			c-1,2.6-3,6.8-6.5,5.3c-3.1-1.3-4.6-4.8-7-7.1c-1.2-1.2-2.7-2.1-4.5-2.3c-1.8-0.2-3.4,0.7-4.6,2c-2.2,2.3-3.7,5.8-3.7,9
			c0,1.6,0.5,3.2,1.5,4.4c1.1,1.3,2.6,2.1,4.3,2.4c3.8,0.7,7.3-1,11-1.9c2.7-0.6,6.5-0.6,8,2.3c0.8,1.5,0.7,3.5,0.3,5.1
			c-0.3,1.7-1,3.2-1.9,4.6c-1.2,1.8-5.2,6.3-7.2,3.1c-0.8-1.2-1-2.6-1.5-4c-0.5-1.6-1.4-3-2.5-4.2c-2.1-2.4-5.2-4.1-8.4-4.6
			c-3.3-0.5-6.6,0.3-9.4,2c-2.8,1.7-5,4.3-6.3,7.4c-1.5,3.6-1.6,7.7-1.1,11.6c0.5,4.2,1.3,8.3,2.3,12.4c0.5,2,0.9,4.1,1.5,6.1
			c0.5,1.9,1.2,3.8,2.2,5.5c1.7,2.9,4.7,5.4,8.2,5.5c3.1,0,6.2-1.9,7.5-4.8c1.3-3,0.3-6.5-2.1-8.6c-1.2-1.1-2.8-1.8-4.4-1.8
			c-1.9-0.1-3.8,0.6-5.7,0.5c-2.7-0.1-4.4-2.4-4.7-5c-0.4-3.1,1.2-5.8,3.3-7.9c1.2-1.2,2.6-2.2,4-3.2c1.1-0.8,2.8-2.4,4.1-1.3
			c1.3,1,1.6,2.8,2.3,4.2c0.8,1.6,2.3,2.7,4.1,2.9c1.8,0.2,3.5-0.3,5.2-0.6c2-0.4,4.1-0.5,6.2-0.4c2.1,0.1,4.2,0.4,6.2,0.9
			c1.5,0.4,3,0.9,3.4,2.6c0.3,1.5-0.2,3.2-0.9,4.5c-0.7,1.4-1.7,2.7-3.1,3.6c-1.2,0.8-2.7,1.2-4.2,0.9c-1.5-0.4-2.7-1.3-3.8-2.2
			c-1.3-1-2.5-2.2-3.9-3c-1.6-0.9-3.4-1.5-5.3-1.6c-3.6-0.2-7,1.3-9.2,4.2c-2,2.7-2.6,6.3-1.4,9.4c1.2,3.1,3.8,5.6,6.7,7.2
			c0.8,0.5,1.7,1,2.7,1c0.9,0,1.7-0.4,2.3-1.1c1.3-1.6,1-3.5,1.2-5.4c0.2-1.5,0.9-3.1,2.1-4.1c1-0.9,2.5-1.2,3.8-0.8
			c1.4,0.4,2.1,1.7,2.2,3.1c0.1,1.8-0.2,3.6,0.3,5.3c0.9,3.1,4,5.2,7.1,5.7c3.8,0.6,7.6-0.9,10.8-2.8
			C138.3,110.3,137.4,108.7,136.4,109.3L136.4,109.3z"/>
	</g>
	<g>
		<path class="st7" d="M168.6,87.8c-2.4-0.3-6.1,0.1-8.4,0.8c-3.2,1-6.4,2.3-8.5,4.9c-2,2.6-2.3,6.9,0.3,8.9c1,0.7,2.2,1.1,3.1,1.9
			c0.8,0.7,1.3,1.7,2.1,2.4c2.2,2.2,6,1.9,8.6,0.3c2.6-1.7,4.3-4.4,5.8-7.1c1.5-2.7,3-5.5,5.4-7.5c0.2-0.2,0.5-0.4,0.6-0.6
			C178.9,89.5,170.5,88.1,168.6,87.8z"/>
		<path class="st8" d="M177,92.5c0.2-0.2,0.5-0.4,0.6-0.6c0.1-0.2,0.1-0.4,0.1-0.5c-0.1,0.2-0.3,0.5-0.6,0.6c-0.6,0.5-1.4,0.6-2.1,1
			c-2.5,1.2-3.4,4.2-5.3,6.2c-0.7,0.8-1.6,1.4-2.2,2.2c-0.7,0.9-1.1,2-2,2.6c-1,0.7-2.3,0.8-3.4,0.7c-1.9-0.1-3.9-0.7-5-2.2
			c-0.6-0.8-0.9-1.8-1.7-2.4c-1.1-0.8-2.7-0.3-4-0.8c-0.6-0.2-1-0.6-1.3-1.1c0,1.6,0.6,3.2,1.9,4.2c1,0.7,2.2,1.1,3.1,1.9
			c0.8,0.7,1.3,1.7,2.1,2.4c2.2,2.2,6,1.9,8.6,0.3c2.6-1.7,4.3-4.4,5.8-7.1C173.1,97.3,174.6,94.5,177,92.5z"/>
		<path class="st8" d="M158.2,97.2c3.4-2.8,7.7-4.1,12-5.2c0.6-0.2,1.1-0.3,1.7-0.3c-0.5,0.4-1.1,0.6-1.8,0.7
			c-3.4,0.8-6.5,2.3-9.4,4.3c-1.1,0.8-2.1,1.6-2.9,2.7c-0.8,1.1-1.3,2.4-1.2,3.7c0,0.4,0,0.9-0.3,1c-0.5,0.2-1.3-0.6-1.4-1
			c-0.2-0.6,0.1-1.4,0.3-1.9C155.8,99.6,156.9,98.3,158.2,97.2z"/>
		<path class="st8" d="M165.3,100.2c-1.3-0.7-2.7-1.3-4.2-1.6c-0.5-0.1-1-0.2-1.6-0.1c-1.1,0.1-1.9,0.7-2.7,1.3
			C158.2,96.1,163.6,97.9,165.3,100.2z"/>
		<path class="st8" d="M166.7,96.4c0.4,0.3,0.9,0.6,1.1,1.1c0.1-0.4-0.3-0.8-0.6-1c-0.7-0.5-1.4-1.1-2.2-1.6c-0.3-0.2-0.6-0.5-1-0.5
			c-0.2,0-0.8,0.1-0.7,0.5c0.1,0.2,0.9,0.2,1.1,0.3C165.3,95.4,166,95.9,166.7,96.4z"/>
		<path class="st8" d="M156.7,94.8c-0.7-1.1-1.8-2-3-2.5c0.2-0.2,0.5-0.1,0.8,0c0.5,0.3,0.9,0.6,1.3,1c0.9,0.8,1.7,1.6,2.1,2.7
			c0.4,1,0.3,2.5-0.7,3.1c-0.4-0.4,0.2-1.5,0.2-2C157.4,96.4,157.1,95.5,156.7,94.8z"/>
		<path class="st8" d="M163.1,92.9c0-0.3-0.2-0.6-0.3-0.9c-0.5-1-1.3-1.7-2.2-2.2c0-0.1,0.2-0.2,0.3-0.2c0.1,0,0.3,0.1,0.4,0.2
			c0.5,0.4,1,0.7,1.4,1.2c0.5,0.5,0.8,1.2,1,1.9c0.1,0.4,0.2,2.1-0.6,1.9C162.7,94.7,163.2,93.2,163.1,92.9z"/>
		<path class="st8" d="M167.6,91.6c0-0.5-0.3-0.9-0.6-1.3c-0.1-0.2-0.3-0.4-0.4-0.6c0.3-0.1,0.5,0.3,0.7,0.5
			c0.2,0.4,0.5,0.8,0.7,1.2c0.2,0.4,0.2,0.9-0.1,1.3c-0.2,0.3-0.5,0.5-0.8,0.6C167,92.7,167.6,92.2,167.6,91.6z"/>
		<path class="st8" d="M154.1,109.2c0.1,0.6,0.3,1.1,0.7,1.5c0.4,0.4,1.1,0.5,1.5,0.2c0.1-0.1,0.2-0.2,0.2-0.4
			c0-0.4-0.4-0.6-0.8-0.8c-0.7-0.5-0.8-1.4-0.9-2.2c0-0.7,0-1.4,0.2-2c0.3-0.6,1.1-1.7,0.6-2.4c-0.6-0.9-1.3,0.2-1.4,0.8
			C153.8,105.6,153.7,107.5,154.1,109.2z"/>
		<path class="st9" d="M164.7,89c-2.1-0.1-4.2,0.6-5.8,1.9c-0.5,0.4-1,0.9-1.2,1.6c-0.1,0.6,0,1.2,0.4,1.6c0.1,0.2,0.3,0.3,0.6,0.4
			c0.4,0.1,0.8,0,1.2-0.1c0.6-0.3,1.1-0.8,1.4-1.4c0.2-0.4,0.3-0.8,0.4-1.2c0.2-0.4,0.5-0.7,0.9-0.8c0.4-0.1,0.7,0.1,1.1,0
			c0.3-0.1,0.5-0.5,0.7-0.7c0.3-0.3,0.8-0.3,1.2-0.3c0.7,0,1.4,0,2.1,0.2c0.4,0.1,0.9,0.3,1.3,0.3c0.4,0,0.8-0.3,1.2-0.4
			c0.9-0.3,1.9,0.1,2.7,0.4c0.9,0.3,1.9,0.7,2.7,0.3c-0.3-0.6-1-0.7-1.6-0.8c-0.8-0.2-1.5-0.6-2.2-0.8c-1.2-0.4-2.1,0.1-3.2,0.1
			C167.2,89.4,166,89.1,164.7,89z"/>
		<path class="st7" d="M151.3,104.5c-3.3-1.1-7-0.3-9.9,1.6c-2.9,1.9-5,4.8-6.6,7.8c-0.2,0.3-0.3,0.6-0.3,1c0,0.4,0.3,0.8,0.7,1.1
			c0.4,0.2,0.8,0.4,1.2,0.5c0.6,0.2,1.2,0.4,1.8,0.6c1.5,0.7,2.7,1.8,4.1,2.6c2.4,1.4,5.4,2,8.1,1.4c2.7-0.6,5.2-2.4,6.5-4.9
			c0.3-0.6,0.6-1.3,0.6-2c0.2-1.5-0.4-3-1.5-4c-1.1-1.1-1.7-1.5-2-3C153.7,105.8,152.7,105,151.3,104.5z"/>
		<path class="st8" d="M156.8,116.3c0.3-0.6,0.6-1.3,0.6-2c0.2-1.5-0.4-3-1.5-4c-1.1-1.1-1.7-1.5-2-3c-0.3-1.4-1.3-2.2-2.7-2.7
			c-0.7-0.2-1.4-0.4-2.2-0.4c0.3,0.1,0.7,0.3,0.9,0.3c1.1,0.6,2,1.5,2.5,2.6c0.3,0.7,0.5,1.6-0.1,2.2c-0.1,0.1-0.3,0.2-0.3,0.4
			c-0.1,0.2,0.1,0.4,0.3,0.6c0.2,0.2,0.5,0.4,0.7,0.5c0.3,0.2,0.7,0.4,1,0.6c1.2,0.9,1.4,2.6,0.8,4c-0.6,1.3-1.9,2.3-3.2,2.9
			c-0.7,0.3-1.5,0.6-2.3,0.6c-0.9,0-1.8-0.3-2.6-0.6c-1.8-0.7-3.6-1.3-5.5-1.9c-1-0.3-2-0.6-3.1-0.6c-0.9,0-1.8,0.2-2.7,0.2
			c-0.3,0-0.6,0-0.9-0.1c0.1,0.1,0.2,0.2,0.4,0.3c0.4,0.2,0.8,0.4,1.2,0.5c0.6,0.2,1.2,0.4,1.8,0.6c1.5,0.7,2.7,1.8,4.1,2.6
			c2.4,1.4,5.4,2,8.1,1.4C153.1,120.6,155.6,118.8,156.8,116.3z"/>
		<path class="st8" d="M149.2,109.9c-0.8,0-1.7,0.1-2.5,0.2c-2.1,0.4-4.1,1-6.1,1.8c-1.4,0.5-2.7,1.1-3.8,2.1c-0.1-0.1,0-0.2,0-0.3
			c0.4-0.5,0.8-0.8,1.3-1.1c3.6-2.1,7.8-3,11.9-3.5c0.5-0.1,1-0.1,1.5,0c1,0.2,1.8,0.9,2.5,1.5c0.1,0.1,0.1,0.1,0.2,0.2
			c0,0.1,0,0.2-0.1,0.2c-0.7,0.1-1.7-0.5-2.3-0.7C151,110.1,150.1,109.9,149.2,109.9z"/>
		<path class="st8" d="M139.5,110.8c-0.2-0.4-0.2-0.8-0.2-1.2c0-0.4,0.1-0.8,0.4-1.1c0.1,0.1,0,0.3,0,0.4c-0.3,0.5-0.2,1.1,0,1.6
			c0.1,0.2,0.2,0.4,0.4,0.6c0.3,0.1,0.6,0,0.8,0.2c0,0,0.1,0.1,0.1,0.1c0.1,0.2-0.6,0.3-0.7,0.3
			C139.9,111.5,139.6,111.1,139.5,110.8z"/>
		<path class="st8" d="M142.9,107.5c0.2-0.7,0.6-1.3,1.1-1.9c0-0.1,0.1-0.1,0.2-0.1c0.1,0,0.2,0,0.1,0.1c-0.3,0.5-0.7,1-0.9,1.6
			c-0.2,0.6-0.1,1.3,0.2,1.8c0.4,0.5,1.1,0.7,1.7,0.8c0.1,0,0.2,0,0.2,0.1c0.1,0.1,0,0.3-0.1,0.3c-0.7,0.5-1.5,0-2-0.5
			C143,109.1,142.7,108.3,142.9,107.5z"/>
		<path class="st8" d="M147.7,107.1c-0.1-0.2-0.1-0.3-0.1-0.5c0-0.2,0.1-0.4,0.1-0.6c0.2-0.4,0.4-0.8,0.7-1.2c0.1,0,0.1,0.1,0.1,0.2
			c0,0.1-0.1,0.1-0.1,0.1c-0.3,0.3-0.3,0.7-0.2,1.1c0.1,0.6,0.2,1.2,0.5,1.7c0,0.1,0.1,0.2,0.2,0.2c0.1,0.1,0.2,0.1,0.4,0.1
			c0.3,0.1,0.7,0.2,1,0.4c0.1,0.1,0.2,0.1,0.2,0.2c0.1,0.3-0.5,0.4-0.7,0.4c-0.3,0-0.4-0.1-0.7-0.4
			C148.4,108.5,148,107.8,147.7,107.1z"/>
		<path class="st8" d="M144.2,113.2c0.3,1,0.9,1.8,1.6,2.7c0.1,0.1,0.3,0.2,0.4,0.1c-0.5-0.6-0.9-1.4-1.2-2.1
			c-0.3-0.9-0.5-1.9,0-2.7c0.2-0.3,0.4-0.6,0.6-0.9c0,0-0.7-0.1-0.9,0.1c-0.3,0.2-0.4,0.5-0.4,0.8C144,111.8,144,112.5,144.2,113.2z
			"/>
		<path class="st8" d="M149,113.1c0.5,1.2,1.5,2.1,2.7,2.8c0.2,0.1,0.5,0.2,0.6,0c-1-0.6-2-1.3-2.5-2.4c-0.5-1.1-0.4-2.4,0.4-3.2
			c0.1-0.1,0.2-0.2,0.3-0.3c0.1-0.4-0.6-0.5-0.8-0.4c-0.3,0.1-0.5,0.6-0.7,0.9C148.6,111.3,148.6,112.3,149,113.1z"/>
		<path class="st9" d="M150.1,104.7c-0.3-0.1-0.7-0.1-1.1-0.1c-0.6,0-1.2,0-1.7,0.3c-0.3,0.2-0.6,0.5-0.9,0.6
			c-0.5,0.2-1,0.2-1.6,0.3c-1.2,0.2-2.4,0.7-3.4,1.4c-1,0.7-1.9,1.6-2.8,2.5c-0.5,0.6-1.1,1.3-1.2,2.1c0,0.1,0,0.2,0,0.2
			c0.1,0.1,0.2,0.1,0.4,0.1c0.1-0.1,0.2-0.2,0.3-0.3c0.3-0.4,0.6-0.9,0.8-1.4c0.2-0.3,0.3-0.6,0.6-0.9c0.3-0.2,0.7-0.3,1-0.1
			c0.1,0.1,0.1,0.1,0.2,0.2c0.3,0.3,0.8,0.1,1.1-0.3c0.2-0.3,0.3-0.8,0.4-1.2c0.1-0.4,0.3-0.8,0.7-1c0.5-0.2,1,0.2,1.4,0.6
			c0.4,0.4,0.8,0.8,1.3,0.8c0.4,0,0.7-0.3,0.9-0.6c0.2-0.3,0.3-0.7,0.3-1.1c0-0.2,0-0.3,0.1-0.4c0.1-0.3,0.4-0.5,0.7-0.5
			c0.3,0,0.6,0.2,0.7,0.5c0.1,0.1,0.1,0.3,0.1,0.4c0.3,1,1.7,1.2,2.3,0.4C151.2,106.5,151,105.1,150.1,104.7z"/>
		<path class="st10" d="M158.1,104.8c0.6-0.5,1.5-0.8,2.3-0.8c1.7,0.1,3.1,1.4,4,2.9c0.9,1.5,1.5,3.1,2.7,4.4
			c0.6,0.6,1.3,1.2,1.9,1.8c0.6,0.6,1.1,1.4,1.2,2.2c0,0.4,0,0.8-0.2,1.1c-0.3,0.4-0.8,0.5-1.2,0.5c-1.4,0.2-2.8-0.1-4.2-0.1
			c-1.7,0.1-3.3,0.8-5,0.7c-1.8,0-3.5-0.9-4.9-2.1c-1-0.9-1.9-2.1-2-3.4c-0.1-1.9,1.4-3.6,3.3-3.9c1.1-0.2,1-0.5,1.1-1.5
			C157.2,106.1,157.5,105.3,158.1,104.8z"/>
		<path class="st11" d="M170,116.5c0.2-0.3,0.3-0.7,0.2-1.1c-0.2,0.3-0.5,0.6-0.9,0.7c-0.7,0.2-1.3-0.2-2-0.4
			c-0.6-0.2-1.1-0.4-1.7-0.4c-0.7-0.1-1.4,0-2.1,0c-3,0.1-5.9-0.8-8.4-2.4c-0.7-0.5-1.4-1-1.7-1.8c-0.2-0.4-0.2-0.8-0.1-1.2
			c-0.4,0.7-0.7,1.4-0.6,2.2c0.1,1.4,1,2.5,2,3.4c1.4,1.2,3.1,2,4.9,2.1c1.7,0,3.3-0.6,5-0.7c1.4-0.1,2.8,0.2,4.2,0.1
			C169.2,117,169.7,116.8,170,116.5z"/>
		<path class="st11" d="M156.8,109.9c1.8,1.9,4.4,2.9,6.9,3.4c0.8,0.2,1.7,0.3,2.5,0.7c0.2,0.1,0.4,0.2,0.6,0.1
			c-0.4-0.3-0.9-0.5-1.4-0.7c-2.6-1-5.2-2-7.6-3.5c-0.2-0.2-0.5-0.3-0.6-0.6c-0.3-0.6-0.4-0.7-0.2-1.7
			C155.9,108.3,156,109.2,156.8,109.9z"/>
		<path class="st11" d="M157.4,109.2c0.3,0,0.6-0.1,0.8-0.2c0.5-0.2,1-0.4,1.4-0.8c0.4-0.4,0.7-0.9,0.7-1.4c0.1,0.5-0.2,1-0.5,1.3
			c-0.3,0.4-0.8,0.6-1.2,0.8c-0.4,0.2-0.8,0.4-1.2,0.6c-0.2,0.1-0.5,0.2-0.7,0.1c-0.2-0.1-0.3-0.2-0.3-0.4
			C156.4,108.5,157,109.2,157.4,109.2z"/>
		<path class="st11" d="M161.9,111.2c0.7-0.4,1.3-1,1.5-1.8c0,0.9-0.7,1.6-1.4,2c-0.4,0.2-0.8,0.4-1.2,0.5c-0.3,0-0.6,0-0.9-0.1
			c-0.4-0.2-0.2-0.3,0.2-0.3C160.8,111.6,161.4,111.5,161.9,111.2z"/>
		<path class="st11" d="M156.1,111.1c-0.4,0.4-0.9,0.7-1.4,0.8c0.5,0,0.9-0.2,1.3-0.4c0.4-0.2,0.7-0.6,1-0.9
			c0.1-0.2,0.3-0.4,0.3-0.6c0-0.2,0-0.4-0.2-0.5c-0.3-0.1-0.3,0.1-0.3,0.3C156.6,110.3,156.4,110.7,156.1,111.1z"/>
		<path class="st11" d="M158.4,114.7c0.5-0.5,0.9-1.2,1.2-1.8c0.1-0.3,0.2-0.7,0.1-1c-0.1-0.2-0.4-0.8-0.7-0.5
			c-0.1,0.2,0.1,0.9,0.1,1.1C159.1,113.2,158.8,114,158.4,114.7z"/>
		<path class="st12" d="M158.2,106.3c0.2-0.5,0.6-0.9,1.1-1.1c0.5-0.2,1.1-0.1,1.6,0.2c0.5,0.3,0.8,0.8,1,1.3
			c0.1,0.3,0.1,0.5,0.3,0.8c0.3,0.6,1,0.9,1.6,1.3c1,0.6,1.8,1.7,2.1,2.8c0,0.2,0.1,0.4,0,0.5c-0.1,0.2-0.2,0.3-0.4,0.3
			c-0.1,0-0.2-0.1-0.2-0.1c-0.3-0.3-0.5-0.6-0.6-0.9c0-0.1-0.1-0.2-0.2-0.3c-0.2-0.2-0.5,0-0.7,0.2c-0.2,0.2-0.5,0.4-0.7,0.2
			c-0.3-0.2-0.1-0.6,0.1-0.8c0.2-0.2,0.6-0.5,0.5-0.8c-0.1-0.3-0.4-0.4-0.7-0.4c-0.6,0.1-1.1,0.8-1.7,0.6c-0.4-0.1-0.5-0.6-0.5-1.1
			c0-0.4,0.1-0.8,0-1.3c-0.1-0.4-0.6-0.7-1-0.5c-0.2,0.1-0.2,0.3-0.3,0.5c-0.1,0.3-0.4,0.5-0.7,0.6
			C157.4,108.9,157.9,106.9,158.2,106.3z"/>
	</g>
	<path class="st2" d="M68.5,82.6c-1.2,2.7-2,5.5-2.4,8.5c-0.2,1.6-0.2,3.2,0.3,4.7c0.6,1.5,2,2.7,3.6,2.7c1.3,0,2.6-0.8,3.8-0.3
		c1.2,0.5,1.5,2,1.5,3.3c0,2.3-0.5,4.6-0.3,6.8c0.2,2.3,1.3,4.7,3.5,5.5c0.5,0.2,0.9,0.2,1.4,0.2c1-0.2,1.7-1.1,2.7-1.4
		c1.5-0.4,3,1,3.4,2.5c0.4,1.5,0.1,3.1,0.1,4.7c0,2.6,0.9,5.2,2.4,7.2c0.2,0.3,0.5,0.6,0.8,0.8c1.3,0.6,2.7-1,2.5-2.4
		c-0.2-1.4-1.2-2.5-1.9-3.8c-2-3.4-1.7-7.7-3.3-11.3c-0.3-0.7-0.7-1.3-1.3-1.7c-2.1-1-4.3,2.6-6.5,1.8c-0.7-0.3-1.2-1-1.5-1.7
		c-0.7-1.9-0.6-4-0.4-6c0.2-2,0.3-4.1-0.4-6C75.9,95,74,93.4,72,93.8c-1,0.2-2.1,0.8-2.9,0.2c-0.7-0.5-0.7-1.4-0.6-2.2
		c0.6-4.6,4.2-8.1,5.8-12.4c0.5-1.4,0.7-3.3-0.6-4.1c-1.6-1-3.1,0.7-3.5,2.1C69.7,79.2,69.3,80.8,68.5,82.6z"/>
	<path class="st3" d="M67.4,83.8c-1.2,2.7-2,5.5-2.4,8.5c-0.2,1.6-0.2,3.2,0.3,4.7c0.6,1.5,2,2.7,3.6,2.7c1.3,0,2.6-0.8,3.8-0.3
		c1.2,0.5,1.5,2,1.5,3.3c0,2.3-0.5,4.6-0.3,6.8c0.2,2.3,1.3,4.7,3.5,5.5c0.5,0.2,0.9,0.2,1.4,0.2c1-0.2,1.7-1.1,2.7-1.4
		c1.5-0.4,3,1,3.4,2.5c0.4,1.5,0.1,3.1,0.1,4.7c0,2.6,0.9,5.2,2.4,7.2c0.2,0.3,0.5,0.6,0.8,0.8c1.3,0.6,2.7-1,2.5-2.4
		c-0.2-1.4-1.2-2.5-1.9-3.8c-2-3.4-1.7-7.7-3.3-11.3c-0.3-0.7-0.7-1.3-1.3-1.7c-2.1-1-4.3,2.6-6.5,1.8c-0.7-0.3-1.2-1-1.5-1.7
		c-0.7-1.9-0.6-4-0.4-6c0.2-2,0.3-4.1-0.4-6c-0.7-1.9-2.6-3.5-4.6-3.1c-1,0.2-2.1,0.8-2.9,0.2c-0.7-0.5-0.7-1.4-0.6-2.2
		c0.6-4.6,4.2-8.1,5.8-12.4c0.5-1.4,0.7-3.3-0.6-4.1c-1.6-1-3.1,0.7-3.5,2.1C68.7,80.4,68.3,81.9,67.4,83.8z"/>
	<g>
		<path class="st13" d="M110.5,98.5c1.1-0.8,2.1-1.6,3-2.5c0.4-0.3,0.3-1,0-1.3c-0.4-0.3-0.9-0.3-1.3,0c-0.9,0.8-1.8,1.5-2.7,2.3
			c0.1,0,0.1-0.1,0.2-0.1c-0.1,0-0.1,0.1-0.2,0.1c-0.2,0.1-0.3,0.3-0.4,0.5c-0.1,0.2,0,0.5,0.1,0.7c0.1,0.2,0.3,0.4,0.5,0.4
			C110,98.7,110.3,98.7,110.5,98.5L110.5,98.5z"/>
	</g>
	<g>
		<path class="st13" d="M111.7,93.6c0.9,0,1.9-0.2,2.8-0.5c0.2-0.1,0.4-0.2,0.5-0.4c0.1-0.2,0.2-0.5,0.1-0.7
			c-0.1-0.4-0.6-0.8-1.1-0.6c-0.6,0.2-1.2,0.3-1.8,0.4c0.1,0,0.2,0,0.2,0c-0.3,0-0.5,0.1-0.8,0.1c-0.2,0-0.5,0.1-0.6,0.3
			c-0.2,0.2-0.3,0.4-0.3,0.6C110.8,93.1,111.2,93.6,111.7,93.6L111.7,93.6z"/>
	</g>
	<g>
		<path class="st13" d="M109.3,91.4c0.4-0.1,0.9-0.3,1.3-0.4c0.2-0.1,0.4-0.2,0.5-0.4c0.1-0.1,0.1-0.2,0.1-0.3c0-0.1,0-0.2,0-0.4
			c-0.1-0.2-0.2-0.4-0.4-0.5c-0.2-0.1-0.5-0.2-0.7-0.1c-0.4,0.1-0.9,0.3-1.3,0.4c-0.2,0.1-0.4,0.2-0.5,0.4c-0.1,0.1-0.1,0.2-0.1,0.3
			c0,0.1,0,0.2,0,0.4c0.1,0.2,0.2,0.4,0.4,0.5C108.8,91.4,109,91.4,109.3,91.4L109.3,91.4z"/>
	</g>
	<g>
		<path class="st13" d="M107.1,92.8c0.4-0.4,0.8-0.8,1.2-1.2c0.2-0.2,0.3-0.4,0.3-0.6c0-0.1,0-0.2-0.1-0.3c0-0.1-0.1-0.2-0.2-0.3
			c-0.2-0.2-0.4-0.3-0.6-0.3c-0.2,0-0.5,0.1-0.6,0.3c-0.4,0.4-0.8,0.8-1.2,1.2c-0.2,0.2-0.3,0.4-0.3,0.6c0,0.1,0,0.2,0.1,0.3
			c0,0.1,0.1,0.2,0.2,0.3c0.2,0.2,0.4,0.3,0.6,0.3C106.7,93.1,106.9,93,107.1,92.8L107.1,92.8z"/>
	</g>
	<g>
		<path class="st13" d="M100.7,89.4c0.6-0.8,1.1-1.6,1.4-2.6c0.1-0.5-0.2-1-0.6-1.1c-0.5-0.1-1,0.1-1.1,0.6
			c-0.1,0.2-0.1,0.5-0.2,0.7c0-0.1,0.1-0.1,0.1-0.2c-0.2,0.5-0.5,0.9-0.8,1.4c0-0.1,0.1-0.1,0.1-0.2c0,0.1-0.1,0.1-0.1,0.2
			c-0.2,0.2-0.3,0.4-0.3,0.6c0,0.2,0.1,0.5,0.3,0.6c0.2,0.2,0.4,0.3,0.6,0.3C100.2,89.7,100.5,89.6,100.7,89.4L100.7,89.4z"/>
	</g>
	<g>
		<path class="st13" d="M103.1,84.8c0.6,0.4,1.3,0.9,1.9,1.3c0.2,0.1,0.5,0.1,0.7,0.1c0.2-0.1,0.4-0.2,0.5-0.4
			c0.1-0.2,0.2-0.5,0.1-0.7c-0.1-0.2-0.2-0.4-0.4-0.5c-0.6-0.4-1.3-0.9-1.9-1.3c-0.2-0.1-0.5-0.1-0.7-0.1c-0.2,0.1-0.4,0.2-0.5,0.4
			c-0.1,0.2-0.2,0.5-0.1,0.7C102.8,84.5,102.9,84.7,103.1,84.8L103.1,84.8z"/>
	</g>
	<g>
		<path class="st13" d="M105.8,82.8c0.1,0.1,0.2,0.3,0.3,0.4c0.1,0.1,0.1,0.2,0.2,0.2c0.1,0.1,0.3,0.2,0.4,0.3
			c0.1,0.1,0.2,0.1,0.3,0.2c0.1,0.1,0.2,0.1,0.3,0.1c0.1,0,0.2,0,0.4,0c0.1,0,0.2-0.1,0.3-0.2c0.1-0.1,0.2-0.1,0.2-0.3
			c0-0.1,0.1-0.1,0.1-0.2c0-0.2,0-0.3,0-0.5c0-0.1-0.1-0.1-0.1-0.2c-0.1-0.1-0.2-0.2-0.3-0.3c-0.1-0.1-0.2-0.1-0.3-0.2
			c0.1,0,0.1,0.1,0.2,0.1c-0.2-0.1-0.3-0.3-0.4-0.4c0,0.1,0.1,0.1,0.1,0.2c-0.1-0.1-0.1-0.1-0.1-0.2c-0.1-0.1-0.1-0.2-0.2-0.3
			c-0.1-0.1-0.2-0.1-0.3-0.2c-0.1,0-0.2,0-0.4,0c-0.1,0-0.2,0-0.3,0.1c-0.1,0-0.1,0.1-0.2,0.1c-0.1,0.1-0.2,0.2-0.2,0.4
			c0,0.1,0,0.2,0,0.2C105.7,82.5,105.8,82.7,105.8,82.8L105.8,82.8z"/>
	</g>
	<g>
		<path class="st13" d="M102.2,82.4c0.2-0.2,0.4-0.3,0.7-0.5c0.1-0.1,0.2-0.1,0.3-0.2c0.1-0.1,0.1-0.2,0.2-0.3c0-0.1,0-0.2,0-0.4
			c0-0.1,0-0.2-0.1-0.3c0-0.1-0.1-0.1-0.1-0.2c-0.1-0.1-0.2-0.2-0.4-0.2c-0.1,0-0.2,0-0.2,0c-0.2,0-0.3,0-0.5,0.1
			c-0.2,0.2-0.4,0.3-0.7,0.5c-0.1,0.1-0.2,0.1-0.3,0.2c-0.1,0.1-0.1,0.2-0.2,0.3c0,0.1,0,0.2,0,0.4c0,0.1,0,0.2,0.1,0.3
			c0,0.1,0.1,0.1,0.1,0.2c0.1,0.1,0.2,0.2,0.4,0.2c0.1,0,0.2,0,0.2,0C101.9,82.5,102,82.5,102.2,82.4L102.2,82.4z"/>
	</g>
	<g>
		<path class="st13" d="M139.2,69.2c0.3,0.8,0.7,1.6,1.2,2.3c0.1,0.2,0.3,0.4,0.5,0.4c0.2,0.1,0.5,0,0.7-0.1
			c0.2-0.1,0.4-0.3,0.4-0.5c0.1-0.2,0-0.5-0.1-0.7c-0.4-0.5-0.7-1.1-1-1.7c0,0.1,0.1,0.1,0.1,0.2c0-0.1-0.1-0.2-0.1-0.3
			c-0.1-0.2-0.2-0.4-0.4-0.5c-0.2-0.1-0.5-0.2-0.7-0.1c-0.2,0.1-0.4,0.2-0.5,0.4C139.2,68.7,139.2,68.9,139.2,69.2L139.2,69.2z"/>
	</g>
	<g>
		<path class="st13" d="M143.3,70.6c0,0.4,0,0.8,0,1.2c0,0.2,0.1,0.5,0.3,0.6c0.1,0.1,0.2,0.2,0.3,0.2c0.1,0.1,0.2,0.1,0.3,0.1
			c0.2,0,0.5-0.1,0.6-0.3c0.2-0.2,0.3-0.4,0.3-0.6c0-0.4,0-0.8,0-1.2c0-0.2-0.1-0.5-0.3-0.6c-0.1-0.1-0.2-0.2-0.3-0.2
			c-0.1-0.1-0.2-0.1-0.3-0.1c-0.2,0-0.5,0.1-0.6,0.3C143.4,70.2,143.3,70.4,143.3,70.6L143.3,70.6z"/>
	</g>
	<g>
		<path class="st13" d="M142.9,75.6c0.1,0,0.2,0,0.3,0c0,0,0.1,0,0.1,0c0,0,0.1,0,0.1,0c0.1,0,0.2,0,0.3,0c0.1,0,0.1,0,0.2-0.1
			c0.1-0.1,0.3-0.1,0.4-0.2c0.1-0.1,0.2-0.1,0.3-0.2c0.1-0.1,0.1-0.2,0.2-0.3c0-0.1,0-0.2,0-0.4c0-0.1,0-0.2-0.1-0.3
			c0-0.1-0.1-0.1-0.1-0.2c-0.1-0.1-0.2-0.2-0.4-0.2c-0.1,0-0.2,0-0.2,0c-0.2,0-0.3,0-0.5,0.1c-0.1,0-0.1,0.1-0.2,0.1
			c0.1,0,0.1-0.1,0.2-0.1c-0.1,0-0.2,0.1-0.3,0.1c0.1,0,0.2,0,0.2,0c-0.1,0-0.2,0-0.3,0c0.1,0,0.2,0,0.2,0c0,0-0.1,0-0.1,0
			c-0.1,0-0.2,0-0.4,0c-0.1,0-0.2,0-0.3,0.1c-0.1,0.1-0.2,0.1-0.3,0.2c-0.1,0.1-0.1,0.2-0.2,0.3c0,0.1,0,0.2,0,0.2
			c0,0.2,0,0.3,0.1,0.5c0,0.1,0.1,0.1,0.1,0.2C142.6,75.4,142.7,75.5,142.9,75.6L142.9,75.6z"/>
	</g>
	<g>
		<path class="st13" d="M137.4,73.1c0.2,0.2,0.5,0.5,0.7,0.7c0.1,0.1,0.2,0.2,0.3,0.2c0.1,0.1,0.2,0.1,0.3,0.1c0.1,0,0.2,0,0.3-0.1
			c0.1,0,0.2-0.1,0.3-0.2c0-0.1,0.1-0.1,0.1-0.2c0.1-0.1,0.1-0.3,0.1-0.5c0-0.1,0-0.2,0-0.2c0-0.2-0.1-0.3-0.2-0.4
			c-0.2-0.2-0.5-0.5-0.7-0.7c-0.1-0.1-0.2-0.2-0.3-0.2c-0.1-0.1-0.2-0.1-0.3-0.1c-0.1,0-0.2,0-0.3,0.1c-0.1,0-0.2,0.1-0.3,0.2
			c0,0.1-0.1,0.1-0.1,0.2c-0.1,0.1-0.1,0.3-0.1,0.5c0,0.1,0,0.2,0,0.2C137.2,72.9,137.3,73,137.4,73.1L137.4,73.1z"/>
	</g>
	<g>
		<path class="st13" d="M139.6,88.3c0.4-0.4,0.9-0.8,1.3-1.2c0.2-0.2,0.3-0.4,0.3-0.6c0-0.2-0.1-0.5-0.3-0.6
			c-0.2-0.2-0.4-0.3-0.6-0.3c-0.2,0-0.5,0.1-0.6,0.3c-0.4,0.4-0.9,0.8-1.3,1.2c-0.2,0.2-0.3,0.4-0.3,0.6c0,0.2,0.1,0.5,0.3,0.6
			c0.2,0.2,0.4,0.3,0.6,0.3C139.2,88.5,139.4,88.4,139.6,88.3L139.6,88.3z"/>
	</g>
	<g>
		<path class="st13" d="M134.8,86.5c0.3-0.5,0.7-1,1-1.5c0.1-0.1,0.1-0.2,0.1-0.3c0-0.1,0-0.2,0-0.4c-0.1-0.2-0.2-0.4-0.4-0.5
			c-0.2-0.1-0.5-0.2-0.7-0.1c-0.1,0-0.1,0.1-0.2,0.1c-0.1,0.1-0.2,0.2-0.3,0.3c-0.3,0.5-0.7,1-1,1.5c-0.1,0.1-0.1,0.2-0.1,0.3
			c0,0.1,0,0.2,0,0.4c0.1,0.2,0.2,0.4,0.4,0.5c0.2,0.1,0.5,0.2,0.7,0.1c0.1,0,0.1-0.1,0.2-0.1C134.6,86.8,134.7,86.7,134.8,86.5
			L134.8,86.5z"/>
	</g>
	<g>
		<path class="st13" d="M139,83c0.3,0.1,0.7,0.1,1,0.2c0.1,0,0.2,0,0.4,0c0.1,0,0.2,0,0.3-0.1c0.1-0.1,0.2-0.1,0.3-0.2
			c0.1-0.1,0.1-0.2,0.2-0.3c0-0.1,0-0.2,0-0.2c0-0.2,0-0.3-0.1-0.5c0-0.1-0.1-0.1-0.1-0.2c-0.1-0.1-0.2-0.2-0.4-0.2
			c-0.3-0.1-0.7-0.1-1-0.2c-0.1,0-0.2,0-0.4,0c-0.1,0-0.2,0-0.3,0.1c-0.1,0.1-0.2,0.1-0.3,0.2c-0.1,0.1-0.1,0.2-0.2,0.3
			c0,0.1,0,0.2,0,0.2c0,0.2,0,0.3,0.1,0.5c0,0.1,0.1,0.1,0.1,0.2C138.7,82.9,138.8,83,139,83L139,83z"/>
	</g>
	<g>
		<path class="st13" d="M142.5,84.5c0.4,0.4,0.8,0.8,1.2,1.2c0.2,0.2,0.4,0.3,0.6,0.3c0.1,0,0.2,0,0.3-0.1c0.1,0,0.2-0.1,0.3-0.2
			c0.2-0.2,0.3-0.4,0.3-0.6c0-0.2-0.1-0.5-0.3-0.6c-0.4-0.4-0.8-0.8-1.2-1.2c-0.2-0.2-0.4-0.3-0.6-0.3c-0.1,0-0.2,0-0.3,0.1
			c-0.1,0-0.2,0.1-0.3,0.2c-0.2,0.2-0.3,0.4-0.3,0.6C142.2,84.1,142.3,84.3,142.5,84.5L142.5,84.5z"/>
	</g>
	<g>
		<path class="st13" d="M140.3,89.8c0,0.1,0,0.2,0,0.2C140.3,90,140.4,89.9,140.3,89.8c0,0.3-0.1,0.5-0.2,0.8c0-0.1,0.1-0.1,0.1-0.2
			c-0.1,0.2-0.2,0.5-0.4,0.7c0-0.1,0.1-0.1,0.1-0.2c0,0,0,0,0,0c-0.1,0.1-0.2,0.2-0.2,0.3c-0.1,0.1-0.1,0.2-0.1,0.3
			c0,0.2,0.1,0.5,0.3,0.6c0.2,0.2,0.4,0.3,0.6,0.3c0.2,0,0.5-0.1,0.6-0.3c0.1-0.2,0.3-0.4,0.4-0.6c0.1-0.2,0.2-0.4,0.3-0.6
			c0.1-0.4,0.2-0.8,0.2-1.2c0-0.2-0.1-0.5-0.3-0.6c-0.2-0.2-0.4-0.3-0.6-0.3c-0.2,0-0.5,0.1-0.6,0.3
			C140.4,89.3,140.4,89.6,140.3,89.8L140.3,89.8z"/>
	</g>
	<g>
		<path class="st13" d="M127.9,55.2c0.5-0.1,0.9-0.2,1.4-0.3c0.2-0.1,0.4-0.2,0.5-0.4c0.1-0.1,0.1-0.2,0.1-0.3c0-0.1,0-0.2,0-0.4
			c-0.1-0.2-0.2-0.4-0.4-0.5c-0.2-0.1-0.5-0.2-0.7-0.1c-0.5,0.1-0.9,0.2-1.4,0.3c-0.2,0.1-0.4,0.2-0.5,0.4c-0.1,0.1-0.1,0.2-0.1,0.3
			c0,0.1,0,0.2,0,0.4c0.1,0.2,0.2,0.4,0.4,0.5C127.5,55.2,127.7,55.3,127.9,55.2L127.9,55.2z"/>
	</g>
	<g>
		<path class="st13" d="M127.8,52.1c0.5-0.1,0.9-0.2,1.4-0.3c0.1,0,0.2-0.1,0.3-0.2c0.1-0.1,0.2-0.1,0.2-0.3
			c0.1-0.2,0.2-0.5,0.1-0.7c-0.1-0.2-0.2-0.4-0.4-0.5c-0.1,0-0.1-0.1-0.2-0.1c-0.2,0-0.3,0-0.5,0c-0.5,0.1-0.9,0.2-1.4,0.3
			c-0.1,0-0.2,0.1-0.3,0.2c-0.1,0.1-0.2,0.1-0.2,0.3c-0.1,0.2-0.2,0.5-0.1,0.7c0.1,0.2,0.2,0.4,0.4,0.5c0.1,0,0.1,0.1,0.2,0.1
			C127.4,52.2,127.6,52.2,127.8,52.1L127.8,52.1z"/>
	</g>
	<g>
		<path class="st13" d="M132,51.2c0.2,0.3,0.5,0.6,0.7,0.8c0.1,0.1,0.2,0.2,0.3,0.2c0.1,0.1,0.2,0.1,0.3,0.1c0.1,0,0.2,0,0.3-0.1
			c0.1,0,0.2-0.1,0.3-0.2c0-0.1,0.1-0.1,0.1-0.2c0.1-0.1,0.1-0.3,0.1-0.5c0-0.1,0-0.2,0-0.2c0-0.2-0.1-0.3-0.2-0.4
			c-0.2-0.3-0.5-0.6-0.7-0.8c-0.1-0.1-0.2-0.2-0.3-0.2c-0.1-0.1-0.2-0.1-0.3-0.1c-0.1,0-0.2,0-0.3,0.1c-0.1,0-0.2,0.1-0.3,0.2
			c0,0.1-0.1,0.1-0.1,0.2c-0.1,0.1-0.1,0.3-0.1,0.5c0,0.1,0,0.2,0,0.2C131.8,51,131.9,51.1,132,51.2L132,51.2z"/>
	</g>
	<g>
		<path class="st13" d="M131.3,55.1c0.4,0.5,0.8,1,1.2,1.5c0.1,0.1,0.1,0.2,0.2,0.3c0.1,0.1,0.2,0.1,0.3,0.2c0.2,0.1,0.5,0,0.7-0.1
			c0.2-0.1,0.4-0.3,0.4-0.5c0.1-0.2,0.1-0.5-0.1-0.7c-0.4-0.5-0.8-1-1.2-1.5c-0.1-0.1-0.1-0.2-0.2-0.3c-0.1-0.1-0.2-0.1-0.3-0.2
			c-0.2-0.1-0.5,0-0.7,0.1c-0.2,0.1-0.4,0.3-0.4,0.5C131.2,54.6,131.2,54.9,131.3,55.1L131.3,55.1z"/>
	</g>
	<g>
		<path class="st13" d="M137.9,55.6c0.5,0,0.9-0.4,0.9-0.9c0-0.5-0.4-0.9-0.9-0.9c-0.5,0-0.9,0.4-0.9,0.9
			C137,55.1,137.4,55.6,137.9,55.6L137.9,55.6z"/>
	</g>
	<g>
		<path class="st13" d="M122.2,55.6c0.2-0.3,0.3-0.7,0.5-1c0.1-0.1,0.1-0.2,0.1-0.3c0-0.1,0-0.2,0-0.4c0-0.1-0.1-0.2-0.2-0.3
			c-0.1-0.1-0.1-0.2-0.3-0.2c-0.2-0.1-0.5-0.2-0.7-0.1c-0.2,0.1-0.4,0.2-0.5,0.4c-0.2,0.3-0.3,0.7-0.5,1c-0.1,0.1-0.1,0.2-0.1,0.3
			c0,0.1,0,0.2,0,0.4c0,0.1,0.1,0.2,0.2,0.3c0.1,0.1,0.1,0.2,0.3,0.2c0.2,0.1,0.5,0.2,0.7,0.1C121.9,56,122.1,55.8,122.2,55.6
			L122.2,55.6z"/>
	</g>
	<g>
		<path class="st13" d="M125.9,59.3c0.3,0.1,0.7,0.1,1,0.2c0.1,0,0.2,0,0.4,0c0.1,0,0.2,0,0.3-0.1c0.1-0.1,0.2-0.1,0.3-0.2
			c0.1-0.1,0.1-0.2,0.2-0.3c0-0.1,0-0.2,0-0.2c0-0.2,0-0.3-0.1-0.5c0-0.1-0.1-0.1-0.1-0.2c-0.1-0.1-0.2-0.2-0.4-0.2
			c-0.3-0.1-0.7-0.1-1-0.2c-0.1,0-0.2,0-0.4,0c-0.1,0-0.2,0-0.3,0.1c-0.1,0.1-0.2,0.1-0.3,0.2c-0.1,0.1-0.1,0.2-0.2,0.3
			c0,0.1,0,0.2,0,0.2c0,0.2,0,0.3,0.1,0.5c0,0.1,0.1,0.1,0.1,0.2C125.6,59.2,125.8,59.2,125.9,59.3L125.9,59.3z"/>
	</g>
	<g>
		<path class="st13" d="M105.8,52.2c0-0.2,0.1-0.3,0.1-0.5c0,0.1-0.1,0.1-0.1,0.2c0.1-0.2,0.2-0.4,0.3-0.5c0,0.1-0.1,0.1-0.1,0.2
			c0.1-0.1,0.2-0.2,0.3-0.3c0.1-0.1,0.2-0.2,0.2-0.3c0.1-0.1,0.1-0.2,0.1-0.3c0-0.2-0.1-0.5-0.3-0.6c-0.2-0.2-0.4-0.3-0.6-0.3
			c-0.2,0-0.5,0.1-0.6,0.3c-0.1,0.1-0.2,0.2-0.3,0.3c-0.1,0.2-0.3,0.3-0.4,0.5c-0.2,0.3-0.3,0.6-0.4,0.9c0,0.1,0,0.2,0,0.4
			c0,0.1,0,0.2,0.1,0.3c0.1,0.2,0.3,0.4,0.5,0.4c0.2,0.1,0.5,0,0.7-0.1C105.6,52.6,105.7,52.4,105.8,52.2L105.8,52.2z"/>
	</g>
	<g>
		<path class="st13" d="M106.4,47.7c0.4-0.1,0.8-0.1,1.2-0.2c0.1,0,0.2-0.1,0.3-0.2c0.1-0.1,0.2-0.1,0.2-0.3
			c0.1-0.1,0.1-0.2,0.1-0.3c0-0.1,0-0.2,0-0.4c-0.1-0.2-0.2-0.4-0.4-0.5c-0.1,0-0.1-0.1-0.2-0.1c-0.2,0-0.3,0-0.5,0
			c-0.4,0.1-0.8,0.1-1.2,0.2c-0.1,0-0.2,0.1-0.3,0.2c-0.1,0.1-0.2,0.1-0.2,0.3c-0.1,0.1-0.1,0.2-0.1,0.3c0,0.1,0,0.2,0,0.4
			c0.1,0.2,0.2,0.4,0.4,0.5c0.1,0,0.1,0.1,0.2,0.1C106,47.7,106.2,47.7,106.4,47.7L106.4,47.7z"/>
	</g>
	<g>
		<path class="st13" d="M109.8,46.8c0.3,0.2,0.6,0.3,0.8,0.5c0.1,0.1,0.2,0.1,0.3,0.1c0.1,0,0.2,0,0.4,0c0.1,0,0.2-0.1,0.3-0.2
			c0.1-0.1,0.2-0.1,0.2-0.3c0-0.1,0.1-0.1,0.1-0.2c0-0.2,0-0.3,0-0.5c0-0.1-0.1-0.1-0.1-0.2c-0.1-0.1-0.2-0.2-0.3-0.3
			c-0.3-0.2-0.6-0.3-0.8-0.5c-0.1-0.1-0.2-0.1-0.3-0.1c-0.1,0-0.2,0-0.4,0c-0.1,0-0.2,0.1-0.3,0.2c-0.1,0.1-0.2,0.1-0.2,0.3
			c0,0.1-0.1,0.1-0.1,0.2c0,0.2,0,0.3,0,0.5c0,0.1,0.1,0.1,0.1,0.2C109.5,46.6,109.6,46.7,109.8,46.8L109.8,46.8z"/>
	</g>
	<g>
		<path class="st13" d="M109.7,51.2c0.4,0,0.8,0,1.2,0c0.2,0,0.5-0.1,0.6-0.3c0.1-0.1,0.2-0.2,0.2-0.3c0.1-0.1,0.1-0.2,0.1-0.3
			c0-0.2-0.1-0.5-0.3-0.6c-0.2-0.2-0.4-0.3-0.6-0.3c-0.4,0-0.8,0-1.2,0c-0.2,0-0.5,0.1-0.6,0.3c-0.1,0.1-0.2,0.2-0.2,0.3
			c-0.1,0.1-0.1,0.2-0.1,0.3c0,0.2,0.1,0.5,0.3,0.6C109.2,51,109.4,51.2,109.7,51.2L109.7,51.2z"/>
	</g>
	<g>
		<path class="st13" d="M110.1,54.2c0.1-0.3,0.2-0.6,0.3-0.8c0-0.1,0-0.2,0-0.4c0-0.1,0-0.2-0.1-0.3c-0.1-0.1-0.1-0.2-0.2-0.3
			c-0.1-0.1-0.2-0.1-0.3-0.2c-0.1,0-0.2,0-0.2,0c-0.2,0-0.3,0-0.5,0.1c-0.1,0-0.1,0.1-0.2,0.1c-0.1,0.1-0.2,0.2-0.2,0.4
			c-0.1,0.3-0.2,0.6-0.3,0.8c0,0.1,0,0.2,0,0.4c0,0.1,0,0.2,0.1,0.3c0.1,0.1,0.1,0.2,0.2,0.3c0.1,0.1,0.2,0.1,0.3,0.2
			c0.1,0,0.2,0,0.2,0c0.2,0,0.3,0,0.5-0.1c0.1,0,0.1-0.1,0.2-0.1C109.9,54.5,110,54.4,110.1,54.2L110.1,54.2z"/>
	</g>
	<g>
		<path class="st13" d="M149,45.6c0.1,0,0.1,0,0.2,0C149.1,45.6,149,45.6,149,45.6c0.3,0,0.6,0,0.9,0c-0.1,0-0.2,0-0.2,0
			c0.2,0,0.4,0.1,0.6,0.1c0.2,0.1,0.5,0,0.7-0.1c0.2-0.1,0.4-0.3,0.4-0.5c0.1-0.2,0-0.5-0.1-0.7c-0.1-0.2-0.3-0.3-0.5-0.4
			c-0.7-0.2-1.5-0.2-2.2-0.1c-0.2,0-0.4,0.2-0.5,0.4c-0.1,0.2-0.2,0.5-0.1,0.7c0.1,0.2,0.2,0.4,0.4,0.5c0.1,0,0.1,0.1,0.2,0.1
			C148.7,45.7,148.8,45.7,149,45.6L149,45.6z"/>
	</g>
	<g>
		<path class="st13" d="M149.6,41.7c0.5,0.3,1,0.6,1.5,0.9c0.2,0.1,0.5,0.2,0.7,0.1c0.2-0.1,0.4-0.2,0.5-0.4
			c0.1-0.2,0.2-0.5,0.1-0.7c-0.1-0.2-0.2-0.4-0.4-0.5c-0.5-0.3-1-0.6-1.5-0.9c-0.2-0.1-0.5-0.2-0.7-0.1c-0.2,0.1-0.4,0.2-0.5,0.4
			c-0.1,0.2-0.2,0.5-0.1,0.7C149.3,41.4,149.4,41.6,149.6,41.7L149.6,41.7z"/>
	</g>
	<g>
		<path class="st13" d="M154,44.9c-0.1,0.3-0.2,0.6-0.3,0.8c0,0.1,0,0.2,0,0.4c0,0.1,0,0.2,0.1,0.3c0.1,0.1,0.1,0.2,0.2,0.3
			c0.1,0.1,0.2,0.1,0.3,0.2c0.1,0,0.2,0,0.2,0c0.2,0,0.3,0,0.5-0.1c0.1,0,0.1-0.1,0.2-0.1c0.1-0.1,0.2-0.2,0.2-0.4
			c0.1-0.3,0.2-0.6,0.3-0.8c0-0.1,0-0.2,0-0.4c0-0.1,0-0.2-0.1-0.3c-0.1-0.1-0.1-0.2-0.2-0.3c-0.1-0.1-0.2-0.1-0.3-0.2
			c-0.1,0-0.2,0-0.2,0c-0.2,0-0.3,0-0.5,0.1c-0.1,0-0.1,0.1-0.2,0.1C154.1,44.6,154,44.8,154,44.9L154,44.9z"/>
	</g>
	<g>
		<path class="st13" d="M148.5,48.4c0,0.3,0,0.7,0,1c0,0.1,0,0.2,0.1,0.3c0,0.1,0.1,0.2,0.2,0.3c0.1,0.1,0.2,0.2,0.3,0.2
			c0.1,0.1,0.2,0.1,0.3,0.1c0.2,0,0.5-0.1,0.6-0.3c0.2-0.2,0.3-0.4,0.3-0.6c0-0.3,0-0.7,0-1c0-0.1,0-0.2-0.1-0.3
			c0-0.1-0.1-0.2-0.2-0.3c-0.1-0.1-0.2-0.2-0.3-0.2c-0.1-0.1-0.2-0.1-0.3-0.1c-0.2,0-0.5,0.1-0.6,0.3
			C148.6,47.9,148.5,48.1,148.5,48.4L148.5,48.4z"/>
	</g>
	<g>
		<path class="st13" d="M124.2,72.1c0.1,0.5,0.1,1.1,0,1.6c0-0.1,0-0.2,0-0.2c0,0.2-0.1,0.4-0.1,0.6c-0.1,0.2,0,0.5,0.1,0.7
			c0.1,0.2,0.3,0.4,0.5,0.4c0.2,0.1,0.5,0,0.7-0.1c0.2-0.1,0.4-0.3,0.4-0.5c0.2-0.8,0.2-1.6,0.1-2.5c0-0.2-0.1-0.5-0.3-0.6
			c-0.2-0.2-0.4-0.3-0.6-0.3c-0.2,0-0.5,0.1-0.6,0.3C124.3,71.7,124.2,71.9,124.2,72.1L124.2,72.1z"/>
	</g>
	<g>
		<path class="st13" d="M126.6,69.9c0.3,0.2,0.6,0.3,0.8,0.5c0.1,0.1,0.2,0.1,0.3,0.1c0.1,0,0.2,0,0.4,0c0.1,0,0.2-0.1,0.3-0.2
			c0.1-0.1,0.2-0.1,0.2-0.3c0-0.1,0.1-0.1,0.1-0.2c0-0.2,0-0.3,0-0.5c0-0.1-0.1-0.1-0.1-0.2c-0.1-0.1-0.2-0.2-0.3-0.3
			c-0.3-0.2-0.6-0.3-0.8-0.5c-0.1-0.1-0.2-0.1-0.3-0.1c-0.1,0-0.2,0-0.4,0c-0.1,0-0.2,0.1-0.3,0.2c-0.1,0.1-0.2,0.1-0.2,0.3
			c0,0.1-0.1,0.1-0.1,0.2c0,0.2,0,0.3,0,0.5c0,0.1,0.1,0.1,0.1,0.2C126.3,69.7,126.4,69.8,126.6,69.9L126.6,69.9z"/>
	</g>
	<g>
		<path class="st13" d="M128.3,71.8c0.5,0.2,0.9,0.3,1.4,0.5c0.1,0,0.2,0,0.4,0c0.1,0,0.2,0,0.3-0.1c0.2-0.1,0.4-0.3,0.4-0.5
			c0.1-0.2,0-0.5-0.1-0.7c0-0.1-0.1-0.1-0.1-0.2c-0.1-0.1-0.2-0.2-0.4-0.2c-0.5-0.2-0.9-0.3-1.4-0.5c-0.1,0-0.2,0-0.4,0
			c-0.1,0-0.2,0-0.3,0.1c-0.2,0.1-0.4,0.3-0.4,0.5c-0.1,0.2,0,0.5,0.1,0.7c0,0.1,0.1,0.1,0.1,0.2C128,71.7,128.1,71.8,128.3,71.8
			L128.3,71.8z"/>
	</g>
	<g>
		<path class="st13" d="M102.8,106.6c0.7,0.3,1.4,0.6,2,0.8c0.2,0.1,0.5,0,0.7-0.1c0.2-0.1,0.4-0.3,0.4-0.5c0.1-0.2,0-0.5-0.1-0.7
			c0-0.1-0.1-0.1-0.1-0.2c-0.1-0.1-0.2-0.2-0.4-0.2c-0.7-0.3-1.4-0.6-2-0.8c-0.2-0.1-0.5,0-0.7,0.1c-0.2,0.1-0.4,0.3-0.4,0.5
			c-0.1,0.2,0,0.5,0.1,0.7c0,0.1,0.1,0.1,0.1,0.2C102.5,106.5,102.7,106.6,102.8,106.6L102.8,106.6z"/>
	</g>
	<g>
		<path class="st13" d="M105.5,104.3c0.1,0.1,0.2,0.1,0.3,0.2c0.1,0.1,0.2,0.1,0.3,0.1c0.1,0,0.2,0,0.4,0c0.1,0,0.2-0.1,0.3-0.2
			c0.1-0.1,0.2-0.1,0.2-0.3c0-0.1,0.1-0.1,0.1-0.2c0-0.2,0-0.3,0-0.5c0-0.1-0.1-0.1-0.1-0.2c-0.1-0.1-0.2-0.2-0.3-0.3
			c-0.1-0.1-0.2-0.1-0.3-0.2c-0.1-0.1-0.2-0.1-0.3-0.1c-0.1,0-0.2,0-0.4,0c-0.1,0-0.2,0.1-0.3,0.2c-0.1,0.1-0.2,0.1-0.2,0.3
			c0,0.1-0.1,0.1-0.1,0.2c0,0.2,0,0.3,0,0.5c0,0.1,0.1,0.1,0.1,0.2C105.3,104.1,105.4,104.2,105.5,104.3L105.5,104.3z"/>
	</g>
	<g>
		<path class="st13" d="M106.9,110.5c0.3-0.2,0.6-0.5,0.8-0.7c0.1-0.1,0.2-0.2,0.2-0.3c0.1-0.1,0.1-0.2,0.1-0.3c0-0.1,0-0.2-0.1-0.3
			c0-0.1-0.1-0.2-0.2-0.3c-0.1,0-0.1-0.1-0.2-0.1c-0.1-0.1-0.3-0.1-0.5-0.1c-0.1,0-0.2,0-0.2,0c-0.2,0-0.3,0.1-0.4,0.2
			c-0.3,0.2-0.6,0.5-0.8,0.7c-0.1,0.1-0.2,0.2-0.2,0.3c-0.1,0.1-0.1,0.2-0.1,0.3c0,0.1,0,0.2,0.1,0.3c0,0.1,0.1,0.2,0.2,0.3
			c0.1,0,0.1,0.1,0.2,0.1c0.1,0.1,0.3,0.1,0.5,0.1c0.1,0,0.2,0,0.2,0C106.7,110.7,106.8,110.6,106.9,110.5L106.9,110.5z"/>
	</g>
	<g>
		<path class="st13" d="M110,114c0.4-0.4,0.8-0.8,1.2-1.2c0.2-0.2,0.3-0.4,0.3-0.6c0-0.1,0-0.2-0.1-0.3c0-0.1-0.1-0.2-0.2-0.3
			c-0.2-0.2-0.4-0.3-0.6-0.3c-0.2,0-0.5,0.1-0.6,0.3c-0.4,0.4-0.8,0.8-1.2,1.2c-0.2,0.2-0.3,0.4-0.3,0.6c0,0.1,0,0.2,0.1,0.3
			c0,0.1,0.1,0.2,0.2,0.3c0.2,0.2,0.4,0.3,0.6,0.3C109.6,114.3,109.8,114.2,110,114L110,114z"/>
	</g>
	<g>
		<path class="st13" d="M170.9,72.8c0.1,0.5,0.1,1,0,1.5c0-0.1,0-0.2,0-0.2c0,0.2-0.1,0.4-0.1,0.6c-0.1,0.2,0,0.5,0.1,0.7
			c0.1,0.2,0.3,0.4,0.5,0.4c0.2,0.1,0.5,0,0.7-0.1c0.2-0.1,0.4-0.3,0.4-0.5c0.2-0.7,0.2-1.5,0.1-2.3c0-0.1,0-0.2-0.1-0.3
			c0-0.1-0.1-0.2-0.2-0.3c-0.2-0.2-0.4-0.3-0.6-0.3c-0.2,0-0.5,0.1-0.6,0.3C171,72.4,170.9,72.6,170.9,72.8L170.9,72.8z"/>
	</g>
	<g>
		<path class="st13" d="M174,69.9c0,0.4,0,0.8,0,1.2c0,0.2,0.1,0.5,0.3,0.6c0.1,0.1,0.2,0.2,0.3,0.2c0.1,0.1,0.2,0.1,0.3,0.1
			c0.2,0,0.5-0.1,0.6-0.3c0.2-0.2,0.3-0.4,0.3-0.6c0-0.4,0-0.8,0-1.2c0-0.2-0.1-0.5-0.3-0.6c-0.1-0.1-0.2-0.2-0.3-0.2
			c-0.1-0.1-0.2-0.1-0.3-0.1c-0.2,0-0.5,0.1-0.6,0.3C174.1,69.5,174,69.7,174,69.9L174,69.9z"/>
	</g>
	<g>
		<path class="st13" d="M168.8,71.4c0.3,0,0.7,0,1,0c0.1,0,0.2,0,0.3-0.1c0.1,0,0.2-0.1,0.3-0.2c0.1-0.1,0.2-0.2,0.2-0.3
			c0.1-0.1,0.1-0.2,0.1-0.3c0-0.2-0.1-0.5-0.3-0.6c-0.2-0.2-0.4-0.3-0.6-0.3c-0.3,0-0.7,0-1,0c-0.1,0-0.2,0-0.3,0.1
			c-0.1,0-0.2,0.1-0.3,0.2c-0.1,0.1-0.2,0.2-0.2,0.3c-0.1,0.1-0.1,0.2-0.1,0.3c0,0.2,0.1,0.5,0.3,0.6
			C168.3,71.3,168.5,71.4,168.8,71.4L168.8,71.4z"/>
	</g>
	<g>
		<path class="st13" d="M166.9,69.4c0.5-0.3,1-0.6,1.5-0.8c0.2-0.1,0.4-0.3,0.4-0.5c0.1-0.2,0-0.5-0.1-0.7c-0.1-0.2-0.3-0.4-0.5-0.4
			c-0.2-0.1-0.5,0-0.7,0.1c-0.5,0.3-1,0.6-1.5,0.8c-0.2,0.1-0.4,0.3-0.4,0.5c-0.1,0.2,0,0.5,0.1,0.7c0.1,0.2,0.3,0.4,0.5,0.4
			C166.4,69.5,166.6,69.5,166.9,69.4L166.9,69.4z"/>
	</g>
	<g>
		<path class="st13" d="M171.2,66.6c0.5,0,0.9-0.4,0.9-0.9c0-0.5-0.4-0.9-0.9-0.9c-0.5,0-0.9,0.4-0.9,0.9
			C170.3,66.2,170.6,66.6,171.2,66.6L171.2,66.6z"/>
	</g>
	<g>
		<path class="st13" d="M87.9,89.6c0.4-0.6,0.8-1.2,1.2-1.9c0.1-0.2,0.2-0.5,0.1-0.7c-0.1-0.2-0.2-0.4-0.4-0.5
			c-0.4-0.2-1-0.1-1.2,0.3c-0.4,0.6-0.8,1.2-1.2,1.9c-0.1,0.2-0.2,0.5-0.1,0.7c0.1,0.2,0.2,0.4,0.4,0.5C87.1,90.1,87.6,90,87.9,89.6
			L87.9,89.6z"/>
	</g>
	<g>
		<path class="st13" d="M89.1,92.3c0.3-0.3,0.6-0.6,0.8-0.9c0.1-0.1,0.2-0.2,0.2-0.3c0.1-0.1,0.1-0.2,0.1-0.3c0-0.1,0-0.2-0.1-0.3
			c0-0.1-0.1-0.2-0.2-0.3c-0.1,0-0.1-0.1-0.2-0.1c-0.1-0.1-0.3-0.1-0.5-0.1c-0.1,0-0.2,0-0.2,0c-0.2,0-0.3,0.1-0.4,0.2
			c-0.3,0.3-0.6,0.6-0.8,0.9c-0.1,0.1-0.2,0.2-0.2,0.3c-0.1,0.1-0.1,0.2-0.1,0.3c0,0.1,0,0.2,0.1,0.3c0,0.1,0.1,0.2,0.2,0.3
			c0.1,0,0.1,0.1,0.2,0.1c0.1,0.1,0.3,0.1,0.5,0.1c0.1,0,0.2,0,0.2,0C88.9,92.5,89,92.4,89.1,92.3L89.1,92.3z"/>
	</g>
	<g>
		<path class="st13" d="M87.7,96.2c0.5,0.2,0.9,0.4,1.4,0.6c0.1,0.1,0.2,0.1,0.3,0.1c0.1,0,0.2,0,0.4,0c0.2-0.1,0.4-0.2,0.5-0.4
			c0.1-0.2,0.2-0.5,0.1-0.7c-0.1-0.2-0.2-0.4-0.4-0.5c-0.5-0.2-0.9-0.4-1.4-0.6c-0.1-0.1-0.2-0.1-0.3-0.1c-0.1,0-0.2,0-0.4,0
			c-0.2,0.1-0.4,0.2-0.5,0.4c-0.1,0.2-0.2,0.5-0.1,0.7C87.3,95.9,87.5,96.1,87.7,96.2L87.7,96.2z"/>
	</g>
	<g>
		<path class="st13" d="M90.9,90.1c0.3,0.2,0.7,0.5,1,0.7c0.1,0.1,0.2,0.1,0.3,0.1c0.1,0,0.2,0,0.4,0c0.1,0,0.2-0.1,0.3-0.2
			c0.1-0.1,0.2-0.1,0.2-0.3c0.1-0.2,0.2-0.5,0.1-0.7c0-0.1-0.1-0.1-0.1-0.2c-0.1-0.1-0.2-0.2-0.3-0.3c-0.3-0.2-0.7-0.5-1-0.7
			c-0.1-0.1-0.2-0.1-0.3-0.1c-0.1,0-0.2,0-0.4,0c-0.1,0-0.2,0.1-0.3,0.2c-0.1,0.1-0.2,0.1-0.2,0.3c-0.1,0.2-0.2,0.5-0.1,0.7
			c0,0.1,0.1,0.1,0.1,0.2C90.7,89.9,90.8,90,90.9,90.1L90.9,90.1z"/>
	</g>
	<g>
		<path class="st13" d="M126.7,112.1c1.2,0.1,2.3-0.1,3.4-0.6c0.2-0.1,0.4-0.3,0.4-0.5c0.1-0.2,0-0.5-0.1-0.7
			c-0.1-0.2-0.3-0.4-0.5-0.4c-0.3-0.1-0.5,0-0.7,0.1c0,0-0.1,0-0.1,0c0.1,0,0.1-0.1,0.2-0.1c-0.5,0.2-1,0.3-1.5,0.4
			c0.1,0,0.2,0,0.2,0c-0.5,0.1-0.9,0.1-1.4,0c-0.2,0-0.5,0.1-0.6,0.3c-0.2,0.2-0.3,0.4-0.3,0.6c0,0.2,0.1,0.5,0.3,0.6
			C126.2,112,126.4,112.1,126.7,112.1L126.7,112.1z"/>
	</g>
	<g>
		<path class="st13" d="M129.3,107.2c0.2-0.3,0.3-0.7,0.5-1c0.1-0.1,0.1-0.2,0.1-0.3c0-0.1,0-0.2,0-0.4c0-0.1-0.1-0.2-0.2-0.3
			c-0.1-0.1-0.1-0.2-0.3-0.2c-0.2-0.1-0.5-0.2-0.7-0.1c-0.2,0.1-0.4,0.2-0.5,0.4c-0.2,0.3-0.3,0.7-0.5,1c-0.1,0.1-0.1,0.2-0.1,0.3
			c0,0.1,0,0.2,0,0.4c0,0.1,0.1,0.2,0.2,0.3c0.1,0.1,0.1,0.2,0.3,0.2c0.2,0.1,0.5,0.2,0.7,0.1C129,107.6,129.2,107.4,129.3,107.2
			L129.3,107.2z"/>
	</g>
	<g>
		<path class="st13" d="M132.5,105c0.3,0.3,0.7,0.6,1,0.9c0.1,0.1,0.2,0.2,0.3,0.2c0.1,0.1,0.2,0.1,0.3,0.1c0.1,0,0.2,0,0.3-0.1
			c0.1,0,0.2-0.1,0.3-0.2c0.2-0.2,0.3-0.4,0.3-0.6c0-0.1,0-0.2,0-0.2c0-0.2-0.1-0.3-0.2-0.4c-0.3-0.3-0.7-0.6-1-0.9
			c-0.1-0.1-0.2-0.2-0.3-0.2c-0.1-0.1-0.2-0.1-0.3-0.1c-0.1,0-0.2,0-0.3,0.1c-0.1,0-0.2,0.1-0.3,0.2c-0.2,0.2-0.3,0.4-0.3,0.6
			c0,0.1,0,0.2,0,0.2C132.3,104.8,132.4,104.9,132.5,105L132.5,105z"/>
	</g>
	<g>
		<path class="st13" d="M132.5,110.8c0.3,0.2,0.7,0.5,1,0.7c0.1,0.1,0.2,0.1,0.3,0.1c0.1,0,0.2,0,0.4,0c0.1,0,0.2-0.1,0.3-0.2
			c0.1-0.1,0.2-0.1,0.2-0.3c0.1-0.2,0.2-0.5,0.1-0.7c0-0.1-0.1-0.1-0.1-0.2c-0.1-0.1-0.2-0.2-0.3-0.3c-0.3-0.2-0.7-0.5-1-0.7
			c-0.1-0.1-0.2-0.1-0.3-0.1c-0.1,0-0.2,0-0.4,0c-0.1,0-0.2,0.1-0.3,0.2c-0.1,0.1-0.2,0.1-0.2,0.3c-0.1,0.2-0.2,0.5-0.1,0.7
			c0,0.1,0.1,0.1,0.1,0.2C132.3,110.6,132.4,110.7,132.5,110.8L132.5,110.8z"/>
	</g>
	<g>
		<path class="st13" d="M137.6,104.4c0.2,0.3,0.5,0.6,0.7,0.8c0.1,0.1,0.2,0.2,0.3,0.2c0.1,0.1,0.2,0.1,0.3,0.1c0.1,0,0.2,0,0.3-0.1
			c0.1,0,0.2-0.1,0.3-0.2c0-0.1,0.1-0.1,0.1-0.2c0.1-0.1,0.1-0.3,0.1-0.5c0-0.1,0-0.2,0-0.2c0-0.2-0.1-0.3-0.2-0.4
			c-0.2-0.3-0.5-0.6-0.7-0.8c-0.1-0.1-0.2-0.2-0.3-0.2c-0.1-0.1-0.2-0.1-0.3-0.1c-0.1,0-0.2,0-0.3,0.1c-0.1,0-0.2,0.1-0.3,0.2
			c0,0.1-0.1,0.1-0.1,0.2c-0.1,0.1-0.1,0.3-0.1,0.5c0,0.1,0,0.2,0,0.2C137.4,104.1,137.4,104.3,137.6,104.4L137.6,104.4z"/>
	</g>
	<path class="st14" d="M105.6,75.2c0.3,0.1,0.6,0,0.9,0c0.3,0.1,0.6,0.3,0.5,0.6c-0.1,0.3-0.7,0.4-0.7,0.7c0,0.1,0,0.2,0,0.3
		c0.2,0.5,0.3,1.1,0.5,1.6c0,0.2,0.1,0.3,0.2,0.4c0.1,0.1,0.2,0,0.4,0c0.5-0.1,1-0.2,1.2-0.6c0.1-0.3,0-0.6,0-1
		c0-0.3,0.2-0.7,0.5-0.7c0.2,0,0.3,0.2,0.5,0.3c0.4,0.4,1.2,0.4,1.6,0c0.5-0.4,0.6-1.1,0.4-1.6c-0.1-0.2-0.2-0.3-0.3-0.4
		c-0.4-0.3-0.9-0.2-1.3,0c-0.2,0.1-0.6,0.2-0.7,0c-0.1-0.2,0.2-0.4,0.4-0.6c0.6-0.3,1.2-1,1-1.7c-0.1-0.2-0.1-0.3-0.1-0.5
		c0-0.3,0.4-0.5,0.7-0.6c0.3-0.1,0.7-0.1,0.9-0.4c0-0.1,0.1-0.1,0-0.2c0,0,0-0.1-0.1-0.1c-0.5-0.6-1.5-0.5-2,0
		c-0.6,0.5-0.8,1.3-0.8,2c-0.8,0.5-1.1-0.3-1.7-0.3c-0.8,0-0.3,0.3-0.8,0.8C106.5,73.7,104.1,74.8,105.6,75.2z"/>
	<path class="st14" d="M156.7,77.1c0.3,0,0.6-0.1,0.8,0.1c0.4,0.3,0.2,0.9-0.2,1.2c-0.3,0.3-0.8,0.5-1,0.9c0.3,0.9,0.2,1.9,0.1,2.8
		c0,0.4-0.1,0.9,0,1.3c0.1,0.4,0.4,0.8,0.8,1c0.7,0.2,1.4-0.5,1.5-1.2c0.1-0.7-0.1-1.4-0.3-2.1c-0.2-0.7-0.2-1.5,0.2-2.1
		c0.1-0.2,0.3-0.3,0.5-0.3c0.4-0.1,0.8,0.3,1.3,0.3c0.3,0,0.6-0.1,0.8-0.3c0.5-0.4,0.7-1.1,0.4-1.7c-0.3-0.5-1.3-0.6-1.5,0
		c-0.1-1.1,1.7-1.6,1.6-2.7c0-0.5-0.5-0.9-1-0.8c-0.5,0-0.9,0.5-0.8,1c0.2,1.4-1.4,1.5-2.3,1.5c-0.4,0-1-0.1-1.4,0.3
		C155.9,76.7,156,77.2,156.7,77.1z"/>
	<path class="st14" d="M153.9,52.9c0.3-1.2,0.8-2.4,1.9-3c0.1,0.5,0,1-0.3,1.4c0.6-0.3,1.2-0.6,1.8-0.8c0.2-0.1,0.5-0.1,0.6,0.1
		c0,0.1,0,0.2-0.1,0.3c-0.3,0.4-0.6,0.9-0.9,1.3c0.7-0.3,1.4-0.6,2.1-0.6s1.5,0.3,1.9,1c-1.7,0.5-3.4,0.8-5.1,1c0.6,0,1,0.6,1.2,1.2
		c0.7,1.7,0.9,3.5,0.8,5.3c-0.2,0.1-0.4-0.1-0.5-0.3c-1-1.9-1.5-4.2-3.2-5.5c0.4,1.4,0.9,3,0.3,4.3c0.5-1.1-0.5-3.8-1.1-4.8
		c-0.7-1.1-1.7-1.8-2.2-3.1C152.1,51,153.2,51.9,153.9,52.9z"/>
	<path class="st14" d="M123.6,49.6c-0.1-0.5-0.1-1-0.2-1.5c-0.1-0.5,0-1.1,0.5-1.1c0.1,0.7,0.1,1.4,0.2,2.1c0,0.1,0,0.2,0.1,0.2
		c0.1,0.1,0.3,0,0.4-0.1c0.3-0.4,0.6-0.9,1.1-1.2c0.1-0.1,0.3-0.1,0.4,0c0.1,0.1,0,0.3-0.1,0.5c-0.4,0.5-0.7,0.9-1.1,1.4
		c0.8-0.6,1.8-1.2,2.7-0.8c-1.5,0.4-2.9,1-4.3,1.8c0.4,0,0.7,0.3,1,0.6c0.7,0.8,1.1,1.8,1.3,2.8c-0.2,0.1-0.5-0.1-0.7-0.3
		c-0.8-0.8-1.7-1.5-2.5-2.3c0,0.8-0.3,1.7-0.8,2.3c-0.3-1.3,0.2-2.1,0.4-3.2c0.2-1.1-0.2-1.5-1-2.4
		C121.3,48.4,123.6,49.1,123.6,49.6z"/>
	<path class="st14" d="M113.1,110.6c0.8-0.5,1.7-0.8,2.6-1.1c-1.1-0.7-1.9-1.9-2.3-3.2c0.9,0.7,1.9,1.2,3,1.7c0-0.7,0-1.4-0.1-2.1
		c0.3,0.1,0.5,0.5,0.6,0.9c0.1,0.3,0.3,0.8,0.7,0.7c0.1-0.6,0.3-1.1,0.6-1.6c0.1,0.5,0.2,1.1,0.2,1.6c0,0.1,0,0.2,0.1,0.3
		c0.1,0.1,0.3-0.1,0.4-0.2c1.1-1.3,2.8-2.3,4.4-2c-1.5,0.8-3.2,1.9-3.6,3.6c0.8-0.6,1.7-0.9,2.6-1.1c0.3-0.1,0.7-0.1,1,0
		c0.3,0.1,0.6,0.4,0.5,0.8c-1.6,0.1-3.2,0.4-4.8,1c1.2,0.2,2.3,1,2.8,2.1c-0.9-0.4-1.9-0.9-2.8-1.3
		C117.4,109.9,114.8,109.6,113.1,110.6z"/>
	<path class="st14" d="M126.1,37.4c0.8-0.9,2.1-1.2,3.2-0.8c-0.1-0.3-0.3-0.7-0.4-1c0-0.1-0.1-0.2,0-0.3c0.1-0.3,0.5,0.2,0.9,0.1
		c0.4,0,0.4-0.9,0.8-0.9c0.1,0.4,0.2,0.7,0.5,0.9c0.3,0.2,0.8,0,0.9-0.3c0.2,0.4,0.4,0.8,0.5,1.2c1.8-0.9,3.7-1.2,5.7-1.1
		c0.4,0,0.9,0.2,0.9,0.6c-1.6-0.2-3.3,0.1-4.7,0.8c0.6,0.1,1.1,0.1,1.7,0.1c0.6,0.1,1.2,0.3,1.4,0.8c0.1,0.1,0.1,0.3,0.1,0.5
		c-0.1,0.3-0.5,0.4-0.8,0.4c-0.9,0-1.8-0.1-2.6-0.4c0.7,0.8,1.1,2,1,3.1c0,0.2-0.1,0.5-0.4,0.5c-0.2,0-0.3-0.1-0.4-0.2
		c-0.6-0.6-1.1-1.4-1.5-2.2c0.2,0.8,0.1,1.7-0.3,2.5c-0.1,0.1-0.2,0.3-0.3,0.3c-0.3,0-0.4-0.5-0.4-0.8
		C131.9,37.7,129.2,37.1,126.1,37.4z"/>
	<path class="st14" d="M100.9,59.4c-0.1-0.5-0.3-1.2-0.9-1.2c-0.4,0-0.7,0.5-0.7,1c0,0.4,0,0.9-0.1,1.3c-0.2-0.4-0.4-0.9-0.8-1.1
		c-0.4-0.3-0.9-0.4-1.3,0c-0.2,0.2-0.3,0.4-0.3,0.6c-0.3,1.1-0.1,2.3,0.5,3.3c0-0.5-0.4-0.9-0.8-1.1c-0.3,2-0.3,4-0.2,6
		c0,0.3,0.1,0.7,0.4,0.7c0.1,0,0.2-0.1,0.3-0.2c0.7-0.6,1.1-1.4,1.4-2.2c0.2,1.2,0.5,2.4,0.9,3.6c0.3,0.1,0.5-0.3,0.6-0.6
		c0.3-1.2,0.6-2.4,0.6-3.6c0.1,0.4,0.2,0.8,0.3,1.2c0.1,0.2,0.2,0.5,0.4,0.4c0.2,0,0.2-0.2,0.3-0.3c0.4-1,0.4-2.2,0.1-3.3
		c0.3,0.4,1.3,2.3,2,2.1c1-0.3,0-1.5-0.4-1.9c-0.9-1-1.6-1.5-1.8-3c-0.1-0.7,0.8-4.5,0-4.6c-0.5-0.1-1.1,1-1.2,1.3
		c-0.4,1,0,2.3,0.5,3.2C101,60.4,101,59.9,100.9,59.4z"/>
	<path class="st2" d="M154.6,20.8c0.9,0.9,2.2,1.1,3.4,1.3c2,0.3,4.1,0.7,6.1,1c2,0.3,4.4,0.9,5.3,2.7c1.3,2.6-1,6.2,0.7,8.5
		c1.6,2.2,5,1.3,7.7,2c3.2,0.8,5.3,4.6,4.3,7.7c-0.3,0.9-0.8,1.8-0.5,2.7c0.3,1.1,1.5,1.5,2.5,2.1c1.7,1.1,2.7,3.1,2.6,5.2
		c-0.2,2.3-1.7,4.4-1.6,6.7c0,0.7,0.3,1.5,1,1.8c0.9,0.4,1.9-0.6,2.1-1.6c0.2-1-0.1-2-0.1-3c0.1-2.8,2.6-5.6,1.2-8
		c-0.8-1.3-2.5-1.9-3.4-3.1c-1.9-2.8,1.1-7-0.6-9.8c-1.2-2-4.1-2.2-6.5-2.2c-2.4,0-5.3-0.6-6.1-2.9c-0.2-0.8-0.2-1.6-0.1-2.4
		c0.1-1.8,0.1-3.7-0.8-5.2c-1.5-2.5-4.8-3-7.7-3.3c-2.9-0.3-6.2-0.8-7.8-3.2c-0.3-0.4-0.5-0.9-1-1C154,16.3,153.9,20.1,154.6,20.8z"
		/>
	<path class="st3" d="M153,20.9c0.9,0.9,2.2,1.1,3.4,1.3c2,0.3,4.1,0.7,6.1,1c2,0.3,4.4,0.9,5.3,2.7c1.3,2.6-1,6.2,0.7,8.5
		c1.6,2.2,5,1.3,7.7,2c3.2,0.8,5.3,4.6,4.3,7.7c-0.3,0.9-0.8,1.8-0.5,2.7c0.3,1.1,1.5,1.5,2.5,2.1c1.7,1.1,2.7,3.1,2.6,5.2
		c-0.2,2.3-1.7,4.4-1.6,6.7c0,0.7,0.3,1.5,1,1.8c0.9,0.4,1.9-0.6,2.1-1.6c0.2-1-0.1-2-0.1-3c0.1-2.8,2.6-5.6,1.2-8
		c-0.8-1.3-2.5-1.9-3.4-3.1c-1.9-2.8,1.1-7-0.6-9.8c-1.2-2-4.1-2.2-6.5-2.2c-2.4,0-5.3-0.6-6.1-2.9c-0.2-0.8-0.2-1.6-0.1-2.4
		c0.1-1.8,0.1-3.7-0.8-5.2c-1.5-2.5-4.8-3-7.7-3.3c-2.9-0.3-6.2-0.8-7.8-3.2c-0.3-0.4-0.5-0.9-1-1C152.4,16.4,152.3,20.2,153,20.9z"
		/>
</g>
</svg>
