<?xml version="1.0" encoding="utf-8"?>
<!-- Generator: Adobe Illustrator 27.3.1, SVG Export Plug-In . SVG Version: 6.00 Build 0)  -->
<svg version="1.1" id="Layer_1" xmlns="http://www.w3.org/2000/svg" xmlns:xlink="http://www.w3.org/1999/xlink" x="0px" y="0px"
	 viewBox="0 0 256 149.4" style="enable-background:new 0 0 256 149.4;" xml:space="preserve">
<style type="text/css">
	.st0{fill:#FFEBD7;}
	.st1{opacity:0.67;fill:#FFFFFF;}
	.st2{fill:#F2DFCE;}
	.st3{fill:#628453;}
	.st4{fill:#59754B;}
	.st5{opacity:8.000000e-02;fill:#FFFFFF;}
	.st6{fill:#80A86C;}
	.st7{fill:#779964;}
	.st8{opacity:0.18;fill:#FFFFFF;}
	.st9{fill:#FFBD5C;}
	.st10{fill:#BC4831;}
	.st11{fill:#E2BD56;}
	.st12{fill:#FFD95F;}
	.st13{fill:#F9CE62;}
	.st14{opacity:0.19;fill:#FFFFFF;}
	.st15{fill:#F9F5D2;}
	.st16{fill:#6EAF62;}
	.st17{fill:#2D2F3A;}
	.st18{fill:#3E4151;}
</style>
<g>
	<g>
		
			<ellipse transform="matrix(0.1487 -0.9889 0.9889 0.1487 35.1221 190.1481)" class="st0" cx="128" cy="74.7" rx="74.7" ry="74.7"/>
		<path class="st1" d="M58.9,74.5c0-38.3,31.7-69.3,70.8-69.3c13.4,0,25.9,3.6,36.6,10c-11.2-7.3-24.7-11.6-39.2-11.6
			c-39.1,0-70.8,31-70.8,69.3c0,25.2,13.7,47.2,34.2,59.3C71.4,119.8,58.9,98.6,58.9,74.5z"/>
		<path class="st2" d="M169.4,12.5c17.5,13.7,28.8,35,28.8,58.9c0,41.2-33.4,74.7-74.7,74.7c-15.3,0-29.5-4.6-41.4-12.5
			c12.7,9.9,28.6,15.8,45.9,15.8c41.2,0,74.7-33.4,74.7-74.7C202.7,48.7,189.5,25.9,169.4,12.5z"/>
	</g>
	<g>
		<path class="st3" d="M189.5,76.2c-2.4,0.1-6,1.2-8.1,2.3c-2.9,1.5-5.9,3.4-7.4,6.3c-1.5,2.9-1,7.2,1.9,8.7
			c1.1,0.6,2.3,0.7,3.4,1.3c0.9,0.5,1.6,1.4,2.5,2c2.6,1.7,6.2,0.8,8.5-1.3c2.3-2.1,3.4-5.1,4.5-8c1-2.9,2-5.9,4-8.3
			c0.2-0.2,0.4-0.4,0.5-0.7C199.9,76,191.4,76.2,189.5,76.2z"/>
		<path class="st4" d="M198.6,79.3c0.2-0.2,0.4-0.4,0.5-0.7c0.1-0.2,0.1-0.4,0-0.5c-0.1,0.3-0.3,0.5-0.4,0.7
			c-0.5,0.6-1.3,0.9-1.9,1.3c-2.2,1.6-2.6,4.7-4.1,7.1c-0.6,0.9-1.3,1.7-1.8,2.6c-0.5,1-0.8,2.1-1.5,3c-0.8,0.9-2.1,1.2-3.3,1.3
			c-1.9,0.2-3.9,0.1-5.3-1.2c-0.7-0.7-1.2-1.6-2.1-2c-1.2-0.6-2.7,0.2-4-0.1c-0.6-0.1-1.1-0.4-1.5-0.9c0.3,1.6,1.2,3,2.6,3.7
			c1.1,0.6,2.3,0.7,3.4,1.3c0.9,0.5,1.6,1.4,2.5,2c2.6,1.7,6.2,0.8,8.5-1.3c2.3-2.1,3.4-5.1,4.5-8C195.7,84.7,196.6,81.7,198.6,79.3
			z"/>
		<path class="st4" d="M181,87.3c2.8-3.4,6.9-5.4,10.8-7.3c0.5-0.2,1.1-0.5,1.6-0.6c-0.4,0.5-1,0.8-1.6,1c-3.1,1.4-6,3.4-8.4,5.9
			c-0.9,0.9-1.8,2-2.4,3.2c-0.6,1.2-0.8,2.6-0.5,3.8c0.1,0.4,0.2,0.8-0.1,1c-0.5,0.3-1.3-0.3-1.6-0.8c-0.3-0.5-0.1-1.4-0.1-1.9
			C179,90.1,179.9,88.6,181,87.3z"/>
		<path class="st4" d="M188.5,89c-1.4-0.5-2.9-0.7-4.4-0.8c-0.5,0-1.1,0-1.6,0.1c-1,0.3-1.7,1.1-2.5,1.7
			C180.7,86.3,186.4,87.1,188.5,89z"/>
		<path class="st4" d="M189.2,84.9c0.5,0.2,1,0.5,1.3,0.8c0-0.4-0.4-0.7-0.8-0.9c-0.8-0.4-1.6-0.8-2.4-1.2c-0.3-0.2-0.7-0.3-1.1-0.3
			c-0.2,0-0.8,0.3-0.6,0.6c0.1,0.2,0.9,0.1,1.1,0.1C187.6,84.2,188.4,84.6,189.2,84.9z"/>
		<path class="st4" d="M179,85.3c-0.9-1-2.1-1.6-3.4-1.9c0.1-0.2,0.5-0.2,0.8-0.1c0.5,0.2,1,0.5,1.5,0.7c1,0.6,2,1.3,2.5,2.3
			c0.5,0.9,0.7,2.4-0.2,3.2c-0.5-0.3-0.1-1.5-0.2-2C180,86.7,179.6,85.9,179,85.3z"/>
		<path class="st4" d="M185,82.2c-0.1-0.3-0.3-0.6-0.4-0.8c-0.6-0.9-1.5-1.5-2.6-1.8c0-0.1,0.1-0.2,0.3-0.2c0.1,0,0.3,0.1,0.4,0.1
			c0.6,0.3,1.1,0.5,1.6,0.9c0.6,0.4,1,1,1.3,1.7c0.1,0.3,0.5,2-0.2,2C184.9,84,185.1,82.5,185,82.2z"/>
		<path class="st4" d="M189.2,80.1c-0.1-0.5-0.5-0.9-0.8-1.2c-0.2-0.2-0.3-0.4-0.5-0.5c0.3-0.1,0.6,0.2,0.8,0.4
			c0.3,0.3,0.6,0.7,0.9,1c0.2,0.4,0.3,0.9,0.2,1.3c-0.1,0.3-0.4,0.6-0.6,0.7C188.8,81.3,189.3,80.7,189.2,80.1z"/>
		<path class="st4" d="M179.1,99.9c0.2,0.5,0.5,1.1,1,1.4c0.5,0.3,1.2,0.3,1.5-0.1c0.1-0.1,0.2-0.3,0.2-0.4c0-0.4-0.5-0.5-0.9-0.7
			c-0.7-0.3-1-1.2-1.2-2c-0.2-0.7-0.3-1.4-0.1-2c0.1-0.7,0.8-1.9,0.2-2.5c-0.7-0.7-1.2,0.5-1.3,1C178.1,96.4,178.4,98.2,179.1,99.9z
			"/>
		<path class="st5" d="M185.9,78.1c-2.1,0.3-4,1.4-5.4,2.9c-0.5,0.5-0.9,1.1-0.9,1.8c0,0.6,0.2,1.2,0.7,1.6c0.2,0.1,0.4,0.3,0.6,0.3
			c0.4,0.1,0.8-0.1,1.1-0.4c0.5-0.4,0.9-1,1.1-1.6c0.1-0.4,0.1-0.8,0.2-1.2c0.1-0.4,0.3-0.8,0.7-0.9c0.3-0.1,0.7,0,1-0.2
			c0.3-0.2,0.4-0.5,0.6-0.8c0.3-0.3,0.7-0.4,1.1-0.5c0.7-0.1,1.4-0.2,2.1-0.2c0.5,0.1,0.9,0.2,1.4,0.1c0.4-0.1,0.7-0.4,1.1-0.6
			c0.8-0.4,1.8-0.2,2.8-0.1c0.9,0.2,2,0.3,2.7-0.2c-0.4-0.5-1.1-0.5-1.7-0.5c-0.8-0.1-1.6-0.3-2.3-0.4c-1.2-0.2-2,0.5-3.2,0.7
			C188.4,78,187.1,77.9,185.9,78.1z"/>
		<path class="st3" d="M175.5,95.8c-3.4-0.5-6.9,1-9.4,3.4c-2.5,2.4-4.1,5.6-5.1,8.9c-0.1,0.3-0.2,0.7-0.1,1c0.1,0.4,0.5,0.8,0.9,1
			c0.4,0.2,0.9,0.2,1.3,0.3c0.6,0.1,1.2,0.2,1.8,0.3c1.6,0.4,3,1.3,4.5,1.8c2.6,1,5.6,1,8.2,0c2.6-1.1,4.7-3.3,5.5-6
			c0.2-0.7,0.3-1.4,0.3-2.1c-0.1-1.5-0.9-2.9-2.2-3.7c-1.3-0.8-2-1.2-2.6-2.6C178,96.6,176.9,96,175.5,95.8z"/>
		<path class="st4" d="M183,106.3c0.2-0.7,0.3-1.4,0.3-2.1c-0.1-1.5-0.9-2.9-2.2-3.7c-1.3-0.8-2-1.2-2.6-2.6c-0.6-1.4-1.7-2-3.1-2.2
			c-0.7-0.1-1.5-0.1-2.2-0.1c0.4,0.1,0.8,0.1,0.9,0.2c1.2,0.4,2.2,1.1,2.9,2.1c0.5,0.6,0.8,1.5,0.3,2.2c-0.1,0.1-0.2,0.3-0.2,0.4
			c0,0.2,0.2,0.4,0.4,0.5c0.3,0.2,0.5,0.3,0.8,0.4c0.4,0.1,0.8,0.2,1.1,0.4c1.3,0.6,1.9,2.3,1.6,3.8c-0.3,1.4-1.4,2.6-2.6,3.4
			c-0.7,0.5-1.4,0.8-2.2,1c-0.9,0.2-1.8,0-2.7-0.1c-1.9-0.3-3.8-0.6-5.7-0.8c-1-0.1-2.1-0.2-3.1-0.1c-0.9,0.2-1.7,0.5-2.6,0.7
			c-0.3,0.1-0.6,0.1-0.9,0.1c0.1,0.1,0.3,0.2,0.4,0.3c0.4,0.2,0.9,0.2,1.3,0.3c0.6,0.1,1.2,0.2,1.8,0.3c1.6,0.4,3,1.3,4.5,1.8
			c2.6,1,5.6,1,8.2,0C180.1,111.3,182.3,109,183,106.3z"/>
		<path class="st4" d="M174.4,101.4c-0.8,0.1-1.6,0.4-2.4,0.7c-2,0.7-3.8,1.7-5.6,2.8c-1.2,0.7-2.5,1.6-3.3,2.8
			c-0.1-0.1-0.1-0.2,0-0.3c0.3-0.5,0.7-0.9,1.1-1.3c3.1-2.8,7.1-4.4,11.1-5.6c0.5-0.1,1-0.3,1.5-0.3c1,0,1.9,0.5,2.7,1.1
			c0.1,0.1,0.2,0.1,0.2,0.2c0,0.1,0,0.2-0.1,0.2c-0.7,0.2-1.7-0.2-2.4-0.2C176.2,101.3,175.3,101.2,174.4,101.4z"/>
		<path class="st4" d="M165,104.1c-0.2-0.3-0.4-0.7-0.4-1.2c0-0.4,0-0.8,0.2-1.2c0.1,0.1,0.1,0.2,0,0.4c-0.2,0.5,0,1.1,0.3,1.6
			c0.1,0.2,0.2,0.4,0.5,0.5c0.3,0.1,0.6-0.1,0.9,0c0,0,0.1,0,0.1,0.1c0.1,0.2-0.5,0.4-0.7,0.4C165.5,104.7,165.2,104.3,165,104.1z"
			/>
		<path class="st4" d="M167.7,100.2c0-0.7,0.4-1.4,0.7-2.1c0-0.1,0.1-0.1,0.1-0.2c0.1,0,0.2,0,0.2,0.1c-0.2,0.6-0.5,1.1-0.6,1.8
			c-0.1,0.6,0.1,1.3,0.6,1.7c0.5,0.4,1.2,0.5,1.8,0.5c0.1,0,0.2,0,0.3,0.1c0.1,0.1,0.1,0.2,0,0.3c-0.6,0.6-1.5,0.3-2-0.1
			C168.1,101.8,167.7,101,167.7,100.2z"/>
		<path class="st4" d="M172.4,99c-0.1-0.1-0.2-0.3-0.2-0.4c0-0.2,0-0.4,0-0.6c0.1-0.4,0.2-0.9,0.5-1.3c0.1,0,0.1,0.1,0.1,0.1
			c0,0.1-0.1,0.1-0.1,0.2c-0.2,0.3-0.1,0.8,0,1.1c0.2,0.6,0.4,1.2,0.8,1.6c0.1,0.1,0.1,0.1,0.2,0.2c0.1,0.1,0.3,0.1,0.4,0.1
			c0.3,0,0.7,0.1,1,0.2c0.1,0,0.2,0.1,0.3,0.2c0.1,0.3-0.4,0.5-0.6,0.5c-0.3,0-0.5-0.1-0.7-0.2C173.3,100.2,172.8,99.6,172.4,99z"/>
		<path class="st4" d="M170.1,105.6c0.5,0.9,1.3,1.6,2,2.4c0.1,0.1,0.3,0.2,0.4,0c-0.6-0.5-1.2-1.2-1.6-1.9
			c-0.5-0.8-0.8-1.8-0.5-2.7c0.1-0.4,0.3-0.7,0.5-1c0,0-0.7,0.1-0.9,0.2c-0.2,0.2-0.3,0.6-0.3,0.9
			C169.6,104.2,169.8,105,170.1,105.6z"/>
		<path class="st4" d="M174.7,104.6c0.7,1.1,1.9,1.8,3.1,2.3c0.2,0.1,0.5,0.1,0.5-0.1c-1.1-0.4-2.2-1-2.8-1.9
			c-0.7-0.9-0.8-2.3-0.1-3.3c0.1-0.1,0.2-0.2,0.2-0.4c0-0.4-0.6-0.4-0.9-0.2c-0.3,0.2-0.4,0.7-0.5,1
			C174,102.9,174.2,103.9,174.7,104.6z"/>
		<path class="st5" d="M174.3,96.2c-0.4-0.1-0.7,0-1.1,0.1c-0.6,0.1-1.1,0.2-1.6,0.6c-0.3,0.2-0.5,0.6-0.8,0.8
			c-0.4,0.3-1,0.4-1.5,0.6c-1.2,0.4-2.2,1.1-3.1,2c-0.9,0.9-1.6,1.9-2.3,3c-0.4,0.7-0.9,1.4-0.8,2.2c0,0.1,0,0.2,0.1,0.2
			c0.1,0.1,0.3,0.1,0.4,0c0.1-0.1,0.2-0.2,0.2-0.3c0.2-0.5,0.4-1,0.6-1.5c0.1-0.3,0.2-0.7,0.4-1c0.2-0.3,0.6-0.4,0.9-0.2
			c0.1,0,0.1,0.1,0.2,0.2c0.4,0.2,0.8-0.1,1-0.5c0.2-0.4,0.1-0.8,0.2-1.2c0-0.4,0.2-0.9,0.5-1.1c0.5-0.3,1,0,1.5,0.3
			c0.4,0.3,0.9,0.7,1.5,0.5c0.4-0.1,0.6-0.4,0.8-0.8c0.1-0.4,0.1-0.7,0.1-1.1c0-0.2,0-0.3,0-0.5c0.1-0.3,0.3-0.6,0.6-0.6
			c0.3-0.1,0.6,0.1,0.8,0.3c0.1,0.1,0.1,0.3,0.2,0.4c0.5,0.9,1.9,0.9,2.3-0.1C175.8,97.7,175.3,96.3,174.3,96.2z"/>
		<path class="st6" d="M182.2,94.9c0.5-0.6,1.3-1.1,2.1-1.2c1.7-0.2,3.3,0.9,4.5,2.1c1.2,1.3,2.1,2.8,3.4,3.8
			c0.7,0.5,1.5,0.9,2.2,1.4c0.7,0.5,1.4,1.2,1.6,2c0.1,0.4,0.1,0.8,0,1.1c-0.2,0.4-0.7,0.6-1.1,0.8c-1.3,0.4-2.8,0.4-4.1,0.7
			c-1.7,0.4-3.1,1.4-4.8,1.6c-1.8,0.3-3.6-0.2-5.2-1.1c-1.2-0.7-2.2-1.7-2.6-3c-0.5-1.8,0.7-3.8,2.5-4.5c1.1-0.4,0.9-0.7,0.9-1.7
			C181.5,96.2,181.7,95.4,182.2,94.9z"/>
		<path class="st7" d="M196,104.2c0.2-0.3,0.1-0.7,0-1.1c-0.1,0.4-0.4,0.7-0.7,0.9c-0.6,0.3-1.3,0.1-2,0c-0.6-0.1-1.2-0.2-1.8-0.1
			c-0.7,0.1-1.4,0.3-2.1,0.4c-2.9,0.6-6,0.3-8.7-0.9c-0.8-0.3-1.5-0.8-2-1.4c-0.2-0.3-0.3-0.7-0.3-1.1c-0.3,0.7-0.4,1.5-0.2,2.3
			c0.3,1.3,1.4,2.3,2.6,3c1.5,0.9,3.4,1.4,5.2,1.1c1.7-0.3,3.2-1.2,4.8-1.6c1.3-0.3,2.8-0.3,4.1-0.7
			C195.3,104.8,195.8,104.6,196,104.2z"/>
		<path class="st7" d="M181.8,100.1c2.1,1.5,4.8,2,7.4,2.1c0.9,0,1.7,0,2.6,0.3c0.2,0.1,0.4,0.1,0.6,0c-0.5-0.3-1-0.4-1.5-0.5
			c-2.7-0.5-5.5-1-8.1-2.1c-0.3-0.1-0.5-0.2-0.7-0.4c-0.4-0.5-0.5-0.7-0.5-1.6C180.7,98.6,181,99.5,181.8,100.1z"/>
		<path class="st7" d="M182.3,99.3c0.3,0,0.6-0.2,0.8-0.3c0.5-0.3,0.9-0.6,1.2-1c0.3-0.4,0.5-1,0.5-1.5c0.1,0.5,0,1-0.2,1.4
			c-0.3,0.4-0.6,0.7-1,1c-0.3,0.3-0.7,0.5-1,0.8c-0.2,0.1-0.5,0.3-0.7,0.2c-0.2,0-0.3-0.2-0.4-0.4C181.2,98.8,182,99.3,182.3,99.3z"
			/>
		<path class="st7" d="M187.2,100.4c0.6-0.5,1.1-1.3,1.2-2.1c0.1,0.8-0.4,1.7-1,2.3c-0.3,0.3-0.7,0.6-1.1,0.7
			c-0.3,0.1-0.6,0.1-0.9,0c-0.4-0.1-0.2-0.3,0.1-0.3C186.1,101,186.6,100.8,187.2,100.4z"/>
		<path class="st7" d="M181.4,101.4c-0.3,0.5-0.7,0.9-1.3,1.1c0.4-0.1,0.9-0.3,1.2-0.6c0.3-0.3,0.6-0.7,0.8-1.1
			c0.1-0.2,0.2-0.4,0.2-0.6c0-0.2-0.1-0.4-0.3-0.4c-0.3-0.1-0.2,0.1-0.2,0.3C181.7,100.5,181.6,100.9,181.4,101.4z"/>
		<path class="st7" d="M184.3,104.5c0.4-0.6,0.7-1.3,0.8-2c0.1-0.4,0.1-0.7-0.1-1.1c-0.1-0.2-0.6-0.7-0.7-0.4
			c-0.1,0.2,0.2,0.9,0.3,1.1C184.7,102.9,184.6,103.7,184.3,104.5z"/>
		<path class="st8" d="M182.6,96.3c0.1-0.5,0.4-1,0.9-1.3c0.5-0.3,1.1-0.3,1.6-0.1c0.5,0.2,0.9,0.6,1.2,1.1c0.1,0.2,0.2,0.5,0.4,0.7
			c0.4,0.6,1.2,0.7,1.8,1c1.1,0.4,2,1.3,2.5,2.4c0.1,0.2,0.1,0.3,0.1,0.5c0,0.2-0.2,0.3-0.3,0.3c-0.1,0-0.2-0.1-0.3-0.1
			c-0.3-0.2-0.6-0.5-0.8-0.8c-0.1-0.1-0.1-0.2-0.2-0.2c-0.2-0.1-0.5,0.1-0.7,0.3c-0.2,0.2-0.4,0.4-0.6,0.4c-0.3-0.1-0.2-0.6,0-0.9
			c0.2-0.3,0.5-0.6,0.3-0.9c-0.1-0.3-0.5-0.3-0.7-0.2c-0.6,0.2-1,1-1.6,0.9c-0.4-0.1-0.6-0.5-0.7-1c-0.1-0.4,0-0.9-0.2-1.2
			c-0.2-0.4-0.7-0.6-1-0.3c-0.1,0.1-0.2,0.4-0.2,0.6c-0.1,0.3-0.3,0.5-0.5,0.7C182.2,99,182.4,96.9,182.6,96.3z"/>
	</g>
	<path class="st9" d="M66.8,87.2c2.6-6.7,10.7-10.1,12.8-16.9c0.6-1.7,0.7-3.6,1.4-5.2c1.5-3.5,5-5.5,8.2-7.7
		c4.1-2.8,7.9-6.3,9.4-11c0.9-2.8,1-5.8,2-8.5c1.6-4.3,5.3-7.4,8.9-10.3c3.3-2.7,7.1-5.5,11.4-5.2c5.2,0.3,8.8,5,13.2,7.8
		c5.8,3.8,13.2,4.4,19.8,6.6c7.8,2.6,14.6,7.6,21,12.7c1,0.8,2,1.6,2.7,2.7c1.5,2.3,1,5.4-0.2,7.9c-1.1,2.5-2.9,4.7-4,7.2
		c-1.9,4.3-2,9.1-2.3,13.8c-0.2,3.2-0.7,6.6-2.8,9c-3.8,4.2-11.9,4-13.7,9.4c-0.6,1.9-0.3,3.9-0.7,5.8c-0.9,3.8-4.8,6.4-5.5,10.2
		c-0.4,2.2,0.4,4.6-0.1,6.8c-0.8,3.4-4.3,5.6-7.8,5.9c-3.5,0.3-6.9-0.7-10.3-1.5c-3.4-0.8-7.1-1.4-10.4-0.3
		c-1.9,0.7-3.6,1.9-5.6,2.4c-3,0.7-6.1-0.4-8.6-2.1c-2.5-1.8-4.4-4.1-6.5-6.3c-5.1-5.3-11.1-9.8-17.7-13.1c-5.5-2.8-10.2-3-13.4-9.1
		C66.1,94.8,65.4,90.8,66.8,87.2z"/>
	<path class="st10" d="M112.5,27.4c-4.1,8.1-9.2,16.2-17.2,20.4c-3.2,1.7-7.4,3.6-7.5,7.2c0,0.9,0.3,1.8,0.4,2.8
		c0.3,3.2-1.4,6.2-3.1,8.9c-3.8,5.9-7.9,11.7-12.3,17.3c-0.9,1.2-1.8,2.4-2.1,3.8c-0.4,1.8,0.3,3.7,0.6,5.5c0.3,2.2,0,4.4,0.5,6.5
		c0.8,4.3,4.4,7.6,8,10c3.7,2.4,7.7,4.4,10.7,7.6c2.7,2.9,4.5,6.7,8,8.5c6.3,3.2,14.2-1.9,20.8,0.5c3.9,1.4,6.9,5.3,11,5
		c5.8-0.4,7.7-8.3,12.7-11.2c2.8-1.6,6.4-1.4,9.1-3.3c2.9-2.1,3.7-6,3.9-9.6c0.2-3.6,0.2-7.3,2.1-10.3c1.3-2,3.4-3.5,4.4-5.7
		c0.8-1.8,0.7-3.9,1.4-5.7c1-2.7,3.6-4.6,5-7.2c1.6-3.2,1.2-7.1,2.6-10.4c0.9-2.2,2.6-4.1,3.9-6c2.5-3.6,4.1-7.9,4.5-12.3
		c0.2-2.3,0.2-4.6-0.9-6.6c-1.3-2.4-3.8-3.8-6.1-5.1c-6.8-3.8-13.5-7.5-20.3-11.3c-2.5-1.4-5-2.8-7.7-3.5c-3.7-1-7.7-0.9-11-2.7
		c-4-2.1-7.7-6.8-12.5-4.3C117,18.5,114.6,23.2,112.5,27.4z"/>
	<g>
		<path class="st11" d="M142.4,21.7c8.6,3.6,13.9,5.5,22.5,9c4.4,1.7,13.4,5.6,17.1,8.5c0.3,0.3,1,1.8,1.3,3.2
			c-10.8,13.1-13.6,31.4-23.9,44.9c-9.9,12.9-24.1,44.4-24.6,44.3c-10.4-1.9-30.9-10.2-40.3-15.2c-8.7-4.6-16-11.5-23.1-18.4
			c-0.4-0.4-0.9-0.9-1.1-1.4c-0.4-1.1-3-2.2-1.4-4.6c3.2-4.7,9.6-6.9,13.3-11.2c6.9-7.8,10.1-18.2,16.6-26.4
			c5.7-7.2,14.1-13,16.2-22c0.9-4,5.6-15.4,10.8-16.4C131.6,15,137.3,19.5,142.4,21.7z"/>
		<path class="st12" d="M141.2,18.5c8.6,3.6,13.9,5.5,22.5,9c6.8,2.7,13,6.7,18.3,11.7c-10.8,13.1-13.6,31.4-23.9,44.9
			c-9.9,12.9-24.1,44.4-24.6,44.3c-10.4-1.9-30.9-10.2-40.3-15.2c-8.7-4.6-16-11.5-23.1-18.4c-0.4-0.4-0.9-0.9-1.1-1.4
			c-0.4-1.1,0.1-2.3,0.7-3.2c2.8-4.9,7.6-8.3,11.3-12.5c6.9-7.8,10.1-18.2,16.6-26.4c5.7-7.2,14.1-13,16.2-22
			c0.9-4,5.6-15.4,10.8-16.4C130.4,11.8,136,16.3,141.2,18.5z"/>
		<path class="st13" d="M173.4,32.5c-3-1.9-6.1-3.5-9.4-4.8c-8.6-3.4-14-5.4-22.5-9c-5.1-2.1-10.8-6.7-16.6-5.6
			c-5.2,1-9.9,12.4-10.8,16.4c-2,9-10.5,14.8-16.2,22c-6.5,8.1-9.7,18.6-16.6,26.4c-2.7,3.1-5.9,5.7-8.5,8.7
			c1.3-0.1,2.5-0.3,3.6-0.1c7.3,1.5,14,2.6,21.3-0.1c6.5-2.4,12-7.4,14.4-13.9c2.1-5.6,2-12.5,6.6-16.4c2.4-2.1,5.7-2.8,8.8-3.3
			c3.1-0.5,6.4-0.8,9.3-2.1c2.9-1.4,5.3-4.2,5.3-7.3c0-1.8-0.9-3.5-1-5.4c-0.1-4.2,4.1-7.3,8.3-7.8c4.1-0.4,8.2,1.1,12.2,2.2
			C165.4,33.5,169.8,34.2,173.4,32.5z"/>
		<path class="st14" d="M110.6,109.8c3.4,1.3,5.8,4.1,8.5,6.5c2.7,2.3,6.4,4.3,9.8,3.3c3.5-1.1,5.4-4.9,6-8.5
			c0.6-3.6,0.4-7.4,1.5-10.8c2.6-8.5,12-12.7,17.6-19.5c0.5-0.6,0.9-1.2,1.1-1.9c0.3-1.6-1-3.2-2.6-3.7c-1.6-0.5-3.3-0.3-5-0.2
			c-2.4,0.1-4.7,0-7.1-0.4c-2.1-0.4-4.8-1.6-4.5-3.8c0.1-0.9,0.7-1.6,1.3-2.2c1.8-1.7,4.2-2.8,6.8-3.1c1.8-0.2,3.6,0,5.4-0.2
			c1.8-0.3,3.6-1.2,4.3-2.8c0.9-2.2-0.9-4.8-3.1-5.7c-2.2-0.9-4.7-0.6-7.1-0.3c-5.4,0.7-10.9,1.4-16.3,2.1c-1.2,0.2-2.4,0.3-3.4,1
			c-1.9,1.2-2.4,3.8-2.2,6.1c0.2,2.2,0.8,4.5,0.5,6.7c-0.8,5.2-6.6,8.6-7.1,13.8c-0.2,1.6,0.2,3.3-0.2,4.8c-0.7,2.5-3.3,4-5.9,4.5
			c-4.3,1-15.3,1.5-14.8,8.4C94.5,110.6,106.4,108.2,110.6,109.8z"/>
	</g>
	<g>
		<path class="st15" d="M113.3,78.4c1-0.1,2-0.2,3-0.3c0.3,0,0.5-0.2,0.5-0.5c0-0.2-0.2-0.5-0.5-0.5c-1,0.1-2,0.2-3,0.3
			c-0.3,0-0.5,0.2-0.5,0.5C112.8,78.1,113,78.4,113.3,78.4L113.3,78.4z"/>
	</g>
	<g>
		<path class="st15" d="M113.1,75.6c0.7,0,1.5,0,2.2-0.2c0.3-0.1,0.4-0.4,0.3-0.6c-0.1-0.3-0.3-0.4-0.6-0.3c-0.2,0-0.3,0.1-0.5,0.1
			c0,0-0.1,0-0.1,0c-0.1,0,0.1,0,0,0c-0.1,0-0.2,0-0.3,0c-0.3,0-0.7,0-1,0c-0.3,0-0.5,0.2-0.5,0.5C112.7,75.3,112.9,75.5,113.1,75.6
			L113.1,75.6z"/>
	</g>
	<g>
		<path class="st15" d="M111.1,73.5c0.3-0.7,0.5-1.4,0.8-2.1c0.1-0.2-0.1-0.6-0.3-0.6c-0.3-0.1-0.5,0.1-0.6,0.3
			c-0.3,0.7-0.5,1.4-0.8,2.1c-0.1,0.2,0.1,0.6,0.3,0.6C110.8,73.9,111,73.7,111.1,73.5L111.1,73.5z"/>
	</g>
	<g>
		<path class="st15" d="M112.1,69.9c0.4-0.5,0.7-0.9,1.1-1.4c0.1-0.1,0.1-0.2,0.1-0.4c0-0.1-0.1-0.3-0.1-0.4
			c-0.1-0.1-0.2-0.2-0.4-0.1c-0.1,0-0.3,0-0.4,0.1c-0.4,0.5-0.7,0.9-1.1,1.4c-0.1,0.1-0.1,0.2-0.1,0.4c0,0.1,0.1,0.3,0.1,0.4
			c0.1,0.1,0.2,0.2,0.4,0.1C111.8,70,112,70,112.1,69.9L112.1,69.9z"/>
	</g>
	<g>
		<path class="st15" d="M114.4,70.5c0.5-0.2,1-0.4,1.6-0.6c0.1-0.1,0.2-0.1,0.3-0.2c0.1-0.1,0.1-0.3,0.1-0.4c0-0.1-0.1-0.2-0.2-0.3
			c-0.1-0.1-0.3-0.1-0.4-0.1c-0.5,0.2-1,0.4-1.6,0.6c-0.1,0.1-0.2,0.1-0.3,0.2c-0.1,0.1-0.1,0.3-0.1,0.4c0,0.1,0.1,0.2,0.2,0.3
			C114.1,70.5,114.2,70.5,114.4,70.5L114.4,70.5z"/>
	</g>
	<g>
		<path class="st15" d="M116.4,72.8c0.3-0.3,0.7-0.5,1.1-0.7c0,0,0.1,0,0.1-0.1c0.1,0,0.1,0,0,0c0,0,0.1,0,0.1,0
			c0.1,0,0.2-0.1,0.3-0.1c0.2-0.1,0.4-0.1,0.6-0.2c0.3-0.1,0.4-0.4,0.3-0.6c-0.1-0.3-0.3-0.4-0.6-0.3c-0.9,0.2-1.8,0.6-2.5,1.1
			c-0.2,0.2-0.3,0.4-0.2,0.7C115.8,72.8,116.2,73,116.4,72.8L116.4,72.8z"/>
	</g>
	<g>
		<path class="st15" d="M122.8,72.1c0.4,0.6,0.8,1.3,1.2,1.9c0.1,0.2,0.4,0.3,0.7,0.2c0.2-0.1,0.3-0.4,0.2-0.7
			c-0.4-0.6-0.8-1.3-1.2-1.9c-0.1-0.2-0.4-0.3-0.7-0.2C122.8,71.6,122.7,71.9,122.8,72.1L122.8,72.1z"/>
	</g>
	<g>
		<path class="st15" d="M122.4,79c-0.2,1.6-0.4,3.2-0.6,4.7c0,0.3,0.3,0.5,0.5,0.5c0.3,0,0.5-0.2,0.5-0.5c0.2-1.6,0.4-3.2,0.6-4.7
			c0-0.3-0.3-0.5-0.5-0.5C122.6,78.5,122.5,78.7,122.4,79L122.4,79z"/>
	</g>
	<g>
		<path class="st15" d="M118.8,80.9c0,1,0.2,2,0.7,2.9c0.1,0.2,0.5,0.3,0.7,0.2c0.2-0.2,0.3-0.4,0.2-0.7c-0.1-0.1-0.1-0.2-0.1-0.3
			c0,0,0-0.1,0-0.1c0,0,0,0,0,0c0,0,0-0.1-0.1-0.1c-0.1-0.2-0.1-0.4-0.2-0.6c0-0.1,0-0.2-0.1-0.3c0,0,0-0.1,0-0.1c0-0.1,0-0.1,0,0
			c0,0,0-0.1,0-0.1c0-0.2,0-0.4,0-0.7c0-0.3-0.2-0.5-0.5-0.5C119,80.4,118.8,80.6,118.8,80.9L118.8,80.9z"/>
	</g>
	<g>
		<path class="st15" d="M112.1,85.2c0.8,0.8,1.8,1.4,2.9,1.6c0.3,0.1,0.6-0.1,0.6-0.3c0.1-0.3-0.1-0.5-0.3-0.6
			c-0.2-0.1-0.5-0.1-0.7-0.2c0,0-0.1,0-0.1,0c0,0,0,0,0,0c-0.1,0-0.1-0.1-0.2-0.1c-0.1-0.1-0.2-0.1-0.3-0.2
			c-0.2-0.1-0.4-0.3-0.6-0.4c0,0-0.1,0-0.1-0.1c0,0,0,0,0,0c0,0-0.1-0.1-0.1-0.1c-0.1-0.1-0.2-0.2-0.3-0.3c-0.2-0.2-0.5-0.2-0.7,0
			C112,84.7,111.9,85,112.1,85.2L112.1,85.2z"/>
	</g>
	<g>
		<path class="st15" d="M124.4,89.1c0.9-0.1,1.9-0.2,2.8-0.3c0.3,0,0.5-0.2,0.5-0.5c0-0.2-0.2-0.5-0.5-0.5c-0.9,0.1-1.9,0.2-2.8,0.3
			c-0.3,0-0.5,0.2-0.5,0.5C123.9,88.9,124.1,89.1,124.4,89.1L124.4,89.1z"/>
	</g>
	<g>
		<path class="st15" d="M132.5,86.5c0.5-0.3,0.9-0.8,1-1.4c0-0.1,0-0.3-0.1-0.4c-0.1-0.1-0.2-0.2-0.3-0.2c-0.3-0.1-0.5,0.1-0.6,0.3
			c0,0.1,0,0.1-0.1,0.2c0,0,0-0.1,0.1-0.1c-0.1,0.2-0.2,0.3-0.3,0.4c0,0,0.1-0.1,0.1-0.1c-0.1,0.1-0.2,0.3-0.4,0.4
			c0,0,0.1-0.1,0.1-0.1c0,0-0.1,0.1-0.1,0.1c-0.1,0.1-0.2,0.2-0.2,0.3c0,0.1,0,0.3,0.1,0.4c0.1,0.1,0.2,0.2,0.3,0.2
			C132.2,86.6,132.4,86.6,132.5,86.5L132.5,86.5z"/>
	</g>
	<g>
		<path class="st15" d="M129.1,80.6c0.5-0.5,1-1.2,1.4-1.8c0.1-0.2,0.1-0.6-0.2-0.7c-0.2-0.1-0.5-0.1-0.7,0.2
			c-0.2,0.3-0.4,0.6-0.6,0.9c0,0,0,0,0,0c0,0.1,0,0,0,0c0,0-0.1,0.1-0.1,0.1c-0.1,0.1-0.1,0.1-0.2,0.2c-0.1,0.1-0.2,0.3-0.4,0.4
			c-0.2,0.2-0.2,0.5,0,0.7C128.6,80.8,128.9,80.8,129.1,80.6L129.1,80.6z"/>
	</g>
	<g>
		<path class="st15" d="M129.3,75c0.5-0.2,1.1-0.5,1.6-0.7c0.1,0,0.2-0.2,0.2-0.3c0-0.1,0-0.3-0.1-0.4c-0.1-0.1-0.2-0.2-0.3-0.2
			c-0.1,0-0.3,0-0.4,0.1c-0.5,0.2-1.1,0.5-1.6,0.7c-0.1,0-0.2,0.2-0.2,0.3c0,0.1,0,0.3,0.1,0.4c0.1,0.1,0.2,0.2,0.3,0.2
			C129.1,75.1,129.2,75,129.3,75L129.3,75z"/>
	</g>
	<g>
		<path class="st15" d="M128.4,71.9c0.7-0.1,1.4-0.4,2-0.9c0.1-0.1,0.1-0.2,0.1-0.4c0-0.1-0.1-0.3-0.1-0.4c-0.1-0.1-0.2-0.2-0.4-0.1
			c-0.1,0-0.2,0.1-0.4,0.1c0,0,0,0,0,0c0.1,0,0.1-0.1,0,0c0,0-0.1,0-0.1,0.1c-0.1,0-0.1,0.1-0.2,0.1c-0.1,0.1-0.3,0.1-0.4,0.2
			c0,0,0,0,0.1,0c0,0,0,0-0.1,0c0,0-0.1,0-0.1,0c-0.1,0-0.2,0.1-0.2,0.1c-0.2,0-0.3,0.1-0.5,0.1c-0.1,0-0.2,0.1-0.3,0.2
			c-0.1,0.1-0.1,0.3-0.1,0.4c0,0.1,0.1,0.2,0.2,0.3C128.2,71.9,128.3,71.9,128.4,71.9L128.4,71.9z"/>
	</g>
	<g>
		<path class="st15" d="M124.6,69.2c0.8-0.2,1.6-0.5,2.3-1c0.2-0.1,0.3-0.5,0.2-0.7c-0.1-0.2-0.4-0.3-0.7-0.2
			c-0.2,0.1-0.3,0.2-0.5,0.3c-0.1,0-0.2,0.1-0.3,0.1c0,0-0.1,0-0.1,0c0,0,0,0-0.1,0c0.1,0,0.1,0,0,0c-0.4,0.1-0.7,0.3-1.1,0.3
			c-0.3,0.1-0.4,0.4-0.3,0.6C124.1,69.1,124.4,69.3,124.6,69.2L124.6,69.2z"/>
	</g>
	<g>
		<path class="st15" d="M121.2,67.9c0.2-0.5,0.4-1.1,0.6-1.6c0-0.1,0-0.3-0.1-0.4c-0.1-0.1-0.2-0.2-0.3-0.2c-0.1,0-0.3,0-0.4,0.1
			c-0.1,0.1-0.2,0.2-0.2,0.3c-0.2,0.5-0.4,1.1-0.6,1.6c0,0.1,0,0.3,0.1,0.4c0.1,0.1,0.2,0.2,0.3,0.2c0.1,0,0.3,0,0.4-0.1
			C121.1,68.1,121.1,68.1,121.2,67.9L121.2,67.9z"/>
	</g>
	<g>
		<path class="st15" d="M118.6,64.1c0-0.2,0.1-0.3,0.1-0.5c0-0.1,0.1-0.2,0.1-0.2c0,0,0-0.1,0-0.1c0-0.1,0,0.1,0,0
			c0.1-0.3,0.3-0.6,0.5-0.9c0.1-0.1,0.1-0.3,0.1-0.4c0-0.1-0.1-0.2-0.2-0.3c-0.1-0.1-0.3-0.1-0.4-0.1c-0.1,0-0.2,0.1-0.3,0.2
			c-0.4,0.6-0.7,1.3-0.9,2c0,0.3,0.1,0.6,0.3,0.6C118.3,64.5,118.6,64.4,118.6,64.1L118.6,64.1z"/>
	</g>
	<g>
		<path class="st15" d="M112.2,63.3c0.3-0.4,0.6-0.7,0.9-1.1c0.1-0.1,0.1-0.2,0.1-0.4c0-0.1-0.1-0.3-0.1-0.4
			c-0.1-0.1-0.2-0.2-0.4-0.1c-0.1,0-0.3,0-0.4,0.1c-0.3,0.4-0.6,0.7-0.9,1.1c-0.1,0.1-0.1,0.2-0.1,0.4c0,0.1,0.1,0.3,0.1,0.4
			c0.1,0.1,0.2,0.2,0.4,0.1C112,63.4,112.2,63.4,112.2,63.3L112.2,63.3z"/>
	</g>
	<g>
		<path class="st15" d="M104.9,62.1c0,0,0-0.1,0-0.1C104.9,62,104.9,62.1,104.9,62.1c0.1-0.2,0.2-0.4,0.3-0.6c0,0-0.1,0.1-0.1,0.1
			c0.1-0.2,0.3-0.3,0.5-0.5c0,0-0.1,0.1-0.1,0.1c0,0,0.1-0.1,0.1-0.1c0.1-0.1,0.2-0.2,0.2-0.3c0-0.1,0-0.3-0.1-0.4
			c-0.1-0.1-0.2-0.2-0.3-0.2c-0.1,0-0.3,0-0.4,0.1c-0.3,0.2-0.5,0.4-0.7,0.6c-0.1,0.1-0.2,0.3-0.3,0.4c-0.1,0.2-0.2,0.3-0.2,0.5
			c0,0.1,0,0.3,0.1,0.4c0.1,0.1,0.2,0.2,0.3,0.2c0.1,0,0.3,0,0.4-0.1C104.8,62.3,104.9,62.2,104.9,62.1L104.9,62.1z"/>
	</g>
	<g>
		<path class="st15" d="M101.6,71.3c0.2,1.7,0.1,3.4-0.5,5.1c-0.2,0.6,0.8,0.9,1,0.3c0.6-1.7,0.8-3.6,0.5-5.4c0-0.3-0.2-0.5-0.5-0.5
			C101.9,70.8,101.6,71,101.6,71.3L101.6,71.3z"/>
	</g>
	<g>
		<path class="st15" d="M104.9,82.7c0.7,0.8,1.3,1.6,2,2.4c0.2,0.2,0.5,0.2,0.7,0c0.2-0.2,0.2-0.5,0-0.7c-0.7-0.8-1.3-1.6-2-2.4
			c-0.2-0.2-0.5-0.2-0.7,0C104.7,82.2,104.7,82.5,104.9,82.7L104.9,82.7z"/>
	</g>
	<g>
		<path class="st15" d="M109.6,79.4c0.2,0.2,0.3,0.3,0.5,0.5c0,0,0.1,0.1,0.2,0.1c0.1,0,0.1,0,0.2,0c0.1,0,0.1,0,0.2,0
			c0.1,0,0.1-0.1,0.2-0.1c0,0,0.1-0.1,0.1-0.1c0-0.1,0.1-0.2,0.1-0.3c0,0,0-0.1,0-0.1c0-0.1-0.1-0.2-0.1-0.2
			c-0.2-0.2-0.3-0.3-0.5-0.5c0,0-0.1-0.1-0.2-0.1c-0.1,0-0.1,0-0.2,0c-0.1,0-0.1,0-0.2,0c-0.1,0-0.1,0.1-0.2,0.1
			c0,0-0.1,0.1-0.1,0.1c0,0.1-0.1,0.2-0.1,0.3c0,0,0,0.1,0,0.1C109.5,79.2,109.6,79.3,109.6,79.4L109.6,79.4z"/>
	</g>
	<g>
		<path class="st15" d="M107.5,71.5c0.2-0.2,0.4-0.4,0.6-0.6c0.1-0.1,0.1-0.2,0.1-0.4c0-0.1,0-0.1,0-0.2c0-0.1-0.1-0.1-0.1-0.2
			c-0.1-0.1-0.2-0.2-0.4-0.1c-0.1,0-0.3,0.1-0.4,0.1c-0.2,0.2-0.4,0.4-0.6,0.6c-0.1,0.1-0.1,0.2-0.1,0.4c0,0.1,0,0.1,0,0.2
			c0,0.1,0.1,0.1,0.1,0.2c0.1,0.1,0.2,0.2,0.4,0.1C107.3,71.6,107.4,71.6,107.5,71.5L107.5,71.5z"/>
	</g>
	<g>
		<path class="st15" d="M108.4,67c0.3-0.3,0.6-0.6,0.9-0.9c0.1-0.1,0.1-0.2,0.1-0.4c0-0.1-0.1-0.3-0.1-0.4c-0.1-0.1-0.2-0.2-0.4-0.1
			c-0.1,0-0.3,0.1-0.4,0.1c-0.3,0.3-0.6,0.6-0.9,0.9c-0.1,0.1-0.1,0.2-0.1,0.4c0,0.1,0.1,0.3,0.1,0.4c0.1,0.1,0.2,0.2,0.4,0.1
			C108.2,67.2,108.4,67.1,108.4,67L108.4,67z"/>
	</g>
	<g>
		<path class="st15" d="M121.6,54.4c0.8-0.1,1.5-0.4,2.2-0.8c0.2-0.1,0.3-0.5,0.2-0.7c-0.1-0.2-0.4-0.3-0.7-0.2
			c-0.2,0.1-0.3,0.2-0.5,0.3c-0.1,0-0.2,0.1-0.3,0.1c-0.1,0,0.1,0,0,0c0,0-0.1,0-0.1,0.1c-0.3,0.1-0.7,0.2-1.1,0.3
			c-0.3,0-0.4,0.4-0.3,0.6C121.1,54.3,121.4,54.4,121.6,54.4L121.6,54.4z"/>
	</g>
	<g>
		<path class="st15" d="M116.7,49.3c0.5-0.2,1-0.4,1.4-0.6c0.1-0.1,0.2-0.1,0.3-0.2c0.1-0.1,0.1-0.3,0.1-0.4c0-0.1-0.1-0.2-0.2-0.3
			c-0.1-0.1-0.3-0.1-0.4-0.1c-0.5,0.2-1,0.4-1.4,0.6c-0.1,0.1-0.2,0.1-0.3,0.2c-0.1,0.1-0.1,0.3-0.1,0.4c0,0.1,0.1,0.2,0.2,0.3
			C116.5,49.3,116.6,49.4,116.7,49.3L116.7,49.3z"/>
	</g>
	<g>
		<path class="st15" d="M128.1,47.1c0.6,0,0.6-1,0-1C127.5,46.1,127.5,47.1,128.1,47.1L128.1,47.1z"/>
	</g>
	<g>
		<path class="st15" d="M136.8,47.8c0.3,0.2,0.6,0.4,0.9,0.6c0.1,0.1,0.3,0.1,0.4,0.1c0.1,0,0.2-0.1,0.3-0.2
			c0.1-0.1,0.1-0.3,0.1-0.4c0-0.1-0.1-0.2-0.2-0.3c-0.3-0.2-0.6-0.4-0.9-0.6c-0.1-0.1-0.3-0.1-0.4-0.1c-0.1,0-0.2,0.1-0.3,0.2
			c-0.1,0.1-0.1,0.3-0.1,0.4C136.6,47.7,136.6,47.8,136.8,47.8L136.8,47.8z"/>
	</g>
	<g>
		<path class="st15" d="M133.9,56.8c0.1,0.2,0.2,0.4,0.3,0.6c0,0.1,0,0.1,0,0c0,0,0,0.1,0,0.1c0,0,0,0.1,0.1,0.1
			c0,0.1,0.1,0.2,0.1,0.3c0.2,0.4,0.3,0.9,0.4,1.4c0.1,0.3,0.4,0.4,0.6,0.3c0.3-0.1,0.4-0.3,0.3-0.6c-0.2-1-0.5-1.9-1-2.8
			c-0.1-0.2-0.5-0.3-0.7-0.2C133.8,56.3,133.7,56.6,133.9,56.8L133.9,56.8z"/>
	</g>
	<g>
		<path class="st15" d="M127.2,57.5c0.1,0.6,0.2,1.3,0.4,1.9c0.1,0.3,0.4,0.4,0.6,0.3c0.3-0.1,0.4-0.3,0.3-0.6
			c-0.1-0.6-0.2-1.3-0.4-1.9c-0.1-0.3-0.4-0.4-0.6-0.3C127.3,57,127.1,57.2,127.2,57.5L127.2,57.5z"/>
	</g>
	<g>
		<path class="st15" d="M126.9,63.2c0.8,0.4,1.6,0.6,2.5,0.7c0.1,0,0.3-0.1,0.4-0.1c0.1-0.1,0.2-0.2,0.1-0.4c0-0.1,0-0.3-0.1-0.4
			c-0.1-0.1-0.2-0.1-0.4-0.1c0.1,0,0,0-0.1,0c0,0-0.1,0-0.1,0c-0.1,0-0.2,0-0.3-0.1c-0.2,0-0.4-0.1-0.5-0.1
			c-0.2-0.1-0.3-0.1-0.5-0.2c0,0-0.1,0-0.1,0c0,0-0.1,0-0.1,0c0.1,0,0.1,0,0,0c-0.1,0-0.2-0.1-0.3-0.1c-0.2-0.1-0.5-0.1-0.7,0.2
			C126.6,62.7,126.7,63.1,126.9,63.2L126.9,63.2z"/>
	</g>
	<g>
		<path class="st15" d="M132.1,66.8c0.1,0.1,0.1,0.2,0.1,0.3c0,0,0-0.1-0.1-0.1c0.1,0.2,0.1,0.4,0.2,0.6c0,0,0-0.1,0-0.1
			c0,0.2,0,0.4,0,0.5c0,0.1,0.1,0.3,0.1,0.4c0.1,0.1,0.2,0.2,0.4,0.1c0.1,0,0.3,0,0.4-0.1c0.1-0.1,0.1-0.2,0.1-0.4
			c0.1-0.6-0.1-1.2-0.4-1.7c-0.1-0.2-0.5-0.3-0.7-0.2C132.1,66.3,132,66.5,132.1,66.8L132.1,66.8z"/>
	</g>
	<g>
		<path class="st15" d="M132.1,70.5c0.2,0,0.4-0.1,0.5-0.1c0,0,0.1,0,0,0c0,0,0.1,0,0.1,0c0.1,0,0.2,0,0.3,0c0.2,0,0.4,0,0.5,0
			c0.1,0,0.2,0,0.3,0c0,0,0.1,0,0.1,0c0.1,0,0.1,0,0,0c0,0,0.1,0,0.1,0c0.1,0,0.3,0,0.4-0.1c0.1-0.1,0.2-0.2,0.2-0.3
			c0.1-0.2-0.1-0.6-0.3-0.6c-0.8-0.1-1.7-0.1-2.5,0.1c-0.3,0.1-0.4,0.4-0.3,0.6C131.5,70.4,131.8,70.6,132.1,70.5L132.1,70.5z"/>
	</g>
	<g>
		<path class="st15" d="M134.7,64.8c0.5-0.1,0.9-0.2,1.4-0.3c0.3-0.1,0.4-0.4,0.3-0.6c-0.1-0.3-0.3-0.4-0.6-0.3
			c-0.5,0.1-0.9,0.2-1.4,0.3c-0.3,0.1-0.4,0.4-0.3,0.6C134.2,64.7,134.5,64.9,134.7,64.8L134.7,64.8z"/>
	</g>
	<g>
		<path class="st15" d="M141.6,61.2c0.2,0,0.4,0,0.5,0c0,0-0.1,0-0.1,0c0.1,0,0.2,0,0.3,0.1c0.1,0,0.1,0,0.2,0.1c0,0,0.1,0.1,0,0
			c0,0,0.1,0,0.1,0c0.1,0,0.2,0.1,0.3,0.2c0,0,0,0,0.1,0c0,0-0.1-0.1,0,0c0,0,0.1,0.1,0.1,0.1c0.2,0.2,0.5,0.2,0.7,0
			c0.2-0.2,0.2-0.5,0-0.7c-0.5-0.5-1.3-0.8-2.1-0.7c-0.1,0-0.3,0-0.4,0.1c-0.1,0.1-0.2,0.2-0.1,0.4c0,0.1,0,0.3,0.1,0.4
			C141.3,61.2,141.4,61.2,141.6,61.2L141.6,61.2z"/>
	</g>
	<g>
		<path class="st15" d="M144.1,55c0.2,0.6,0.5,1.2,0.9,1.6c0.2,0.2,0.5,0.2,0.7,0c0.2-0.2,0.2-0.5,0-0.7c-0.1-0.1-0.1-0.2-0.2-0.2
			c0,0,0.1,0.1,0.1,0.1c-0.2-0.2-0.3-0.5-0.4-0.8c0,0,0,0.1,0.1,0.1c-0.1-0.1-0.1-0.3-0.1-0.4c-0.1-0.3-0.4-0.4-0.6-0.3
			C144.2,54.5,144,54.7,144.1,55L144.1,55z"/>
	</g>
	<g>
		<path class="st15" d="M146.8,64.8c-0.1,1.1-0.1,2.2-0.2,3.3c0,0.3,0.2,0.5,0.5,0.5c0.3,0,0.5-0.2,0.5-0.5c0.1-1.1,0.1-2.2,0.2-3.3
			c0-0.3-0.2-0.5-0.5-0.5C147,64.3,146.8,64.5,146.8,64.8L146.8,64.8z"/>
	</g>
	<g>
		<path class="st15" d="M144.4,74.2c-0.5,0.6-1.1,1.3-1.6,1.9c-0.1,0.1-0.1,0.2-0.1,0.4c0,0.1,0.1,0.3,0.1,0.4
			c0.2,0.2,0.5,0.2,0.7,0c0.5-0.6,1.1-1.3,1.6-1.9c0.1-0.1,0.1-0.2,0.1-0.4c0-0.1-0.1-0.3-0.1-0.4C144.9,74.1,144.6,74,144.4,74.2
			L144.4,74.2z"/>
	</g>
	<g>
		<path class="st15" d="M137.6,76.7c0.3-0.4,0.6-0.7,1-1.1c0.1-0.1,0.1-0.2,0.1-0.4c0-0.1-0.1-0.3-0.1-0.4c-0.1-0.1-0.2-0.2-0.4-0.1
			c-0.1,0-0.3,0-0.4,0.1c-0.3,0.4-0.6,0.7-1,1.1c-0.1,0.1-0.1,0.2-0.1,0.4c0,0.1,0.1,0.3,0.1,0.4c0.1,0.1,0.2,0.2,0.4,0.1
			C137.4,76.8,137.5,76.8,137.6,76.7L137.6,76.7z"/>
	</g>
	<g>
		<path class="st15" d="M139.6,70.3c0.5-0.2,1-0.4,1.4-0.6c0.1-0.1,0.2-0.1,0.3-0.2c0.1-0.1,0.1-0.3,0.1-0.4c0-0.1-0.1-0.2-0.2-0.3
			c-0.1-0.1-0.3-0.1-0.4-0.1c-0.5,0.2-1,0.4-1.4,0.6c-0.1,0.1-0.2,0.1-0.3,0.2c-0.1,0.1-0.1,0.3-0.1,0.4c0,0.1,0.1,0.2,0.2,0.3
			C139.4,70.3,139.5,70.4,139.6,70.3L139.6,70.3z"/>
	</g>
	<g>
		<path class="st15" d="M133.5,77.8c0.5,0,0.9,0,1.4,0c0.3,0,0.5-0.2,0.5-0.5c0-0.3-0.2-0.5-0.5-0.5c-0.5,0-0.9,0-1.4,0
			c-0.3,0-0.5,0.2-0.5,0.5C133,77.5,133.2,77.8,133.5,77.8L133.5,77.8z"/>
	</g>
	<g>
		<path class="st15" d="M135.6,81.7c0.7,0.1,1.4,0.2,2,0.4c0.3,0,0.6-0.1,0.6-0.3c0.1-0.2-0.1-0.6-0.3-0.6c-0.7-0.1-1.4-0.2-2-0.4
			c-0.3,0-0.6,0.1-0.6,0.3C135.2,81.3,135.3,81.6,135.6,81.7L135.6,81.7z"/>
	</g>
	<g>
		<path class="st15" d="M124.9,65.1c0.5-0.5,0.9-0.9,1.4-1.4c0.2-0.2,0.2-0.5,0-0.7c-0.2-0.2-0.5-0.2-0.7,0
			c-0.5,0.5-0.9,0.9-1.4,1.4c-0.2,0.2-0.2,0.5,0,0.7C124.3,65.3,124.7,65.3,124.9,65.1L124.9,65.1z"/>
	</g>
	<g>
		<path class="st15" d="M122.2,61.8c0.6-0.3,1.2-0.5,1.7-0.8c0.1,0,0.2-0.2,0.2-0.3c0-0.1,0-0.3-0.1-0.4c-0.1-0.1-0.2-0.2-0.3-0.2
			c-0.1,0-0.3,0-0.4,0.1c-0.6,0.3-1.2,0.5-1.7,0.8c-0.1,0-0.2,0.2-0.2,0.3c0,0.1,0,0.3,0.1,0.4c0.1,0.1,0.2,0.2,0.3,0.2
			C122,61.8,122.1,61.8,122.2,61.8L122.2,61.8z"/>
	</g>
	<g>
		<path class="st15" d="M119.6,59.2c0.8-0.4,1.7-0.7,2.5-1.1c0.2-0.1,0.3-0.5,0.2-0.7c-0.2-0.3-0.4-0.3-0.7-0.2
			c-0.8,0.4-1.7,0.7-2.5,1.1c-0.2,0.1-0.3,0.5-0.2,0.7C119,59.3,119.3,59.3,119.6,59.2L119.6,59.2z"/>
	</g>
	<g>
		<path class="st15" d="M114.6,58.6c0.3-0.9,0.6-1.9,0.9-2.8c0.1-0.2-0.1-0.6-0.3-0.6c-0.3-0.1-0.5,0.1-0.6,0.3
			c-0.3,0.9-0.6,1.9-0.9,2.8c-0.1,0.2,0.1,0.6,0.3,0.6C114.2,59,114.5,58.9,114.6,58.6L114.6,58.6z"/>
	</g>
	<g>
		<path class="st15" d="M116.9,62c0-0.2-0.1-0.3-0.1-0.5c0,0,0-0.1,0-0.1c0-0.1,0,0.1,0,0c0-0.1,0-0.2,0-0.2c0-0.3,0-0.6,0-0.9
			c0-0.1-0.1-0.3-0.1-0.4c-0.1-0.1-0.2-0.2-0.4-0.1c-0.1,0-0.3,0-0.4,0.1c-0.1,0.1-0.1,0.2-0.1,0.4c-0.1,0.7,0,1.4,0.2,2
			c0.1,0.3,0.4,0.4,0.6,0.3C116.8,62.5,117,62.3,116.9,62L116.9,62z"/>
	</g>
	<g>
		<path class="st15" d="M117.2,55.9c0.7-0.3,1.4-0.7,2.1-1c0.2-0.1,0.3-0.5,0.2-0.7c-0.2-0.2-0.4-0.3-0.7-0.2
			c-0.7,0.3-1.4,0.7-2.1,1c-0.2,0.1-0.3,0.5-0.2,0.7C116.6,56,116.9,56,117.2,55.9L117.2,55.9z"/>
	</g>
	<g>
		<path class="st15" d="M118,51.8c0.8-0.2,1.7-0.4,2.5-0.6c0.3-0.1,0.4-0.4,0.3-0.6c-0.1-0.3-0.3-0.4-0.6-0.3
			c-0.8,0.2-1.7,0.4-2.5,0.6c-0.3,0.1-0.4,0.4-0.3,0.6C117.5,51.8,117.7,51.9,118,51.8L118,51.8z"/>
	</g>
	<g>
		<path class="st15" d="M125.1,49.4c0.2,0.1,0.3,0.3,0.4,0.5c0,0,0.1,0.1,0.1,0.1c0,0-0.1-0.1,0,0c0,0,0,0,0.1,0.1
			c0.1,0.1,0.1,0.2,0.2,0.3c0.1,0.2,0.2,0.4,0.3,0.6c0,0,0,0,0,0.1c0,0,0,0.1,0,0c0-0.1,0,0,0,0c0,0,0,0,0,0.1
			c0,0.1,0.1,0.2,0.1,0.3c0.1,0.2,0.4,0.4,0.6,0.3c0.3-0.1,0.4-0.3,0.3-0.6c-0.3-0.9-0.8-1.8-1.5-2.4c-0.2-0.2-0.5-0.2-0.7,0
			C124.9,48.8,124.9,49.2,125.1,49.4L125.1,49.4z"/>
	</g>
	<g>
		<path class="st15" d="M128.1,54.2c-0.3,1-0.5,2-0.8,3c-0.1,0.3,0.1,0.6,0.3,0.6c0.3,0.1,0.5-0.1,0.6-0.3c0.3-1,0.5-2,0.8-3
			c0.1-0.3-0.1-0.6-0.3-0.6C128.5,53.8,128.2,54,128.1,54.2L128.1,54.2z"/>
	</g>
	<g>
		<path class="st15" d="M127,54.9c1-0.2,2-0.4,3-0.5c0.3,0,0.5-0.2,0.5-0.5c0-0.2-0.2-0.5-0.5-0.5c-1.1,0.1-2.2,0.3-3.3,0.5
			c-0.3,0.1-0.4,0.4-0.3,0.6C126.5,54.9,126.7,55,127,54.9L127,54.9z"/>
	</g>
	<g>
		<path class="st15" d="M134.3,55.5c0.7-0.1,1.4-0.2,2.1-0.3c0.1,0,0.2-0.1,0.3-0.2c0.1-0.1,0.1-0.3,0.1-0.4c0-0.1-0.1-0.2-0.2-0.3
			c-0.1-0.1-0.2-0.1-0.4-0.1c-0.7,0.1-1.4,0.2-2.1,0.3c-0.1,0-0.2,0.1-0.3,0.2c-0.1,0.1-0.1,0.3-0.1,0.4c0,0.1,0.1,0.2,0.2,0.3
			C134,55.5,134.1,55.5,134.3,55.5L134.3,55.5z"/>
	</g>
	<g>
		<path class="st15" d="M132.3,50.4c0.5,0.2,0.9,0.3,1.4,0.5c0.2,0.1,0.6-0.1,0.6-0.3c0.1-0.3-0.1-0.5-0.3-0.6
			c-0.5-0.2-0.9-0.3-1.4-0.5c-0.2-0.1-0.6,0.1-0.6,0.3C131.9,50.1,132,50.3,132.3,50.4L132.3,50.4z"/>
	</g>
	<g>
		<path class="st15" d="M138.7,52.8c0.1,0.5,0.1,1.1,0.2,1.6c0,0.1,0,0.3,0.1,0.4c0.1,0.1,0.2,0.2,0.4,0.1c0.2,0,0.5-0.2,0.5-0.5
			c-0.1-0.5-0.1-1.1-0.2-1.6c0-0.1,0-0.3-0.1-0.4c-0.1-0.1-0.2-0.2-0.4-0.1C138.9,52.3,138.6,52.5,138.7,52.8L138.7,52.8z"/>
	</g>
	<g>
		<path class="st15" d="M140,56.3c-0.2,0.5-0.3,0.9-0.5,1.4c-0.1,0.2,0.1,0.6,0.3,0.6c0.3,0.1,0.5-0.1,0.6-0.3
			c0.2-0.5,0.3-0.9,0.5-1.4c0.1-0.2-0.1-0.6-0.3-0.6C140.3,55.9,140.1,56,140,56.3L140,56.3z"/>
	</g>
	<g>
		<path class="st15" d="M137.8,61.3c0.2,0.6,0.4,1.2,0.6,1.7c0.1,0.2,0.3,0.4,0.6,0.3c0.2-0.1,0.4-0.4,0.3-0.6
			c-0.2-0.6-0.4-1.2-0.6-1.7c-0.1-0.2-0.3-0.4-0.6-0.3C137.9,60.8,137.7,61,137.8,61.3L137.8,61.3z"/>
	</g>
	<g>
		<path class="st15" d="M139.2,66.5c0,0.8,0,1.6,0,2.4c0,0.3,0.2,0.5,0.5,0.5c0.3,0,0.5-0.2,0.5-0.5c0-0.8,0-1.6,0-2.4
			c0-0.3-0.2-0.5-0.5-0.5C139.4,66,139.2,66.3,139.2,66.5L139.2,66.5z"/>
	</g>
	<g>
		<path class="st15" d="M137,66.6c0.3,0.4,0.5,0.8,0.8,1.1c0.1,0.1,0.2,0.2,0.3,0.2c0.1,0,0.3,0,0.4-0.1c0.1-0.1,0.2-0.2,0.2-0.3
			c0-0.1,0-0.3-0.1-0.4c-0.3-0.4-0.5-0.8-0.8-1.1c-0.1-0.1-0.2-0.2-0.3-0.2c-0.1,0-0.3,0-0.4,0.1c-0.1,0.1-0.2,0.2-0.2,0.3
			C137,66.4,137,66.5,137,66.6L137,66.6z"/>
	</g>
	<g>
		<path class="st15" d="M137.1,71.6c0.3,0,0.6,0,0.9,0c0.1,0,0.3-0.1,0.4-0.1c0.1-0.1,0.2-0.2,0.1-0.4c0-0.1,0-0.3-0.1-0.4
			c-0.1-0.1-0.2-0.1-0.4-0.1c-0.3,0-0.6,0-0.9,0c-0.1,0-0.3,0.1-0.4,0.1c-0.1,0.1-0.2,0.2-0.1,0.4c0,0.1,0,0.3,0.1,0.4
			C136.9,71.6,137,71.6,137.1,71.6L137.1,71.6z"/>
	</g>
	<g>
		<path class="st15" d="M132.7,76c0.6-0.1,1.2-0.2,1.7-0.3c0.1,0,0.2-0.1,0.3-0.2c0.1-0.1,0.1-0.3,0.1-0.4c-0.1-0.3-0.3-0.4-0.6-0.3
			c-0.6,0.1-1.2,0.2-1.7,0.3c-0.1,0-0.2,0.1-0.3,0.2c-0.1,0.1-0.1,0.3-0.1,0.4C132.2,75.9,132.4,76.1,132.7,76L132.7,76z"/>
	</g>
	<g>
		<path class="st15" d="M124.4,77.6c0.8,0.2,1.6,0.2,2.3,0.1c0.1,0,0.3,0,0.4-0.1c0.1-0.1,0.2-0.2,0.1-0.4c0-0.2-0.2-0.5-0.5-0.5
			c-0.4,0-0.7,0-1.1,0c-0.1,0-0.2,0-0.3,0c0,0-0.1,0-0.1,0c0,0-0.2,0-0.1,0c-0.2,0-0.4-0.1-0.5-0.1c-0.3-0.1-0.6,0.1-0.6,0.3
			C124,77.3,124.1,77.6,124.4,77.6L124.4,77.6z"/>
	</g>
	<g>
		<path class="st15" d="M119.1,77.6c1.2,0,2.4-0.2,3.6-0.6c0.3-0.1,0.4-0.3,0.3-0.6c-0.1-0.2-0.4-0.4-0.6-0.3
			c-1.1,0.4-2.2,0.5-3.3,0.5c-0.3,0-0.5,0.2-0.5,0.5C118.6,77.4,118.9,77.6,119.1,77.6L119.1,77.6z"/>
	</g>
	<g>
		<path class="st15" d="M126.2,81.5c0.5,0.3,1.1,0.6,1.7,0.7c0.1,0,0.3,0,0.4-0.1c0.1-0.1,0.2-0.2,0.2-0.3c0.1-0.2-0.1-0.6-0.3-0.6
			c-0.3-0.1-0.6-0.1-0.9-0.3c0,0,0.1,0,0.1,0.1c-0.2-0.1-0.5-0.2-0.7-0.4c-0.2-0.1-0.6,0-0.7,0.2C125.8,81.1,125.9,81.3,126.2,81.5
			L126.2,81.5z"/>
	</g>
	<g>
		<path class="st15" d="M127,83.8c0.7-0.2,1.4-0.3,2-0.5c0.3-0.1,0.4-0.4,0.3-0.6c-0.1-0.3-0.3-0.4-0.6-0.3c-0.7,0.2-1.4,0.3-2,0.5
			c-0.3,0.1-0.4,0.4-0.3,0.6C126.5,83.7,126.8,83.9,127,83.8L127,83.8z"/>
	</g>
	<g>
		<path class="st15" d="M133.7,80.2c0.5-0.5,1-1,1.5-1.5c0.2-0.2,0.2-0.5,0-0.7c-0.2-0.2-0.5-0.2-0.7,0c-0.5,0.5-1,1-1.5,1.5
			c-0.2,0.2-0.2,0.5,0,0.7C133.2,80.4,133.5,80.4,133.7,80.2L133.7,80.2z"/>
	</g>
	<g>
		<path class="st15" d="M139.9,83.4c0.5-0.4,1-0.7,1.5-1.1c0.1-0.1,0.2-0.2,0.2-0.3c0-0.1,0-0.3-0.1-0.4c-0.1-0.1-0.2-0.2-0.3-0.2
			c-0.1,0-0.3,0-0.4,0.1c-0.5,0.4-1,0.7-1.5,1.1c-0.1,0.1-0.2,0.2-0.2,0.3c0,0.1,0,0.3,0.1,0.4c0.1,0.1,0.2,0.2,0.3,0.2
			C139.6,83.4,139.8,83.4,139.9,83.4L139.9,83.4z"/>
	</g>
	<g>
		<path class="st15" d="M133.1,94C133.1,94,133.2,93.9,133.1,94C133.1,94,133.1,94,133.1,94c0.1,0,0.3-0.1,0.4-0.1c0,0-0.1,0-0.1,0
			c0.2,0,0.3,0,0.5,0c0,0-0.1,0-0.1,0c0,0,0,0,0,0c0.1,0,0.1,0,0.2,0c0.1,0,0.1,0,0.2-0.1c0.1-0.1,0.2-0.2,0.2-0.3
			c0-0.1,0-0.3-0.1-0.4c-0.1-0.1-0.2-0.2-0.3-0.2c-0.1,0-0.3,0-0.4,0c-0.1,0-0.3,0-0.4,0c-0.2,0-0.5,0.1-0.7,0.2
			c-0.1,0-0.2,0.2-0.2,0.3c0,0.1,0,0.3,0.1,0.4c0.1,0.1,0.2,0.2,0.3,0.2c0,0,0.1,0,0.1,0C133,94,133.1,94,133.1,94L133.1,94z"/>
	</g>
	<g>
		<path class="st15" d="M146,84.7c0.6-0.6,1.2-1.3,1.7-1.9c0.2-0.2,0.2-0.5,0-0.7c-0.2-0.2-0.5-0.2-0.7,0c-0.6,0.6-1.2,1.3-1.7,1.9
			c-0.2,0.2-0.2,0.5,0,0.7C145.5,84.9,145.8,85,146,84.7L146,84.7z"/>
	</g>
	<g>
		<path class="st15" d="M152.2,74.5c0.3-0.5,0.6-1,0.8-1.6c0.1-0.2,0.1-0.6-0.2-0.7c-0.2-0.1-0.6-0.1-0.7,0.2
			c-0.3,0.5-0.6,1-0.8,1.6c-0.1,0.2-0.1,0.6,0.2,0.7C151.8,74.8,152.1,74.8,152.2,74.5L152.2,74.5z"/>
	</g>
	<g>
		<path class="st15" d="M155.2,67.2c0.1-0.4,0.1-0.8,0.2-1.3c0-0.1-0.1-0.3-0.1-0.4c-0.1-0.1-0.2-0.2-0.4-0.1c-0.1,0-0.3,0-0.4,0.1
			c0,0-0.1,0.1-0.1,0.1c0,0.1-0.1,0.2-0.1,0.3c-0.1,0.4-0.1,0.8-0.2,1.3c0,0.1,0.1,0.3,0.1,0.4c0.1,0.1,0.2,0.2,0.4,0.1
			c0.1,0,0.3,0,0.4-0.1c0,0,0.1-0.1,0.1-0.1C155.1,67.3,155.2,67.3,155.2,67.2L155.2,67.2z"/>
	</g>
	<g>
		<path class="st15" d="M147.4,48.2c0.1-0.1,0.1-0.2,0.2-0.3c0-0.1,0.1-0.1,0.1-0.2c0-0.1,0-0.1,0-0.2c0-0.1,0-0.1-0.1-0.2
			c0-0.1-0.1-0.1-0.1-0.1c0,0-0.1,0-0.1-0.1c-0.1,0-0.2,0-0.3,0c0,0-0.1,0-0.1,0.1c-0.1,0-0.1,0.1-0.2,0.2c-0.1,0.1-0.1,0.2-0.2,0.3
			c0,0.1-0.1,0.1-0.1,0.2c0,0.1,0,0.1,0,0.2c0,0.1,0,0.1,0.1,0.2c0,0.1,0.1,0.1,0.1,0.1c0,0,0.1,0,0.1,0.1c0.1,0,0.2,0,0.3,0
			c0,0,0.1,0,0.1-0.1C147.3,48.3,147.3,48.2,147.4,48.2L147.4,48.2z"/>
	</g>
	<g>
		<path class="st15" d="M132.4,43.7c0.2,0,0.4,0,0.6,0c0.1,0,0.3-0.1,0.4-0.1c0,0,0.1-0.1,0.1-0.2c0-0.1,0-0.1,0-0.2
			c0-0.1,0-0.3-0.1-0.4c-0.1-0.1-0.2-0.1-0.4-0.1c-0.2,0-0.4,0-0.6,0c-0.1,0-0.3,0.1-0.4,0.1c0,0-0.1,0.1-0.1,0.2c0,0.1,0,0.1,0,0.2
			c0,0.1,0,0.3,0.1,0.4C132.2,43.6,132.3,43.7,132.4,43.7L132.4,43.7z"/>
	</g>
	<g>
		<path class="st15" d="M105.8,54.8c0.2-0.3,0.3-0.5,0.5-0.8c0.1-0.1,0.1-0.3,0.1-0.4c0-0.1-0.1-0.2-0.2-0.3
			c-0.1-0.1-0.3-0.1-0.4-0.1c-0.1,0-0.2,0.1-0.3,0.2c-0.2,0.3-0.3,0.5-0.5,0.8c-0.1,0.1-0.1,0.3-0.1,0.4c0,0.1,0.1,0.2,0.2,0.3
			c0.1,0.1,0.3,0.1,0.4,0.1C105.7,55,105.8,54.9,105.8,54.8L105.8,54.8z"/>
	</g>
	<g>
		<path class="st15" d="M98.3,84.1c0-0.6-0.1-1.2-0.1-1.7c0-0.1,0-0.3-0.1-0.4c-0.1-0.1-0.2-0.2-0.4-0.1c-0.3,0-0.5,0.2-0.5,0.5
			c0,0.6,0.1,1.2,0.1,1.7c0,0.1,0,0.3,0.1,0.4c0.1,0.1,0.2,0.2,0.4,0.1C98,84.6,98.3,84.3,98.3,84.1L98.3,84.1z"/>
	</g>
	<g>
		<path class="st3" d="M124.7,65.5c-0.1,0.6-0.1,1.2,0.1,1.7c-0.5-1.8-2-3.2-3.7-3.8c-0.3-0.1-0.7-0.2-1.1-0.1
			c-0.6,0.1-1,0.7-1.3,1.2c-0.3,0.5-0.6,1.1-1.1,1.4c-0.5,0.3-1.3,0.2-1.6-0.3c-0.1,0.4-0.6,0.5-1,0.3c-0.4-0.2-0.5-0.6-0.6-1
			c-0.2,0.2-0.5,0-0.6-0.2c-0.1-0.2-0.1-0.5,0-0.7c-0.2,0.3-0.7,0-0.7-0.3c0-0.3,0.3-0.6,0.5-0.9c0.9-0.8,1.9-1.5,3-1.4
			c-0.9-0.3-1.8-0.6-2.4-1.3c-0.6-0.7-0.4-2,0.5-2.3c-0.1-0.2,0.1-0.5,0.4-0.6c0.3-0.1,0.6,0,0.8-0.2c0.1-0.1,0.2-0.3,0.3-0.4
			c0.1-0.1,0.4,0,0.4,0.2c0.1-0.2,0.3-0.4,0.6-0.5c0.2,1,0.5,1.9,1,2.7c0.2,0.5,0.7,1,1.2,0.8c0.3-0.1,0.5-0.5,0.6-0.8
			c0.2-0.6,0.5-1.2,1-1.6c0.5-0.4,1.2-0.6,1.7-0.3c0.4,0.3,0.6,0.8,0.8,1.3c0,0.1,0.1,0.2,0.1,0.3c0.1,0.2,0.2,0.4,0.3,0.6
			c-1.1-0.1-1.9,1-2.2,2.1c-0.1,0.4-0.1,0.7,0,1.1c0.1,0.3,0.4,0.6,0.6,0.8c0.7,0.6,2.1,1.5,2.6,2.4c0.4,0.8-0.2,2.3-0.3,3.2
			c-0.3,2.3-0.5,4.7-0.3,7c0.3,4.3,1.6,8.7,4.5,11.9c0.7,0.8,1.4,3.6-0.3,2.5c-0.3-0.2-0.7-1.5-0.9-1.9c-0.5-0.9-1.1-1.9-1.5-2.8
			c-1.7-3.9-2.4-8.2-2.4-12.4c0.1-3.6,0.7-7.3,1.5-10.8c0.4-1.8,0.9-3.6,1.5-5.3c0.5-1.4,0-2.8-1.5-3.3c-1.2-0.4-2.4-0.1-3.5,0.4
			c-0.4-0.4-0.2-1.3,0.3-1.4c-0.3-0.1-0.5-0.5-0.5-0.8c0-0.3,0.3-0.6,0.7-0.6c-0.3-0.5,0-1.1,0.5-1.3c0.5-0.3,1-0.2,1.5-0.1
			c0.5,0.1,1,0.3,1.5,0.4c-0.7-1.5-0.8-3.3-0.4-4.9c0.1-0.3,0.2-0.7,0.5-0.9c0.3-0.2,0.7-0.2,0.9,0.1c0.1-0.3,0.3-0.6,0.6-0.7
			c0.3-0.1,0.7,0.1,0.6,0.4c0-0.5,0.8-0.7,1.2-0.3c0.4,0.3,0.5,0.9,0.5,1.4c0.1,1.3-0.1,2.6-0.5,3.8c0.5-1.5,2.4-2.4,3.9-2
			c0.4,0.1,0.7,0.3,0.9,0.6c0.1,0.4-0.2,0.8-0.5,0.8c0.2-0.1,0.5,0.1,0.5,0.3c0,0.2-0.2,0.5-0.4,0.5c0.3,0.1,0.3,0.5,0.2,0.7
			c-0.2,0.2-0.4,0.3-0.7,0.5c-0.3,0.1-0.6,0.3-0.9,0.4c-1.2,0.7-2,1.9-2.8,3c-0.7,1-1.4,2.1-2.1,3.1c0-0.1,0-1,0-1.2
			c0-0.3,0-0.5,0.2-0.8c0.6-0.9,1.4-0.3,0.8,0.6c-1.4,2.2-2,4.8-2.5,7.3c-0.2,0.9-0.6,3.6-0.7,4.5L124.7,65.5z"/>
		<path class="st3" d="M126.1,67.4c0.9-0.4,1.8-0.5,2.7-0.7c0.1-1-0.9-2.1-1.9-2c0-0.5,0.4-0.9,0.9-0.8c-0.2-0.4,0.2-1,0.7-1.1
			c0.5-0.1,1,0,1.5,0c0.2,0,0.4,0,0.5,0.1c0.3,0.1,0.5,0.3,0.6,0.5c0.7,0.8,0.8,2.1,0.3,3c0.4-0.1,0.6-0.6,0.9-0.9
			c0.6-0.8,1.8-1.2,2.7-0.8c0.2,0.1,0.4,0.2,0.5,0.4c0.1,0.2-0.1,0.5-0.3,0.5c0.3,0.1,0.6,0.4,0.7,0.7c0.2,0.5,0,1,0.2,1.4
			c0.1,0.4,0.4,0.7,0.4,1.1c0,0.5-0.5,0.8-1,0.9c-1.4,0.3-2.6-0.7-3.8-1.5c0.1,0.5,0.5,0.8,0.9,1.1c0.4,0.3,0.8,0.6,1.1,0.9
			c0.3,0.4,0.4,1,0.2,1.4c-0.3,0.4-1,0.4-1.2,0c0,0.5-0.2,1.3-0.7,1.2c-0.2,0-0.3-0.1-0.5-0.1c-0.2,0-0.4,0.2-0.6,0.3
			c-0.3,0.1-0.5-0.2-0.6-0.4c-0.1-0.2,0-0.5,0-0.8c0.2-1.2,0-2.4-0.4-3.5c-0.1-0.4-0.3-0.7-0.6-0.9c-0.5-0.4-1.2-0.3-1.8-0.1
			c-0.9,0.3-1.9,0.8-2.4,1.6c-0.5,0.7-0.6,1.6-0.8,2.5c-0.1,0.6-0.2,1.2-0.3,1.8c0.2-1.2-0.4-2.5,0-3.7
			C124.3,68.5,125.3,67.8,126.1,67.4z"/>
	</g>
	<path class="st16" d="M126.7,34.7c-0.1-0.3-0.2-0.7-0.2-1c0-0.3,0.3-0.7,0.6-0.8c0.3-0.1,0.7,0,0.9,0.3c-0.1-0.6,0-1.2,0.4-1.7
		c0.3-0.4,0.8-0.7,1.2-0.5c0.3,0.2,0.4,0.6,0.5,0.9c0,0.4-0.1,0.7,0,1.1c0.2-0.4,0.4-0.8,0.8-0.8c0.4,0,0.7,0.4,0.7,0.8
		c0,0.4-0.2,0.8-0.4,1.2c-0.7,1.2-1.2,2.5-1.3,3.9C128.6,37.4,127.2,36,126.7,34.7z"/>
	<path class="st16" d="M159.2,51.1c0.3,0.2,0.5,0.5,0.7,0.8c0.1,0.3,0.1,0.7-0.1,1c-0.2,0.3-0.7,0.4-0.9,0.2
		c0.4,0.5,0.6,1.1,0.5,1.7c-0.1,0.5-0.4,1-0.8,1c-0.4,0-0.7-0.3-0.9-0.6c-0.2-0.3-0.3-0.7-0.5-0.9c0,0.4,0,0.9-0.3,1.1
		c-0.3,0.2-0.9,0-1.1-0.4c-0.2-0.4-0.2-0.8-0.2-1.2c0-1.4-0.2-2.8-0.8-4.1C156.1,49.7,158.1,50.3,159.2,51.1z"/>
	<path class="st16" d="M91.7,93.2c-0.2-0.3-0.4-0.6-0.5-0.9c-0.1-0.3,0-0.7,0.3-1c0.3-0.2,0.7-0.2,0.9,0c-0.3-0.5-0.4-1.2-0.2-1.8
		c0.1-0.5,0.5-0.9,1-0.8c0.4,0.1,0.6,0.4,0.7,0.7c0.1,0.3,0.2,0.7,0.4,1c0-0.4,0.1-0.9,0.5-1c0.4-0.2,0.8,0.1,1,0.5
		c0.1,0.4,0.1,0.8,0,1.3c-0.3,1.4-0.3,2.7,0.1,4.1C94.4,95.2,92.6,94.3,91.7,93.2z"/>
	<path class="st16" d="M109.4,107.8c-0.2,0.3-0.5,0.5-0.8,0.7c-0.3,0.1-0.7,0.1-1-0.1c-0.3-0.2-0.4-0.6-0.2-0.9
		c-0.4,0.4-1.1,0.6-1.7,0.6c-0.5,0-1-0.3-1-0.8c0-0.4,0.2-0.7,0.6-0.9c0.3-0.2,0.7-0.3,0.9-0.6c-0.4,0-0.9,0.1-1.1-0.3
		c-0.2-0.3,0-0.9,0.3-1.1c0.4-0.2,0.8-0.2,1.2-0.2c1.4,0,2.8-0.3,4-1C110.7,104.7,110.2,106.7,109.4,107.8z"/>
	<path class="st16" d="M130.9,95.9c0.3,0.1,0.6,0.3,0.9,0.5c0.2,0.3,0.3,0.6,0.2,1c-0.1,0.3-0.5,0.6-0.8,0.5
		c0.5,0.3,0.9,0.8,1.1,1.4c0.1,0.5,0,1.1-0.5,1.2c-0.3,0.1-0.7,0-1-0.3c-0.3-0.2-0.5-0.5-0.8-0.7c0.2,0.4,0.3,0.8,0.1,1.2
		c-0.3,0.3-0.8,0.3-1.1,0c-0.3-0.3-0.5-0.7-0.6-1.1c-0.5-1.4-1.1-2.6-2.1-3.6C127.6,95.5,129.6,95.4,130.9,95.9z"/>
	<path class="st16" d="M103.9,57.5c0-0.2,0-0.5,0.1-0.7c0.1-0.2,0.3-0.4,0.5-0.4c0.2,0,0.5,0.2,0.5,0.4c0-0.4,0.3-0.8,0.6-1.1
		c0.3-0.2,0.7-0.3,0.9,0c0.2,0.2,0.2,0.5,0.1,0.7c-0.1,0.2-0.2,0.5-0.2,0.7c0.2-0.2,0.4-0.4,0.7-0.4c0.3,0.1,0.4,0.4,0.3,0.7
		c-0.1,0.3-0.3,0.5-0.5,0.7c-0.7,0.7-1.3,1.4-1.7,2.3C104.6,59.7,103.9,58.4,103.9,57.5z"/>
	<path class="st16" d="M132.5,116.6c0.1,0.2,0.2,0.4,0.2,0.7c0,0.2,0,0.5-0.2,0.6c-0.1,0.1-0.3,0.1-0.4-0.1c0.1,0.4,0.2,0.9,0.1,1.2
		c-0.1,0.3-0.3,0.5-0.5,0.4c-0.2-0.1-0.3-0.4-0.3-0.6c-0.1-0.3-0.1-0.5-0.1-0.8c0,0.3-0.1,0.6-0.3,0.6c-0.2,0.1-0.4-0.2-0.5-0.5
		c-0.1-0.3,0-0.6,0-0.9c0.2-0.9,0.2-1.8,0.1-2.8C131.2,114.9,132.1,115.8,132.5,116.6z"/>
	<path class="st16" d="M150.1,29.7c0.3,0,0.7,0,1,0.2c0.3,0.2,0.5,0.5,0.6,0.8s-0.3,0.7-0.6,0.7c0.6,0.1,1.2,0.4,1.5,0.9
		c0.3,0.4,0.3,1,0,1.3c-0.3,0.2-0.7,0.2-1,0.1c-0.3-0.1-0.7-0.3-1-0.4c0.3,0.3,0.6,0.7,0.5,1.1c-0.1,0.4-0.7,0.6-1.1,0.4
		c-0.4-0.1-0.7-0.5-0.9-0.8c-0.9-1.1-1.9-2-3.2-2.6C146.8,30.5,148.7,29.7,150.1,29.7z"/>
	<g>
		<path class="st17" d="M94.4,75.2c-2.3-0.9-7.6-1.6-9.1,1.1c-0.6,1.1-0.8,3.8-0.3,4.9c0.4,0.9,1.2,1.5,1.9,1.9
			c1.9,1.2,4.3,1.4,6.4,0.6c1.5-0.6,3-1.8,3.2-3.6C96.9,78.2,96.1,75.9,94.4,75.2z M93.1,80.4c-0.3,0.3-0.6,0.4-1,0.5
			c-0.8,0.2-1.6,0.3-2.4,0.3c-0.6-0.1-1.3-0.2-1.8-0.6c-2.9-2.2,3.5-5.4,5.3-2.8c0.2,0.3,0.3,0.7,0.3,1.1
			C93.6,79.5,93.5,80.1,93.1,80.4z"/>
		<path class="st18" d="M93.5,74.3c-2.2-0.9-6.8-0.9-8.1,1.9c-0.6,1.1-0.6,2.7,0,3.8c0.4,0.9,1.1,1.5,1.8,1.9c1.8,1.2,4.1,1.4,6,0.6
			c1.4-0.6,2.8-1.8,3-3.6C96.5,76.9,95.1,75,93.5,74.3z M93,79.1c-0.2,0.3-0.6,0.4-0.9,0.5c-0.7,0.2-1.5,0.3-2.3,0.3
			c-0.6-0.1-1.2-0.2-1.7-0.6c-2.7-2.2,3.3-5.4,5-2.8c0.2,0.3,0.3,0.7,0.3,1.1C93.5,78.2,93.4,78.8,93,79.1z"/>
	</g>
	<g>
		<path class="st17" d="M163.6,62.4c-2.3-0.9-7.6-1.6-9.1,1.1c-0.6,1.1-0.8,3.8-0.3,4.9c0.4,0.9,1.2,1.5,1.9,1.9
			c1.9,1.2,4.3,1.4,6.4,0.6c1.5-0.6,3-1.8,3.2-3.6C166.1,65.4,165.3,63.1,163.6,62.4z M162.4,67.6c-0.3,0.3-0.6,0.4-1,0.5
			c-0.8,0.2-1.6,0.3-2.4,0.3c-0.6-0.1-1.3-0.2-1.8-0.6c-2.9-2.2,3.5-5.4,5.3-2.8c0.2,0.3,0.3,0.7,0.3,1.1
			C162.9,66.7,162.8,67.3,162.4,67.6z"/>
		<path class="st18" d="M162.8,61.5c-2.2-0.9-6.8-0.9-8.1,1.9c-0.6,1.1-0.6,2.7,0,3.8c0.4,0.9,1.1,1.5,1.8,1.9
			c1.8,1.2,4.1,1.4,6,0.6c1.4-0.6,2.8-1.8,3-3.6C165.8,64.1,164.4,62.2,162.8,61.5z M162.2,66.3c-0.2,0.3-0.6,0.4-0.9,0.5
			c-0.7,0.2-1.5,0.3-2.3,0.3c-0.6-0.1-1.2-0.2-1.7-0.6c-2.7-2.2,3.3-5.4,5-2.8c0.2,0.3,0.3,0.7,0.3,1.1
			C162.7,65.4,162.6,66,162.2,66.3z"/>
	</g>
	<g>
		<path class="st17" d="M139.9,22.5c-2.3-0.9-7.6-1.6-9.1,1.1c-0.6,1.1-0.8,3.8-0.3,4.9c0.4,0.9,1.2,1.5,1.9,1.9
			c1.9,1.2,4.3,1.4,6.4,0.6c1.5-0.6,3-1.8,3.2-3.6C142.4,25.4,141.6,23.2,139.9,22.5z M138.6,27.7c-0.3,0.3-0.6,0.4-1,0.5
			c-0.8,0.2-1.6,0.3-2.4,0.3c-0.6-0.1-1.3-0.2-1.8-0.6c-2.9-2.2,3.5-5.4,5.3-2.8c0.2,0.3,0.3,0.7,0.3,1.1
			C139.1,26.8,139,27.3,138.6,27.7z"/>
		<path class="st18" d="M139,21.6c-2.2-0.9-6.8-0.9-8.1,1.9c-0.6,1.1-0.6,2.7,0,3.8c0.4,0.9,1.1,1.5,1.8,1.9c1.8,1.2,4.1,1.4,6,0.6
			c1.4-0.6,2.8-1.8,3-3.6C142,24.1,140.6,22.2,139,21.6z M138.5,26.4c-0.2,0.3-0.6,0.4-0.9,0.5c-0.7,0.2-1.5,0.3-2.3,0.3
			c-0.6-0.1-1.2-0.2-1.7-0.6c-2.7-2.2,3.3-5.4,5-2.8c0.2,0.3,0.3,0.7,0.3,1.1C139,25.5,138.9,26,138.5,26.4z"/>
	</g>
</g>
</svg>
