<?xml version="1.0" encoding="utf-8"?>
<!-- Generator: Adobe Illustrator 27.3.1, SVG Export Plug-In . SVG Version: 6.00 Build 0)  -->
<svg version="1.1" id="Layer_1" xmlns="http://www.w3.org/2000/svg" xmlns:xlink="http://www.w3.org/1999/xlink" x="0px" y="0px"
	 viewBox="0 0 256 149.4" style="enable-background:new 0 0 256 149.4;" xml:space="preserve">
<style type="text/css">
	.st0{fill:#FFEBD7;}
	.st1{opacity:0.67;fill:#FFFFFF;}
	.st2{fill:#F2DFCE;}
	.st3{fill:#C8D3A3;}
	.st4{opacity:0.29;fill:#FFFFFF;}
	.st5{fill:#D8AA68;}
	.st6{fill:#F2D664;}
	.st7{fill:#FFE36C;}
	.st8{opacity:0.33;fill:#FFFFFF;}
	.st9{fill:#EABD6E;}
	.st10{fill:#CC9E66;}
	.st11{fill:#83BC71;}
	.st12{fill:#628453;}
	.st13{fill:#59754B;}
	.st14{opacity:8.000000e-02;fill:#FFFFFF;}
	.st15{fill:#E55F41;}
	.st16{fill:#F77557;}
	.st17{fill:#FF826E;}
	.st18{fill:#FFB07B;}
</style>
<g>
	<g>
		
			<ellipse transform="matrix(0.7071 -0.7071 0.7071 0.7071 -15.3128 112.3815)" class="st0" cx="128" cy="74.7" rx="74.7" ry="74.7"/>
		<path class="st1" d="M58.9,74.5c0-38.3,31.7-69.3,70.8-69.3c13.4,0,25.9,3.6,36.6,10c-11.2-7.3-24.7-11.6-39.2-11.6
			c-39.1,0-70.8,31-70.8,69.3c0,25.2,13.7,47.2,34.2,59.3C71.4,119.8,58.9,98.6,58.9,74.5z"/>
		<path class="st2" d="M169.4,12.5c17.5,13.7,28.8,35,28.8,58.9c0,41.2-33.4,74.7-74.7,74.7c-15.3,0-29.5-4.6-41.4-12.5
			c12.7,9.9,28.6,15.8,45.9,15.8c41.2,0,74.7-33.4,74.7-74.7C202.7,48.7,189.5,25.9,169.4,12.5z"/>
	</g>
	<path class="st3" d="M121.6,30c-1.5,0.7-3.2,0.8-4.8,1.4c-1.5,0.6-3,2-2.9,3.6c0,0.7,0.3,1.3,0.3,2c0,0.9-0.6,1.6-1.1,2.2
		c-2.1,2.6-4.4,5.4-7.6,6.4c-1.7,0.5-3.5,0.5-5.3,0.6c-4.5,0.2-9,1.1-12.8,3.2c-3.9,2.2-7.1,5.8-8.2,10.1c-1,4.1-0.1,8.4-1.1,12.4
		c-0.7,3-2.5,5.7-3.5,8.6c-1.1,2.9-1.3,6.5,0.7,8.9c2,2.4,5.7,2.8,7.9,5.1c1.9,2,2.4,5,2.3,7.7c-0.2,2.8-0.8,5.5-0.8,8.2
		c0.1,5.3,3,10.5,7.5,13.2c4.5,2.8,10.4,3.1,15.2,0.8c1.7-0.8,3.4-2,5.3-2.1c2.3-0.1,4.4,1.4,6,3.1c1.6,1.7,2.8,3.7,4.6,5.2
		c4.9,3.9,12.1,2.7,18,0.6c1.6-0.6,3.3-1.3,4-2.8c0.6-1.2,0.4-2.7,0.3-4c-0.4-5.2,1-11.5,5.8-13.4c3-1.2,6.3-0.3,9.5,0.3
		c3.2,0.5,6.9,0.4,8.9-2.1c0.8-0.9,1.2-2.1,2-3c1.9-2.1,5.2-2.2,7-4.4c2.2-2.7,0.7-6.7-1.1-9.6c-1.8-3-3.9-6.4-2.6-9.6
		c1.6-4.1,7.3-4.6,10.2-7.8c2.8-3.2,2-8.5-0.8-11.7c-2.8-3.2-7.1-4.7-11.4-5.4c-3.7-0.6-8-1.1-9.8-4.3c-1.9-3.6,0.6-7.8,1.7-11.7
		c0.2-0.8,0.4-1.7,0-2.5c-0.4-0.9-1.4-1.5-2.3-1.8c-3.6-1.3-7.8-0.6-10.9,1.8c-1.3,1-2.4,2.3-3.9,2.7c-2.7,0.8-5.6-1.4-6.2-4.1
		c-0.7-2.7,0.5-5.6,2.2-7.8c0.8-1,1.6-1.9,2-3c0.5-1.7-0.3-3.8-1.9-4.7c-1.6-0.9-3.7-0.8-5.2,0.3c-1,0.7-2.1,1.8-3.2,1.3
		c-0.4-0.2-0.7-0.6-1-1c-1.1-1.6-2.6-2.9-4.4-3.4c-3.9-1.1-3.9,0.8-4.2,3.5C125.8,25.8,124.6,28.7,121.6,30z"/>
	<path class="st4" d="M82,79c-1.1,1.9-2.6,3.8-2.4,6c0.2,2.1,2,3.6,3.4,5.2c2.5,2.7,4.2,6.1,4.9,9.7c0.5,2.5,0.6,5.1,1.2,7.6
		c0.7,2.5,2.1,4.9,4.4,6c3,1.3,6.7-0.3,8.6-3c1.9-2.7,2.2-6.2,1.8-9.5c-0.4-3.3-1.3-6.5-1.8-9.7c-0.7-4.4,0.1-10,4.2-11.7
		c4.7-2,9.7,2.3,14.8,1.9c3.4-0.3,6.3-2.7,8.4-5.3c2.2-2.6,3.9-5.7,6.4-8c3.4-3.1,8.1-4.6,12.6-4.2c1.8,0.2,3.7,0.6,5.4,0
		c2.3-0.8,3.6-3.3,3.7-5.7c0.1-2.4-0.8-4.7-1.6-7c-2.1-5.6-4.4-11.4-9.1-15c-3.3-2.5-7.7-3.7-10.3-7c-1-1.2-1.6-2.6-2.7-3.7
		c-1.1-1.1-2.9-1.7-4.2-0.9c-0.7,0.4-1.1,1.2-1.4,1.9c-2.6,5.9-1.9,13.6-6.7,18c-2.5,2.3-5.9,3.1-9.2,3.9c-4.2,1-8.5,2-12.7,3
		C93.3,53,87.6,55.4,85,62.1C82.9,67.7,85.2,73.5,82,79z"/>
	<g>
		<path class="st5" d="M91.2,79.2c0.2-0.1,0.4-0.2,0.6-0.1c0.2,0.1,0.3,0.4,0.4,0.6c0.5,1.2,2,1.8,3.2,1.4c0.5-0.2,1.1-0.5,1.6-0.4
			c1.1,0.4,0.6,2.3,1.5,3c1.1,1,3.1-0.7,4.2,0.3c0.8,0.7,0.4,2,1.2,2.7c1.1,1,3.2-0.4,4.2,0.7c0.5,0.5,0.5,1.3,0.9,1.9
			c1,1.5,3.5,0.8,4.9,2c0.2,0.2,0.3,0.4,0.4,0.6c0,0.2,0,0.3-0.1,0.5c-0.2,0.5-0.7,0.8-1.1,1.2c-0.4,0.4-0.7,0.9-0.5,1.4
			c0.2,0.6,1,0.9,0.8,1.5c-0.2,0.6-1,0.5-1.6,0.5c-1.2,0.1-2.1,1.6-1.6,2.7c0.2,0.4,0.6,0.9,0.3,1.3c-0.1,0.2-0.3,0.3-0.5,0.4
			c-0.7,0.2-1.5,0.1-2.1,0.5c-0.7,0.4-0.9,1.2-1,2c0,0.8,0.1,1.5,0.2,2.3c0,0.2,0,0.5-0.1,0.6c-0.1,0.2-0.3,0.2-0.5,0.3
			c-0.6,0.2-1.3,0.3-1.8,0.6c-0.6,0.3-1,0.9-1.1,1.5c0,0.7,0.4,1.2,0.6,1.8c0.2,0.6,0.2,1.5-0.4,1.7c-0.8,0.3-1.8-0.8-2.5-0.2
			c-0.6,0.6,0.1,1.9-0.7,2.3c-0.3,0.1-0.7,0-1-0.2c-0.7-0.4-1.3-0.8-1.9-1.3c-0.7,0.7-1.8,1.2-2.6,0.6c-0.9-0.6-0.7-2.1-1.5-2.8
			c-0.6-0.5-1.5-0.4-2.3-0.3c-0.8,0-1.8-0.3-1.9-1.1c0-0.3,0.1-0.5,0-0.8c-0.1-0.7-1-1.1-1.7-1.1c-0.8,0-1.5,0.3-2.2,0.1
			c-0.2,0-0.5-0.1-0.7-0.3c-0.5-0.6,0.1-1.4,0-2.1c-0.1-0.6-0.8-0.9-1.3-0.9c-0.6,0-1.1,0.1-1.7,0.2c-0.7,0.1-1.4,0-2-0.2
			c-0.3-0.1-0.5-0.2-0.7-0.4c-0.4-0.7,0.4-1.5,0.3-2.3c-0.1-0.8-1-1.1-1.8-1.2c-0.8-0.1-1.7-0.1-2.2-0.8c-0.4-0.5-0.3-1.3,0.1-1.9
			c0.4-0.5,1-0.9,1.6-1.2c0.2-0.1,0.5-0.2,0.7-0.4c0.6-0.8-0.7-1.9-0.5-2.9c0.2-0.8,1.2-1,2-1.1c0.8,0,1.8-0.2,2.1-0.9
			c0.4-0.9-0.6-2-0.1-2.8c0.6-1,2.3-0.2,3.1-0.9c0.6-0.5,0.6-1.5,0.5-2.3c0-0.8,0.3-1.8,1.1-1.9c0.5-0.1,1.1,0.3,1.6,0.1
			c0.9-0.4,0-2.2,0.9-2.8c0.8,0.7,1,0.6,1.5-0.1C90.2,80.1,90.5,79.6,91.2,79.2z"/>
		<path class="st6" d="M90.7,78.4c0.2-0.1,0.4-0.2,0.6-0.1c0.2,0.1,0.3,0.4,0.4,0.6c0.5,1.2,2,1.8,3.2,1.4c0.5-0.2,1.1-0.5,1.6-0.4
			c1.1,0.4,0.6,2.3,1.5,3c1.1,1,3.1-0.7,4.2,0.3c0.8,0.7,0.4,2,1.2,2.7c1.1,1,3.2-0.4,4.2,0.7c0.5,0.5,0.5,1.3,0.9,1.9
			c1,1.5,3.5,0.8,4.9,2c0.2,0.2,0.3,0.4,0.4,0.6c0,0.2,0,0.3-0.1,0.5c-0.2,0.5-0.7,0.8-1.1,1.2c-0.4,0.4-0.7,0.9-0.5,1.4
			c0.2,0.6,1,0.9,0.8,1.5c-0.2,0.6-1,0.5-1.6,0.5c-1.2,0.1-2.1,1.6-1.6,2.7c0.2,0.4,0.6,0.9,0.3,1.3c-0.1,0.2-0.3,0.3-0.5,0.4
			c-0.7,0.2-1.5,0.1-2.1,0.5c-0.7,0.4-0.9,1.2-1,2c0,0.8,0.1,1.5,0.2,2.3c0,0.2,0,0.5-0.1,0.6c-0.1,0.2-0.3,0.2-0.5,0.3
			c-0.6,0.2-1.3,0.3-1.8,0.6c-0.6,0.3-1,0.9-1.1,1.5c0,0.7,0.4,1.2,0.6,1.8c0.2,0.6,0.2,1.5-0.4,1.7c-0.8,0.3-1.8-0.8-2.5-0.2
			c-0.6,0.6,0.1,1.9-0.7,2.3c-0.3,0.1-0.7,0-1-0.2c-0.7-0.4-1.3-0.8-1.9-1.3c-0.7,0.7-1.8,1.2-2.6,0.6c-0.9-0.6-0.7-2.1-1.5-2.8
			c-0.6-0.5-1.5-0.4-2.3-0.3c-0.8,0-1.8-0.3-1.9-1.1c0-0.3,0.1-0.5,0-0.8c-0.1-0.7-1-1.1-1.7-1.1c-0.8,0-1.5,0.3-2.2,0.1
			c-0.2,0-0.5-0.1-0.7-0.3c-0.5-0.6,0.1-1.4,0-2.1c-0.1-0.6-0.8-0.9-1.3-0.9c-0.6,0-1.1,0.1-1.7,0.2c-0.7,0.1-1.4,0-2-0.2
			c-0.3-0.1-0.5-0.2-0.7-0.4c-0.4-0.7,0.4-1.5,0.3-2.3c-0.1-0.8-1-1.1-1.8-1.2c-0.8-0.1-1.7-0.1-2.2-0.8c-0.4-0.5-0.3-1.3,0.1-1.9
			c0.4-0.5,1-0.9,1.6-1.2c0.2-0.1,0.5-0.2,0.7-0.4c0.6-0.8-0.7-1.9-0.5-2.9c0.2-0.8,1.2-1,2-1.1c0.8,0,1.8-0.2,2.1-0.9
			c0.4-0.9-0.6-2-0.1-2.8c0.6-1,2.3-0.2,3.1-0.9c0.6-0.5,0.6-1.5,0.5-2.3c0-0.8,0.3-1.8,1.1-1.9c0.5-0.1,1.1,0.3,1.6,0.1
			c0.9-0.4,0-2.2,0.9-2.8c0.8,0.7,1,0.6,1.5-0.1C89.7,79.3,90.1,78.7,90.7,78.4z"/>
		<path class="st7" d="M90.9,83.6c-0.5,0.3-0.8,0.8-1.2,1.3c-2.2,3-4.3,5.9-6.5,8.9c-0.4,0.6-0.9,1.2-0.8,1.9c0,1.1,1.2,1.3,2.1,1.4
			c3,0.4,5.5,2.4,8.6,2c1.3-0.1,2.6-0.7,3.9-1.2c3-1.3,6.1-2.5,9.1-3.8c0.6-0.2,1.2-0.6,1.5-1.2c0.4-1-0.3-1.9-1-2.4
			c-1.2-0.8-2.6-1.4-4-1.8c-1.4-0.4-2.9-0.6-4.2-1.3c-2.3-1.2-3.8-3.5-6.6-3.9C91.8,83.1,91.3,83.3,90.9,83.6z"/>
		<path class="st8" d="M90.7,86.4c-1,0.9-1.8,2-2.3,3.2c-0.1,0.2-0.1,0.3-0.1,0.5c0,0.1,0.1,0.3,0.3,0.3c0.5,0.4,1.3,0.1,1.7-0.4
			c0.5-0.4,0.8-1,1.2-1.5c0.7-0.7,1.9-0.8,2.8-0.4c0.5,0.2,0.9,0.6,1.4,0.8c0.5,0.2,1.2,0,1.3-0.5c0.1-0.5-0.4-0.9-0.9-1.2
			C94.4,86.4,92.4,84.9,90.7,86.4z"/>
		<path class="st9" d="M80.7,96.8c0.2,0.9,1,1.7,1.7,2.3c3.6,2.9,7.6,5.2,11.9,7c1.1,0.5,2.3,0.9,3.6,1c0.6,0,1.1,0,1.6-0.2
			c0.8-0.4,1.3-1.1,1.7-1.9c2.2-4,3.6-8.4,6.7-11.7c0.3-0.3,0.5-0.9,0.1-1c-0.1,0-0.2,0-0.3,0c-0.6,0.2-1.1,0.7-1.5,1.2
			c-1.7,1.9-3.1,4.1-5,5.7c-1.9,1.7-4.5,2.9-7,2.4c-0.8-0.1-1.6-0.4-2.3-0.8c-3-1.3-5.8-2.9-8.4-4.8c-0.3-0.2-0.7-0.6-0.7-1
			c0-0.6,0.6-1.1,0.3-1.6C82.1,94.2,80.4,95.4,80.7,96.8z"/>
		<g>
			<path class="st10" d="M108.1,92.2c-0.1,0.1-0.1,0.2-0.2,0.3c-3.1,3.3-4.6,7.7-6.7,11.7c-0.4,0.8-0.9,1.5-1.7,1.9
				c-0.5,0.2-1.1,0.2-1.6,0.2c-1.2-0.1-2.4-0.5-3.6-1c-4.3-1.7-8.3-4-11.9-7c-0.7-0.6-1.5-1.3-1.7-2.2c0,0.2,0,0.4,0,0.6
				c0.2,0.9,1,1.7,1.7,2.3c3.6,2.9,7.6,5.2,11.9,7c1.1,0.5,2.3,0.9,3.6,1c0.6,0,1.1,0,1.6-0.2c0.8-0.4,1.3-1.1,1.7-1.9
				c2.2-4,3.6-8.4,6.7-11.7C108.2,92.9,108.4,92.4,108.1,92.2z"/>
			<path class="st10" d="M82.7,94.4c0,0.1,0,0.2,0.1,0.3c0.1-0.4,0.5-0.9,0.2-1.3C82.9,93.8,82.7,94.1,82.7,94.4z"/>
		</g>
	</g>
	<g>
		<path class="st5" d="M107.5,105.8c0.1-0.2,0.1-0.4,0.3-0.5c0.2-0.1,0.5,0,0.7,0.1c1.2,0.5,2.7,0,3.3-1.1c0.3-0.5,0.4-1.1,0.9-1.4
			c1.1-0.5,2,1.2,3.2,1.2c1.5,0,1.8-2.6,3.2-2.7c1-0.1,1.7,1.2,2.7,1.2c1.5,0,2.1-2.4,3.5-2.4c0.7,0,1.2,0.6,1.9,0.8
			c1.7,0.4,3.1-1.9,4.9-1.9c0.2,0,0.5,0,0.7,0.2c0.1,0.1,0.2,0.3,0.3,0.4c0.2,0.5,0,1.1,0,1.6c0,0.5,0.1,1.2,0.6,1.4
			c0.5,0.3,1.4,0,1.7,0.5c0.3,0.5-0.4,1-0.8,1.4c-0.9,0.9-0.5,2.6,0.7,3.1c0.4,0.2,1,0.3,1.1,0.7c0.1,0.2,0,0.5-0.1,0.7
			c-0.3,0.6-1,1.1-1.2,1.8c-0.2,0.7,0.1,1.5,0.7,2.1c0.5,0.6,1.1,1,1.7,1.5c0.2,0.2,0.3,0.3,0.3,0.6c0,0.2-0.1,0.4-0.2,0.6
			c-0.3,0.5-0.7,1.1-0.9,1.7c-0.2,0.6-0.2,1.3,0.2,1.8c0.4,0.5,1.1,0.6,1.7,0.9c0.6,0.3,1.2,0.9,0.9,1.5c-0.4,0.8-1.9,0.7-2,1.6
			c-0.1,0.8,1.4,1.3,1.1,2.1c-0.1,0.3-0.5,0.5-0.8,0.5c-0.7,0.2-1.5,0.3-2.3,0.3c-0.1,1-0.5,2.1-1.4,2.2c-1.1,0.2-2-1.1-3-1
			c-0.8,0.1-1.3,0.8-1.9,1.4c-0.6,0.6-1.5,1-2.1,0.5c-0.2-0.2-0.3-0.4-0.5-0.6c-0.6-0.5-1.5-0.2-2,0.3c-0.5,0.5-0.9,1.2-1.5,1.6
			c-0.2,0.1-0.5,0.3-0.7,0.2c-0.7-0.1-0.9-1.1-1.5-1.5c-0.5-0.3-1.2-0.1-1.6,0.3c-0.4,0.4-0.7,0.9-1.1,1.3c-0.4,0.5-1,0.9-1.6,1.2
			c-0.3,0.1-0.5,0.2-0.8,0.2c-0.8-0.2-0.8-1.4-1.4-1.9c-0.6-0.5-1.5-0.1-2.2,0.4s-1.3,1.1-2.1,0.9c-0.7-0.1-1.1-0.8-1.2-1.4
			c-0.1-0.7,0.1-1.3,0.4-1.9c0.1-0.2,0.2-0.5,0.2-0.8c-0.1-1-1.9-0.9-2.4-1.8c-0.4-0.7,0.2-1.6,0.7-2.2c0.6-0.6,1.2-1.4,0.9-2.1
			c-0.4-0.9-1.8-1.1-2-2c-0.2-1.1,1.5-1.7,1.6-2.8c0.1-0.8-0.6-1.4-1.2-2c-0.6-0.6-1.1-1.5-0.6-2.1c0.3-0.4,1-0.5,1.2-1
			c0.4-1-1.5-1.6-1.3-2.6c1.1,0,1.1-0.2,1-1.1C107.4,107.2,107.3,106.5,107.5,105.8z"/>
		<path class="st6" d="M106.6,105.5c0.1-0.2,0.1-0.4,0.3-0.5c0.2-0.1,0.5,0,0.7,0.1c1.2,0.5,2.7,0,3.3-1.1c0.3-0.5,0.4-1.1,0.9-1.4
			c1.1-0.5,2,1.2,3.2,1.2c1.5,0,1.8-2.6,3.2-2.7c1-0.1,1.7,1.2,2.7,1.2c1.5,0,2.1-2.4,3.5-2.4c0.7,0,1.2,0.6,1.9,0.8
			c1.7,0.4,3.1-1.9,4.9-1.9c0.2,0,0.5,0,0.7,0.2c0.1,0.1,0.2,0.3,0.3,0.4c0.2,0.5,0,1.1,0,1.6c0,0.5,0.1,1.2,0.6,1.4
			c0.5,0.3,1.4,0,1.7,0.5c0.3,0.5-0.4,1-0.8,1.4c-0.9,0.9-0.5,2.6,0.7,3.1c0.4,0.2,1,0.3,1.1,0.7c0.1,0.2,0,0.5-0.1,0.7
			c-0.3,0.6-1,1.1-1.2,1.8c-0.2,0.7,0.1,1.5,0.7,2.1c0.5,0.6,1.1,1,1.7,1.5c0.2,0.2,0.3,0.3,0.3,0.6c0,0.2-0.1,0.4-0.2,0.6
			c-0.3,0.5-0.7,1.1-0.9,1.7c-0.2,0.6-0.2,1.3,0.2,1.8c0.4,0.5,1.1,0.6,1.7,0.9c0.6,0.3,1.2,0.9,0.9,1.5c-0.4,0.8-1.9,0.7-2,1.6
			c-0.1,0.8,1.4,1.3,1.1,2.1c-0.1,0.3-0.5,0.5-0.8,0.5c-0.7,0.2-1.5,0.3-2.3,0.3c-0.1,1-0.5,2.1-1.4,2.2c-1.1,0.2-2-1.1-3-1
			c-0.8,0.1-1.3,0.8-1.9,1.4c-0.6,0.6-1.5,1-2.1,0.5c-0.2-0.2-0.3-0.4-0.5-0.6c-0.6-0.5-1.5-0.2-2,0.3c-0.5,0.5-0.9,1.2-1.5,1.6
			c-0.2,0.1-0.5,0.3-0.7,0.2c-0.7-0.1-0.9-1.1-1.5-1.5c-0.5-0.3-1.2-0.1-1.6,0.3c-0.4,0.4-0.7,0.9-1.1,1.3c-0.4,0.5-1,0.9-1.6,1.2
			c-0.3,0.1-0.5,0.2-0.8,0.2c-0.8-0.2-0.8-1.4-1.4-1.9c-0.6-0.5-1.5-0.1-2.2,0.4c-0.6,0.5-1.3,1.1-2.1,0.9c-0.7-0.1-1.1-0.8-1.2-1.4
			c-0.1-0.7,0.1-1.3,0.4-1.9c0.1-0.2,0.2-0.5,0.2-0.8c-0.1-1-1.9-0.9-2.4-1.8c-0.4-0.7,0.2-1.6,0.7-2.2c0.6-0.6,1.2-1.4,0.9-2.1
			c-0.4-0.9-1.8-1.1-2-2c-0.2-1.1,1.5-1.7,1.6-2.8c0.1-0.8-0.6-1.4-1.2-2c-0.6-0.6-1.1-1.5-0.6-2.1c0.3-0.4,1-0.5,1.2-1
			c0.4-1-1.5-1.6-1.3-2.6c1.1,0,1.1-0.2,1-1.1C106.5,106.9,106.4,106.3,106.6,105.5z"/>
		<path class="st7" d="M110.3,109.2c-0.1,0.5-0.1,1.2,0,1.7c0.5,3.6,0.9,7.3,1.4,10.9c0.1,0.7,0.2,1.5,0.7,1.9
			c0.8,0.8,1.8,0.1,2.5-0.4c2.4-1.7,5.7-2.1,7.7-4.5c0.8-1,1.4-2.3,2-3.6c1.3-3,2.7-6,4-9c0.3-0.6,0.5-1.3,0.3-1.9
			c-0.4-1-1.5-1.2-2.4-1c-1.5,0.3-2.8,0.8-4.2,1.5c-1.3,0.7-2.5,1.6-3.9,2c-2.5,0.7-5.2,0.1-7.4,1.7
			C110.7,108.3,110.4,108.7,110.3,109.2z"/>
		<path class="st8" d="M112.1,111.3c-0.1,1.3,0,2.7,0.5,4c0.1,0.2,0.1,0.3,0.3,0.4c0.1,0.1,0.3,0.1,0.4,0.1c0.6-0.1,1-0.8,1-1.5
			c0-0.6-0.2-1.3-0.1-1.9c0.1-1,0.8-1.9,1.7-2.2c0.5-0.2,1-0.2,1.5-0.4c0.5-0.2,0.8-0.8,0.6-1.3c-0.3-0.4-0.9-0.4-1.4-0.3
			C114.8,108.8,112.4,109.1,112.1,111.3z"/>
		<path class="st9" d="M112,125.8c0.8,0.5,1.9,0.5,2.8,0.5c4.6-0.3,9.1-1.4,13.4-3.1c1.2-0.5,2.3-1,3.3-1.7c0.4-0.3,0.8-0.8,1-1.3
			c0.3-0.8,0.1-1.7-0.1-2.5c-1.1-4.4-3.2-8.6-3.1-13.1c0-0.4-0.2-1-0.6-0.8c-0.1,0-0.2,0.1-0.2,0.2c-0.3,0.6-0.3,1.3-0.3,1.9
			c0.1,2.5,0.5,5.1,0.3,7.6c-0.2,2.5-1.3,5.2-3.4,6.6c-0.7,0.5-1.4,0.8-2.2,1.1c-3,1.1-6.2,1.9-9.4,2.3c-0.4,0.1-0.9,0.1-1.2-0.2
			c-0.4-0.4-0.3-1.2-0.9-1.3C111.2,123,110.8,125,112,125.8z"/>
		<g>
			<path class="st10" d="M128.8,103.7c0,0.1,0.1,0.3,0.1,0.4c0,4.5,2,8.7,3.1,13.1c0.2,0.8,0.4,1.7,0.1,2.5c-0.2,0.5-0.6,0.9-1,1.3
				c-1,0.8-2.1,1.3-3.3,1.7c-4.3,1.7-8.8,2.8-13.4,3.1c-1,0.1-2,0.1-2.8-0.4c0.1,0.2,0.2,0.3,0.4,0.4c0.8,0.5,1.9,0.5,2.8,0.5
				c4.6-0.3,9.1-1.4,13.4-3.1c1.2-0.5,2.3-1,3.3-1.7c0.4-0.3,0.8-0.8,1-1.3c0.3-0.8,0.1-1.7-0.1-2.5c-1.1-4.4-3.2-8.6-3.1-13.1
				C129.3,104.2,129.1,103.6,128.8,103.7z"/>
			<path class="st10" d="M111.8,122.7c0.1,0.1,0.2,0.1,0.3,0.2c-0.2-0.4-0.2-1-0.7-1.1C111.5,122.1,111.6,122.5,111.8,122.7z"/>
		</g>
	</g>
	<g>
		<path class="st5" d="M147.3,61.1c0.1-0.2,0.1-0.4,0.3-0.5c0.2-0.1,0.5,0,0.7,0.1c1.2,0.5,2.7,0,3.3-1.1c0.3-0.5,0.4-1.1,0.9-1.4
			c1.1-0.5,2,1.2,3.2,1.2c1.5,0,1.8-2.6,3.2-2.7c1-0.1,1.7,1.2,2.7,1.2c1.5,0,2.1-2.4,3.5-2.4c0.7,0,1.2,0.6,1.9,0.8
			c1.7,0.4,3.1-1.9,4.9-1.9c0.2,0,0.5,0,0.7,0.2c0.1,0.1,0.2,0.3,0.3,0.4c0.2,0.5,0,1.1,0,1.6c0,0.5,0.1,1.2,0.6,1.4
			c0.5,0.3,1.4,0,1.7,0.5c0.3,0.5-0.4,1-0.8,1.4c-0.9,0.9-0.5,2.6,0.7,3.1c0.4,0.2,1,0.3,1.1,0.7c0.1,0.2,0,0.5-0.1,0.7
			c-0.3,0.6-1,1.1-1.2,1.8c-0.2,0.7,0.1,1.5,0.7,2.1c0.5,0.6,1.1,1,1.7,1.5c0.2,0.2,0.3,0.3,0.3,0.6c0,0.2-0.1,0.4-0.2,0.6
			c-0.3,0.5-0.7,1.1-0.9,1.7c-0.2,0.6-0.2,1.3,0.2,1.8c0.4,0.5,1.1,0.6,1.7,0.9c0.6,0.3,1.2,0.9,0.9,1.5c-0.4,0.8-1.9,0.7-2,1.6
			c-0.1,0.8,1.4,1.3,1.1,2.1c-0.1,0.3-0.5,0.5-0.8,0.5c-0.7,0.2-1.5,0.3-2.3,0.3c-0.1,1-0.5,2.1-1.4,2.2c-1.1,0.2-2-1.1-3-1
			c-0.8,0.1-1.3,0.8-1.9,1.4c-0.6,0.6-1.5,1-2.1,0.5c-0.2-0.2-0.3-0.4-0.5-0.6c-0.6-0.5-1.5-0.2-2,0.3c-0.5,0.5-0.9,1.2-1.5,1.6
			c-0.2,0.1-0.5,0.3-0.7,0.2c-0.7-0.1-0.9-1.1-1.5-1.5c-0.5-0.3-1.2-0.1-1.6,0.3c-0.4,0.4-0.7,0.9-1.1,1.3c-0.4,0.5-1,0.9-1.6,1.2
			c-0.3,0.1-0.5,0.2-0.8,0.2c-0.8-0.2-0.8-1.4-1.4-1.9c-0.6-0.5-1.5-0.1-2.2,0.4c-0.6,0.5-1.3,1.1-2.1,0.9c-0.7-0.1-1.1-0.8-1.2-1.4
			c-0.1-0.7,0.1-1.3,0.4-1.9c0.1-0.2,0.2-0.5,0.2-0.8c-0.1-1-1.9-0.9-2.4-1.8c-0.4-0.7,0.2-1.6,0.7-2.2c0.6-0.6,1.2-1.4,0.9-2.1
			c-0.4-0.9-1.8-1.1-2-2c-0.2-1.1,1.5-1.7,1.6-2.8c0.1-0.8-0.6-1.4-1.2-2c-0.6-0.6-1.1-1.5-0.6-2.1c0.3-0.4,1-0.5,1.2-1
			c0.4-1-1.5-1.6-1.3-2.6c1.1,0,1.1-0.2,1-1.1C147.2,62.4,147.1,61.8,147.3,61.1z"/>
		<path class="st6" d="M146.4,60.8c0.1-0.2,0.1-0.4,0.3-0.5c0.2-0.1,0.5,0,0.7,0.1c1.2,0.5,2.7,0,3.3-1.1c0.3-0.5,0.4-1.1,0.9-1.4
			c1.1-0.5,2,1.2,3.2,1.2c1.5,0,1.8-2.6,3.2-2.7c1-0.1,1.7,1.2,2.7,1.2c1.5,0,2.1-2.4,3.5-2.4c0.7,0,1.2,0.6,1.9,0.8
			c1.7,0.4,3.1-1.9,4.9-1.9c0.2,0,0.5,0,0.7,0.2c0.1,0.1,0.2,0.3,0.3,0.4c0.2,0.5,0,1.1,0,1.6c0,0.5,0.1,1.2,0.6,1.4
			c0.5,0.3,1.4,0,1.7,0.5c0.3,0.5-0.4,1-0.8,1.4c-0.9,0.9-0.5,2.6,0.7,3.1c0.4,0.2,1,0.3,1.1,0.7c0.1,0.2,0,0.5-0.1,0.7
			c-0.3,0.6-1,1.1-1.2,1.8c-0.2,0.7,0.1,1.5,0.7,2.1c0.5,0.6,1.1,1,1.7,1.5c0.2,0.2,0.3,0.3,0.3,0.6c0,0.2-0.1,0.4-0.2,0.6
			c-0.3,0.5-0.7,1.1-0.9,1.7c-0.2,0.6-0.2,1.3,0.2,1.8c0.4,0.5,1.1,0.6,1.7,0.9c0.6,0.3,1.2,0.9,0.9,1.5c-0.4,0.8-1.9,0.7-2,1.6
			c-0.1,0.8,1.4,1.3,1.1,2.1c-0.1,0.3-0.5,0.5-0.8,0.5c-0.7,0.2-1.5,0.3-2.3,0.3c-0.1,1-0.5,2.1-1.4,2.2c-1.1,0.2-2-1.1-3-1
			c-0.8,0.1-1.3,0.8-1.9,1.4c-0.6,0.6-1.5,1-2.1,0.5c-0.2-0.2-0.3-0.4-0.5-0.6c-0.6-0.5-1.5-0.2-2,0.3c-0.5,0.5-0.9,1.2-1.5,1.6
			c-0.2,0.1-0.5,0.3-0.7,0.2c-0.7-0.1-0.9-1.1-1.5-1.5c-0.5-0.3-1.2-0.1-1.6,0.3c-0.4,0.4-0.7,0.9-1.1,1.3c-0.4,0.5-1,0.9-1.6,1.2
			c-0.3,0.1-0.5,0.2-0.8,0.2c-0.8-0.2-0.8-1.4-1.4-1.9c-0.6-0.5-1.5-0.1-2.2,0.4c-0.6,0.5-1.3,1.1-2.1,0.9c-0.7-0.1-1.1-0.8-1.2-1.4
			c-0.1-0.7,0.1-1.3,0.4-1.9c0.1-0.2,0.2-0.5,0.2-0.8c-0.1-1-1.9-0.9-2.4-1.8c-0.4-0.7,0.2-1.6,0.7-2.2c0.6-0.6,1.2-1.4,0.9-2.1
			c-0.4-0.9-1.8-1.1-2-2c-0.2-1.1,1.5-1.7,1.6-2.8c0.1-0.8-0.6-1.4-1.2-2c-0.6-0.6-1.1-1.5-0.6-2.1c0.3-0.4,1-0.5,1.2-1
			c0.4-1-1.5-1.6-1.3-2.6c1.1,0,1.1-0.2,1-1.1C146.3,62.1,146.2,61.5,146.4,60.8z"/>
		<path class="st7" d="M150.1,64.4c-0.1,0.5-0.1,1.2,0,1.7c0.5,3.6,0.9,7.3,1.4,10.9c0.1,0.7,0.2,1.5,0.7,1.9
			c0.8,0.8,1.8,0.1,2.5-0.4c2.4-1.7,5.7-2.1,7.7-4.5c0.8-1,1.4-2.3,2-3.6c1.3-3,2.7-6,4-9c0.3-0.6,0.5-1.3,0.3-1.9
			c-0.4-1-1.5-1.2-2.4-1c-1.5,0.3-2.8,0.8-4.2,1.5c-1.3,0.7-2.5,1.6-3.9,2c-2.5,0.7-5.2,0.1-7.4,1.7C150.5,63.5,150.2,64,150.1,64.4
			z"/>
		<path class="st8" d="M151.9,66.6c-0.1,1.3,0,2.7,0.5,4c0.1,0.2,0.1,0.3,0.3,0.4c0.1,0.1,0.3,0.1,0.4,0.1c0.6-0.1,1-0.8,1-1.5
			c0-0.6-0.2-1.3-0.1-1.9c0.1-1,0.8-1.9,1.7-2.2c0.5-0.2,1-0.2,1.5-0.4c0.5-0.2,0.8-0.8,0.6-1.3c-0.3-0.4-0.9-0.4-1.4-0.3
			C154.6,64,152.1,64.3,151.9,66.6z"/>
		<path class="st9" d="M151.8,81c0.8,0.5,1.9,0.5,2.8,0.5c4.6-0.3,9.1-1.4,13.4-3.1c1.2-0.5,2.3-1,3.3-1.7c0.4-0.3,0.8-0.8,1-1.3
			c0.3-0.8,0.1-1.7-0.1-2.5c-1.1-4.4-3.2-8.6-3.1-13.1c0-0.4-0.2-1-0.6-0.8c-0.1,0-0.2,0.1-0.2,0.2c-0.3,0.6-0.3,1.3-0.3,1.9
			c0.1,2.5,0.5,5.1,0.3,7.6c-0.2,2.5-1.3,5.2-3.4,6.6c-0.7,0.5-1.4,0.8-2.2,1.1c-3,1.1-6.2,1.9-9.4,2.3c-0.4,0.1-0.9,0.1-1.2-0.2
			c-0.4-0.4-0.3-1.2-0.9-1.3C151,78.2,150.6,80.2,151.8,81z"/>
		<g>
			<path class="st10" d="M168.6,58.9c0,0.1,0.1,0.3,0.1,0.4c0,4.5,2,8.7,3.1,13.1c0.2,0.8,0.4,1.7,0.1,2.5c-0.2,0.5-0.6,0.9-1,1.3
				c-1,0.8-2.1,1.3-3.3,1.7c-4.3,1.7-8.8,2.8-13.4,3.1c-1,0.1-2,0.1-2.8-0.4c0.1,0.2,0.2,0.3,0.4,0.4c0.8,0.5,1.9,0.5,2.8,0.5
				c4.6-0.3,9.1-1.4,13.4-3.1c1.2-0.5,2.3-1,3.3-1.7c0.4-0.3,0.8-0.8,1-1.3c0.3-0.8,0.1-1.7-0.1-2.5c-1.1-4.4-3.2-8.6-3.1-13.1
				C169.1,59.4,168.9,58.9,168.6,58.9z"/>
			<path class="st10" d="M151.6,78c0.1,0.1,0.2,0.1,0.3,0.2c-0.2-0.4-0.2-1-0.7-1.1C151.3,77.4,151.4,77.7,151.6,78z"/>
		</g>
	</g>
	<g>
		<path class="st5" d="M115,15.8c0.2-0.1,0.4-0.1,0.6,0c0.2,0.1,0.2,0.4,0.3,0.7c0.2,1.2,1.5,2.2,2.8,2.1c0.6-0.1,1.2-0.3,1.7,0
			c1,0.6,0.1,2.3,0.8,3.3c0.9,1.2,3.2,0,4.1,1.2c0.6,0.8,0,2.1,0.5,2.9c0.8,1.3,3.2,0.3,4,1.6c0.4,0.6,0.2,1.4,0.4,2
			c0.6,1.7,3.3,1.5,4.3,3c0.1,0.2,0.2,0.4,0.2,0.7c0,0.2-0.1,0.3-0.2,0.5c-0.3,0.4-0.8,0.6-1.3,0.9c-0.5,0.3-0.9,0.7-0.8,1.3
			c0.1,0.6,0.8,1.1,0.5,1.7c-0.3,0.5-1.1,0.2-1.6,0.1c-1.2-0.2-2.4,1.1-2.2,2.3c0.1,0.5,0.3,1,0,1.3c-0.1,0.2-0.4,0.2-0.6,0.3
			c-0.7,0.1-1.5-0.2-2.2,0c-0.7,0.2-1.2,1-1.4,1.7c-0.2,0.7-0.2,1.5-0.3,2.3c0,0.2-0.1,0.5-0.3,0.6c-0.2,0.1-0.4,0.1-0.6,0.2
			c-0.6,0-1.3,0-1.9,0.2c-0.6,0.2-1.2,0.6-1.4,1.2c-0.2,0.6,0.1,1.3,0.2,1.9c0.1,0.6-0.1,1.5-0.8,1.6c-0.9,0.1-1.6-1.2-2.4-0.7
			c-0.7,0.4-0.3,1.9-1.2,2.1c-0.3,0.1-0.6-0.1-0.9-0.4c-0.6-0.5-1.1-1.1-1.5-1.7c-0.8,0.5-2,0.8-2.7,0.1c-0.7-0.8-0.2-2.2-0.9-3.1
			c-0.5-0.6-1.4-0.7-2.2-0.8c-0.8-0.1-1.7-0.7-1.6-1.5c0-0.3,0.2-0.5,0.2-0.8c0.1-0.7-0.7-1.3-1.4-1.5c-0.7-0.2-1.5-0.1-2.2-0.3
			c-0.2-0.1-0.5-0.2-0.6-0.5c-0.3-0.6,0.5-1.3,0.4-2.1c0-0.6-0.5-1-1.1-1.2c-0.6-0.2-1.1-0.1-1.7-0.2c-0.7-0.1-1.3-0.3-1.9-0.6
			c-0.2-0.1-0.5-0.3-0.6-0.6c-0.3-0.7,0.7-1.4,0.8-2.2c0.1-0.8-0.8-1.3-1.5-1.6c-0.7-0.3-1.6-0.5-1.9-1.2c-0.3-0.6,0-1.4,0.5-1.8
			c0.5-0.4,1.2-0.6,1.8-0.8c0.3-0.1,0.5-0.1,0.7-0.3c0.8-0.7-0.3-2,0.2-3c0.3-0.7,1.4-0.7,2.2-0.6c0.8,0.1,1.8,0.2,2.3-0.4
			c0.6-0.8-0.1-2.1,0.5-2.8c0.8-0.8,2.3,0.3,3.3-0.2c0.7-0.4,0.9-1.3,1-2.1c0.2-0.8,0.7-1.7,1.5-1.7c0.5,0.1,1,0.6,1.5,0.5
			c1-0.2,0.5-2.2,1.5-2.5c0.6,0.9,0.8,0.8,1.5,0.2C113.9,16.5,114.3,16,115,15.8z"/>
		<path class="st6" d="M114.8,14.9c0.2-0.1,0.4-0.1,0.6,0c0.2,0.1,0.2,0.4,0.3,0.7c0.2,1.2,1.5,2.2,2.8,2.1c0.6-0.1,1.2-0.3,1.7,0
			c1,0.6,0.1,2.3,0.8,3.3c0.9,1.2,3.2,0,4.1,1.2c0.6,0.8,0,2.1,0.5,2.9c0.8,1.3,3.2,0.3,4,1.6c0.4,0.6,0.2,1.4,0.4,2
			c0.6,1.7,3.3,1.5,4.3,3c0.1,0.2,0.2,0.4,0.2,0.7c0,0.2-0.1,0.3-0.2,0.5c-0.3,0.4-0.8,0.6-1.3,0.9c-0.5,0.3-0.9,0.7-0.8,1.3
			c0.1,0.6,0.8,1.1,0.5,1.7c-0.3,0.5-1.1,0.2-1.6,0.1c-1.2-0.2-2.4,1.1-2.2,2.3c0.1,0.5,0.3,1,0,1.3c-0.1,0.2-0.4,0.2-0.6,0.3
			c-0.7,0.1-1.5-0.2-2.2,0c-0.7,0.2-1.2,1-1.4,1.7c-0.2,0.7-0.2,1.5-0.3,2.3c0,0.2-0.1,0.5-0.3,0.6c-0.2,0.1-0.4,0.1-0.6,0.2
			c-0.6,0-1.3,0-1.9,0.2c-0.6,0.2-1.2,0.6-1.4,1.2c-0.2,0.6,0.1,1.3,0.2,1.9c0.1,0.6-0.1,1.5-0.8,1.6c-0.9,0.1-1.6-1.2-2.4-0.7
			c-0.7,0.4-0.3,1.9-1.2,2.1c-0.3,0.1-0.6-0.1-0.9-0.4c-0.6-0.5-1.1-1.1-1.5-1.7c-0.8,0.5-2,0.8-2.7,0.1c-0.7-0.8-0.2-2.2-0.9-3.1
			c-0.5-0.6-1.4-0.7-2.2-0.8c-0.8-0.1-1.7-0.7-1.6-1.5c0-0.3,0.2-0.5,0.2-0.8c0.1-0.7-0.7-1.3-1.4-1.5c-0.7-0.2-1.5-0.1-2.2-0.3
			c-0.2-0.1-0.5-0.2-0.6-0.5c-0.3-0.6,0.5-1.3,0.4-2.1c0-0.6-0.5-1-1.1-1.2c-0.6-0.2-1.1-0.1-1.7-0.2c-0.7-0.1-1.3-0.3-1.9-0.6
			c-0.2-0.1-0.5-0.3-0.6-0.6c-0.3-0.7,0.7-1.4,0.8-2.2c0.1-0.8-0.8-1.3-1.5-1.6c-0.7-0.3-1.6-0.5-1.9-1.2c-0.3-0.6,0-1.4,0.5-1.8
			c0.5-0.4,1.2-0.6,1.8-0.8c0.3-0.1,0.5-0.1,0.7-0.3c0.8-0.7-0.3-2,0.2-3c0.3-0.7,1.4-0.7,2.2-0.6c0.8,0.1,1.8,0.2,2.3-0.4
			c0.6-0.8-0.1-2.1,0.5-2.8c0.8-0.8,2.3,0.3,3.3-0.2c0.7-0.4,0.9-1.3,1-2.1c0.2-0.8,0.7-1.7,1.5-1.7c0.5,0.1,1,0.6,1.5,0.5
			c1-0.2,0.5-2.2,1.5-2.5c0.6,0.9,0.8,0.8,1.5,0.2C113.6,15.6,114.1,15.1,114.8,14.9z"/>
		<path class="st7" d="M113.8,20c-0.5,0.2-1,0.6-1.4,1c-2.8,2.4-5.5,4.8-8.3,7.2c-0.5,0.5-1.1,1-1.2,1.7c-0.2,1.1,0.9,1.5,1.7,1.9
			c2.8,1.1,4.9,3.5,8,3.9c1.3,0.1,2.7-0.1,4.1-0.3c3.2-0.6,6.5-1.1,9.7-1.7c0.6-0.1,1.3-0.3,1.8-0.8c0.7-0.9,0.1-1.9-0.5-2.5
			c-1-1.1-2.2-1.9-3.5-2.6c-1.3-0.7-2.7-1.2-3.8-2.2c-2-1.7-3-4.2-5.6-5.2C114.7,19.8,114.2,19.8,113.8,20z"/>
		<path class="st8" d="M113,22.7c-1.2,0.6-2.2,1.5-3,2.6c-0.1,0.1-0.2,0.3-0.2,0.5c0,0.1,0.1,0.3,0.2,0.4c0.4,0.5,1.2,0.4,1.8,0
			c0.5-0.3,1-0.8,1.5-1.2c0.9-0.5,2-0.4,2.8,0.2c0.4,0.3,0.7,0.8,1.2,1c0.5,0.3,1.2,0.2,1.4-0.2c0.2-0.5-0.2-1-0.6-1.3
			C116.6,23.5,115,21.6,113,22.7z"/>
		<path class="st9" d="M101,30.7c0,1,0.6,1.8,1.2,2.6c2.8,3.6,6.3,6.8,10.1,9.4c1,0.7,2.1,1.4,3.3,1.7c0.5,0.2,1.1,0.3,1.6,0.2
			c0.8-0.2,1.5-0.8,2.1-1.5c3-3.4,5.4-7.4,9.1-9.9c0.3-0.2,0.7-0.7,0.3-0.9c-0.1-0.1-0.2-0.1-0.3-0.1c-0.7,0-1.2,0.4-1.7,0.8
			c-2,1.5-3.9,3.3-6.2,4.5c-2.2,1.2-5,1.8-7.3,0.8c-0.8-0.3-1.4-0.8-2.1-1.3c-2.6-1.9-5-4.1-7.1-6.5c-0.3-0.3-0.6-0.7-0.5-1.1
			c0.1-0.5,0.8-0.9,0.6-1.5C102.8,28.5,101,29.2,101,30.7z"/>
		<g>
			<path class="st10" d="M128.7,32.3c-0.1,0.1-0.2,0.2-0.3,0.3c-3.7,2.5-6.1,6.5-9.1,9.9c-0.6,0.6-1.2,1.3-2.1,1.5
				c-0.5,0.1-1.1,0-1.6-0.2c-1.2-0.4-2.2-1-3.3-1.7c-3.8-2.6-7.2-5.8-10.1-9.4c-0.6-0.8-1.2-1.6-1.2-2.6c-0.1,0.2-0.1,0.4-0.1,0.6
				c0,1,0.6,1.8,1.2,2.6c2.8,3.6,6.3,6.8,10.1,9.4c1,0.7,2.1,1.4,3.3,1.7c0.5,0.2,1.1,0.3,1.6,0.2c0.8-0.2,1.5-0.8,2.1-1.5
				c3-3.4,5.4-7.4,9.1-9.9C128.6,32.9,128.9,32.5,128.7,32.3z"/>
			<path class="st10" d="M103.4,28.8c0,0.1,0,0.2,0,0.3c0.2-0.4,0.7-0.7,0.5-1.2C103.7,28.2,103.5,28.5,103.4,28.8z"/>
		</g>
	</g>
	<g>
		<path class="st5" d="M129.2,32.2c0.1-0.2,0.1-0.4,0.3-0.5c0.2-0.1,0.5,0,0.7,0.1c1.2,0.5,2.7,0,3.3-1.1c0.3-0.5,0.4-1.1,0.9-1.4
			c1.1-0.5,2,1.2,3.2,1.2c1.5,0,1.8-2.6,3.2-2.7c1-0.1,1.7,1.2,2.7,1.2c1.5,0,2.1-2.4,3.5-2.4c0.7,0,1.2,0.6,1.9,0.8
			c1.7,0.4,3.1-1.9,4.9-1.9c0.2,0,0.5,0,0.7,0.2c0.1,0.1,0.2,0.3,0.3,0.4c0.2,0.5,0,1.1,0,1.6c0,0.5,0.1,1.2,0.6,1.4
			c0.5,0.3,1.4,0,1.7,0.5c0.3,0.5-0.4,1-0.8,1.4c-0.9,0.9-0.5,2.6,0.7,3.1c0.4,0.2,1,0.3,1.1,0.7c0.1,0.2,0,0.5-0.1,0.7
			c-0.3,0.6-1,1.1-1.2,1.8c-0.2,0.7,0.1,1.5,0.7,2.1c0.5,0.6,1.1,1,1.7,1.5c0.2,0.2,0.3,0.3,0.3,0.6c0,0.2-0.1,0.4-0.2,0.6
			c-0.3,0.5-0.7,1.1-0.9,1.7c-0.2,0.6-0.2,1.3,0.2,1.8c0.4,0.5,1.1,0.6,1.7,0.9c0.6,0.3,1.2,0.9,0.9,1.5c-0.4,0.8-1.9,0.7-2,1.6
			c-0.1,0.8,1.4,1.3,1.1,2.1c-0.1,0.3-0.5,0.5-0.8,0.5c-0.7,0.2-1.5,0.3-2.3,0.3c-0.1,1-0.5,2.1-1.4,2.2c-1.1,0.2-2-1.1-3-1
			c-0.8,0.1-1.3,0.8-1.9,1.4c-0.6,0.6-1.5,1-2.1,0.5c-0.2-0.2-0.3-0.4-0.5-0.6c-0.6-0.5-1.5-0.2-2,0.3c-0.5,0.5-0.9,1.2-1.5,1.6
			c-0.2,0.1-0.5,0.3-0.7,0.2c-0.7-0.1-0.9-1.1-1.5-1.5c-0.5-0.3-1.2-0.1-1.6,0.3c-0.4,0.4-0.7,0.9-1.1,1.3c-0.4,0.5-1,0.9-1.6,1.2
			c-0.3,0.1-0.5,0.2-0.8,0.2c-0.8-0.2-0.8-1.4-1.4-1.9c-0.6-0.5-1.5-0.1-2.2,0.4c-0.6,0.5-1.3,1.1-2.1,0.9c-0.7-0.1-1.1-0.8-1.2-1.4
			c-0.1-0.7,0.1-1.3,0.4-1.9c0.1-0.2,0.2-0.5,0.2-0.8c-0.1-1-1.9-0.9-2.4-1.8c-0.4-0.7,0.2-1.6,0.7-2.2c0.6-0.6,1.2-1.4,0.9-2.1
			c-0.4-0.9-1.8-1.1-2-2c-0.2-1.1,1.5-1.7,1.6-2.8c0.1-0.8-0.6-1.4-1.2-2c-0.6-0.6-1.1-1.5-0.6-2.1c0.3-0.4,1-0.5,1.2-1
			c0.4-1-1.5-1.6-1.3-2.6c1.1,0,1.1-0.2,1-1.1C129.1,33.5,129,32.9,129.2,32.2z"/>
		<path class="st6" d="M128.3,31.9c0.1-0.2,0.1-0.4,0.3-0.5c0.2-0.1,0.5,0,0.7,0.1c1.2,0.5,2.7,0,3.3-1.1c0.3-0.5,0.4-1.1,0.9-1.4
			c1.1-0.5,2,1.2,3.2,1.2c1.5,0,1.8-2.6,3.2-2.7c1-0.1,1.7,1.2,2.7,1.2c1.5,0,2.1-2.4,3.5-2.4c0.7,0,1.2,0.6,1.9,0.8
			c1.7,0.4,3.1-1.9,4.9-1.9c0.2,0,0.5,0,0.7,0.2c0.1,0.1,0.2,0.3,0.3,0.4c0.2,0.5,0,1.1,0,1.6c0,0.5,0.1,1.2,0.6,1.4
			c0.5,0.3,1.4,0,1.7,0.5c0.3,0.5-0.4,1-0.8,1.4c-0.9,0.9-0.5,2.6,0.7,3.1c0.4,0.2,1,0.3,1.1,0.7c0.1,0.2,0,0.5-0.1,0.7
			c-0.3,0.6-1,1.1-1.2,1.8c-0.2,0.7,0.1,1.5,0.7,2.1c0.5,0.6,1.1,1,1.7,1.5c0.2,0.2,0.3,0.3,0.3,0.6c0,0.2-0.1,0.4-0.2,0.6
			c-0.3,0.5-0.7,1.1-0.9,1.7c-0.2,0.6-0.2,1.3,0.2,1.8c0.4,0.5,1.1,0.6,1.7,0.9c0.6,0.3,1.2,0.9,0.9,1.5c-0.4,0.8-1.9,0.7-2,1.6
			c-0.1,0.8,1.4,1.3,1.1,2.1c-0.1,0.3-0.5,0.5-0.8,0.5c-0.7,0.2-1.5,0.3-2.3,0.3c-0.1,1-0.5,2.1-1.4,2.2c-1.1,0.2-2-1.1-3-1
			c-0.8,0.1-1.3,0.8-1.9,1.4c-0.6,0.6-1.5,1-2.1,0.5c-0.2-0.2-0.3-0.4-0.5-0.6c-0.6-0.5-1.5-0.2-2,0.3c-0.5,0.5-0.9,1.2-1.5,1.6
			c-0.2,0.1-0.5,0.3-0.7,0.2c-0.7-0.1-0.9-1.1-1.5-1.5c-0.5-0.3-1.2-0.1-1.6,0.3c-0.4,0.4-0.7,0.9-1.1,1.3c-0.4,0.5-1,0.9-1.6,1.2
			c-0.3,0.1-0.5,0.2-0.8,0.2c-0.8-0.2-0.8-1.4-1.4-1.9c-0.6-0.5-1.5-0.1-2.2,0.4c-0.6,0.5-1.3,1.1-2.1,0.9c-0.7-0.1-1.1-0.8-1.2-1.4
			c-0.1-0.7,0.1-1.3,0.4-1.9c0.1-0.2,0.2-0.5,0.2-0.8c-0.1-1-1.9-0.9-2.4-1.8c-0.4-0.7,0.2-1.6,0.7-2.2c0.6-0.6,1.2-1.4,0.9-2.1
			c-0.4-0.9-1.8-1.1-2-2c-0.2-1.1,1.5-1.7,1.6-2.8c0.1-0.8-0.6-1.4-1.2-2c-0.6-0.6-1.1-1.5-0.6-2.1c0.3-0.4,1-0.5,1.2-1
			c0.4-1-1.5-1.6-1.3-2.6c1.1,0,1.1-0.2,1-1.1C128.2,33.2,128.1,32.6,128.3,31.9z"/>
		<path class="st7" d="M132,35.5c-0.1,0.5-0.1,1.2,0,1.7c0.5,3.6,0.9,7.3,1.4,10.9c0.1,0.7,0.2,1.5,0.7,1.9c0.8,0.8,1.8,0.1,2.5-0.4
			c2.4-1.7,5.7-2.1,7.7-4.5c0.8-1,1.4-2.3,2-3.6c1.3-3,2.7-6,4-9c0.3-0.6,0.5-1.3,0.3-1.9c-0.4-1-1.5-1.2-2.4-1
			c-1.5,0.3-2.8,0.8-4.2,1.5c-1.3,0.7-2.5,1.6-3.9,2c-2.5,0.7-5.2,0.1-7.4,1.7C132.4,34.6,132.1,35.1,132,35.5z"/>
		<path class="st8" d="M133.8,37.7c-0.1,1.3,0,2.7,0.5,4c0.1,0.2,0.1,0.3,0.3,0.4c0.1,0.1,0.3,0.1,0.4,0.1c0.6-0.1,1-0.8,1-1.5
			c0-0.6-0.2-1.3-0.1-1.9c0.1-1,0.8-1.9,1.7-2.2c0.5-0.2,1-0.2,1.5-0.4c0.5-0.2,0.8-0.8,0.6-1.3c-0.3-0.4-0.9-0.4-1.4-0.3
			C136.5,35.1,134,35.4,133.8,37.7z"/>
		<path class="st9" d="M133.7,52.1c0.8,0.5,1.9,0.5,2.8,0.5c4.6-0.3,9.1-1.4,13.4-3.1c1.2-0.5,2.3-1,3.3-1.7c0.4-0.3,0.8-0.8,1-1.3
			c0.3-0.8,0.1-1.7-0.1-2.5c-1.1-4.4-3.2-8.6-3.1-13.1c0-0.4-0.2-1-0.6-0.8c-0.1,0-0.2,0.1-0.2,0.2c-0.3,0.6-0.3,1.3-0.3,1.9
			c0.1,2.5,0.5,5.1,0.3,7.6c-0.2,2.5-1.3,5.2-3.4,6.6c-0.7,0.5-1.4,0.8-2.2,1.1c-3,1.1-6.2,1.9-9.4,2.3c-0.4,0.1-0.9,0.1-1.2-0.2
			c-0.4-0.4-0.3-1.2-0.9-1.3C132.9,49.4,132.5,51.3,133.7,52.1z"/>
		<g>
			<path class="st10" d="M150.5,30c0,0.1,0.1,0.3,0.1,0.4c0,4.5,2,8.7,3.1,13.1c0.2,0.8,0.4,1.7,0.1,2.5c-0.2,0.5-0.6,0.9-1,1.3
				c-1,0.8-2.1,1.3-3.3,1.7c-4.3,1.7-8.8,2.8-13.4,3.1c-1,0.1-2,0.1-2.8-0.4c0.1,0.2,0.2,0.3,0.4,0.4c0.8,0.5,1.9,0.5,2.8,0.5
				c4.6-0.3,9.1-1.4,13.4-3.1c1.2-0.5,2.3-1,3.3-1.7c0.4-0.3,0.8-0.8,1-1.3c0.3-0.8,0.1-1.7-0.1-2.5c-1.1-4.4-3.2-8.6-3.1-13.1
				C151,30.5,150.8,30,150.5,30z"/>
			<path class="st10" d="M133.5,49.1c0.1,0.1,0.2,0.1,0.3,0.2c-0.2-0.4-0.2-1-0.7-1.1C133.2,48.5,133.3,48.8,133.5,49.1z"/>
		</g>
	</g>
	<g>
		<path class="st5" d="M89.9,39.8c0.2-0.1,0.4-0.2,0.6-0.1c0.2,0.1,0.3,0.4,0.4,0.6c0.4,1.2,1.7,2,3,1.8c0.6-0.1,1.1-0.4,1.7-0.2
			c1.1,0.5,0.4,2.3,1.2,3.2c1,1.1,3.1-0.4,4.2,0.7c0.7,0.7,0.2,2.1,0.9,2.8c0.9,1.2,3.2,0,4.2,1.1c0.4,0.5,0.4,1.3,0.7,1.9
			c0.8,1.6,3.4,1.1,4.6,2.5c0.2,0.2,0.3,0.4,0.3,0.6c0,0.2-0.1,0.3-0.1,0.5c-0.3,0.5-0.8,0.7-1.2,1c-0.4,0.3-0.8,0.8-0.7,1.4
			c0.1,0.6,0.9,1,0.7,1.6c-0.2,0.5-1,0.3-1.6,0.3c-1.2-0.1-2.3,1.3-1.9,2.5c0.1,0.4,0.5,0.9,0.2,1.3c-0.1,0.2-0.4,0.3-0.6,0.3
			c-0.7,0.2-1.5,0-2.2,0.3c-0.7,0.3-1.1,1.1-1.2,1.9c-0.1,0.8,0,1.5-0.1,2.3c0,0.2-0.1,0.5-0.2,0.6c-0.1,0.1-0.4,0.2-0.6,0.2
			c-0.6,0.1-1.3,0.2-1.9,0.4c-0.6,0.3-1.1,0.7-1.2,1.4c-0.1,0.6,0.3,1.3,0.4,1.9c0.2,0.6,0,1.5-0.6,1.7c-0.8,0.2-1.7-1-2.5-0.5
			c-0.7,0.5-0.1,1.9-0.9,2.2c-0.3,0.1-0.7-0.1-0.9-0.3c-0.6-0.4-1.2-0.9-1.7-1.5c-0.8,0.6-1.9,1-2.6,0.4c-0.8-0.7-0.5-2.2-1.2-3
			c-0.6-0.6-1.5-0.5-2.3-0.6c-0.8-0.1-1.8-0.5-1.8-1.3c0-0.3,0.1-0.5,0.1-0.8c0-0.8-0.8-1.2-1.6-1.3c-0.7-0.1-1.5,0.1-2.2-0.1
			c-0.2-0.1-0.5-0.2-0.6-0.4c-0.4-0.6,0.3-1.4,0.2-2.1c-0.1-0.6-0.7-1-1.2-1c-0.6-0.1-1.2,0-1.7,0c-0.7,0-1.4-0.1-2-0.4
			c-0.3-0.1-0.5-0.3-0.6-0.5c-0.4-0.7,0.5-1.5,0.5-2.3c0-0.8-0.9-1.2-1.7-1.4c-0.8-0.2-1.7-0.3-2.1-1c-0.3-0.6-0.1-1.4,0.3-1.9
			c0.4-0.5,1.1-0.8,1.7-1c0.2-0.1,0.5-0.2,0.7-0.3c0.7-0.7-0.5-2-0.2-3c0.3-0.8,1.3-0.9,2.1-0.9c0.8,0,1.8,0,2.2-0.7
			c0.5-0.9-0.4-2.1,0.2-2.8c0.7-0.9,2.3,0,3.2-0.6c0.7-0.4,0.7-1.4,0.8-2.2c0.1-0.8,0.4-1.8,1.3-1.8c0.5,0,1,0.5,1.6,0.3
			c1-0.3,0.2-2.2,1.2-2.7c0.7,0.8,0.9,0.7,1.5,0.1C88.8,40.6,89.2,40.1,89.9,39.8z"/>
		<path class="st6" d="M89.5,38.9c0.2-0.1,0.4-0.2,0.6-0.1c0.2,0.1,0.3,0.4,0.4,0.6c0.4,1.2,1.7,2,3,1.8c0.6-0.1,1.1-0.4,1.7-0.2
			c1.1,0.5,0.4,2.3,1.2,3.2c1,1.1,3.1-0.4,4.2,0.7c0.7,0.7,0.2,2.1,0.9,2.8c0.9,1.2,3.2,0,4.2,1.1c0.4,0.5,0.4,1.3,0.7,1.9
			c0.8,1.6,3.4,1.1,4.6,2.5c0.2,0.2,0.3,0.4,0.3,0.6c0,0.2-0.1,0.3-0.1,0.5c-0.3,0.5-0.8,0.7-1.2,1c-0.4,0.3-0.8,0.8-0.7,1.4
			c0.1,0.6,0.9,1,0.7,1.6c-0.2,0.5-1,0.3-1.6,0.3c-1.2-0.1-2.3,1.3-1.9,2.5c0.1,0.4,0.5,0.9,0.2,1.3c-0.1,0.2-0.4,0.3-0.6,0.3
			c-0.7,0.2-1.5,0-2.2,0.3c-0.7,0.3-1.1,1.1-1.2,1.9c-0.1,0.8,0,1.5-0.1,2.3c0,0.2-0.1,0.5-0.2,0.6c-0.1,0.1-0.4,0.2-0.6,0.2
			c-0.6,0.1-1.3,0.2-1.9,0.4c-0.6,0.3-1.1,0.7-1.2,1.4c-0.1,0.6,0.3,1.3,0.4,1.9c0.2,0.6,0,1.5-0.6,1.7c-0.8,0.2-1.7-1-2.5-0.5
			c-0.7,0.5-0.1,1.9-0.9,2.2c-0.3,0.1-0.7-0.1-0.9-0.3c-0.6-0.4-1.2-0.9-1.7-1.5c-0.8,0.6-1.9,1-2.6,0.4c-0.8-0.7-0.5-2.2-1.2-3
			c-0.6-0.6-1.5-0.5-2.3-0.6c-0.8-0.1-1.8-0.5-1.8-1.3c0-0.3,0.1-0.5,0.1-0.8c0-0.8-0.8-1.2-1.6-1.3c-0.7-0.1-1.5,0.1-2.2-0.1
			c-0.2-0.1-0.5-0.2-0.6-0.4c-0.4-0.6,0.3-1.4,0.2-2.1c-0.1-0.6-0.7-1-1.2-1c-0.6-0.1-1.2,0-1.7,0c-0.7,0-1.4-0.1-2-0.4
			c-0.3-0.1-0.5-0.3-0.6-0.5c-0.4-0.7,0.5-1.5,0.5-2.3c0-0.8-0.9-1.2-1.7-1.4c-0.8-0.2-1.7-0.3-2.1-1c-0.3-0.6-0.1-1.4,0.3-1.9
			c0.4-0.5,1.1-0.8,1.7-1c0.2-0.1,0.5-0.2,0.7-0.3c0.7-0.7-0.5-2-0.2-3c0.3-0.8,1.3-0.9,2.1-0.9c0.8,0,1.8,0,2.2-0.7
			c0.5-0.9-0.4-2.1,0.2-2.8c0.7-0.9,2.3,0,3.2-0.6c0.7-0.4,0.7-1.4,0.8-2.2c0.1-0.8,0.4-1.8,1.3-1.8c0.5,0,1,0.5,1.6,0.3
			c1-0.3,0.2-2.2,1.2-2.7c0.7,0.8,0.9,0.7,1.5,0.1C88.4,39.7,88.8,39.2,89.5,38.9z"/>
		<path class="st7" d="M89.2,44.1c-0.5,0.3-0.9,0.7-1.3,1.2c-2.5,2.7-4.9,5.4-7.4,8.1c-0.5,0.5-1,1.1-1,1.8
			c-0.1,1.1,1.1,1.4,1.9,1.6c2.9,0.7,5.3,2.9,8.4,2.9c1.3,0,2.7-0.4,4-0.8c3.1-0.9,6.3-1.9,9.4-2.8c0.6-0.2,1.3-0.4,1.6-1
			c0.5-1-0.1-1.9-0.8-2.4c-1.2-0.9-2.4-1.7-3.8-2.2c-1.4-0.5-2.8-0.9-4.1-1.7c-2.2-1.5-3.4-3.9-6.1-4.5C90,43.8,89.6,43.9,89.2,44.1
			z"/>
		<path class="st8" d="M88.7,46.9c-1.1,0.8-2,1.8-2.7,3c-0.1,0.2-0.2,0.3-0.1,0.5c0,0.1,0.1,0.3,0.2,0.4c0.5,0.4,1.3,0.2,1.8-0.2
			c0.5-0.4,0.9-1,1.4-1.3c0.8-0.6,1.9-0.6,2.8-0.1c0.4,0.3,0.8,0.7,1.3,0.9c0.5,0.2,1.2,0.1,1.3-0.4c0.2-0.5-0.3-1-0.7-1.3
			C92.4,47.3,90.5,45.6,88.7,46.9z"/>
		<path class="st9" d="M77.6,56.2c0.1,1,0.8,1.8,1.5,2.4c3.2,3.3,7,6,11.1,8.2c1.1,0.6,2.2,1.1,3.4,1.4c0.5,0.1,1.1,0.1,1.6,0
			c0.8-0.3,1.4-1,1.9-1.7c2.6-3.7,4.5-8,7.9-10.9c0.3-0.3,0.6-0.8,0.2-1c-0.1,0-0.2,0-0.3,0c-0.6,0.1-1.2,0.6-1.6,1
			c-1.9,1.7-3.5,3.7-5.6,5.2c-2.1,1.5-4.7,2.4-7.2,1.7c-0.8-0.2-1.5-0.6-2.2-1c-2.8-1.6-5.5-3.5-7.9-5.7c-0.3-0.3-0.6-0.6-0.6-1.1
			c0-0.6,0.7-1,0.4-1.6C79.2,53.8,77.5,54.8,77.6,56.2z"/>
		<g>
			<path class="st10" d="M105.3,54.6c-0.1,0.1-0.2,0.2-0.3,0.3c-3.4,2.9-5.3,7.2-7.9,10.9c-0.5,0.7-1.1,1.4-1.9,1.7
				c-0.5,0.2-1.1,0.1-1.6,0c-1.2-0.2-2.3-0.8-3.4-1.4c-4.1-2.1-7.9-4.9-11.1-8.2c-0.7-0.7-1.3-1.5-1.5-2.4c0,0.2-0.1,0.4,0,0.6
				c0.1,1,0.8,1.8,1.5,2.4c3.2,3.3,7,6,11.1,8.2c1.1,0.6,2.2,1.1,3.4,1.4c0.5,0.1,1.1,0.1,1.6,0c0.8-0.3,1.4-1,1.9-1.7
				c2.6-3.7,4.5-8,7.9-10.9C105.3,55.2,105.6,54.8,105.3,54.6z"/>
			<path class="st10" d="M79.8,54.1c0,0.1,0,0.2,0,0.3c0.2-0.4,0.6-0.8,0.4-1.2C80.1,53.4,79.9,53.7,79.8,54.1z"/>
		</g>
	</g>
	<g>
		<path class="st5" d="M154.7,88.3c0.2-0.1,0.4-0.1,0.6,0c0.2,0.1,0.3,0.4,0.3,0.6c0.3,1.2,1.6,2.1,2.9,2c0.6-0.1,1.2-0.3,1.7-0.1
			c1,0.6,0.2,2.3,0.9,3.3c0.9,1.2,3.2-0.1,4.1,1c0.6,0.8,0.1,2.1,0.7,2.9c0.9,1.2,3.2,0.2,4.1,1.4c0.4,0.6,0.3,1.3,0.5,2
			c0.7,1.7,3.4,1.4,4.5,2.8c0.1,0.2,0.3,0.4,0.2,0.6c0,0.2-0.1,0.3-0.2,0.5c-0.3,0.4-0.8,0.7-1.3,1c-0.4,0.3-0.9,0.8-0.8,1.3
			c0.1,0.6,0.8,1.1,0.6,1.6c-0.3,0.5-1,0.3-1.6,0.2c-1.2-0.2-2.4,1.2-2.1,2.4c0.1,0.5,0.4,1,0.1,1.3c-0.1,0.2-0.4,0.3-0.6,0.3
			c-0.7,0.1-1.5-0.1-2.2,0.1c-0.7,0.3-1.1,1-1.3,1.8c-0.2,0.7-0.1,1.5-0.2,2.3c0,0.2-0.1,0.5-0.3,0.6c-0.2,0.1-0.4,0.2-0.6,0.2
			c-0.6,0.1-1.3,0.1-1.9,0.3s-1.2,0.7-1.3,1.3c-0.1,0.6,0.2,1.3,0.3,1.9c0.1,0.6-0.1,1.5-0.7,1.6c-0.9,0.2-1.7-1.1-2.4-0.6
			c-0.7,0.4-0.3,1.9-1.1,2.1c-0.3,0.1-0.6-0.1-0.9-0.3c-0.6-0.5-1.2-1-1.6-1.6c-0.8,0.5-2,0.9-2.7,0.2c-0.8-0.8-0.3-2.2-1-3
			c-0.5-0.6-1.4-0.6-2.2-0.7c-0.8-0.1-1.7-0.6-1.7-1.4c0-0.3,0.1-0.5,0.2-0.8c0.1-0.7-0.7-1.3-1.5-1.4c-0.7-0.1-1.5,0-2.2-0.3
			c-0.2-0.1-0.5-0.2-0.6-0.4c-0.4-0.6,0.4-1.4,0.3-2.1c0-0.6-0.6-1-1.2-1.1c-0.6-0.1-1.1-0.1-1.7-0.1c-0.7,0-1.3-0.2-1.9-0.5
			c-0.2-0.1-0.5-0.3-0.6-0.6c-0.3-0.7,0.6-1.4,0.7-2.2c0-0.8-0.8-1.3-1.6-1.5c-0.8-0.2-1.6-0.4-2-1.1c-0.3-0.6-0.1-1.4,0.4-1.8
			c0.5-0.5,1.1-0.7,1.8-0.9c0.3-0.1,0.5-0.1,0.7-0.3c0.8-0.7-0.4-2,0-3c0.3-0.8,1.3-0.8,2.2-0.7c0.8,0.1,1.8,0.2,2.2-0.5
			c0.5-0.8-0.2-2.1,0.4-2.8c0.8-0.8,2.3,0.2,3.3-0.4c0.7-0.4,0.8-1.3,0.9-2.2c0.1-0.8,0.6-1.8,1.4-1.7c0.5,0,1,0.5,1.5,0.4
			c1-0.3,0.4-2.2,1.4-2.6c0.7,0.9,0.8,0.8,1.5,0.2C153.5,89.1,154,88.6,154.7,88.3z"/>
		<path class="st6" d="M154.4,87.4c0.2-0.1,0.4-0.1,0.6,0c0.2,0.1,0.3,0.4,0.3,0.6c0.3,1.2,1.6,2.1,2.9,2c0.6-0.1,1.2-0.3,1.7-0.1
			c1,0.6,0.2,2.3,0.9,3.3c0.9,1.2,3.2-0.1,4.1,1c0.6,0.8,0.1,2.1,0.7,2.9c0.9,1.2,3.2,0.2,4.1,1.4c0.4,0.6,0.3,1.3,0.5,2
			c0.7,1.7,3.4,1.4,4.5,2.8c0.1,0.2,0.3,0.4,0.2,0.6c0,0.2-0.1,0.3-0.2,0.5c-0.3,0.4-0.8,0.7-1.3,1c-0.4,0.3-0.9,0.8-0.8,1.3
			c0.1,0.6,0.8,1.1,0.6,1.6c-0.3,0.5-1,0.3-1.6,0.2c-1.2-0.2-2.4,1.2-2.1,2.4c0.1,0.5,0.4,1,0.1,1.3c-0.1,0.2-0.4,0.3-0.6,0.3
			c-0.7,0.1-1.5-0.1-2.2,0.1c-0.7,0.3-1.1,1-1.3,1.8c-0.2,0.7-0.1,1.5-0.2,2.3c0,0.2-0.1,0.5-0.3,0.6c-0.2,0.1-0.4,0.2-0.6,0.2
			c-0.6,0.1-1.3,0.1-1.9,0.3s-1.2,0.7-1.3,1.3c-0.1,0.6,0.2,1.3,0.3,1.9c0.1,0.6-0.1,1.5-0.7,1.6c-0.9,0.2-1.7-1.1-2.4-0.6
			c-0.7,0.4-0.3,1.9-1.1,2.1c-0.3,0.1-0.6-0.1-0.9-0.3c-0.6-0.5-1.2-1-1.6-1.6c-0.8,0.5-2,0.9-2.7,0.2c-0.8-0.8-0.3-2.2-1-3
			c-0.5-0.6-1.4-0.6-2.2-0.7c-0.8-0.1-1.7-0.6-1.7-1.4c0-0.3,0.1-0.5,0.2-0.8c0.1-0.7-0.7-1.3-1.5-1.4c-0.7-0.1-1.5,0-2.2-0.3
			c-0.2-0.1-0.5-0.2-0.6-0.4c-0.4-0.6,0.4-1.4,0.3-2.1c0-0.6-0.6-1-1.2-1.1c-0.6-0.1-1.1-0.1-1.7-0.1c-0.7,0-1.3-0.2-1.9-0.5
			c-0.2-0.1-0.5-0.3-0.6-0.6c-0.3-0.7,0.6-1.4,0.7-2.2c0-0.8-0.8-1.3-1.6-1.5c-0.8-0.2-1.6-0.4-2-1.1c-0.3-0.6-0.1-1.4,0.4-1.8
			c0.5-0.5,1.1-0.7,1.8-0.9c0.3-0.1,0.5-0.1,0.7-0.3c0.8-0.7-0.4-2,0-3c0.3-0.8,1.3-0.8,2.2-0.7c0.8,0.1,1.8,0.2,2.2-0.5
			c0.5-0.8-0.2-2.1,0.4-2.8c0.8-0.8,2.3,0.2,3.3-0.4c0.7-0.4,0.8-1.3,0.9-2.2c0.1-0.8,0.6-1.8,1.4-1.7c0.5,0,1,0.5,1.5,0.4
			c1-0.3,0.4-2.2,1.3-2.6c0.7,0.9,0.8,0.8,1.5,0.2C153.2,88.2,153.7,87.7,154.4,87.4z"/>
		<path class="st7" d="M153.7,92.6c-0.5,0.2-1,0.6-1.4,1.1c-2.6,2.5-5.3,5.1-7.9,7.6c-0.5,0.5-1.1,1.1-1.2,1.7
			c-0.2,1.1,0.9,1.5,1.8,1.8c2.9,0.9,5,3.3,8.1,3.5c1.3,0.1,2.7-0.2,4.1-0.5c3.2-0.7,6.4-1.4,9.6-2.1c0.6-0.1,1.3-0.3,1.7-0.9
			c0.6-0.9,0-1.9-0.6-2.5c-1.1-1-2.3-1.8-3.6-2.5c-1.3-0.6-2.8-1.1-3.9-2c-2.1-1.6-3.1-4.1-5.8-5C154.6,92.3,154.1,92.4,153.7,92.6z
			"/>
		<path class="st8" d="M153,95.3c-1.2,0.7-2.1,1.6-2.9,2.8c-0.1,0.1-0.2,0.3-0.2,0.5c0,0.1,0.1,0.3,0.2,0.4c0.5,0.5,1.2,0.3,1.8-0.1
			c0.5-0.4,0.9-0.9,1.5-1.2c0.8-0.5,2-0.5,2.8,0.1c0.4,0.3,0.7,0.7,1.2,1c0.5,0.2,1.2,0.2,1.4-0.3c0.2-0.5-0.2-1-0.6-1.3
			C156.6,96,154.9,94.2,153,95.3z"/>
		<path class="st9" d="M141.3,103.8c0,1,0.7,1.8,1.3,2.5c3,3.5,6.6,6.5,10.5,8.9c1.1,0.7,2.1,1.3,3.3,1.6c0.5,0.1,1.1,0.2,1.6,0.1
			c0.8-0.2,1.5-0.9,2-1.6c2.8-3.5,5-7.6,8.7-10.3c0.3-0.2,0.7-0.8,0.3-0.9c-0.1-0.1-0.2-0.1-0.3,0c-0.6,0.1-1.2,0.5-1.7,0.9
			c-2,1.6-3.8,3.4-6,4.8s-4.9,2-7.3,1.2c-0.8-0.3-1.5-0.7-2.2-1.2c-2.7-1.8-5.2-3.9-7.4-6.2c-0.3-0.3-0.6-0.7-0.5-1.1
			c0.1-0.6,0.8-1,0.5-1.5C143,101.5,141.2,102.4,141.3,103.8z"/>
		<g>
			<path class="st10" d="M169,104.2c-0.1,0.1-0.2,0.2-0.3,0.3c-3.6,2.7-5.8,6.8-8.7,10.3c-0.5,0.7-1.2,1.4-2,1.6
				c-0.5,0.1-1.1,0.1-1.6-0.1c-1.2-0.3-2.3-0.9-3.3-1.6c-3.9-2.4-7.5-5.4-10.5-8.9c-0.6-0.7-1.2-1.5-1.3-2.5
				c-0.1,0.2-0.1,0.4-0.1,0.6c0,1,0.7,1.8,1.3,2.5c3,3.5,6.6,6.5,10.5,8.9c1.1,0.7,2.1,1.3,3.3,1.6c0.5,0.1,1.1,0.2,1.6,0.1
				c0.8-0.2,1.5-0.9,2-1.6c2.8-3.5,5-7.6,8.7-10.3C169,104.9,169.3,104.4,169,104.2z"/>
			<path class="st10" d="M143.6,101.9c0,0.1,0,0.2,0,0.3c0.2-0.4,0.6-0.8,0.4-1.2C143.9,101.3,143.7,101.5,143.6,101.9z"/>
		</g>
	</g>
	<g>
		<path class="st11" d="M154.2,79c0.7,0.1,1.3,0.1,2,0.2c0.3,0,0.5-0.2,0.5-0.5c0-0.3-0.2-0.5-0.5-0.5c-0.7-0.1-1.3-0.1-2-0.2
			c-0.3,0-0.5,0.2-0.5,0.5C153.7,78.8,153.9,79,154.2,79L154.2,79z"/>
	</g>
	<g>
		<path class="st11" d="M156.1,75.1c0.4,0.1,0.9,0.3,1.3,0.4c0.1,0,0.3,0,0.4-0.1c0.1-0.1,0.2-0.2,0.2-0.3c0.1-0.3-0.1-0.5-0.3-0.6
			c-0.4-0.1-0.9-0.3-1.3-0.4c-0.1,0-0.3,0-0.4,0.1c-0.1,0.1-0.2,0.2-0.2,0.3C155.7,74.8,155.9,75,156.1,75.1L156.1,75.1z"/>
	</g>
	<g>
		<path class="st11" d="M85.5,74.5c0.2,0.4,0.5,0.9,0.7,1.3c0.1,0.2,0.5,0.3,0.7,0.2c0.2-0.1,0.3-0.4,0.2-0.7
			c-0.2-0.4-0.5-0.9-0.7-1.3c-0.1-0.2-0.5-0.3-0.7-0.2C85.5,73.9,85.4,74.2,85.5,74.5L85.5,74.5z"/>
	</g>
	<g>
		<path class="st11" d="M84.7,78.2c0,0.1,0,0.2,0,0.2c0,0,0-0.1,0-0.1c0,0.3-0.1,0.5-0.2,0.8c0,0.1-0.1,0.1-0.1,0.2c0,0,0,0,0-0.1
			c0,0,0,0,0,0.1c0,0,0,0.1,0,0.1c-0.1,0.1-0.1,0.2-0.2,0.3c-0.1,0.2-0.1,0.6,0.2,0.7c0.2,0.1,0.5,0.1,0.7-0.2
			c0.4-0.6,0.6-1.3,0.6-2c0-0.3-0.2-0.5-0.5-0.5C84.9,77.8,84.7,78,84.7,78.2L84.7,78.2z"/>
	</g>
	<g>
		<path class="st11" d="M155.6,83.7c-0.1,0.4-0.2,0.8-0.3,1.2c0,0.1,0,0.3,0.1,0.4c0.1,0.1,0.2,0.2,0.3,0.2c0.1,0,0.3,0,0.4-0.1
			c0.1-0.1,0.2-0.2,0.2-0.3c0.1-0.4,0.2-0.8,0.3-1.2c0-0.1,0-0.3-0.1-0.4c-0.1-0.1-0.2-0.2-0.3-0.2c-0.1,0-0.3,0-0.4,0.1
			C155.7,83.5,155.6,83.6,155.6,83.7L155.6,83.7z"/>
	</g>
	<g>
		<path class="st11" d="M151.6,87.3c0,0.1,0.1,0.2,0.2,0.3c0.1,0.1,0.2,0.2,0.3,0.3c0.2,0.2,0.5,0.4,0.8,0.4c0.1,0,0.3,0,0.4-0.1
			c0.1-0.1,0.2-0.2,0.2-0.3c0-0.1,0-0.3-0.1-0.4c-0.1-0.1-0.2-0.2-0.3-0.2c-0.1,0-0.1,0-0.2-0.1c0,0,0.1,0,0.1,0.1
			c-0.1-0.1-0.2-0.1-0.3-0.2c0,0,0.1,0.1,0.1,0.1c-0.1-0.1-0.2-0.2-0.3-0.3c0,0,0.1,0.1,0.1,0.1c-0.1-0.1-0.1-0.2-0.2-0.3
			c0-0.1-0.2-0.2-0.3-0.2c-0.1,0-0.3,0-0.4,0.1c-0.1,0.1-0.2,0.2-0.2,0.3c0,0,0,0.1,0,0.1C151.6,87.1,151.6,87.2,151.6,87.3
			L151.6,87.3z"/>
	</g>
	<g>
		<path class="st11" d="M99.2,77c0.5,0.1,1.1,0.2,1.6,0.3c0.1,0,0.3,0,0.4-0.1c0.1-0.1,0.2-0.2,0.2-0.3c0.1-0.2-0.1-0.6-0.3-0.6
			c-0.5-0.1-1.1-0.2-1.6-0.3c-0.1,0-0.3,0-0.4,0.1c-0.1,0.1-0.2,0.2-0.2,0.3C98.8,76.6,98.9,76.9,99.2,77L99.2,77z"/>
	</g>
	<g>
		<path class="st11" d="M104.4,81.8c0.2,0,0.4-0.1,0.6-0.1c0.1,0,0.1,0,0.2-0.1c0.1,0,0.1-0.1,0.1-0.1c0-0.1,0.1-0.1,0.1-0.2
			c0-0.1,0-0.1,0-0.2c0-0.1-0.1-0.2-0.2-0.3c-0.1-0.1-0.3-0.1-0.4-0.1c-0.2,0-0.4,0.1-0.6,0.1c-0.1,0-0.1,0-0.2,0.1
			c-0.1,0-0.1,0.1-0.1,0.1c0,0.1-0.1,0.1-0.1,0.2c0,0.1,0,0.1,0,0.2c0,0.1,0.1,0.2,0.2,0.3C104.1,81.8,104.2,81.8,104.4,81.8
			L104.4,81.8z"/>
	</g>
	<g>
		<path class="st11" d="M105,73.2c0.5-0.4,1-0.8,1.6-1.2c0.1-0.1,0.2-0.2,0.2-0.3c0-0.1,0-0.3-0.1-0.4c-0.1-0.1-0.2-0.2-0.3-0.2
			c-0.1,0-0.3,0-0.4,0.1c-0.5,0.4-1,0.8-1.6,1.2c-0.1,0.1-0.2,0.2-0.2,0.3c0,0.1,0,0.3,0.1,0.4c0.1,0.1,0.2,0.2,0.3,0.2
			C104.8,73.3,104.9,73.3,105,73.2L105,73.2z"/>
	</g>
	<g>
		<path class="st11" d="M115,60.8c0.3-0.1,0.7-0.3,1-0.4c0.1,0,0.1,0,0.2-0.1c0.1,0,0.1-0.1,0.1-0.1c0.1-0.1,0.1-0.3,0.1-0.4
			c0-0.1-0.1-0.2-0.2-0.3c-0.1-0.1-0.3-0.1-0.4-0.1c-0.3,0.1-0.7,0.3-1,0.4c-0.1,0-0.1,0-0.2,0.1c-0.1,0-0.1,0.1-0.1,0.1
			c-0.1,0.1-0.1,0.3-0.1,0.4c0,0.1,0.1,0.2,0.2,0.3C114.7,60.8,114.9,60.8,115,60.8L115,60.8z"/>
	</g>
	<g>
		<path class="st11" d="M104.1,47.4c0.8,0.3,1.7,0.4,2.6,0.3c0.3,0,0.4-0.4,0.3-0.6c-0.1-0.3-0.3-0.4-0.6-0.3c0,0-0.1,0-0.1,0
			c0.1,0,0.1,0,0,0c0,0-0.1,0-0.1,0c-0.1,0-0.2,0-0.3,0c-0.2,0-0.4,0-0.5,0c0,0-0.2,0,0,0c0,0-0.1,0-0.1,0c-0.1,0-0.2,0-0.3-0.1
			c-0.2,0-0.4-0.1-0.6-0.2c-0.2-0.1-0.6,0.1-0.6,0.3C103.7,47.1,103.8,47.3,104.1,47.4L104.1,47.4z"/>
	</g>
	<g>
		<path class="st11" d="M120.4,50.8c0,0.4,0.1,0.9,0.1,1.3c0,0.1,0,0.3,0.1,0.4c0.1,0.1,0.2,0.2,0.4,0.1c0.1,0,0.3,0,0.4-0.1
			c0.1-0.1,0.2-0.2,0.1-0.4c0-0.4-0.1-0.9-0.1-1.3c0-0.1,0-0.3-0.1-0.4c-0.1-0.1-0.2-0.2-0.4-0.1c-0.1,0-0.3,0-0.4,0.1
			C120.5,50.5,120.4,50.7,120.4,50.8L120.4,50.8z"/>
	</g>
	<g>
		<path class="st11" d="M115.4,55.7c0,0.1,0.1,0.2,0.1,0.3c0,0,0,0,0,0.1c0,0.1,0.1,0.1,0.1,0.2c0,0,0,0,0.1,0.1
			c0.1,0,0.1,0.1,0.2,0.1c0.1,0,0.1,0.1,0.2,0.1c0,0,0.1,0,0.1,0c0.1,0,0.1,0,0.2,0c0.1,0,0.1,0,0.2-0.1c0.1,0,0.1-0.1,0.1-0.1
			c0,0,0.1-0.1,0.1-0.2c0,0,0-0.1,0-0.1c0-0.1,0-0.2-0.1-0.3c0,0-0.1-0.1-0.1-0.1c-0.1-0.1-0.1-0.1-0.2-0.1c0,0-0.1,0-0.1,0
			c0,0,0.1,0,0.1,0.1c0,0-0.1,0-0.1-0.1c0,0,0.1,0.1,0.1,0.1c0,0-0.1-0.1-0.1-0.1c0,0,0.1,0.1,0.1,0.1c0,0-0.1-0.1-0.1-0.1
			c0,0,0,0.1,0.1,0.1c0,0,0-0.1,0-0.1c0-0.1,0-0.1-0.1-0.2c0-0.1-0.1-0.1-0.1-0.1c-0.1,0-0.1-0.1-0.2-0.1c-0.1,0-0.1,0-0.2,0
			c0,0-0.1,0-0.1,0.1c-0.1,0-0.1,0.1-0.2,0.2c0,0,0,0.1-0.1,0.1C115.4,55.5,115.4,55.6,115.4,55.7L115.4,55.7z"/>
	</g>
	<g>
		<path class="st11" d="M136.4,61.6c0.4,0.4,0.8,0.8,1.2,1.2c0.1,0.1,0.2,0.1,0.4,0.1c0.1,0,0.3-0.1,0.4-0.1c0.2-0.2,0.2-0.5,0-0.7
			c-0.4-0.4-0.8-0.8-1.2-1.2c-0.1-0.1-0.2-0.1-0.4-0.1c-0.1,0-0.3,0.1-0.4,0.1C136.2,61.1,136.2,61.4,136.4,61.6L136.4,61.6z"/>
	</g>
	<g>
		<path class="st11" d="M127.1,53.5c0.2,0.3,0.4,0.6,0.6,0.9c0.1,0.1,0.2,0.2,0.3,0.2c0.1,0,0.3,0,0.4-0.1c0.1-0.1,0.2-0.2,0.2-0.3
			c0-0.1,0-0.3-0.1-0.4c-0.2-0.3-0.4-0.6-0.6-0.9c-0.1-0.1-0.2-0.2-0.3-0.2c-0.1,0-0.3,0-0.4,0.1c-0.1,0.1-0.2,0.2-0.2,0.3
			C127,53.2,127,53.4,127.1,53.5L127.1,53.5z"/>
	</g>
	<g>
		<path class="st11" d="M130.6,24.3c0,0.1,0,0.2,0,0.4c0,0.1,0,0.2,0,0.3c0,0.2,0.1,0.4,0.2,0.5c0.1,0.1,0.2,0.2,0.3,0.2
			c0.1,0,0.3,0,0.4-0.1c0.1-0.1,0.2-0.2,0.2-0.3c0-0.1,0-0.3-0.1-0.4c0,0,0-0.1-0.1-0.1c0,0,0,0.1,0.1,0.1c0-0.1-0.1-0.2-0.1-0.3
			c0,0,0,0.1,0,0.1c0-0.1,0-0.2,0-0.3c0,0,0,0.1,0,0.1c0,0,0-0.1,0-0.1c0-0.1,0-0.3-0.1-0.4c-0.1-0.1-0.2-0.2-0.3-0.2
			c-0.1,0-0.3,0-0.4,0.1C130.8,24.1,130.7,24.2,130.6,24.3L130.6,24.3z"/>
	</g>
	<g>
		<path class="st11" d="M133.5,27.6c0.4,0,0.9,0,1.3,0c0.3,0,0.5-0.2,0.5-0.5c0-0.3-0.2-0.5-0.5-0.5c-0.4,0-0.9,0-1.3,0
			c-0.3,0-0.5,0.2-0.5,0.5C133.1,27.3,133.3,27.6,133.5,27.6L133.5,27.6z"/>
	</g>
	<g>
		<path class="st11" d="M139.4,25.5c0.3,0,0.6-0.1,0.9-0.1c0.1,0,0.2-0.1,0.3-0.2c0.1-0.1,0.1-0.3,0.1-0.4c0-0.1-0.1-0.2-0.2-0.3
			c0,0-0.1,0-0.1-0.1c-0.1,0-0.2,0-0.3,0c-0.3,0-0.6,0.1-0.9,0.1c-0.1,0-0.2,0.1-0.3,0.2c-0.1,0.1-0.1,0.3-0.1,0.4
			c0,0.1,0.1,0.2,0.2,0.3c0,0,0.1,0,0.1,0.1C139.2,25.6,139.3,25.6,139.4,25.5L139.4,25.5z"/>
	</g>
	<g>
		<path class="st11" d="M143.1,65.6c-0.1,0.5,0.1,1,0.3,1.4c0.1,0.1,0.2,0.2,0.3,0.2c0.1,0,0.3,0,0.4-0.1c0.2-0.1,0.3-0.4,0.2-0.7
			c0-0.1-0.1-0.2-0.1-0.2c0,0,0,0.1,0.1,0.1c-0.1-0.2-0.1-0.3-0.1-0.5c0,0,0,0.1,0,0.1c0-0.2,0-0.3,0-0.5c0-0.1-0.1-0.3-0.1-0.4
			c-0.1-0.1-0.2-0.2-0.4-0.1c-0.1,0-0.3,0-0.4,0.1c0,0-0.1,0.1-0.1,0.1C143.1,65.4,143.1,65.5,143.1,65.6L143.1,65.6z"/>
	</g>
	<g>
		<path class="st11" d="M141.4,80.2c0.1,0.1,0.2,0.2,0.3,0.3c0,0-0.1-0.1-0.1-0.1c0.1,0.1,0.2,0.3,0.3,0.5c0,0,0-0.1-0.1-0.1
			c0.1,0.1,0.1,0.3,0.1,0.4c0,0.1,0.1,0.2,0.2,0.3c0.1,0.1,0.3,0.1,0.4,0.1c0.1,0,0.2-0.1,0.3-0.2c0.1-0.1,0.1-0.2,0.1-0.4
			c-0.1-0.6-0.4-1.1-0.9-1.5c-0.1-0.1-0.2-0.1-0.4-0.1c-0.1,0-0.3,0.1-0.4,0.1c-0.1,0.1-0.2,0.2-0.1,0.4
			C141.2,80,141.3,80.1,141.4,80.2L141.4,80.2z"/>
	</g>
	<g>
		<path class="st11" d="M142.6,81.9c0.6,0,0.6-1,0-1C142,80.9,142,81.9,142.6,81.9L142.6,81.9z"/>
	</g>
	<g>
		<path class="st11" d="M138.2,90.5c0.3,0.2,0.7,0.4,1,0.6c0.1,0.1,0.3,0.1,0.4,0.1c0.1,0,0.2-0.1,0.3-0.2c0.1-0.1,0.1-0.3,0.1-0.4
			c0-0.1-0.1-0.2-0.2-0.3c-0.3-0.2-0.7-0.4-1-0.6c-0.1-0.1-0.3-0.1-0.4-0.1c-0.1,0-0.2,0.1-0.3,0.2c-0.1,0.1-0.1,0.3-0.1,0.4
			C138,90.3,138.1,90.4,138.2,90.5L138.2,90.5z"/>
	</g>
	<g>
		<path class="st11" d="M135.3,97.7c0.2,0,0.5,0,0.7,0c0.1,0,0.3-0.1,0.4-0.1c0.1-0.1,0.2-0.2,0.1-0.4c0-0.1,0-0.3-0.1-0.4
			c-0.1-0.1-0.2-0.1-0.4-0.1c-0.2,0-0.5,0-0.7,0c-0.1,0-0.3,0.1-0.4,0.1c-0.1,0.1-0.2,0.2-0.1,0.4c0,0.1,0,0.3,0.1,0.4
			C135,97.7,135.1,97.7,135.3,97.7L135.3,97.7z"/>
	</g>
	<g>
		<path class="st11" d="M119.7,94.9c0.2-0.1,0.5-0.2,0.7-0.3c0.1,0,0.1-0.1,0.1-0.1c0,0,0.1-0.1,0.1-0.2c0-0.1,0-0.1,0-0.2
			c0-0.1,0-0.1-0.1-0.2c-0.1-0.1-0.2-0.2-0.3-0.2c0,0-0.1,0-0.1,0c-0.1,0-0.2,0-0.3,0.1c-0.2,0.1-0.5,0.2-0.7,0.3
			c-0.1,0-0.1,0.1-0.1,0.1c0,0-0.1,0.1-0.1,0.2c0,0.1,0,0.1,0,0.2c0,0.1,0,0.1,0.1,0.2c0.1,0.1,0.2,0.2,0.3,0.2c0,0,0.1,0,0.1,0
			C119.6,95,119.6,95,119.7,94.9L119.7,94.9z"/>
	</g>
	<g>
		<path class="st11" d="M96,116.2c0.1,0.1,0.2,0.2,0.3,0.3c0.2,0.1,0.4,0.1,0.5,0.1c0.3,0,0.7-0.1,0.9-0.4c0,0,0.1-0.1,0.1-0.2
			c0-0.1,0-0.1,0-0.2c0-0.1-0.1-0.3-0.1-0.4c-0.1-0.1-0.2-0.2-0.4-0.1c-0.1,0-0.3,0-0.4,0.1c0,0-0.1,0.1-0.1,0.1
			c0,0,0.1-0.1,0.1-0.1c0,0-0.1,0.1-0.2,0.1c0,0,0.1,0,0.1-0.1c-0.1,0-0.1,0-0.2,0c0,0,0.1,0,0.1,0c-0.1,0-0.1,0-0.2,0
			c0,0,0.1,0,0.1,0c-0.1,0-0.1,0-0.2-0.1c0,0,0.1,0,0.1,0.1c-0.1,0-0.1-0.1-0.1-0.1c0,0,0.1,0.1,0.1,0.1c0,0-0.1-0.1-0.1-0.1
			c-0.1-0.1-0.2-0.1-0.4-0.1c-0.1,0-0.3,0.1-0.4,0.1c-0.1,0.1-0.2,0.2-0.1,0.4c0,0,0,0.1,0,0.1C95.9,116.1,95.9,116.2,96,116.2
			L96,116.2z"/>
	</g>
	<g>
		<path class="st11" d="M90.4,114.8c0.1,0,0.1,0,0.2,0C90.5,114.8,90.5,114.8,90.4,114.8c0.1,0,0.2,0,0.3,0c0,0-0.1,0-0.1,0
			c0.1,0,0.2,0,0.3,0.1c0,0-0.1,0-0.1-0.1c0,0,0.1,0,0.1,0.1c0.1,0.1,0.3,0.1,0.4,0.1c0.1,0,0.2-0.1,0.3-0.2
			c0.1-0.1,0.1-0.3,0.1-0.4c0-0.1-0.1-0.2-0.2-0.3c-0.1-0.1-0.2-0.1-0.3-0.1c-0.1,0-0.2-0.1-0.3-0.1c-0.1,0-0.2,0-0.2,0
			c-0.1,0-0.2,0-0.4,0.1c-0.1,0-0.2,0.1-0.3,0.2c-0.1,0.1-0.1,0.3-0.1,0.4c0,0.1,0.1,0.2,0.2,0.3C90.1,114.8,90.3,114.9,90.4,114.8
			L90.4,114.8z"/>
	</g>
	<g>
		<path class="st11" d="M95,121.3c0.2,0.1,0.3,0.2,0.5,0.3c0,0-0.1-0.1-0.1-0.1c0.1,0.1,0.3,0.2,0.4,0.4c0.1,0.1,0.2,0.1,0.4,0.1
			c0.1,0,0.3-0.1,0.4-0.1c0.1-0.1,0.2-0.2,0.1-0.4c0,0,0-0.1,0-0.1c0-0.1-0.1-0.2-0.1-0.2c-0.2-0.2-0.3-0.3-0.5-0.5
			c-0.2-0.1-0.3-0.2-0.5-0.3c-0.1,0-0.1-0.1-0.2-0.1c-0.1,0-0.1,0-0.2,0c-0.1,0-0.2,0.1-0.3,0.2c-0.1,0.1-0.1,0.3-0.1,0.4
			C94.8,121.1,94.9,121.2,95,121.3L95,121.3z"/>
	</g>
	<g>
		<path class="st11" d="M100.7,122.3c0.1-0.1,0.1-0.1,0.2-0.2c0,0,0.1,0,0.1-0.1c0,0,0,0,0.1,0c0,0-0.1,0.1,0,0
			c0.1-0.1,0.3-0.2,0.4-0.3c0.1,0,0.1-0.1,0.2-0.1c0,0,0.1,0,0.1-0.1c0,0,0.1,0,0,0c-0.1,0,0,0,0,0c0.2-0.1,0.3-0.1,0.5-0.2
			c0.3-0.1,0.4-0.4,0.3-0.6c-0.1-0.3-0.3-0.4-0.6-0.3c-0.7,0.2-1.4,0.6-2,1.1c-0.2,0.2-0.2,0.5,0,0.7
			C100.2,122.5,100.5,122.5,100.7,122.3L100.7,122.3z"/>
	</g>
	<g>
		<path class="st11" d="M146.6,90.7c0.3,0.1,0.7,0.1,1,0.2c0.1,0,0.1,0,0.2,0c0.1,0,0.1,0,0.2-0.1c0.1-0.1,0.2-0.2,0.2-0.3
			c0-0.1,0-0.3-0.1-0.4c-0.1-0.1-0.2-0.2-0.3-0.2c-0.3-0.1-0.7-0.1-1-0.2c-0.1,0-0.1,0-0.2,0c-0.1,0-0.1,0-0.2,0.1
			c-0.1,0.1-0.2,0.2-0.2,0.3c0,0.1,0,0.3,0.1,0.4C146.4,90.6,146.5,90.7,146.6,90.7L146.6,90.7z"/>
	</g>
	<g>
		<path class="st11" d="M163.3,92.7c0.1-0.2,0.2-0.3,0.4-0.5c0,0,0.1-0.1,0,0c0,0,0,0,0-0.1c0,0,0.1-0.1,0.1-0.1
			c0.1-0.1,0.1-0.2,0.2-0.2c0.1-0.1,0.3-0.3,0.4-0.4c0.1-0.1,0.2-0.1,0.2-0.2c0,0,0.1-0.1,0.1-0.1c0,0,0.1-0.1,0.1,0
			c0,0-0.1,0.1,0,0c0.1-0.1,0.2-0.2,0.2-0.3c0-0.1,0-0.3-0.1-0.4c-0.1-0.2-0.5-0.3-0.7-0.2c-0.8,0.6-1.4,1.2-1.9,2.1
			c-0.1,0.2-0.1,0.6,0.2,0.7C162.9,93,163.2,93,163.3,92.7L163.3,92.7z"/>
	</g>
	<g>
		<path class="st11" d="M170.5,95.7c0.4-0.2,0.9-0.5,1.3-0.7c0.2-0.1,0.3-0.5,0.2-0.7c-0.1-0.2-0.4-0.3-0.7-0.2
			c-0.4,0.2-0.9,0.5-1.3,0.7c-0.2,0.1-0.3,0.5-0.2,0.7C169.9,95.7,170.2,95.8,170.5,95.7L170.5,95.7z"/>
	</g>
	<g>
		<path class="st11" d="M174.1,98.5c0.1,0,0.1,0.1,0.2,0.1c0.1,0,0.2,0.1,0.3,0.1c0.1,0,0.2,0,0.3,0c0.1,0,0.2,0,0.4,0
			c0.1,0,0.2-0.1,0.3-0.2c0.1-0.1,0.1-0.3,0.1-0.4c0-0.1-0.1-0.2-0.2-0.3c0,0-0.1,0-0.1-0.1c-0.1,0-0.2,0-0.3,0c0,0,0,0,0,0
			c0,0,0.1,0,0.1,0c-0.1,0-0.2,0-0.3,0c0,0,0.1,0,0.1,0c-0.1,0-0.2,0-0.3-0.1c0,0,0.1,0,0.1,0.1c-0.1,0-0.2-0.1-0.2-0.1
			c-0.1,0-0.1-0.1-0.2-0.1c-0.1,0-0.1,0-0.2,0c-0.1,0-0.2,0.1-0.3,0.2c-0.1,0.1-0.1,0.3-0.1,0.4c0,0,0,0.1,0.1,0.1
			C174,98.4,174.1,98.5,174.1,98.5L174.1,98.5z"/>
	</g>
	<g>
		<path class="st11" d="M171.3,89.5c0.1,0,0.3-0.1,0.4-0.1c0.1,0,0.1,0,0.2-0.1c0.1,0,0.1-0.1,0.1-0.1c0-0.1,0.1-0.1,0.1-0.2
			c0-0.1,0-0.1,0-0.2c0,0,0-0.1-0.1-0.1c0-0.1-0.1-0.1-0.2-0.2c0,0-0.1,0-0.1-0.1c-0.1,0-0.2,0-0.3,0c-0.1,0-0.3,0.1-0.4,0.1
			c-0.1,0-0.1,0-0.2,0.1c-0.1,0-0.1,0.1-0.1,0.1c0,0.1-0.1,0.1-0.1,0.2c0,0.1,0,0.1,0,0.2c0,0,0,0.1,0.1,0.1c0,0.1,0.1,0.1,0.2,0.2
			c0,0,0.1,0,0.1,0.1C171.2,89.5,171.3,89.5,171.3,89.5L171.3,89.5z"/>
	</g>
	<g>
		<path class="st11" d="M181,66.9c0.2,0.1,0.4,0.3,0.6,0.4c0.1,0,0.1,0.1,0.2,0.1c0.1,0,0.1,0,0.2,0c0.1,0,0.1,0,0.2-0.1
			c0.1,0,0.1-0.1,0.1-0.1c0.1-0.1,0.1-0.3,0.1-0.4c0,0,0-0.1-0.1-0.1c0-0.1-0.1-0.1-0.2-0.2c-0.2-0.1-0.4-0.3-0.6-0.4
			c-0.1,0-0.1-0.1-0.2-0.1c-0.1,0-0.1,0-0.2,0c-0.1,0-0.1,0-0.2,0.1c-0.1,0-0.1,0.1-0.1,0.1c-0.1,0.1-0.1,0.3-0.1,0.4
			c0,0,0,0.1,0.1,0.1C180.9,66.8,180.9,66.9,181,66.9L181,66.9z"/>
	</g>
	<g>
		<path class="st11" d="M178.8,71c0.1,0.1,0.2,0.2,0.3,0.3c0,0,0.1,0.1,0.2,0.1c0.1,0,0.1,0,0.2,0c0.1,0,0.1,0,0.2,0
			c0.1,0,0.1-0.1,0.2-0.1c0,0,0.1-0.1,0.1-0.1c0-0.1,0.1-0.2,0.1-0.3c0,0,0-0.1,0-0.1c0-0.1-0.1-0.2-0.1-0.2
			c-0.1-0.1-0.2-0.2-0.3-0.3c0,0-0.1-0.1-0.2-0.1c-0.1,0-0.1,0-0.2,0c-0.1,0-0.1,0-0.2,0c-0.1,0-0.1,0.1-0.2,0.1
			c0,0-0.1,0.1-0.1,0.1c0,0.1-0.1,0.2-0.1,0.3c0,0,0,0.1,0,0.1C178.7,70.8,178.7,70.9,178.8,71L178.8,71z"/>
	</g>
	<g>
		<path class="st11" d="M179.8,63.8c0.6,0,0.6-1,0-1C179.2,62.8,179.2,63.8,179.8,63.8L179.8,63.8z"/>
	</g>
	<g>
		<path class="st11" d="M160.4,41.2c0.3-0.1,0.6-0.2,0.9-0.3c0.1,0,0.2-0.1,0.3-0.2c0.1-0.1,0.1-0.3,0.1-0.4c0-0.1-0.1-0.2-0.2-0.3
			c-0.1-0.1-0.3-0.1-0.4-0.1c-0.3,0.1-0.6,0.2-0.9,0.3c-0.1,0-0.2,0.1-0.3,0.2c-0.1,0.1-0.1,0.3-0.1,0.4c0,0.1,0.1,0.2,0.2,0.3
			C160.2,41.2,160.3,41.3,160.4,41.2L160.4,41.2z"/>
	</g>
	<g>
		<path class="st11" d="M160,53.8c0.1,0,0.2,0.1,0.3,0.1c0.1,0,0.1,0.1,0.2,0.1c0.1,0,0.1,0,0.2,0c0.1,0,0.1,0,0.2-0.1
			c0.1,0,0.1-0.1,0.1-0.1c0,0,0-0.1,0.1-0.1c0-0.1,0-0.2,0-0.3c0,0,0-0.1-0.1-0.1c0-0.1-0.1-0.1-0.2-0.2c-0.1,0-0.2-0.1-0.3-0.1
			c-0.1,0-0.1-0.1-0.2-0.1c-0.1,0-0.1,0-0.2,0c-0.1,0-0.1,0-0.2,0.1c-0.1,0-0.1,0.1-0.1,0.1c0,0,0,0.1-0.1,0.1c0,0.1,0,0.2,0,0.3
			c0,0,0,0.1,0.1,0.1C159.9,53.7,160,53.8,160,53.8L160,53.8z"/>
	</g>
	<g>
		<path class="st11" d="M141.4,115.4C141.4,115.5,141.3,115.5,141.4,115.4c-0.1,0.1-0.1,0.2-0.1,0.2c0,0,0,0,0,0.1
			c0,0.1,0,0.1-0.1,0.2c0,0.1,0,0.2,0,0.2c0,0,0,0.1,0,0.1c0,0.1,0,0.1,0,0.2c0,0.1,0.1,0.1,0.1,0.2c0,0,0.1,0.1,0.1,0.1
			c0.1,0,0.2,0.1,0.3,0.1c0.1,0,0.3,0,0.4,0c0.1,0,0.1,0,0.2,0c0.1,0,0.1-0.1,0.2-0.1c0,0,0.1-0.1,0.1-0.2c0-0.1,0-0.1,0-0.2
			c0,0,0-0.1,0-0.1c0-0.1-0.1-0.2-0.1-0.2c0,0-0.1-0.1-0.1-0.1c-0.1,0-0.2-0.1-0.3-0.1c-0.1,0-0.3,0-0.4,0c0.2,0.2,0.3,0.3,0.5,0.5
			c0,0,0-0.1,0-0.1c0,0,0,0.1,0,0.1c0,0,0-0.1,0-0.1c0,0,0,0.1-0.1,0.1c0,0,0-0.1,0.1-0.1c0,0-0.1,0.1-0.1,0.1c0,0,0,0,0,0
			c0,0,0.1-0.1,0.1-0.2c0-0.1,0-0.1,0-0.2c0-0.1,0-0.1,0-0.2c0-0.1-0.1-0.1-0.1-0.2c0,0-0.1-0.1-0.1-0.1c-0.1,0-0.2-0.1-0.3-0.1
			c0,0-0.1,0-0.1,0C141.5,115.3,141.5,115.4,141.4,115.4L141.4,115.4z"/>
	</g>
	<g>
		<path class="st11" d="M141.6,123c0.1,0,0.3,0.1,0.4,0.1c0.1,0,0.1,0,0.2,0c0.1,0,0.1,0,0.2-0.1c0.1,0,0.1-0.1,0.1-0.1
			c0,0,0.1-0.1,0.1-0.2c0,0,0-0.1,0-0.1c0-0.1,0-0.2-0.1-0.3c0,0-0.1-0.1-0.1-0.1c-0.1-0.1-0.1-0.1-0.2-0.1c-0.1,0-0.3-0.1-0.4-0.1
			c-0.1,0-0.1,0-0.2,0c-0.1,0-0.1,0-0.2,0.1c-0.1,0-0.1,0.1-0.1,0.1c0,0-0.1,0.1-0.1,0.2c0,0,0,0.1,0,0.1c0,0.1,0,0.2,0.1,0.3
			c0,0,0.1,0.1,0.1,0.1C141.5,122.9,141.5,123,141.6,123L141.6,123z"/>
	</g>
	<g>
		<path class="st11" d="M137.9,128.6c0.2,0.1,0.5,0.2,0.7,0.3c0.1,0,0.1,0,0.2,0c0.1,0,0.1,0,0.2-0.1c0.1-0.1,0.2-0.2,0.2-0.3
			c0-0.1,0-0.3-0.1-0.4c0,0-0.1-0.1-0.1-0.1c-0.1-0.1-0.1-0.1-0.2-0.1c-0.2-0.1-0.5-0.2-0.7-0.3c-0.1,0-0.1,0-0.2,0
			c-0.1,0-0.1,0-0.2,0.1c-0.1,0.1-0.2,0.2-0.2,0.3c0,0.1,0,0.3,0.1,0.4c0,0,0.1,0.1,0.1,0.1C137.7,128.5,137.8,128.6,137.9,128.6
			L137.9,128.6z"/>
	</g>
	<g>
		<path class="st11" d="M133.8,132c0.2-0.1,0.4-0.2,0.6-0.3c0.1,0,0.1-0.1,0.1-0.1c0,0,0.1-0.1,0.1-0.2c0-0.1,0-0.1,0-0.2
			c0-0.1,0-0.1-0.1-0.2c-0.1-0.1-0.2-0.2-0.3-0.2c0,0-0.1,0-0.1,0c-0.1,0-0.2,0-0.3,0.1c-0.2,0.1-0.4,0.2-0.6,0.3
			c-0.1,0-0.1,0.1-0.1,0.1c0,0-0.1,0.1-0.1,0.2c0,0.1,0,0.1,0,0.2c0,0.1,0,0.1,0.1,0.2c0.1,0.1,0.2,0.2,0.3,0.2c0,0,0.1,0,0.1,0
			C133.6,132.1,133.7,132.1,133.8,132L133.8,132z"/>
	</g>
	<g>
		<path class="st11" d="M128.7,130.6c0,0,0.1,0,0.1,0c0.1,0,0.1,0,0.2,0c0.1,0,0.1-0.1,0.2-0.1c0,0,0.1-0.1,0.1-0.2
			c0-0.1,0-0.1,0-0.2c0,0,0-0.1,0-0.1c0-0.1-0.1-0.2-0.1-0.2c0,0-0.1-0.1-0.1-0.1c-0.1,0-0.2-0.1-0.3-0.1c0,0-0.1,0-0.1,0
			c-0.1,0-0.1,0-0.2,0c-0.1,0-0.1,0.1-0.2,0.1c0,0-0.1,0.1-0.1,0.2c0,0.1,0,0.1,0,0.2c0,0,0,0.1,0,0.1c0,0.1,0.1,0.2,0.1,0.2
			c0,0,0.1,0.1,0.1,0.1C128.5,130.6,128.6,130.6,128.7,130.6L128.7,130.6z"/>
	</g>
	<g>
		<path class="st12" d="M136.9,115.1c2-1.4,4.5-4.3,5.8-6.4c1.7-2.9,3.3-6.2,3.1-9.6c-0.2-3.4-2.8-6.9-6.1-6.7
			c-1.2,0.1-2.4,0.6-3.6,0.6c-1.1,0-2.1-0.4-3.2-0.5c-3.1-0.2-5.8,2.6-6.6,5.6c-0.9,3.1-0.3,6.4,0.3,9.5c0.6,3.1,1.4,6.4,0.9,9.5
			c0,0.3-0.1,0.6,0,0.9C128.2,120.9,135.4,116.2,136.9,115.1z"/>
		<path class="st13" d="M127.5,117.2c0,0.3-0.1,0.6,0,0.9c0,0.2,0.1,0.4,0.3,0.5c-0.1-0.3-0.1-0.6,0-0.9c0.2-0.8,0.7-1.5,1-2.2
			c1.1-2.6-0.2-5.6-0.1-8.5c0-1.1,0.2-2.2,0.2-3.3c-0.1-1.2-0.5-2.3-0.2-3.5c0.2-1.2,1.2-2.2,2.1-2.9c1.5-1.2,3.3-2.1,5.2-1.7
			c1,0.2,1.9,0.8,2.8,0.7c1.4-0.2,2.2-1.6,3.5-2.1c0.6-0.2,1.2-0.2,1.7,0c-1.1-1.2-2.6-2-4.2-1.9c-1.2,0.1-2.4,0.6-3.6,0.6
			c-1.1,0-2.1-0.4-3.2-0.5c-3.1-0.2-5.8,2.6-6.6,5.6c-0.9,3.1-0.3,6.4,0.3,9.5C127.3,110.8,128,114,127.5,117.2z"/>
		<path class="st13" d="M138.6,100.6c-0.7,4.5-3.1,8.5-5.5,12.3c-0.3,0.5-0.6,1-1.1,1.4c0.1-0.7,0.5-1.2,0.8-1.8
			c2-3,3.4-6.3,4.2-9.8c0.3-1.3,0.5-2.7,0.4-4.1c-0.1-1.4-0.6-2.7-1.6-3.7c-0.3-0.3-0.6-0.6-0.4-1c0.3-0.5,1.3-0.4,1.7-0.1
			c0.5,0.3,0.8,1.1,1,1.7C138.8,97.1,138.8,98.9,138.6,100.6z"/>
		<path class="st13" d="M131.3,103.2c1.5-0.3,2.9-0.9,4.2-1.6c0.5-0.3,0.9-0.6,1.3-1c0.7-0.8,0.9-1.9,1.2-2.9
			C139.3,101.5,134.1,103.8,131.3,103.2z"/>
		<path class="st13" d="M132.7,107.2c-0.5,0.1-1.1,0.1-1.6-0.1c0.2,0.4,0.7,0.4,1.1,0.4c0.9-0.1,1.8-0.1,2.7-0.2
			c0.4,0,0.8-0.1,1-0.3c0.2-0.2,0.5-0.7,0.2-0.9c-0.2-0.1-0.8,0.4-1,0.5C134.5,106.9,133.6,107.1,132.7,107.2z"/>
		<path class="st13" d="M141.3,101.5c1.3,0.4,2.6,0.3,3.9-0.1c0,0.3-0.3,0.4-0.6,0.5c-0.5,0.1-1.1,0.1-1.6,0.1
			c-1.2,0-2.4-0.1-3.4-0.7c-0.9-0.5-1.9-1.8-1.5-3c0.6,0,0.8,1.3,1.2,1.7C139.8,100.7,140.5,101.2,141.3,101.5z"/>
		<path class="st13" d="M137.7,107.4c0.2,0.2,0.5,0.4,0.8,0.5c1,0.4,2.1,0.5,3.1,0.2c0.1,0.1,0,0.3-0.1,0.4
			c-0.1,0.1-0.3,0.1-0.4,0.1c-0.6,0.1-1.2,0.1-1.8,0.1c-0.7-0.1-1.4-0.4-2-0.8c-0.3-0.2-1.5-1.5-0.8-1.9
			C136.8,105.7,137.5,107.2,137.7,107.4z"/>
		<path class="st13" d="M133.7,88.4c-0.5-0.4-1-0.7-1.5-0.7c-0.6,0-1.2,0.3-1.3,0.9c0,0.2,0,0.3,0.1,0.4c0.2,0.3,0.7,0.2,1.1,0.1
			c0.8-0.1,1.5,0.5,2.1,1.1c0.5,0.5,0.9,1.1,1.1,1.7c0.2,0.7,0.3,2.1,1.1,2.3c1,0.3,0.8-1.1,0.6-1.6C136.3,91,135.2,89.5,133.7,88.4
			z"/>
		<path class="st14" d="M139.1,111.5c1.6-1.4,2.7-3.3,3.1-5.5c0.1-0.7,0.2-1.4-0.1-2.1c-0.3-0.5-0.8-0.9-1.4-1c-0.2,0-0.5,0-0.7,0.1
			c-0.4,0.2-0.6,0.5-0.8,0.9c-0.3,0.6-0.3,1.4-0.1,2c0.1,0.4,0.3,0.8,0.4,1.2c0.1,0.4,0.1,0.9-0.1,1.2c-0.2,0.3-0.6,0.4-0.8,0.8
			c-0.1,0.3,0,0.7-0.1,1c-0.1,0.4-0.4,0.7-0.7,1c-0.5,0.5-1.1,1-1.8,1.3c-0.4,0.2-0.9,0.3-1.2,0.7c-0.3,0.3-0.4,0.8-0.6,1.2
			c-0.5,0.8-1.5,1.2-2.3,1.5c-0.9,0.3-1.8,0.8-2.2,1.7c0.6,0.3,1.2-0.2,1.7-0.4c0.7-0.4,1.5-0.6,2.2-0.9c1.1-0.5,1.5-1.5,2.4-2.3
			C137,113,138.1,112.4,139.1,111.5z"/>
	</g>
	<g>
		<path class="st5" d="M107.6,78.4c-0.1-0.2-0.2-0.4-0.1-0.6c0.1-0.2,0.4-0.3,0.6-0.4c1.2-0.4,2-1.8,1.6-3.1
			c-0.1-0.6-0.5-1.1-0.3-1.7c0.4-1.1,2.3-0.5,3.1-1.3c1-1-0.5-3.1,0.5-4.2c0.7-0.7,2.1-0.3,2.8-1c1.1-1-0.1-3.2,0.9-4.2
			c0.5-0.5,1.3-0.4,1.9-0.7c1.6-0.9,1-3.5,2.3-4.7c0.2-0.2,0.4-0.3,0.6-0.3c0.2,0,0.3,0,0.5,0.1c0.5,0.3,0.8,0.7,1.1,1.1
			c0.3,0.4,0.9,0.8,1.4,0.6c0.6-0.2,1-1,1.6-0.7c0.6,0.2,0.4,1,0.4,1.6c0,1.2,1.4,2.2,2.6,1.8c0.4-0.2,0.9-0.5,1.3-0.3
			c0.2,0.1,0.3,0.3,0.4,0.6c0.2,0.7,0,1.5,0.4,2.2c0.3,0.7,1.1,1,1.9,1.1c0.8,0.1,1.5,0,2.3,0c0.2,0,0.5,0,0.6,0.2
			c0.2,0.1,0.2,0.4,0.2,0.6c0.1,0.6,0.2,1.3,0.5,1.9c0.3,0.6,0.8,1.1,1.4,1.2c0.7,0.1,1.3-0.3,1.9-0.5c0.6-0.2,1.5-0.1,1.7,0.5
			c0.3,0.8-0.9,1.8-0.4,2.5c0.5,0.7,1.9,0,2.2,0.8c0.1,0.3,0,0.7-0.2,0.9c-0.4,0.7-0.9,1.3-1.5,1.8c0.6,0.8,1.1,1.9,0.5,2.6
			c-0.7,0.9-2.2,0.5-2.9,1.3c-0.6,0.6-0.5,1.5-0.5,2.3s-0.4,1.8-1.2,1.8c-0.3,0-0.5-0.1-0.8-0.1c-0.8,0-1.2,0.9-1.2,1.6
			c0,0.7,0.2,1.5,0,2.2c-0.1,0.2-0.2,0.5-0.4,0.6c-0.6,0.4-1.4-0.2-2.1-0.1c-0.6,0.1-0.9,0.7-1,1.3c-0.1,0.6,0.1,1.1,0.1,1.7
			c0,0.7-0.1,1.4-0.3,2c-0.1,0.3-0.2,0.5-0.5,0.7c-0.7,0.4-1.5-0.5-2.3-0.4c-0.8,0.1-1.2,1-1.3,1.7c-0.1,0.8-0.2,1.7-0.9,2.1
			c-0.6,0.4-1.3,0.2-1.9-0.2c-0.5-0.4-0.8-1.1-1.1-1.7c-0.1-0.2-0.2-0.5-0.4-0.7c-0.8-0.7-2,0.6-3,0.3c-0.8-0.2-1-1.3-0.9-2.1
			c0-0.8,0-1.8-0.8-2.2c-0.9-0.4-2.1,0.5-2.8-0.1c-0.9-0.7-0.1-2.3-0.7-3.2c-0.5-0.7-1.4-0.7-2.2-0.7c-0.8,0-1.8-0.4-1.9-1.2
			c0-0.5,0.4-1.1,0.2-1.6c-0.4-1-2.2-0.2-2.7-1.1c0.8-0.7,0.7-0.9,0-1.5C108.4,79.5,107.9,79.1,107.6,78.4z"/>
		<path class="st6" d="M106.7,78.8c-0.1-0.2-0.2-0.4-0.1-0.6c0.1-0.2,0.4-0.3,0.6-0.4c1.2-0.4,2-1.8,1.6-3.1
			c-0.1-0.6-0.5-1.1-0.3-1.7c0.4-1.1,2.3-0.5,3.1-1.3c1-1-0.5-3.1,0.5-4.2c0.7-0.7,2.1-0.3,2.8-1c1.1-1-0.1-3.2,1-4.2
			c0.5-0.5,1.3-0.4,1.9-0.7c1.6-0.9,1-3.5,2.3-4.7c0.2-0.2,0.4-0.3,0.6-0.3c0.2,0,0.3,0,0.5,0.1c0.5,0.3,0.7,0.7,1.1,1.1
			c0.3,0.4,0.9,0.8,1.4,0.6c0.6-0.2,1-0.9,1.6-0.7c0.6,0.2,0.4,1,0.4,1.6c0,1.2,1.4,2.2,2.6,1.8c0.4-0.2,0.9-0.5,1.3-0.3
			c0.2,0.1,0.3,0.3,0.4,0.6c0.2,0.7,0,1.5,0.4,2.2c0.3,0.7,1.1,1,1.9,1.1c0.8,0.1,1.5,0,2.3,0c0.2,0,0.5,0,0.6,0.2
			c0.2,0.1,0.2,0.4,0.2,0.6c0.1,0.6,0.2,1.3,0.5,1.9c0.3,0.6,0.8,1.1,1.4,1.2c0.7,0.1,1.3-0.3,1.9-0.5c0.6-0.2,1.5-0.1,1.7,0.5
			c0.3,0.8-0.9,1.8-0.4,2.5c0.5,0.7,1.9,0,2.2,0.8c0.1,0.3,0,0.7-0.2,0.9c-0.4,0.7-0.9,1.3-1.5,1.8c0.6,0.8,1.1,1.9,0.5,2.6
			c-0.7,0.9-2.2,0.5-2.9,1.3c-0.6,0.6-0.5,1.5-0.5,2.3c0,0.8-0.4,1.8-1.2,1.8c-0.3,0-0.5-0.1-0.8-0.1c-0.8,0-1.2,0.9-1.2,1.6
			c0,0.7,0.2,1.5,0,2.2c-0.1,0.2-0.2,0.5-0.4,0.6c-0.6,0.4-1.4-0.2-2.1-0.1c-0.6,0.1-0.9,0.7-1,1.3c-0.1,0.6,0.1,1.1,0.1,1.7
			c0,0.7-0.1,1.4-0.3,2c-0.1,0.3-0.2,0.5-0.5,0.7c-0.7,0.4-1.5-0.5-2.3-0.4c-0.8,0.1-1.2,1-1.3,1.7s-0.2,1.7-0.9,2.1
			c-0.6,0.4-1.3,0.2-1.9-0.2c-0.5-0.4-0.8-1.1-1.1-1.7c-0.1-0.2-0.2-0.5-0.4-0.7c-0.8-0.7-2,0.6-3,0.3c-0.8-0.2-1-1.3-0.9-2.1
			c0-0.8,0-1.8-0.8-2.2c-0.9-0.4-2.1,0.5-2.8-0.1c-0.9-0.7-0.1-2.3-0.7-3.2c-0.5-0.7-1.4-0.7-2.2-0.7c-0.8,0-1.8-0.4-1.9-1.2
			c0-0.5,0.4-1.1,0.2-1.6c-0.4-1-2.2-0.2-2.7-1.1c0.8-0.7,0.7-0.9,0-1.5C107.6,79.9,107.1,79.5,106.7,78.8z"/>
		<path class="st7" d="M111.9,79c0.3,0.5,0.7,0.9,1.2,1.3c2.8,2.4,5.6,4.7,8.4,7.1c0.5,0.5,1.2,0.9,1.8,1c1.1,0,1.4-1.1,1.6-2
			c0.6-2.9,2.7-5.4,2.6-8.5c-0.1-1.3-0.5-2.7-1-4c-1.1-3.1-2.1-6.2-3.2-9.3c-0.2-0.6-0.5-1.3-1.1-1.6c-1-0.5-1.9,0.2-2.4,0.9
			c-0.9,1.2-1.6,2.5-2.1,3.9c-0.5,1.4-0.8,2.9-1.6,4.1c-1.4,2.2-3.7,3.6-4.3,6.3C111.6,78.1,111.7,78.6,111.9,79z"/>
		<path class="st8" d="M114.7,79.3c0.8,1.1,1.9,2,3.1,2.6c0.2,0.1,0.3,0.2,0.5,0.1c0.1,0,0.3-0.1,0.4-0.2c0.4-0.5,0.2-1.3-0.2-1.8
			c-0.4-0.5-1-0.8-1.4-1.3c-0.6-0.8-0.7-1.9-0.2-2.8c0.3-0.5,0.7-0.8,0.9-1.3c0.2-0.5,0.1-1.2-0.4-1.3c-0.5-0.1-0.9,0.4-1.2,0.8
			C115,75.6,113.3,77.5,114.7,79.3z"/>
		<path class="st9" d="M124.5,90c1-0.1,1.7-0.9,2.4-1.6c3.2-3.3,5.7-7.2,7.7-11.4c0.5-1.1,1-2.3,1.2-3.5c0.1-0.5,0.1-1.1-0.1-1.6
			c-0.3-0.8-1.1-1.4-1.8-1.8c-3.8-2.4-8.2-4.2-11.2-7.5c-0.3-0.3-0.8-0.6-1-0.2c0,0.1,0,0.2,0,0.3c0.1,0.6,0.6,1.1,1.1,1.6
			c1.8,1.8,3.8,3.4,5.4,5.4c1.5,2,2.6,4.6,2,7.1c-0.2,0.8-0.5,1.5-0.9,2.3c-1.5,2.9-3.3,5.6-5.4,8.1c-0.3,0.3-0.6,0.7-1,0.6
			c-0.6,0-1.1-0.7-1.6-0.4C122,88.5,123,90.3,124.5,90z"/>
		<g>
			<path class="st10" d="M121.8,62.4c0.1,0.1,0.2,0.2,0.3,0.2c3.1,3.3,7.4,5.1,11.2,7.5c0.7,0.5,1.5,1,1.8,1.8
				c0.2,0.5,0.2,1.1,0.1,1.6c-0.2,1.2-0.7,2.4-1.2,3.5c-2,4.2-4.6,8-7.7,11.4c-0.7,0.7-1.4,1.4-2.3,1.6c0.2,0,0.4,0,0.6,0
				c1-0.1,1.7-0.9,2.4-1.6c3.2-3.3,5.8-7.2,7.7-11.4c0.5-1.1,1-2.3,1.2-3.5c0.1-0.5,0.1-1.1-0.1-1.6c-0.3-0.8-1.1-1.4-1.8-1.8
				c-3.8-2.4-8.2-4.2-11.2-7.5C122.5,62.4,121.9,62.1,121.8,62.4z"/>
			<path class="st10" d="M122.2,87.9c0.1,0,0.2,0,0.3-0.1c-0.4-0.2-0.8-0.5-1.3-0.3C121.6,87.7,121.9,87.9,122.2,87.9z"/>
		</g>
	</g>
	<g>
		<path class="st12" d="M104.1,49.1c-1.3,2.1-2.5,5.7-2.9,8.2c-0.5,3.4-0.7,7,0.8,10.1c1.5,3.1,5.3,5.3,8.2,3.9
			c1.1-0.5,1.9-1.5,3-1.9c1-0.4,2.1-0.4,3.1-0.8c2.9-1,4.4-4.6,4-7.7c-0.4-3.2-2.1-6-3.9-8.7c-1.8-2.7-3.7-5.4-4.5-8.5
			c-0.1-0.3-0.1-0.6-0.3-0.8C110,40.5,105.1,47.6,104.1,49.1z"/>
		<path class="st13" d="M111.9,43.6c-0.1-0.3-0.1-0.6-0.3-0.8c-0.1-0.2-0.3-0.3-0.4-0.4c0.2,0.2,0.3,0.5,0.3,0.8
			c0.1,0.8-0.1,1.6-0.1,2.4c0,2.8,2.3,5.1,3.3,7.8c0.4,1,0.6,2.1,1.1,3.1c0.5,1,1.3,2,1.5,3.1c0.2,1.2-0.2,2.5-0.8,3.5
			c-0.9,1.7-2.3,3.3-4.1,3.5c-1,0.2-2-0.1-2.9,0.4c-1.2,0.7-1.5,2.3-2.4,3.3c-0.4,0.4-1,0.6-1.6,0.7c1.5,0.7,3.1,0.9,4.6,0.2
			c1.1-0.5,1.9-1.5,3-1.9c1-0.4,2.1-0.4,3.1-0.8c2.9-1,4.4-4.6,4-7.7c-0.4-3.2-2.1-6-3.9-8.7C114.6,49.4,112.7,46.7,111.9,43.6z"/>
		<path class="st13" d="M108.1,63.1c-1.1-4.4-0.4-9,0.4-13.5c0.1-0.6,0.2-1.2,0.5-1.7c0.2,0.6,0,1.3-0.1,2
			c-0.7,3.5-0.7,7.1-0.2,10.6c0.2,1.3,0.5,2.7,1.2,3.9c0.6,1.2,1.6,2.3,2.8,2.8c0.3,0.1,0.8,0.4,0.8,0.7c0,0.6-1.1,0.9-1.5,0.8
			c-0.6-0.1-1.2-0.7-1.6-1.1C109.2,66.5,108.5,64.8,108.1,63.1z"/>
		<path class="st13" d="M113.9,58c-1.2,0.9-2.3,1.9-3.2,3.1c-0.3,0.4-0.6,0.9-0.8,1.4c-0.4,1-0.1,2.1,0,3.1
			C107.1,62.7,111,58.5,113.9,58z"/>
		<path class="st13" d="M111,54.9c0.5-0.3,0.9-0.5,1.5-0.5c-0.3-0.3-0.8-0.1-1.2,0.1c-0.8,0.4-1.6,0.8-2.4,1.2
			c-0.3,0.2-0.7,0.3-0.8,0.7c-0.1,0.2-0.2,0.8,0.1,0.9c0.2,0,0.6-0.7,0.7-0.8C109.5,55.7,110.2,55.3,111,54.9z"/>
		<path class="st13" d="M105.2,63.4c-1.3,0.1-2.5,0.7-3.6,1.5c-0.1-0.3,0.1-0.5,0.4-0.7c0.5-0.3,1-0.5,1.5-0.7
			c1.1-0.4,2.2-0.8,3.4-0.6c1.1,0.1,2.4,1,2.5,2.2c-0.5,0.2-1.3-0.9-1.7-1.1C106.9,63.5,106.1,63.4,105.2,63.4z"/>
		<path class="st13" d="M106.3,56.6c-0.3-0.1-0.6-0.1-0.9-0.2c-1.1,0-2.1,0.3-3,1c-0.1-0.1-0.1-0.3,0-0.4c0.1-0.1,0.2-0.2,0.3-0.3
			c0.5-0.3,1.1-0.6,1.7-0.8c0.7-0.2,1.5-0.2,2.2,0c0.4,0.1,2,0.8,1.5,1.4C107.7,57.8,106.6,56.7,106.3,56.6z"/>
		<path class="st13" d="M117.2,72.6c0.6,0.2,1.1,0.3,1.7,0.1c0.5-0.2,1-0.8,0.8-1.3c0-0.2-0.1-0.3-0.2-0.4c-0.4-0.2-0.7,0.1-1.1,0.3
			c-0.7,0.4-1.6,0.1-2.3-0.2c-0.6-0.3-1.3-0.6-1.7-1.2c-0.5-0.5-1.1-1.8-1.9-1.7c-1,0.1-0.3,1.3,0.1,1.7
			C113.8,71.2,115.5,72.1,117.2,72.6z"/>
		<path class="st14" d="M103.4,53.3c-1,1.9-1.2,4.1-0.8,6.2c0.1,0.7,0.4,1.4,0.9,1.9c0.5,0.4,1.1,0.6,1.7,0.4
			c0.2-0.1,0.4-0.2,0.6-0.3c0.3-0.3,0.4-0.7,0.4-1.1c0-0.7-0.3-1.4-0.7-1.9c-0.3-0.3-0.6-0.6-0.9-0.9c-0.3-0.3-0.4-0.8-0.3-1.2
			c0.1-0.4,0.4-0.6,0.4-1c0-0.3-0.2-0.6-0.3-1c-0.1-0.4,0.1-0.9,0.3-1.2c0.3-0.7,0.6-1.3,1.1-1.9c0.3-0.3,0.7-0.6,0.9-1.1
			c0.1-0.4,0.1-0.9,0.1-1.3c0.1-1,0.9-1.7,1.6-2.3c0.7-0.6,1.4-1.4,1.4-2.4c-0.6,0-1,0.6-1.4,1.1c-0.5,0.6-1.2,1.1-1.7,1.7
			c-0.9,0.9-0.8,1.9-1.3,3C104.9,51.1,104,52.1,103.4,53.3z"/>
	</g>
	<g>
		<path class="st15" d="M165.3,94.7c1.1,2.9,3.3,4.9,5.7,5.5c2.4,0.7,7,0.8,9.8-1.9c2.2-2,3-5.7,3.5-8.9c0.1-0.6,0.1-1.2,0.1-1.7
			c-0.1-1.5-0.8-2.8-1.6-3.7c-1.8-2.1-4.2-2.8-6.6-3.2c-2.9-0.5-6.1-0.5-8.7,1.2c-1.4,0.9-2.8,2.8-3.1,4.9
			C164.1,89.4,164.5,92.6,165.3,94.7z"/>
		<path class="st16" d="M184.5,87c0,5.7-4.5,10.3-10.1,10.3s-10.1-4.6-10.1-10.3c0-5.7,4.5-10.3,10.1-10.3S184.5,81.3,184.5,87z"/>
		<path class="st17" d="M166.2,85.2c-0.6,2.6,0,5.9,1.8,7.4c0.8,0.7,1.7,0.9,2.5,1.3c1.3,0.5,2.6,1.1,4,1.2c1.9,0.2,3.9-0.6,5.4-2.1
			c1.5-1.5,2.6-3.9,3.1-6.4c0.2-1.5,0.2-3.3-0.7-4.4c-0.5-0.6-1.2-0.9-1.8-1.2c-1.6-0.7-3.1-1.3-4.7-2c-0.7-0.3-1.4-0.6-2.1-0.6
			C170.7,78,167,81.5,166.2,85.2z"/>
		<path class="st18" d="M172.8,79.2c-0.1-0.1-0.2,0-0.3,0.1c-0.1,0.1-0.1,0.3-0.1,0.5c0,0.8,0.3,1.6,0.8,2c0.2-0.4,0.3-1,0.4-1.5
			c0-0.3,0.1-0.6,0-0.8c0-0.3-0.2-0.5-0.4-0.6C172.9,78.7,172.7,78.9,172.8,79.2c-0.1-0.1-0.2-0.2-0.2-0.3L172.8,79.2z"/>
		<path class="st18" d="M174.6,79.5c0.1-0.3,0.2-0.6,0.4-0.7c0.2-0.1,0.5,0,0.6,0.2c0.1,0.3,0,0.7-0.1,1c-0.1,0.3-0.9,2-1.1,1.6
			c-0.1-0.2,0-0.7,0-0.9C174.5,80.4,174.5,80,174.6,79.5z"/>
		<path class="st18" d="M176.4,80.1c0.2-0.2,0.4-0.4,0.6-0.4s0.5,0.2,0.5,0.6c0,0.3-0.2,0.6-0.4,0.8c-0.2,0.2-1.4,1.3-1.5,0.9
			c0-0.2,0.2-0.6,0.3-0.8C176,80.8,176.1,80.4,176.4,80.1z"/>
		<path class="st18" d="M179.1,80.4c0-0.2-0.2-0.2-0.3-0.2c-0.1,0-0.2,0.2-0.3,0.3c-0.4,0.6-0.5,1.5-0.3,2.3c0.4-0.2,0.7-0.5,1-0.9
			c0.2-0.2,0.3-0.4,0.4-0.6c0.1-0.3,0.1-0.6,0-0.8C179.5,80.2,179.2,80.2,179.1,80.4c-0.1-0.2,0-0.3,0-0.4L179.1,80.4z"/>
		<path class="st18" d="M180.5,82.3c0.2-0.2,0.4-0.3,0.7-0.2c0.2,0.1,0.4,0.4,0.4,0.7c0,0.3-0.3,0.5-0.5,0.7
			c-0.2,0.1-1.6,0.9-1.6,0.4c0-0.2,0.3-0.5,0.4-0.7C180,82.9,180.2,82.5,180.5,82.3z"/>
		<path class="st18" d="M181.6,84.1c0.2,0,0.5,0,0.7,0.2c0.2,0.2,0.3,0.6,0.1,0.8c-0.1,0.3-0.4,0.3-0.7,0.3c-0.2,0-1.7-0.1-1.6-0.5
			c0.1-0.2,0.4-0.3,0.6-0.4C181,84.4,181.3,84.2,181.6,84.1z"/>
		<path class="st18" d="M181.6,87.7c0.1-0.1,0.2-0.3,0.1-0.4c0-0.2-0.1-0.3-0.2-0.4c-0.5-0.5-1.1-0.6-1.7-0.3
			c0.1,0.5,0.4,0.9,0.7,1.2c0.2,0.2,0.3,0.4,0.5,0.5c0.2,0.1,0.4,0.1,0.6-0.1c0.2-0.2,0.2-0.6,0-0.7c0.1,0,0.2,0,0.3,0L181.6,87.7z"
			/>
		<path class="st18" d="M180.3,89.6c0.1,0.2,0.2,0.6,0.2,0.9c0,0.3-0.3,0.6-0.5,0.5c-0.3,0-0.4-0.4-0.5-0.7
			c-0.1-0.3-0.7-2.1-0.4-2.1c0.2,0,0.4,0.4,0.5,0.5C179.8,89,180.1,89.3,180.3,89.6z"/>
		<path class="st18" d="M179,91.2c0.1,0.3,0,0.6-0.1,0.9c-0.1,0.3-0.4,0.4-0.6,0.2c-0.2-0.2-0.3-0.6-0.3-0.9c0-0.3,0-2.3,0.3-2.2
			c0.1,0.1,0.2,0.6,0.3,0.8C178.8,90.4,179,90.8,179,91.2z"/>
		<path class="st18" d="M176.1,93.4c0.1,0.1,0.2,0,0.3-0.1c0.1-0.1,0.1-0.3,0.1-0.5c0-0.8-0.3-1.6-0.8-2c-0.2,0.4-0.3,1-0.4,1.5
			c0,0.3-0.1,0.6,0,0.8c0,0.3,0.2,0.5,0.4,0.6C175.9,93.8,176.1,93.6,176.1,93.4c0.1,0.1,0.2,0.2,0.2,0.3L176.1,93.4z"/>
		<path class="st18" d="M174.2,93c-0.1,0.3-0.2,0.6-0.4,0.7c-0.2,0.1-0.5,0-0.6-0.2c-0.1-0.3,0-0.7,0.1-1c0.1-0.3,0.9-2,1.1-1.6
			c0.1,0.2,0,0.7,0,0.9C174.3,92.1,174.3,92.6,174.2,93z"/>
		<path class="st18" d="M172.5,92.5c-0.2,0.2-0.4,0.4-0.6,0.4c-0.2,0-0.5-0.2-0.5-0.6c0-0.3,0.2-0.6,0.4-0.8
			c0.2-0.2,1.4-1.3,1.5-0.9c0,0.2-0.2,0.6-0.3,0.8C172.8,91.7,172.7,92.1,172.5,92.5z"/>
		<path class="st18" d="M168.6,91.5c0,0.2,0.1,0.3,0.2,0.3c0.1,0,0.2,0,0.3-0.1c0.5-0.4,0.9-1.1,0.9-1.9c-0.4-0.1-0.8,0.1-1.2,0.3
			c-0.2,0.1-0.4,0.2-0.6,0.4c-0.2,0.2-0.3,0.5-0.2,0.7C168.2,91.5,168.4,91.7,168.6,91.5c0,0.2,0,0.3-0.1,0.4L168.6,91.5z"/>
		<path class="st18" d="M167.9,89c-0.2,0.1-0.5,0-0.7-0.2c-0.2-0.2-0.3-0.6-0.1-0.8c0.1-0.3,0.4-0.3,0.7-0.3c0.2,0,1.7,0,1.6,0.5
			c-0.1,0.2-0.4,0.3-0.6,0.4C168.5,88.7,168.2,89,167.9,89z"/>
		<path class="st18" d="M167.4,86.8c-0.2-0.1-0.4-0.2-0.5-0.5c-0.1-0.3-0.1-0.7,0.1-0.8c0.2-0.2,0.5-0.1,0.7,0.1
			c0.2,0.1,1.5,1,1.3,1.3c-0.1,0.1-0.5,0-0.6,0C168,86.8,167.7,86.9,167.4,86.8z"/>
		<path class="st18" d="M167.6,82.9c-0.1,0-0.2,0.2-0.2,0.4c0,0.2,0.1,0.3,0.1,0.4c0.4,0.6,1,1,1.6,0.9c0-0.5-0.2-1-0.4-1.5
			c-0.1-0.2-0.2-0.5-0.4-0.7c-0.2-0.2-0.4-0.3-0.6-0.2C167.6,82.4,167.5,82.7,167.6,82.9c-0.1,0-0.2,0-0.3-0.1L167.6,82.9z"/>
		<path class="st18" d="M169.3,81.6c-0.1-0.3-0.1-0.6,0-0.9c0.1-0.3,0.4-0.4,0.6-0.3c0.2,0.1,0.3,0.5,0.4,0.8c0,0.3,0.3,2.3-0.1,2.2
			c-0.2,0-0.3-0.5-0.4-0.7C169.6,82.3,169.4,82,169.3,81.6z"/>
		<path class="st18" d="M170.9,80.5c0-0.3,0.1-0.6,0.3-0.8c0.2-0.2,0.5-0.2,0.6,0c0.2,0.2,0.1,0.6,0.1,1c-0.1,0.3-0.5,2.2-0.7,1.9
			c-0.1-0.1-0.1-0.7-0.1-0.8C170.9,81.4,170.8,80.9,170.9,80.5z"/>
	</g>
	<g>
		<path class="st15" d="M154.3,47c1.2,2.6,3.5,4.3,6,4.9c2.5,0.6,7.4,0.7,10.4-1.7c2.3-1.8,3.2-5.1,3.6-8c0.1-0.5,0.1-1,0.1-1.5
			c-0.1-1.3-0.8-2.5-1.7-3.3c-1.9-1.8-4.4-2.5-6.9-2.8c-3.1-0.4-6.4-0.4-9.2,1.1c-1.4,0.8-2.9,2.5-3.2,4.4
			C153,42.2,153.4,45.1,154.3,47z"/>
		<path class="st16" d="M174.5,40.1c0,5.1-4.7,9.2-10.6,9.2c-5.9,0-10.6-4.1-10.6-9.2s4.7-9.2,10.6-9.2
			C169.8,30.9,174.5,35,174.5,40.1z"/>
		<path class="st17" d="M155.2,38.5c-0.7,2.4,0,5.3,1.9,6.6c0.8,0.6,1.7,0.8,2.7,1.1c1.4,0.4,2.8,1,4.2,1.1c2,0.2,4.1-0.5,5.7-1.9
			c1.6-1.4,2.8-3.4,3.2-5.7c0.3-1.4,0.2-3-0.7-4c-0.5-0.6-1.2-0.8-1.9-1.1c-1.7-0.6-3.3-1.2-5-1.8c-0.7-0.3-1.4-0.5-2.2-0.6
			C160,32,156.1,35.2,155.2,38.5z"/>
		<path class="st18" d="M162.1,33.1c-0.1-0.1-0.3,0-0.3,0.1c-0.1,0.1-0.1,0.3-0.1,0.4c0,0.7,0.3,1.4,0.8,1.8
			c0.2-0.4,0.3-0.9,0.4-1.3c0-0.2,0.1-0.5,0-0.7c0-0.2-0.2-0.5-0.4-0.6C162.3,32.7,162.1,32.8,162.1,33.1c-0.1-0.1-0.2-0.2-0.2-0.3
			L162.1,33.1z"/>
		<path class="st18" d="M164.1,33.4c0.1-0.3,0.2-0.5,0.5-0.6c0.2-0.1,0.5,0,0.6,0.2c0.1,0.3,0,0.6-0.1,0.9c-0.1,0.2-0.9,1.8-1.1,1.5
			c-0.1-0.2,0-0.6,0-0.8C164,34.2,164,33.8,164.1,33.4z"/>
		<path class="st18" d="M165.9,33.9c0.2-0.2,0.4-0.4,0.6-0.3c0.2,0,0.5,0.2,0.5,0.5c0,0.3-0.2,0.5-0.4,0.7c-0.2,0.1-1.5,1.2-1.6,0.8
			c0-0.2,0.2-0.5,0.3-0.7C165.6,34.5,165.7,34.2,165.9,33.9z"/>
		<path class="st18" d="M168.9,34.2c0-0.1-0.2-0.2-0.3-0.2c-0.1,0-0.2,0.1-0.3,0.3c-0.4,0.6-0.5,1.3-0.3,2c0.4-0.1,0.7-0.5,1-0.8
			c0.2-0.2,0.3-0.4,0.4-0.6c0.1-0.2,0.1-0.5,0-0.7S168.9,34,168.9,34.2c-0.1-0.2-0.1-0.3,0-0.4L168.9,34.2z"/>
		<path class="st18" d="M170.3,35.9c0.2-0.2,0.5-0.2,0.7-0.2c0.2,0.1,0.4,0.3,0.4,0.6c0,0.3-0.3,0.5-0.6,0.6
			c-0.2,0.1-1.7,0.8-1.7,0.4c0-0.2,0.3-0.5,0.4-0.6C169.8,36.4,170,36.1,170.3,35.9z"/>
		<path class="st18" d="M171.5,37.5c0.2,0,0.5,0,0.7,0.2c0.2,0.2,0.3,0.5,0.1,0.7c-0.1,0.3-0.5,0.3-0.7,0.3c-0.2,0-1.8-0.1-1.7-0.5
			c0.1-0.2,0.5-0.3,0.6-0.3C170.8,37.7,171.1,37.6,171.5,37.5z"/>
		<path class="st18" d="M171.5,40.7c0.1-0.1,0.2-0.2,0.1-0.4c0-0.1-0.1-0.2-0.2-0.3c-0.5-0.4-1.2-0.5-1.8-0.2
			c0.1,0.4,0.5,0.8,0.8,1.1c0.2,0.2,0.3,0.3,0.5,0.4c0.2,0.1,0.5,0.1,0.6-0.1C171.6,41.1,171.7,40.7,171.5,40.7
			c0.1-0.1,0.2-0.1,0.3-0.1L171.5,40.7z"/>
		<path class="st18" d="M170.1,42.4c0.1,0.2,0.2,0.5,0.2,0.8c0,0.3-0.3,0.5-0.5,0.5c-0.3,0-0.4-0.3-0.6-0.6
			c-0.1-0.2-0.8-1.9-0.4-1.9c0.2,0,0.4,0.3,0.5,0.5C169.6,41.9,169.9,42.1,170.1,42.4z"/>
		<path class="st18" d="M168.8,43.9c0.1,0.3,0,0.6-0.1,0.8c-0.1,0.2-0.4,0.3-0.6,0.2c-0.2-0.2-0.3-0.5-0.3-0.8c0-0.3,0-2.1,0.3-1.9
			c0.2,0.1,0.3,0.5,0.3,0.7C168.5,43.1,168.7,43.5,168.8,43.9z"/>
		<path class="st18" d="M165.6,45.8c0.1,0.1,0.3,0,0.3-0.1c0.1-0.1,0.1-0.3,0.1-0.4c0-0.7-0.3-1.4-0.8-1.8c-0.2,0.4-0.3,0.9-0.4,1.3
			c0,0.2-0.1,0.5,0,0.7c0,0.2,0.2,0.5,0.4,0.6C165.4,46.1,165.7,46,165.6,45.8c0.1,0.1,0.2,0.2,0.2,0.3L165.6,45.8z"/>
		<path class="st18" d="M163.6,45.4c-0.1,0.3-0.2,0.5-0.4,0.6c-0.2,0.1-0.5,0-0.6-0.2c-0.1-0.3,0-0.6,0.1-0.9
			c0.1-0.2,0.9-1.8,1.1-1.5c0.1,0.2,0,0.6,0,0.8C163.7,44.6,163.7,45,163.6,45.4z"/>
		<path class="st18" d="M161.8,45c-0.2,0.2-0.4,0.4-0.6,0.3c-0.2,0-0.5-0.2-0.5-0.5c0-0.3,0.2-0.5,0.4-0.7c0.2-0.2,1.5-1.2,1.6-0.8
			c0,0.2-0.2,0.5-0.3,0.7C162.2,44.3,162.1,44.7,161.8,45z"/>
		<path class="st18" d="M157.7,44.1c0,0.1,0.1,0.3,0.2,0.3c0.1,0,0.3,0,0.4-0.1c0.5-0.3,0.9-1,1-1.7c-0.4-0.1-0.8,0.1-1.2,0.3
			c-0.2,0.1-0.4,0.2-0.6,0.3c-0.2,0.2-0.3,0.4-0.2,0.7C157.3,44.1,157.6,44.2,157.7,44.1c0,0.2,0,0.3-0.1,0.4L157.7,44.1z"/>
		<path class="st18" d="M157,41.9c-0.2,0.1-0.5,0-0.7-0.1c-0.2-0.2-0.3-0.5-0.2-0.7c0.1-0.3,0.5-0.3,0.7-0.3c0.2,0,1.8,0,1.7,0.4
			c-0.1,0.2-0.5,0.3-0.6,0.3C157.6,41.6,157.3,41.8,157,41.9z"/>
		<path class="st18" d="M156.5,39.9c-0.2-0.1-0.5-0.2-0.6-0.5c-0.1-0.2-0.1-0.6,0.1-0.7c0.2-0.2,0.5,0,0.8,0.1
			c0.2,0.1,1.6,0.9,1.4,1.2c-0.1,0.1-0.5,0-0.7,0C157.1,39.9,156.8,40,156.5,39.9z"/>
		<path class="st18" d="M156.7,36.4c-0.1,0-0.2,0.2-0.2,0.3c0,0.1,0.1,0.3,0.2,0.4c0.4,0.6,1,0.9,1.6,0.8c0-0.5-0.2-0.9-0.4-1.3
			c-0.1-0.2-0.2-0.4-0.4-0.6c-0.2-0.2-0.4-0.2-0.6-0.1C156.7,35.9,156.6,36.3,156.7,36.4c-0.1,0-0.2,0-0.3,0L156.7,36.4z"/>
		<path class="st18" d="M158.5,35.2c-0.1-0.3-0.1-0.6,0-0.8c0.1-0.2,0.4-0.4,0.6-0.3c0.2,0.1,0.3,0.5,0.4,0.8c0,0.3,0.3,2-0.1,2
			c-0.2,0-0.3-0.5-0.4-0.6C158.8,35.9,158.6,35.6,158.5,35.2z"/>
		<path class="st18" d="M160.1,34.3c0-0.3,0.1-0.6,0.3-0.7c0.2-0.2,0.5-0.2,0.7,0c0.2,0.2,0.1,0.6,0.1,0.9c-0.1,0.3-0.5,2-0.8,1.7
			c-0.1-0.1-0.1-0.6-0.1-0.8C160.2,35,160.1,34.6,160.1,34.3z"/>
	</g>
	<g>
		<path class="st15" d="M71.4,81.6c1.2,2.9,3.5,4.9,5.9,5.5c2.5,0.7,7.3,0.8,10.2-1.9c2.2-2,3.2-5.7,3.6-8.9
			c0.1-0.6,0.1-1.2,0.1-1.7c-0.1-1.5-0.8-2.8-1.7-3.7c-1.9-2.1-4.4-2.8-6.8-3.2c-3.1-0.5-6.3-0.5-9.1,1.2c-1.4,0.9-2.9,2.8-3.2,4.9
			C70.1,76.3,70.6,79.4,71.4,81.6z"/>
		<path class="st16" d="M91.4,73.8c0,5.7-4.7,10.3-10.5,10.3c-5.8,0-10.5-4.6-10.5-10.3c0-5.7,4.7-10.3,10.5-10.3
			C86.7,63.5,91.4,68.1,91.4,73.8z"/>
		<path class="st17" d="M72.3,72c-0.7,2.7,0,5.9,1.8,7.4c0.8,0.7,1.7,0.9,2.6,1.3c1.4,0.5,2.7,1.1,4.1,1.2c2,0.2,4-0.6,5.6-2.1
			c1.6-1.5,2.8-3.9,3.2-6.4c0.3-1.5,0.2-3.3-0.7-4.4c-0.5-0.6-1.2-0.9-1.9-1.2c-1.6-0.7-3.3-1.3-4.9-2c-0.7-0.3-1.4-0.6-2.2-0.6
			C77,64.8,73.2,68.3,72.3,72z"/>
		<path class="st18" d="M79.1,66c-0.1-0.1-0.3,0-0.3,0.1c-0.1,0.1-0.1,0.3-0.1,0.5c0,0.8,0.3,1.6,0.8,2c0.2-0.4,0.3-1,0.4-1.5
			c0-0.3,0.1-0.6,0-0.8c0-0.3-0.2-0.5-0.4-0.6C79.3,65.5,79.1,65.7,79.1,66c-0.1-0.1-0.2-0.2-0.2-0.3L79.1,66z"/>
		<path class="st18" d="M81.1,66.4c0.1-0.3,0.2-0.6,0.4-0.7c0.2-0.1,0.5,0,0.6,0.2c0.1,0.3,0,0.7-0.1,1c-0.1,0.3-0.9,2-1.1,1.6
			c-0.1-0.2,0-0.7,0-0.9C81,67.2,81,66.8,81.1,66.4z"/>
		<path class="st18" d="M82.9,66.9c0.2-0.2,0.4-0.4,0.6-0.4c0.2,0,0.5,0.2,0.5,0.6c0,0.3-0.2,0.6-0.4,0.8c-0.2,0.2-1.5,1.3-1.6,0.9
			c0-0.2,0.2-0.6,0.3-0.8C82.5,67.6,82.7,67.2,82.9,66.9z"/>
		<path class="st18" d="M85.8,67.3c0-0.2-0.2-0.2-0.3-0.2c-0.1,0-0.2,0.2-0.3,0.3c-0.4,0.6-0.5,1.5-0.3,2.3c0.4-0.2,0.7-0.5,1-0.9
			c0.2-0.2,0.3-0.4,0.4-0.6c0.1-0.3,0.1-0.6,0-0.8C86.1,67.1,85.8,67,85.8,67.3c-0.1-0.2-0.1-0.3,0-0.4L85.8,67.3z"/>
		<path class="st18" d="M87.2,69.1c0.2-0.2,0.4-0.3,0.7-0.2c0.2,0.1,0.4,0.4,0.4,0.7c0,0.3-0.3,0.5-0.5,0.7
			c-0.2,0.1-1.7,0.9-1.7,0.4c0-0.2,0.3-0.5,0.4-0.7C86.7,69.7,86.9,69.4,87.2,69.1z"/>
		<path class="st18" d="M88.4,70.9c0.2,0,0.5,0,0.7,0.2c0.2,0.2,0.3,0.6,0.1,0.8c-0.1,0.3-0.5,0.3-0.7,0.3c-0.2,0-1.8-0.1-1.6-0.5
			c0.1-0.2,0.5-0.3,0.6-0.4C87.7,71.2,88,71,88.4,70.9z"/>
		<path class="st18" d="M88.3,74.5c0.1-0.1,0.2-0.3,0.1-0.4c0-0.2-0.1-0.3-0.2-0.4c-0.5-0.5-1.2-0.6-1.8-0.3
			c0.1,0.5,0.5,0.9,0.8,1.2c0.2,0.2,0.3,0.4,0.5,0.5c0.2,0.1,0.5,0.1,0.6-0.1c0.2-0.2,0.2-0.6,0-0.7c0.1,0,0.2,0,0.3,0L88.3,74.5z"
			/>
		<path class="st18" d="M87,76.4c0.1,0.2,0.2,0.6,0.2,0.9c0,0.3-0.3,0.6-0.5,0.5c-0.3,0-0.4-0.4-0.5-0.7c-0.1-0.3-0.8-2.1-0.4-2.1
			c0.2,0,0.4,0.4,0.5,0.5C86.5,75.8,86.8,76.1,87,76.4z"/>
		<path class="st18" d="M85.7,78.1c0.1,0.3,0,0.6-0.1,0.9c-0.1,0.3-0.4,0.4-0.6,0.2c-0.2-0.2-0.3-0.6-0.3-0.9c0-0.3,0-2.3,0.3-2.2
			c0.2,0.1,0.3,0.6,0.3,0.8C85.4,77.3,85.6,77.7,85.7,78.1z"/>
		<path class="st18" d="M82.6,80.2c0.1,0.1,0.3,0,0.3-0.1C83,80,83,79.8,83,79.6c0-0.8-0.3-1.6-0.8-2c-0.2,0.4-0.3,1-0.4,1.5
			c0,0.3-0.1,0.6,0,0.8c0,0.3,0.2,0.5,0.4,0.6C82.4,80.6,82.7,80.5,82.6,80.2c0.1,0.1,0.2,0.2,0.2,0.3L82.6,80.2z"/>
		<path class="st18" d="M80.6,79.8c-0.1,0.3-0.2,0.6-0.4,0.7c-0.2,0.1-0.5,0-0.6-0.2c-0.1-0.3,0-0.7,0.1-1c0.1-0.3,0.9-2,1.1-1.6
			c0.1,0.2,0,0.7,0,0.9C80.7,79,80.7,79.4,80.6,79.8z"/>
		<path class="st18" d="M78.8,79.3c-0.2,0.2-0.4,0.4-0.6,0.4c-0.2,0-0.5-0.2-0.5-0.6c0-0.3,0.2-0.6,0.4-0.8c0.2-0.2,1.5-1.3,1.5-0.9
			c0,0.2-0.2,0.6-0.3,0.8C79.2,78.6,79.1,79,78.8,79.3z"/>
		<path class="st18" d="M74.8,78.3c0,0.2,0.1,0.3,0.2,0.3c0.1,0,0.2,0,0.4-0.1c0.5-0.4,0.9-1.1,1-1.9c-0.4-0.1-0.8,0.1-1.2,0.3
			c-0.2,0.1-0.4,0.2-0.6,0.4c-0.2,0.2-0.3,0.5-0.2,0.7C74.4,78.3,74.6,78.5,74.8,78.3c0,0.2,0,0.3-0.1,0.4L74.8,78.3z"/>
		<path class="st18" d="M74.1,75.9c-0.2,0.1-0.5,0-0.7-0.2c-0.2-0.2-0.3-0.6-0.1-0.8c0.1-0.3,0.4-0.3,0.7-0.3c0.2,0,1.8,0,1.7,0.5
			c-0.1,0.2-0.5,0.3-0.6,0.4C74.7,75.6,74.4,75.8,74.1,75.9z"/>
		<path class="st18" d="M73.5,73.6c-0.2-0.1-0.5-0.2-0.6-0.5c-0.1-0.3-0.1-0.7,0.1-0.8c0.2-0.2,0.5-0.1,0.7,0.1
			c0.2,0.1,1.6,1,1.3,1.3c-0.1,0.1-0.5,0-0.7,0C74.2,73.7,73.9,73.7,73.5,73.6z"/>
		<path class="st18" d="M73.8,69.7c-0.1,0-0.2,0.2-0.2,0.4c0,0.2,0.1,0.3,0.2,0.4c0.4,0.6,1,1,1.6,0.9c0-0.5-0.2-1-0.4-1.5
			c-0.1-0.2-0.2-0.5-0.4-0.7c-0.2-0.2-0.4-0.3-0.6-0.2C73.8,69.2,73.6,69.6,73.8,69.7c-0.1,0-0.2,0-0.3-0.1L73.8,69.7z"/>
		<path class="st18" d="M75.5,68.4c-0.1-0.3-0.1-0.6,0-0.9c0.1-0.3,0.4-0.4,0.6-0.3c0.2,0.1,0.3,0.5,0.4,0.8c0,0.3,0.3,2.3-0.1,2.2
			c-0.2,0-0.3-0.5-0.4-0.7C75.9,69.1,75.7,68.8,75.5,68.4z"/>
		<path class="st18" d="M77.2,67.3c0-0.3,0.1-0.6,0.3-0.8c0.2-0.2,0.5-0.2,0.7,0c0.2,0.2,0.1,0.6,0.1,1c-0.1,0.3-0.5,2.2-0.8,2
			c-0.1-0.1-0.1-0.7-0.1-0.8C77.2,68.2,77.2,67.7,77.2,67.3z"/>
	</g>
</g>
</svg>
